<?xml version="1.0" encoding="utf-8"?>
<!-- Generator: Adobe Illustrator 23.0.3, SVG Export Plug-In . SVG Version: 6.00 Build 0)  -->
<svg version="1.1" id="Layer_1" xmlns="http://www.w3.org/2000/svg" xmlns:xlink="http://www.w3.org/1999/xlink" x="0px" y="0px"
	 viewBox="0 0 65 65" style="enable-background:new 0 0 65 65;" xml:space="preserve">
<style type="text/css">
	.st0{fill:#02D463;}
</style>
<g>
	<path class="st0" d="M31,19.1c3.6-3.6,7.2-7.2,10.8-10.8c-0.2-0.2-0.4-0.4-0.6-0.6c-1.8-1.8-3.5-3.5-5.3-5.3
		c-0.4-0.4-0.8-0.8-0.4-1.3c0.2-0.3,0.8-0.6,1.2-0.6c6.7,0,13.4,0,20.1,0c1,0,1.4,0.3,1.4,1.3c0,6.7,0,13.4,0,20.1
		c0,0.5,0,1.1-0.6,1.3c-0.6,0.2-1-0.1-1.4-0.5c-1.9-1.9-3.8-3.9-5.8-5.9c-0.3,0.3-0.5,0.5-0.8,0.7c-4.7,4.7-9.3,9.3-14,14
		c-2.8,2.8-6.3,2.8-9.1,0c-1.1-1.1-2.1-2.2-3.4-3.5c-0.3,0.4-0.4,0.7-0.6,1c-5.3,5.3-10.5,10.6-15.8,16c-0.4,0.4-0.7,0.8-1.4,0.6
		c-0.7-0.3-0.6-0.8-0.6-1.4c0-4.5,0-8.9,0-13.3c0-0.7,0.2-1.2,0.7-1.6c4.5-4.5,9-9,13.5-13.4c2.6-2.6,6.2-2.6,8.8,0
		C28.8,16.9,29.9,18,31,19.1z"/>
	<path class="st0" d="M64.7,44.8c0,6.1,0,12.2,0,18.3c0,1.2-0.2,1.5-1.4,1.5c-3.1,0-6.3,0-9.4,0c-1.1,0-1.4-0.3-1.4-1.4
		c0-12.1,0-24.3,0-36.4c0-1.3,0.2-1.6,1.6-1.6c3.1,0,6.1,0,9.2,0c1.3,0,1.6,0.2,1.6,1.5C64.7,32.7,64.7,38.7,64.7,44.8z"/>
	<path class="st0" d="M47.3,51.6c0,3.8,0,7.7,0,11.5c0,1.1-0.3,1.4-1.4,1.4c-3.2,0-6.4,0-9.6,0c-1,0-1.3-0.3-1.3-1.3
		c0-7.7,0-15.5,0-23.2c0-1.1,0.2-1.3,1.3-1.3c3.2,0,6.4,0,9.6,0c1.2,0,1.4,0.2,1.4,1.3C47.3,43.9,47.3,47.7,47.3,51.6z"/>
	<path class="st0" d="M17.7,54.1c0-2.9,0-5.9,0-8.8c0-1.2,0.2-1.4,1.4-1.4c3.2,0,6.4,0,9.7,0c0.9,0,1.2,0.3,1.2,1.2
		c0,6,0,12.1,0,18.1c0,1-0.3,1.3-1.3,1.3c-3.3,0-6.5,0-9.8,0c-0.9,0-1.2-0.3-1.2-1.3C17.7,60.2,17.7,57.2,17.7,54.1
		C17.7,54.1,17.7,54.1,17.7,54.1z"/>
	<path class="st0" d="M0.3,58.2c0-1.7,0-3.4,0-5.1c0-1,0.2-1.2,1.2-1.2c3.2,0,6.5,0,9.7,0c1,0,1.3,0.3,1.3,1.3c0,3.3,0,6.7,0,10
		c0,1-0.3,1.3-1.3,1.3c-3.2,0-6.4,0-9.7,0c-1.1,0-1.3-0.3-1.3-1.3C0.3,61.5,0.3,59.8,0.3,58.2z"/>
</g>
</svg>
