<?xml version="1.0" encoding="utf-8"?>
<!-- Generator: Adobe Illustrator 23.0.3, SVG Export Plug-In . SVG Version: 6.00 Build 0)  -->
<svg version="1.1" id="Layer_1" xmlns="http://www.w3.org/2000/svg" xmlns:xlink="http://www.w3.org/1999/xlink" x="0px" y="0px"
	 viewBox="0 0 42 42" style="enable-background:new 0 0 42 42;" xml:space="preserve">
<style type="text/css">
	.st0{fill:#02D463;}
</style>
<g>
	<path class="st0" d="M30.1,8.3c-0.2,1-0.7,1.7-1.5,2.2c-0.1,0.1-0.1,0.3-0.1,0.4c0.3,1.8,0.6,3.6,0.9,5.4c0,0.3,0,0.6,0.1,0.9
		c0,0.3-0.1,0.5-0.5,0.6c-0.3,0-0.5-0.2-0.5-0.5c-0.2-1.7-0.4-3.3-0.7-5c-0.1-0.5-0.2-0.9-0.3-1.3c-1.9,0-2.9-0.7-3.5-2.4
		c0-0.1-0.2-0.2-0.2-0.2c-1.3,0-2.5,0-3.8,0c-0.1,0-0.2,0-0.4,0c0,0.2,0,0.4,0,0.5c0,4.5,0,9,0,13.5c0,0.3,0.1,0.7-0.1,1
		c-0.1,0.2-0.6,0.2-0.9,0.3c-1.1,0.3-1.8,1.3-1.6,2.4c0.1,1,1,1.9,2.1,1.9c0.6,0,0.8,0.2,0.6,0.8c0,0.1,0,0.2,0,0.3
		c0,2.6,0,5.2,0,7.8c0,0.1,0,0.2,0,0.4c0.8-0.1,1.5-0.1,2.2-0.2c0,0,0.1,0,0.1,0c0.5-0.1,0.8,0,0.8,0.4c0,0.3-0.2,0.5-0.7,0.6
		c-9.4,1.4-18.3-4-21.2-13.1c-2.9-9,1.5-19.1,10.1-23c9.9-4.5,21.2-0.2,25.6,9.7c1,2.3,1.5,4.7,1.6,7.3c0,0.5-0.1,0.7-0.5,0.7
		c-0.3,0-0.5-0.2-0.5-0.7C37,15,35.9,11.6,33.7,8.6c-0.2-0.2-0.3-0.3-0.6-0.3C32.1,8.3,31.1,8.3,30.1,8.3z M18.5,18.5
		c0-3.4,0-6.8,0-10.2c0,0-0.1,0-0.1,0c-2.2,0-4.5,0-6.7,0c-0.1,0-0.2,0.1-0.3,0.2c-0.3,0.8-0.6,1.7-0.8,2.5c0.1,0.1,0.1,0.1,0.1,0.1
		c1.1,0.7,1.7,1.8,1.5,3.2c-0.2,1.3-1,2.2-2.3,2.6c-0.1,0-0.2,0.1-0.2,0.2c0,0.5,0,1,0,1.6C12.6,18.5,15.5,18.5,18.5,18.5z
		 M18.5,19.6c-3,0-6,0-8.9,0c0,0.5,0,0.9,0,1.3c0.2,2.9,0.7,5.8,1.7,8.5c0.1,0.3,0.2,0.4,0.5,0.4c2.1,0,4.2,0,6.3,0
		c0.1,0,0.3,0,0.4,0c0-0.4,0-0.7,0-1c-1.7-0.6-2.6-1.6-2.6-2.9c0-1.8,1-2.8,2.6-3.3C18.5,21.6,18.5,20.6,18.5,19.6z M1,19.5
		c0,0.1,0,0.2,0,0.2c0.1,3.6,1.3,6.9,3.4,9.8c0.1,0.1,0.3,0.2,0.5,0.2c1.8,0,3.5,0,5.3,0c0.1,0,0.2,0,0.2,0
		c-0.4-1.7-0.9-3.4-1.2-5.1c-0.3-1.7-0.4-3.4-0.6-5.2C6,19.5,3.5,19.5,1,19.5z M0.9,18.5c2.6,0,5.1,0,7.7,0c0-0.6,0-1.1,0-1.7
		c-0.1,0-0.2-0.1-0.4-0.1c-1.7-0.5-2.7-2.2-2.2-3.9c0.4-1.4,1.7-2.3,3.2-2.2c0.1,0,0.4,0,0.4-0.1c0.3-0.7,0.5-1.4,0.7-2.2
		c-0.2,0-0.3,0-0.4,0c-1.7,0-3.4,0-5,0c-0.3,0-0.5,0.1-0.6,0.3c-1.5,2.2-2.5,4.5-3,7.1C1.1,16.6,1,17.6,0.9,18.5z M18.5,37.1
		c0-2.1,0-4.2,0-6.3c-2.2,0-4.4,0-6.6,0c0,0.1,0,0.1,0,0.2c0.7,1.6,1.6,3,2.9,4.2C15.9,36.2,17,36.9,18.5,37.1z M18.5,1
		c-1.3,0.1-2.4,0.7-3.3,1.5c-1.5,1.3-2.5,2.9-3.3,4.7c2.3,0,4.4,0,6.6,0c0-2,0-4,0-5.9C18.5,1.2,18.5,1.1,18.5,1z M25.1,5.3
		c-1-2.2-3.9-4.4-5.5-4.2c0,2.1,0,4.1,0,6.2c1.5,0,2.9,0,4.3,0C24,6.4,24.4,5.8,25.1,5.3z M5.5,30.8c0,0,0,0.1,0,0.1
		c2.6,2.9,5.7,4.8,9.5,5.7c-0.6-0.7-1.2-1.2-1.7-1.9c-0.9-1.1-1.6-2.3-2.2-3.6c-0.1-0.1-0.2-0.3-0.4-0.3C8.9,30.8,7.2,30.8,5.5,30.8
		z M14.9,1.4c-3.8,0.9-7,2.8-9.6,5.8c1.7,0,3.3,0,4.9,0c0.5,0,0.7-0.1,0.9-0.6c0.6-1.1,1.3-2.3,2-3.3C13.6,2.7,14.3,2.1,14.9,1.4z
		 M23.2,1.5c1.1,0.9,1.9,2,2.7,3.1c0.1,0.1,0.3,0.1,0.4,0.1C28,4.4,29.5,5.3,30,7c0,0.1,0.1,0.2,0.1,0.3c0.9,0,1.7,0,2.6,0
		C30.1,4.3,27,2.4,23.2,1.5z M9.1,15.9c1.2,0,2.2-1,2.2-2.2c0-1.2-1-2.1-2.2-2.1c-1.2,0-2.2,1-2.2,2.2C6.9,14.9,7.9,15.9,9.1,15.9z
		 M24.8,7.8c0,1.2,1,2.1,2.1,2.2c1.2,0,2.2-1,2.2-2.2c0-1.2-1-2.1-2.1-2.1C25.8,5.6,24.8,6.6,24.8,7.8z"/>
	<path class="st0" d="M21.2,24.8c0.1-0.8,0.1-1.7,0.2-2.5c0-0.6,0.2-0.7,0.8-0.7c2.8,0.1,5.3-0.6,7.6-2.2c0.5-0.4,1-0.8,1.5-1.3
		c0.4-0.3,0.5-0.3,0.9,0c2.6,2.5,5.6,3.6,9.1,3.5c0.5,0,0.7,0.1,0.7,0.6c0.4,4.3,0,8.4-1.9,12.4c-1.6,3.5-4.3,6-8,7.3
		c-0.3,0.1-0.6,0.1-0.9,0c-4.4-1.6-7.2-4.8-8.7-9.1C21.6,30.2,21.2,27.5,21.2,24.8z M22.3,22.6c0,0.1-0.1,0.1-0.1,0.1
		c0,0.1,0,0.2,0,0.3c-0.2,3.6,0.1,7.2,1.6,10.6c1.5,3.5,3.9,6,7.5,7.3c0.2,0.1,0.5,0.1,0.7,0c0.8-0.4,1.7-0.7,2.4-1.2
		c2.9-1.8,4.7-4.6,5.7-7.8c0.9-2.9,1.1-5.8,1-8.8c0-0.4-0.2-0.5-0.5-0.5c-2,0-3.8-0.4-5.6-1.3c-1.2-0.6-2.3-1.3-3.3-2.2
		C29,21.5,25.9,22.6,22.3,22.6z"/>
	<path class="st0" d="M9.1,14.4c-0.4,0-0.6-0.3-0.6-0.6c0-0.4,0.3-0.6,0.7-0.6c0.4,0,0.6,0.3,0.6,0.7C9.7,14.1,9.4,14.4,9.1,14.4z"
		/>
	<path class="st0" d="M27,8.4c-0.4,0-0.7-0.3-0.7-0.6c0-0.3,0.3-0.7,0.6-0.7c0.3,0,0.7,0.3,0.7,0.6C27.6,8.1,27.4,8.4,27,8.4z"/>
	<path class="st0" d="M39.4,25.8c-0.1,2.8-0.6,5.5-1.9,8c-1.2,2.4-3.1,4.2-5.5,5.3c-0.3,0.1-0.5,0.1-0.8,0c-3-1.4-5-3.8-6.2-6.9
		c-0.9-2.4-1.2-4.9-1.2-7.4c0-0.4,0.2-0.6,0.6-0.7c2.5-0.3,4.8-1.2,6.8-2.6c0.3-0.2,0.5-0.1,0.8,0c1.8,1.3,3.9,2.1,6.1,2.5
		c0.2,0,0.4,0.1,0.6,0.1c0.5,0.1,0.6,0.2,0.6,0.7C39.4,25.2,39.4,25.5,39.4,25.8z M38.4,26.3c0-0.3,0-0.6,0-0.9
		c0-0.3-0.1-0.3-0.3-0.4c-2.2-0.4-4.3-1.1-6.2-2.4c-0.3-0.2-0.4-0.2-0.7,0c-1.9,1.2-3.9,2-6.1,2.4c-0.3,0-0.3,0.2-0.3,0.4
		c0,2.2,0.4,4.4,1.2,6.5c1,2.7,2.7,4.8,5.3,6.1c0.3,0.1,0.5,0.1,0.7,0c2.3-1.1,3.9-2.9,4.9-5.2C37.9,30.8,38.3,28.6,38.4,26.3z"/>
	<path class="st0" d="M30.4,30.9c0.6-0.6,1.3-1.3,2-2c0.7-0.7,1.4-1.4,2.1-2.1c0.2-0.2,0.5-0.3,0.8-0.1c0.3,0.2,0.2,0.5,0,0.7
		c-1.4,1.4-2.9,2.9-4.3,4.3c-0.5,0.5-0.7,0.5-1.2,0c-0.6-0.6-1.1-1.1-1.6-1.7c-0.2-0.3-0.3-0.5,0-0.8c0.3-0.2,0.5-0.1,0.7,0.1
		C29.3,29.9,29.8,30.4,30.4,30.9z"/>
</g>
</svg>
