<?xml version="1.0" encoding="utf-8"?>
<!-- Generator: Adobe Illustrator 23.0.0, SVG Export Plug-In . SVG Version: 6.00 Build 0)  -->
<svg version="1.1" id="Layer_1" xmlns="http://www.w3.org/2000/svg" xmlns:xlink="http://www.w3.org/1999/xlink" x="0px" y="0px"
	 viewBox="0 0 22.8 54.2" style="enable-background:new 0 0 22.8 54.2;" xml:space="preserve">
<style type="text/css">
	.st0{fill:#1E4454;}
	.st1{fill:#347990;}
	.st2{fill:#424243;}
</style>
<title>logo</title>
<path class="st0" d="M17.1,17.6c-2.4,0-4.6-1.3-5.7-3.5c-1.6,3.2-5.5,4.4-8.7,2.8c-1.1-0.6-2.1-1.5-2.7-2.6v6.3h22.8v-6.3
	C21.7,16.3,19.5,17.6,17.1,17.6"/>
<path class="st1" d="M5.7,4.6c2.4,0,4.6,1.3,5.7,3.5C13,5,16.9,3.7,20.1,5.4c0.8,0.4,1.5,1,2.1,1.8c0.4-0.5,0.6-1,0.6-1.6h-1.7
	C17.9,0.1,10.9-1.6,5.5,1.7c-1.6,1-2.9,2.3-3.8,3.8H0c0,0.6,0.2,1.2,0.6,1.6C1.8,5.6,3.7,4.7,5.7,4.6"/>
<path id="eyeright" class="st1" d="M8.4,11.1c0,1.5-1.2,2.7-2.7,2.7S3,12.6,3,11.1c0-1.5,1.2-2.7,2.7-2.7C7.2,8.4,8.4,9.6,8.4,11.1
	C8.4,11.1,8.4,11.1,8.4,11.1"/>
<path class="st2" d="M12.7,14.4l-1-1c-0.2-0.2-0.4-0.2-0.6,0c0,0,0,0,0,0l-1,1C10,14.6,10,14.8,10,14.9l1,1.8
	c0.1,0.2,0.4,0.3,0.6,0.2c0.1,0,0.1-0.1,0.2-0.2l1-1.8C12.9,14.8,12.8,14.6,12.7,14.4"/>
<path class="st1" d="M0,40.7l3.9-3c0.6-0.4,0.9-1.1,0.9-1.9V22.2H0V40.7z"/>
<path class="st0" d="M6.5,34.7C6.5,36,7.5,37,8.8,37H14c1.3,0,2.4-1.1,2.4-2.4V22.2H6.5V34.7z"/>
<path class="st1" d="M18,22.2v13.7c0,0.7,0.3,1.4,0.9,1.9l3.9,3V22.2H18z"/>
<path id="eyeleft" class="st1" d="M19.8,11.1c0,1.5-1.2,2.7-2.7,2.7c-1.5,0-2.7-1.2-2.7-2.7c0-1.5,1.2-2.7,2.7-2.7
	C18.6,8.4,19.8,9.6,19.8,11.1C19.8,11.1,19.8,11.1,19.8,11.1"/>
<path class="st2" d="M21.4,43c0.4-0.5,0.4-1.2-0.1-1.6c0,0,0,0-0.1,0l-3.8-2.8c-0.6-0.4-1.3-0.7-2.1-0.7H7.5c-0.6,0-1.3,0.2-1.8,0.5
	l-3.9,2.6c-0.5,0.3-0.7,1-0.3,1.6c0,0.1,0.1,0.1,0.2,0.2l9.3,8.9c0.5,0.4,1.2,0.4,1.6,0L21.4,43z"/>
</svg>
