<?xml version="1.0" encoding="utf-8"?>
<!-- Generator: Adobe Illustrator 17.0.0, SVG Export Plug-In . SVG Version: 6.00 Build 0)  -->
<!DOCTYPE svg PUBLIC "-//W3C//DTD SVG 1.1//EN" "http://www.w3.org/Graphics/SVG/1.1/DTD/svg11.dtd">
<svg version="1.1" xmlns="http://www.w3.org/2000/svg" xmlns:xlink="http://www.w3.org/1999/xlink" x="0px" y="0px"
	 width="887.431px" height="600px" viewBox="0 0 887.431 600" enable-background="new 0 0 887.431 600" xml:space="preserve">
<g id="BACKGROUND">
	<rect x="193.716" y="50" opacity="0.15" fill="#EFEFEF" width="500" height="500"/>
</g>
<g id="OBJECTS">
	<g>
		<path opacity="0.6" fill="#8ED6F3" d="M248.685,206.969v-26.077h-20.853c-0.367-2.316-0.835-4.598-1.379-6.849l19.466-7.684
			l-9.577-24.255l-19.698,7.776c-1.668-2.817-3.476-5.539-5.437-8.143l15.031-15.031l-18.437-18.44l-15.174,15.174
			c-2.193-1.602-4.456-3.108-6.797-4.504l8.242-19.848l-24.083-10l-8.279,19.942c-2.655-0.652-5.353-1.192-8.096-1.598v-21.61
			h-26.077v21.61c-2.232,0.33-4.428,0.759-6.602,1.252L113,88.587l-24.255,9.575l7.901,20.01c-2.807,1.612-5.521,3.365-8.124,5.267
			l-15.174-15.174l-18.439,18.44l15.031,15.031c-1.652,2.195-3.199,4.473-4.645,6.82l-19.567-8.125l-9.998,24.083l19.321,8.024
			c-0.71,2.735-1.288,5.523-1.736,8.354H32.464v26.077h20.599c0.326,2.364,0.743,4.698,1.253,7l-19.085,7.534l9.575,24.255
			l18.859-7.445c1.68,2.965,3.521,5.825,5.523,8.564l-14.278,14.278l18.439,18.438l14.136-14.136
			c2.326,1.752,4.737,3.395,7.232,4.912l-7.642,18.405l24.083,10l7.601-18.307c2.872,0.73,5.8,1.315,8.777,1.754v19.819h26.077
			v-19.819c2.452-0.363,4.865-0.841,7.247-1.403l7.286,18.455l24.255-9.577l-7.321-18.547c2.971-1.738,5.845-3.63,8.584-5.693
			l14.136,14.136l18.437-18.438l-14.276-14.278c1.695-2.322,3.279-4.731,4.746-7.218l18.711,7.77l10-24.083l-18.937-7.862
			c0.669-2.792,1.206-5.63,1.602-8.516H248.685z M140.573,244.997c-28.204,0-51.066-22.864-51.066-51.066
			c0-28.204,22.862-51.068,51.066-51.068s51.068,22.864,51.068,51.068C191.641,222.133,168.777,244.997,140.573,244.997z"/>
		<path opacity="0.6" fill="#D8D0E4" d="M457.47,87.571V68.721h-15.072c-0.265-1.674-0.603-3.322-0.997-4.951l14.07-5.554
			l-6.922-17.532l-14.237,5.62c-1.206-2.035-2.513-4.003-3.931-5.886l10.866-10.866l-13.33-13.326L416.95,27.193
			c-1.586-1.159-3.223-2.247-4.912-3.256l5.958-14.349l-17.408-7.228l-5.987,14.415c-1.918-0.472-3.869-0.862-5.852-1.155V0h-18.849
			v15.621c-1.613,0.238-3.199,0.548-4.77,0.905L359.394,2l-17.532,6.922l5.71,14.462c-2.031,1.167-3.992,2.435-5.872,3.81
			l-10.968-10.968l-13.328,13.326l10.864,10.866c-1.196,1.588-2.314,3.233-3.358,4.93l-14.144-5.872l-7.228,17.407l13.966,5.8
			c-0.513,1.976-0.931,3.992-1.255,6.038h-15.072v18.849h14.891c0.234,1.709,0.537,3.396,0.905,5.061l-13.796,5.447l6.922,17.532
			l13.631-5.382c1.215,2.144,2.546,4.21,3.993,6.192l-10.32,10.32l13.328,13.328l10.217-10.219c1.682,1.266,3.424,2.452,5.228,3.551
			l-5.525,13.303l17.409,7.228l5.494-13.233c2.078,0.527,4.193,0.95,6.344,1.268v14.325h18.849v-14.325
			c1.773-0.261,3.517-0.608,5.24-1.012l5.265,13.34l17.534-6.924l-5.295-13.406c2.15-1.256,4.225-2.624,6.206-4.114l10.217,10.219
			l13.33-13.328l-10.32-10.32c1.225-1.68,2.37-3.422,3.432-5.219l13.523,5.617l7.228-17.41l-13.687-5.683
			c0.482-2.017,0.872-4.069,1.157-6.155H457.47z M379.324,115.06c-20.387,0-36.914-16.528-36.914-36.914
			c0-20.387,16.528-36.912,36.914-36.912s36.914,16.526,36.914,36.912C416.238,98.532,399.711,115.06,379.324,115.06z"/>
		<path opacity="0.6" fill="#8ED6F3" d="M697.469,191.169v-23.135h-9.12c-0.41-2.864-0.958-5.681-1.654-8.439l8.428-3.459
			l-8.787-21.405l-8.465,3.476c-1.549-2.62-3.227-5.152-5.047-7.575l6.471-6.473l-16.358-16.36l-6.485,6.485
			c-2.284-1.713-4.666-3.301-7.129-4.77l3.539-8.469l-21.346-8.921l-3.535,8.459c-2.911-0.751-5.892-1.332-8.919-1.762v-9.194
			h-23.137v9.194c-2.852,0.406-5.661,0.95-8.412,1.641l-3.484-8.488l-21.405,8.787l3.488,8.496c-2.62,1.541-5.154,3.211-7.577,5.027
			l-6.481-6.485l-16.362,16.36l6.475,6.473c-1.719,2.285-3.316,4.665-4.791,7.127l-8.436-3.527l-8.923,21.348l8.404,3.512
			c-0.759,2.92-1.348,5.905-1.781,8.943h-9.12v23.135h9.099c0.402,2.868,0.948,5.689,1.641,8.453l-8.393,3.445l8.787,21.403
			l8.385-3.441c1.549,2.634,3.227,5.181,5.053,7.616l-6.399,6.399l16.362,16.36l6.385-6.387c2.296,1.727,4.69,3.33,7.167,4.813
			l-3.48,8.328l21.346,8.919l3.471-8.303c2.932,0.759,5.933,1.346,8.982,1.779v9.023h23.137v-9.023
			c2.877-0.408,5.708-0.956,8.478-1.656l3.42,8.332l21.403-8.787l-3.43-8.356c2.636-1.555,5.182-3.24,7.616-5.07l6.387,6.387
			l16.358-16.36l-6.397-6.399c1.723-2.296,3.318-4.692,4.795-7.167l8.355,3.492l8.921-21.346l-8.359-3.494
			c0.755-2.924,1.332-5.919,1.762-8.96H697.469z M607.493,229.904c-27.732,0-50.215-22.484-50.215-50.215
			c0-27.734,22.484-50.215,50.215-50.215c27.733,0,50.215,22.482,50.215,50.215C657.708,207.42,635.227,229.904,607.493,229.904z"/>
		<path opacity="0.6" fill="#979DCB" d="M866.32,218.491v-19.897h-7.843c-0.353-2.462-0.823-4.883-1.424-7.255l7.247-2.975
			l-7.554-18.404l-7.281,2.987c-1.332-2.253-2.774-4.43-4.341-6.512l5.566-5.568l-14.068-14.068l-5.576,5.576
			c-1.964-1.473-4.013-2.839-6.13-4.103l3.043-7.281l-18.356-7.673l-3.042,7.275c-2.503-0.646-5.064-1.145-7.669-1.516v-7.907
			h-19.895v7.907c-2.454,0.349-4.869,0.817-7.236,1.412l-2.997-7.3l-18.404,7.556l2.998,7.306c-2.253,1.327-4.432,2.763-6.516,4.323
			l-5.576-5.576l-14.068,14.068l5.566,5.568c-1.477,1.965-2.848,4.011-4.116,6.128l-7.257-3.034l-7.673,18.358l7.228,3.02
			c-0.652,2.511-1.159,5.078-1.533,7.688h-7.841v19.897h7.823c0.345,2.466,0.815,4.891,1.411,7.269l-7.216,2.961l7.556,18.406
			l7.21-2.962c1.332,2.267,2.774,4.458,4.345,6.551l-5.501,5.501l14.068,14.068l5.494-5.492c1.974,1.487,4.032,2.864,6.163,4.138
			l-2.993,7.162l18.356,7.673l2.985-7.142c2.52,0.653,5.101,1.159,7.725,1.531v7.759h19.895v-7.759
			c2.474-0.351,4.908-0.823,7.29-1.424l2.942,7.164l18.404-7.556l-2.95-7.185c2.265-1.336,4.456-2.786,6.549-4.36l5.492,5.492
			l14.068-14.068l-5.501-5.501c1.483-1.974,2.854-4.036,4.124-6.165l7.187,3.004l7.671-18.358l-7.189-3.004
			c0.648-2.515,1.145-5.09,1.514-7.704H866.32z M788.949,251.798c-23.849,0-43.182-19.333-43.182-43.18
			c0-23.849,19.333-43.182,43.182-43.182c23.847,0,43.18,19.333,43.18,43.182C832.129,232.465,812.796,251.798,788.949,251.798z"/>
		<g>
			<g>
				<rect x="527.488" y="225.118" fill="#FFFFFF" width="260.551" height="343.883"/>
				<g>
					<g>
						<rect x="675.738" y="323.118" opacity="0.7" fill="#4965A2" width="20.422" height="92.133"/>
						<rect x="646.12" y="339.644" opacity="0.7" fill="#916EA2" width="20.422" height="75.608"/>
						<rect x="618.41" y="357.381" opacity="0.7" fill="#4965A2" width="20.424" height="57.87"/>
						<rect x="562.04" y="391.644" opacity="0.7" fill="#4965A2" width="20.422" height="23.607"/>
						<rect x="589.27" y="373.906" opacity="0.7" fill="#966FA2" width="20.422" height="41.345"/>
						<rect x="705.356" y="339.039" opacity="0.7" fill="#916EA2" width="20.422" height="76.212"/>
						<rect x="733.065" y="356.776" opacity="0.7" fill="#4965A2" width="20.424" height="58.475"/>
					</g>
				</g>
				<rect x="547.1" y="249.765" fill="#966FA2" width="219.615" height="16.43"/>
				<rect x="547.1" y="273.238" fill="#4965A2" width="151.935" height="10.562"/>
				<rect x="628.108" y="432.856" fill="#4965A2" width="138.607" height="10.562"/>
				<rect x="628.629" y="452.156" fill="#C1C3C5" width="138.086" height="10.564"/>
				<rect x="628.108" y="470.675" fill="#C1C3C5" width="138.607" height="10.562"/>
				<rect x="547.1" y="489.977" fill="#C1C3C5" width="219.615" height="10.562"/>
				<rect x="547.1" y="508.756" fill="#C1C3C5" width="219.615" height="10.562"/>
				<rect x="547.1" y="528.579" fill="#C1C3C5" width="219.615" height="10.562"/>
				<rect x="547.1" y="295.536" fill="#C1C3C5" width="219.615" height="9.39"/>
				<rect x="547.1" y="431.681" opacity="0.7" fill="#916EA2" width="61.563" height="51.641"/>
				<polyline fill="none" stroke="#4965A2" stroke-width="1.9977" stroke-miterlimit="10" points="571.878,363.971 608.656,333.976 
					651.953,324.587 				"/>
				<rect x="564.836" y="356.928" fill="#E27CA3" width="14.085" height="14.085"/>
				<rect x="644.649" y="318.326" fill="#E27CA3" width="14.085" height="14.085"/>
				<rect x="601.613" y="326.934" fill="#E27CA3" width="14.085" height="14.085"/>
			</g>
			<g>
				<polygon fill="#4965A2" points="421.884,561.839 277.936,561.839 310.97,468.42 388.85,468.42 				"/>
				<path fill="#6A89C5" d="M574.592,185.145H125.79c-6.069,0-10.991,4.92-10.991,10.989v274.777
					c0,6.069,4.922,10.991,10.991,10.991h448.802c6.069,0,10.989-4.922,10.989-10.991V196.134
					C585.581,190.065,580.661,185.145,574.592,185.145z"/>
				<rect x="138.613" y="205.293" fill="#B8E4FA" width="423.156" height="216.158"/>
				<polygon fill="#8AD6F7" points="561.769,421.451 138.613,421.451 561.769,205.293 				"/>
				<path fill="#4965A2" d="M369.425,448.623c0,4.891-3.964,8.855-8.853,8.855h-20.761c-4.891,0-8.855-3.964-8.855-8.855l0,0
					c0-4.889,3.964-8.853,8.855-8.853h20.761C365.461,439.77,369.425,443.734,369.425,448.623L369.425,448.623z"/>
				<path fill="#6A89C5" d="M464.905,565.833v-1.803c0-7.967-4.922-14.427-10.991-14.427H249.217
					c-6.071,0-10.991,6.459-10.991,14.427v1.803H464.905z"/>
			</g>
			<g>
				<rect x="218.196" y="78.803" fill="#FFFFFF" width="260.553" height="343.883"/>
				<rect x="239.373" y="103.451" fill="#966FA2" width="219.617" height="16.43"/>
				<rect x="239.373" y="126.923" fill="#4965A2" width="151.937" height="10.564"/>
				<rect x="320.381" y="286.541" fill="#4965A2" width="138.609" height="10.564"/>
				<rect x="320.903" y="305.843" fill="#C1C3C5" width="138.086" height="10.562"/>
				<rect x="239.135" y="262.807" fill="#C1C3C5" width="124.001" height="10.562"/>
				<rect x="239.135" y="246.765" fill="#C1C3C5" width="116.178" height="10.562"/>
				<rect x="239.656" y="230.073" fill="#C1C3C5" width="95.832" height="10.562"/>
				<rect x="320.381" y="324.361" fill="#C1C3C5" width="138.609" height="10.564"/>
				<rect x="239.373" y="344.445" fill="#C1C3C5" width="135.521" height="10.562"/>
				<rect x="239.373" y="363.224" fill="#C1C3C5" width="135.521" height="10.564"/>
				<rect x="239.373" y="383.048" fill="#C1C3C5" width="135.521" height="10.562"/>
				<rect x="239.373" y="149.224" fill="#C1C3C5" width="219.617" height="9.39"/>
				<rect x="239.373" y="285.368" opacity="0.7" fill="#916EA2" width="61.565" height="51.639"/>
				<polyline fill="none" stroke="#4965A2" stroke-width="1.9977" stroke-miterlimit="10" points="264.153,217.658 300.929,187.661 
					344.228,178.272 				"/>
				<rect x="257.11" y="210.615" fill="#E27CA3" width="14.085" height="14.083"/>
				<rect x="336.924" y="172.012" fill="#E27CA3" width="14.083" height="14.085"/>
				<rect x="293.888" y="180.619" fill="#E27CA3" width="14.083" height="14.085"/>
				<g>
					<path opacity="0.7" fill="#4965A2" d="M405.78,176.596c-0.298-0.008-0.595-0.012-0.895-0.012
						c-22.973,0-41.653,18.385-42.131,41.245h43.026V176.596z"/>
					<path opacity="0.7" fill="#916EA2" d="M369.031,225.898c-0.008,0.298-0.012,0.597-0.012,0.897
						c0,23.274,18.867,42.141,42.141,42.141c23.274,0,42.141-18.867,42.141-42.141c0-0.3-0.004-0.599-0.012-0.897H369.031z"/>
					<path fill="#4965A2" d="M453.289,225.898h-42.141v43.038c0.004,0,0.008,0,0.012,0c23.274,0,42.141-18.867,42.141-42.141
						C453.301,226.495,453.297,226.197,453.289,225.898z"/>
					<path fill="#E66C63" d="M453.289,225.898c-0.464-22.261-19.755-40.278-41.901-41.204v41.204H453.289z"/>
				</g>
				<g>
					<g>
						<rect x="444.202" y="344.493" opacity="0.7" fill="#916EA2" width="14.788" height="49.536"/>
						<rect x="424.135" y="356.113" opacity="0.7" fill="#4965A2" width="14.789" height="37.917"/>
						<rect x="383.312" y="378.561" opacity="0.7" fill="#4965A2" width="14.789" height="15.468"/>
						<rect x="403.031" y="366.942" opacity="0.7" fill="#966FA2" width="14.789" height="27.088"/>
					</g>
				</g>
			</g>
			<g>
				<g>
					<g>
						<path fill="#FFFFFF" d="M60.834,333.617c3.402,5.698,4.86,11.857,4.887,18.668c0.035,8.728,7.142,2.242,6.126,19.464
							c-0.677,11.457,5.18,43.777,3.74,55.157l-44.965-1.799c1.114-6.651,7.228-69.396,7.595-72.49
							c1.016-8.566,4.653-18.219,11.001-24.897c0.123-0.129,4.052,3.077,4.547,3.371c1.813,1.081,3.738,1.881,5.802,2.326
							C59.886,333.485,60.342,333.555,60.834,333.617z"/>
						<g>
							<g>
								<g>
									<g>
										<path fill="#E9B0B7" d="M109.426,348.834c-1.652-0.361-11.135,3.373-12.002,0.747c-0.724-2.201,1.237-5.808,1.235-5.806
											c5.367-8.898,17.308-24.544,22.431-30.078c5.037-5.443,5.386,2.852,5.386,2.852
											C123.205,324.643,117.756,338.245,109.426,348.834z"/>
									</g>
								</g>
							</g>
							<g>
								<g>
									<path fill="#E6E7E8" d="M102.574,337.066c-6.481-0.497-14.858-0.006-17.378-0.415c-14.686-2.388-28.684-4.06-29.922,2.665
										c-1.405,7.616,14.177,12.579,26.9,14.058c11.065,1.286,18.742-0.172,30.4-1.081
										C111.839,347.64,107.073,340.014,102.574,337.066z"/>
								</g>
							</g>
							<path fill="#E9B0B7" d="M130.484,299.698c-0.841,0.162-1.781,0.431-2.003,0.65c-2.554,2.495-4.347,4.567-5.659,7.936
								c-0.41,1.054-6.032,14.626-6.327,14.565l6.215-0.205c3.794-5.283,8.414-10.065,10.716-16.212
								C134.313,304.064,134.02,299.021,130.484,299.698z"/>
						</g>
						<g>
							<path fill="#E66C63" d="M28.996,301.354c-0.683,2.068-1.311,4.157-1.931,6.254c-2.285,7.739-6.434,13.389-12.386,19.15
								c-2.526,2.444-4.744,3.279-5.289,7.019c-1.334,9.189,7.035,17.782,12.934,23.574c5.87,5.763,4.456,5.736,3.66,12.809
								c-0.775,6.896,3.147,9.992,10.583,11.186c20.01,3.211,24.667-28.282,24.641-41.842c-0.027-14.768,8.595-28.74,10.082-43.42
								c0.901-8.898-1.366-18.272-10.66-21.559c-12.7-4.489-21.941,5.642-27.238,15.985C31.6,294.013,30.213,297.651,28.996,301.354
								z"/>
							<g>
								<g>
									<path fill="#E9B0B7" d="M46.04,304.124c0.476,2.388,3.935,5.578,4.805,3.535c0.535-1.249,1.005-3.999,0.527-6.389
										c-0.476-2.388-0.078-2.694-2.255-2.259C46.94,299.446,45.563,301.734,46.04,304.124z"/>
								</g>
							</g>
							<path fill="#E9B0B7" d="M50.49,312.082c0.369-4.815,14.483,4.136,14.483,4.136l-1.51,18.369c0,0-0.146-0.737-7.089-0.574
								c-4.229,0.099-7.819-0.103-7.608-4.056C48.898,327.513,50.366,313.746,50.49,312.082z"/>
							<path fill="#E69589" d="M50.28,316.725c1.998,6.454,7.731,11.104,13.734,10.626l0.96-11.134c0,0-14.115-8.951-14.483-4.136
								c-0.039,0.509-0.203,2.156-0.416,4.263C50.159,316.448,50.233,316.573,50.28,316.725z"/>
							<path fill="#E9B0B7" d="M65.939,320.162c-4.661,2.21-12.16-0.493-14.725-4.772c-1.551-2.587-2.15-5.207-1.951-8.106
								c0.224-3.264,1.178-6.17,1.43-9.45c0.109-1.414,0.252-2.837,0.654-4.2c0.644-2.183,1.96-4.179,3.738-5.665
								c1.746-1.461,4.04-1.869,6.169-2.571c1.8-0.593,3.845-1.37,5.776-1.251c1.33,0.082,2.009,1.048,2.911,1.957
								c4.893,4.936,5.847,13.748,4.458,20.301C73.362,311.284,70.735,317.886,65.939,320.162z"/>
							<path fill="#E9B0B7" d="M70.194,435.279c-0.441,9.175-3.188,15.205-5.181,20.428c-10.386,27.203-17.915,53.001-22.314,60.405
								c-4.811,8.096-18.994-6.455-18.994-6.455s19.571-81.088,24.083-86.3C52.301,418.144,70.545,427.922,70.194,435.279z"/>
							<path fill="#3F578D" d="M70.194,435.279c-0.441,9.175-3.188,15.205-5.181,20.428c-10.386,27.203-17.915,53.001-22.314,60.405
								c-4.811,8.096-20.186-3.162-20.186-3.162s17.372-83.889,21.883-89.1C48.91,418.64,70.545,427.922,70.194,435.279z"/>
							<path fill="#E9B0B7" d="M40.157,527.102c0,0-3.59,11.646-31.709,46.319c-3.761,4.637-5.262-2.07-5.262-2.07
								S25.1,519.615,28.838,514.64C32.574,509.665,40.157,527.102,40.157,527.102z"/>
							<path fill="#3F578D" d="M30.295,555.753c9.887-17.934,13.377-41.103,13.377-41.103s-16.936-7.406-20.671-2.431
								c-1.886,2.511-8.703,17.437-15.08,31.859C12.884,546.544,30.246,555.731,30.295,555.753z"/>
							<path fill="#E9B0B7" d="M69.488,431.053c5.139,7.614,6.547,14.089,8.075,19.468c7.958,28.009,11.971,49.505,12.878,58.069
								c0.993,9.366-13.685,9.873-13.685,9.873s-32.849-76.677-32.351-83.552C44.899,428.035,65.368,424.949,69.488,431.053z"/>
							<path fill="#E9B0B7" d="M90.151,526.878c0,0,2.007,12.45-8.845,55.753c-1.451,5.792-5.989-0.031-5.989-0.031
								s-1.859-48.333-0.57-54.419C76.035,522.092,90.151,526.878,90.151,526.878z"/>
							<path fill="#4965A2" d="M94.016,565.967c3.558-26.577-1.824-53.992-1.824-53.992s-16.223,0.48-17.511,6.567
								c-0.726,3.428-6.369,33.724-6.567,47.425H94.016z"/>
							<path fill="#4965A2" d="M89.941,495.047c-2.142-11.943-4.943-23.769-8.385-35.406c-3.907-13.213-7.212-24.801-12.632-37.441
								c-1.391-3.244,0.447-17.029-1.674-18.436c-4.941-3.275-17.571,0.72-24.308,2.05c-1.606,0.318-2.628,1.133-4.013,2.007
								c-2.263,1.426-5.252,9.112-6.02,11.674c-2.086,6.969-0.515,15.658,3.198,21.581c2.973,4.742,5.777,9.588,8.506,14.473
								c2.345,4.196,5.25,7.942,7.657,12.16c5.369,9.405,8.865,19.635,12.784,29.751c1.327,3.422,9.748,19.647,9.787,22.021
								c0.205,12.558,11.432-5.285,15.285-6.411c2.218-0.65,2.089-1.059,1.957-3.451c-0.103-1.824-0.367-3.638-0.64-5.443
								C90.986,501.128,90.483,498.085,89.941,495.047z"/>
							<path fill="#E9B0B7" d="M68.265,410.243c1.089-21.737,5.314-53.713,2.573-56.807c-4.821-5.443-5.047-17.333-8.537-21.696
								c-5.219-6.524-9.727-9.586-16.251-0.146c-2.21,3.201-4.943,22.392-5.466,24.788c-1.155,5.312-1.594,31.778-2.905,53.097
								L68.265,410.243z"/>
							<path fill="#6FC3ED" d="M68.265,410.243c1.126-15.919,2.199-29.086,3.582-38.494c0.418-2.85,1.288-5.609,1.76-8.418
								c0.437-2.599-0.796-6.174-1.842-8.52c-1.067-2.392-2.185-4.783-3.2-7.2c-0.997-2.378-1.775-4.84-2.554-7.296
								c-0.242-0.765-1.533-6.329-2.302-6.395c-0.086-0.006-2.993-0.255-4.144-0.503c-2.064-0.445-3.989-1.245-5.802-2.326
								c-0.495-0.294-4.424-3.5-4.547-3.371c-6.348,6.678-9.985,16.331-11.001,24.897c-0.367,3.094,0.185,50.379-0.927,57.03
								L68.265,410.243z"/>
							<path fill="#FFFFFF" d="M60.834,333.617c3.402,5.698,4.86,11.857,4.887,18.668c0.031,7.845-0.275,15.765-0.738,23.594
								c-0.677,11.458-2.495,38.317-3.935,49.696l-30.428-0.468c1.114-6.651,7.228-69.396,7.595-72.49
								c1.016-8.566,4.653-18.219,11.001-24.897c0.123-0.129,4.052,3.077,4.547,3.371c1.813,1.081,3.738,1.881,5.802,2.326
								C59.886,333.485,60.342,333.555,60.834,333.617z"/>
							<path fill="#FFFFFF" d="M60.834,333.617c3.402,5.698,4.86,11.857,4.887,18.668c0.031,7.845-0.275,15.765-0.738,23.594
								c-0.677,11.458-2.495,38.317-3.935,49.696l-30.428-0.468c1.114-6.651,7.228-69.396,7.595-72.49
								c1.016-8.566,4.653-18.219,11.001-24.897c0.123-0.129,4.052,3.077,4.547,3.371c1.813,1.081,3.738,1.881,5.802,2.326
								C59.886,333.485,60.342,333.555,60.834,333.617z"/>
							<path fill="#E66C63" d="M60.621,275.651c2.189,0.486,4.387,1.473,6.535,1.947c3.285,0.981,8.295,4.091,10.045,7.099
								c6.557,11.26-14.241,11.221-18.763,14.641c-1.416,1.071-2.195,2.532-3.418,3.578c-2.833,2.425-3.753-0.146-4.198-2.606
								c0.109,0.609-0.02,0.15-0.39-1.375c-0.81-3.344-0.792-6.077-2.735-8.986c-1.705-2.556-2.376-7.206-0.587-9.897
								c2.097-3.157,7.236-4.51,10.794-4.678C58.805,275.333,59.71,275.448,60.621,275.651z"/>
							<path fill="#374D7F" d="M96.172,586.338c-1.713-0.25-2.246-0.014-3.962-0.295c-1.69-0.277-3.354-0.87-4.889-1.631
								c-1.516-0.753-3.724-2.29-5.025-3.332c-0.166-0.131-0.332-0.24-0.499-0.339c-2.316,1.069-3.644,0.999-6.126-0.051
								c-0.236-0.101-0.388-0.246-0.474-0.412c-0.072,0.057-0.137,0.123-0.195,0.197c-0.398,0.507-0.468,1.212-0.562,1.826
								c-0.174,1.149-0.714,5.921-0.48,7.05c0.334,1.6,9.035,3.504,11.889,3.681c3.845,0.238,6.777,0.4,10.574-0.215
								C100.12,592.22,99.071,586.761,96.172,586.338z"/>
							<path fill="#374D7F" d="M21.877,580.534c-1.52-0.829-2.099-0.794-3.611-1.654c-1.488-0.847-2.844-1.982-4.017-3.229
								c-1.161-1.233-2.694-3.443-3.554-4.871c-0.107-0.181-0.226-0.341-0.347-0.493c-2.546,0.199-3.763-0.33-5.726-2.177
								c-0.187-0.176-0.281-0.365-0.302-0.55c-0.088,0.027-0.172,0.066-0.252,0.115c-0.55,0.34-0.86,0.974-1.163,1.518
								c-0.562,1.016-2.727,5.302-2.899,6.444c-0.246,1.615,7.249,6.426,9.864,7.585c3.523,1.561,6.215,2.733,9.988,3.476
								C23.535,587.421,24.448,581.939,21.877,580.534z"/>
						</g>
					</g>
				</g>
				<path fill="#5370B4" d="M287.897,265.702l14.079,8.958l-37.449,53.69l-38.494-23.805c-1.984-1.227-4.579-0.704-5.931,1.194
					l-32.509,45.537l-60.6-42.49c-0.983-0.689-2.203-0.95-3.385-0.722c-1.178,0.228-2.212,0.926-2.868,1.933
					c-8.566,13.165-17.133,26.331-25.697,39.497c-4.592,7.058-9.68,14.031-13.757,21.389c-0.773,3.024-0.488,4.157,0.306,5.543
					c1.428,2.493,4.897,2.45,6.725-0.357l37.345-57.402l60.444,42.378c1.988,1.395,4.731,0.927,6.143-1.051l32.652-45.74
					l38.532,23.83c1.998,1.237,4.616,0.695,5.96-1.233l40.059-57.433l14.967,9.524l1.662-45.931L287.897,265.702z"/>
				<g>
					<g>
						<g>
							<g>
								<path fill="#E9B0B7" d="M105.522,366.72c-1.311-1.069-6.479,5.217-14.633-3.416c-1.592-1.685,7.318-5.964,7.316-5.964
									c8.81-5.511,26.53-14.072,33.602-16.694c6.953-2.577,3.516,4.979,3.516,4.979
									C128.747,351.368,117.738,361.037,105.522,366.72z"/>
							</g>
						</g>
					</g>
					<g>
						<g>
							<path fill="#E6E7E8" d="M100.105,354.158c-6.001-2.495-51.636-20.174-54.913-14.173c-3.71,6.799,1.572,13.726,21.173,21.75
								c10.308,4.221,21.21,5.369,32.57,8.143C99.687,365.229,103.46,358.362,100.105,354.158z"/>
						</g>
					</g>
					<path fill="#E9B0B7" d="M146.512,332.404c-0.821-0.236-1.783-0.422-2.08-0.328c-3.404,1.073-5.943,2.111-8.635,4.522
						c-0.845,0.755-11.994,10.32-12.228,10.135l5.638,2.626c5.772-2.997,12.056-5.176,16.887-9.618
						C147.955,338.028,149.975,333.399,146.512,332.404z"/>
				</g>
			</g>
			<g>
				<g>
					<g>
						<g>
							<g>
								<path fill="#E9B0B7" d="M794.546,363.497c7.798-20.051,12.378-20.589,18.73-29.409
									c9.302-12.919,28.489-23.307,30.545-13.233c1.007,4.936-35.699,42.463-41.514,49.925
									C799.515,369.544,797.644,365.522,794.546,363.497z"/>
							</g>
						</g>
					</g>
					<g>
						<g>
							<path fill="#ED8480" d="M802.876,373.704c5.055-6.149,25.806-30.718,27.958-32.907
								c12.542-12.747,18.426-18.057,13.514-25.689c-5.568-8.646-20.995,4.557-31.462,16.064
								c-6.912,7.599-10.205,11.768-19.717,27.55C791.561,364.029,797.121,375.512,802.876,373.704z"/>
						</g>
					</g>
					<path fill="#4965A2" d="M855.405,259.44c3.252-0.54,6.391,0.287,9.29,1.744c1.344,0.675,2.296,1.132,3.753,1.522
						c4.916,1.317,6.02,8.668,5.638,12.907c-0.213,2.329-1.155,4.631-1.807,6.857c-1.717,5.847-6.491,11.773-13.147,11.479
						c-4.243-0.187-8.605-2.521-11.225-5.847C841.355,279.787,843.105,261.486,855.405,259.44z"/>
					<g>
						<g>
							<g>
								<path fill="#E9B0B7" d="M800.221,369.652c1.777-1.219,6.42-5.624,5.517-8.678c-0.759-2.558-2.037-2.891-2.035-2.889
									c-13.346-6.012-25.919-10.494-36.43-13.299c-10.34-2.76-4.528,5.636-4.528,5.636
									C772.888,356.733,781.932,363.512,800.221,369.652z"/>
							</g>
						</g>
					</g>
					<path fill="#E9B0B7" d="M763.098,341.311c2.161,2.339,4.173,4.854,3.72,5.761l-0.092,0.181
						c-0.24-0.095-0.482-0.191-0.724-0.287c0,0,0.607,0.495-0.283-0.113c-0.074-0.029-0.146-0.058-0.219-0.088
						c0.538,0.784,0.743,1.629,0.23,2.489c-1.691,2.825-5.88,0.492-8.028-0.449c-1.746-0.761-3.354-1.857-4.883-2.981
						c-1.793-1.315-3.303-5.554-1.375-7.329c1.974-1.82,3.511,1.89,5.111,0.423c0.888-0.814-0.622-4.321,2.015-2.201
						C759.077,337.238,761.151,339.204,763.098,341.311z"/>
					<g>
						<g>
							<path fill="#ED8480" d="M769.532,345.242c10.127,2.825,22.866,6.124,35.447,11.789c1.748,3.535,0,1.385,0.759,3.943
								c0.903,3.053-2.031,11.678-3.806,12.897c-16.547-5.554-27.051-15.15-36.124-20.931L769.532,345.242z"/>
						</g>
					</g>
					<g>
						<g>
							<path fill="#FFFFFF" d="M769.436,355.379c-1.239-0.866-2.448-1.685-3.629-2.439l3.724-7.698
								c1.401,0.39,2.856,0.815,4.35,1.266L769.436,355.379z"/>
						</g>
					</g>
					<path fill="#E9B0B7" d="M845.584,511.322c0,0,5.866,14.996-6.229,63.264c-0.97,3.865-3.98,3.619-5.589,2.374
						c-1.081-0.835-1.087-2.411-1.087-2.411s-5.698-54.991-4.265-61.776C829.851,505.986,845.584,511.322,845.584,511.322z"/>
					<path fill="#3A507B" d="M830.022,400.308h28.032c-0.004,0.123-0.008,0.248-0.008,0.369c-0.02,5.365-0.059,10.73-0.131,16.095
						c-0.183,13.568,0.119,10.08-0.669,23.629c-0.671,11.526-9.095,63.895-10.301,66.686c-1.227,2.835-0.644,7.985-3.084,10.127
						c-3.88,3.41-11.471,5.215-14.731,0.956c-2.2-2.874-1.207-17.62-1.607-21.284c-0.34-3.116-0.328-6.305-0.47-9.216
						c-0.572-11.697,0.221-23.424,0.267-35.125C827.387,436.143,827.435,420.312,830.022,400.308z"/>
					<path fill="#374D7F" d="M816.337,579.535c1.908-0.277,2.501-0.014,4.413-0.328c1.885-0.308,3.74-0.97,5.451-1.818
						c1.689-0.839,4.151-2.554,5.603-3.713c0.182-0.148,0.367-0.269,0.554-0.38c2.583,1.192,4.062,1.114,6.828-0.057
						c0.261-0.111,0.433-0.273,0.531-0.458c0.078,0.062,0.152,0.136,0.217,0.219c0.443,0.568,0.521,1.35,0.626,2.037
						c0.193,1.28,0.796,6.598,0.533,7.858c-0.371,1.781-10.069,3.906-13.248,4.103c-4.286,0.265-7.556,0.447-11.785-0.24
						C811.932,586.09,813.103,580.008,816.337,579.535z"/>
					<g>
						<g>
							<path fill="#E9B0B7" d="M867.736,286.305c-1.133,2.466-5.706,5.031-6.124,2.593c-0.256-1.492-0.055-4.596,1.079-7.064
								c1.133-2.466,0.78-2.901,3.03-1.867C867.969,281.001,868.872,283.839,867.736,286.305z"/>
						</g>
					</g>
					<path fill="#E9B0B7" d="M861.695,291.016c-0.412-5.367-16.143,4.61-16.143,4.61l1.683,20.474c0,0,0.164-0.821,7.901-0.638
						c4.715,0.109,7.651,1.596,7.415-2.809C862.407,309.93,861.835,292.872,861.695,291.016z"/>
					<path fill="#E69589" d="M861.931,296.192c-2.226,7.193-8.617,12.376-15.308,11.844l-1.071-12.409c0,0,15.732-9.977,16.143-4.61
						c0.043,0.568-0.059-1.11,0.18,1.237C861.779,292.368,861.983,296.022,861.931,296.192z"/>
					<path fill="#E9B0B7" d="M842.018,298.556c4.481,3.601,13.313,2.604,17.199-1.371c2.351-2.404,3.675-5.09,4.208-8.283
						c0.599-3.599,0.316-6.998,0.892-10.618c0.246-1.561,0.458-3.139,0.375-4.723c-0.133-2.532-1.046-5.037-2.589-7.107
						c-1.516-2.035-3.898-3.071-6.024-4.38c-1.801-1.11-3.816-2.48-5.94-2.85c-1.467-0.255-2.45,0.618-3.664,1.372
						c-6.578,4.089-9.889,13.396-10.074,20.86C836.261,287.011,837.406,294.85,842.018,298.556z"/>
					<path fill="#4965A2" d="M861.4,279.967c-2.269,1.738-4.234,4.107-6.688,5.582c-3.252,1.955-6.018,2.159-9.22,0.023
						c-3.139-2.093-5.944-2.454-9.081-1.953c0.187,5.275,1.568,11.691,5.607,14.938c4.481,3.601,13.313,2.604,17.199-1.371
						c2.351-2.404,3.675-5.09,4.208-8.283c0.599-3.592,0.318-6.986,0.888-10.599C863.255,278.681,862.299,279.278,861.4,279.967z"/>
					<path fill="#E9B0B7" d="M865.811,509.694c0,0-5.868,14.998,6.227,63.265c0.97,3.865,3.98,3.619,5.591,2.374
						c1.081-0.835,1.085-2.409,1.085-2.409s2.907-55.988,1.471-62.773C878.751,503.366,865.811,509.694,865.811,509.694z"/>
					<path fill="#3A507B" d="M880.454,400.308c0.624,1.358,1.042,2.595,1.178,3.613c2.407,18.307,2.372,30.463,2.441,46.996
						c0.049,11.701-1.237,47.913-1.949,61.515c-0.281,5.353-12.189,9.148-16.069,5.738c-2.44-2.142-4.155-3.98-5.38-6.813
						c-1.208-2.792-5.593-65.079-6.264-76.603c-0.788-13.549-0.747-6.04-0.931-19.61c-0.068-4.945-0.103-9.891-0.125-14.836H880.454
						z"/>
					<path fill="#E9B0B7" d="M839.646,394.328c-1.211-24.226-5.923-59.868-2.868-63.315c5.375-6.067-2.244-1.504,1.647-6.366
						c5.817-7.271,23.906-14.86,31.175-4.337c2.466,3.568,0.318,11.313,0.899,13.986c1.289,5.921,1.777,35.42,3.238,59.181
						L839.646,394.328z"/>
					<path fill="#EF918A" d="M835.459,313.324c1.342-0.472,10.057-2.325,11.635-2.61c1.842,1.666,4.093-0.749,6.836-0.86
						c2.856-0.113,6.21,2.011,8.116,0.531c0.111-0.088,0.201-0.18,0.285-0.271c1.407,0.076-2.306,0.195-0.856,0.32
						c3.796,0.433,15.39,5.966,17.827,7.468c9.985,6.157,6.395,14.811,6.184,18.33c-0.56,9.354-1.45,83.36,0.24,93.464
						c0,0-60.699,0-60.703,0c-1.026-0.894,1.448-82.769,2.169-94.668C828.154,319.128,827.687,316.057,835.459,313.324z"/>
					<path fill="#374D7F" d="M856.01,580.134c1.908-0.279,2.501-0.016,4.413-0.33c1.886-0.308,3.742-0.97,5.451-1.818
						c1.689-0.839,4.152-2.552,5.603-3.712c0.183-0.146,0.369-0.269,0.554-0.38c2.583,1.194,4.062,1.114,6.828-0.057
						c0.263-0.111,0.435-0.273,0.531-0.458c0.078,0.063,0.152,0.137,0.216,0.221c0.443,0.566,0.523,1.348,0.626,2.035
						c0.193,1.282,0.796,6.598,0.535,7.858c-0.371,1.783-10.068,3.906-13.25,4.103c-4.284,0.267-7.554,0.447-11.785-0.238
						C851.607,586.687,852.777,580.604,856.01,580.134z"/>
					<path fill="#3A507B" d="M831.285,574.588c-1.555-16.067-3.927-56.819-2.87-61.815c1.436-6.787,17.17-1.451,17.17-1.451
						s7.019,15.029-5.447,62.906L831.285,574.588z"/>
					<path fill="#3A507B" d="M870.671,574.678c-10.014-43.247-10.478-68.14-10.478-68.14s22.259-8.221,21.68,4.337
						c-0.244,5.281-0.753,47.238-1.783,64.018L870.671,574.678z"/>
					<path fill="#FFFFFF" d="M861.757,304.434l-10.158,4.795l4.337,10.599l14.934-6.504
						C870.87,313.324,865.854,304.795,861.757,304.434z"/>
					<path fill="#FFFFFF" d="M851.599,309.23l-6.022,9.393l-4.655-6.118c0,0,1.685-5.421,5.419-6.022L851.599,309.23z"/>
					<path fill="#4965A2" d="M835.984,255.67c0.193-2.606,1.766-2.638,4.015-2.298c2.187,0.33,4.348,0.979,6.598,1.079
						c2.501,0.109,4.68-0.386,7.095-0.767c4.173-0.661,8.486,0.408,12.281,2.392c5.699,2.979,9.163,12.849,8.129,19.331
						c-0.34,2.142-1.176,1.639-2.809,3.067c-0.745,0.651-1.73,1.467-2.675,1.802c-0.833,0.295-1.98-0.097-2.852-0.187
						c-0.355-0.488-1.344,0.398-1.644,0.811c-0.488,0.669-0.784,1.992-1.908,1.656c-1.009-0.302-1.358-1.586-1.461-2.485
						c-0.218-1.916,0.049-3.832-0.017-5.747c-0.137-3.941-3.758-3.945-6.867-4.518c-5.33-0.983-10.23-1.736-14.682-5.269
						C836.726,262.582,835.76,258.694,835.984,255.67z"/>
				</g>
				<g>
					<g>
						<g>
							<path fill="#E9B0B7" d="M842.026,378.327c4.889-20.952,9.347-22.131,14.39-31.76c7.386-14.103,24.914-27.096,28.371-17.413
								c1.693,4.746-29.347,47.078-34.05,55.288C847.799,383.612,845.378,379.894,842.026,378.327z"/>
						</g>
					</g>
				</g>
				<g>
					<g>
						<path fill="#ED8480" d="M851.714,387.254c4.136-6.801,22.583-31.823,24.214-34.425c11.321-18.067,14.509-22.577,8.568-29.439
							c-6.73-7.772-20.141,7.476-28.877,20.346c-5.771,8.496-8.443,13.088-15.63,30.057
							C839.145,379.275,846.271,389.859,851.714,387.254z"/>
					</g>
				</g>
				<g>
					<path fill="#E66C63" d="M749.223,366.675c-18.396,0-33.311-14.914-33.311-33.313c0-18.397,14.915-33.311,33.311-33.311
						c18.399,0,33.313,14.914,33.313,33.311C782.536,351.76,767.622,366.675,749.223,366.675z M814.568,341.702v-16.803h-6.623
						c-0.297-2.08-0.697-4.126-1.204-6.129l6.122-2.513l-6.381-15.542l-6.147,2.522c-1.124-1.902-2.343-3.742-3.666-5.5l4.702-4.702
						l-11.881-11.881l-4.709,4.707c-1.658-1.243-3.391-2.396-5.178-3.463l2.571-6.149l-15.504-6.481l-2.567,6.143
						c-2.115-0.544-4.278-0.966-6.477-1.278v-6.678h-16.803v6.678c-2.072,0.293-4.112,0.689-6.11,1.192l-2.53-6.167l-15.545,6.381
						l2.532,6.171c-1.902,1.12-3.742,2.333-5.501,3.65l-4.709-4.707l-11.879,11.881l4.7,4.702c-1.249,1.658-2.407,3.387-3.478,5.174
						l-6.128-2.56l-6.479,15.502l6.102,2.552c-0.55,2.121-0.979,4.288-1.293,6.494h-6.623v16.803h6.608
						c0.293,2.082,0.689,4.13,1.192,6.137l-6.095,2.503l6.379,15.543l6.091-2.499c1.125,1.914,2.343,3.763,3.67,5.533l-4.645,4.645
						l11.879,11.881l4.639-4.637c1.668,1.255,3.406,2.419,5.205,3.494l-2.528,6.048l15.503,6.481l2.52-6.032
						c2.131,0.552,4.308,0.979,6.524,1.294v6.553h16.803v-6.553c2.089-0.297,4.144-0.697,6.157-1.204l2.484,6.052l15.544-6.381
						l-2.491-6.069c1.914-1.128,3.763-2.353,5.531-3.681l4.639,4.637l11.881-11.881l-4.647-4.645
						c1.251-1.668,2.409-3.408,3.482-5.207l6.069,2.536l6.479-15.502l-6.071-2.538c0.548-2.125,0.966-4.298,1.278-6.506H814.568z"/>
					<path fill="#E66C63" d="M749.223,303.915c-16.227,0-29.384,13.155-29.384,29.384c0,16.229,13.157,29.384,29.384,29.384
						c16.229,0,29.384-13.155,29.384-29.384C778.607,317.07,765.453,303.915,749.223,303.915z M749.223,347.658
						c-7.928,0-14.358-6.428-14.358-14.358c0-7.93,6.43-14.358,14.358-14.358c7.93,0,14.36,6.428,14.36,14.358
						C763.584,341.23,757.154,347.658,749.223,347.658z"/>
				</g>
				<g>
					<g>
						<g>
							<path fill="#E9B0B7" d="M848.515,383.62c1.584-1.459,5.562-6.477,4.235-9.37c-1.112-2.427-2.425-2.575-2.425-2.575
								c-14.058-4.066-27.138-6.729-37.94-8.022c-10.624-1.272-3.687,6.219-3.687,6.219
								C819.63,374.687,829.541,380.124,848.515,383.62z"/>
						</g>
					</g>
				</g>
				<path fill="#E9B0B7" d="M807.761,360.803c2.472,2.011,4.815,4.216,4.497,5.179l-0.065,0.191
					c-0.252-0.06-0.505-0.121-0.759-0.181c0,0,0.671,0.404-0.294-0.072c-0.078-0.02-0.154-0.037-0.23-0.057
					c0.646,0.7,0.966,1.508,0.577,2.433c-1.272,3.036-5.749,1.317-8.008,0.691c-1.836-0.509-3.582-1.368-5.255-2.263
					c-1.961-1.048-4.052-5.033-2.396-7.062c1.697-2.08,3.744,1.377,5.121-0.302c0.763-0.931-1.227-4.19,1.684-2.462
					C803.206,357.338,805.535,358.992,807.761,360.803z"/>
				<g>
					<g>
						<path fill="#ED8480" d="M814.685,363.785c10.426,1.368,23.502,2.837,36.756,6.668c2.23,3.252,0.197,1.37,1.309,3.796
							c1.327,2.893-0.361,11.848-1.947,13.305c-17.166-3.162-28.92-11.178-38.717-15.621L814.685,363.785z"/>
					</g>
				</g>
				<g>
					<g>
						<path fill="#FFFFFF" d="M816.021,373.834c-1.348-0.681-2.659-1.323-3.935-1.9l2.599-8.149c1.442,0.189,2.944,0.404,4.485,0.64
							L816.021,373.834z"/>
					</g>
				</g>
			</g>
			<g>
				<g>
					<g>
						<g>
							<g>
								<g>
									<path fill="#4E5071" d="M536.305,91.395c-5.698-6.447-11.208-13.04-15.879-20.28c-2.609-4.043-9.096-0.292-6.469,3.781
										c5.012,7.768,10.937,14.879,17.051,21.796C534.214,100.319,539.492,95,536.305,91.395L536.305,91.395z"/>
								</g>
							</g>
							<g>
								<g>
									<path fill="#4E5071" d="M511.915,117.66c-7.205-2.526-14.406-4.911-21.953-6.188c-4.724-0.799-6.747,6.419-1.991,7.224
										c7.547,1.277,14.748,3.663,21.953,6.188C514.495,126.486,516.443,119.247,511.915,117.66L511.915,117.66z"/>
								</g>
							</g>
							<g>
								<g>
									<path fill="#4E5071" d="M508.245,152.689c-7.619,3.631-15.118,7.508-22.737,11.139c-4.359,2.077-0.556,8.535,3.781,6.469
										c7.619-3.631,15.118-7.508,22.737-11.139C516.385,157.08,512.582,150.622,508.245,152.689L508.245,152.689z"/>
								</g>
							</g>
							<g>
								<g>
									<path fill="#4E5071" d="M571.117,86.618c-0.708-9.479-0.783-18.964-0.784-28.465c-0.001-4.831-7.492-4.831-7.491,0
										c0.001,9.501,0.077,18.986,0.784,28.465C563.983,91.405,571.477,91.44,571.117,86.618L571.117,86.618z"/>
								</g>
							</g>
						</g>
						<g>
							<g>
								<g>
									<path fill="#4E5071" d="M604.127,95.455c6.115-6.916,12.04-14.028,17.053-21.796c2.628-4.073-3.86-7.824-6.469-3.781
										c-4.672,7.241-10.183,13.834-15.882,20.28C595.643,93.763,600.921,99.081,604.127,95.455L604.127,95.455z"/>
								</g>
							</g>
							<g>
								<g>
									<path fill="#4E5071" d="M625.214,123.645c7.206-2.524,14.406-4.91,21.953-6.188c4.756-0.806,2.732-8.024-1.992-7.224
										c-7.547,1.278-14.747,3.664-21.953,6.188C618.694,118.007,620.642,125.246,625.214,123.645L625.214,123.645z"/>
								</g>
							</g>
							<g>
								<g>
									<path fill="#4E5071" d="M623.112,157.92c7.619,3.631,15.118,7.507,22.737,11.137c4.337,2.067,8.14-4.391,3.781-6.469
										c-7.619-3.631-15.118-7.507-22.737-11.137C622.555,149.385,618.752,155.843,623.112,157.92L623.112,157.92z"/>
								</g>
							</g>
						</g>
					</g>
				</g>
				<g>
					<path fill="#FFD685" d="M615.478,148.64c0-27.34-22.164-49.501-49.503-49.501c-27.339,0-49.501,22.162-49.501,49.501
						c0,18.223,9.848,34.144,24.511,42.737v22.146h49.021v-21.598C605.199,183.475,615.478,167.259,615.478,148.64z"/>
					<path fill="#FDC363" d="M594.374,183.857c-21.481,2.887-43.516-9.526-54.148-28.174c-7.932-13.914-9.477-32.355-3.108-47.264
						c-12.501,8.984-20.644,23.652-20.644,40.221c0,18.223,9.848,34.144,24.511,42.737v22.146h49.021v-21.598
						c4.754-2.645,9.029-6.052,12.655-10.053C599.98,182.794,597.214,183.477,594.374,183.857z"/>
					<path fill="#5370B4" d="M594.091,236.554c0,3.186-2.583,5.769-5.769,5.769H543.63c-3.186,0-5.767-2.583-5.767-5.769v-18.742
						c0-3.186,2.581-5.767,5.767-5.767h44.692c3.186,0,5.769,2.581,5.769,5.767V236.554z"/>
					<path fill="#4D6AA9" d="M543.63,242.323h9.216c6.321-3.194,12.772-6.116,19.401-8.613h-34.384v2.844
						C537.863,239.74,540.444,242.323,543.63,242.323z"/>
					<path fill="#4D6AA9" d="M554.681,221.671c6.596-1.219,13.248-2.244,19.737-3.974c3.841-1.022,7.626-2.212,11.368-3.533h-46.624
						c-0.811,0.995-1.299,2.265-1.299,3.648v5.804h6.545C547.83,222.953,551.254,222.305,554.681,221.671z"/>
					<path fill="#4D6AA9" d="M538.456,223.936c-0.277,0.811-0.435,1.697-0.435,2.63v6.982h6.547
						c3.422-0.798,6.845-1.576,10.273-2.339c6.596-1.469,13.246-2.702,19.737-4.782c2.357-0.755,4.69-1.594,7.007-2.491H538.456z"/>
					<g>
						
							<line fill="none" stroke="#4E5071" stroke-width="3.9954" stroke-linecap="round" stroke-linejoin="round" stroke-miterlimit="10" x1="557.325" y1="213.247" x2="545.791" y2="163.506"/>
						
							<line fill="none" stroke="#4E5071" stroke-width="3.9954" stroke-linecap="round" stroke-linejoin="round" stroke-miterlimit="10" x1="574.627" y1="213.247" x2="586.161" y2="163.506"/>
						
							<path fill="none" stroke="#4E5071" stroke-width="3.9954" stroke-linecap="round" stroke-linejoin="round" stroke-miterlimit="10" d="
							M546.34,164.883c3.775,0.704,3.923,3.752,5.312,6.707c1.188,2.53,4.524,4.19,7.035,2.257c1.818-1.401,1.762-4.151,2.593-6.104
							c1.155-2.714,3.233-3.705,5.819-2.281c3.703,2.041,0,9.612,7.688,9.452c3.395-0.07,4.239-3.638,4.542-6.249
							c0.359-3.092,3.26-3.525,5.892-3.203"/>
					</g>
					<path fill="#5370B4" d="M600.419,213.984c0,1.161-0.646,2.101-1.442,2.101h-66.004c-0.796,0-1.442-0.94-1.442-2.101l0,0
						c0-1.163,0.646-2.103,1.442-2.103h66.004C599.774,211.881,600.419,212.822,600.419,213.984L600.419,213.984z"/>
					<path fill="#5370B4" d="M600.419,213.984c0,1.161-0.646,2.101-1.442,2.101h-66.004c-0.796,0-1.442-0.94-1.442-2.101l0,0
						c0-1.163,0.646-2.103,1.442-2.103h66.004C599.774,211.881,600.419,212.822,600.419,213.984L600.419,213.984z"/>
					<path fill="#5370B4" d="M600.419,223.836c0,1.161-0.646,2.103-1.442,2.103h-66.004c-0.796,0-1.442-0.942-1.442-2.103l0,0
						c0-1.161,0.646-2.103,1.442-2.103h66.004C599.774,221.733,600.419,222.676,600.419,223.836L600.419,223.836z"/>
					<path fill="#5370B4" d="M600.419,233.688c0,1.161-0.646,2.103-1.442,2.103h-66.004c-0.796,0-1.442-0.942-1.442-2.103l0,0
						c0-1.161,0.646-2.103,1.442-2.103h66.004C599.774,231.585,600.419,232.528,600.419,233.688L600.419,233.688z"/>
					<path fill="#5E83C2" d="M600.398,213.684c-0.099-1.018-0.694-1.803-1.42-1.803h-27.396L600.398,213.684z"/>
					<path fill="#5E83C2" d="M600.392,223.456c-0.121-0.979-0.708-1.723-1.414-1.723h-27.396L600.392,223.456z"/>
					<path fill="#5E83C2" d="M600.398,233.388c-0.099-1.016-0.694-1.8-1.42-1.8h-27.396L600.398,233.388z"/>
					
						<ellipse transform="matrix(0.8734 0.4869 -0.4869 0.8734 130.4622 -269.0512)" fill="#FFFFFF" cx="582.796" cy="116.44" rx="18.984" ry="9.611"/>
				</g>
			</g>
		</g>
		<g>
			<g>
				<g>
					<path fill="#F8A55D" d="M599.512,568.745c-10.474-7.173-32.347-12.109-57.638-12.109c-25.291,0-47.164,4.936-57.636,12.109
						h-6.695v9.573h0.105c0,11.976,28.756,21.682,64.226,21.682c35.471,0,64.226-9.706,64.226-21.682v-9.573H599.512z"/>
					<ellipse fill="#FDC363" cx="541.874" cy="568.846" rx="64.226" ry="21.684"/>
					<g>
						<ellipse fill="#FFD685" cx="541.874" cy="568.846" rx="53.356" ry="18.014"/>
						<path fill="#FFD967" d="M498.112,584.713c30.221-10.223,60.434-20.451,90.75-30.644c-2.224-0.806-4.623-1.555-7.187-2.24
							c-30.151,10.123-60.243,20.265-90.272,30.427C493.45,583.133,495.695,583.954,498.112,584.713z"/>
						<path fill="#FFD967" d="M598.055,558.345c-1.98-1.204-4.276-2.339-6.873-3.389c-30.213,10.158-60.322,20.351-90.442,30.541
							c3.155,0.89,6.574,1.674,10.199,2.349C540.015,578.026,569.069,568.197,598.055,558.345z"/>
						<ellipse fill="#FFD685" cx="541.874" cy="568.846" rx="53.356" ry="18.014"/>
						<path fill="#FFD685" d="M570.987,553.755c-8.373-1.844-18.367-2.921-29.113-2.921c-29.468,0-53.356,8.065-53.356,18.012
							c0,3.617,3.168,6.982,8.605,9.805C521.702,570.339,546.324,562.04,570.987,553.755z"/>
						<path fill="#FFD685" d="M522.455,585.626c6.018,0.794,12.566,1.235,19.419,1.235c29.468,0,53.356-8.065,53.356-18.014
							c0-2.331-1.321-4.559-3.713-6.604C568.527,570.046,545.501,577.84,522.455,585.626z"/>
						<path fill="#F9A855" d="M490.824,570.07c0-9.948,23.888-18.012,53.356-18.012c18.162,0,34.193,3.065,43.832,7.745
							c-9.245-5.361-26.438-8.968-46.138-8.968c-29.468,0-53.356,8.065-53.356,18.012c0,3.818,3.525,7.355,9.526,10.268
							C493.461,576.457,490.824,573.369,490.824,570.07z"/>
					</g>
					<g>
						<path fill="#FDC363" d="M540.046,556.197h7.275v2.027c5.87,0.187,10.952,0.942,15.248,2.263l-8.02,3.373
							c-2.921-0.829-5.375-1.346-7.361-1.553v4.274c11.13,1.143,16.693,3.264,16.693,6.36c0,1.559-1.416,2.87-4.251,3.935
							c-2.833,1.065-7.009,1.766-12.531,2.101v2.573h-7.142v-2.544h-1.182c-2.688,0-5.829-0.256-9.421-0.769
							c-3.593-0.513-6.383-1.168-8.369-1.968l7.669-3.238c3.242,1.133,7.009,1.844,11.303,2.13v-4.971
							c-5.316-0.453-9.37-1.243-12.16-2.367c-2.79-1.124-4.185-2.425-4.185-3.905c0-1.567,1.352-2.891,4.054-3.972
							c2.702-1.079,6.828-1.664,12.378-1.752V556.197z M539.958,565.827v-3.638c-2.715,0.316-4.075,0.903-4.075,1.76
							C535.883,564.877,537.243,565.503,539.958,565.827z M547.188,571.063v3.847c3.008-0.256,4.512-0.892,4.512-1.908
							C551.701,572.075,550.196,571.43,547.188,571.063z"/>
					</g>
					<g>
						<path fill="#F8A55D" d="M538.288,556.197h7.275v2.027c5.87,0.187,10.954,0.942,15.248,2.263l-8.018,3.373
							c-2.922-0.829-5.375-1.346-7.36-1.553v4.274c11.128,1.143,16.693,3.264,16.693,6.36c0,1.559-1.418,2.87-4.251,3.935
							c-2.833,1.065-7.01,1.766-12.532,2.101v2.573h-7.14v-2.544h-1.184c-2.688,0-5.827-0.256-9.421-0.769
							c-3.593-0.513-6.383-1.168-8.369-1.968l7.669-3.238c3.242,1.133,7.009,1.844,11.305,2.13v-4.971
							c-5.318-0.453-9.372-1.243-12.16-2.367c-2.79-1.124-4.185-2.425-4.185-3.905c0-1.567,1.35-2.891,4.054-3.972
							c2.702-1.079,6.828-1.664,12.376-1.752V556.197z M538.202,565.827v-3.638c-2.717,0.316-4.075,0.903-4.075,1.76
							C534.127,564.877,535.485,565.503,538.202,565.827z M545.432,571.063v3.847c3.008-0.256,4.512-0.892,4.512-1.908
							C549.945,572.075,548.44,571.43,545.432,571.063z"/>
					</g>
					<g>
						<path fill="#FDC363" d="M540.046,556.197h7.275v2.027c5.87,0.187,10.952,0.942,15.248,2.263l-8.02,3.373
							c-2.921-0.829-5.375-1.346-7.361-1.553v4.274c11.13,1.143,16.693,3.264,16.693,6.36c0,1.559-1.416,2.87-4.251,3.935
							c-2.833,1.065-7.009,1.766-12.531,2.101v2.573h-7.142v-2.544h-1.182c-2.688,0-5.829-0.256-9.421-0.769
							c-3.593-0.513-6.383-1.168-8.369-1.968l7.669-3.238c3.242,1.133,7.009,1.844,11.303,2.13v-4.971
							c-5.316-0.453-9.37-1.243-12.16-2.367c-2.79-1.124-4.185-2.425-4.185-3.905c0-1.567,1.352-2.891,4.054-3.972
							c2.702-1.079,6.828-1.664,12.378-1.752V556.197z M539.958,565.827v-3.638c-2.715,0.316-4.075,0.903-4.075,1.76
							C535.883,564.877,537.243,565.503,539.958,565.827z M547.188,571.063v3.847c3.008-0.256,4.512-0.892,4.512-1.908
							C551.701,572.075,550.196,571.43,547.188,571.063z"/>
					</g>
					<path opacity="0.4" fill="#FFF3CD" d="M505.795,582.115c25.098-8.492,50.198-16.984,75.362-25.455
						c-2.212-0.812-4.635-1.555-7.251-2.218c-24.961,8.385-49.88,16.783-74.757,25.197
						C501.132,580.532,503.362,581.361,505.795,582.115z"/>
					<path opacity="0.4" fill="#FFF3CD" d="M590.01,561.078c-1.789-1.26-3.991-2.443-6.563-3.521
						c-25.041,8.43-50.018,16.879-74.993,25.33c3.227,0.878,6.768,1.627,10.548,2.234
						C542.697,577.116,566.373,569.104,590.01,561.078z"/>
				</g>
				<g>
					<path fill="#F8A55D" d="M599.512,555.912c-10.474-7.173-32.347-12.109-57.638-12.109c-25.291,0-47.164,4.936-57.636,12.109
						h-6.695v9.573h0.105c0,11.974,28.756,21.682,64.226,21.682c35.471,0,64.226-9.707,64.226-21.682v-9.573H599.512z"/>
					<ellipse fill="#FDC363" cx="541.874" cy="556.014" rx="64.226" ry="21.682"/>
					<g>
						<ellipse fill="#FFD685" cx="541.874" cy="556.014" rx="53.356" ry="18.014"/>
						<path fill="#FFD967" d="M498.112,571.88c30.221-10.225,60.434-20.451,90.75-30.644c-2.224-0.806-4.623-1.555-7.187-2.24
							c-30.151,10.123-60.243,20.266-90.272,30.427C493.45,570.3,495.695,571.121,498.112,571.88z"/>
						<path fill="#FFD967" d="M598.055,545.512c-1.98-1.204-4.276-2.339-6.873-3.389c-30.213,10.158-60.322,20.349-90.442,30.541
							c3.155,0.89,6.574,1.674,10.199,2.349C540.015,565.193,569.069,555.364,598.055,545.512z"/>
						<ellipse fill="#FFD685" cx="541.874" cy="556.014" rx="53.356" ry="18.014"/>
						<path fill="#FFD685" d="M570.987,540.922c-8.373-1.845-18.367-2.92-29.113-2.92c-29.468,0-53.356,8.065-53.356,18.012
							c0,3.617,3.168,6.982,8.605,9.805C521.702,557.506,546.324,549.207,570.987,540.922z"/>
						<path fill="#FFD685" d="M522.455,572.793c6.018,0.794,12.566,1.233,19.419,1.233c29.468,0,53.356-8.063,53.356-18.012
							c0-2.331-1.321-4.559-3.713-6.606C568.527,557.214,545.501,565.005,522.455,572.793z"/>
						<path fill="#F9A855" d="M490.824,557.237c0-9.948,23.888-18.012,53.356-18.012c18.162,0,34.193,3.065,43.832,7.745
							c-9.245-5.361-26.438-8.968-46.138-8.968c-29.468,0-53.356,8.065-53.356,18.012c0,3.818,3.525,7.355,9.526,10.268
							C493.461,563.624,490.824,560.536,490.824,557.237z"/>
					</g>
					<g>
						<path fill="#FDC363" d="M540.046,543.364h7.275v2.027c5.87,0.187,10.952,0.942,15.248,2.263l-8.02,3.373
							c-2.921-0.829-5.375-1.346-7.361-1.553v4.274c11.13,1.143,16.693,3.264,16.693,6.36c0,1.559-1.416,2.87-4.251,3.935
							c-2.833,1.065-7.009,1.765-12.531,2.101v2.573h-7.142v-2.544h-1.182c-2.688,0-5.829-0.256-9.421-0.769
							c-3.593-0.513-6.383-1.169-8.369-1.968l7.669-3.238c3.242,1.133,7.009,1.844,11.303,2.13v-4.971
							c-5.316-0.453-9.37-1.243-12.16-2.366c-2.79-1.124-4.185-2.427-4.185-3.906c0-1.567,1.352-2.891,4.054-3.972
							c2.702-1.079,6.828-1.664,12.378-1.752V543.364z M539.958,552.994v-3.638c-2.715,0.316-4.075,0.903-4.075,1.76
							C535.883,552.044,537.243,552.67,539.958,552.994z M547.188,558.23v3.847c3.008-0.256,4.512-0.894,4.512-1.908
							C551.701,559.242,550.196,558.595,547.188,558.23z"/>
					</g>
					<g>
						<path fill="#F8A55D" d="M538.288,543.364h7.275v2.027c5.87,0.187,10.954,0.942,15.248,2.263l-8.018,3.373
							c-2.922-0.829-5.375-1.346-7.36-1.553v4.274c11.128,1.143,16.693,3.264,16.693,6.36c0,1.559-1.418,2.87-4.251,3.935
							c-2.833,1.065-7.01,1.765-12.532,2.101v2.573h-7.14v-2.544h-1.184c-2.688,0-5.827-0.256-9.421-0.769
							c-3.593-0.513-6.383-1.169-8.369-1.968l7.669-3.238c3.242,1.133,7.009,1.844,11.305,2.13v-4.971
							c-5.318-0.453-9.372-1.243-12.16-2.366c-2.79-1.124-4.185-2.427-4.185-3.906c0-1.567,1.35-2.891,4.054-3.972
							c2.702-1.079,6.828-1.664,12.376-1.752V543.364z M538.202,552.994v-3.638c-2.717,0.316-4.075,0.903-4.075,1.76
							C534.127,552.044,535.485,552.67,538.202,552.994z M545.432,558.23v3.847c3.008-0.256,4.512-0.894,4.512-1.908
							C549.945,559.242,548.44,558.595,545.432,558.23z"/>
					</g>
					<g>
						<path fill="#FDC363" d="M540.046,543.364h7.275v2.027c5.87,0.187,10.952,0.942,15.248,2.263l-8.02,3.373
							c-2.921-0.829-5.375-1.346-7.361-1.553v4.274c11.13,1.143,16.693,3.264,16.693,6.36c0,1.559-1.416,2.87-4.251,3.935
							c-2.833,1.065-7.009,1.765-12.531,2.101v2.573h-7.142v-2.544h-1.182c-2.688,0-5.829-0.256-9.421-0.769
							c-3.593-0.513-6.383-1.169-8.369-1.968l7.669-3.238c3.242,1.133,7.009,1.844,11.303,2.13v-4.971
							c-5.316-0.453-9.37-1.243-12.16-2.366c-2.79-1.124-4.185-2.427-4.185-3.906c0-1.567,1.352-2.891,4.054-3.972
							c2.702-1.079,6.828-1.664,12.378-1.752V543.364z M539.958,552.994v-3.638c-2.715,0.316-4.075,0.903-4.075,1.76
							C535.883,552.044,537.243,552.67,539.958,552.994z M547.188,558.23v3.847c3.008-0.256,4.512-0.894,4.512-1.908
							C551.701,559.242,550.196,558.595,547.188,558.23z"/>
					</g>
					<path opacity="0.4" fill="#FFF3CD" d="M505.795,569.282c25.098-8.492,50.198-16.984,75.362-25.455
						c-2.212-0.811-4.635-1.555-7.251-2.218c-24.961,8.383-49.88,16.783-74.757,25.195
						C501.132,567.699,503.362,568.529,505.795,569.282z"/>
					<path opacity="0.4" fill="#FFF3CD" d="M590.01,548.245c-1.789-1.262-3.991-2.442-6.563-3.521
						c-25.041,8.43-50.018,16.879-74.993,25.33c3.227,0.878,6.768,1.627,10.548,2.234
						C542.697,564.284,566.373,556.271,590.01,548.245z"/>
				</g>
				<g>
					<path fill="#F8A55D" d="M599.512,541.796c-10.474-7.173-32.347-12.109-57.638-12.109c-25.291,0-47.164,4.936-57.636,12.109
						h-6.695v9.573h0.105c0,11.975,28.756,21.684,64.226,21.684c35.471,0,64.226-9.709,64.226-21.684v-9.573H599.512z"/>
					<ellipse fill="#FDC363" cx="541.874" cy="541.897" rx="64.226" ry="21.684"/>
					<g>
						<ellipse fill="#FFD685" cx="541.874" cy="541.897" rx="53.356" ry="18.014"/>
						<path fill="#FFD967" d="M498.112,557.764c30.221-10.223,60.434-20.451,90.75-30.644c-2.224-0.806-4.623-1.555-7.187-2.24
							c-30.151,10.123-60.243,20.266-90.272,30.428C493.45,556.184,495.695,557.005,498.112,557.764z"/>
						<path fill="#FFD967" d="M598.055,531.396c-1.98-1.202-4.276-2.339-6.873-3.389c-30.213,10.158-60.322,20.351-90.442,30.541
							c3.155,0.89,6.574,1.674,10.199,2.349C540.015,551.076,569.069,541.248,598.055,531.396z"/>
						<ellipse fill="#FFD685" cx="541.874" cy="541.897" rx="53.356" ry="18.014"/>
						<path fill="#FFD685" d="M570.987,526.805c-8.373-1.846-18.367-2.92-29.113-2.92c-29.468,0-53.356,8.065-53.356,18.012
							c0,3.617,3.168,6.982,8.605,9.805C521.702,543.39,546.324,535.091,570.987,526.805z"/>
						<path fill="#FFD685" d="M522.455,558.677c6.018,0.794,12.566,1.235,19.419,1.235c29.468,0,53.356-8.065,53.356-18.014
							c0-2.331-1.321-4.559-3.713-6.604C568.527,543.097,545.501,550.891,522.455,558.677z"/>
						<path fill="#F9A855" d="M490.824,543.121c0-9.948,23.888-18.012,53.356-18.012c18.162,0,34.193,3.065,43.832,7.745
							c-9.245-5.361-26.438-8.968-46.138-8.968c-29.468,0-53.356,8.065-53.356,18.012c0,3.818,3.525,7.355,9.526,10.269
							C493.461,549.508,490.824,546.419,490.824,543.121z"/>
					</g>
					<g>
						<path fill="#FDC363" d="M540.046,529.248h7.275v2.027c5.87,0.187,10.952,0.942,15.248,2.263l-8.02,3.373
							c-2.921-0.829-5.375-1.346-7.361-1.553v4.274c11.13,1.143,16.693,3.264,16.693,6.36c0,1.559-1.416,2.87-4.251,3.935
							c-2.833,1.067-7.009,1.766-12.531,2.101v2.573h-7.142v-2.544h-1.182c-2.688,0-5.829-0.256-9.421-0.769
							c-3.593-0.513-6.383-1.169-8.369-1.967l7.669-3.24c3.242,1.133,7.009,1.844,11.303,2.13v-4.971
							c-5.316-0.453-9.37-1.243-12.16-2.367c-2.79-1.124-4.185-2.425-4.185-3.906c0-1.567,1.352-2.891,4.054-3.972
							c2.702-1.079,6.828-1.664,12.378-1.752V529.248z M539.958,538.877v-3.638c-2.715,0.316-4.075,0.903-4.075,1.76
							C535.883,537.927,537.243,538.554,539.958,538.877z M547.188,544.116v3.845c3.008-0.256,4.512-0.892,4.512-1.908
							C551.701,545.126,550.196,544.48,547.188,544.116z"/>
					</g>
					<g>
						<path fill="#F8A55D" d="M538.288,529.248h7.275v2.027c5.87,0.187,10.954,0.942,15.248,2.263l-8.018,3.373
							c-2.922-0.829-5.375-1.346-7.36-1.553v4.274c11.128,1.143,16.693,3.264,16.693,6.36c0,1.559-1.418,2.87-4.251,3.935
							c-2.833,1.067-7.01,1.766-12.532,2.101v2.573h-7.14v-2.544h-1.184c-2.688,0-5.827-0.256-9.421-0.769
							c-3.593-0.513-6.383-1.169-8.369-1.967l7.669-3.24c3.242,1.133,7.009,1.844,11.305,2.13v-4.971
							c-5.318-0.453-9.372-1.243-12.16-2.367c-2.79-1.124-4.185-2.425-4.185-3.906c0-1.567,1.35-2.891,4.054-3.972
							c2.702-1.079,6.828-1.664,12.376-1.752V529.248z M538.202,538.877v-3.638c-2.717,0.316-4.075,0.903-4.075,1.76
							C534.127,537.927,535.485,538.554,538.202,538.877z M545.432,544.116v3.845c3.008-0.256,4.512-0.892,4.512-1.908
							C549.945,545.126,548.44,544.48,545.432,544.116z"/>
					</g>
					<g>
						<path fill="#FDC363" d="M540.046,529.248h7.275v2.027c5.87,0.187,10.952,0.942,15.248,2.263l-8.02,3.373
							c-2.921-0.829-5.375-1.346-7.361-1.553v4.274c11.13,1.143,16.693,3.264,16.693,6.36c0,1.559-1.416,2.87-4.251,3.935
							c-2.833,1.067-7.009,1.766-12.531,2.101v2.573h-7.142v-2.544h-1.182c-2.688,0-5.829-0.256-9.421-0.769
							c-3.593-0.513-6.383-1.169-8.369-1.967l7.669-3.24c3.242,1.133,7.009,1.844,11.303,2.13v-4.971
							c-5.316-0.453-9.37-1.243-12.16-2.367c-2.79-1.124-4.185-2.425-4.185-3.906c0-1.567,1.352-2.891,4.054-3.972
							c2.702-1.079,6.828-1.664,12.378-1.752V529.248z M539.958,538.877v-3.638c-2.715,0.316-4.075,0.903-4.075,1.76
							C535.883,537.927,537.243,538.554,539.958,538.877z M547.188,544.116v3.845c3.008-0.256,4.512-0.892,4.512-1.908
							C551.701,545.126,550.196,544.48,547.188,544.116z"/>
					</g>
					<path opacity="0.4" fill="#FFF3CD" d="M505.795,555.165c25.098-8.492,50.198-16.984,75.362-25.455
						c-2.212-0.811-4.635-1.555-7.251-2.218c-24.961,8.385-49.88,16.783-74.757,25.195
						C501.132,553.583,503.362,554.412,505.795,555.165z"/>
					<path opacity="0.4" fill="#FFF3CD" d="M590.01,534.129c-1.789-1.262-3.991-2.442-6.563-3.521
						c-25.041,8.43-50.018,16.879-74.993,25.33c3.227,0.878,6.768,1.627,10.548,2.234
						C542.697,550.167,566.373,542.155,590.01,534.129z"/>
				</g>
				<g>
					<path fill="#F8A55D" d="M599.512,528.963c-10.474-7.173-32.347-12.109-57.638-12.109c-25.291,0-47.164,4.936-57.636,12.109
						h-6.695v9.573h0.105c0,11.974,28.756,21.682,64.226,21.682c35.471,0,64.226-9.708,64.226-21.682v-9.573H599.512z"/>
					<ellipse fill="#FDC363" cx="541.874" cy="529.065" rx="64.226" ry="21.684"/>
					<g>
						<ellipse fill="#FFD685" cx="541.874" cy="529.065" rx="53.356" ry="18.014"/>
						<path fill="#FFD967" d="M498.112,544.931c30.221-10.225,60.434-20.451,90.75-30.644c-2.224-0.806-4.623-1.555-7.187-2.24
							c-30.151,10.123-60.243,20.266-90.272,30.428C493.45,543.351,495.695,544.172,498.112,544.931z"/>
						<path fill="#FFD967" d="M598.055,518.563c-1.98-1.204-4.276-2.339-6.873-3.389c-30.213,10.158-60.322,20.351-90.442,30.541
							c3.155,0.89,6.574,1.674,10.199,2.349C540.015,538.243,569.069,528.415,598.055,518.563z"/>
						<ellipse fill="#FFD685" cx="541.874" cy="529.065" rx="53.356" ry="18.014"/>
						<path fill="#FFD685" d="M570.987,513.973c-8.373-1.845-18.367-2.92-29.113-2.92c-29.468,0-53.356,8.065-53.356,18.012
							c0,3.617,3.168,6.982,8.605,9.805C521.702,530.557,546.324,522.258,570.987,513.973z"/>
						<path fill="#FFD685" d="M522.455,545.844c6.018,0.794,12.566,1.233,19.419,1.233c29.468,0,53.356-8.063,53.356-18.012
							c0-2.331-1.321-4.559-3.713-6.604C568.527,530.264,545.501,538.056,522.455,545.844z"/>
						<path fill="#F9A855" d="M490.824,530.288c0-9.948,23.888-18.012,53.356-18.012c18.162,0,34.193,3.065,43.832,7.745
							c-9.245-5.361-26.438-8.968-46.138-8.968c-29.468,0-53.356,8.065-53.356,18.012c0,3.818,3.525,7.355,9.526,10.267
							C493.461,536.675,490.824,533.587,490.824,530.288z"/>
					</g>
					<g>
						<path fill="#FDC363" d="M540.046,516.415h7.275v2.027c5.87,0.187,10.952,0.942,15.248,2.263l-8.02,3.373
							c-2.921-0.829-5.375-1.346-7.361-1.553v4.274c11.13,1.143,16.693,3.264,16.693,6.36c0,1.559-1.416,2.87-4.251,3.935
							c-2.833,1.065-7.009,1.766-12.531,2.101v2.573h-7.142v-2.544h-1.182c-2.688,0-5.829-0.256-9.421-0.769
							c-3.593-0.513-6.383-1.169-8.369-1.968l7.669-3.238c3.242,1.133,7.009,1.844,11.303,2.13v-4.971
							c-5.316-0.453-9.37-1.243-12.16-2.366c-2.79-1.124-4.185-2.427-4.185-3.906c0-1.567,1.352-2.891,4.054-3.972
							c2.702-1.079,6.828-1.664,12.378-1.752V516.415z M539.958,526.045v-3.638c-2.715,0.316-4.075,0.903-4.075,1.76
							C535.883,525.095,537.243,525.719,539.958,526.045z M547.188,531.281v3.847c3.008-0.255,4.512-0.891,4.512-1.908
							C551.701,532.293,550.196,531.646,547.188,531.281z"/>
					</g>
					<g>
						<path fill="#F8A55D" d="M538.288,516.415h7.275v2.027c5.87,0.187,10.954,0.942,15.248,2.263l-8.018,3.373
							c-2.922-0.829-5.375-1.346-7.36-1.553v4.274c11.128,1.143,16.693,3.264,16.693,6.36c0,1.559-1.418,2.87-4.251,3.935
							c-2.833,1.065-7.01,1.766-12.532,2.101v2.573h-7.14v-2.544h-1.184c-2.688,0-5.827-0.256-9.421-0.769
							c-3.593-0.513-6.383-1.169-8.369-1.968l7.669-3.238c3.242,1.133,7.009,1.844,11.305,2.13v-4.971
							c-5.318-0.453-9.372-1.243-12.16-2.366c-2.79-1.124-4.185-2.427-4.185-3.906c0-1.567,1.35-2.891,4.054-3.972
							c2.702-1.079,6.828-1.664,12.376-1.752V516.415z M538.202,526.045v-3.638c-2.717,0.316-4.075,0.903-4.075,1.76
							C534.127,525.095,535.485,525.719,538.202,526.045z M545.432,531.281v3.847c3.008-0.255,4.512-0.891,4.512-1.908
							C549.945,532.293,548.44,531.646,545.432,531.281z"/>
					</g>
					<g>
						<path fill="#FDC363" d="M540.046,516.415h7.275v2.027c5.87,0.187,10.952,0.942,15.248,2.263l-8.02,3.373
							c-2.921-0.829-5.375-1.346-7.361-1.553v4.274c11.13,1.143,16.693,3.264,16.693,6.36c0,1.559-1.416,2.87-4.251,3.935
							c-2.833,1.065-7.009,1.766-12.531,2.101v2.573h-7.142v-2.544h-1.182c-2.688,0-5.829-0.256-9.421-0.769
							c-3.593-0.513-6.383-1.169-8.369-1.968l7.669-3.238c3.242,1.133,7.009,1.844,11.303,2.13v-4.971
							c-5.316-0.453-9.37-1.243-12.16-2.366c-2.79-1.124-4.185-2.427-4.185-3.906c0-1.567,1.352-2.891,4.054-3.972
							c2.702-1.079,6.828-1.664,12.378-1.752V516.415z M539.958,526.045v-3.638c-2.715,0.316-4.075,0.903-4.075,1.76
							C535.883,525.095,537.243,525.719,539.958,526.045z M547.188,531.281v3.847c3.008-0.255,4.512-0.891,4.512-1.908
							C551.701,532.293,550.196,531.646,547.188,531.281z"/>
					</g>
					<path opacity="0.4" fill="#FFF3CD" d="M505.795,542.332c25.098-8.492,50.198-16.984,75.362-25.455
						c-2.212-0.811-4.635-1.555-7.251-2.218c-24.961,8.385-49.88,16.783-74.757,25.196
						C501.132,540.75,503.362,541.579,505.795,542.332z"/>
					<path opacity="0.4" fill="#FFF3CD" d="M590.01,521.296c-1.789-1.262-3.991-2.442-6.563-3.521
						c-25.041,8.43-50.018,16.879-74.993,25.33c3.227,0.878,6.768,1.627,10.548,2.234
						C542.697,537.334,566.373,529.322,590.01,521.296z"/>
				</g>
			</g>
			<g>
				<g>
					<path fill="#F8A55D" d="M599.512,516.952c-10.474-7.173-32.347-12.109-57.638-12.109c-25.291,0-47.164,4.936-57.636,12.109
						h-6.695v9.575h0.105c0,11.974,28.756,21.682,64.226,21.682c35.471,0,64.226-9.708,64.226-21.682v-9.575H599.512z"/>
					<ellipse fill="#FDC363" cx="541.874" cy="517.053" rx="64.226" ry="21.684"/>
					<g>
						<ellipse fill="#FFD685" cx="541.874" cy="517.053" rx="53.356" ry="18.014"/>
						<path fill="#FFD967" d="M498.112,532.922c30.221-10.225,60.434-20.453,90.75-30.644c-2.224-0.806-4.623-1.557-7.187-2.24
							c-30.151,10.121-60.243,20.264-90.272,30.426C493.45,531.341,495.695,532.161,498.112,532.922z"/>
						<path fill="#FFD967" d="M598.055,506.554c-1.98-1.204-4.276-2.341-6.873-3.391c-30.213,10.158-60.322,20.351-90.442,30.541
							c3.155,0.89,6.574,1.674,10.199,2.349C540.015,526.232,569.069,516.404,598.055,506.554z"/>
						<ellipse fill="#FFD685" cx="541.874" cy="517.053" rx="53.356" ry="18.014"/>
						<path fill="#FFD685" d="M570.987,501.961c-8.373-1.843-18.367-2.92-29.113-2.92c-29.468,0-53.356,8.065-53.356,18.012
							c0,3.619,3.168,6.984,8.605,9.805C521.702,518.546,546.324,510.247,570.987,501.961z"/>
						<path fill="#FFD685" d="M522.455,533.833c6.018,0.794,12.566,1.235,19.419,1.235c29.468,0,53.356-8.065,53.356-18.014
							c0-2.331-1.321-4.559-3.713-6.604C568.527,518.255,545.501,526.047,522.455,533.833z"/>
						<path fill="#F9A855" d="M490.824,518.278c0-9.949,23.888-18.014,53.356-18.014c18.162,0,34.193,3.067,43.832,7.745
							c-9.245-5.361-26.438-8.968-46.138-8.968c-29.468,0-53.356,8.065-53.356,18.012c0,3.818,3.525,7.355,9.526,10.269
							C493.461,524.664,490.824,521.575,490.824,518.278z"/>
					</g>
					<g>
						<path fill="#FDC363" d="M540.046,504.404h7.275v2.027c5.87,0.187,10.952,0.942,15.248,2.263l-8.02,3.373
							c-2.921-0.827-5.375-1.346-7.361-1.553v4.276c11.13,1.143,16.693,3.262,16.693,6.36c0,1.559-1.416,2.87-4.251,3.935
							c-2.833,1.065-7.009,1.766-12.531,2.099v2.575h-7.142v-2.546h-1.182c-2.688,0-5.829-0.255-9.421-0.768
							c-3.593-0.511-6.383-1.169-8.369-1.966l7.669-3.24c3.242,1.135,7.009,1.845,11.303,2.13v-4.969
							c-5.316-0.454-9.37-1.245-12.16-2.368c-2.79-1.124-4.185-2.425-4.185-3.906c0-1.567,1.352-2.891,4.054-3.97
							c2.702-1.081,6.828-1.664,12.378-1.754V504.404z M539.958,514.033v-3.638c-2.715,0.316-4.075,0.903-4.075,1.762
							C535.883,513.083,537.243,513.709,539.958,514.033z M547.188,519.271v3.845c3.008-0.255,4.512-0.891,4.512-1.908
							C551.701,520.282,550.196,519.636,547.188,519.271z"/>
					</g>
					<g>
						<path fill="#F8A55D" d="M538.288,504.404h7.275v2.027c5.87,0.187,10.954,0.942,15.248,2.263l-8.018,3.373
							c-2.922-0.827-5.375-1.346-7.36-1.553v4.276c11.128,1.143,16.693,3.262,16.693,6.36c0,1.559-1.418,2.87-4.251,3.935
							c-2.833,1.065-7.01,1.766-12.532,2.099v2.575h-7.14v-2.546h-1.184c-2.688,0-5.827-0.255-9.421-0.768
							c-3.593-0.511-6.383-1.169-8.369-1.966l7.669-3.24c3.242,1.135,7.009,1.845,11.305,2.13v-4.969
							c-5.318-0.454-9.372-1.245-12.16-2.368c-2.79-1.124-4.185-2.425-4.185-3.906c0-1.567,1.35-2.891,4.054-3.97
							c2.702-1.081,6.828-1.664,12.376-1.754V504.404z M538.202,514.033v-3.638c-2.717,0.316-4.075,0.903-4.075,1.762
							C534.127,513.083,535.485,513.709,538.202,514.033z M545.432,519.271v3.845c3.008-0.255,4.512-0.891,4.512-1.908
							C549.945,520.282,548.44,519.636,545.432,519.271z"/>
					</g>
					<g>
						<path fill="#FDC363" d="M540.046,504.404h7.275v2.027c5.87,0.187,10.952,0.942,15.248,2.263l-8.02,3.373
							c-2.921-0.827-5.375-1.346-7.361-1.553v4.276c11.13,1.143,16.693,3.262,16.693,6.36c0,1.559-1.416,2.87-4.251,3.935
							c-2.833,1.065-7.009,1.766-12.531,2.099v2.575h-7.142v-2.546h-1.182c-2.688,0-5.829-0.255-9.421-0.768
							c-3.593-0.511-6.383-1.169-8.369-1.966l7.669-3.24c3.242,1.135,7.009,1.845,11.303,2.13v-4.969
							c-5.316-0.454-9.37-1.245-12.16-2.368c-2.79-1.124-4.185-2.425-4.185-3.906c0-1.567,1.352-2.891,4.054-3.97
							c2.702-1.081,6.828-1.664,12.378-1.754V504.404z M539.958,514.033v-3.638c-2.715,0.316-4.075,0.903-4.075,1.762
							C535.883,513.083,537.243,513.709,539.958,514.033z M547.188,519.271v3.845c3.008-0.255,4.512-0.891,4.512-1.908
							C551.701,520.282,550.196,519.636,547.188,519.271z"/>
					</g>
					<path opacity="0.4" fill="#FFF3CD" d="M505.795,530.323c25.098-8.494,50.198-16.984,75.362-25.455
						c-2.212-0.812-4.635-1.557-7.251-2.22c-24.961,8.385-49.88,16.783-74.757,25.197
						C501.132,528.739,503.362,529.568,505.795,530.323z"/>
					<path opacity="0.4" fill="#FFF3CD" d="M590.01,509.285c-1.789-1.26-3.991-2.442-6.563-3.519
						c-25.041,8.428-50.018,16.879-74.993,25.33c3.227,0.876,6.768,1.625,10.548,2.232
						C542.697,525.323,566.373,517.311,590.01,509.285z"/>
				</g>
				<g>
					<path fill="#F8A55D" d="M599.512,504.119c-10.474-7.173-32.347-12.109-57.638-12.109c-25.291,0-47.164,4.936-57.636,12.109
						h-6.695v9.575h0.105c0,11.974,28.756,21.682,64.226,21.682c35.471,0,64.226-9.708,64.226-21.682v-9.575H599.512z"/>
					<ellipse fill="#FDC363" cx="541.874" cy="504.22" rx="64.226" ry="21.684"/>
					<g>
						<ellipse fill="#FFD685" cx="541.874" cy="504.22" rx="53.356" ry="18.014"/>
						<path fill="#FFD967" d="M498.112,520.089c30.221-10.224,60.434-20.453,90.75-30.644c-2.224-0.808-4.623-1.557-7.187-2.24
							c-30.151,10.121-60.243,20.263-90.272,30.426C493.45,518.508,495.695,519.328,498.112,520.089z"/>
						<path fill="#FFD967" d="M598.055,493.721c-1.98-1.204-4.276-2.341-6.873-3.391c-30.213,10.158-60.322,20.351-90.442,30.541
							c3.155,0.89,6.574,1.674,10.199,2.349C540.015,513.399,569.069,503.571,598.055,493.721z"/>
						<ellipse fill="#FFD685" cx="541.874" cy="504.22" rx="53.356" ry="18.014"/>
						<path fill="#FFD685" d="M570.987,489.129c-8.373-1.844-18.367-2.92-29.113-2.92c-29.468,0-53.356,8.065-53.356,18.012
							c0,3.619,3.168,6.984,8.605,9.805C521.702,505.713,546.324,497.414,570.987,489.129z"/>
						<path fill="#FFD685" d="M522.455,521c6.018,0.794,12.566,1.235,19.419,1.235c29.468,0,53.356-8.065,53.356-18.014
							c0-2.331-1.321-4.559-3.713-6.604C568.527,505.422,545.501,513.214,522.455,521z"/>
						<path fill="#F9A855" d="M490.824,505.445c0-9.949,23.888-18.014,53.356-18.014c18.162,0,34.193,3.067,43.832,7.745
							c-9.245-5.361-26.438-8.968-46.138-8.968c-29.468,0-53.356,8.065-53.356,18.012c0,3.818,3.525,7.355,9.526,10.269
							C493.461,511.831,490.824,508.742,490.824,505.445z"/>
					</g>
					<g>
						<path fill="#FDC363" d="M540.046,491.571h7.275v2.027c5.87,0.187,10.952,0.942,15.248,2.263l-8.02,3.373
							c-2.921-0.827-5.375-1.346-7.361-1.553v4.274c11.13,1.145,16.693,3.264,16.693,6.362c0,1.557-1.416,2.87-4.251,3.935
							c-2.833,1.063-7.009,1.764-12.531,2.099v2.575h-7.142v-2.546h-1.182c-2.688,0-5.829-0.255-9.421-0.769
							c-3.593-0.513-6.383-1.168-8.369-1.966l7.669-3.24c3.242,1.134,7.009,1.843,11.303,2.13v-4.971
							c-5.316-0.452-9.37-1.243-12.16-2.366c-2.79-1.124-4.185-2.425-4.185-3.905c0-1.567,1.352-2.891,4.054-3.97
							c2.702-1.081,6.828-1.664,12.378-1.754V491.571z M539.958,501.2v-3.638c-2.715,0.316-4.075,0.903-4.075,1.762
							C535.883,500.25,537.243,500.876,539.958,501.2z M547.188,506.438v3.845c3.008-0.256,4.512-0.892,4.512-1.908
							C551.701,507.449,550.196,506.803,547.188,506.438z"/>
					</g>
					<g>
						<path fill="#F8A55D" d="M538.288,491.571h7.275v2.027c5.87,0.187,10.954,0.942,15.248,2.263l-8.018,3.373
							c-2.922-0.827-5.375-1.346-7.36-1.553v4.274c11.128,1.145,16.693,3.264,16.693,6.362c0,1.557-1.418,2.87-4.251,3.935
							c-2.833,1.063-7.01,1.764-12.532,2.099v2.575h-7.14v-2.546h-1.184c-2.688,0-5.827-0.255-9.421-0.769
							c-3.593-0.513-6.383-1.168-8.369-1.966l7.669-3.24c3.242,1.134,7.009,1.843,11.305,2.13v-4.971
							c-5.318-0.452-9.372-1.243-12.16-2.366c-2.79-1.124-4.185-2.425-4.185-3.905c0-1.567,1.35-2.891,4.054-3.97
							c2.702-1.081,6.828-1.664,12.376-1.754V491.571z M538.202,501.2v-3.638c-2.717,0.316-4.075,0.903-4.075,1.762
							C534.127,500.25,535.485,500.876,538.202,501.2z M545.432,506.438v3.845c3.008-0.256,4.512-0.892,4.512-1.908
							C549.945,507.449,548.44,506.803,545.432,506.438z"/>
					</g>
					<g>
						<path fill="#FDC363" d="M540.046,491.571h7.275v2.027c5.87,0.187,10.952,0.942,15.248,2.263l-8.02,3.373
							c-2.921-0.827-5.375-1.346-7.361-1.553v4.274c11.13,1.145,16.693,3.264,16.693,6.362c0,1.557-1.416,2.87-4.251,3.935
							c-2.833,1.063-7.009,1.764-12.531,2.099v2.575h-7.142v-2.546h-1.182c-2.688,0-5.829-0.255-9.421-0.769
							c-3.593-0.513-6.383-1.168-8.369-1.966l7.669-3.24c3.242,1.134,7.009,1.843,11.303,2.13v-4.971
							c-5.316-0.452-9.37-1.243-12.16-2.366c-2.79-1.124-4.185-2.425-4.185-3.905c0-1.567,1.352-2.891,4.054-3.97
							c2.702-1.081,6.828-1.664,12.378-1.754V491.571z M539.958,501.2v-3.638c-2.715,0.316-4.075,0.903-4.075,1.762
							C535.883,500.25,537.243,500.876,539.958,501.2z M547.188,506.438v3.845c3.008-0.256,4.512-0.892,4.512-1.908
							C551.701,507.449,550.196,506.803,547.188,506.438z"/>
					</g>
					<path opacity="0.4" fill="#FFF3CD" d="M505.795,517.49c25.098-8.494,50.198-16.984,75.362-25.455
						c-2.212-0.812-4.635-1.557-7.251-2.22c-24.961,8.385-49.88,16.783-74.757,25.197
						C501.132,515.906,503.362,516.735,505.795,517.49z"/>
					<path opacity="0.4" fill="#FFF3CD" d="M590.01,496.452c-1.789-1.26-3.991-2.443-6.563-3.519
						c-25.041,8.428-50.018,16.879-74.993,25.33c3.227,0.876,6.768,1.625,10.548,2.232
						C542.697,512.49,566.373,504.478,590.01,496.452z"/>
				</g>
				<g>
					<path fill="#F8A55D" d="M599.512,490.003c-10.474-7.171-32.347-12.107-57.638-12.107c-25.291,0-47.164,4.936-57.636,12.107
						h-6.695v9.575h0.105c0,11.975,28.756,21.682,64.226,21.682c35.471,0,64.226-9.708,64.226-21.682v-9.575H599.512z"/>
					<ellipse fill="#FDC363" cx="541.874" cy="490.104" rx="64.226" ry="21.684"/>
					<g>
						<ellipse fill="#FFD685" cx="541.874" cy="490.104" rx="53.356" ry="18.014"/>
						<path fill="#FFD967" d="M498.112,505.972c30.221-10.224,60.434-20.453,90.75-30.644c-2.224-0.806-4.623-1.557-7.187-2.24
							c-30.151,10.121-60.243,20.264-90.272,30.426C493.45,504.392,495.695,505.211,498.112,505.972z"/>
						<path fill="#FFD967" d="M598.055,479.604c-1.98-1.204-4.276-2.341-6.873-3.391c-30.213,10.158-60.322,20.351-90.442,30.541
							c3.155,0.89,6.574,1.674,10.199,2.349C540.015,499.283,569.069,489.454,598.055,479.604z"/>
						<ellipse fill="#FFD685" cx="541.874" cy="490.104" rx="53.356" ry="18.014"/>
						<path fill="#FFD685" d="M570.987,475.012c-8.373-1.844-18.367-2.92-29.113-2.92c-29.468,0-53.356,8.065-53.356,18.014
							c0,3.617,3.168,6.982,8.605,9.803C521.702,491.596,546.324,483.297,570.987,475.012z"/>
						<path fill="#FFD685" d="M522.455,506.883c6.018,0.796,12.566,1.235,19.419,1.235c29.468,0,53.356-8.065,53.356-18.012
							c0-2.333-1.321-4.561-3.713-6.606C568.527,491.306,545.501,499.097,522.455,506.883z"/>
						<path fill="#F9A855" d="M490.824,491.329c0-9.949,23.888-18.014,53.356-18.014c18.162,0,34.193,3.067,43.832,7.745
							c-9.245-5.361-26.438-8.968-46.138-8.968c-29.468,0-53.356,8.065-53.356,18.014c0,3.816,3.525,7.353,9.526,10.267
							C493.461,497.714,490.824,494.626,490.824,491.329z"/>
					</g>
					<g>
						<path fill="#FDC363" d="M540.046,477.456h7.275v2.025c5.87,0.187,10.952,0.942,15.248,2.265l-8.02,3.371
							c-2.921-0.827-5.375-1.346-7.361-1.553v4.276c11.13,1.143,16.693,3.262,16.693,6.36c0,1.559-1.416,2.87-4.251,3.935
							c-2.833,1.065-7.009,1.766-12.531,2.101v2.573h-7.142v-2.546h-1.182c-2.688,0-5.829-0.255-9.421-0.769
							c-3.593-0.511-6.383-1.168-8.369-1.966l7.669-3.24c3.242,1.134,7.009,1.845,11.303,2.13v-4.969
							c-5.316-0.455-9.37-1.245-12.16-2.368c-2.79-1.124-4.185-2.425-4.185-3.905c0-1.567,1.352-2.891,4.054-3.97
							c2.702-1.081,6.828-1.664,12.378-1.754V477.456z M539.958,487.086v-3.64c-2.715,0.316-4.075,0.903-4.075,1.762
							C535.883,486.134,537.243,486.76,539.958,487.086z M547.188,492.322v3.845c3.008-0.255,4.512-0.892,4.512-1.908
							C551.701,493.333,550.196,492.687,547.188,492.322z"/>
					</g>
					<g>
						<path fill="#F8A55D" d="M538.288,477.456h7.275v2.025c5.87,0.187,10.954,0.942,15.248,2.265l-8.018,3.371
							c-2.922-0.827-5.375-1.346-7.36-1.553v4.276c11.128,1.143,16.693,3.262,16.693,6.36c0,1.559-1.418,2.87-4.251,3.935
							c-2.833,1.065-7.01,1.766-12.532,2.101v2.573h-7.14v-2.546h-1.184c-2.688,0-5.827-0.255-9.421-0.769
							c-3.593-0.511-6.383-1.168-8.369-1.966l7.669-3.24c3.242,1.134,7.009,1.845,11.305,2.13v-4.969
							c-5.318-0.455-9.372-1.245-12.16-2.368c-2.79-1.124-4.185-2.425-4.185-3.905c0-1.567,1.35-2.891,4.054-3.97
							c2.702-1.081,6.828-1.664,12.376-1.754V477.456z M538.202,487.086v-3.64c-2.717,0.316-4.075,0.903-4.075,1.762
							C534.127,486.134,535.485,486.76,538.202,487.086z M545.432,492.322v3.845c3.008-0.255,4.512-0.892,4.512-1.908
							C549.945,493.333,548.44,492.687,545.432,492.322z"/>
					</g>
					<g>
						<path fill="#FDC363" d="M540.046,477.456h7.275v2.025c5.87,0.187,10.952,0.942,15.248,2.265l-8.02,3.371
							c-2.921-0.827-5.375-1.346-7.361-1.553v4.276c11.13,1.143,16.693,3.262,16.693,6.36c0,1.559-1.416,2.87-4.251,3.935
							c-2.833,1.065-7.009,1.766-12.531,2.101v2.573h-7.142v-2.546h-1.182c-2.688,0-5.829-0.255-9.421-0.769
							c-3.593-0.511-6.383-1.168-8.369-1.966l7.669-3.24c3.242,1.134,7.009,1.845,11.303,2.13v-4.969
							c-5.316-0.455-9.37-1.245-12.16-2.368c-2.79-1.124-4.185-2.425-4.185-3.905c0-1.567,1.352-2.891,4.054-3.97
							c2.702-1.081,6.828-1.664,12.378-1.754V477.456z M539.958,487.086v-3.64c-2.715,0.316-4.075,0.903-4.075,1.762
							C535.883,486.134,537.243,486.76,539.958,487.086z M547.188,492.322v3.845c3.008-0.255,4.512-0.892,4.512-1.908
							C551.701,493.333,550.196,492.687,547.188,492.322z"/>
					</g>
					<path opacity="0.4" fill="#FFF3CD" d="M505.795,503.374c25.098-8.494,50.198-16.984,75.362-25.455
						c-2.212-0.811-4.635-1.557-7.251-2.22c-24.961,8.385-49.88,16.783-74.757,25.197
						C501.132,501.79,503.362,502.619,505.795,503.374z"/>
					<path opacity="0.4" fill="#FFF3CD" d="M590.01,482.336c-1.789-1.26-3.991-2.443-6.563-3.519
						c-25.041,8.428-50.018,16.879-74.993,25.33c3.227,0.876,6.768,1.625,10.548,2.232
						C542.697,498.374,566.373,490.362,590.01,482.336z"/>
				</g>
				<g>
					<path fill="#F8A55D" d="M599.512,477.17c-10.474-7.173-32.347-12.109-57.638-12.109c-25.291,0-47.164,4.936-57.636,12.109
						h-6.695v9.575h0.105c0,11.974,28.756,21.682,64.226,21.682c35.471,0,64.226-9.707,64.226-21.682v-9.575H599.512z"/>
					<ellipse fill="#FDC363" cx="541.874" cy="477.271" rx="64.226" ry="21.684"/>
					<g>
						<ellipse fill="#FFD685" cx="541.874" cy="477.271" rx="53.356" ry="18.014"/>
						<path fill="#FFD967" d="M498.112,493.139c30.221-10.225,60.434-20.453,90.75-30.644c-2.224-0.806-4.623-1.557-7.187-2.239
							c-30.151,10.121-60.243,20.263-90.272,30.426C493.45,491.559,495.695,492.379,498.112,493.139z"/>
						<path fill="#FFD967" d="M598.055,466.772c-1.98-1.204-4.276-2.341-6.873-3.391c-30.213,10.158-60.322,20.351-90.442,30.541
							c3.155,0.89,6.574,1.674,10.199,2.349C540.015,486.45,569.069,476.621,598.055,466.772z"/>
						<ellipse fill="#FFD685" cx="541.874" cy="477.271" rx="53.356" ry="18.014"/>
						<path fill="#FFD685" d="M570.987,462.179c-8.373-1.843-18.367-2.92-29.113-2.92c-29.468,0-53.356,8.065-53.356,18.012
							c0,3.617,3.168,6.984,8.605,9.805C521.702,478.764,546.324,470.465,570.987,462.179z"/>
						<path fill="#FFD685" d="M522.455,494.05c6.018,0.794,12.566,1.235,19.419,1.235c29.468,0,53.356-8.065,53.356-18.014
							c0-2.331-1.321-4.559-3.713-6.603C568.527,478.473,545.501,486.265,522.455,494.05z"/>
						<path fill="#F9A855" d="M490.824,478.496c0-9.949,23.888-18.014,53.356-18.014c18.162,0,34.193,3.067,43.832,7.745
							c-9.245-5.361-26.438-8.968-46.138-8.968c-29.468,0-53.356,8.065-53.356,18.012c0,3.818,3.525,7.355,9.526,10.27
							C493.461,484.881,490.824,481.793,490.824,478.496z"/>
					</g>
					<g>
						<path fill="#FDC363" d="M540.046,464.622h7.275v2.027c5.87,0.187,10.952,0.942,15.248,2.263l-8.02,3.373
							c-2.921-0.827-5.375-1.346-7.361-1.553v4.274c11.13,1.145,16.693,3.264,16.693,6.362c0,1.557-1.416,2.87-4.251,3.935
							c-2.833,1.063-7.009,1.766-12.531,2.101v2.573h-7.142v-2.546h-1.182c-2.688,0-5.829-0.256-9.421-0.769
							c-3.593-0.511-6.383-1.169-8.369-1.967l7.669-3.24c3.242,1.133,7.009,1.843,11.303,2.13v-4.971
							c-5.316-0.453-9.37-1.243-12.16-2.366c-2.79-1.124-4.185-2.425-4.185-3.904c0-1.568,1.352-2.893,4.054-3.972
							c2.702-1.081,6.828-1.664,12.378-1.754V464.622z M539.958,474.251v-3.638c-2.715,0.316-4.075,0.903-4.075,1.762
							C535.883,473.301,537.243,473.927,539.958,474.251z M547.188,479.489v3.845c3.008-0.256,4.512-0.892,4.512-1.908
							C551.701,480.5,550.196,479.854,547.188,479.489z"/>
					</g>
					<g>
						<path fill="#F8A55D" d="M538.288,464.622h7.275v2.027c5.87,0.187,10.954,0.942,15.248,2.263l-8.018,3.373
							c-2.922-0.827-5.375-1.346-7.36-1.553v4.274c11.128,1.145,16.693,3.264,16.693,6.362c0,1.557-1.418,2.87-4.251,3.935
							c-2.833,1.063-7.01,1.766-12.532,2.101v2.573h-7.14v-2.546h-1.184c-2.688,0-5.827-0.256-9.421-0.769
							c-3.593-0.511-6.383-1.169-8.369-1.967l7.669-3.24c3.242,1.133,7.009,1.843,11.305,2.13v-4.971
							c-5.318-0.453-9.372-1.243-12.16-2.366c-2.79-1.124-4.185-2.425-4.185-3.904c0-1.568,1.35-2.893,4.054-3.972
							c2.702-1.081,6.828-1.664,12.376-1.754V464.622z M538.202,474.251v-3.638c-2.717,0.316-4.075,0.903-4.075,1.762
							C534.127,473.301,535.485,473.927,538.202,474.251z M545.432,479.489v3.845c3.008-0.256,4.512-0.892,4.512-1.908
							C549.945,480.5,548.44,479.854,545.432,479.489z"/>
					</g>
					<g>
						<path fill="#FDC363" d="M540.046,464.622h7.275v2.027c5.87,0.187,10.952,0.942,15.248,2.263l-8.02,3.373
							c-2.921-0.827-5.375-1.346-7.361-1.553v4.274c11.13,1.145,16.693,3.264,16.693,6.362c0,1.557-1.416,2.87-4.251,3.935
							c-2.833,1.063-7.009,1.766-12.531,2.101v2.573h-7.142v-2.546h-1.182c-2.688,0-5.829-0.256-9.421-0.769
							c-3.593-0.511-6.383-1.169-8.369-1.967l7.669-3.24c3.242,1.133,7.009,1.843,11.303,2.13v-4.971
							c-5.316-0.453-9.37-1.243-12.16-2.366c-2.79-1.124-4.185-2.425-4.185-3.904c0-1.568,1.352-2.893,4.054-3.972
							c2.702-1.081,6.828-1.664,12.378-1.754V464.622z M539.958,474.251v-3.638c-2.715,0.316-4.075,0.903-4.075,1.762
							C535.883,473.301,537.243,473.927,539.958,474.251z M547.188,479.489v3.845c3.008-0.256,4.512-0.892,4.512-1.908
							C551.701,480.5,550.196,479.854,547.188,479.489z"/>
					</g>
					<path opacity="0.4" fill="#FFF3CD" d="M505.795,490.541c25.098-8.494,50.198-16.984,75.362-25.455
						c-2.212-0.811-4.635-1.557-7.251-2.22c-24.961,8.385-49.88,16.783-74.757,25.197
						C501.132,488.957,503.362,489.786,505.795,490.541z"/>
					<path opacity="0.4" fill="#FFF3CD" d="M590.01,469.503c-1.789-1.26-3.991-2.443-6.563-3.52
						c-25.041,8.428-50.018,16.879-74.993,25.33c3.227,0.876,6.768,1.625,10.548,2.232
						C542.697,485.541,566.373,477.529,590.01,469.503z"/>
				</g>
			</g>
		</g>
	</g>
</g>
<g id="DESIGNED_BY_FREEPIK">
</g>
</svg>
