<?xml version="1.0" encoding="utf-8"?>
<!-- Generator: Adobe Illustrator 17.0.0, SVG Export Plug-In . SVG Version: 6.00 Build 0)  -->
<!DOCTYPE svg PUBLIC "-//W3C//DTD SVG 1.1//EN" "http://www.w3.org/Graphics/SVG/1.1/DTD/svg11.dtd">
<svg version="1.1" xmlns="http://www.w3.org/2000/svg" xmlns:xlink="http://www.w3.org/1999/xlink" x="0px" y="0px" width="800px"
	 height="600px" viewBox="0 0 800 600" enable-background="new 0 0 800 600" xml:space="preserve">
<g id="BACKGROUND">
	<rect x="150" y="50" opacity="0.15" fill="#EFEFEF" width="500" height="500"/>
</g>
<g id="OBJECTS">
	<g>
		<polygon fill="#FFFFFF" points="448.213,253.38 458.233,224.442 460.472,229.268 449.092,255.725 		"/>
		<path fill="#ED8D1A" d="M560.111,347.22c0,0-0.575-0.798-1.2-2c-0.614-1.18-0.716-2.591-0.154-3.797
			c0.453-0.972,0.8-2.003,1.027-3.079c0.308-1.465,1.358-2.681,2.772-3.175c1.169-0.408,2.07-0.601,2.07-0.601
			s-1.468-0.722-3.116-1.76c-1.164-0.734-2.03-1.835-2.572-3.099c-0.229-0.533-0.488-1.05-0.778-1.548
			c-0.834-1.436-1.044-3.157-0.617-4.762c0.504-1.894,1.129-3.47,1.129-3.47s-1.046,0.742-2.513,1.498
			c-1.805,0.93-3.907,0.981-5.834,0.34c-0.283-0.094-0.57-0.18-0.86-0.256c-2.252-0.595-4.171-2.097-5.076-4.244
			c-0.035-0.082-0.052-0.127-0.052-0.127s-0.455,1.481-1.321,2.945c-0.5,0.845-1.287,1.489-2.21,1.826
			c-0.343,0.125-0.68,0.263-1.01,0.413c-0.844,0.383-1.794,0.492-2.696,0.277c-1.776-0.423-3.356-1.195-3.356-1.195
			s0.632,0.956,1.093,2.288c0.356,1.029,0.143,2.162-0.514,3.029c-0.573,0.754-1.071,1.567-1.487,2.428
			c-0.329,0.682-0.912,1.213-1.608,1.51c-1.09,0.465-4.044,0.391-4.044,0.391s2.512,0.52,3.109,0.883
			c0.797,0.485,1.245,1.378,1.165,2.309c-0.032,0.371-0.05,0.747-0.05,1.126c0,0.567,0.035,1.126,0.101,1.676
			c0.089,0.742-0.194,1.483-0.738,1.996c-0.817,0.771-3.587,1.984-3.587,1.984s2.964-0.622,4.109-0.328
			c0.769,0.197,1.427,0.71,1.801,1.41c0.627,1.173,1.413,2.246,2.328,3.196c0.485,0.503,0.761,1.178,0.775,1.877
			c0.044,2.128-0.266,4.107-0.266,4.107s0.641-0.84,1.639-1.771c0.899-0.839,2.187-1.062,3.344-0.646
			c0.967,0.347,1.981,0.593,3.031,0.726c1.017,0.128,1.913,0.73,2.407,1.628c0.542,0.986,0.863,1.759,0.863,1.759
			s0.286-0.947,0.804-2.117c0.387-0.875,1.15-1.523,2.062-1.81c1.405-0.443,2.717-1.095,3.899-1.922
			c0.676-0.473,1.505-0.669,2.324-0.568C558.34,346.815,560.111,347.22,560.111,347.22z"/>
		<path fill="#ED8D1A" d="M271.786,93.851c0,0-0.811-1.128-1.695-2.825c-0.868-1.667-1.011-3.66-0.217-5.363
			c0.64-1.373,1.131-2.83,1.451-4.349c0.435-2.069,1.919-3.787,3.915-4.484c1.65-0.576,2.923-0.849,2.923-0.849
			s-2.073-1.02-4.401-2.486c-1.644-1.036-2.867-2.592-3.633-4.378c-0.323-0.753-0.69-1.483-1.098-2.186
			c-1.178-2.028-1.475-4.459-0.872-6.725c0.712-2.676,1.594-4.902,1.594-4.902s-1.477,1.047-3.549,2.115
			c-2.55,1.314-5.518,1.386-8.239,0.48c-0.4-0.133-0.805-0.254-1.215-0.362c-3.181-0.841-5.892-2.962-7.17-5.994
			c-0.049-0.116-0.073-0.18-0.073-0.18s-0.643,2.093-1.866,4.159c-0.707,1.194-1.818,2.104-3.121,2.579
			c-0.484,0.177-0.96,0.371-1.426,0.583c-1.192,0.542-2.534,0.695-3.808,0.392c-2.508-0.597-4.74-1.687-4.74-1.687
			s0.893,1.351,1.545,3.231c0.503,1.453,0.202,3.053-0.727,4.278c-0.808,1.066-1.513,2.213-2.1,3.429
			c-0.465,0.963-1.289,1.714-2.272,2.133c-1.54,0.656-5.711,0.552-5.711,0.552s3.548,0.734,4.391,1.247
			c1.127,0.686,1.759,1.947,1.646,3.261c-0.045,0.524-0.07,1.055-0.07,1.591c0,0.801,0.049,1.591,0.142,2.367
			c0.125,1.048-0.274,2.095-1.042,2.819c-1.154,1.088-5.067,2.803-5.067,2.803s4.187-0.878,5.804-0.464
			c1.086,0.279,2.016,1.003,2.544,1.991c0.885,1.656,1.996,3.172,3.288,4.513c0.685,0.711,1.075,1.664,1.095,2.651
			c0.061,3.006-0.376,5.801-0.376,5.801s0.905-1.187,2.315-2.502c1.27-1.185,3.089-1.5,4.723-0.913
			c1.365,0.49,2.798,0.838,4.281,1.025c1.437,0.181,2.702,1.031,3.4,2.3c0.765,1.392,1.219,2.484,1.219,2.484
			s0.404-1.338,1.136-2.99c0.546-1.235,1.624-2.15,2.913-2.556c1.985-0.625,3.838-1.547,5.506-2.714
			c0.955-0.668,2.126-0.945,3.283-0.802C269.285,93.279,271.786,93.851,271.786,93.851z"/>
		<g>
			<path fill="#652D90" d="M559.431,255.436c0,0-6.431,12.836-6.017,20.917s7.017,13.235,2.82,20.935
				c-4.197,7.7-9.997,9.616-18.094,5.904c-8.518-2.604-11.581-7.889-9.603-16.433c1.978-8.544,10.337-8.01,16.015-13.775
				c5.678-5.765,9.398-19.632,9.398-19.632L559.431,255.436z"/>
			<path fill="#652D90" d="M562.439,250.136l-7.524-2.793c-1.131-0.43-2.396,0.138-2.826,1.269c-0.43,1.131,0.138,2.396,1.269,2.826
				l7.524,2.793c1.131,0.43,2.396-0.139,2.826-1.269C564.138,251.831,563.57,250.566,562.439,250.136z"/>
		</g>
		<g>
			<path fill="#652D90" d="M335.706,17.036c0,0,4.089,13.763,9.918,19.374c5.83,5.612,14.172,4.855,16.377,13.343
				c2.205,8.488-0.715,13.852-9.161,16.683c-7.996,3.927-13.844,2.167-18.245-5.419c-4.401-7.586,2.062-12.914,2.26-21.003
				c0.198-8.089-6.573-20.749-6.573-20.749L335.706,17.036z"/>
			<path fill="#652D90" d="M334.275,11.112l-7.399,3.109c-1.119,0.46-1.653,1.74-1.193,2.859c0.46,1.119,1.74,1.653,2.859,1.193
				l7.399-3.109c1.119-0.46,1.653-1.74,1.193-2.859C336.674,11.186,335.394,10.652,334.275,11.112z"/>
		</g>
		<g>
			<path fill="#D85F67" d="M247.711,276.267c0,0,4.993-10.072,7.5-8.732c2.507,1.34-4.38,9.516-4.38,9.516l5.227,1.644
				c0,0,3.61-9.093,6.496-7.562c2.885,1.53-4.412,8.133-4.412,8.133l5.516,2.57c0,0,3.186-8.915,5.648-7.207
				c2.462,1.708-4.234,8.557-4.234,8.557l-16.205-3.216L247.711,276.267z"/>
			<path fill="#D85F67" d="M297.337,318.892c0,0,9.203-6.456,7.5-8.732c-1.703-2.276-8.745,5.766-8.745,5.766l-2.414-4.919
				c0,0,8.444-4.941,6.496-7.563c-1.948-2.622-7.374,5.588-7.374,5.588l-3.373-5.064c0,0,8.332-4.495,6.272-6.671
				c-2.06-2.176-7.82,5.477-7.82,5.477l5.625,15.534L297.337,318.892z"/>
			<path fill="#D85F67" d="M243.358,330.595c4.415,2.507,31.832-26.979,31.832-26.979c7.374,5.667,24.743,34.46,26.503,25.111
				c1.759-9.349-5.166-22.838-10.66-31.737c-5.494-8.899,0.013-12.529,7.859-21.316c7.846-8.787,2.863-13.067,2.863-13.067
				s-4.983-4.28-12.485,4.802c-7.502,9.082-10.26,15.074-19.886,10.986c-9.626-4.088-24.006-8.899-32.982-5.748
				c-8.976,3.15,22.108,15.975,28.823,22.41C265.224,295.056,240.213,326.609,243.358,330.595z"/>
			<path fill="#D85F67" d="M253.635,320.942c0,0,2.377,10.941,0.194,13.607c-2.183,2.666-3.293-5.887-5.995-8.1l-1.054-0.905
				c-2.596-2.337-11.218-2.143-8.912-4.703c2.306-2.561,13.481-1.862,13.481-1.862L253.635,320.942z"/>
			<path fill="#A3414B" d="M298.983,265.834c0,0-4.233,0.088-6.003,2.148c0,0,2.138-0.311,3.454,0.819
				c1.316,1.13,2.021,3.311,2.021,3.311S299.901,268.771,298.983,265.834z"/>
		</g>
		<g>
			<path fill="#D85F67" d="M417.732,8.842c0,0,9.052-4.855,10.209-2.529c1.157,2.326-8.3,4.765-8.3,4.765l3.021,3.992
				c0,0,7.503-4.858,8.841-2.191c1.338,2.667-7.592,3.719-7.592,3.719l2.746,4.834c0,0,7.093-4.95,8.022-2.375
				c0.928,2.576-7.684,4.129-7.684,4.129l-10.362-10.977L417.732,8.842z"/>
			<path fill="#D85F67" d="M432.107,66.86c0,0,10.271,0.067,10.209-2.529c-0.063-2.597-9.565-0.339-9.565-0.339l0.807-4.94
				c0,0,8.904,0.793,8.842-2.191c-0.062-2.984-8.45,0.255-8.45,0.255l0.171-5.557c0,0,8.584,1.066,8.203-1.645
				c-0.382-2.711-8.723-0.064-8.723-0.064l-4.039,14.545L432.107,66.86z"/>
			<path fill="#D85F67" d="M385.719,46.986c1.96,4.205,37.988-3.229,37.988-3.229c2.489,8.125,0.172,38.761,6.433,32.732
				c6.261-6.029,8.249-19.74,8.871-29.275c0.622-9.535,6.645-9.322,17.14-11.709c10.495-2.387,9.052-8.213,9.052-8.213
				s-1.443-5.825-11.839-3.036c-10.396,2.789-15.622,5.789-20.624-2.353c-5.002-8.142-13.161-19.339-21.512-21.747
				c-8.352-2.408,8,23.603,9.591,31.95C420.821,32.107,385.489,42.353,385.719,46.986z"/>
			<path fill="#D85F67" d="M398.483,45.242c0,0-4.025,9.405-7.062,10.234c-3.038,0.829,0.666-6.127-0.173-9.205l-0.305-1.232
				c-0.695-3.114-7.217-7.536-4.144-8.221c3.073-0.685,11.023,5.753,11.023,5.753L398.483,45.242z"/>
			<path fill="#A3414B" d="M461.432,28.228c0,0-3.198-2.177-5.607-1.58c0,0,1.757,0.901,2.138,2.439
				c0.381,1.538-0.249,3.535-0.249,3.535S460.56,30.902,461.432,28.228z"/>
		</g>
		<g>
			<path fill="#D85F67" d="M575.89,224.386c0,0-4.742-8.386-2.586-9.519c2.156-1.133,4.642,7.683,4.642,7.683l3.68-2.916
				c0,0-4.713-6.933-2.239-8.244c2.473-1.311,3.646,7.04,3.646,7.04l4.475-2.676c0,0-4.79-6.547-2.395-7.472
				c2.396-0.924,4.033,7.118,4.033,7.118l-10.074,9.946L575.89,224.386z"/>
			<path fill="#D85F67" d="M629.986,209.691c0,0-0.152-9.632-2.586-9.519c-2.433,0.113-0.117,8.975-0.117,8.975l-4.649-0.653
				c0,0,0.557-8.365-2.239-8.244c-2.796,0.121,0.417,7.918,0.417,7.918l-5.214-0.044c0,0,0.819-8.071-1.715-7.656
				c-2.534,0.415,0.123,8.18,0.123,8.18l13.722,3.482L629.986,209.691z"/>
			<path fill="#D85F67" d="M612.327,253.602c3.901-1.926-3.825-35.551-3.825-35.551c7.565-2.504,36.339-0.975,30.555-6.719
				c-5.784-5.744-18.682-7.319-27.635-7.703c-8.954-0.384-8.88-6.035-11.338-15.825c-2.458-9.79-7.89-8.315-7.89-8.315
				s-5.432,1.475-2.599,11.164c2.833,9.689,5.756,14.526-1.773,19.387c-7.529,4.861-17.856,12.746-19.939,20.627
				c-2.083,7.881,21.962-7.996,29.755-9.664C597.638,221.002,607.987,253.915,612.327,253.602z"/>
			<path fill="#D85F67" d="M610.423,241.67c0,0,8.902,3.576,9.744,6.407c0.841,2.831-5.758-0.496-8.627,0.356l-1.149,0.312
				c-2.906,0.717-6.915,6.925-7.622,4.058c-0.707-2.867,5.163-10.456,5.163-10.456L610.423,241.67z"/>
			<path fill="#A3414B" d="M593.149,183.006c0,0-1.974,3.044-1.363,5.29c0,0,0.808-1.666,2.242-2.056
				c1.435-0.39,3.32,0.159,3.32,0.159S595.674,183.767,593.149,183.006z"/>
		</g>
		<g>
			<circle fill="#652D90" cx="255.217" cy="231.534" r="22.777"/>
			<path fill="#D85F67" d="M275.271,220.781c0.501,0.936,0.963,1.9,1.335,2.92c3.48-0.211,5.662,0.063,5.877,0.908
				c0.215,0.845-1.572,2.127-4.731,3.602c-4.723,2.206-12.542,4.847-21.566,7.139c-9.024,2.292-17.156,3.701-22.359,4.016
				c-3.48,0.211-5.662-0.064-5.877-0.908c-0.215-0.845,1.573-2.127,4.731-3.602c-0.16-1.074-0.214-2.142-0.22-3.204
				c-6.427,3.015-10.232,6.001-9.693,8.121c0.539,2.12,5.307,2.93,12.393,2.513c5.995-0.353,13.642-1.58,21.854-3.665
				c8.212-2.085,15.519-4.656,20.955-7.206c6.427-3.015,10.232-6.001,9.693-8.121C287.126,221.174,282.358,220.364,275.271,220.781z
				"/>
		</g>
		<g>
			<circle fill="#652D90" cx="541.271" cy="79.592" r="22.777"/>
			<path fill="#D85F67" d="M563.963,81.282c-0.079,1.059-0.207,2.12-0.44,3.181c3.049,1.69,4.743,3.092,4.471,3.92
				c-0.272,0.828-2.468,0.951-5.925,0.5c-5.169-0.673-13.184-2.641-22.028-5.551c-8.844-2.909-16.462-6.085-21.021-8.611
				c-3.049-1.69-4.743-3.092-4.471-3.92c0.272-0.828,2.468-0.95,5.925-0.5c0.442-0.992,0.969-1.922,1.534-2.821
				c-7.041-0.906-11.853-0.428-12.537,1.651c-0.684,2.078,2.905,5.32,9.109,8.771c5.247,2.92,12.359,5.989,20.407,8.636
				c8.048,2.648,15.593,4.4,21.549,5.166c7.041,0.906,11.854,0.428,12.537-1.65C573.756,87.975,570.167,84.733,563.963,81.282z"/>
		</g>
		<path fill="#51BCC4" d="M501.793,233.872c0,0-22.183-24.549-9.084-28.187c11.237-3.122,9.929,6.872,9.929,6.872
			s7.453-11.985,15.666-4.937C525.641,213.917,501.793,233.872,501.793,233.872z"/>
		<path fill="#51BCC4" d="M191.617,115.893c0,0-29.809-14.356-19.055-22.671c9.227-7.134,11.789,2.615,11.789,2.615
			s2.376-13.912,12.643-10.486C206.166,88.411,191.617,115.893,191.617,115.893z"/>
		<path fill="#51BCC4" d="M402.923,111.172c0,0-15.622-12.765-8.06-16.159c6.488-2.912,6.615,3.233,6.615,3.233
			s3.395-7.908,8.991-4.412C415.47,96.957,402.923,111.172,402.923,111.172z"/>
		<g>
			<path fill="#D85F67" d="M500.439,189.468c0,0-5.439-46.074,16.62-50.763c22.06-4.688,28.162,33.895,31.083,41.953
				C548.142,180.658,527.633,192.633,500.439,189.468z"/>
			<path fill="#D85F67" d="M529.32,142.182c0,0-3.768-7.341,1.407-6.008c5.175,1.332,4.181,5.396-0.269,6.952l-23.645,4.367
				c0,0-9.054,0.938-6.081-4.539c2.973-5.477,6.75,3.052,6.75,3.052L529.32,142.182z"/>
			<circle fill="#252A33" cx="511.74" cy="153.434" r="1.863"/>
			<circle fill="#252A33" cx="527.028" cy="150.611" r="1.863"/>
			<path fill="#252A33" d="M519.397,160.32l-4.161,1.787c0,0,2.369,4.77,5.992,4.101c3.622-0.669,4.057-5.241,4.057-5.241
				l-4.461-0.81C520.342,160.07,519.846,160.127,519.397,160.32z"/>
			<path fill="#252A33" d="M520.188,164.169c0,0,3.293,7.492-0.681,8.692c-2.407,0.727-3.22-0.495-3.22-0.495
				s2.222,5.007,5.82-0.117c0,0,4.314,3.235,5.634-1.634c0,0-2.992,3.305-4.69,0.436c0,0-1.907-5.169-1.792-7.135L520.188,164.169z"
				/>
			
				<ellipse transform="matrix(0.9834 -0.1816 0.1816 0.9834 -20.3256 95.4726)" fill="#F9939D" cx="511.134" cy="158.718" rx="3.418" ry="1.306"/>
			
				<ellipse transform="matrix(0.9834 -0.1816 0.1816 0.9834 -19.3621 98.6753)" fill="#F9939D" cx="529.117" cy="155.061" rx="3.418" ry="1.306"/>
			
				<ellipse transform="matrix(0.1207 -0.9927 0.9927 0.1207 278.9004 647.9866)" fill="#A3414B" cx="505.239" cy="166.554" rx="1.532" ry="0.527"/>
			
				<ellipse transform="matrix(0.1209 -0.9927 0.9927 0.1209 283.5522 655.355)" fill="#A3414B" cx="511.769" cy="167.593" rx="1.531" ry="0.527"/>
			
				<ellipse transform="matrix(0.2553 -0.9669 0.9669 0.2553 239.165 603.7636)" fill="#A3414B" cx="511.533" cy="146.621" rx="1.532" ry="0.527"/>
			
				<ellipse transform="matrix(0.1209 -0.9927 0.9927 0.1209 260.5408 661.2322)" fill="#A3414B" cx="503.583" cy="183.522" rx="1.531" ry="0.527"/>
			
				<ellipse transform="matrix(0.1208 -0.9927 0.9927 0.1208 270.6229 664.1)" fill="#A3414B" cx="510.22" cy="179.273" rx="1.532" ry="0.527"/>
			
				<ellipse transform="matrix(0.1208 -0.9927 0.9927 0.1208 268.0593 671.4578)" fill="#A3414B" cx="513.093" cy="184.399" rx="1.532" ry="0.527"/>
			
				<ellipse transform="matrix(0.1208 -0.9927 0.9927 0.1208 277.8094 672.2378)" fill="#A3414B" cx="518.389" cy="179.293" rx="1.531" ry="0.527"/>
			
				<ellipse transform="matrix(0.1208 -0.9927 0.9927 0.1208 272.9834 655.5049)" fill="#A3414B" cx="506.548" cy="173.643" rx="1.532" ry="0.527"/>
			
				<ellipse transform="matrix(-0.3803 -0.9249 0.9249 -0.3803 586.6121 740.1373)" fill="#A3414B" cx="541.271" cy="173.539" rx="1.532" ry="0.527"/>
			
				<ellipse transform="matrix(-0.3802 -0.9249 0.9249 -0.3802 578.7652 746.8296)" fill="#A3414B" cx="539.603" cy="179.503" rx="1.532" ry="0.527"/>
			
				<ellipse transform="matrix(-0.3803 -0.9249 0.9249 -0.3803 584.9099 715.6917)" fill="#A3414B" cx="532.226" cy="161.889" rx="1.531" ry="0.527"/>
			
				<ellipse transform="matrix(-0.1683 -0.9857 0.9857 -0.1683 434.5127 726.2498)" fill="#A3414B" cx="523.637" cy="179.818" rx="1.532" ry="0.527"/>
			
				<ellipse transform="matrix(-0.1674 -0.9859 0.9859 -0.1674 460.0219 680.5809)" fill="#A3414B" cx="517.398" cy="146.038" rx="1.532" ry="0.527"/>
			
				<ellipse transform="matrix(-0.6712 -0.7413 0.7413 -0.6712 766.6478 629.1356)" fill="#A3414B" cx="522.864" cy="144.528" rx="1.532" ry="0.527"/>
			
				<ellipse transform="matrix(-0.3803 -0.9249 0.9249 -0.3803 587.5579 726.5873)" fill="#A3414B" cx="537.194" cy="166.455" rx="1.531" ry="0.527"/>
			
				<ellipse transform="matrix(-0.3803 -0.9249 0.9249 -0.3803 576.507 737.6606)" fill="#A3414B" cx="535.389" cy="175.686" rx="1.532" ry="0.527"/>
			
				<ellipse transform="matrix(-0.3803 -0.9249 0.9249 -0.3803 571.6062 732.8244)" fill="#A3414B" cx="531.318" cy="174.909" rx="1.532" ry="0.527"/>
			
				<ellipse transform="matrix(-0.3803 -0.9249 0.9249 -0.3803 566.7175 741.6113)" fill="#A3414B" cx="531.817" cy="180.941" rx="1.532" ry="0.527"/>
		</g>
		<path fill="#652D90" d="M550.176,234.584l-0.014-2.787c-0.003-0.527,0.254-1.021,0.687-1.322l2.288-1.592
			c1.089-0.758,0.837-2.436-0.427-2.839l-2.655-0.848c-0.502-0.16-0.893-0.557-1.045-1.061l-0.807-2.668
			c-0.384-1.27-2.058-1.548-2.832-0.471l-1.627,2.263c-0.307,0.428-0.806,0.677-1.333,0.666l-2.786-0.057
			c-1.326-0.027-2.108,1.479-1.323,2.548l1.65,2.246c0.312,0.425,0.395,0.976,0.222,1.473l-0.915,2.632
			c-0.436,1.253,0.755,2.462,2.014,2.046l2.646-0.875c0.5-0.166,1.05-0.074,1.47,0.244l2.221,1.684
			C548.665,236.669,550.183,235.91,550.176,234.584z"/>
		<path fill="#652D90" d="M625.658,144.341l-0.014-2.787c-0.003-0.527,0.254-1.021,0.687-1.322l2.288-1.592
			c1.089-0.758,0.837-2.436-0.427-2.839l-2.655-0.848c-0.502-0.16-0.893-0.557-1.045-1.061l-0.807-2.668
			c-0.384-1.27-2.058-1.548-2.832-0.471l-1.627,2.263c-0.307,0.428-0.806,0.677-1.333,0.666l-2.786-0.057
			c-1.327-0.027-2.108,1.478-1.323,2.548l1.65,2.246c0.312,0.425,0.395,0.976,0.222,1.473l-0.915,2.633
			c-0.436,1.253,0.755,2.462,2.014,2.045l2.646-0.875c0.5-0.165,1.05-0.074,1.469,0.244l2.221,1.684
			C624.147,146.426,625.665,145.668,625.658,144.341z"/>
		<path fill="#652D90" d="M533.161,126.731l-0.014-2.787c-0.003-0.527,0.254-1.021,0.686-1.322l2.288-1.592
			c1.089-0.758,0.837-2.435-0.427-2.839l-2.655-0.848c-0.502-0.16-0.893-0.557-1.045-1.062l-0.807-2.668
			c-0.384-1.27-2.058-1.548-2.832-0.471l-1.627,2.263c-0.307,0.428-0.806,0.677-1.333,0.666l-2.786-0.057
			c-1.326-0.027-2.108,1.478-1.323,2.548l1.65,2.246c0.312,0.425,0.395,0.976,0.222,1.473l-0.916,2.633
			c-0.436,1.253,0.755,2.462,2.014,2.045l2.646-0.875c0.5-0.165,1.05-0.074,1.47,0.244l2.221,1.684
			C531.651,128.816,533.168,128.058,533.161,126.731z"/>
		<path fill="#652D90" d="M495.641,49.207l-0.014-2.787c-0.003-0.527,0.254-1.021,0.687-1.322l2.288-1.592
			c1.089-0.758,0.836-2.436-0.427-2.839l-2.655-0.848c-0.502-0.16-0.893-0.557-1.045-1.062l-0.807-2.668
			c-0.384-1.27-2.058-1.548-2.832-0.471l-1.627,2.263c-0.308,0.428-0.806,0.677-1.333,0.666l-2.786-0.057
			c-1.326-0.027-2.108,1.478-1.323,2.548l1.65,2.246c0.312,0.425,0.395,0.976,0.222,1.473l-0.915,2.632
			c-0.436,1.253,0.755,2.462,2.014,2.046l2.646-0.875c0.5-0.165,1.05-0.074,1.47,0.244l2.221,1.684
			C494.131,51.292,495.648,50.534,495.641,49.207z"/>
		<path fill="#652D90" d="M492.841,256.81l-0.014-2.787c-0.003-0.527,0.254-1.021,0.687-1.322l2.288-1.592
			c1.089-0.758,0.837-2.435-0.427-2.839l-2.655-0.848c-0.502-0.16-0.893-0.557-1.045-1.062l-0.807-2.668
			c-0.384-1.27-2.058-1.548-2.832-0.471l-1.627,2.263c-0.307,0.428-0.806,0.677-1.333,0.666l-2.786-0.057
			c-1.326-0.027-2.108,1.479-1.323,2.548l1.65,2.247c0.312,0.425,0.395,0.976,0.222,1.473l-0.915,2.632
			c-0.436,1.253,0.755,2.462,2.014,2.046l2.646-0.875c0.5-0.165,1.05-0.074,1.469,0.245l2.221,1.684
			C491.33,258.895,492.848,258.137,492.841,256.81z"/>
		<path fill="#652D90" d="M309.318,70.047l-0.014-2.787c-0.003-0.527,0.254-1.021,0.687-1.322l2.288-1.592
			c1.089-0.758,0.837-2.435-0.427-2.839l-2.655-0.848c-0.502-0.16-0.893-0.557-1.045-1.062l-0.807-2.668
			c-0.384-1.27-2.058-1.548-2.832-0.471l-1.627,2.263c-0.308,0.428-0.806,0.677-1.333,0.666l-2.787-0.057
			c-1.327-0.027-2.108,1.478-1.323,2.548l1.65,2.246c0.312,0.424,0.395,0.976,0.222,1.473l-0.915,2.632
			c-0.436,1.253,0.754,2.462,2.014,2.046l2.646-0.875c0.5-0.165,1.05-0.074,1.47,0.244l2.221,1.684
			C307.807,72.132,309.325,71.373,309.318,70.047z"/>
		<path fill="#652D90" d="M223.038,269.046l-0.014-2.787c-0.003-0.527,0.254-1.021,0.687-1.322l2.288-1.592
			c1.089-0.758,0.837-2.436-0.427-2.839l-2.655-0.848c-0.502-0.16-0.893-0.557-1.045-1.061l-0.807-2.668
			c-0.384-1.27-2.058-1.548-2.832-0.471l-1.627,2.263c-0.307,0.428-0.806,0.677-1.333,0.666l-2.786-0.057
			c-1.326-0.027-2.108,1.478-1.323,2.548l1.65,2.246c0.312,0.425,0.395,0.976,0.222,1.473l-0.915,2.633
			c-0.436,1.253,0.755,2.462,2.014,2.045l2.646-0.875c0.5-0.165,1.05-0.074,1.47,0.244l2.221,1.684
			C221.527,271.132,223.044,270.373,223.038,269.046z"/>
		<path fill="#652D90" d="M401.628,77.98l-0.014-2.787c-0.003-0.527,0.254-1.021,0.686-1.322l2.288-1.592
			c1.089-0.758,0.837-2.435-0.427-2.839l-2.655-0.848c-0.502-0.16-0.893-0.557-1.045-1.062l-0.807-2.668
			c-0.384-1.27-2.058-1.548-2.832-0.471l-1.627,2.263c-0.308,0.428-0.806,0.677-1.333,0.666l-2.786-0.057
			c-1.327-0.027-2.108,1.478-1.323,2.548l1.65,2.246c0.312,0.425,0.395,0.976,0.222,1.473l-0.915,2.632
			c-0.436,1.253,0.755,2.462,2.014,2.046l2.646-0.875c0.5-0.165,1.05-0.074,1.47,0.244l2.221,1.684
			C400.117,80.065,401.635,79.307,401.628,77.98z"/>
		<path fill="#ED8D1A" d="M279.411,343.931l-0.014-2.787c-0.003-0.527,0.254-1.021,0.687-1.322l2.288-1.592
			c1.089-0.758,0.837-2.435-0.427-2.839l-2.655-0.848c-0.502-0.16-0.893-0.557-1.045-1.062l-0.807-2.668
			c-0.384-1.27-2.058-1.548-2.832-0.471l-1.627,2.263c-0.308,0.428-0.806,0.677-1.333,0.666l-2.786-0.057
			c-1.326-0.027-2.108,1.479-1.323,2.548l1.65,2.246c0.312,0.425,0.395,0.976,0.222,1.473l-0.915,2.632
			c-0.436,1.253,0.755,2.462,2.014,2.046l2.646-0.875c0.5-0.166,1.05-0.074,1.47,0.244l2.221,1.684
			C277.9,346.016,279.418,345.257,279.411,343.931z"/>
		<path fill="#ED8D1A" d="M279.586,207.347l-0.008-1.607c-0.001-0.304,0.147-0.589,0.396-0.762l1.319-0.917
			c0.628-0.437,0.482-1.404-0.246-1.637l-1.53-0.489c-0.289-0.092-0.515-0.321-0.603-0.612l-0.465-1.538
			c-0.222-0.732-1.186-0.893-1.633-0.272l-0.938,1.305c-0.177,0.247-0.465,0.39-0.768,0.384l-1.606-0.033
			c-0.764-0.016-1.215,0.852-0.762,1.469l0.951,1.295c0.18,0.245,0.227,0.562,0.128,0.849l-0.528,1.517
			c-0.251,0.722,0.435,1.419,1.161,1.179l1.525-0.504c0.289-0.095,0.605-0.043,0.847,0.141l1.28,0.971
			C278.715,208.549,279.59,208.111,279.586,207.347z"/>
		<path fill="#ED8D1A" d="M622.702,177.287l-0.008-1.607c-0.002-0.304,0.146-0.589,0.396-0.762l1.319-0.918
			c0.628-0.437,0.482-1.404-0.246-1.637l-1.53-0.489c-0.289-0.093-0.515-0.321-0.603-0.612l-0.465-1.538
			c-0.222-0.732-1.186-0.893-1.633-0.272l-0.938,1.305c-0.177,0.247-0.464,0.39-0.768,0.384l-1.606-0.033
			c-0.765-0.015-1.215,0.852-0.763,1.469l0.951,1.295c0.18,0.245,0.228,0.563,0.128,0.849l-0.528,1.517
			c-0.251,0.722,0.435,1.419,1.161,1.179l1.525-0.504c0.288-0.095,0.605-0.043,0.847,0.141l1.28,0.971
			C621.831,178.49,622.706,178.052,622.702,177.287z"/>
		<path fill="#ED8D1A" d="M523.602,254.431l-0.008-1.607c-0.001-0.304,0.146-0.589,0.396-0.762l1.319-0.917
			c0.628-0.437,0.482-1.404-0.246-1.637l-1.531-0.489c-0.289-0.093-0.515-0.321-0.602-0.612l-0.465-1.538
			c-0.221-0.732-1.186-0.892-1.633-0.272l-0.938,1.305c-0.177,0.246-0.465,0.39-0.768,0.384l-1.606-0.033
			c-0.765-0.016-1.216,0.852-0.763,1.469l0.951,1.295c0.18,0.245,0.228,0.562,0.128,0.849l-0.528,1.517
			c-0.251,0.722,0.435,1.419,1.161,1.179l1.525-0.504c0.288-0.095,0.605-0.043,0.847,0.141l1.28,0.971
			C522.731,255.633,523.606,255.196,523.602,254.431z"/>
		<path fill="#ED8D1A" d="M583.406,282.832l-0.008-1.607c-0.002-0.304,0.146-0.589,0.396-0.762l1.319-0.917
			c0.628-0.437,0.482-1.404-0.246-1.637l-1.53-0.489c-0.289-0.092-0.515-0.321-0.603-0.612l-0.465-1.538
			c-0.221-0.732-1.186-0.892-1.633-0.271l-0.938,1.305c-0.177,0.246-0.465,0.39-0.768,0.384l-1.606-0.033
			c-0.765-0.016-1.215,0.852-0.763,1.469l0.951,1.295c0.18,0.245,0.228,0.563,0.128,0.849l-0.528,1.517
			c-0.251,0.723,0.435,1.419,1.161,1.179l1.525-0.504c0.288-0.095,0.605-0.043,0.847,0.141l1.28,0.971
			C582.535,284.034,583.41,283.597,583.406,282.832z"/>
		<path fill="#ED8D1A" d="M454.556,313.71l-0.008-1.607c-0.002-0.304,0.146-0.589,0.396-0.762l1.319-0.918
			c0.628-0.437,0.482-1.404-0.246-1.637l-1.53-0.489c-0.289-0.092-0.515-0.321-0.603-0.612l-0.465-1.538
			c-0.222-0.732-1.186-0.892-1.633-0.271l-0.938,1.305c-0.177,0.246-0.465,0.39-0.768,0.384l-1.606-0.033
			c-0.764-0.016-1.215,0.852-0.763,1.469l0.951,1.295c0.18,0.245,0.227,0.563,0.128,0.849l-0.528,1.518
			c-0.251,0.722,0.435,1.419,1.161,1.179l1.526-0.504c0.288-0.095,0.605-0.043,0.847,0.141l1.28,0.971
			C453.685,314.912,454.56,314.475,454.556,313.71z"/>
		<path fill="#ED8D1A" d="M485.264,184.413l-0.008-1.607c-0.001-0.304,0.146-0.589,0.396-0.762l1.319-0.918
			c0.628-0.437,0.482-1.404-0.246-1.637l-1.531-0.489c-0.289-0.092-0.515-0.321-0.603-0.612l-0.465-1.538
			c-0.221-0.732-1.186-0.893-1.633-0.271l-0.938,1.304c-0.177,0.247-0.465,0.39-0.768,0.384l-1.606-0.033
			c-0.765-0.016-1.216,0.852-0.763,1.469l0.951,1.295c0.18,0.245,0.228,0.562,0.128,0.849l-0.528,1.518
			c-0.251,0.722,0.435,1.419,1.161,1.179l1.525-0.504c0.288-0.095,0.605-0.043,0.847,0.141l1.28,0.971
			C484.393,185.615,485.268,185.178,485.264,184.413z"/>
		<path fill="#ED8D1A" d="M227.74,124.054l-0.008-1.607c-0.001-0.304,0.146-0.589,0.396-0.762l1.319-0.917
			c0.628-0.437,0.482-1.404-0.246-1.637l-1.531-0.489c-0.289-0.092-0.515-0.321-0.602-0.612l-0.465-1.538
			c-0.221-0.732-1.186-0.893-1.633-0.272l-0.938,1.305c-0.177,0.246-0.465,0.39-0.768,0.384l-1.606-0.033
			c-0.765-0.016-1.215,0.852-0.763,1.469l0.951,1.295c0.18,0.245,0.228,0.562,0.128,0.849l-0.528,1.518
			c-0.251,0.722,0.435,1.419,1.161,1.179l1.525-0.504c0.288-0.095,0.605-0.043,0.847,0.141l1.28,0.971
			C226.869,125.256,227.744,124.818,227.74,124.054z"/>
		<path fill="#ED8D1A" d="M370.652,99.177l-0.008-1.607c-0.002-0.304,0.146-0.589,0.396-0.762l1.319-0.918
			c0.628-0.437,0.482-1.404-0.246-1.636l-1.531-0.489c-0.289-0.092-0.515-0.321-0.603-0.612l-0.465-1.538
			c-0.221-0.732-1.186-0.893-1.633-0.272l-0.938,1.305c-0.177,0.247-0.465,0.39-0.768,0.384l-1.606-0.033
			c-0.765-0.016-1.215,0.852-0.763,1.469l0.951,1.295c0.18,0.245,0.228,0.562,0.128,0.849l-0.528,1.517
			c-0.251,0.722,0.435,1.419,1.161,1.179l1.526-0.504c0.288-0.095,0.605-0.043,0.847,0.141l1.28,0.971
			C369.782,100.379,370.656,99.941,370.652,99.177z"/>
		<path fill="#ED8D1A" d="M272.311,37.874l-0.008-1.607c-0.002-0.304,0.147-0.589,0.396-0.762l1.319-0.918
			c0.628-0.437,0.482-1.404-0.246-1.637l-1.531-0.489c-0.289-0.092-0.515-0.321-0.603-0.612l-0.465-1.538
			c-0.221-0.732-1.186-0.892-1.632-0.271l-0.938,1.305c-0.177,0.247-0.464,0.39-0.768,0.384l-1.606-0.033
			c-0.765-0.016-1.215,0.852-0.763,1.469l0.951,1.295c0.18,0.245,0.228,0.563,0.128,0.849l-0.528,1.517
			c-0.251,0.722,0.435,1.419,1.161,1.179l1.525-0.504c0.288-0.095,0.605-0.043,0.847,0.141l1.28,0.971
			C271.44,39.076,272.315,38.639,272.311,37.874z"/>
		<path fill="#ED8D1A" d="M599.809,103.75l-0.008-1.606c-0.001-0.304,0.147-0.589,0.396-0.762l1.319-0.917
			c0.628-0.437,0.482-1.404-0.246-1.637l-1.53-0.489c-0.289-0.093-0.515-0.321-0.603-0.612l-0.465-1.538
			c-0.222-0.732-1.186-0.893-1.633-0.272l-0.938,1.305c-0.177,0.247-0.465,0.39-0.768,0.384l-1.606-0.033
			c-0.765-0.016-1.215,0.852-0.763,1.469l0.951,1.295c0.18,0.245,0.228,0.562,0.128,0.849l-0.527,1.518
			c-0.251,0.722,0.435,1.419,1.161,1.179l1.525-0.504c0.289-0.095,0.605-0.043,0.847,0.141l1.28,0.971
			C598.938,104.952,599.813,104.515,599.809,103.75z"/>
		<g>
			<path fill="#51BCC4" d="M241.206,149.488l-21.025,5.742l15.498,11.782c1.861,1.82,4.649,2.307,7.016,1.227l17.777-8.11
				L241.206,149.488z"/>
			<path fill="#51BCC4" d="M223.124,162.849c0,0,0.794,6.891-0.536,11.883c-1.33,4.992,11.724,11.099,11.724,11.099
				s12.106-1.787,16.895-5.275l2.641-12.961l-13.377,5.527c-1.776,0.551-3.709,0.204-5.183-0.929L223.124,162.849z"/>
			<path fill="#51BCC4" d="M260.472,160.129l-6.063,29.793c0,0,1.58,2.75,0.258,4.439c-1.323,1.689-2.827,1.383-2.827,1.383
				s-0.687-3.43,1.24-6.092l5.857-28.822L260.472,160.129z"/>
		</g>
		<g>
			<path fill="#51BCC4" d="M563.646,123.907l-16.185,14.597l19.144,3.538c2.481,0.787,5.19-0.034,6.817-2.065l12.218-15.248
				L563.646,123.907z"/>
			<path fill="#51BCC4" d="M553.522,143.981c0,0,3.813,5.795,4.874,10.851c1.061,5.055,15.467,4.628,15.467,4.628
				s10.003-7.048,12.707-12.32l-3.481-12.761l-9.453,10.96c-1.338,1.291-3.219,1.853-5.046,1.506L553.522,143.981z"/>
			<path fill="#51BCC4" d="M585.64,124.728l8.008,29.33c0,0,2.65,1.743,2.229,3.847c-0.42,2.104-1.901,2.508-1.901,2.508
				s-2.158-2.754-1.637-5.998l-7.754-28.37L585.64,124.728z"/>
		</g>
		<g>
			<g>
				<g>
					<g>
						<path fill="#ED8D1A" d="M481.62,90.363c-4.031-9.481-15.458-13.553-24.699-8.351c-7.041,3.963-10.458,12.55-8.077,20.271
							c2.179,7.064,8.243,11.582,14.927,12.268c2.665,0.273,5.02,1.84,6.068,4.305l3.109,7.311l8.335-3.544l-3.109-7.311
							c-1.049-2.467-0.54-5.25,1.112-7.361C483.076,103.111,484.195,96.421,481.62,90.363z"/>
					</g>
				</g>
			</g>
			<g>
				<g>
					<g>
						<path fill="#D85F67" d="M478.528,122.66l-0.843,0.358l-7.116-16.735c-0.23-0.54-0.856-0.792-1.396-0.563
							c-0.54,0.23-0.791,0.855-0.561,1.395l7.116,16.735l-0.842,0.358l-7.116-16.735c-0.427-1.005,0.041-2.169,1.046-2.596
							c1.004-0.427,2.169,0.042,2.597,1.047L478.528,122.66z"/>
					</g>
				</g>
			</g>
			<g>
				<g>
					<g>
						<path fill="#D85F67" d="M485.778,126.448c-0.543-1.278-2.02-1.873-3.298-1.33c1.278-0.543,1.873-2.02,1.33-3.297
							c-0.543-1.278-2.02-1.873-3.297-1.33l-9.139,3.886c-1.278,0.543-1.873,2.02-1.33,3.298c0.543,1.278,2.02,1.873,3.298,1.33
							c-1.278,0.543-1.873,2.02-1.33,3.297c0.543,1.278,2.02,1.873,3.298,1.33c-1.278,0.543-1.873,2.02-1.33,3.298
							c0.543,1.278,2.02,1.873,3.298,1.33l9.139-3.886c1.278-0.543,1.873-2.02,1.33-3.298c-0.543-1.278-2.019-1.873-3.297-1.33
							C485.726,129.202,486.322,127.726,485.778,126.448z"/>
					</g>
				</g>
			</g>
			<g>
				<g>
					
						<rect x="471.539" y="126.53" transform="matrix(0.9203 -0.3913 0.3913 0.9203 -11.5808 197.1434)" fill="#252A33" width="12.799" height="0.916"/>
				</g>
			</g>
			<g>
				<g>
					
						<rect x="473.509" y="131.163" transform="matrix(0.9203 -0.3913 0.3913 0.9203 -13.2375 198.2787)" fill="#252A33" width="12.799" height="0.916"/>
				</g>
			</g>
			<g>
				<g>
					<path fill="#ED8D1A" d="M456.947,77.757c-0.466,0.198-1.003-0.019-1.201-0.484l-1.089-2.56
						c-0.198-0.466,0.019-1.003,0.484-1.201c0.466-0.198,1.003,0.019,1.201,0.484l1.089,2.56
						C457.629,77.022,457.412,77.559,456.947,77.757z"/>
				</g>
			</g>
			<g>
				<g>
					<path fill="#ED8D1A" d="M475.343,77.586c-0.215,0.092-0.466,0.101-0.701,0.006c-0.469-0.189-0.696-0.722-0.507-1.191l1.04-2.58
						c0.189-0.469,0.723-0.696,1.192-0.507c0.469,0.189,0.696,0.722,0.507,1.192l-1.041,2.58
						C475.739,77.32,475.559,77.494,475.343,77.586z"/>
				</g>
				<g>
					<path fill="#ED8D1A" d="M456.322,124.747c-0.216,0.091-0.466,0.101-0.701,0.006c-0.469-0.189-0.696-0.722-0.507-1.191
						l1.041-2.579c0.189-0.469,0.722-0.696,1.191-0.507c0.469,0.189,0.696,0.722,0.507,1.192l-1.041,2.579
						C456.718,124.482,456.537,124.655,456.322,124.747z"/>
				</g>
			</g>
			<g>
				<g>
					<path fill="#ED8D1A" d="M491.032,89.383l-2.559,1.088c-0.466,0.198-1.003-0.019-1.201-0.484
						c-0.198-0.466,0.018-1.003,0.484-1.201l2.559-1.088c0.466-0.198,1.003,0.019,1.201,0.484
						C491.714,88.648,491.497,89.185,491.032,89.383z"/>
				</g>
				<g>
					<path fill="#ED8D1A" d="M444.233,109.282l-2.559,1.088c-0.466,0.198-1.003-0.019-1.201-0.484
						c-0.198-0.466,0.019-1.003,0.484-1.201l2.559-1.088c0.466-0.198,1.003,0.019,1.201,0.484
						C444.915,108.546,444.698,109.083,444.233,109.282z"/>
				</g>
			</g>
			<g>
				<g>
					<path fill="#ED8D1A" d="M491.224,109.907c-0.216,0.092-0.466,0.101-0.701,0.006l-2.58-1.04
						c-0.469-0.189-0.696-0.723-0.507-1.192c0.189-0.469,0.722-0.696,1.191-0.507l2.58,1.04c0.469,0.189,0.696,0.722,0.507,1.192
						C491.62,109.642,491.439,109.816,491.224,109.907z"/>
				</g>
				<g>
					<path fill="#ED8D1A" d="M444.062,90.886c-0.215,0.092-0.466,0.101-0.701,0.006l-2.58-1.041
						c-0.469-0.189-0.696-0.722-0.507-1.192c0.189-0.469,0.722-0.696,1.192-0.507l2.58,1.041c0.469,0.189,0.696,0.722,0.506,1.191
						C444.458,90.62,444.278,90.794,444.062,90.886z"/>
				</g>
			</g>
		</g>
		<g>
			<g>
				<g>
					<g>
						<path fill="#ED8D1A" d="M204.616,166.327c-1.861-10.133-12.121-16.605-22.275-13.549c-7.737,2.328-12.949,9.96-12.313,18.014
							c0.581,7.369,5.511,13.104,11.884,15.234c2.541,0.849,4.496,2.893,4.98,5.528l1.435,7.814l8.908-1.636l-1.435-7.814
							c-0.484-2.637,0.621-5.242,2.695-6.94C203.25,179.085,205.805,172.802,204.616,166.327z"/>
					</g>
				</g>
			</g>
			<g>
				<g>
					<g>
						<path fill="#D85F67" d="M194.538,197.167l-0.9,0.165l-3.285-17.886c-0.106-0.577-0.662-0.96-1.239-0.854
							c-0.577,0.106-0.959,0.661-0.852,1.238l3.284,17.886l-0.9,0.165l-3.285-17.886c-0.197-1.074,0.515-2.107,1.588-2.304
							c1.073-0.197,2.107,0.516,2.305,1.59L194.538,197.167z"/>
					</g>
				</g>
			</g>
			<g>
				<g>
					<g>
						<path fill="#D85F67" d="M200.785,202.449c-0.251-1.366-1.561-2.27-2.927-2.019c1.366-0.251,2.269-1.561,2.019-2.927
							c-0.251-1.366-1.561-2.269-2.927-2.019l-9.768,1.794c-1.366,0.251-2.269,1.561-2.019,2.927
							c0.251,1.366,1.561,2.269,2.927,2.019c-1.366,0.251-2.27,1.561-2.019,2.927c0.251,1.366,1.561,2.269,2.927,2.019
							c-1.366,0.251-2.269,1.561-2.019,2.927c0.251,1.366,1.561,2.269,2.927,2.018l9.768-1.794c1.366-0.251,2.269-1.561,2.019-2.927
							c-0.251-1.366-1.561-2.269-2.927-2.019C200.132,205.125,201.035,203.814,200.785,202.449z"/>
					</g>
				</g>
			</g>
			<g>
				<g>
					
						<rect x="186.617" y="200.803" transform="matrix(0.9836 -0.1806 0.1806 0.9836 -33.1781 38.174)" fill="#252A33" width="12.799" height="0.916"/>
				</g>
			</g>
			<g>
				<g>
					
						<rect x="187.526" y="205.756" transform="matrix(0.9836 -0.1806 0.1806 0.9836 -34.0569 38.4187)" fill="#252A33" width="12.799" height="0.916"/>
				</g>
			</g>
			<g>
				<g>
					<path fill="#ED8D1A" d="M183.296,148.632c-0.498,0.092-0.975-0.237-1.066-0.735l-0.503-2.736
						c-0.091-0.498,0.237-0.975,0.735-1.066c0.498-0.091,0.975,0.237,1.066,0.735l0.503,2.736
						C184.123,148.064,183.794,148.54,183.296,148.632z"/>
				</g>
			</g>
			<g>
				<g>
					<path fill="#ED8D1A" d="M201.285,152.487c-0.23,0.042-0.477-0.003-0.685-0.147c-0.416-0.287-0.521-0.857-0.234-1.274
						l1.579-2.29c0.287-0.416,0.857-0.521,1.273-0.234c0.416,0.287,0.521,0.857,0.234,1.274l-1.579,2.29
						C201.729,152.314,201.515,152.445,201.285,152.487z"/>
				</g>
				<g>
					<path fill="#ED8D1A" d="M172.412,194.349c-0.23,0.042-0.477-0.003-0.685-0.147c-0.417-0.287-0.521-0.857-0.234-1.274
						l1.58-2.289c0.287-0.416,0.857-0.521,1.273-0.234c0.416,0.287,0.521,0.857,0.234,1.274l-1.58,2.289
						C172.857,194.176,172.643,194.307,172.412,194.349z"/>
				</g>
			</g>
			<g>
				<g>
					<path fill="#ED8D1A" d="M214.015,167.429l-2.735,0.502c-0.498,0.092-0.975-0.237-1.066-0.735
						c-0.092-0.498,0.237-0.975,0.735-1.066l2.735-0.502c0.498-0.091,0.974,0.237,1.066,0.735
						C214.841,166.861,214.512,167.338,214.015,167.429z"/>
				</g>
				<g>
					<path fill="#ED8D1A" d="M163.997,176.614l-2.735,0.502c-0.498,0.091-0.975-0.237-1.066-0.735
						c-0.091-0.498,0.238-0.975,0.735-1.066l2.735-0.502c0.498-0.091,0.975,0.237,1.066,0.735
						C164.824,176.046,164.495,176.523,163.997,176.614z"/>
				</g>
			</g>
			<g>
				<g>
					<path fill="#ED8D1A" d="M209.714,187.499c-0.23,0.042-0.477-0.003-0.685-0.147l-2.29-1.579
						c-0.417-0.287-0.521-0.857-0.234-1.273c0.287-0.416,0.857-0.521,1.273-0.234l2.29,1.579c0.416,0.287,0.521,0.857,0.234,1.274
						C210.159,187.326,209.945,187.456,209.714,187.499z"/>
				</g>
				<g>
					<path fill="#ED8D1A" d="M167.852,158.627c-0.23,0.042-0.477-0.003-0.685-0.147l-2.29-1.579
						c-0.416-0.287-0.521-0.857-0.234-1.273c0.287-0.417,0.857-0.521,1.273-0.234l2.29,1.58c0.416,0.287,0.521,0.857,0.234,1.273
						C168.297,158.454,168.083,158.584,167.852,158.627z"/>
				</g>
			</g>
		</g>
		<g>
			<path fill="#FF838B" d="M481.716,562.116c0,0,10.174,37.533-24.13,36.722c-31.926-0.754-140.089,4.18-171.578-1.977
				c-3.312-0.648-2.95-13.294-2.95-16.562c0-29.956,106.049-55.929,106.049-55.929L481.716,562.116z"/>
			<polygon fill="#FCCBBE" points="332.815,340.614 332.602,349.477 325.593,368.385 404.167,395.935 416.309,357.035 
				373.319,342.626 341.365,330.553 			"/>
			<path fill="#D38D7F" d="M347.087,340.31c11.058,0.354,56.422,31.3,73.826,59.017l1.304-9.341l-13.397-74.727l-18.03-7.203
				c-4.039-0.666-9.161-2.858-14.696-5.871l-40.695-16.259l-2.583,54.689C337.128,338.189,342.246,340.155,347.087,340.31z"/>
			<path fill="#FF838B" d="M457.669,343.741l-44.211-2.611l2.851,15.905c0,0-13.197,17.185-41.833,18.954
				c-28.636,1.769-41.874-26.512-41.874-26.512l0.213-8.863l-19.472,4.213l0,0c-22.264,5.187-66.477,19.22-76.134,50.301
				c-13.033,41.948,4.616,181.167,35.137,186.705c10.004,1.815,37.736,3.445,64.398-2.222c24.196-5.143,44.87-20.759,57.017-42.307
				l0,0l57.917,29.538c24.473,12.481,53.402-5.704,52.764-33.169l-2.962-127.5C510.386,376.109,488.969,345.589,457.669,343.741z"/>
			<path fill="#FFBB90" d="M436.672,146.261c-20.869-15.458-48.753-17.366-72.213-6.225c-20.649,9.806-39.669,27.988-43.607,57.728
				c-7.185,54.257,20.314,130.074,69.776,132.789C437.09,333.104,508.287,199.307,436.672,146.261z"/>
			<path fill="#252A33" d="M419.466,126c0,0-110.81-43.518-122.981,67.972l103.268-52.249l66.244,36.72
				C465.996,178.442,463.675,130.294,419.466,126z"/>
			<g>
				<path fill="#252A33" d="M444.345,227.055c-0.484-0.04-0.962-0.222-1.367-0.551c-9.792-7.95-16.899-2.005-17.196-1.748
					c-1.046,0.904-2.627,0.787-3.529-0.258c-0.903-1.046-0.788-2.626,0.258-3.529c3.618-3.124,13.213-6.801,23.621,1.65
					c1.073,0.871,1.236,2.447,0.365,3.52C445.956,226.805,445.141,227.121,444.345,227.055z"/>
			</g>
			<g>
				<path fill="#252A33" d="M370.897,224.343c0.485,0.002,0.977-0.136,1.41-0.429c10.453-7.06,17.01-0.513,17.283-0.232
					c0.963,0.993,2.547,1.014,3.538,0.053c0.992-0.963,1.015-2.547,0.053-3.538c-3.33-3.43-12.564-7.935-23.675-0.43
					c-1.145,0.773-1.446,2.329-0.673,3.474C369.314,223.953,370.098,224.339,370.897,224.343z"/>
			</g>
			
				<ellipse transform="matrix(0.999 0.0439 -0.0439 0.999 11.4759 -16.4526)" fill="#FFFFFF" cx="379.905" cy="252.762" rx="16.835" ry="8.058"/>
			
				<ellipse transform="matrix(0.999 0.044 -0.044 0.999 11.4763 -16.4531)" fill="#FFFFFF" cx="379.905" cy="252.762" rx="11.869" ry="5.681"/>
			
				<ellipse transform="matrix(0.999 0.0439 -0.0439 0.999 11.6353 -19.024)" fill="#FFFFFF" cx="438.466" cy="255.101" rx="16.835" ry="8.058"/>
			<circle fill="#252A33" cx="434.507" cy="239.452" r="4.71"/>
			<circle fill="#252A33" cx="381.866" cy="237.136" r="4.71"/>
			
				<path fill="none" stroke="#252A33" stroke-width="3.3216" stroke-linecap="round" stroke-linejoin="round" stroke-miterlimit="10" d="
				M407.689,216.507c0,0-4.401,28.597,0.873,37.316c5.275,8.719,14.235,12.813,14.063,16.723c-0.172,3.909-7.77,2.922-17.509,4.453"
				/>
			<path fill="#252A33" d="M465.996,178.442c0,0,6.332,54.067-6.53,75.647c0,0,10.377-51.222-40.12-92.82
				c0,0-96.767,19.5-83.948,124.657c0,0-43.658-16.3-38.913-91.954c0,0,55.364-60.184,100.972-57.895
				S465.996,178.442,465.996,178.442z"/>
			<path fill="#252A33" d="M353.056,140.424c0,0,17.129-66.326-39.793-55.736c-52.363,9.742-55.11,60.24-29.878,69.405
				c11.182,4.062,21.561,6.859,29.653,8.715c10.04,2.303,20.53-0.997,27.468-8.611L353.056,140.424z"/>
			<polygon fill="#FFFFFF" points="336.723,220.065 368.191,250.98 363.087,252.022 335.325,222.242 			"/>
			<path fill="#FFFFFF" d="M393.888,254.666c16.099-14.495,29.456,0,29.456,0v-1.905c0,0-13.357-14.495-29.456,0V254.666z"/>
			<path fill="#FF838B" d="M327.496,345.306c0,0,4.314-18.126,3.131-24.089c-1.246-6.286,3.418-6.652,10.738-1.992
				c9.638,6.135,26.951,22.24,44.132,19.003c17.181-3.237,30.812-11.853,30.812-4.312c0,4.899,0.019,17.023,2.733,27.794
				c0,0-16.478,22.548-45.724,19.539c-29.246-3.009-39.526-7.011-47.726-27.776L327.496,345.306z"/>
			<path fill="#BC5862" d="M328.321,341.587c0,0,14.784,27.096,49.195,21.657c34.411-5.439,39.24-21.92,39.24-21.92
				S380.632,380.446,328.321,341.587z"/>
			<path fill="#BC5862" d="M330.824,323.257c0,0,25.402,39.987,85.485,12.722C416.309,335.979,360.819,372.906,330.824,323.257z"/>
			<g>
				<path fill="#FFFFFF" d="M353.362,291.146c0,0,3.145-18.341,13.091-23.523c0,0,42.801,22.493,67.66,46.102
					c0,0,36.464-40.93,67.792-46.62c0,0,11.129,10.762,12.699,21.461l-80.446,37.01L353.362,291.146z"/>
				<path fill="#652D90" d="M346.867,285.283c0,0,49.859,6.763,81.194,30.786c4.142,3.175,9.816,3.396,14.155,0.496
					c13.451-8.99,43.785-26.862,78.924-31.949l-3.435,153.51l-60.659,17.862c-14.628,4.308-30.158,4.519-44.898,0.611
					l-64.692-17.152L346.867,285.283z"/>
				<path fill="#D8D0C7" d="M357.768,277.71c25.068,7.893,76.346,36.015,76.346,36.015c-17.41-14.766-63.789-36.077-73.674-40.54
					C359.424,274.608,358.537,276.144,357.768,277.71z"/>
				<path fill="#D8D0C7" d="M506.564,272.379c-15.861,6.825-56.098,25.087-72.45,41.346c0,0,40.88-26.135,76.872-34.836
					C509.599,276.453,508.016,274.225,506.564,272.379z"/>
				<polygon fill="#3A1A56" points="420.831,311.033 421.395,458.492 423.255,458.75 424.27,313.31 				"/>
				<polygon fill="#3A1A56" points="446.661,313.677 445.822,458.467 447.214,458.247 450.545,311.268 				"/>
			</g>
			<path fill="#FFBB90" d="M436.465,479.234c47.483-1.647,44.624-53.382,34.093-45.97c-10.531,7.412-40.622,14.325-40.622,14.325
				s-14.332,3.557-18.807,17.878C406.653,479.788,436.465,479.234,436.465,479.234z"/>
			<path fill="#FFBB90" d="M443.819,478.526c0,0-21.603,0.71-26.295,13.943c-4.568,12.879-18.903-8.86-18.903-8.86
				s9.86-26.412,25.649-33.669C440.058,442.683,443.819,478.526,443.819,478.526z"/>
			<path fill="#BC5862" d="M398.621,483.609l-88.351,49.427c0,0-26.612-22.13-28.792-119.38c0,0-5.797,76.215,21.526,123.262
				c1.949,3.357,6.183,4.596,9.611,2.774C331.254,529.787,380.015,496.547,398.621,483.609z"/>
			<path fill="#FFBB90" d="M292.632,497.952c0,0,7.183-12.355,43.535-6.18c0,0,12.745,13.101,8.699,21.91l-34.597,19.355
				C310.269,533.036,298.937,521.99,292.632,497.952z"/>
			<path fill="#BC5862" d="M448.49,518.132c-12.32-0.159-36.445-15.017-36.445-15.017l-0.645,1.283
				c13.229,10.03,28.76,15.351,35.307,17.293c1.945,0.577,3.965-0.57,4.479-2.532c2.449-9.345,2.125-30.05,1.627-42.983
				c-1.454,0.543-2.982,1.027-4.595,1.439C450.123,496.259,448.49,518.132,448.49,518.132z"/>
			<path fill="#BC5862" d="M336.167,491.771l2.019,2.295c24.98-6.398,40.68,1.786,40.68,1.786l6.513-4.08
				C361.33,485.559,336.167,491.771,336.167,491.771z"/>
			<path fill="#BC5862" d="M415.305,495.852c-46.547,83.853-132.257,87.681-132.257,87.681l0.227,5.822
				c113.707-21.333,133.39-95.042,133.39-95.042L415.305,495.852z"/>
			<path fill="#BC5862" d="M483.215,567.532c0,0-18.174,19.005-92.532-31.615l-1.575,1.64c0,0,52.531,45.894,93.996,37.536
				L483.215,567.532z"/>
		</g>
	</g>
</g>
<g id="DESIGNED_BY_FREEPIK">
</g>
</svg>
