<?xml version="1.0" encoding="utf-8"?>
<!-- Generator: Adobe Illustrator 17.0.0, SVG Export Plug-In . SVG Version: 6.00 Build 0)  -->
<!DOCTYPE svg PUBLIC "-//W3C//DTD SVG 1.1//EN" "http://www.w3.org/Graphics/SVG/1.1/DTD/svg11.dtd">
<svg version="1.1" id="Layer_1" xmlns="http://www.w3.org/2000/svg" xmlns:xlink="http://www.w3.org/1999/xlink" x="0px" y="0px"
	 width="160px" height="160px" viewBox="0 0 160 160" enable-background="new 0 0 160 160" xml:space="preserve">
<title>Artboard 3</title>
<g>
	<g>
		<polygon fill="#6AAFE8" points="97.728,28.126 94.734,28.126 94.734,25.135 95.083,25.135 95.083,27.777 97.728,27.777 		"/>
	</g>
	<g>
		<polygon fill="#6AAFE8" points="95.084,7.994 94.735,7.994 94.735,5 97.727,5 97.727,5.349 95.084,5.349 		"/>
	</g>
	<g>
		<rect x="94.734" y="12.464" fill="#6AAFE8" width="0.349" height="8.2"/>
	</g>
	<g>
		<g>
			<path fill="#6AAFE8" d="M106.315,23.806l-0.079-0.041c-8.284-4.229-7.171-12.421-7.16-12.503l0.022-0.149h0.15
				c5.267,0,6.922-1.697,6.938-1.715l0.128-0.136l0.128,0.137c0.016,0.016,1.671,1.714,6.938,1.714h0.15l0.022,0.149
				c0.012,0.082,1.125,8.273-7.16,12.503L106.315,23.806z M99.405,11.462c-0.105,1.109-0.454,8.141,6.909,11.952
				c7.364-3.811,7.015-10.842,6.91-11.952c-4.573-0.029-6.434-1.302-6.91-1.706C105.839,10.16,103.978,11.433,99.405,11.462z"/>
		</g>
		<g>
			<polygon fill="#78C2FF" points="87.709,57.377 87.36,57.377 87.36,37.916 106.14,37.916 106.14,21.55 106.489,21.55 
				106.489,38.265 87.709,38.265 			"/>
		</g>
		<g>
			<polygon fill="#6AAFE8" points="117.862,28.126 114.868,28.126 114.868,27.777 117.513,27.777 117.513,25.135 117.862,25.135 			
				"/>
		</g>
		<g>
			<polygon fill="#6AAFE8" points="117.862,7.993 117.513,7.993 117.513,5.35 114.868,5.35 114.868,5.001 117.862,5.001 			"/>
		</g>
		<g>
			<rect x="117.513" y="12.464" fill="#6AAFE8" width="0.349" height="8.2"/>
		</g>
		<g>
			<path fill="#78C2FF" d="M106.315,21.724c-0.706,0-1.281-0.575-1.281-1.282c0-0.707,0.575-1.281,1.281-1.281
				c0.707,0,1.282,0.575,1.282,1.281C107.596,21.149,107.021,21.724,106.315,21.724z M106.315,19.51
				c-0.514,0-0.933,0.418-0.933,0.933c0,0.514,0.419,0.933,0.933,0.933c0.515,0,0.933-0.418,0.933-0.933
				C107.247,19.928,106.829,19.51,106.315,19.51z"/>
		</g>
	</g>
</g>
<g>
	<g>
		<path fill="#A1D4FF" d="M17.972,15.403H9.176V6.607h8.796V15.403z M9.524,15.055h8.099V6.956H9.524
			C9.524,6.956,9.524,15.055,9.524,15.055z"/>
	</g>
	<g>
		<rect x="13.4" y="8.955" fill="#A1D4FF" width="0.349" height="4.1"/>
	</g>
	<g>
		<rect x="11.524" y="10.83" fill="#A1D4FF" width="4.1" height="0.349"/>
	</g>
</g>
<g>
	<g>
		<path fill="#A1D4FF" d="M153.211,26.14h-12.574v-8.976h12.574V26.14z M140.986,25.791h11.876v-8.278h-11.876V25.791z"/>
	</g>
	<g>
		<polygon fill="#A1D4FF" points="146.924,17.197 140.701,12.069 140.923,11.8 146.924,16.745 152.926,11.8 153.148,12.069 		"/>
	</g>
	<g>
		
			<rect x="147.505" y="23.407" transform="matrix(-0.6882 -0.7255 0.7255 -0.6882 237.4459 149.205)" fill="#A1D4FF" width="6.558" height="0.349"/>
	</g>
	<g>
		
			<rect x="142.888" y="20.313" transform="matrix(-0.726 -0.6877 0.6877 -0.726 230.7004 139.1036)" fill="#A1D4FF" width="0.349" height="6.558"/>
	</g>
</g>
<g>
	<g>
		<path fill="#A1D4FF" d="M41.11,35.157l-0.131-0.342c-0.117-0.015-0.232-0.042-0.344-0.079l-0.267,0.25l-0.775-0.551l0.149-0.334
			c-0.072-0.093-0.135-0.194-0.188-0.299l-0.366-0.012l-0.158-0.938l0.342-0.131c0.015-0.117,0.042-0.232,0.079-0.344l-0.25-0.267
			l0.551-0.775l0.334,0.149c0.094-0.072,0.194-0.135,0.299-0.187l0.011-0.366l0.938-0.158l0.131,0.342
			c0.117,0.015,0.233,0.042,0.344,0.079l0.267-0.25l0.775,0.551l-0.149,0.334c0.072,0.093,0.134,0.194,0.187,0.299l0.366,0.011
			l0.158,0.938l-0.342,0.131c-0.016,0.117-0.042,0.232-0.079,0.344l0.251,0.267l-0.552,0.775l-0.334-0.149
			c-0.093,0.072-0.193,0.135-0.299,0.187l-0.012,0.366L41.11,35.157z M40.574,34.435l0.076,0.029
			c0.139,0.053,0.284,0.086,0.434,0.099l0.081,0.007l0.112,0.293l0.515-0.087l0.01-0.314l0.075-0.034
			c0.136-0.061,0.263-0.14,0.377-0.236l0.063-0.053l0.287,0.128l0.303-0.426l-0.215-0.229l0.029-0.077
			c0.054-0.138,0.086-0.284,0.1-0.434l0.007-0.082l0.293-0.112l-0.086-0.515l-0.314-0.01l-0.034-0.075
			c-0.061-0.136-0.14-0.263-0.236-0.377l-0.053-0.063l0.128-0.286l-0.425-0.303l-0.229,0.215l-0.076-0.029
			c-0.139-0.053-0.285-0.086-0.433-0.099l-0.081-0.007l-0.113-0.293l-0.515,0.087l-0.01,0.314L40.569,31.5
			c-0.136,0.061-0.263,0.14-0.377,0.236l-0.062,0.053l-0.287-0.128l-0.303,0.426l0.215,0.229l-0.03,0.077
			c-0.053,0.138-0.086,0.284-0.099,0.434l-0.007,0.081l-0.293,0.112l0.087,0.515l0.314,0.01l0.033,0.075
			c0.061,0.136,0.14,0.263,0.236,0.377l0.053,0.063l-0.128,0.286l0.425,0.303L40.574,34.435z M41.221,33.999
			c-0.213,0-0.42-0.066-0.597-0.192c-0.465-0.33-0.573-0.977-0.243-1.442c0.33-0.464,0.978-0.573,1.442-0.243
			c0.225,0.16,0.374,0.398,0.42,0.671c0.046,0.272-0.017,0.546-0.177,0.771s-0.398,0.374-0.671,0.42
			C41.337,33.995,41.279,33.999,41.221,33.999z M41.224,32.193c-0.242,0-0.48,0.113-0.63,0.324c-0.12,0.168-0.167,0.372-0.132,0.576
			c0.034,0.203,0.146,0.381,0.314,0.501l0,0c0.168,0.12,0.372,0.167,0.576,0.132c0.203-0.034,0.381-0.146,0.501-0.314
			s0.167-0.372,0.133-0.576c-0.034-0.203-0.146-0.381-0.314-0.501C41.535,32.24,41.379,32.193,41.224,32.193z"/>
	</g>
	<g>
		<path fill="#A1D4FF" d="M33.846,36.251l-0.292-0.763c-0.313-0.035-0.621-0.106-0.917-0.21l-0.595,0.559l-1.618-1.151l0.333-0.746
			c-0.195-0.246-0.363-0.513-0.499-0.798l-0.817-0.026l-0.33-1.957l0.763-0.292c0.035-0.313,0.106-0.621,0.21-0.917l-0.559-0.595
			l1.151-1.617l0.746,0.333c0.245-0.196,0.513-0.363,0.798-0.499l0.026-0.817l1.957-0.33l0.292,0.763
			c0.313,0.035,0.62,0.106,0.917,0.21l0.595-0.559l1.617,1.151l-0.333,0.746c0.196,0.246,0.363,0.513,0.499,0.798l0.816,0.026
			l0.33,1.957l-0.763,0.292c-0.035,0.313-0.106,0.621-0.21,0.917l0.559,0.595l-1.151,1.617l-0.745-0.333
			c-0.245,0.196-0.513,0.363-0.798,0.499l-0.026,0.817L33.846,36.251z M32.556,34.875l0.102,0.039
			c0.332,0.127,0.68,0.207,1.035,0.237l0.109,0.009l0.268,0.699l1.394-0.235l0.024-0.748l0.1-0.045
			c0.326-0.145,0.629-0.335,0.9-0.563l0.084-0.07l0.683,0.305l0.819-1.152l-0.512-0.545l0.039-0.102
			c0.127-0.331,0.207-0.679,0.237-1.035l0.009-0.109l0.699-0.268l-0.235-1.394l-0.748-0.024l-0.044-0.1
			c-0.145-0.326-0.335-0.629-0.563-0.9l-0.07-0.084l0.305-0.683l-1.151-0.82l-0.546,0.512l-0.102-0.039
			c-0.332-0.127-0.68-0.207-1.035-0.237l-0.109-0.009l-0.267-0.699l-1.394,0.235l-0.025,0.75l-0.1,0.045
			c-0.325,0.145-0.628,0.335-0.9,0.563l-0.084,0.07l-0.683-0.305l-0.819,1.151l0.512,0.546l-0.039,0.102
			c-0.127,0.331-0.206,0.679-0.237,1.035l-0.009,0.109l-0.699,0.268l0.235,1.394l0.748,0.024l0.044,0.1
			c0.145,0.326,0.335,0.629,0.563,0.9l0.07,0.084l-0.305,0.683l1.152,0.82L32.556,34.875z M34.022,33.595
			c-0.453,0-0.91-0.136-1.306-0.417c-1.014-0.722-1.252-2.134-0.53-3.149c0.722-1.014,2.134-1.252,3.148-0.53
			s1.252,2.134,0.531,3.148C35.424,33.265,34.728,33.595,34.022,33.595z M34.027,29.43c-0.597,0-1.186,0.279-1.557,0.801
			c-0.296,0.416-0.412,0.921-0.327,1.424s0.36,0.942,0.775,1.238c0.858,0.61,2.052,0.409,2.662-0.448
			c0.296-0.415,0.412-0.921,0.327-1.424s-0.36-0.942-0.776-1.238C34.796,29.545,34.41,29.43,34.027,29.43z"/>
	</g>
</g>
<g>
	<g>
		<g>
			<g>
				<path fill="#78C2FF" d="M35.266,17.515c-3.589,0-6.51-2.921-6.51-6.51h0.349c0,3.397,2.764,6.161,6.161,6.161
					s6.161-2.764,6.161-6.161s-2.764-6.161-6.161-6.161V4.495c3.589,0,6.51,2.92,6.51,6.51S38.855,17.515,35.266,17.515z
					 M35.266,16.61c-3.091,0-5.605-2.514-5.605-5.605c0-3.09,2.514-5.605,5.605-5.605s5.605,2.514,5.605,5.605h-0.349
					c0-2.898-2.358-5.256-5.256-5.256s-5.256,2.358-5.256,5.256s2.357,5.256,5.256,5.256V16.61z"/>
			</g>
		</g>
	</g>
	<g>
		<polygon fill="#78C2FF" points="34.468,13.1 32.12,10.752 32.367,10.505 34.468,12.607 38.165,8.91 38.411,9.157 		"/>
	</g>
</g>
<g>
	
		<linearGradient id="SVGID_1_" gradientUnits="userSpaceOnUse" x1="283.0258" y1="-272.6301" x2="405.101" y2="-272.6301" gradientTransform="matrix(1 0 0 -1 -266 -195)">
		<stop  offset="0" style="stop-color:#40D5E6"/>
		<stop  offset="1" style="stop-color:#5577FF"/>
	</linearGradient>
	<path fill="url(#SVGID_1_)" d="M20.34,118.326h109.885V40.783c0-2.126-1.724-3.849-3.849-3.849H24.19
		c-2.126,0-3.849,1.724-3.849,3.849V118.326z"/>
</g>
<g>
	
		<linearGradient id="SVGID_2_" gradientUnits="userSpaceOnUse" x1="290.2252" y1="-267.2254" x2="392.1468" y2="-267.2254" gradientTransform="matrix(1 0 0 -1 -266 -195)">
		<stop  offset="0" style="stop-color:#404B61"/>
		<stop  offset="0.486" style="stop-color:#3C4860"/>
		<stop  offset="1" style="stop-color:#2F3E5C"/>
	</linearGradient>
	<rect x="24.225" y="40.92" fill="url(#SVGID_2_)" width="101.922" height="62.611"/>
</g>
<g>
	<g>
		
			<linearGradient id="SVGID_3_" gradientUnits="userSpaceOnUse" x1="394.0412" y1="-304.8575" x2="420.2646" y2="-304.8575" gradientTransform="matrix(1 0 0 -1 -266 -195)">
			<stop  offset="0" style="stop-color:#3076A1"/>
			<stop  offset="1" style="stop-color:#639C38"/>
		</linearGradient>
		<path fill="url(#SVGID_3_)" d="M128.39,130.195c-1.385-6.328,1.607-7.907,4.501-9.434c2.364-1.248,4.598-2.427,4.479-6.157
			c-0.158-4.944,3.211-6.743,6.182-8.329c2.211-1.181,4.299-2.296,4.61-4.546c0.75-5.413,5.743-12.141,5.793-12.209l0.31,0.232
			c-0.05,0.066-4.983,6.716-5.72,12.03c-0.339,2.444-2.511,3.605-4.811,4.834c-3.013,1.608-6.127,3.272-5.977,7.976
			c0.127,3.971-2.32,5.263-4.686,6.511c-2.893,1.527-5.625,2.969-4.304,9.009L128.39,130.195z"/>
	</g>
	<g>
		
			<linearGradient id="SVGID_4_" gradientUnits="userSpaceOnUse" x1="391.7626" y1="-301.0356" x2="426" y2="-301.0356" gradientTransform="matrix(1 0 0 -1 -266 -195)">
			<stop  offset="0" style="stop-color:#3076A1"/>
			<stop  offset="1" style="stop-color:#639C38"/>
		</linearGradient>
		<path fill="url(#SVGID_4_)" d="M129.909,128.583c-0.067,0-0.132-0.002-0.2-0.007c-1.252-0.093-2.478-1.044-3.86-2.992
			l-0.087-0.122l0.097-0.114c0.022-0.027,2.238-2.728,1.425-7.797c-0.19-1.183-0.443-2.088-0.647-2.815
			c-0.298-1.061-0.494-1.761-0.165-2.321c0.419-0.71,1.547-1.082,4.729-1.839c3.388-0.807,4.52-4.624,5.52-7.992
			c0.942-3.172,1.832-6.164,4.469-6.072c2.422,0.092,6.102-3.704,9.347-7.049c3.012-3.105,5.855-6.03,7.672-5.973
			c0.436,0.016,0.805,0.199,1.094,0.544c1.62,1.93,0.109,4.858-1.353,7.689c-1.247,2.416-2.426,4.696-1.667,6.2
			c0.953,1.89,1.086,3.602,0.385,4.947c-0.829,1.593-2.761,2.619-5.744,3.051c-2.726,0.395-3.021,3.37-3.334,6.518
			c-0.364,3.675-0.777,7.839-5.353,8.235c-3.398,0.294-5.688,2.679-7.71,4.784C132.923,127.128,131.526,128.583,129.909,128.583z
			 M126.249,125.476c1.259,1.744,2.401,2.632,3.489,2.713c1.521,0.112,2.908-1.332,4.512-3.003c2.068-2.153,4.412-4.596,7.955-4.901
			c4.256-0.369,4.634-4.19,5.001-7.887c0.328-3.304,0.636-6.425,3.664-6.863c2.852-0.413,4.688-1.37,5.456-2.846
			c0.641-1.231,0.506-2.819-0.388-4.593c-0.847-1.681,0.375-4.048,1.668-6.552c1.404-2.718,2.855-5.53,1.4-7.262
			c-0.219-0.261-0.485-0.393-0.812-0.405c-1.643-0.054-4.43,2.814-7.38,5.855c-3.419,3.525-6.953,7.169-9.541,7.169
			c-0.033,0-0.066,0-0.099-0.001c-2.338-0.087-3.147,2.639-4.084,5.794c-1.028,3.468-2.196,7.4-5.802,8.258
			c-2.878,0.685-4.136,1.067-4.485,1.659c-0.247,0.418-0.077,1.021,0.204,2.02c0.207,0.736,0.463,1.653,0.656,2.859
			C128.422,122.199,126.687,124.888,126.249,125.476z"/>
	</g>
	<g>
		
			<linearGradient id="SVGID_5_" gradientUnits="userSpaceOnUse" x1="383.8964" y1="-295.855" x2="405.983" y2="-295.855" gradientTransform="matrix(1 0 0 -1 -266 -195)">
			<stop  offset="0" style="stop-color:#3076A1"/>
			<stop  offset="1" style="stop-color:#639C38"/>
		</linearGradient>
		<path fill="url(#SVGID_5_)" d="M130.051,127.257c-0.046,0-0.09-0.002-0.135-0.007c-2.052-0.187-3.63-4.683-5.156-9.031
			c-0.724-2.062-1.408-4.011-2.075-5.261c-0.516-0.971-1.173-1.981-1.808-2.96c-1.69-2.605-3.439-5.299-2.87-7.663
			c0.299-1.244,1.192-2.279,2.729-3.164c3.363-1.938,2.846-3.033,1.713-5.432c-0.832-1.76-1.971-4.171-2.016-7.964
			c-0.019-1.63-0.057-3.041-0.09-4.284c-0.107-3.998-0.161-6.005,0.693-6.731c0.353-0.3,0.848-0.378,1.556-0.243
			c1.211,0.231,1.735,1.208,2.289,2.242c0.707,1.32,1.508,2.818,3.928,3.323c2.27,0.475,4.453,1.123,5.056,2.631
			c0.424,1.061,0.023,2.455-1.226,4.265c-0.303,0.439-0.406,0.812-0.318,1.141c0.198,0.729,1.328,1.256,2.639,1.867
			c1.864,0.87,4.184,1.952,4.84,4.194c0.53,1.807-0.083,4.06-1.872,6.888c-4.234,6.691-4.064,11.23-3.914,15.233
			c0.111,2.967,0.217,5.769-1.573,8.9C131.65,126.582,130.867,127.257,130.051,127.257z M121.984,74.84
			c-0.302,0-0.53,0.071-0.7,0.214c-0.712,0.606-0.657,2.673-0.556,6.426c0.033,1.245,0.071,2.657,0.09,4.289
			c0.043,3.709,1.162,6.076,1.978,7.804c1.125,2.38,1.804,3.816-1.869,5.933c-1.439,0.83-2.272,1.785-2.545,2.92
			c-0.53,2.202,1.173,4.824,2.819,7.362c0.64,0.985,1.3,2.003,1.825,2.989c0.68,1.277,1.368,3.238,2.098,5.315
			c1.417,4.036,3.023,8.61,4.827,8.775c0.689,0.061,1.413-0.562,2.153-1.857c1.734-3.035,1.636-5.657,1.521-8.694
			c-0.152-4.06-0.324-8.661,3.974-15.454c1.726-2.73,2.324-4.879,1.828-6.572c-0.607-2.073-2.746-3.071-4.632-3.951
			c-1.397-0.652-2.604-1.215-2.849-2.117c-0.121-0.445,0.001-0.923,0.373-1.462c1.169-1.694,1.557-2.97,1.185-3.9
			c-0.536-1.343-2.715-1.965-4.776-2.396c-2.595-0.544-3.479-2.195-4.19-3.519c-0.532-0.993-0.991-1.849-2.02-2.046
			C122.319,74.859,122.141,74.84,121.984,74.84z"/>
	</g>
	<g>
		
			<linearGradient id="SVGID_6_" gradientUnits="userSpaceOnUse" x1="390.0352" y1="-300.6312" x2="396.7309" y2="-300.6312" gradientTransform="matrix(1 0 0 -1 -266 -195)">
			<stop  offset="0" style="stop-color:#3076A1"/>
			<stop  offset="1" style="stop-color:#639C38"/>
		</linearGradient>
		<path fill="url(#SVGID_6_)" d="M130.092,129.656l-0.369-0.117c2.069-6.54-1.674-21.213-2.789-24.784
			c-0.549-1.756-0.042-4.399,0.449-6.956c0.633-3.302,1.288-6.716-0.382-7.995c-3.135-2.403-2.97-7.964-2.962-8.199l0.386,0.014
			c-0.001,0.056-0.165,5.596,2.81,7.878c1.859,1.425,1.182,4.959,0.526,8.376c-0.481,2.51-0.978,5.104-0.46,6.767
			C128.682,109.056,132.155,123.132,130.092,129.656z"/>
	</g>
	
		<linearGradient id="SVGID_7_" gradientUnits="userSpaceOnUse" x1="374.88" y1="-301.9567" x2="396.4972" y2="-301.9567" gradientTransform="matrix(1 0 0 -1 -266 -195)">
		<stop  offset="0" style="stop-color:#3076A1"/>
		<stop  offset="1" style="stop-color:#639C38"/>
	</linearGradient>
	<path fill="url(#SVGID_7_)" d="M114.441,87.177c-0.862-2.187-4.226-1.855-3.916,1.237c0.309,3.092,2.473,6.39-0.824,11.646
		c-3.298,5.256,4.226,6.287,6.905,9.584c2.68,3.298,3.607,7.833,5.875,10.718c2.268,2.885,3.814,9.791,5.668,7.214
		c1.856-2.577,0.11-5.927,0.315-10.565c0.205-4.638,4.333-7.574,0.205-10.563c-4.128-2.99-8.279-3.906-6.917-10.646
		C122.354,92.83,117.121,93.979,114.441,87.177z"/>
	<g>
		<path fill="#FFFFFF" d="M131.152,128.174c-0.022-0.137-2.314-13.722-7.446-17.445c-5.233-3.796-6.184-7.304-8.012-15.574
			l0.379-0.083c1.806,8.168,2.742,11.631,7.861,15.344c5.26,3.816,7.508,17.131,7.601,17.696L131.152,128.174z"/>
	</g>
	
		<linearGradient id="SVGID_8_" gradientUnits="userSpaceOnUse" x1="389.3533" y1="-350.9374" x2="407.5414" y2="-280.2064" gradientTransform="matrix(1 0 0 -1 -266 -195)">
		<stop  offset="0" style="stop-color:#3076A1"/>
		<stop  offset="1" style="stop-color:#639C38"/>
	</linearGradient>
	<path fill="url(#SVGID_8_)" d="M126.522,127.687c0,0,1.525-3.77-1.251-9.13c-2.775-5.36-5.021-4.536,1.668-8.659
		s0.042-17.111,5.736-18.76c5.694-1.649,10.642-22.67,14.972-19.994s-1.443,12.985,1.649,16.077
		c3.092,3.093,3.505,7.028-2.886,10.214c-6.391,3.186,4.536,15.349-4.122,19.061C133.63,120.207,136.113,134.756,126.522,127.687z"
		/>
	<g>
		<path fill="#FFFFFF" d="M129.168,131.687c-0.01-0.049-0.941-4.877,2-11.115c2.996-6.356,4.431-13.304,3.837-18.586
			c-0.322-2.86,1.51-3.979,3.283-5.061c1.745-1.065,3.549-2.167,3.449-4.985c-0.09-2.545,0.987-8.515,1.034-8.768l0.381,0.07
			c-0.011,0.061-1.116,6.18-1.027,8.685c0.107,3.045-1.795,4.206-3.635,5.33c-1.746,1.066-3.394,2.072-3.1,4.688
			c0.602,5.351-0.845,12.376-3.872,18.793c-2.884,6.115-1.981,10.826-1.971,10.873L129.168,131.687z"/>
	</g>
	<path fill="#FFFFFF" d="M136.164,105.045c1.945-1.806,4.516-2.066,3.98,0.613s-2.373,3.445-1.454,5.129
		c0.918,1.684,2.449,3.367-0.153,5.435c-2.603,2.067-4.057,2.296-4.822,6.2c-0.765,3.904-0.612,6.569-3.98,6.736
		s-2.067-4.747-0.995-6.966c0,0,1.607-2.533,0.535-5.859c-1.072-3.326-3.139-5.122,1.225-6.253
		C134.863,108.95,134.853,106.263,136.164,105.045z"/>
	<g>
		
			<linearGradient id="SVGID_9_" gradientUnits="userSpaceOnUse" x1="395.9657" y1="-314.272" x2="403.9579" y2="-314.272" gradientTransform="matrix(1 0 0 -1 -266 -195)">
			<stop  offset="0" style="stop-color:#3076A1"/>
			<stop  offset="1" style="stop-color:#639C38"/>
		</linearGradient>
		<path fill="url(#SVGID_9_)" d="M129.978,131.652c-0.011-0.478-0.242-11.723,1.861-13.616c2.148-1.934,2.561-5.35,2.615-7.213
			c0.072-2.429,3.21-3.871,3.344-3.931l0.159,0.353c-0.031,0.014-3.051,1.403-3.115,3.589c-0.069,2.352-0.601,5.563-2.743,7.49
			c-1.972,1.776-1.736,13.204-1.733,13.319L129.978,131.652z"/>
	</g>
	
		<linearGradient id="SVGID_10_" gradientUnits="userSpaceOnUse" x1="389.1027" y1="-328.6812" x2="403.8779" y2="-328.6812" gradientTransform="matrix(1 0 0 -1 -266 -195)">
		<stop  offset="0" style="stop-color:#FF9340"/>
		<stop  offset="1" style="stop-color:#FFCE45"/>
	</linearGradient>
	<polygon fill="url(#SVGID_10_)" points="137.878,127.063 134.388,140.299 126.591,140.299 123.103,127.063 	"/>
	
		<linearGradient id="SVGID_11_" gradientUnits="userSpaceOnUse" x1="389.1038" y1="-328.6818" x2="403.8779" y2="-328.6818" gradientTransform="matrix(1 0 0 -1 -266 -195)">
		<stop  offset="0" style="stop-color:#C97332"/>
		<stop  offset="1" style="stop-color:#FFCE45"/>
	</linearGradient>
	<path fill="url(#SVGID_11_)" d="M137.878,127.063c0,0-7.681,1.442-7.681,13.237h-3.605l-3.488-13.237H137.878z"/>
</g>
<g>
	<g>
		<g>
			<g>
				<path fill="#424773" d="M14.257,135.618c0,0-0.19,1.319-0.213,1.517c-0.023,0.198-2.115-0.117-2.115-0.117l-0.17-1.57
					C11.759,135.448,13.996,135.433,14.257,135.618z"/>
			</g>
		</g>
	</g>
	<g>
		<g>
			<g>
				<path fill="#292C47" d="M14.066,136.969c0,0,0.662,0.795,1.303,1.142c0.641,0.346,1.647,0.484,2.027,0.843
					c0.273,0.259,0.996,1.373-1.665,1.35c-2.661-0.022-3.944,0.158-4.228-0.27c-0.285-0.428,0.412-3.155,0.412-3.155
					S12.544,137.105,14.066,136.969z"/>
			</g>
		</g>
	</g>
	<g>
		<g>
			<g>
				<g>
					<path fill="#424773" d="M3.522,135.618c0,0-0.191,1.319-0.214,1.517c-0.023,0.198-2.115-0.117-2.115-0.117l-0.169-1.57
						C1.024,135.448,3.261,135.433,3.522,135.618z"/>
				</g>
			</g>
		</g>
		<g>
			<g>
				<g>
					<path fill="#292C47" d="M3.33,136.969c0,0,0.662,0.795,1.303,1.142c0.641,0.346,2.999,0.631,3.377,0.99
						c0.273,0.259,0.729,1.302-3.015,1.204c-2.66-0.07-3.944,0.158-4.229-0.27c-0.285-0.428,0.413-3.155,0.413-3.155
						S1.771,137.121,3.33,136.969z"/>
				</g>
			</g>
		</g>
		<g>
			<g>
				<rect x="31.749" y="92.473" fill="#1487E3" width="10.27" height="1.163"/>
			</g>
			<g>
				<path fill="#FF7E55" d="M4.115,88.168c0,0-0.464,6.52,0.81,7.301c0.799,0.489,3.98,2.138,3.886,2.447
					c-0.094,0.309-1.797,2.751-1.797,2.751s-6.113-4.025-6.309-5.293c-0.192-1.239,0.301-9.547,1.142-9.93
					c0.63-0.287,0.961-0.05,1.755,0.54C4.711,86.81,4.115,88.168,4.115,88.168z"/>
			</g>
			<g>
				<g>
					<g>
						<path fill="#292C47" d="M4.154,101.719c0,0-1.965,3.122-1.818,5.943c0.147,2.821-0.175,5.835-0.47,8.781
							c-0.329,3.285-1.225,10.123-1.274,11.88c-0.049,1.758,0.064,8.37,0.064,8.37l3.407-0.026c0,0,1.209-13.359,1.796-14.747
							c0.585-1.388,2.992-11.425,3.09-12.534C9.047,108.278,4.154,101.719,4.154,101.719z"/>
					</g>
				</g>
			</g>
			<g>
				<g>
					<g>
						<path fill="#292C47" d="M14.494,102.142c0,0,0.776,7.67,0.972,9.397c0.195,1.727,0.062,9.209,0.159,10.287
							c0.098,1.079-0.653,12.493-0.837,14.667l-3.745-0.023c0,0-0.259-9.233-0.259-13.719c0-4.487-1.152-9.709-2.47-12.668
							c-1.319-2.96-4.338-3.03-5.149-8.522C3.165,101.559,13.397,100.4,14.494,102.142z"/>
					</g>
				</g>
			</g>
			<g>
				<g>
					<g>
						<path fill="#EEA886" d="M6.229,75.404c0,0,2.34-1.564,3.984,0.111c1.644,1.675,2.451,5.613,1.272,6.398
							c-1.181,0.785-3.183,0.992-4.134-0.074c-0.951-1.066-1.965-2.693-2.215-3.88C4.887,76.772,5.635,75.904,6.229,75.404z"/>
					</g>
				</g>
			</g>
			<g>
				<g>
					<g>
						<path fill="#EEA886" d="M10.688,82.18c0,0-0.031,1.645,0.151,1.996c0.182,0.351-3.416,0.36-3.416,0.36
							s-0.292-1.908-0.846-3.519C6.024,79.405,10.688,82.18,10.688,82.18z"/>
					</g>
				</g>
			</g>
			<g>
				<g>
					<g>
						<path fill="#754836" d="M6.668,80.99c0,0,0.335,0.342,1.285-0.046c0.951-0.388,1.844-1.984,2.222-2.224
							c0.379-0.241,0.325-0.484,0.325-0.484l0.347,0.315l0.444-0.076c0,0-0.675-1.079-0.187-1.7c0.489-0.621-1.52-3.653-4.423-1.801
							c0,0-2.272,1.243-1.858,2.603C5.238,78.939,5.962,80.43,6.668,80.99z"/>
					</g>
				</g>
			</g>
			<g>
				<g>
					<g>
						<path fill="#E2D2CA" d="M11.053,84.134c0,0-0.011-0.67-0.315-0.734c-0.303-0.064-3.352-0.358-3.725-0.211v0.78
							C7.012,83.968,7.731,84.41,11.053,84.134z"/>
					</g>
				</g>
			</g>
			<g>
				<g>
					<g>
						<path fill="#EEA886" d="M10.316,77.749c-0.11-0.219-0.855-0.743-0.914,0.02c-0.059,0.763,0.733,1.583,1.031,1.427
							C10.729,79.039,10.595,78.303,10.316,77.749z"/>
					</g>
				</g>
			</g>
			<g>
				<g>
					<g>
						<path fill="#754836" d="M5.553,75.808c0,0-3.347,0.897,0.98,5.053L5.553,75.808z"/>
					</g>
				</g>
			</g>
			<g>
				<g>
					<path fill="#EEA886" d="M35.459,93.605l-3.411-0.031c0.294-0.171,0.771-0.48,0.665-0.62c-0.15-0.2-1.116,0.239-1.508,0.28
						c-0.36,0.037-0.964-0.01-1.422,0.158l-1.077,0.459l0.987,0.914c0,0,1.784,0.255,2.307,0.292c0.85,0.06,3.447-0.952,3.491-1.105
						C35.568,93.674,35.459,93.605,35.459,93.605z"/>
				</g>
			</g>
			<g>
				<g>
					<g>
						<path fill="#FF7E55" d="M15.506,85.062c-2.17-0.381-4.453-0.928-4.453-0.928l-4.04-0.165c0,0-3.708,0.816-5.168,1.476
							c-0.139,0.062-0.139,3.308-0.52,4.159l1.211,2.554c0,0,0.7,5.06,0.844,7.31c0.067,1.033-1.442,9.687-1.442,9.687
							s1.617,0.475,4.375,0.78c2.758,0.304,9.647-0.11,9.69-0.435c0.043-0.325-1.334-12.126-1.395-12.738
							c-0.093-0.938,0.271-5.272,0.271-5.272c0.52,0.697,3.524,3.315,4.99,4.147c1.043,0.592,3.602,0.23,4.356,0.153
							c1.631-0.167,6.137-0.49,6.226-0.65c0.07-0.096-0.259-1.739-0.448-1.801c-0.165-0.056-5.983-0.342-7.441-0.267
							c-0.592,0.031-2.523-2.126-2.523-2.126S16.702,85.6,15.506,85.062z"/>
					</g>
				</g>
			</g>
			<g>
				<polygon fill="#FFCB55" points="25.68,77.509 16.631,77.509 15.001,79.139 15.001,77.509 15.001,69.768 25.68,69.768 				"/>
			</g>
		</g>
	</g>
</g>
<linearGradient id="SVGID_12_" gradientUnits="userSpaceOnUse" x1="341.2998" y1="-297.2314" x2="341.2998" y2="-364.9175" gradientTransform="matrix(1 0 0 -1 -266 -195)">
	<stop  offset="0" style="stop-color:#40D5E6"/>
	<stop  offset="1" style="stop-color:#5577FF"/>
</linearGradient>
<polygon fill="url(#SVGID_12_)" points="130.22,106.574 75.3,106.574 20.379,106.574 8.359,151.502 75.66,151.502 142.24,151.502 
	"/>
<path fill="#FFFFFF" d="M24.535,114.457h6.749c0.282,0,0.495,0.22,0.442,0.456l-0.653,2.935c-0.04,0.181-0.227,0.312-0.442,0.312
	h-6.866c-0.288,0-0.502-0.228-0.44-0.468l0.769-2.935C24.141,114.581,24.323,114.457,24.535,114.457z"/>
<polygon fill="#FFFFFF" points="34.378,114.457 39.479,114.457 38.8,118.161 33.602,118.161 "/>
<polygon fill="#FFFFFF" points="42.031,114.457 47.132,114.457 46.599,118.161 41.399,118.165 "/>
<polygon fill="#FFFFFF" points="49.683,114.457 54.785,114.457 54.398,118.161 49.198,118.161 "/>
<polygon fill="#FFFFFF" points="57.336,114.457 62.438,114.457 62.195,118.161 56.996,118.161 "/>
<polygon fill="#FFFFFF" points="64.989,114.457 70.091,114.457 69.995,118.161 64.795,118.165 "/>
<polygon fill="#FFFFFF" points="126.229,114.457 118.576,114.457 119.401,118.161 127.199,118.161 "/>
<polygon fill="#FFFFFF" points="116.025,114.457 110.923,114.457 111.603,118.161 116.801,118.161 "/>
<polygon fill="#FFFFFF" points="108.372,114.457 103.27,114.457 103.803,118.161 109.004,118.165 "/>
<polygon fill="#FFFFFF" points="100.719,114.457 95.617,114.457 96.006,118.161 101.204,118.161 "/>
<polygon fill="#FFFFFF" points="93.067,114.457 87.964,114.457 88.207,118.161 93.406,118.161 "/>
<polygon fill="#FFFFFF" points="85.414,114.457 80.312,114.457 80.409,118.161 85.608,118.165 "/>
<polygon fill="#FFFFFF" points="72.642,114.457 77.744,114.457 77.828,118.161 72.642,118.161 "/>
<polygon fill="#FFFFFF" points="22.289,120.92 32.951,120.92 32.344,124.74 21.48,124.74 "/>
<polygon fill="#FFFFFF" points="127.893,120.92 114.714,120.92 115.466,124.74 128.894,124.74 "/>
<polygon fill="#FFFFFF" points="112.079,120.92 106.808,120.92 107.409,124.74 112.78,124.74 "/>
<polygon fill="#FFFFFF" points="104.173,120.92 98.902,120.92 99.352,124.74 104.724,124.74 "/>
<polygon fill="#FFFFFF" points="96.267,120.92 90.995,120.92 91.296,124.74 96.666,124.74 "/>
<polygon fill="#FFFFFF" points="88.359,120.92 83.088,120.92 83.238,124.74 88.609,124.74 "/>
<polygon fill="#FFFFFF" points="20.697,127.73 31.596,127.73 30.801,131.524 19.703,131.524 "/>
<polygon fill="#FFFFFF" points="34.322,127.73 39.77,127.73 39.125,131.524 33.575,131.524 "/>
<polygon fill="#FFFFFF" points="42.495,127.73 47.945,127.73 83.364,127.73 83.516,131.524 41.899,131.524 "/>
<polygon fill="#FFFFFF" points="86.092,127.73 91.541,127.73 91.84,131.524 86.29,131.524 "/>
<polygon fill="#FFFFFF" points="94.266,127.73 99.716,127.73 100.164,131.524 94.614,131.524 "/>
<polygon fill="#FFFFFF" points="102.44,127.73 107.89,127.73 108.486,131.524 102.938,131.524 "/>
<polygon fill="#FFFFFF" points="110.615,127.73 116.065,127.73 116.81,131.524 111.262,131.524 "/>
<polygon fill="#FFFFFF" points="118.789,127.73 129.688,127.73 130.682,131.524 119.584,131.524 "/>
<polygon fill="#FFFFFF" points="80.464,120.92 75.235,120.92 75.235,124.74 80.564,124.74 "/>
<polygon fill="#FFFFFF" points="72.557,120.92 67.286,120.92 67.136,124.74 72.507,124.74 "/>
<polygon fill="#FFFFFF" points="64.65,120.92 59.38,120.92 59.079,124.74 64.451,124.74 "/>
<polygon fill="#FFFFFF" points="56.744,120.92 51.472,120.92 51.021,124.74 56.393,124.74 "/>
<polygon fill="#FFFFFF" points="48.837,120.92 43.566,120.92 42.965,124.74 48.336,124.74 "/>
<polygon fill="#FFFFFF" points="40.929,120.92 35.659,120.92 34.908,124.74 40.28,124.74 "/>
<polygon fill="#FFFFFF" points="24.784,112.129 25.65,108.823 28.127,108.823 27.318,112.129 "/>
<polygon fill="#FFFFFF" points="30.604,108.823 35.558,108.823 34.866,112.129 29.825,112.129 "/>
<polygon fill="#FFFFFF" points="38.035,108.823 42.99,108.823 42.427,112.129 37.386,112.129 "/>
<polygon fill="#FFFFFF" points="45.467,108.823 50.421,108.823 49.989,112.129 44.948,112.129 "/>
<polygon fill="#FFFFFF" points="52.898,108.823 57.853,108.823 57.549,112.129 52.508,112.129 "/>
<polygon fill="#FFFFFF" points="60.33,108.823 65.283,108.823 65.111,112.129 60.07,112.129 "/>
<polygon fill="#FFFFFF" points="67.761,108.823 72.715,108.823 72.672,112.129 67.631,112.129 "/>
<polygon fill="#FFFFFF" points="75.192,108.823 80.148,108.823 80.233,112.129 75.192,112.129 "/>
<polygon fill="#FFFFFF" points="82.624,108.823 87.578,108.823 87.795,112.129 82.754,112.129 "/>
<polygon fill="#FFFFFF" points="90.055,108.823 95.01,108.823 95.357,112.129 90.316,112.129 "/>
<polygon fill="#FFFFFF" points="97.487,108.823 102.441,108.823 102.918,112.129 97.877,112.129 "/>
<polygon fill="#FFFFFF" points="104.918,108.823 109.873,108.823 110.48,112.129 105.439,112.129 "/>
<polygon fill="#FFFFFF" points="112.35,108.823 117.304,108.823 118.041,112.129 113,112.129 "/>
<polygon fill="#FFFFFF" points="119.782,108.823 124.735,108.823 125.602,112.129 120.561,112.129 "/>
<linearGradient id="SVGID_13_" gradientUnits="userSpaceOnUse" x1="212.3066" y1="-348.2508" x2="346.1886" y2="-348.2508" gradientTransform="matrix(1 0 0 -1 -266 -195)">
	<stop  offset="0" style="stop-color:#40D5E6"/>
	<stop  offset="1" style="stop-color:#5577FF"/>
</linearGradient>
<path fill="url(#SVGID_13_)" d="M138.743,155H11.857c-1.931,0-3.497-1.566-3.497-3.498l0,0h133.882l0,0
	C142.24,153.434,140.674,155,138.743,155z"/>
<path fill="#4D78EB" d="M90.864,136.984c-0.131-0.791-0.815-1.37-1.617-1.37H75.3H61.352c-0.802,0-1.485,0.58-1.616,1.37
	l-1.743,10.545c-0.165,0.998,0.605,1.905,1.616,1.905H75.3h15.689c1.012,0,1.781-0.907,1.617-1.905L90.864,136.984z"/>
<g>
	<g>
		<rect x="31.106" y="46.233" fill="#E0E0E0" width="11.355" height="1.163"/>
	</g>
	<g>
		<rect x="45.638" y="54.986" fill="#E0E0E0" width="8.197" height="1.163"/>
	</g>
	<g>
		<rect x="55.114" y="54.986" fill="#1487E3" width="5.44" height="1.163"/>
	</g>
	<g>
		<rect x="31.235" y="77" fill="#1487E3" width="5.44" height="1.163"/>
	</g>
	<g>
		<rect x="61.629" y="54.986" fill="#E0E0E0" width="13.135" height="1.163"/>
	</g>
	<g>
		<rect x="31.235" y="72.591" fill="#E0E0E0" width="8.439" height="1.163"/>
	</g>
	<g>
		<rect x="43.001" y="81.378" fill="#E0E0E0" width="5.152" height="1.163"/>
	</g>
	<g>
		<rect x="31.235" y="81.378" fill="#1487E3" width="10.208" height="1.163"/>
	</g>
	<g>
		<rect x="31.235" y="85.755" fill="#E0E0E0" width="5.631" height="1.163"/>
	</g>
	<g>
		<rect x="44.67" y="46.233" fill="#78C2FF" width="8.061" height="1.163"/>
	</g>
	<g>
		<rect x="44.67" y="59.363" fill="#1487E3" width="8.061" height="1.163"/>
	</g>
	<g>
		<rect x="40.64" y="63.741" fill="#E0E0E0" width="3.444" height="1.163"/>
	</g>
	<g>
		<rect x="37.196" y="68.182" fill="#78C2FF" width="7.736" height="1.163"/>
	</g>
	<g>
		<rect x="46.1" y="68.182" fill="#1487E3" width="10.679" height="1.163"/>
	</g>
	<g>
		<rect x="31.235" y="63.773" fill="#1487E3" width="8.061" height="1.163"/>
	</g>
	<g>
		<rect x="31.235" y="68.182" fill="#1487E3" width="4.783" height="1.163"/>
	</g>
	<g>
		<rect x="45.707" y="63.773" fill="#FF8761" width="4.512" height="1.163"/>
	</g>
	<g>
		<rect x="31.371" y="90.132" fill="#FF8761" width="4.512" height="1.163"/>
	</g>
	<g>
		<rect x="31.203" y="54.986" fill="#78C2FF" width="8.06" height="1.163"/>
	</g>
	<g>
		<rect x="38.332" y="77" fill="#78C2FF" width="8.061" height="1.163"/>
	</g>
	<g>
		<rect x="38.431" y="85.755" fill="#78C2FF" width="8.06" height="1.163"/>
	</g>
	<g>
		<rect x="52.749" y="85.755" fill="#78C2FF" width="8.06" height="1.163"/>
	</g>
	<g>
		<rect x="31.203" y="59.363" fill="#78C2FF" width="11.49" height="1.163"/>
	</g>
	<g>
		<rect x="85.046" y="46.233" fill="#78C2FF" width="8.06" height="1.163"/>
	</g>
	<g>
		<rect x="56.332" y="90.132" fill="#78C2FF" width="8.061" height="1.163"/>
	</g>
	<g>
		<rect x="95.614" y="46.233" fill="#78C2FF" width="5.396" height="1.163"/>
	</g>
	<g>
		<rect x="113.869" y="50.61" fill="#78C2FF" width="5.395" height="1.163"/>
	</g>
	<g>
		<rect x="54.901" y="46.233" fill="#1487E3" width="10.27" height="1.163"/>
	</g>
	<g>
		<rect x="94.913" y="50.61" fill="#1487E3" width="10.27" height="1.163"/>
	</g>
	<g>
		<rect x="82.318" y="54.986" fill="#1487E3" width="10.27" height="1.163"/>
	</g>
	<g>
		<rect x="68.947" y="59.363" fill="#1487E3" width="10.27" height="1.163"/>
	</g>
	<g>
		<rect x="93.879" y="54.986" fill="#78C2FF" width="7.3" height="1.163"/>
	</g>
	<g>
		<rect x="72.764" y="46.233" fill="#FF8761" width="10.27" height="1.163"/>
	</g>
	<g>
		<rect x="61.047" y="59.363" fill="#FF8761" width="6.022" height="1.163"/>
	</g>
	<g>
		<rect x="56.332" y="77.066" fill="#FF8761" width="6.022" height="1.163"/>
	</g>
	<g>
		<rect x="67.068" y="46.233" fill="#E0E0E0" width="3.759" height="1.163"/>
	</g>
	<g>
		<rect x="54.901" y="59.363" fill="#E0E0E0" width="3.758" height="1.163"/>
	</g>
	<g>
		<rect x="107.658" y="50.61" fill="#E0E0E0" width="3.759" height="1.163"/>
	</g>
	<g>
		<rect x="31.106" y="50.61" fill="#1487E3" width="5.881" height="1.163"/>
	</g>
	<g>
		<rect x="46.798" y="72.624" fill="#1487E3" width="4.642" height="1.163"/>
	</g>
	<g>
		<rect x="38.431" y="50.61" fill="#1487E3" width="1.898" height="1.163"/>
	</g>
	<g>
		<rect x="77.412" y="50.61" fill="#E0E0E0" width="15.695" height="1.163"/>
	</g>
	<g>
		<rect x="62.353" y="85.755" fill="#E0E0E0" width="15.695" height="1.163"/>
	</g>
	<g>
		<rect x="41.725" y="50.61" fill="#FF8761" width="1.937" height="1.163"/>
	</g>
	<g>
		<rect x="70.828" y="50.61" fill="#1487E3" width="5.134" height="1.163"/>
	</g>
	<g>
		<rect x="75.962" y="54.986" fill="#FF8761" width="5.134" height="1.163"/>
	</g>
	<g>
		<rect x="49.559" y="90.132" fill="#FF8761" width="5.134" height="1.163"/>
	</g>
	<g>
		<rect x="58.543" y="50.61" fill="#1487E3" width="10.925" height="1.163"/>
	</g>
	<g>
		<rect x="48.374" y="77.066" fill="#1487E3" width="6.383" height="1.163"/>
	</g>
	<g>
		<rect x="47.963" y="85.755" fill="#1487E3" width="3.192" height="1.163"/>
	</g>
	<g>
		<rect x="53.234" y="50.61" fill="#78C2FF" width="3.759" height="1.163"/>
	</g>
	<g>
		<rect x="40.582" y="54.986" fill="#FF8761" width="3.758" height="1.163"/>
	</g>
	<g>
		<rect x="41.33" y="72.624" fill="#FF8761" width="3.758" height="1.163"/>
	</g>
	<g>
		<rect x="45.251" y="50.61" fill="#1487E3" width="6.549" height="1.163"/>
	</g>
</g>
<g opacity="0.76">
	<path fill="#FFFFFF" d="M141.146,97.004H93.652c-0.901,0-1.631-0.731-1.631-1.631V62.449c0-0.901,0.73-1.631,1.631-1.631h47.494
		c0.901,0,1.631,0.731,1.631,1.631v32.923C142.778,96.275,142.047,97.004,141.146,97.004z"/>
</g>
<g>
	<g>
		<path fill="#4AAFFF" d="M137.297,81.956h-8.177c-0.346,0-0.626-0.28-0.626-0.625v-1.263c0-0.345,0.28-0.625,0.626-0.625h8.177
			c0.346,0,0.626,0.28,0.626,0.625v1.263C137.923,81.676,137.642,81.956,137.297,81.956z"/>
	</g>
</g>
<g>
	<g>
		<path fill="#4AAFFF" d="M137.297,86.664h-8.177c-0.346,0-0.626-0.28-0.626-0.625v-1.263c0-0.345,0.28-0.625,0.626-0.625h8.177
			c0.346,0,0.626,0.28,0.626,0.625v1.263C137.923,86.384,137.642,86.664,137.297,86.664z"/>
	</g>
</g>
<g>
	<g>
		<path fill="#4AAFFF" d="M137.297,91.371h-8.177c-0.346,0-0.626-0.28-0.626-0.625v-1.263c0-0.346,0.28-0.626,0.626-0.626h8.177
			c0.346,0,0.626,0.28,0.626,0.626v1.263C137.923,91.091,137.642,91.371,137.297,91.371z"/>
	</g>
</g>
<g>
	<g>
		<g>
			<path fill="#4AAFFF" d="M123.935,73.833c-2.098-5.865-7.703-9.468-13.61-9.289c-1.43,0.043-2.878,0.308-4.298,0.815
				c-4.304,1.539-7.389,4.967-8.657,9.016c-0.878,2.806-0.884,5.911,0.182,8.894c0.106,0.297,0.221,0.587,0.344,0.873
				c0.561,1.292,1.297,2.46,2.171,3.487c3.666,4.31,9.75,6.132,15.393,4.114C122.746,89.137,126.54,81.118,123.935,73.833z
				 M114.28,88.44c-4.231,1.514-8.791,0.148-11.54-3.084c-0.655-0.77-1.207-1.646-1.628-2.615c-0.093-0.213-0.179-0.432-0.259-0.655
				c-0.8-2.236-0.795-4.564-0.137-6.667c0.951-3.036,3.263-5.606,6.489-6.76c1.065-0.381,2.151-0.579,3.223-0.612
				c4.429-0.133,8.631,2.568,10.204,6.964C122.587,80.475,119.742,86.487,114.28,88.44z"/>
		</g>
	</g>
	<g>
		<g>
			<path fill="#1A598C" d="M100.717,75.42l-3.347-1.045c1.268-4.049,4.353-7.476,8.657-9.016c1.42-0.508,2.869-0.772,4.298-0.815
				l0.104,3.505c-1.072,0.032-2.158,0.231-3.223,0.612C103.98,69.814,101.666,72.384,100.717,75.42z"/>
		</g>
	</g>
	<g>
		<g>
			<path fill="#2273B5" d="M101.112,82.742l-3.215,1.399c-0.123-0.285-0.239-0.576-0.344-0.873
				c-1.066-2.982-1.061-6.087-0.182-8.894l3.347,1.045c-0.659,2.103-0.663,4.431,0.137,6.667
				C100.932,82.31,101.019,82.529,101.112,82.742z"/>
		</g>
	</g>
	<g>
		<g>
			<path fill="#3788CC" d="M100.068,87.629c-0.874-1.027-1.61-2.196-2.171-3.487l3.215-1.399c0.42,0.97,0.973,1.845,1.628,2.615
				L100.068,87.629z"/>
		</g>
	</g>
</g>
<g>
	<g>
		<g>
			<path fill="#EEA886" d="M115.42,86.86c0,0-0.679-1.187,0.398-4.37c1.041-3.079,4.643-2.799,5.788-0.827
				c1.145,1.971,0.759,3.197-0.927,5.423C118.992,89.312,116.119,87.877,115.42,86.86z"/>
		</g>
	</g>
	<g>
		<g>
			<path fill="#EEA886" d="M123.789,141.619c0,0,0.178,1.307,0.201,1.504c0.022,0.195,1.984-0.116,1.984-0.116l0.159-1.556
				C126.131,141.451,124.033,141.435,123.789,141.619z"/>
		</g>
	</g>
	<g>
		<g>
			<path fill="#414773" d="M123.968,142.957c0,0-0.622,0.787-1.222,1.131c-0.601,0.343-1.545,0.48-1.9,0.835
				c-0.257,0.257-0.934,1.362,1.561,1.338c2.495-0.022,3.699,0.157,3.967-0.267c0.268-0.424-0.386-3.125-0.386-3.125
				S125.376,143.04,123.968,142.957z"/>
		</g>
	</g>
	<g>
		<g>
			<path fill="#EEA886" d="M110.21,141.619c0,0,0.179,1.307,0.201,1.504c0.022,0.195,1.984-0.116,1.984-0.116l0.159-1.556
				C112.552,141.451,110.455,141.435,110.21,141.619z"/>
		</g>
	</g>
	<g>
		<g>
			<path fill="#414773" d="M110.39,142.957c0,0-0.622,0.787-1.223,1.131c-0.601,0.343-2.813,0.625-3.167,0.981
				c-0.257,0.257-0.683,1.289,2.829,1.193c2.495-0.069,3.699,0.157,3.967-0.267c0.268-0.424-0.386-3.125-0.386-3.125
				S111.633,143.006,110.39,142.957z"/>
		</g>
	</g>
	<g>
		<g>
			<path fill="#2D314F" d="M123.128,109.073c0,0,1.005,3.124,0.873,5.817c-0.132,2.693,0.52,5.64,0.786,8.453
				c0.298,3.135,1.514,10.559,1.558,12.238c0.044,1.677-0.189,7.034-0.189,7.034l-2.436,0.059c0,0-2.046-12.978-2.575-14.303
				c-0.53-1.324-3.157-10.766-3.245-11.826C117.813,115.484,123.128,109.073,123.128,109.073z"/>
		</g>
	</g>
	<g>
		<g>
			<path fill="#2D314F" d="M113.031,108.748c0,0-1.478,8.262-1.656,9.91c-0.177,1.648-0.294,7.975-0.382,9.006
				c-0.088,1.03-0.589,13.479-1.06,15.01h2.715c0,0,2.788-9.05,2.788-13.331s1.846-9.309,3.037-12.134
				c1.192-2.825,3.92-2.892,4.653-8.134C123.128,109.073,114.023,107.085,113.031,108.748z"/>
		</g>
	</g>
	<g>
		<g>
			<path fill="#EEA886" d="M116.405,87.7c0,0,0.307,0.892,0,1.528c-0.307,0.635,3.914,0.254,3.914,0.254s-0.191-1.315,0.361-2.397
				C121.23,86.005,116.405,87.7,116.405,87.7z"/>
		</g>
	</g>
	<g>
		<g>
			<path fill="#2B3B57" d="M123.324,109.754c0,0-1.518,1.559-10.429-0.243l0.137-0.763l10.131,0.382L123.324,109.754z"/>
		</g>
	</g>
	<g>
		<g>
			<path fill="#EEA886" d="M115.766,89.434c0,0-1.558,0.159-2.003,0.244c-0.445,0.084-3.443-0.536-4.058-0.6
				s-3.237-1.86-3.322-2.072c-0.084-0.212-1.595-4.036-1.68-4.863c-0.084-0.827-1.472-0.4-1.353,0.17
				c0.222,1.066,0.508,3.654,0.664,4.405c0.169,0.81,0.622,2.644,0.876,2.87c0.254,0.225,2.615,2.021,4.927,2.785
				c2.312,0.763,4.051,1.888,4.051,1.888h11.391c0,0,4.431-6.334,4.526-7.288c0.096-0.954-3.095-7.297-3.73-8.092
				c-0.636-0.795-1.556,0.26-1.556,0.26s1.906,5.594,2.16,6.389c0.254,0.795-2.217,4.289-2.896,4.3
				c-0.679,0.011-2.421-0.212-3.195-0.244c-0.774-0.032-1.59-0.371-1.59-0.371L115.766,89.434z"/>
		</g>
	</g>
	<g>
		<g>
			<path fill="#FFC655" d="M110.856,93.665c0,0,1.395,0.927,1.523,2.518c0.127,1.59,0.636,4.104,0.891,4.962
				c0.254,0.86-0.222,7.093-0.287,7.539c-0.063,0.445,8.815,1.504,10.179,0.445c0,0,0.382-5.822,0.541-7.475
				c0.159-1.654,0.922-5.662,1.177-6.203c0.254-0.541,3.34-4.869,3.467-5.44c0,0-1.596-2.544-2.741-2.577
				c0,0-1.818,2.131-2.411,2.227c-0.593,0.096-4.228-0.571-4.228-0.576c0,0-0.396,0.541-2.505-0.096c0,0-2.512,0.283-2.92,0.335
				c-0.495,0.063-3.934-0.431-3.934-0.431s-1.379,2.33-1.138,3.506L110.856,93.665z"/>
		</g>
	</g>
	<g>
		<g>
			<path fill="#EEA886" d="M104.781,82.64c0,0-0.311-1.474,0.064-1.898c0.213-0.241,0.726-0.878,0.773-0.973
				c0.047-0.093,0.597-0.41,0.597-0.563c0-0.152-0.539-0.34-1.007,0.094c-0.469,0.433-0.762,0.528-0.948,0.48
				c-0.188-0.047-0.458-1.605-0.481-1.991c-0.023-0.386-0.172-1.406-0.414-1.336c-0.242,0.07-0.23,0.515-0.23,0.515
				s-0.281-0.774-0.469-0.621c-0.188,0.152-0.164,0.528-0.164,0.528s-0.352-0.434-0.445-0.118c-0.093,0.317,0,0.597,0,0.597
				s-0.363-0.199-0.386,0.293c-0.023,0.492,0.106,1.934,0.363,2.449c0.258,0.515,1.223,1.864,1.337,2.39
				C103.486,83.015,104.781,82.64,104.781,82.64z"/>
		</g>
	</g>
	<g>
		<g>
			<path fill="#EEA886" d="M124.81,80.051c0,0-1.059-1.781-1.42-1.941c-0.36-0.159-0.87-0.249-1.315-0.568
				c-0.445-0.318-1.034-0.583-1.002-0.689c0.032-0.106,0.556-0.064,1.118,0.18c0.562,0.243,0.809,0.125,0.862-0.001
				c0.053-0.128-0.299-1.026-0.469-1.237c-0.17-0.212-1.378-1.428-1.177-1.608c0.202-0.18,0.986,0.488,1.114,0.625
				c0,0-0.625-1.314-0.382-1.378c0.243-0.064,0.7,0.403,0.7,0.403s-0.052-1.124,1.156,0.7c0,0-0.254-0.604,0.117-0.403
				c0.371,0.201,0.732,1.336,0.848,1.909c0.117,0.572,0.645,2.397,1.097,2.836C126.507,79.319,124.81,80.051,124.81,80.051z"/>
		</g>
	</g>
	<g>
		<g>
			<path fill="#353A3D" d="M120.678,87.086c0,0-0.559,0.05-1.746-0.36c-1.187-0.41-1.276-2.487-1.533-2.241
				c-0.524,0.502-1.02,0.155-1.217-0.142c0,0,0.58-0.763,0.311-1.131c-0.269-0.368-0.706-0.635-0.706-0.635s0.835-4.026,4.637-2.191
				C124.877,82.534,120.678,87.086,120.678,87.086z"/>
		</g>
	</g>
	<g>
		<g>
			<path fill="#D4D8E8" d="M116.405,89.228l0.133-0.582c0,0,2.427-0.049,3.749,0.142l0.14,0.695
				C120.427,89.484,118.733,90.253,116.405,89.228z"/>
		</g>
	</g>
	<g>
		<g>
			<path fill="#EEA886" d="M117.003,83.976c0.22-0.365,1.035-0.613,1.131,0.424c0.074,0.804-1.456,1.683-1.47,0.933
				C116.649,84.583,116.857,84.219,117.003,83.976z"/>
		</g>
	</g>
	<g>
		<g>
			<path fill="#E55353" d="M104.724,82.306c0,0-0.875,0.021-1.3,0.404c0,0-0.028,0.243,0.071,0.435c0,0,0.759-0.354,1.34-0.42
				C104.836,82.725,104.826,82.407,104.724,82.306z"/>
		</g>
	</g>
	<g>
		<g>
			<circle fill="#353A3D" cx="104.038" cy="82.67" r="0.376"/>
		</g>
	</g>
</g>
<g>
	<g>
		<g>
			<path fill="#6069A8" d="M82.191,51.415c0,0,1.252,2.121,1.779,2.468c0.717,0.47,0.268,0.946-0.072,0.946
				c-0.341,0-2.08,0.124-2.463-0.31c-0.383-0.435-0.573-1.738-0.93-2.079c-0.356-0.341-0.724-1.696,0.173-2.025
				C81.474,50.123,82.191,51.415,82.191,51.415z"/>
		</g>
	</g>
</g>
<g>
	<g>
		<g>
			<path fill="#202338" d="M81.65,50.482c0,0,1.433,2.484,1.679,2.851c0.247,0.366-0.465,0.366-0.906,0.192
				c-0.441-0.174-1.55-1.956-1.71-2.28c-0.19-0.388-0.034-0.831-0.034-0.831L81.65,50.482z"/>
		</g>
	</g>
</g>
<g>
	<g>
		<g>
			<polygon fill="#6069A8" points="80.198,51.819 80.528,54.366 80.704,54.373 80.65,52.541 			"/>
		</g>
	</g>
</g>
<g>
	<g>
		<g>
			<path fill="#6069A8" d="M69.784,51.415c0,0,1.252,2.121,1.779,2.468c0.717,0.47,0.269,0.946-0.072,0.946s-2.08,0.124-2.463-0.31
				c-0.383-0.435-0.573-1.738-0.93-2.079c-0.356-0.341-0.736-1.731,0.173-2.025C69.069,50.156,69.784,51.415,69.784,51.415z"/>
		</g>
	</g>
</g>
<g>
	<g>
		<g>
			<path fill="#202338" d="M69.317,50.487c0,0,1.358,2.479,1.605,2.845c0.247,0.366-0.465,0.366-0.906,0.192s-1.551-1.956-1.71-2.28
				c-0.19-0.388-0.034-0.831-0.034-0.831L69.317,50.487z"/>
		</g>
	</g>
</g>
<g>
	<g>
		<g>
			<polygon fill="#6069A8" points="67.79,51.819 68.121,54.366 68.296,54.373 68.242,52.541 			"/>
		</g>
	</g>
</g>
<g>
	<g>
		<g>
			<path fill="#202338" d="M64.233,32.113l11.322,5.159c0,0,1.264,0.411,1.406,1.815c0.442,4.38,3.718,11.329,3.718,11.329
				c1.052,0.514,0.971,0.068,0.971,0.068c-0.662-2.127-1.469-10.891-1.757-14.415c-0.061-0.746-0.099-1.257-0.107-1.42
				c-0.006-0.111-0.127-0.257-0.337-0.426c-1.554-1.259-7.946-3.868-7.946-3.868C66.703,30.229,64.233,32.113,64.233,32.113z"/>
		</g>
	</g>
</g>
<g>
	<g>
		<g>
			<path fill="#202338" d="M62.098,34.327c0.35,3.061,4.719,2.71,4.719,2.71h5.294c0,0-1.39,3.095-1.928,5.705
				c-0.57,2.77-1.914,7.672-1.914,7.672s0.088,0.167,1.045,0.073c0,0,4.156-8.284,5.747-10.366c0.342-0.448,1.323-2.881,1.492-4.331
				c0.057-0.489,0.022-0.865-0.16-1.018c-0.184-0.153-0.606-0.444-1.169-0.799c-1.659-1.046-4.539-2.655-6.144-3.016
				c-2.149-0.483-5.548-1.388-5.548-1.388S61.748,31.268,62.098,34.327z"/>
		</g>
	</g>
</g>
<g>
	<path fill="#464240" d="M65.702,10.755c0,0-0.793-1.505-0.406-3.106c0.386-1.603,1.872-3.198,4.05-2.465
		c2.177,0.733,3.936,2.424,2.632,4.379c-1.305,1.955,1.181,2.839,0.548,3.768c-0.633,0.931-0.393,1.901-0.125,2.118
		c0.269,0.217,1.133,0.988,1.038,1.901c-0.096,0.913-4.224-2.663-4.224-2.663S66.966,10.171,65.702,10.755z"/>
</g>
<g>
	<path fill="#EB4747" d="M72.337,29.985c0,0-0.328,1.593-8.784-0.419C63.553,29.566,66.387,28.624,72.337,29.985z"/>
</g>
<g>
	<g>
		<path fill="#325BB3" d="M63.457,30.014c-0.131,0.25-0.262,0.501-0.393,0.751c3.091,0.09,6.183,0.18,9.273,0.27
			c-0.489-1.637-0.33-3.855-0.244-5.537c0.104-2.056,1.239-3.485,1.119-5.564c0.612,0.099,0.717,0.118,1.329,0.211
			c-0.937-2.669-1.257-3.99-4.167-5.018c-0.947-0.334-1.569-0.401-2.595-0.317c-3.37,0.278-4.387,0.318-6.042,3.371
			c2.591,0.412,2.165,1.343,2.95,3.92c0.383,1.257,0.783,2.66,0.577,3.985C65.064,27.392,63.457,28.823,63.457,30.014z"/>
	</g>
</g>
<g>
	<g>
		<path fill="#EEA886" d="M68.835,15.773c-1.379-0.261-1.086-1.027-1.086-1.027s0.064-0.433,0.089-0.981
			c0.007-0.14,0.01-0.288,0.009-0.438c0-0.228-0.011-0.46-0.038-0.679c-0.113-0.925,2.503-0.373,2.503-0.373
			s-0.151,1.872,0.21,2.434C70.883,15.272,70.214,16.034,68.835,15.773z"/>
	</g>
</g>
<g>
	<g>
		<path fill="#EEA886" d="M66.204,14.741c0,0,2.782,3.212,3.81,3.957c0,0,1.182-1.067,0.453-3.887
			C70.468,14.81,69.124,14.138,66.204,14.741z"/>
	</g>
</g>
<g>
	<path fill="#EEA886" d="M66.28,7.01c0,0-1.445,2.783-0.012,5.421c1.434,2.637,4.248-1.148,4.43-1.593s1.147-2.956-0.772-3.719
		C68.006,6.355,66.688,6.254,66.28,7.01z"/>
</g>
<g>
	<path fill="#464240" d="M66.759,7.998c0,0-0.994,1.306-1.113,2.271c0,0-0.396-1.825,0.723-3.578
		c1.119-1.754,3.966-0.083,4.347,0.617c0.381,0.701,1.498,1.317-0.379,4.328C70.34,11.636,66.964,9.29,66.759,7.998z"/>
</g>
<g>
	<path fill="#A77860" d="M69.068,12.708c0,0-0.251,0.548-1.231,1.057c0.007-0.14,0.01-0.288,0.009-0.438
		C67.847,13.328,68.511,13.247,69.068,12.708z"/>
</g>
<g>
	<path fill="#EEA886" d="M54.467,27.508c0,0-0.686,0.305-1.013,0.167c-0.325-0.139-0.828-0.165-0.987-0.165
		c-0.212,0-0.877-0.238-0.866,0.022c0.012,0.26,1.079,0.441,1.298,0.522c0.219,0.081-0.654,0.561-0.735,0.774
		c-0.081,0.213,0.904,1.614,1.459,1.215c0.555-0.399,0.856-1.195,0.97-1.246c0.113-0.051,0.418-0.274,0.418-0.274L54.467,27.508z"/>
</g>
<g>
	<path fill="#EEA886" d="M52.27,28.704c0,0-1.61,1.335-1.636,1.516c-0.026,0.181,0.06,0.265,0.215,0.147
		c0.155-0.119,1.597-1.245,1.597-1.245s-1.614,1.906-1.668,2.048c-0.032,0.083,0.123,0.255,0.213,0.2
		c0.09-0.056,1.806-1.85,1.806-1.85s-1.504,1.782-1.512,1.916c-0.007,0.117,0.173,0.242,0.295,0.118
		c0.121-0.124,1.617-1.697,1.617-1.697s-1.005,1.368-0.944,1.489c0.038,0.073,0.165,0.229,0.413-0.133
		c0.248-0.362,0.927-1.151,0.927-1.151L52.27,28.704z"/>
</g>
<g>
	<g>
		<path fill="#FF7E55" d="M71.56,37.038h-4.742c0,0-4.369,0.35-4.719-2.71c-0.351-3.061,1.436-4.76,1.436-4.76
			s2.308,0.614,4.322,1.101c1.008-0.214,2.225-0.353,3.644-0.318c0,0,8.542,2.822,8.284,4.308
			C79.787,34.659,76.214,32.749,71.56,37.038z"/>
	</g>
</g>
<g>
	<polygon fill="#5E5853" points="68.473,31.739 77.514,31.605 72.95,33.923 	"/>
</g>
<g>
	<path fill="#325BB3" d="M71.282,30.584c0,0-2.035,0.787-4.527,0.076l-0.117-0.931l5.133,0.285L71.282,30.584z"/>
</g>
<g>
	<polygon fill="#91887F" points="72.95,33.923 68.473,32.189 68.473,31.739 73.304,33.481 	"/>
</g>
<g>
	<g>
		<path fill="#EDDAD3" d="M71.251,31.014c-0.023,0.334,0.314,0.575,0.622,0.443l0.524-0.224c0.158-0.068,0.25-0.233,0.222-0.403
			c-0.219-1.367-0.687-6.691-0.001-7.604c0.253-0.338,0.411-0.633,0.5-0.892c0.453,1.166,1.016,2.67,1.239,3.478l4.271,5.683
			l1.433,0.363c-1.788-4.307-3.223-6.588-3.223-6.588c-0.28-0.751-1.082-3.023-1.791-5.046c-0.449-1.278-0.86-2.457-1.081-3.09
			c-0.112-0.321-0.333-0.592-0.625-0.766c-0.662-0.395-1.764-1.018-2.764-1.504c-0.004-0.002-0.008-0.003-0.012-0.006
			c-0.032-0.016-0.064-0.031-0.096-0.047c-0.001,0-0.001-0.001-0.002-0.001l0,0c1.9,2.876,1.159,10.998,0.784,16.192
			C71.252,31.007,71.251,31.01,71.251,31.014z"/>
	</g>
	<g>
		<path fill="#EDDAD3" d="M64.194,15.055c-0.609,0.094-2.119,1.56-2.921,3.04c-0.915,1.689-1.847,3.611-2.544,4.244
			c-1.284,1.163-4.878,5.274-5.048,5.174c-0.066-0.038,0.985,1.227,1.119,1.286c0.067,0.03,5.906-5.03,6.467-5.802
			c0.532-0.731,1.954-3.798,2.379-3.73c0,0,0,0.001,0.001,0.002c0,0,0,0.001,0.001,0.001c0.032,0.07,0.549,1.192,1.04,2.831
			c0.008,0.028,0.016,0.054,0.024,0.082c0.338,1.143,0.307,2.384,0.123,3.779c-0.138,1.053-0.924,2.774-1.398,3.612
			c-0.057,0.101-0.042,0.292,0.019,0.439l0,0c0.037,0.087,0.09,0.158,0.155,0.181l1.715,0.635l0.403,0.149
			c0.29,0.108,0.594,0.051,0.822-0.113c0.187-0.135,0.321-0.344,0.354-0.595c0.381-2.932,0.863-5.928,1.248-7.057
			c1.687-4.952-0.659-8.673-0.659-8.673S64.728,14.857,64.194,15.055z"/>
	</g>
</g>
<g>
	<polygon fill="#6E6760" points="72.95,33.923 75.64,26.581 84.309,26.722 81.746,33.489 	"/>
</g>
<g>
	
		<ellipse transform="matrix(-0.4474 0.8943 -0.8943 -0.4474 141.4226 -27.0604)" fill="#807066" cx="79.071" cy="30.161" rx="1.071" ry="0.735"/>
</g>
<g>
	<path fill="#464240" d="M69.274,9.782c0,0,0.555,0.864,0.042,1.61c-0.513,0.745,0.129,1.478,0.241,2.267
		c0.111,0.789-2.141,2.886,0.364,3.941s3.303-0.689,2.663-1.649c-0.639-0.96-1.093-1.739-1.147-3.107
		C71.384,11.474,70.933,9.34,69.274,9.782z"/>
</g>
<g>
	<polygon fill="#78C2FF" points="52.188,4.557 61.804,4.557 61.804,11.526 61.804,12.994 60.336,11.526 52.188,11.526 	"/>
</g>
<g>
	<g>
		<polygon fill="#78C2FF" points="136.391,79.055 116.85,79.055 116.85,78.706 136.042,78.706 136.042,67.36 136.391,67.36 		"/>
	</g>
	<g>
		<g>
			<g>
				<path fill="#6AAFE8" d="M133.037,55.139h-9.343v-9.343h9.343V55.139z M124.006,54.828h8.72v-8.72h-8.72
					C124.006,46.108,124.006,54.828,124.006,54.828z"/>
			</g>
			<g>
				<path fill="#6AAFE8" d="M156.289,49.222h-21.384v-2.284h21.384V49.222z M135.216,48.911h20.761V47.25h-20.761V48.911z"/>
			</g>
			<g>
				<path fill="#6AAFE8" d="M156.289,59.843h-32.595v-2.284h32.595V59.843z M124.006,59.531h31.972V57.87h-31.972
					C124.006,57.87,124.006,59.531,124.006,59.531z"/>
			</g>
			<g>
				<path fill="#6AAFE8" d="M144.455,64.229h-20.761v-2.284h20.761V64.229z M124.006,63.917h20.138v-1.661h-20.138
					C124.006,62.256,124.006,63.917,124.006,63.917z"/>
			</g>
			<g>
				<path fill="#6AAFE8" d="M149.386,53.579h-14.481v-2.284h14.481V53.579z M135.216,53.267h13.858v-1.661h-13.858V53.267z"/>
			</g>
		</g>
		<g>
			<path fill="#6AAFE8" d="M160,69.195h-40.017V40.83H160V69.195z M120.295,68.884h39.394V41.142h-39.394V68.884z"/>
		</g>
	</g>
	<g>
		<path fill="#78C2FF" d="M136.216,67.594c-0.706,0-1.282-0.575-1.282-1.282s0.575-1.281,1.282-1.281
			c0.706,0,1.281,0.575,1.281,1.281C137.498,67.019,136.923,67.594,136.216,67.594z M136.216,65.38
			c-0.514,0-0.933,0.418-0.933,0.933s0.419,0.933,0.933,0.933c0.514,0,0.933-0.418,0.933-0.933S136.73,65.38,136.216,65.38z"/>
	</g>
</g>
<g>
	<g>
		<path fill="#6AAFE8" d="M23.344,52.54H0l0.041-0.208c0.375-1.923,2.072-3.319,4.034-3.319c0.283,0,0.566,0.029,0.841,0.088
			c1.216-2.311,3.579-3.741,6.199-3.741c2.233,0,4.338,1.072,5.657,2.873c0.481-0.146,0.981-0.22,1.488-0.22
			c2.54,0,4.665,1.819,5.052,4.326L23.344,52.54z M0.43,52.191h22.502c-0.439-2.197-2.412-3.829-4.672-3.829
			c-0.513,0-1.018,0.081-1.501,0.242l-0.123,0.041l-0.074-0.106c-1.248-1.771-3.284-2.829-5.447-2.829
			c-2.533,0-4.813,1.407-5.95,3.671l-0.063,0.124l-0.135-0.033c-0.291-0.072-0.591-0.108-0.893-0.108
			C2.35,49.363,0.85,50.54,0.43,52.191z"/>
	</g>
	<g>
		<polygon fill="#78C2FF" points="28.003,69.812 13.246,69.812 13.246,50.94 13.594,50.94 13.594,69.464 28.003,69.464 		"/>
	</g>
	<g>
		<path fill="#78C2FF" d="M13.42,51.114c-0.707,0-1.282-0.575-1.282-1.282s0.575-1.281,1.282-1.281c0.706,0,1.281,0.575,1.281,1.281
			C14.702,50.539,14.127,51.114,13.42,51.114z M13.42,48.9c-0.514,0-0.933,0.418-0.933,0.933c0,0.514,0.418,0.933,0.933,0.933
			c0.514,0,0.932-0.418,0.932-0.933C14.353,49.318,13.934,48.9,13.42,48.9z"/>
	</g>
</g>
</svg>
