<?xml version="1.0" encoding="utf-8"?>
<!-- Generator: Adobe Illustrator 17.0.0, SVG Export Plug-In . SVG Version: 6.00 Build 0)  -->
<!DOCTYPE svg PUBLIC "-//W3C//DTD SVG 1.1//EN" "http://www.w3.org/Graphics/SVG/1.1/DTD/svg11.dtd">
<svg version="1.1" id="Layer_1" xmlns="http://www.w3.org/2000/svg" xmlns:xlink="http://www.w3.org/1999/xlink" x="0px" y="0px"
	 width="144px" height="144px" viewBox="0 0 144 144" enable-background="new 0 0 144 144" xml:space="preserve">
<g>
	<g>
		<path fill="#46386C" d="M8.319,41.806h7.809v16.637H8.319C3.724,58.444,0,54.719,0,50.125l0,0C0,45.531,3.724,41.806,8.319,41.806
			z"/>
		<path fill="#FFFFFF" d="M129.443,102.756H14.285c-3.38,0-6.121-2.74-6.121-6.121V41.344c0-3.38,2.74-6.121,6.121-6.121h109.038
			c3.38,0,6.121,2.74,6.121,6.121V102.756z"/>
		<path opacity="0.1" fill="#606060" d="M9.518,45.032H65.86c4.506,0,8.159-3.653,8.159-8.159v-1.649H14.285
			c-3.38,0-6.121,2.74-6.121,6.121v3.573C8.605,44.991,9.056,45.032,9.518,45.032z"/>
		<path fill="#525B9B" d="M66.719,41.722H11.132c-4.959,0-9.396,3.079-11.132,7.724l0,0V39.33c0-5.243,4.25-9.492,9.492-9.492
			h57.227c3.282,0,5.942,2.66,5.942,5.942l0,0C72.661,39.061,70.001,41.722,66.719,41.722z"/>
		<g>
			<polygon fill="#FFDA79" points="17.534,32.099 18.67,33.979 20.808,34.478 19.371,36.138 19.557,38.326 17.534,37.473 
				15.511,38.326 15.697,36.138 14.261,34.478 16.399,33.979 			"/>
			<polygon fill="#FFDA79" points="28.319,32.099 29.454,33.979 31.592,34.478 30.156,36.138 30.342,38.326 28.319,37.473 
				26.296,38.326 26.482,36.138 25.045,34.478 27.183,33.979 			"/>
			<polygon fill="#FFDA79" points="39.103,32.099 40.239,33.979 42.377,34.478 40.94,36.138 41.127,38.326 39.103,37.473 
				37.08,38.326 37.266,36.138 35.83,34.478 37.968,33.979 			"/>
			<polygon fill="#FFDA79" points="49.888,32.099 51.023,33.979 53.162,34.478 51.725,36.138 51.911,38.326 49.888,37.473 
				47.865,38.326 48.051,36.138 46.614,34.478 48.753,33.979 			"/>
			<polygon fill="#FFDA79" points="60.672,32.099 61.808,33.979 63.946,34.478 62.509,36.138 62.696,38.326 60.672,37.473 
				58.649,38.326 58.835,36.138 57.399,34.478 59.537,33.979 			"/>
		</g>
		<path fill="#525B9B" d="M19.523,87.304L19.523,87.304c-0.56,0-1.019-0.458-1.019-1.019V54.709c0-0.56,0.458-1.019,1.019-1.019l0,0
			c0.56,0,1.019,0.458,1.019,1.019v31.577C20.542,86.846,20.084,87.304,19.523,87.304z"/>
		<g opacity="0.56">
			<path opacity="0.2" fill="#474747" d="M78.96,60.99H28.484c-0.633,0-1.151-0.518-1.151-1.151l0,0
				c0-0.633,0.518-1.151,1.151-1.151H78.96c0.633,0,1.151,0.518,1.151,1.151l0,0C80.111,60.472,79.593,60.99,78.96,60.99z"/>
			<path opacity="0.2" fill="#474747" d="M78.96,66.593H28.484c-0.633,0-1.151-0.518-1.151-1.151l0,0
				c0-0.633,0.518-1.151,1.151-1.151H78.96c0.633,0,1.151,0.518,1.151,1.151l0,0C80.111,66.075,79.593,66.593,78.96,66.593z"/>
			<path opacity="0.2" fill="#474747" d="M78.96,72.195H28.484c-0.633,0-1.151-0.518-1.151-1.151l0,0
				c0-0.633,0.518-1.151,1.151-1.151H78.96c0.633,0,1.151,0.518,1.151,1.151l0,0C80.111,71.677,79.593,72.195,78.96,72.195z"/>
			<path opacity="0.2" fill="#474747" d="M78.96,77.797H28.484c-0.633,0-1.151-0.518-1.151-1.151l0,0
				c0-0.633,0.518-1.151,1.151-1.151H78.96c0.633,0,1.151,0.518,1.151,1.151l0,0C80.111,77.279,79.593,77.797,78.96,77.797z"/>
			<path opacity="0.2" fill="#474747" d="M69.691,83.4H28.406c-0.59,0-1.073-0.483-1.073-1.073v-0.285
				c0-0.59,0.483-1.073,1.073-1.073h41.285c0.59,0,1.073,0.483,1.073,1.073v0.285C70.764,82.917,70.281,83.4,69.691,83.4z"/>
		</g>
	</g>
	<g>
		<g>
			<g>
				<defs>
					<path id="SVGID_1_" d="M131.817,111.245l-28.11-4.942c-3.141-0.552-19.629-1.288-19.076-4.429l-1.044-16.287
						c-0.704-10.976,4.706-21.439,14.057-27.231c2.783-1.724,5.564-3.342,7.96-4.615c3.649-1.94,8.129-1.324,11.118,1.53
						l21.352,20.387c3.141,0.552,5.259,3.574,4.707,6.715l-4.248,24.165C137.98,109.679,134.958,111.797,131.817,111.245z"/>
				</defs>
				<clipPath id="SVGID_2_">
					<use xlink:href="#SVGID_1_"  overflow="visible"/>
				</clipPath>
				<g opacity="0.1" clip-path="url(#SVGID_2_)">
					<path fill="#606060" d="M115.24,95.442c0,0,0.986-9.178,8.531-11.282l1.897,4.801l-6.133,7.949L115.24,95.442z"/>
					<path fill="#606060" d="M140.685,111.091l7.399-16.362c0,0-3.197-0.64-17.71-4.955c-8.147-2.422-11.469-4.217-13-5.628
						c0.544-3.541-0.454-7.431-3.408-11.006c-3.7-4.478-2.608-9.981-0.977-13.268c0.873-1.759,1.553-4.263-0.25-5.041h0
						c-1.651-0.712-4.478,0.406-6.408,4.327c-2.867,5.825-2.642,9.891-2.642,9.891l-9.316-2.056l6.071,26.334
						c0,0,7.074,2.549,11.329-0.449c0.177-0.125,0.35-0.254,0.52-0.385C118.535,93.138,140.685,111.091,140.685,111.091z"/>
					<g>
						<path fill="#606060" d="M142.247,107.636c-1.931-1.555-22.3-17.863-28.243-18.479c-0.17,0.131-0.343,0.26-0.52,0.385
							c-4.254,2.999-11.329,0.449-11.329,0.449l-3.264-14.157l-0.338,0.726l-2.211-1.028l4.102,17.793c0,0,7.074,2.549,11.329-0.449
							c0.177-0.125,0.35-0.254,0.52-0.385c6.241,0.647,28.391,18.599,28.391,18.599L142.247,107.636z"/>
					</g>
					<g>
						<path fill="#606060" d="M108.682,80.319l-17.186-7.994c-1.34-0.623-1.926-2.23-1.303-3.57l0.285-0.612
							c0.623-1.34,2.23-1.926,3.57-1.303l17.186,7.994c1.34,0.623,1.927,2.23,1.303,3.57l-0.285,0.612
							C111.629,80.356,110.022,80.942,108.682,80.319z"/>
						<path fill="#606060" d="M109.33,78.926l-17.186-7.994c-1.207-0.561-1.799-1.92-1.45-3.163
							c-0.08,0.118-0.154,0.241-0.216,0.374l-0.285,0.612c-0.623,1.34-0.037,2.947,1.303,3.57l17.186,7.994
							c1.34,0.623,2.947,0.037,3.57-1.303l0.285-0.612c0.062-0.133,0.109-0.269,0.147-0.407
							C111.958,79.065,110.537,79.488,109.33,78.926z"/>
						<path fill="#606060" d="M106.859,86.143l-18.643-8.672c-1.34-0.623-1.927-2.23-1.303-3.57l0.285-0.612
							c0.623-1.34,2.23-1.927,3.57-1.303l18.643,8.672c1.34,0.623,1.927,2.23,1.303,3.57l-0.285,0.612
							C109.806,86.18,108.199,86.766,106.859,86.143z"/>
						<path fill="#606060" d="M107.527,84.706l-18.643-8.672c-1.199-0.558-1.792-1.903-1.457-3.14
							c-0.086,0.124-0.164,0.254-0.23,0.395l-0.285,0.612c-0.623,1.34-0.037,2.947,1.303,3.57l18.643,8.672
							c1.34,0.623,2.947,0.037,3.57-1.303l0.285-0.612c0.065-0.141,0.115-0.285,0.154-0.43
							C110.137,84.851,108.727,85.264,107.527,84.706z"/>
						<path fill="#606060" d="M102.983,90.832l-15.856-7.375c-1.34-0.623-1.926-2.23-1.303-3.57l0.285-0.612
							c0.623-1.34,2.23-1.926,3.57-1.303l15.856,7.375c1.34,0.623,1.926,2.23,1.303,3.57l-0.285,0.612
							C105.93,90.869,104.323,91.455,102.983,90.832z"/>
						<path fill="#606060" d="M103.682,89.33l-15.856-7.375c-1.188-0.553-1.782-1.878-1.467-3.105
							c-0.094,0.132-0.179,0.273-0.25,0.425l-0.285,0.612c-0.623,1.34-0.037,2.947,1.303,3.57l15.856,7.375
							c1.34,0.623,2.947,0.037,3.57-1.303l0.285-0.612c0.071-0.152,0.124-0.308,0.164-0.465
							C106.266,89.483,104.87,89.882,103.682,89.33z"/>
						<path fill="#606060" d="M99.747,94.865l-13.62-6.336c-1.165-0.542-1.675-1.939-1.133-3.104l0.268-0.577
							c0.542-1.165,1.939-1.675,3.104-1.133l13.62,6.336c1.165,0.542,1.675,1.939,1.133,3.104l-0.268,0.577
							C102.31,94.897,100.913,95.407,99.747,94.865z"/>
						<path fill="#606060" d="M100.233,93.82l-13.62-6.336c-1.086-0.505-1.602-1.753-1.228-2.864
							c-0.044,0.073-0.086,0.148-0.123,0.228l-0.268,0.577c-0.542,1.165-0.032,2.562,1.133,3.104l13.62,6.336
							c1.165,0.542,2.562,0.032,3.104-1.133l0.268-0.577c0.037-0.079,0.068-0.159,0.095-0.24
							C102.606,93.916,101.32,94.325,100.233,93.82z"/>
					</g>
					<path fill="#606060" d="M123.546,85.327c0,0-2.053,7.146-7.375,10.39c0,0,29.56,22.169,33.739,24.113
						c4.179,1.944,13.422-17.585,12.289-18.906C161.066,99.603,123.546,85.327,123.546,85.327z"/>
					<path fill="#606060" d="M121.373,94.981c2.929-2.362,4.49-5.976,5.268-8.471c-1.926-0.738-3.095-1.183-3.095-1.183
						s-2.053,7.146-7.375,10.39c0,0,29.56,22.169,33.739,24.113c1.741,0.81,4.361-2.108,6.743-5.882
						C149.209,110.638,121.373,94.981,121.373,94.981z"/>
					<path fill="#606060" d="M123.771,84.161c0,0,10.194,2.91,10.047,4.356c-0.774,7.583-7.255,15.37-8.735,14.681
						c-1.48-0.688-9.842-7.755-9.842-7.755S120.187,94.143,123.771,84.161z"/>
				</g>
			</g>
		</g>
		<g>
			<path fill="#46386C" d="M132.949,114.075l-28.11-4.942c-3.141-0.552-5.259-3.574-4.707-6.715l4.248-24.165
				c0.552-3.141,3.574-5.259,6.715-4.707l28.11,4.942c3.141,0.552,5.259,3.574,4.707,6.715l-4.248,24.165
				C139.112,112.509,136.09,114.627,132.949,114.075z"/>
			<g>
				<defs>
					<path id="SVGID_3_" d="M132.949,114.075l-28.11-4.942c-3.141-0.552-19.629-1.288-19.076-4.429l-1.044-16.287
						c-0.704-10.976,4.706-21.439,14.057-27.231c2.783-1.724,5.564-3.342,7.96-4.615c3.649-1.94,8.129-1.324,11.118,1.53
						l21.352,20.387c3.141,0.552,5.259,3.574,4.707,6.715l-4.248,24.165C139.112,112.509,136.09,114.627,132.949,114.075z"/>
				</defs>
				<clipPath id="SVGID_4_">
					<use xlink:href="#SVGID_3_"  overflow="visible"/>
				</clipPath>
				<g clip-path="url(#SVGID_4_)">
					<path fill="#525B9B" d="M116.372,98.272c0,0,0.986-9.178,8.531-11.282l1.897,4.801l-6.133,7.949L116.372,98.272z"/>
					<path fill="#FFAAAB" d="M141.817,113.92l7.399-16.362c0,0-3.197-0.64-17.71-4.955c-8.147-2.422-11.469-4.217-13-5.628
						c0.544-3.541-0.454-7.431-3.408-11.006c-3.7-4.478-2.608-9.981-0.977-13.268c0.873-1.759,1.553-4.263-0.25-5.041h0
						c-1.651-0.712-4.478,0.406-6.407,4.327c-2.867,5.825-2.642,9.891-2.642,9.891l-10.314-2.197l-3.151,22.309
						c0,0,17.295,6.715,21.549,3.717c0.177-0.125,0.35-0.254,0.52-0.385C119.667,95.968,141.817,113.92,141.817,113.92z"/>
					<path fill="#FF9A9B" d="M102.95,86.7c2.617-0.098,5.406,0.511,7.729,1.169c0.345,0.098,0.696,0.213,1.05,0.339
						c-1.035-0.729-1.965-1.608-2.752-2.603c-1.546-1.955-3.053-4.587-3.677-7.279c-0.114-0.2-0.227-0.4-0.336-0.603
						c-0.281-0.524-1.044-0.733-1.546-0.405c-2.148,1.399-2.587,4.8-1.959,7.115C101.701,85.322,102.246,86.083,102.95,86.7z"/>
					<g>
						<path fill="#FF9A9B" d="M143.379,110.466c-1.931-1.555-22.3-17.863-28.243-18.479c-0.17,0.131-0.342,0.26-0.52,0.385
							c-4.254,2.999-11.329,0.449-11.329,0.449l-3.264-14.157l-0.338,0.726l-2.211-1.028l-6.118,13.627
							c0,0,17.295,6.715,21.549,3.717c0.177-0.125,0.35-0.254,0.52-0.385c6.241,0.647,28.391,18.599,28.391,18.599L143.379,110.466z
							"/>
					</g>
					<g>
						<g>
							<path fill="#FFC6BF" d="M104.752,84.705l-13.62-4.009c-1.266-0.413-1.955-1.812-1.532-3.108l0.282-0.865
								c0.423-1.296,1.805-2.018,3.071-1.605l13.62,4.009c1.266,0.413,1.955,1.812,1.532,3.108l-0.282,0.865
								C107.4,84.396,106.018,85.118,104.752,84.705z"/>
							<path fill="#FFB5B6" d="M105.346,83.282l-13.853-4.085c-1.076-0.351-1.682-1.539-1.479-2.761
								c-0.065,0.13-0.124,0.265-0.171,0.408l-0.203,0.622c-0.445,1.363,0.174,2.799,1.376,3.191l13.853,4.085
								c1.202,0.393,2.549-0.401,2.994-1.764l0.203-0.622c0.047-0.143,0.079-0.287,0.103-0.43
								C107.612,83.033,106.421,83.633,105.346,83.282z"/>
						</g>
						<g>
							<path fill="#FFC6BF" d="M103.242,90.382l-13.258-3.991c-1.354-0.471-2.076-1.965-1.604-3.318l0.215-0.618
								c0.471-1.354,1.965-2.076,3.318-1.604l13.258,3.991c1.354,0.471,2.076,1.965,1.604,3.318l-0.215,0.618
								C106.089,90.131,104.596,90.853,103.242,90.382z"/>
							<path fill="#FFB5B6" d="M103.77,88.865l-13.258-3.991c-1.2-0.418-1.902-1.639-1.717-2.854
								c-0.078,0.137-0.146,0.281-0.2,0.434l-0.215,0.618c-0.471,1.354,0.25,2.847,1.604,3.318l13.258,3.991
								c1.354,0.471,2.847-0.25,3.318-1.604l0.215-0.618c0.053-0.154,0.09-0.309,0.113-0.465
								C106.279,88.761,104.97,89.283,103.77,88.865z"/>
						</g>
						<g>
							<path fill="#FFC6BF" d="M104.371,78.608l-11.297-3.447c-1.309-0.456-2.008-1.9-1.552-3.21l0.208-0.598
								c0.456-1.309,1.9-2.008,3.21-1.552l11.297,3.447c1.309,0.456,2.008,1.901,1.552,3.21l-0.208,0.598
								C107.125,78.366,105.68,79.064,104.371,78.608z"/>
							<path fill="#FFB5B6" d="M104.882,77.141l-11.296-3.447c-1.161-0.404-1.839-1.585-1.661-2.761
								c-0.076,0.132-0.142,0.272-0.193,0.42l-0.208,0.598c-0.456,1.309,0.242,2.754,1.552,3.21l11.297,3.447
								c1.309,0.456,2.754-0.242,3.21-1.552l0.208-0.598c0.052-0.149,0.087-0.299,0.109-0.449
								C107.308,77.041,106.043,77.545,104.882,77.141z"/>
						</g>
						<path fill="#FFC6BF" d="M100.883,95.133l-11.472-3.784c-1.122-0.391-1.72-1.628-1.33-2.75l0.273-0.783
							c0.391-1.122,1.628-1.72,2.751-1.33l11.472,3.784c1.122,0.391,1.72,1.628,1.33,2.75l-0.273,0.783
							C103.243,94.925,102.005,95.524,100.883,95.133z"/>
						<path fill="#FFB5B6" d="M101.352,94.113l-11.674-3.854c-0.994-0.346-1.527-1.47-1.263-2.575
							c-0.035,0.075-0.067,0.152-0.095,0.232l-0.203,0.583c-0.41,1.177,0.127,2.444,1.194,2.815l11.674,3.854
							c1.066,0.371,2.274-0.288,2.684-1.465l0.203-0.583c0.028-0.08,0.05-0.16,0.07-0.241
							C103.462,93.909,102.346,94.459,101.352,94.113z"/>
					</g>
					<path fill="#525B9B" d="M124.678,88.156c0,0-2.053,7.146-7.375,10.39c0,0,29.56,22.169,33.739,24.113
						c4.179,1.944,13.422-17.585,12.289-18.906C162.198,102.432,124.678,88.156,124.678,88.156z"/>
					<path fill="#594C95" d="M122.505,97.81c2.929-2.362,4.49-5.976,5.268-8.471c-1.926-0.738-3.096-1.183-3.096-1.183
						s-2.053,7.146-7.375,10.39c0,0,29.56,22.169,33.739,24.113c1.741,0.81,4.361-2.108,6.743-5.882
						C150.341,113.467,122.505,97.81,122.505,97.81z"/>
					<path fill="#6776B8" d="M124.903,86.99c0,0,10.194,2.91,10.047,4.356c-0.774,7.583-7.255,15.37-8.735,14.681
						c-1.48-0.688-9.842-7.755-9.842-7.755S121.318,96.972,124.903,86.99z"/>
				</g>
			</g>
		</g>
	</g>
</g>
</svg>
