<?xml version="1.0" encoding="utf-8"?>
<!-- Generator: Adobe Illustrator 17.0.0, SVG Export Plug-In . SVG Version: 6.00 Build 0)  -->
<!DOCTYPE svg PUBLIC "-//W3C//DTD SVG 1.1//EN" "http://www.w3.org/Graphics/SVG/1.1/DTD/svg11.dtd">
<svg version="1.1" id="Layer_1" xmlns="http://www.w3.org/2000/svg" xmlns:xlink="http://www.w3.org/1999/xlink" x="0px" y="0px"
	 width="144px" height="144px" viewBox="0 0 144 144" enable-background="new 0 0 144 144" xml:space="preserve">
<g>
	<g>
		<polygon fill="#C99646" points="87.382,32.174 79.266,47.805 70.078,65.5 65.415,56.52 60.891,47.805 52.774,32.174 		"/>
		<g>
			<g>
				<g>
					<path fill="#EEA987" d="M124.353,89.668c0,0-0.305-0.369-0.187-0.607c0.1-0.202,0.035-0.493,0.031-0.596
						c-0.006-0.137,0.149-0.455-0.024-0.448c-0.173,0.007-0.279,0.585-0.326,0.726c-0.047,0.141-0.397-0.425-0.542-0.478
						c-0.145-0.053-1.05,0.578-0.765,0.939c0.285,0.36,0.767,0.579,0.805,0.652c0.037,0.073,0.191,0.287,0.191,0.287L124.353,89.668
						z"/>
				</g>
			</g>
		</g>
		<path fill="#202338" d="M123.175,116.075c0,0-0.754,0.756-1.402,0.838c-0.648,0.081-1.4,0.325-1.488,0.814
			c-0.088,0.488,1.92,1.007,2.71,0.625c1.18-0.57,1.523-0.344,1.703-0.693c0.18-0.35,0.146-1.556,0.174-1.672
			C124.906,115.844,123.175,116.075,123.175,116.075z"/>
		<path fill="#202338" d="M136.487,113.934c0,0-0.218,1.035-0.699,1.433c-0.48,0.397-0.961,0.987-0.781,1.454
			c0.18,0.468,1.893,0.412,2.505-0.824c0.387-0.781,0.836-0.917,0.802-1.31c-0.035-0.394-0.633-1.236-0.67-1.35
			C137.598,113.196,136.487,113.934,136.487,113.934z"/>
		<path fill="#1C4054" d="M128.267,99.113c0,0-2.597,5.379-3.183,6.743c-0.543,1.264-1.102,3.534-1.177,4.421
			c-0.094,1.117-1.163,5.657-1.23,5.984c-0.066,0.327,2.264,0.13,2.264,0.13s2.029-7.736,2.567-8.833
			c0.359-0.733,3.054-5.605,3.292-5.303c0.238,0.302,1.687,3.943,1.863,4.816c0.176,0.873,3.495,7.368,3.495,7.368
			s1.549-0.113,1.854-0.703c0,0-2.475-6.583-2.75-7.78c-0.14-0.61-0.653-4.45-1.299-7.395
			C133.631,97.048,128.267,99.113,128.267,99.113z"/>
		<linearGradient id="SVGID_2_" gradientUnits="userSpaceOnUse" x1="0" y1="63.1005" x2="136.3205" y2="63.1005">
			<stop  offset="0" style="stop-color:#FF9F55"/>
			<stop  offset="1" style="stop-color:#FFD255"/>
		</linearGradient>
		<polygon fill="url(#SVGID_2_)" points="122.684,36.239 122.684,40.3 129.745,40.3 110.082,59.963 98.917,48.799 76.79,70.926 
			62.266,56.402 56.976,61.692 48.811,53.527 32.381,69.956 27.498,65.073 22.376,65.073 0,87.449 2.514,89.963 23.848,68.628 
			26.025,68.628 32.381,74.984 48.811,58.554 56.976,66.72 62.266,61.43 76.79,75.954 98.917,53.827 110.082,64.991 132.259,42.814 
			132.259,49.875 136.32,49.875 136.32,36.238 		"/>
		<linearGradient id="SVGID_4_" gradientUnits="userSpaceOnUse" x1="34.0231" y1="79.8282" x2="106.1334" y2="79.8282">
			<stop  offset="0" style="stop-color:#A87E3B"/>
			<stop  offset="1" style="stop-color:#EBB051"/>
		</linearGradient>
		<path fill="url(#SVGID_4_)" d="M106.133,84.537c0,10.882-4.581,18.16-11.77,22.644h-0.001c-6.666,4.158-15.574,5.914-25.155,5.914
			c-19.913,0-35.185-7.585-35.185-28.558c0-17.629,11.405-32.452,26.867-36.731c2.037-0.564,4.145-0.944,6.307-1.123
			c0.951-0.08,1.911-0.12,2.881-0.12c3.175,0,6.255,0.433,9.188,1.244C94.729,52.085,106.133,66.908,106.133,84.537z"/>
		<path fill="#C99646" d="M87.382,32.174c0,0-8.941,5.967-21.193,4.54c-4.163-0.485-8.708-1.824-13.415-4.54
			c0,0,1.173-3.78,5.546-3.78c4.373,0,2.133,3.78,5.653,3.78c3.52,0,4.373-3.78,7.892-3.78c3.52,0,2.88,3.78,5.12,3.78
			s2.986-3.78,6.932-3.78C87.864,28.394,87.382,32.174,87.382,32.174z"/>
		<g>
			<g>
				<path fill="#826845" d="M80.086,70.532c-0.321-0.316-0.791-0.657-1.401-1.029c-0.677-0.411-1.396-0.758-2.111-1.081
					c-0.833-0.376-1.718-0.677-2.604-0.931c-0.945-0.271-1.914-0.46-2.893-0.565c0.016,3.391,0.032,6.782,0.049,10.173
					c0.402,0.08,0.602,0.12,1.005,0.198c1.744,0.399,3.473,0.838,5.186,1.352c1.38,0.415,2.754,0.976,3.97,1.741
					c1.02,0.642,1.969,1.502,2.603,2.544c0.712,1.169,1.007,2.468,1.074,3.764c0.074,1.43-0.132,2.997-0.84,4.328
					c-0.661,1.243-1.649,2.371-2.788,3.2c-1.311,0.954-2.796,1.663-4.305,2.15c-1.714,0.554-3.522,0.855-5.353,1.036
					c0.011,1.717,0.022,3.434,0.033,5.151c-0.991,0.077-1.981,0.151-2.972,0.222c0.005-1.766,0.009-3.532,0.013-5.299
					c-2.62-0.056-5.213-0.368-7.679-1.116c-2.334-0.708-4.511-1.824-6.527-3.279c1.011-1.64,2.016-3.283,3.016-4.93
					c0.497,0.534,1.112,0.951,1.709,1.34c0.826,0.538,1.755,0.98,2.66,1.356c1.08,0.449,2.232,0.805,3.377,1.092
					c1.242,0.312,2.551,0.501,3.844,0.569c0.005-3.413,0.009-6.827,0.014-10.24c-0.215-0.064-0.438-0.121-0.671-0.169
					c-0.233-0.049-0.455-0.105-0.669-0.171c-1.668-0.422-3.355-0.872-4.929-1.519c-1.23-0.506-2.403-1.125-3.434-2
					c-0.861-0.732-1.544-1.696-1.991-2.731c-0.507-1.174-0.605-2.504-0.558-3.722c0.059-1.488,0.346-3.068,1.054-4.414
					c0.649-1.232,1.492-2.311,2.558-3.155c1.084-0.859,2.358-1.455,3.711-1.883c1.47-0.466,3.052-0.591,4.607-0.641
					c0.005-1.668,0.009-3.336,0.014-5.004c0.855,0.073,1.711,0.143,2.567,0.209c0.01,1.653,0.02,3.305,0.03,4.957
					c2.083,0.279,4.133,0.731,6.066,1.534c1.737,0.721,3.434,1.562,5.012,2.614C81.722,67.635,80.906,69.084,80.086,70.532z
					 M63.011,71.4c-0.028,1.21,0.451,2.505,1.476,3.239c1.388,0.993,3.063,1.498,4.686,1.952c0.005-3.249,0.009-6.498,0.015-9.747
					c-1.586,0.045-3.316,0.162-4.616,1.183C63.556,68.825,63.04,70.154,63.011,71.4z M78.444,87.689
					c-0.036-1.312-0.812-2.521-1.981-3.108c-1.651-0.831-3.498-1.368-5.31-1.83c0.016,3.243,0.032,6.486,0.048,9.729
					c1.872-0.153,3.827-0.459,5.43-1.459C77.764,90.315,78.48,89.031,78.444,87.689z"/>
			</g>
		</g>
		<path opacity="0.24" fill="#D69B4E" d="M94.363,107.181c-6.666,4.158-15.574,5.914-25.155,5.914
			c-19.913,0-35.185-7.585-35.185-28.558c0-17.629,11.405-32.452,26.867-36.731l-8.116-15.631c0,0,1.173-3.78,5.546-3.78
			c4.373,0,2.133,3.78,5.653,3.78c0,0,1.22,1.763,2.216,4.54c0.942,2.625,1.684,6.158,1.008,9.967
			c-0.127,0.71-0.302,1.43-0.535,2.155c-0.467,1.454-0.939,4.177-1.247,7.683C63.875,74.057,66.444,111.192,94.363,107.181z"/>
		<g>
			<path fill="#FFE7C2" d="M69.861,49.326c-2.519,0-6.252-0.273-9.847-1.438l0.231-1.326c13.4,2.467,20.168-1.025,20.218-1.06
				l0.117,1.55C80.414,47.169,77.135,49.326,69.861,49.326z"/>
		</g>
		<g>
			<path fill="#FFE7C2" d="M64.266,48.09c-1.345,0-2.747-0.06-4.197-0.198l0.135-1.416c6.158,0.587,11.459-0.284,14.822-1.118
				c3.653-0.906,6.598-2.125,6.62-2.135l-0.936,1.802c-0.094,0.045-1.515,0.76-5.297,1.703C72.724,47.397,68.836,48.09,64.266,48.09
				z"/>
		</g>
		<path fill="#FFE7C2" d="M80.732,45.036c0,0,1.468-0.51,0.892-1.824C81.624,43.212,80.355,44.643,80.732,45.036z"/>
		<path fill="#FFE7C2" d="M80.463,45.501c0,0,0.834,0.521,0.117,1.55C80.58,47.051,79.96,46.654,80.463,45.501z"/>
		<path fill="#FFE7C2" d="M60.204,46.476c0,0-0.929,0.524-0.19,1.411C60.014,47.888,61.219,47.644,60.204,46.476z"/>
		<g>
			<path fill="#FFE7C2" d="M31.833,73.411l-0.132-1.308c11.959-1.206,16.714-4.489,18.844-13.008
				c0.654-2.616,1.573-4.903,2.731-6.796c0.938-1.533,2.034-2.815,3.259-3.809c2.127-1.727,3.871-1.918,3.946-1.929l0.229,1.224
				c-0.012,0.002-1.567,0.252-3.423,1.788c-1.729,1.43-4.081,4.299-5.467,9.841c-1.181,4.723-3.224,7.93-6.43,10.093
				C42.334,71.57,38.152,72.774,31.833,73.411z"/>
		</g>
		<g>
			<path fill="#FFE7C2" d="M38.676,62.592c-0.768,0-1.198-0.178-1.272-0.211l0.539-1.194l-0.013-0.005
				c0.009,0.003,0.929,0.356,2.696-0.296c1.686-0.622,4.479-2.294,8.206-6.729c7.813-9.295,12.722-7.501,12.927-7.42l-0.481,1.219
				l0.009,0.003c-0.01-0.003-1.063-0.366-2.966,0.289c-1.804,0.621-4.74,2.296-8.486,6.752c-3.23,3.842-6.247,6.262-8.97,7.192
				C39.964,62.499,39.231,62.592,38.676,62.592z"/>
		</g>
		<g>
			<path fill="#FFC455" d="M135.305,61.948c-0.368,0-0.71-0.063-1.026-0.189c-0.316-0.127-0.589-0.297-0.82-0.513
				c-0.232-0.215-0.416-0.468-0.552-0.758c-0.137-0.289-0.205-0.602-0.205-0.939c0-0.326,0.068-0.636,0.205-0.931
				c0.137-0.295,0.321-0.547,0.552-0.758c0.232-0.21,0.505-0.378,0.82-0.505c0.316-0.126,0.658-0.19,1.026-0.19
				c0.358,0,0.697,0.063,1.018,0.19c0.32,0.126,0.597,0.294,0.828,0.505c0.231,0.211,0.415,0.463,0.553,0.758
				c0.137,0.295,0.205,0.605,0.205,0.931c0,0.337-0.069,0.65-0.205,0.939c-0.137,0.29-0.321,0.543-0.553,0.758
				c-0.231,0.216-0.508,0.386-0.828,0.513C136.002,61.884,135.663,61.948,135.305,61.948z M133.585,67.786l4.45-5.192l4.103-5.397
				l0.963,0.852l-4.309,5.097l-4.245,5.492L133.585,67.786z M135.305,60.89c0.158,0,0.302-0.037,0.434-0.11
				c0.131-0.073,0.25-0.171,0.355-0.292c0.105-0.12,0.187-0.263,0.245-0.426c0.057-0.163,0.086-0.334,0.086-0.513
				c0-0.368-0.11-0.681-0.331-0.939c-0.221-0.257-0.484-0.387-0.789-0.387c-0.158,0-0.303,0.037-0.434,0.111
				c-0.132,0.073-0.25,0.171-0.355,0.292c-0.106,0.121-0.187,0.26-0.245,0.418c-0.058,0.158-0.087,0.327-0.087,0.505
				c0,0.368,0.11,0.684,0.332,0.947C134.737,60.759,135,60.89,135.305,60.89z M141.396,68.686c-0.369,0-0.71-0.063-1.026-0.189
				c-0.316-0.126-0.59-0.294-0.821-0.505c-0.232-0.21-0.415-0.46-0.552-0.75c-0.137-0.289-0.205-0.602-0.205-0.939
				c0-0.337,0.069-0.65,0.205-0.939c0.137-0.289,0.32-0.542,0.552-0.757c0.231-0.216,0.505-0.387,0.821-0.513
				c0.316-0.126,0.657-0.189,1.026-0.189c0.368,0,0.71,0.063,1.026,0.189c0.316,0.127,0.592,0.297,0.829,0.513
				c0.236,0.216,0.421,0.468,0.552,0.757c0.131,0.289,0.197,0.602,0.197,0.939c0,0.337-0.066,0.65-0.197,0.939
				c-0.131,0.29-0.316,0.539-0.552,0.75c-0.237,0.211-0.513,0.379-0.829,0.505C142.107,68.623,141.764,68.686,141.396,68.686z
				 M141.396,67.629c0.157,0,0.302-0.037,0.434-0.11c0.132-0.073,0.25-0.171,0.355-0.292c0.105-0.121,0.187-0.26,0.245-0.418
				c0.058-0.158,0.087-0.326,0.087-0.505c0-0.189-0.032-0.366-0.095-0.529c-0.063-0.163-0.145-0.305-0.245-0.426
				c-0.1-0.121-0.218-0.215-0.355-0.284c-0.137-0.069-0.279-0.103-0.426-0.103c-0.158,0-0.303,0.037-0.434,0.11
				c-0.132,0.074-0.25,0.171-0.355,0.292c-0.105,0.121-0.187,0.263-0.245,0.426c-0.058,0.163-0.087,0.334-0.087,0.513
				c0,0.368,0.11,0.681,0.331,0.939C140.828,67.5,141.091,67.629,141.396,67.629z"/>
		</g>
		<g>
			<linearGradient id="SVGID_5_" gradientUnits="userSpaceOnUse" x1="69.7251" y1="73.0153" x2="103.7136" y2="39.0268">
				<stop  offset="0" style="stop-color:#FF9F55"/>
				<stop  offset="1" style="stop-color:#FFD255"/>
			</linearGradient>
			<path fill="url(#SVGID_5_)" d="M107.907,34.943c-0.063-0.074-0.181-0.163-0.355-0.269c-0.173-0.105-0.379-0.213-0.615-0.323
				c-0.237-0.111-0.497-0.21-0.781-0.3c-0.284-0.089-0.579-0.15-0.884-0.181v2.73l0.394,0.095c0.547,0.147,1.044,0.305,1.491,0.473
				c0.447,0.168,0.826,0.379,1.136,0.631c0.311,0.252,0.55,0.555,0.718,0.907c0.168,0.353,0.253,0.787,0.253,1.302
				c0,0.579-0.103,1.073-0.308,1.484c-0.205,0.411-0.484,0.747-0.836,1.01c-0.353,0.263-0.763,0.46-1.231,0.592
				c-0.468,0.131-0.96,0.207-1.475,0.229v1.736h-0.947v-1.752c-0.736-0.053-1.454-0.202-2.154-0.45
				c-0.7-0.247-1.333-0.571-1.902-0.971l0.963-1.878c0.084,0.084,0.229,0.195,0.434,0.331c0.205,0.137,0.452,0.271,0.742,0.402
				c0.289,0.132,0.61,0.255,0.963,0.371c0.352,0.116,0.718,0.195,1.097,0.237v-2.715c-0.095-0.021-0.189-0.045-0.284-0.071
				c-0.094-0.026-0.189-0.056-0.284-0.087c-0.536-0.147-1.002-0.307-1.397-0.481c-0.394-0.174-0.723-0.379-0.986-0.616
				c-0.263-0.236-0.46-0.51-0.592-0.82c-0.132-0.31-0.197-0.681-0.197-1.113c0-0.526,0.092-0.996,0.276-1.412
				c0.184-0.415,0.436-0.771,0.757-1.065c0.321-0.294,0.702-0.526,1.144-0.694c0.442-0.168,0.915-0.273,1.42-0.316v-1.609h0.947
				v1.593c0.694,0.053,1.333,0.195,1.917,0.426c0.584,0.232,1.096,0.5,1.538,0.805L107.907,34.943z M103.11,35.1
				c0,0.358,0.123,0.629,0.37,0.813c0.247,0.184,0.624,0.35,1.129,0.497v-2.556C103.609,33.917,103.11,34.333,103.11,35.1z
				 M106.945,40.23c0-0.357-0.147-0.636-0.442-0.837c-0.295-0.2-0.705-0.384-1.231-0.552v2.541
				C106.387,41.35,106.945,40.966,106.945,40.23z"/>
		</g>
		<linearGradient id="SVGID_6_" gradientUnits="userSpaceOnUse" x1="37.0154" y1="114.5865" x2="58.0021" y2="114.5865">
			<stop  offset="0" style="stop-color:#FF9340"/>
			<stop  offset="1" style="stop-color:#FFCE45"/>
		</linearGradient>
		<rect x="37.015" y="113.313" fill="url(#SVGID_6_)" width="20.987" height="2.548"/>
		<linearGradient id="SVGID_7_" gradientUnits="userSpaceOnUse" x1="37.781" y1="112.0387" x2="58.7677" y2="112.0387">
			<stop  offset="0" style="stop-color:#F58631"/>
			<stop  offset="1" style="stop-color:#F2C23F"/>
		</linearGradient>
		<rect x="37.781" y="110.765" fill="url(#SVGID_7_)" width="20.987" height="2.548"/>
		<linearGradient id="SVGID_8_" gradientUnits="userSpaceOnUse" x1="37.3531" y1="109.4907" x2="58.3395" y2="109.4907">
			<stop  offset="0" style="stop-color:#FF9340"/>
			<stop  offset="1" style="stop-color:#FFCE45"/>
		</linearGradient>
		<rect x="37.353" y="108.217" fill="url(#SVGID_8_)" width="20.986" height="2.548"/>
		<linearGradient id="SVGID_9_" gradientUnits="userSpaceOnUse" x1="37.781" y1="106.9428" x2="58.7677" y2="106.9428">
			<stop  offset="0" style="stop-color:#F58631"/>
			<stop  offset="1" style="stop-color:#F2C23F"/>
		</linearGradient>
		<rect x="37.781" y="105.669" fill="url(#SVGID_9_)" width="20.987" height="2.548"/>
		<linearGradient id="SVGID_10_" gradientUnits="userSpaceOnUse" x1="38.1397" y1="104.3951" x2="59.126" y2="104.3951">
			<stop  offset="0" style="stop-color:#FF9340"/>
			<stop  offset="1" style="stop-color:#FFCE45"/>
		</linearGradient>
		<rect x="38.14" y="103.121" fill="url(#SVGID_10_)" width="20.986" height="2.548"/>
		<linearGradient id="SVGID_11_" gradientUnits="userSpaceOnUse" x1="37.4821" y1="101.8473" x2="58.4685" y2="101.8473">
			<stop  offset="0" style="stop-color:#F58631"/>
			<stop  offset="1" style="stop-color:#F2C23F"/>
		</linearGradient>
		<rect x="37.482" y="100.573" fill="url(#SVGID_11_)" width="20.986" height="2.548"/>
		<linearGradient id="SVGID_12_" gradientUnits="userSpaceOnUse" x1="37.0154" y1="99.2995" x2="58.0021" y2="99.2995">
			<stop  offset="0" style="stop-color:#FF9340"/>
			<stop  offset="1" style="stop-color:#FFCE45"/>
		</linearGradient>
		<rect x="37.015" y="98.026" fill="url(#SVGID_12_)" width="20.987" height="2.548"/>
		<linearGradient id="SVGID_13_" gradientUnits="userSpaceOnUse" x1="37.8726" y1="96.7517" x2="58.8587" y2="96.7517">
			<stop  offset="0" style="stop-color:#F58631"/>
			<stop  offset="1" style="stop-color:#F2C23F"/>
		</linearGradient>
		<rect x="37.873" y="95.478" fill="url(#SVGID_13_)" width="20.986" height="2.548"/>
		<linearGradient id="SVGID_14_" gradientUnits="userSpaceOnUse" x1="38.6776" y1="117.0288" x2="59.664" y2="117.0288">
			<stop  offset="0" style="stop-color:#F58631"/>
			<stop  offset="1" style="stop-color:#F2C23F"/>
		</linearGradient>
		<rect x="38.678" y="115.755" fill="url(#SVGID_14_)" width="20.986" height="2.548"/>
		
			<linearGradient id="SVGID_15_" gradientUnits="userSpaceOnUse" x1="775.6512" y1="-1498.8553" x2="796.7283" y2="-1498.8553" gradientTransform="matrix(0.9754 0.2204 -0.2204 0.9754 -1047.9893 1382.7769)">
			<stop  offset="0" style="stop-color:#FF9340"/>
			<stop  offset="1" style="stop-color:#FFCE45"/>
		</linearGradient>
		<polygon fill="url(#SVGID_15_)" points="59.668,95.594 38.687,95.092 38.748,92.545 59.728,93.047 		"/>
		<g>
			<path fill="#EBEBEB" d="M97.588,53.435c0-1.748-1.768-3.166-3.95-3.166c-0.495,0-0.969,0.073-1.406,0.206
				c-0.576-1.396-2.006-2.386-3.68-2.386c-1.86,0-3.42,1.223-3.839,2.868c-0.321-0.122-0.672-0.189-1.038-0.189
				c-1.549,0-2.804,1.193-2.804,2.666H97.588z"/>
		</g>
		<g>
			<path fill="#EBEBEB" d="M63.433,39.608c0-1.392-1.408-2.52-3.145-2.52c-0.394,0-0.772,0.058-1.119,0.164
				c-0.458-1.112-1.597-1.899-2.929-1.899c-1.481,0-2.722,0.973-3.056,2.283c-0.256-0.097-0.534-0.15-0.827-0.15
				c-1.233,0-2.232,0.95-2.232,2.122H63.433z"/>
		</g>
		<linearGradient id="SVGID_16_" gradientUnits="userSpaceOnUse" x1="25.8429" y1="60.2814" x2="58.2739" y2="27.8505">
			<stop  offset="0" style="stop-color:#FF9F55"/>
			<stop  offset="1" style="stop-color:#FFD255"/>
		</linearGradient>
		<polygon fill="url(#SVGID_16_)" points="39.381,44.65 39.381,46.042 41.503,46.042 35.611,51.933 32.073,48.395 29.41,51.058 
			27.811,51.058 27.811,52.521 30.015,52.521 32.073,50.463 35.611,54.002 42.663,46.949 42.663,49.324 44.056,49.324 44.056,44.65 
					"/>
		<g>
			<path fill="#FFC455" d="M92.179,33.079h-1.351c0-2.16-0.613-3.848-1.821-5.016c-1.99-1.925-4.988-1.848-5.018-1.847l-0.049-1.35
				c0.145-0.005,3.585-0.107,5.996,2.216C91.425,28.515,92.179,30.533,92.179,33.079z"/>
		</g>
		<path fill="#FAB99B" d="M60.973,94.562c0,0-0.841,0.061-1.007,0.033c-0.167-0.027-0.31-0.154-0.346-0.2
			c-0.036-0.047-0.256-0.997-0.327-1.172c-0.071-0.175-0.879,0.033-0.782-0.27c0.024-0.075,1.233-0.358,1.359,0.055
			C60.169,94,60.741,93.895,61,94.1C61.212,94.267,60.973,94.562,60.973,94.562z"/>
		<path fill="#1C4054" d="M68.504,116.095c0,0,0.165,1.477,0.048,1.95c-0.118,0.474-0.271,1.031-0.726,1.088
			c-0.455,0.057-0.758-0.488-0.731-0.981c0.026-0.476,0.178-0.796,0.348-1.166c0.17-0.369,0.227-0.81,0.227-0.81L68.504,116.095z"/>
		<path fill="#1C4054" d="M70.969,116.418c0,0,0.332,0.881,0.54,1.023c0.208,0.142,1.115,0.303,1.14,0.512
			c0.025,0.208-0.088,0.55-0.572,0.578c-0.483,0.029-1.175,0.076-1.459-0.18c-0.284-0.256-0.436-1.09-0.654-1.128
			c0,0-0.256,0.35-0.256,0.701c0,0-0.123,0.057-0.152-0.057c-0.029-0.114,0.067-1.573,0.617-2.331
			C70.722,114.778,70.969,116.418,70.969,116.418z"/>
		<path fill="#FAB99B" d="M70.287,103.596c0,0-0.813,2.217-0.755,2.658c0.058,0.44-0.002,1.776-0.186,2.444
			c-0.185,0.668-0.071,2.083-0.383,3.235c-0.313,1.152-0.467,4.001-0.467,4.371c0,0.37-0.782,0.626-0.824-0.128
			c-0.043-0.753-0.739-4.449-0.597-5.444c0.142-0.995,0.54-2.246,0.341-3c-0.199-0.753-0.44-1.691-0.44-2.189
			S70.287,103.596,70.287,103.596z"/>
		<path fill="#FAB99B" d="M70.543,103.653c0,0,2.118,3.269,2.274,3.61c0.156,0.341,0.142,1.066,0,1.308
			c-0.142,0.242-1.606,2.303-1.805,3.056c-0.199,0.753-0.682,3.454-0.796,3.738c-0.113,0.284,0.033,0.872,0.261,0.986
			c0.227,0.114,0.291-0.043,0.291-0.043s1.071-2.452,1.568-3.307c0.4-0.689,2.089-3.366,2.259-3.578
			c0.216-0.269,0.477-1.049,0.526-1.649c0.036-0.438-0.725-3.696-0.725-3.696S74.651,102.672,70.543,103.653z"/>
		<path fill="#1C4054" d="M67.216,98.82c0,0-1.094,2.104-0.781,3.937c0.313,1.834,0.455,3.284,0.142,3.81
			c0,0,2.36,0.071,4.506-0.782c2.147-0.853,3.625-1.336,3.625-1.336s-0.81-3.667-1.151-4.549c-0.341-0.881-0.601-1.872-0.625-2.265
			C72.906,97.242,67.216,98.82,67.216,98.82z"/>
		<path fill="#FAB99B" d="M66.232,91.938c0,0-1.767,1.298-1.957,1.356c-0.189,0.056-3.085,0.401-3.624,0.57
			c-0.514,0.161,0.197,0.709,0.197,0.709s3.142,0.072,3.453,0c0.331-0.076,0.432,0.021,1.342-0.482
			c0.91-0.502,1.516-0.825,1.516-0.825S67.342,92.196,66.232,91.938z"/>
		<path fill="#EBEBEB" d="M73.825,93.184c0,0,1.56,2.025,1.56,2.186c0,0.161-1.772,1.857-1.981,2.019l0.313,0.805
			c0,0,3.374-1.829,3.535-2.274c0.161-0.445-1.09-2.372-2.246-3.915C73.85,90.461,73.279,92.562,73.825,93.184z"/>
		<path fill="#EBEBEB" d="M75.063,92.081c0,0.059-0.183,0.027-0.217,0.054c-0.088,0.068-0.177,0.134-0.266,0.2
			c-0.194,0.143-0.391,0.283-0.588,0.421c-0.056,0.039-0.151,0.082-0.193,0.135c-0.048,0.061-0.013,0.111,0.007,0.2
			c0.063,0.286,0.071,0.187,0.092,0.479c0.044,0.612-0.278,1.501-0.587,2c-0.122,0.198-0.286,0.406-0.353,0.632
			c-0.081,0.274-0.064,0.588-0.057,0.871c0.003,0.139,0.01,0.277,0.019,0.416c0.002,0.026,0.026,0.127,0.011,0.146
			c-0.008,0.01-0.079,0.009-0.091,0.01c-0.217,0.028-0.432,0.07-0.645,0.117c-1.04,0.225-2.031,0.624-3.069,0.852
			c-0.616,0.136-1.275,0.248-1.909,0.205c0.173-0.309,0.287-0.626,0.362-0.902c0.146-0.54,0.257-1.094,0.342-1.647
			c0.082-0.534,0.125-1.113-0.069-1.629c-0.099-0.264-0.267-0.483-0.419-0.717c-0.162-0.249-0.232-0.492-0.296-0.776
			c-0.117-0.517-0.463-1.024-0.963-1.238c0.072-0.094,0.193-0.164,0.288-0.232c0.157-0.111,0.317-0.217,0.478-0.322
			c0.152-0.099,0.323-0.249,0.496-0.311c0.116-0.042,0.256-0.049,0.375-0.072c0.265-0.05,0.53-0.098,0.796-0.144
			c0.737-0.129,1.476-0.248,2.218-0.346c0.681-0.09,1.374-0.178,2.062-0.167c0.277,0.005,0.526,0.029,0.77,0.167
			C74.239,90.812,74.712,91.522,75.063,92.081z"/>
		<path fill="#1C4054" d="M70.458,84.216c0,0,1.304-0.035,1.619,1.194c0.279,1.091,0.113,2.037,0.104,2.796
			c-0.009,0.758,0.778,1.988,0.778,1.988s-1.309-0.131-1.432-0.539c-0.123-0.408-2.502,0.587-2.502,0.587s0.787-0.512,0.057-1.952
			c-0.729-1.44-0.736-2.072-0.758-2.539C68.31,85.448,68.63,84.226,70.458,84.216z"/>
		<path fill="#FAB99B" d="M69.386,84.586c0,0-1.317,0.957-0.739,2.852c0.578,1.895,0.957,1.782,1.895,1.355
			c0.938-0.427,1.26-1.583,1.298-2.161C71.878,86.055,71.897,83.572,69.386,84.586z"/>
		<path fill="#FAB99B" d="M73.335,90.356c-0.725,0.525-6.274,1.025-5.911,0.693c0.327-0.299,1.945-0.986,2.369-1.232
			c0.156-0.09,0.249-0.234,0.304-0.377l0,0c0.093-0.243,0.077-0.489,0.077-0.489l0,0c0.01-0.023,1.069-2.582,1.213-0.926
			c0.124,1.431,0.623,1.688,0.623,1.688C73.001,90.244,73.335,90.356,73.335,90.356z"/>
		<path fill="#1C4054" d="M69.187,85.306c0,0,0.253-0.033,0.467,0.898c0.093,0.406,0.334,0.966,1.097,1.528
			c0.827,0.609,0.966,0.654,0.966,0.654s1.051-3.843-1.148-4.053c-2.198-0.21-2.18,1.55-2.161,1.976
			c0.019,0.427,0.096,0.359,0.096,0.359S68.534,85.359,69.187,85.306z"/>
		<path fill="#FAB99B" d="M73.404,97.389c0,0-0.111,0.068-0.222,0.048c-0.191-0.034-0.372-0.265-0.607-0.122
			c-0.235,0.144,0.043,0.967,0.178,1.08c0.135,0.114,0.514,0.157,0.964-0.199C74.167,97.841,73.404,97.389,73.404,97.389z"/>
		<path fill="#FAB99B" d="M72.667,97.272c0,0-0.412,0.063-0.864,0.182c-0.396,0.105-0.836,0.297-0.846,0.38
			c-0.011,0.092,0.413-0.049,0.814-0.128c0.369-0.073,0.712-0.116,0.712-0.116s-0.388,0.094-0.773,0.248
			c-0.414,0.164-0.821,0.373-0.821,0.472c0,0.048,0.157,0.03,0.374-0.018c-0.166,0.061-0.275,0.117-0.26,0.153
			c0.074,0.187,1.185-0.081,1.443-0.141c-0.198,0.048-0.8,0.218-0.675,0.305c0.142,0.1,0.983-0.136,1.323-0.132
			C73.435,98.481,72.667,97.272,72.667,97.272z"/>
		<path fill="#A87860" d="M71.157,88.334c0,0-0.129,0.633-1.059,1.105c0.093-0.243,0.077-0.489,0.077-0.489l0,0
			C70.187,88.947,70.972,88.644,71.157,88.334z"/>
		<path fill="#EBEBEB" d="M67.159,93.266c0,0-1.56,1.339-2.616,1.338c-1.056,0-3.687,0.104-3.687,0.104L60.465,93.8
			c0,0,3.536-0.456,3.758-0.529c0.223-0.072,1.95-1.36,1.95-1.36S67.492,92.01,67.159,93.266z"/>
		<path fill="#FAB99B" d="M59.644,94.421c0,0-0.653-0.57-0.582-0.695c0.071-0.125,0.622,0.219,0.67,0.255
			C59.779,94.017,59.644,94.421,59.644,94.421z"/>
		<g>
			<circle fill="#F8BB66" cx="123.364" cy="79.023" r="10.493"/>
			<path fill="#F8BB66" d="M125.791,89.232l-3.62-20.634c5.477-0.633,10.564,3.111,11.529,8.612
				C134.665,82.711,131.156,87.962,125.791,89.232z"/>
			<path fill="#F8BB66" d="M113.029,80.837c-0.849-4.838,1.763-9.483,6.054-11.396l3.518,20.051
				C117.915,89.153,113.878,85.675,113.029,80.837z"/>
			<circle fill="#F89829" cx="123.364" cy="79.023" r="7.975"/>
			<g>
				<path fill="#F8C681" d="M126.314,77.975c-0.045-0.095-0.119-0.204-0.223-0.329c-0.104-0.124-0.23-0.252-0.378-0.381
					c-0.148-0.13-0.315-0.253-0.503-0.37c-0.188-0.117-0.387-0.216-0.598-0.296l-0.695,2.309l0.198,0.108
					c0.373,0.217,0.703,0.435,0.99,0.651c0.288,0.216,0.518,0.444,0.689,0.682c0.171,0.239,0.281,0.501,0.329,0.786
					c0.048,0.286,0.018,0.608-0.09,0.965c-0.119,0.394-0.29,0.709-0.516,0.946c-0.225,0.236-0.49,0.41-0.795,0.521
					c-0.305,0.111-0.637,0.163-0.996,0.157c-0.359-0.007-0.729-0.063-1.111-0.17l-0.352,1.171l-0.58-0.174l0.359-1.194
					c-0.524-0.198-1.002-0.457-1.432-0.777c-0.431-0.32-0.8-0.697-1.108-1.13l0.891-0.899c0.055,0.114,0.145,0.246,0.27,0.397
					c0.125,0.151,0.277,0.306,0.456,0.466c0.179,0.159,0.382,0.313,0.609,0.463c0.227,0.149,0.469,0.279,0.728,0.389l0.695-2.309
					c-0.04-0.029-0.083-0.056-0.128-0.081c-0.045-0.026-0.088-0.053-0.127-0.081c-0.363-0.223-0.674-0.436-0.933-0.64
					c-0.259-0.204-0.461-0.416-0.604-0.638c-0.144-0.222-0.233-0.457-0.268-0.707c-0.034-0.25-0.005-0.53,0.09-0.843
					c0.11-0.364,0.27-0.669,0.482-0.913c0.211-0.244,0.463-0.435,0.755-0.57c0.292-0.135,0.61-0.214,0.953-0.236
					c0.343-0.023,0.705,0.007,1.086,0.089l0.339-1.127l0.58,0.175l-0.339,1.127c0.475,0.175,0.891,0.406,1.251,0.692
					c0.36,0.286,0.661,0.592,0.904,0.916L126.314,77.975z M122.546,77.158c-0.094,0.312-0.055,0.58,0.118,0.802
					c0.172,0.222,0.464,0.46,0.874,0.713l0.661-2.197c-0.46-0.114-0.827-0.109-1.099,0.016
					C122.826,76.616,122.642,76.838,122.546,77.158z M124.655,81.831c0.098-0.327,0.043-0.614-0.167-0.859
					c-0.21-0.245-0.529-0.506-0.957-0.781l-0.664,2.209c0.478,0.136,0.871,0.157,1.179,0.063
					C124.354,82.368,124.557,82.158,124.655,81.831z"/>
			</g>
			<path fill="#F8F8F8" d="M127.435,88.697c4.416-1.854,7.127-6.571,6.264-11.487c-0.863-4.917-5.017-8.429-9.801-8.668
				L127.435,88.697z"/>
			<path fill="#F8F8F8" d="M122.602,89.491l-3.518-20.051c0.772-0.344,1.598-0.6,2.468-0.753c0.207-0.036,0.413-0.066,0.619-0.09
				l3.62,20.634c-0.202,0.048-0.406,0.09-0.613,0.126C124.308,89.511,123.444,89.552,122.602,89.491z"/>
		</g>
		<g>
			<g>
				<g>
					<path fill="#EEA987" d="M102.597,117.067c-0.444-0.031-1.702-0.156-2.406-0.125c-0.704,0.031-0.971-0.081-0.898-0.536
						c0.004-0.025,0.008-0.049,0.013-0.075c0.086-0.444,0.312-0.996,0.336-1.182c0.025-0.197,0.905-0.041,0.905-0.041
						s0.432,0.65,0.681,0.79c0.249,0.141,1.009,0.441,1.299,0.576c0.021,0.01,0.044,0.02,0.069,0.029h0
						c0.308,0.113,0.838,0.154,0.906,0.311C103.577,116.983,103.042,117.098,102.597,117.067z"/>
				</g>
			</g>
			<path fill="#342F40" d="M100.811,115.375c0,0,0.682,0.746,1.286,0.782c0.604,0.036,1.835,0.303,1.498,0.725
				c-0.288,0.359-1.738,0.224-2.28,0.19c-0.542-0.034-2.338,0.312-2.08-0.701c0.258-1.013,0.205-1.173,0.205-1.173L100.811,115.375z
				"/>
			<g>
				<circle fill="#F8BB66" cx="90.773" cy="71.156" r="10.493"/>
				<path fill="#F8BB66" d="M93.199,81.364l-3.62-20.634c5.477-0.633,10.564,3.111,11.529,8.612
					C102.074,74.843,98.565,80.095,93.199,81.364z"/>
				<path fill="#F8BB66" d="M80.438,72.969c-0.849-4.838,1.763-9.483,6.054-11.396l3.518,20.051
					C85.324,81.286,81.287,77.808,80.438,72.969z"/>
				<circle fill="#F89829" cx="90.773" cy="71.156" r="7.975"/>
				<g>
					<path fill="#F8C681" d="M92.801,69.018c-0.081-0.066-0.196-0.132-0.344-0.199c-0.148-0.067-0.316-0.127-0.506-0.179
						c-0.189-0.053-0.394-0.091-0.614-0.115c-0.22-0.024-0.442-0.026-0.667-0.006l0.377,2.382l0.226,0.011
						c0.43,0.034,0.821,0.087,1.175,0.156c0.353,0.07,0.658,0.175,0.917,0.315c0.258,0.14,0.471,0.329,0.638,0.566
						c0.167,0.237,0.28,0.54,0.338,0.908c0.065,0.407,0.046,0.765-0.054,1.076c-0.1,0.311-0.264,0.582-0.49,0.815
						c-0.227,0.232-0.503,0.424-0.829,0.573c-0.326,0.15-0.684,0.26-1.074,0.329l0.191,1.208l-0.598,0.094l-0.195-1.231
						c-0.558,0.049-1.101,0.023-1.628-0.079c-0.527-0.101-1.023-0.28-1.488-0.537l0.412-1.197c0.099,0.079,0.237,0.159,0.415,0.241
						c0.178,0.082,0.382,0.156,0.613,0.222c0.23,0.066,0.48,0.117,0.75,0.152c0.269,0.036,0.544,0.048,0.825,0.035l-0.377-2.381
						c-0.048-0.008-0.099-0.014-0.15-0.018c-0.052-0.003-0.102-0.009-0.15-0.017c-0.423-0.043-0.796-0.1-1.118-0.171
						c-0.322-0.071-0.596-0.175-0.822-0.312c-0.226-0.137-0.409-0.31-0.548-0.52c-0.14-0.21-0.235-0.476-0.286-0.798
						c-0.06-0.376-0.047-0.72,0.037-1.032c0.084-0.312,0.229-0.592,0.433-0.841c0.204-0.249,0.456-0.457,0.756-0.627
						c0.3-0.169,0.638-0.299,1.017-0.391l-0.184-1.162l0.598-0.095l0.184,1.162c0.503-0.048,0.979-0.022,1.428,0.08
						c0.448,0.102,0.852,0.246,1.212,0.433L92.801,69.018z M89.051,69.918c0.051,0.322,0.202,0.546,0.454,0.671
						c0.252,0.125,0.618,0.213,1.097,0.263l-0.359-2.266c-0.464,0.097-0.792,0.261-0.983,0.492
						C89.069,69.308,89,69.589,89.051,69.918z M92.981,73.212c-0.053-0.337-0.228-0.571-0.524-0.702
						c-0.296-0.13-0.696-0.226-1.201-0.287l0.36,2.278c0.49-0.085,0.853-0.237,1.089-0.455
						C92.943,73.827,93.034,73.549,92.981,73.212z"/>
				</g>
				<path fill="#F8F8F8" d="M94.844,80.83c4.416-1.854,7.127-6.571,6.264-11.487c-0.863-4.917-5.017-8.429-9.801-8.668L94.844,80.83
					z"/>
				<path fill="#F8F8F8" d="M90.01,81.624l-3.518-20.051c0.772-0.344,1.598-0.6,2.468-0.752c0.207-0.036,0.413-0.066,0.619-0.09
					l3.62,20.634c-0.201,0.048-0.406,0.09-0.612,0.127C91.717,81.644,90.853,81.685,90.01,81.624z"/>
			</g>
			<path fill="#FAB99B" d="M97.804,80.12c0,0-0.095-0.554-0.382-0.744c-0.288-0.191-0.787-0.61-0.865-1.05
				c-0.078-0.44,0.448,0.185,0.647,0.351c0.199,0.166,1.068-0.242,1.136-0.212c0.069,0.03,0.189,0.373,0.191,0.638
				c0.002,0.265,0.104,0.758,0.104,0.758S98.769,79.872,97.804,80.12z"/>
			<g>
				<path fill="#EBEBEB" d="M99.741,83.947c-0.082,0.816-0.601,4.489-0.784,5.775c-0.04,0.28-0.064,0.448-0.064,0.448
					s0.071,0.602-1.043,0.064c0,0-0.556-0.556-0.56-1.209c-0.004-0.652,0.364-1.381,0.451-1.648
					c0.086-0.266,0.598-2.998,0.572-3.094c-0.026-0.097-0.358-1.548-0.419-2.485c-0.061-0.936-0.394-2.105-0.394-2.105l1.159-0.227
					C98.659,79.466,99.834,83.015,99.741,83.947z"/>
			</g>
			<path fill="#A1A1A1" d="M98.957,89.722c-0.04,0.28-0.064,0.448-0.064,0.448L97.6,88.865
				C97.628,88.877,98.516,89.296,98.957,89.722z"/>
			<path fill="#342F40" d="M93.029,115.302c0,0,0.05,0.554,0.128,0.709c0.078,0.155,0.274,0.932,0.374,1.08
				c0.1,0.148,0.28,1.233-0.07,1.343c-0.35,0.111-1.169,0.283-1.418-0.16c-0.249-0.443-0.262-0.874-0.202-1.2
				c0.06-0.326,0.465-1.818,0.468-1.967C92.312,114.958,93.029,115.302,93.029,115.302z"/>
			<path fill="#6B4069" d="M95,96.694c0,0-0.867,0.993-1.189,1.664c-0.323,0.67-0.879,2.147-0.876,3.314
				c0.003,1.167,0.272,3.37,0.134,3.858c-0.137,0.488-0.302,1.502-0.44,1.846c-0.138,0.344-0.669,1.339-0.772,2.388
				c-0.103,1.049,0.045,5.683-0.009,6.112c-0.054,0.428,1.384,0.24,1.384,0.24s0.253-4.157,0.45-4.866
				c0.197-0.709,0.515-3.137,0.668-3.304c0.153-0.168,0.651-1.995,0.693-2.296c0.04-0.29,2.009-5.256,2.149-6.111
				c0.141-0.855,2.172-2.583,2.172-2.583S97.511,96.022,95,96.694z"/>
			<path fill="#6B4069" d="M99.332,115.419c-0.3-0.063-0.868-4.766-0.729-5.59c0.139-0.824,0.327-2.585,0.093-3.317
				c-0.153-0.481-1.139-2.937-1.798-4.659c-0.093-0.243-0.179-0.471-0.257-0.678c-0.208-0.56-0.345-0.956-0.345-1.037
				c0.001-0.32-0.797-5.861,3.18-3.205c0,0,0.064,0.434,0.103,0.596c0.039,0.162,0.927,4.283,0.957,5.85
				c0.03,1.567,0.248,2.907,0.278,3.243c0.031,0.336-0.123,1.447-0.234,1.728c-0.11,0.282,0.269,6.796,0.309,6.957
				C100.929,115.469,99.632,115.482,99.332,115.419z"/>
			<path fill="#FAB99B" d="M88.249,82.146c0,0-0.187-0.53-0.029-0.836c0.158-0.306,0.39-0.916,0.244-1.338
				c-0.146-0.422-0.301,0.38-0.394,0.621c-0.093,0.242-1.05,0.309-1.095,0.369c-0.045,0.059,0.017,0.418,0.144,0.65
				c0.128,0.232,0.279,0.712,0.279,0.712S87.285,82.4,88.249,82.146z"/>
			<g>
				<path fill="#EBEBEB" d="M96.028,88.35c0,0,1.031,0.257,1.302,0.263c0.27,0.006,1.301,1.108,1.563,1.557
					c0.263,0.449,0.213,1.201-0.003,2.112c-0.216,0.911,0.179,1.132,0.162,2.008c-0.017,0.876,0.478,2.657,0.593,3.122
					c0.115,0.465-4.651,1.29-5.774,0.606c0,0,0.918-1.582,1.006-1.813c0.089-0.231-0.218-1.352-0.384-1.624
					c-0.167-0.272-1.37-2.466-1.37-2.466s-0.966-1.957-0.479-2.496c0.424-0.468,1.738-0.841,1.963-0.967
					C94.832,88.524,95.525,88.363,96.028,88.35z"/>
			</g>
			<g>
				<path fill="#FAB99B" d="M94.134,83.18c0.419-0.236,1.993-0.913,2.751,1.118c0.759,2.031-0.136,3.73-1.272,3.522
					c-1.136-0.208-2.051-1.544-2.31-2.64C93.044,84.084,93.604,83.478,94.134,83.18z"/>
			</g>
			<g>
				<path fill="#252E3B" d="M96.885,84.298c0,0-0.238-1.811-2.035-1.558c-1.798,0.254-2.017,1.81-1.681,2.856
					c0.336,1.046,1.176,1.481,1.176,1.481s-0.218-0.856,0.089-1.142c0.306-0.287,1.616-0.982,2.037-2.134
					C96.47,83.8,96.81,84.08,96.885,84.298z"/>
			</g>
			<g>
				
					<ellipse transform="matrix(0.9184 -0.3957 0.3957 0.9184 -26.253 43.8905)" fill="#252E3B" cx="93.259" cy="85.58" rx="1.211" ry="1.385"/>
			</g>
			<g>
				<path fill="#FAB99B" d="M96.234,87.418c0,0,0.094,1.406,0.205,1.85c0,0-0.643,0.922-1.832-0.618c0,0,0.25-0.766-0.2-1.669
					C93.956,86.077,96.234,87.418,96.234,87.418z"/>
			</g>
			<g>
				<polygon fill="#EEA886" points="96.439,89.268 96.566,89.984 95.547,89.471 				"/>
			</g>
			<g>
				<path fill="#FAB99B" d="M94.545,85.522c-0.094-0.154-0.32-0.161-0.428-0.045c-0.109,0.116-0.132,0.411,0.131,0.742
					C94.512,86.55,95.257,86.68,94.545,85.522z"/>
			</g>
			<g>
				<path fill="#EBEBEB" d="M95.2,92.778c0,0-0.879,1.101-1.618,0.16c-0.779-0.993-1.171-1.488-1.438-1.938
					c-0.252-0.425-1.991-2.848-2.074-2.963c-0.083-0.115-0.986-1.706-1.254-2.31c-0.205-0.459-1.647-3.276-1.716-3.386
					c-0.068-0.109,1.312-0.568,1.312-0.568s1.475,2.789,1.627,3.071c0.152,0.282,0.825,1.72,1.148,2.09
					c0.379,0.435,1.824,2.285,2.076,2.308C93.561,89.27,95.816,92.148,95.2,92.778z"/>
			</g>
			<g>
				<path fill="#A77860" d="M96.256,87.727l0.023,0.277c0,0-0.6,0.231-1.589-0.617C94.69,87.387,95.391,87.988,96.256,87.727z"/>
			</g>
			<path fill="#EBEBEB" d="M94.668,88.294c0,0,0.846,0.195,1.623-0.152l0.14,0.392l0.288,1.622c0,0-1.69-0.844-1.697-0.899
				c-0.007-0.056-0.464-0.582-0.464-0.582L94.668,88.294z"/>
		</g>
		<g>
			<circle fill="#F8BB66" cx="21.728" cy="101.189" r="10.493"/>
			<path fill="#F8BB66" d="M24.154,111.398l-3.62-20.634c5.477-0.633,10.564,3.111,11.529,8.612
				C33.028,104.877,29.519,110.128,24.154,111.398z"/>
			<path fill="#F8BB66" d="M11.392,103.003c-0.849-4.838,1.763-9.483,6.054-11.396l3.518,20.051
				C16.278,111.319,12.241,107.841,11.392,103.003z"/>
			<circle fill="#F89829" cx="21.728" cy="101.189" r="7.975"/>
			<g>
				<path fill="#F8C681" d="M22.098,98.421c-0.104-0.013-0.236-0.008-0.397,0.014c-0.161,0.022-0.336,0.061-0.524,0.117
					c-0.188,0.056-0.382,0.132-0.581,0.229c-0.199,0.097-0.389,0.213-0.569,0.349l1.585,1.816l0.197-0.11
					c0.382-0.2,0.742-0.364,1.078-0.493c0.336-0.128,0.651-0.202,0.944-0.221c0.293-0.019,0.573,0.028,0.841,0.139
					c0.268,0.112,0.524,0.308,0.769,0.589c0.271,0.31,0.446,0.623,0.526,0.94c0.08,0.317,0.086,0.633,0.018,0.95
					c-0.069,0.318-0.201,0.626-0.397,0.927c-0.197,0.3-0.442,0.584-0.735,0.85l0.804,0.921l-0.456,0.398l-0.82-0.939
					c-0.447,0.338-0.92,0.605-1.42,0.799c-0.5,0.195-1.016,0.307-1.546,0.337l-0.288-1.233c0.125,0.014,0.285,0.008,0.479-0.017
					c0.195-0.025,0.407-0.072,0.637-0.138c0.23-0.067,0.469-0.157,0.716-0.269c0.247-0.113,0.486-0.249,0.717-0.41l-1.585-1.816
					c-0.045,0.019-0.091,0.04-0.137,0.065c-0.046,0.024-0.091,0.046-0.137,0.065c-0.381,0.189-0.727,0.339-1.037,0.45
					c-0.31,0.111-0.597,0.169-0.862,0.173c-0.264,0.004-0.511-0.046-0.741-0.149c-0.23-0.103-0.452-0.278-0.666-0.524
					c-0.25-0.286-0.423-0.584-0.517-0.894c-0.095-0.309-0.122-0.623-0.081-0.942c0.041-0.32,0.143-0.63,0.307-0.933
					c0.164-0.303,0.381-0.594,0.654-0.872l-0.774-0.886l0.456-0.398l0.773,0.886c0.401-0.308,0.818-0.539,1.252-0.691
					c0.434-0.152,0.853-0.244,1.257-0.278L22.098,98.421z M19.401,101.177c0.215,0.245,0.462,0.354,0.742,0.327
					c0.279-0.028,0.636-0.148,1.069-0.361l-1.509-1.729c-0.342,0.329-0.532,0.642-0.572,0.939
					C19.092,100.651,19.182,100.926,19.401,101.177z M24.481,101.877c-0.225-0.257-0.497-0.363-0.817-0.315
					c-0.32,0.047-0.709,0.179-1.17,0.395l1.517,1.738c0.37-0.333,0.596-0.655,0.681-0.966
					C24.775,102.418,24.705,102.134,24.481,101.877z"/>
			</g>
			<path fill="#F8F8F8" d="M25.798,110.863c4.416-1.853,7.127-6.57,6.265-11.487c-0.863-4.917-5.018-8.429-9.801-8.668
				L25.798,110.863z"/>
			<path fill="#F8F8F8" d="M20.965,111.657l-3.518-20.051c0.772-0.344,1.598-0.6,2.468-0.753c0.207-0.036,0.413-0.066,0.619-0.09
				l3.62,20.634c-0.202,0.048-0.406,0.09-0.613,0.126C22.671,111.677,21.807,111.718,20.965,111.657z"/>
			<g>
				<g>
					<g>
						<g>
							<g>
								<path fill="#EEA886" d="M22.792,90.558c0,0,0.009,0.15-0.019,0.217c0,0-0.06,0.119-0.098,0.205
									c-0.012,0.028-0.022,0.052-0.026,0.069c-0.019,0.068-0.042,0.224-0.135,0.375c-0.093,0.151-0.66,0.699-0.66,0.699
									l-0.383-0.223l-0.388-0.157c0,0,0.01-1.085,0.08-1.235c0.007-0.014,0.014-0.029,0.022-0.042
									c0.072-0.122,0.176-0.182,0.221-0.242c0.017-0.022,0.197-0.227,0.278-0.225c0.113,0.003,0.191,0.051,0.232,0.117
									c0,0,0.222,0.015,0.33,0.118c0,0,0.205,0.008,0.303,0.174C22.549,90.409,22.755,90.44,22.792,90.558z"/>
							</g>
						</g>
					</g>
				</g>
			</g>
			<g>
				<path fill="#424773" d="M10.804,115.878c0,0-0.104,0.721-0.117,0.829c-0.013,0.109-1.156-0.064-1.156-0.064l-0.092-0.859
					C9.439,115.785,10.661,115.776,10.804,115.878z"/>
			</g>
			<g>
				<path fill="#292C47" d="M10.699,116.615c0,0,0.363,0.435,0.713,0.624c0.35,0.19,0.901,0.265,1.108,0.461
					c0.15,0.142,0.545,0.751-0.91,0.739c-1.455-0.012-2.156,0.086-2.312-0.147c-0.156-0.234,0.226-1.725,0.226-1.725
					S9.868,116.69,10.699,116.615z"/>
			</g>
			<g>
				<path fill="#424773" d="M18.996,115.878c0,0-0.104,0.721-0.117,0.829c-0.013,0.109-1.156-0.064-1.156-0.064l-0.093-0.859
					C17.63,115.785,18.852,115.776,18.996,115.878z"/>
			</g>
			<g>
				<path fill="#292C47" d="M18.891,116.615c0,0,0.362,0.435,0.712,0.624c0.35,0.19,1.64,0.345,1.847,0.541
					c0.149,0.141,0.398,0.711-1.649,0.658c-1.455-0.038-2.157,0.086-2.312-0.147c-0.156-0.234,0.225-1.725,0.225-1.725
					S18.038,116.699,18.891,116.615z"/>
			</g>
			<g>
				<path fill="#292C47" d="M11.751,97.341c0,0-1.074,1.707-0.994,3.249c0.08,1.543-0.389,3.227-0.551,4.839
					c-0.18,1.796-0.916,6.05-0.943,7.01c-0.026,0.961,0.114,4.03,0.114,4.03l1.474,0.034c0,0,1.238-7.436,1.558-8.194
					c0.32-0.759,1.91-6.167,1.963-6.774C14.427,100.927,11.751,97.341,11.751,97.341z"/>
			</g>
			<g>
				<path fill="#292C47" d="M17.405,97.572c0,0,0.453,2.054,0.56,2.998c0.107,0.944,0.535,6.744,0.588,7.334
					c0.053,0.59,0.356,7.722,0.641,8.599H17.31c0,0-1.446-5.185-1.446-7.638c0-2.453-1.117-5.333-1.839-6.952
					c-0.721-1.619-2.372-1.657-2.815-4.66C11.211,97.254,16.805,96.62,17.405,97.572z"/>
			</g>
			<g>
				<path fill="#EEA886" d="M13.543,82.993c0,0,1.442-0.538,2.107,0.559c0.665,1.098,0.601,3.295-0.126,3.565
					c-0.727,0.27-1.819,0.129-2.191-0.558c-0.372-0.686-0.708-1.679-0.692-2.343C12.658,83.552,13.165,83.185,13.543,82.993z"/>
			</g>
			<g>
				<path fill="#EEA886" d="M15.368,87.167c0,0-0.06,0.39,0.039,0.581c0.099,0.192-1.868,0.197-1.868,0.197s-0.16-1.043-0.462-1.924
					C12.774,85.139,15.368,87.167,15.368,87.167z"/>
			</g>
			<g>
				<path fill="#3A3F47" d="M13.077,86.021c0,0,0.135,0.224,0.69,0.137c0.554-0.087,1.23-0.824,1.462-0.905
					c0.231-0.081,0.233-0.217,0.233-0.217l0.145,0.212l0.246,0.015c0,0-0.224-0.66,0.114-0.929c0.338-0.269-0.351-2.135-2.128-1.514
					c0,0-1.365,0.377-1.315,1.153C12.572,84.75,12.771,85.634,13.077,86.021z"/>
			</g>
			<g>
				<path fill="#E2D2CA" d="M15.523,87.725c0,0-0.006-0.366-0.172-0.401c-0.166-0.035-1.833-0.195-2.037-0.115v0.427
					C13.314,87.635,13.707,87.877,15.523,87.725z"/>
			</g>
			<g>
				<path fill="#EEA886" d="M15.425,84.753c-0.031-0.13-0.362-0.502-0.489-0.103c-0.127,0.398,0.192,0.934,0.369,0.888
					C15.483,85.492,15.503,85.083,15.425,84.753z"/>
			</g>
			<g>
				<path fill="#323657" d="M22.139,92.054c-0.001,0-0.002,0-0.002,0C22.148,92.058,22.149,92.059,22.139,92.054z"/>
			</g>
			<g>
				<path fill="#323657" d="M10.753,100.43c0,0,0.905,0.563,2.412,0.729c1.508,0.166,4.776-0.411,4.8-0.589
					c0.024-0.178-0.581-4.594-0.533-4.927c0.047-0.332-0.07-2.737-0.07-2.737c0.019,0.324,0.527,1.856,0.926,2.579
					c0.144,0.261,0.628,1.079,0.861,0.893c1.128-0.901,2.8-4.105,2.911-4.134c-0.093-0.04-0.907-0.925-1.011-0.959
					c-0.09-0.03-0.749,1.186-1.242,1.721c-0.22,0.239-0.376,0.411-0.376,0.411c-0.142-0.32-0.785-2.251-0.971-2.943
					c-0.45-1.675-0.572-1.778-0.572-1.778c-0.104-0.399-2.365-0.971-2.365-0.971l-2.209-0.09c0,0-2.028,0.446-2.826,0.807
					c-0.076,0.034-0.076,1.809-0.284,2.275l0.662,1.396c0,0,0.086,2.722,0.166,3.952C11.068,96.63,10.753,100.43,10.753,100.43z"/>
			</g>
			<g>
				<path fill="#323657" d="M9.939,93.479c0.064,0.207,0.226,0.62,0.415,0.696c0.122,0.049,0.469,0.064,0.625,0.056l0.156-0.027l0,0
					l1.651-0.495c0,0,0.369-4.249-2.303-5.267C10.412,88.465,9.348,91.576,9.939,93.479z"/>
			</g>
			<g>
				<path fill="#22243B" d="M19.431,93.418l0.188,1.152c0,0,0.198-1.155,0.188-1.564C19.587,93.245,19.431,93.418,19.431,93.418z"/>
			</g>
			<g>
				<path fill="#3A3F47" d="M13.133,83.122c0,0-1.708,0.367-0.032,2.938L13.133,83.122z"/>
			</g>
		</g>
		<path fill="#D44040" d="M134.846,90.921c0,0-0.893,2.687-0.873,3.327C133.993,94.887,133.478,91.121,134.846,90.921z"/>
		<g>
			<g>
				<g>
					<g>
						<path fill="#D44040" d="M128.506,91.914c0,0-0.111,0.371-0.321,0.818v0c-0.077,0.163-0.167,0.336-0.27,0.505
							c-0.018,0.029-0.036,0.059-0.055,0.088c-0.073,0.113-0.151,0.223-0.236,0.326c-0.265,0.323-0.587,0.569-0.959,0.596
							c-0.763,0.056-3.504-4.134-3.504-4.134l1.309-0.595c0,0,1.735,2.505,2.004,2.367c0.27-0.138,0.548-1.155,0.548-1.155
							c0.319-0.176,0.805,0.311,1.133,0.713c0.021,0.026,0.042,0.052,0.062,0.077C128.391,91.738,128.506,91.914,128.506,91.914z"/>
					</g>
				</g>
			</g>
		</g>
		<g>
			<g>
				<g>
					<g>
						<path fill="#D44040" d="M134.123,98.993c-1.484,1.329-6.226,0.888-6.226,0.888c0.069-0.164,0.549-5.107,0.381-6.224
							c-0.168-1.117-0.073-2.066-0.222-2.109c-0.149-0.043-1.169-0.399-1.169-0.399s0.543-1.724,0.77-2.098
							c0.227-0.374,1.851-0.92,1.851-0.92s1.261-0.452,2.599-0.294c2.235,0.264,2.503,0.922,2.503,0.922l-0.519,3.32
							c0,0-0.001,0.012-0.002,0.036c-0.003,0.075-0.009,0.26-0.018,0.517c-0.038,1.067-0.117,3.352-0.129,3.896
							C133.925,97.403,134.123,98.993,134.123,98.993z"/>
					</g>
				</g>
			</g>
		</g>
		<g>
			<g>
				<g>
					<g>
						<path fill="#EEA987" d="M132.486,87.888c-0.092,0.168-0.2,0.324-0.298,0.452c-0.698,0.899-1.507,0.868-1.507,0.868
							c-0.495-0.043-0.758-0.364-0.896-0.651c-0.12-0.249-0.157-0.464-0.157-0.464l0.308-0.116c0.023-0.075,0.037-0.181,0.043-0.298
							c0.004-0.063,0.006-0.13,0.007-0.198c0-0.059-0.001-0.119-0.002-0.177c-0.001-0.023-0.001-0.047-0.002-0.07
							c-0.009-0.25-0.028-0.459-0.028-0.459s2.117-1.144,1.944-0.337c-0.079,0.369-0.066,0.658-0.013,0.872
							c0.063,0.254,0.183,0.401,0.274,0.445C132.358,87.851,132.486,87.888,132.486,87.888z"/>
					</g>
				</g>
			</g>
		</g>
		<path fill="#EEA886" d="M126.395,89.528c0,0-0.117-0.104-0.13-0.229c-0.023-0.215,0.192-0.493-0.055-0.689
			c-0.248-0.196-1.135,0.402-1.225,0.588c-0.091,0.185,0.152,0.547,0.723,0.894C126.278,90.437,126.395,89.528,126.395,89.528z"/>
		<path fill="#EEA886" d="M126.283,88.687c0,0-0.206-0.415-0.496-0.848c-0.254-0.38-0.611-0.783-0.715-0.714
			c-0.141,0.095,0.181,0.379,0.406,0.773c0.207,0.363,0.101,0.327,0.101,0.327s0.031,0.008-0.277-0.342
			c-0.331-0.377-0.735-0.777-0.829-0.694c-0.059,0.052-0.071,0.053,0.025,0.21c-0.076-0.078-0.109-0.068-0.147-0.04
			c-0.197,0.147,0.196,0.776,0.353,1.026c-0.122-0.191-0.232-0.319-0.295-0.156c-0.071,0.187,0.528,1.052,0.71,1.382
			C125.319,89.972,126.283,88.687,126.283,88.687z"/>
		<g>
			<path fill="#D44040" d="M134.796,91.309c0.959-1.168-0.261-2.649-0.261-2.649c-0.702-0.598-2.205,1.945-2.398,2.191
				c-0.194,0.245-1.663,1.558-2.073,2.002c-0.209,0.226-1.088-0.739-1.492-1.123c-0.242-0.231-2.13-2.445-2.13-2.445
				s-1.3,0.939-1.191,0.859c0.109-0.079,3.849,4.817,4.543,4.854C129.794,94.998,132.48,94.129,134.796,91.309z"/>
		</g>
		<path fill="#942D2D" d="M127.915,93.237c-0.018,0.029-0.036,0.059-0.055,0.088c-0.073,0.113-0.151,0.223-0.236,0.326
			c-0.18-0.215-0.862-1.756-0.873-1.78L127.915,93.237z"/>
		<path fill="#942D2D" d="M133.742,92.447c0,0-1.203,1.078-1.855,1.477c-0.653,0.399-1.742,0.942-1.864,0.989
			C130.023,94.913,132.909,94.35,133.742,92.447z"/>
		<g>
			<path fill="#EEA886" d="M128.829,83.819c0,0-0.459,0.852-0.232,0.985c0.188,0.11-0.221,0.946-0.274,1.082
				c-0.053,0.137,0.341,0.236,0.425,0.324c0.084,0.088,0.332,1.17,0.657,1.203c0.325,0.033,1.789-0.476,2.187-0.891
				c0.399-0.414,0.726-2.286,0.46-3.075C131.786,82.657,129.641,82.331,128.829,83.819z"/>
		</g>
		<g>
			<path fill="#252E3B" d="M128.738,84.004c0,0-0.469-0.921,0.383-1.603c0.852-0.683,2.424,0.516,2.601,0.561
				c0.177,0.046,1.182,0.114,0.675,1.879c-0.435,1.515-0.496,1.579-0.496,1.579s-0.325-0.878-0.509-1.012
				c-0.288-0.209-0.919-0.159-0.919-0.159s0.3-0.798-0.169-0.911C129.832,84.226,129.213,83.828,128.738,84.004z"/>
		</g>
		<g>
			<path fill="#EEA886" d="M130.972,84.793c0.042-0.11,0.175-0.58,0.579-0.304c0.404,0.277-0.252,1.163-0.322,1.175
				C131.159,85.676,130.623,85.714,130.972,84.793z"/>
		</g>
		<path fill="#A77860" d="M131.55,86.563c0,0-0.344,0.679-1.572,1.115c0.004-0.063,0.006-0.13,0.007-0.198
			c0-0.059-0.001-0.119-0.002-0.177C129.982,87.303,130.929,87.044,131.55,86.563z"/>
	</g>
</g>
</svg>
