<?xml version="1.0" encoding="utf-8"?>
<!-- Generator: Adobe Illustrator 17.0.0, SVG Export Plug-In . SVG Version: 6.00 Build 0)  -->
<!DOCTYPE svg PUBLIC "-//W3C//DTD SVG 1.1//EN" "http://www.w3.org/Graphics/SVG/1.1/DTD/svg11.dtd">
<svg version="1.1" id="Layer_1" xmlns="http://www.w3.org/2000/svg" xmlns:xlink="http://www.w3.org/1999/xlink" x="0px" y="0px"
	 width="144px" height="144px" viewBox="0 0 144 144" enable-background="new 0 0 144 144" xml:space="preserve">
<g>
	<path fill="#ffffff" d="M71.959,143.997c-19.73,0-39.46-0.003-59.19,0.003c-3.413,0.001-6.629-0.543-9.256-2.988
		c-2.003-1.864-3.006-4.206-3.35-6.861c-0.12-0.926-0.155-1.869-0.155-2.804C0.001,94.751,0.004,58.154,0,21.558
		c0-3.411,0.533-6.635,2.966-9.267c1.895-2.05,4.281-3.076,7.001-3.39c0.98-0.113,1.973-0.144,2.961-0.144
		c39.408-0.007,78.815-0.002,118.223-0.012c3.471-0.001,6.735,0.534,9.387,3.045c1.985,1.879,2.986,4.22,3.307,6.88
		c0.112,0.927,0.145,1.869,0.145,2.804c0.007,36.597,0.003,73.193,0.011,109.79c0.001,3.365-0.556,6.528-2.918,9.129
		c-1.874,2.064-4.252,3.125-6.973,3.448c-1.082,0.129-2.181,0.15-3.272,0.15C111.21,144,91.584,143.997,71.959,143.997z
		 M72.156,139.492c19.521,0,39.042,0,58.564,0c0.521,0,1.041,0.003,1.562-0.004c4.681-0.071,7.191-2.599,7.192-7.322
		c0.007-37.169,0.004-74.337,0.004-111.506c0-0.312,0-0.625-0.015-0.937c-0.186-3.737-2.604-6.205-6.325-6.432
		c-0.778-0.048-1.561-0.034-2.342-0.034c-25.248-0.002-50.495-0.001-75.743-0.001c-14.264,0-28.527-0.012-42.791,0.022
		c-1.228,0.003-2.525,0.116-3.669,0.521c-2.808,0.994-4.072,3.303-4.072,7.014c-0.003,36.96-0.002,73.921,0,110.881
		c0,0.52-0.007,1.043,0.034,1.561c0.282,3.608,2.623,5.943,6.227,6.195c0.829,0.058,1.665,0.041,2.498,0.041
		C32.906,139.492,52.531,139.492,72.156,139.492z"/>
	<path fill="#ffffff" d="M71.841,132.284c-18.74,0-37.48,0-56.221,0c-2.234,0-2.272-0.036-2.272-2.273
		c-0.001-30.036-0.001-60.073,0-90.109c0-2.201,0.049-2.247,2.299-2.247c37.585-0.001,75.169-0.001,112.754,0
		c2.22,0,2.28,0.059,2.281,2.275c0.001,30.036,0.001,60.073,0,90.109c0,2.194-0.054,2.244-2.308,2.244
		C109.53,132.284,90.686,132.284,71.841,132.284z M126.072,42.202c-36.077,0-72.07,0-108.113,0c0,28.531,0,56.969,0,85.422
		c36.101,0,72.083,0,108.113,0C126.072,99.094,126.072,70.695,126.072,42.202z"/>
	<path fill="#ffffff" d="M91.37,29.822c-11.811,0-23.622,0.01-35.433-0.024c-0.71-0.002-1.934-0.211-2.032-0.567
		c-0.275-1.002-0.129-2.135-0.04-3.207c0.015-0.182,0.56-0.389,0.887-0.456c0.4-0.082,0.828-0.035,1.244-0.035
		c23.57-0.001,47.14-0.001,70.709,0c2.308,0,3.241,1.292,2.323,3.466c-0.187,0.443-1.149,0.781-1.759,0.789
		c-4.89,0.063-9.781,0.035-14.672,0.035C105.523,29.822,98.446,29.822,91.37,29.822z"/>
	<path fill="#ffffff" d="M37.758,20.419c4.063,0.001,7.377,3.307,7.351,7.332c-0.025,3.953-3.487,7.372-7.425,7.333
		c-4.039-0.04-7.31-3.361-7.299-7.41C30.395,23.547,33.576,20.417,37.758,20.419z M37.772,30.567
		c1.578-0.035,2.807-1.335,2.773-2.932c-0.034-1.595-1.316-2.835-2.895-2.8c-1.533,0.033-2.824,1.386-2.801,2.934
		C34.873,29.316,36.216,30.602,37.772,30.567z"/>
	<path fill="#ffffff" d="M20.746,20.422c4.146,0.018,7.282,3.214,7.232,7.371c-0.048,4.07-3.378,7.347-7.408,7.292
		c-3.972-0.055-7.332-3.488-7.291-7.45C13.323,23.603,16.634,20.404,20.746,20.422z M20.714,24.838
		c-1.529-0.02-2.917,1.301-2.954,2.814c-0.038,1.518,1.287,2.872,2.849,2.914c1.568,0.041,2.897-1.228,2.933-2.799
		C23.576,26.258,22.224,24.858,20.714,24.838z"/>
	<path fill="#ffffff" d="M98.168,121.039c-6.66,0-13.321,0.002-19.981-0.001c-1.93-0.001-2.052-0.117-2.053-2.019
		c-0.005-9.314,0.021-18.628-0.026-27.942c-0.008-1.477,0.461-2.017,1.973-2.013c13.373,0.041,26.746,0.041,40.118,0
		c1.473-0.004,1.992,0.446,1.982,1.964c-0.057,9.314-0.026,18.628-0.031,27.942c-0.001,1.994-0.085,2.067-2.157,2.068
		C111.384,121.041,104.776,121.039,98.168,121.039z M80.858,93.561c0,7.755,0,15.364,0,22.923c11.656,0,23.175,0,34.669,0
		c0-7.709,0-15.286,0-22.923C103.931,93.561,92.441,93.561,80.858,93.561z"/>
	<path fill="#ffffff" d="M46.5,73.54c-7.13,0-14.259,0.002-21.389-0.002c-1.94-0.001-2.053-0.108-2.055-2.009
		c-0.005-7.026,0.027-14.051-0.026-21.076c-0.011-1.465,0.44-2.027,1.963-2.023c14.415,0.041,28.831,0.038,43.246,0.003
		c1.448-0.004,2.022,0.408,2.008,1.949c-0.067,7.025-0.025,14.051-0.032,21.076c-0.002,1.96-0.136,2.08-2.171,2.081
		C60.863,73.541,53.681,73.54,46.5,73.54z M27.695,53.006c0,5.46,0,10.744,0,16.062c12.718,0,25.332,0,37.944,0
		c0-5.424,0-10.747,0-16.062C52.936,53.006,40.358,53.006,27.695,53.006z"/>
	<path fill="#ffffff" d="M39.529,110.016c-0.261-0.858-0.42-1.765-0.801-2.567c-1.688-3.552-3.674-7-4.095-11.002
		c-0.098-0.932,0.285-1.914,0.448-2.873c0.186-1.091,0.562-2.188,0.524-3.271c-0.113-3.203-0.466-6.521,2.241-8.879
		c3.269-2.847,7.042-4.618,11.565-3.971c5.359,0.767,9.144,3.832,10.25,8.288c0.281,1.132,0.181,2.113-0.452,3.245
		c-0.817,1.459-1.451,3.028-0.718,4.962c1.023,2.701-0.151,5.332-1.187,7.816c-0.933,2.237-2.19,4.338-3.18,6.554
		c-0.235,0.526,0.025,1.272,0.058,1.917c0.154-0.108,0.308-0.215,0.462-0.323c0.864,0.794,1.666,1.672,2.607,2.362
		c1.267,0.929,2.541,2.007,3.989,2.498c3.322,1.125,6.114,2.835,8.076,5.785c0.201,0.303,0.417,0.599,0.587,0.919
		c0.507,0.955,0.433,1.862-0.508,2.463c-0.92,0.588-1.906,0.419-2.446-0.524c-1.726-3.019-4.481-4.451-7.651-5.482
		c-1.388-0.452-2.683-1.358-3.85-2.274c-0.989-0.776-1.612-2.054-3.171-1.852c-0.162,0.021-0.377-0.163-0.53-0.296
		c-1.251-1.084-1.608-5.849-0.727-7.229c0.826-1.294,1.384-2.757,2.09-4.129c0.341-0.663,0.66-1.371,1.147-1.916
		c1.062-1.187,1.008-4.66,0.027-5.979c-0.369-0.496-0.419-1.467-0.223-2.101c0.572-1.852,1.38-3.631,2.002-5.47
		c0.127-0.375-0.078-0.918-0.253-1.332c-0.755-1.779-2.145-3.006-3.906-3.6c-3.193-1.078-6.401-1.447-9.326,0.874
		c-0.355,0.282-0.93,0.309-1.243,0.618c-0.711,0.701-1.797,1.454-1.883,2.275c-0.23,2.192-0.133,4.443,0.08,6.646
		c0.099,1.025,0.178,1.801-0.726,2.469c-0.275,0.203-0.551,0.672-0.514,0.984c0.208,1.788-0.254,3.781,1.516,5.137
		c0.283,0.217,0.317,0.745,0.494,1.115c0.731,1.527,1.54,3.02,2.185,4.582c0.35,0.848,0.584,1.81,0.579,2.719
		c-0.005,0.857-0.449,1.702-0.597,2.57c-0.24,1.41-0.835,2.309-2.447,2.23c-0.346-0.017-0.838,0.255-1.046,0.548
		c-1.442,2.025-3.539,3.025-5.797,3.728c-2.745,0.854-4.933,2.369-6.448,4.85c-0.641,1.05-1.615,1.598-2.755,0.796
		c-1.149-0.809-0.858-1.896-0.197-2.895c1.834-2.773,4.244-4.839,7.447-5.87c2.262-0.728,4.364-1.591,5.669-3.818
		c0.348-0.595,1.348-0.807,2.049-1.195C39.139,110.082,39.334,110.049,39.529,110.016z"/>
	<path fill="#ffffff" d="M97.924,73.526c-6.083,0-12.167-0.031-18.249,0.023c-1.437,0.013-2.096-0.383-2.043-1.937
		c0.077-2.238,0.114-2.443,2.002-2.447c12.27-0.023,24.54-0.025,36.811-0.014c1.763,0.002,2.314,0.548,2.26,2.029
		c-0.075,2.054-0.362,2.344-2.375,2.345C110.194,73.528,104.059,73.526,97.924,73.526z"/>
	<path fill="#ffffff" d="M98.137,58.872c6.081,0,12.161-0.002,18.242,0.001c1.966,0.001,2.296,0.322,2.31,2.207
		c0.012,1.558-0.585,2.15-2.358,2.163c-3.898,0.028-7.796,0.011-11.694,0.011c-8.315,0-16.631,0.002-24.946-0.002
		c-1.923-0.001-2.018-0.116-2.017-2.213c0.002-2.058,0.095-2.164,2.065-2.165C85.872,58.87,92.004,58.872,98.137,58.872z"/>
	<path fill="#ffffff" d="M98.116,52.705c-6.133,0-12.266,0.004-18.399-0.002c-1.909-0.002-2.034-0.139-2.043-2.043
		c-0.009-2.043,0.148-2.236,2.025-2.237c12.266-0.006,24.532-0.012,36.797,0.022c0.661,0.002,1.817,0.262,1.889,0.59
		c0.226,1.024,0.152,2.161-0.062,3.201c-0.053,0.259-1.075,0.447-1.653,0.45C110.486,52.717,104.301,52.705,98.116,52.705z"/>
	<path fill="#ffffff" d="M98.03,83.906c-6.143,0-12.285,0.004-18.428-0.003c-1.839-0.002-1.958-0.145-1.958-2.121
		c0-1.888,0.174-2.089,2.017-2.09c12.285-0.007,24.57-0.007,36.856,0c1.919,0.001,2.033,0.149,2.021,2.22
		c-0.011,1.885-0.112,1.991-2.08,1.992C110.315,83.909,104.173,83.906,98.03,83.906z"/>
</g>
</svg>
