<?xml version="1.0" encoding="utf-8"?>
<!-- Generator: Adobe Illustrator 23.0.3, SVG Export Plug-In . SVG Version: 6.00 Build 0)  -->
<svg version="1.1" id="Layer_1" xmlns="http://www.w3.org/2000/svg" xmlns:xlink="http://www.w3.org/1999/xlink" x="0px" y="0px"
	 viewBox="0 0 144 144" style="enable-background:new 0 0 144 144;" xml:space="preserve">
<style type="text/css">
	.st0{fill:#02D463;}
</style>
<g>
	<path class="st0" d="M72,144c-19.7,0-39.5,0-59.2,0c-3.4,0-6.6-0.5-9.3-3c-2-1.9-3-4.2-3.3-6.9C0,133.2,0,132.3,0,131.3
		C0,94.8,0,58.2,0,21.6c0-3.4,0.5-6.6,3-9.3c1.9-2.1,4.3-3.1,7-3.4c1-0.1,2-0.1,3-0.1c39.4,0,78.8,0,118.2,0c3.5,0,6.7,0.5,9.4,3
		c2,1.9,3,4.2,3.3,6.9c0.1,0.9,0.1,1.9,0.1,2.8c0,36.6,0,73.2,0,109.8c0,3.4-0.6,6.5-2.9,9.1c-1.9,2.1-4.3,3.1-7,3.4
		c-1.1,0.1-2.2,0.1-3.3,0.1C111.2,144,91.6,144,72,144z M72.2,139.5c19.5,0,39,0,58.6,0c0.5,0,1,0,1.6,0c4.7-0.1,7.2-2.6,7.2-7.3
		c0-37.2,0-74.3,0-111.5c0-0.3,0-0.6,0-0.9c-0.2-3.7-2.6-6.2-6.3-6.4c-0.8,0-1.6,0-2.3,0c-25.2,0-50.5,0-75.7,0
		c-14.3,0-28.5,0-42.8,0c-1.2,0-2.5,0.1-3.7,0.5c-2.8,1-4.1,3.3-4.1,7c0,37,0,73.9,0,110.9c0,0.5,0,1,0,1.6c0.3,3.6,2.6,5.9,6.2,6.2
		c0.8,0.1,1.7,0,2.5,0C32.9,139.5,52.5,139.5,72.2,139.5z"/>
	<path class="st0" d="M71.8,132.3c-18.7,0-37.5,0-56.2,0c-2.2,0-2.3,0-2.3-2.3c0-30,0-60.1,0-90.1c0-2.2,0-2.2,2.3-2.2
		c37.6,0,75.2,0,112.8,0c2.2,0,2.3,0.1,2.3,2.3c0,30,0,60.1,0,90.1c0,2.2-0.1,2.2-2.3,2.2C109.5,132.3,90.7,132.3,71.8,132.3z
		 M126.1,42.2c-36.1,0-72.1,0-108.1,0c0,28.5,0,57,0,85.4c36.1,0,72.1,0,108.1,0C126.1,99.1,126.1,70.7,126.1,42.2z"/>
	<path class="st0" d="M91.4,29.8c-11.8,0-23.6,0-35.4,0c-0.7,0-1.9-0.2-2-0.6c-0.3-1-0.1-2.1,0-3.2c0-0.2,0.6-0.4,0.9-0.5
		c0.4-0.1,0.8,0,1.2,0c23.6,0,47.1,0,70.7,0c2.3,0,3.2,1.3,2.3,3.5c-0.2,0.4-1.1,0.8-1.8,0.8c-4.9,0.1-9.8,0-14.7,0
		C105.5,29.8,98.4,29.8,91.4,29.8z"/>
	<path class="st0" d="M37.8,20.4c4.1,0,7.4,3.3,7.4,7.3c0,4-3.5,7.4-7.4,7.3c-4,0-7.3-3.4-7.3-7.4C30.4,23.5,33.6,20.4,37.8,20.4z
		 M37.8,30.6c1.6,0,2.8-1.3,2.8-2.9c0-1.6-1.3-2.8-2.9-2.8c-1.5,0-2.8,1.4-2.8,2.9C34.9,29.3,36.2,30.6,37.8,30.6z"/>
	<path class="st0" d="M20.7,20.4c4.1,0,7.3,3.2,7.2,7.4c0,4.1-3.4,7.3-7.4,7.3c-4-0.1-7.3-3.5-7.3-7.5
		C13.3,23.6,16.6,20.4,20.7,20.4z M20.7,24.8c-1.5,0-2.9,1.3-3,2.8c0,1.5,1.3,2.9,2.8,2.9c1.6,0,2.9-1.2,2.9-2.8
		C23.6,26.3,22.2,24.9,20.7,24.8z"/>
	<path class="st0" d="M98.2,121c-6.7,0-13.3,0-20,0c-1.9,0-2.1-0.1-2.1-2c0-9.3,0-18.6,0-27.9c0-1.5,0.5-2,2-2c13.4,0,26.7,0,40.1,0
		c1.5,0,2,0.4,2,2c-0.1,9.3,0,18.6,0,27.9c0,2-0.1,2.1-2.2,2.1C111.4,121,104.8,121,98.2,121z M80.9,93.6c0,7.8,0,15.4,0,22.9
		c11.7,0,23.2,0,34.7,0c0-7.7,0-15.3,0-22.9C103.9,93.6,92.4,93.6,80.9,93.6z"/>
	<path class="st0" d="M46.5,73.5c-7.1,0-14.3,0-21.4,0c-1.9,0-2.1-0.1-2.1-2c0-7,0-14.1,0-21.1c0-1.5,0.4-2,2-2
		c14.4,0,28.8,0,43.2,0c1.4,0,2,0.4,2,1.9c-0.1,7,0,14.1,0,21.1c0,2-0.1,2.1-2.2,2.1C60.9,73.5,53.7,73.5,46.5,73.5z M27.7,53
		c0,5.5,0,10.7,0,16.1c12.7,0,25.3,0,37.9,0c0-5.4,0-10.7,0-16.1C52.9,53,40.4,53,27.7,53z"/>
	<path class="st0" d="M39.5,110c-0.3-0.9-0.4-1.8-0.8-2.6c-1.7-3.6-3.7-7-4.1-11c-0.1-0.9,0.3-1.9,0.4-2.9c0.2-1.1,0.6-2.2,0.5-3.3
		c-0.1-3.2-0.5-6.5,2.2-8.9c3.3-2.8,7-4.6,11.6-4c5.4,0.8,9.1,3.8,10.3,8.3c0.3,1.1,0.2,2.1-0.5,3.2c-0.8,1.5-1.5,3-0.7,5
		c1,2.7-0.2,5.3-1.2,7.8c-0.9,2.2-2.2,4.3-3.2,6.6c-0.2,0.5,0,1.3,0.1,1.9c0.2-0.1,0.3-0.2,0.5-0.3c0.9,0.8,1.7,1.7,2.6,2.4
		c1.3,0.9,2.5,2,4,2.5c3.3,1.1,6.1,2.8,8.1,5.8c0.2,0.3,0.4,0.6,0.6,0.9c0.5,1,0.4,1.9-0.5,2.5c-0.9,0.6-1.9,0.4-2.4-0.5
		c-1.7-3-4.5-4.5-7.7-5.5c-1.4-0.5-2.7-1.4-3.8-2.3c-1-0.8-1.6-2.1-3.2-1.9c-0.2,0-0.4-0.2-0.5-0.3c-1.3-1.1-1.6-5.8-0.7-7.2
		c0.8-1.3,1.4-2.8,2.1-4.1c0.3-0.7,0.7-1.4,1.1-1.9c1.1-1.2,1-4.7,0-6c-0.4-0.5-0.4-1.5-0.2-2.1c0.6-1.9,1.4-3.6,2-5.5
		c0.1-0.4-0.1-0.9-0.3-1.3c-0.8-1.8-2.1-3-3.9-3.6c-3.2-1.1-6.4-1.4-9.3,0.9c-0.4,0.3-0.9,0.3-1.2,0.6c-0.7,0.7-1.8,1.5-1.9,2.3
		c-0.2,2.2-0.1,4.4,0.1,6.6c0.1,1,0.2,1.8-0.7,2.5c-0.3,0.2-0.6,0.7-0.5,1c0.2,1.8-0.3,3.8,1.5,5.1c0.3,0.2,0.3,0.7,0.5,1.1
		c0.7,1.5,1.5,3,2.2,4.6c0.3,0.8,0.6,1.8,0.6,2.7c0,0.9-0.4,1.7-0.6,2.6c-0.2,1.4-0.8,2.3-2.4,2.2c-0.3,0-0.8,0.3-1,0.5
		c-1.4,2-3.5,3-5.8,3.7c-2.7,0.9-4.9,2.4-6.4,4.8c-0.6,1.1-1.6,1.6-2.8,0.8c-1.1-0.8-0.9-1.9-0.2-2.9c1.8-2.8,4.2-4.8,7.4-5.9
		c2.3-0.7,4.4-1.6,5.7-3.8c0.3-0.6,1.3-0.8,2-1.2C39.1,110.1,39.3,110,39.5,110z"/>
	<path class="st0" d="M97.9,73.5c-6.1,0-12.2,0-18.2,0c-1.4,0-2.1-0.4-2-1.9c0.1-2.2,0.1-2.4,2-2.4c12.3,0,24.5,0,36.8,0
		c1.8,0,2.3,0.5,2.3,2c-0.1,2.1-0.4,2.3-2.4,2.3C110.2,73.5,104.1,73.5,97.9,73.5z"/>
	<path class="st0" d="M98.1,58.9c6.1,0,12.2,0,18.2,0c2,0,2.3,0.3,2.3,2.2c0,1.6-0.6,2.2-2.4,2.2c-3.9,0-7.8,0-11.7,0
		c-8.3,0-16.6,0-24.9,0c-1.9,0-2-0.1-2-2.2c0-2.1,0.1-2.2,2.1-2.2C85.9,58.9,92,58.9,98.1,58.9z"/>
	<path class="st0" d="M98.1,52.7c-6.1,0-12.3,0-18.4,0c-1.9,0-2-0.1-2-2c0-2,0.1-2.2,2-2.2c12.3,0,24.5,0,36.8,0
		c0.7,0,1.8,0.3,1.9,0.6c0.2,1,0.2,2.2-0.1,3.2c-0.1,0.3-1.1,0.4-1.7,0.5C110.5,52.7,104.3,52.7,98.1,52.7z"/>
	<path class="st0" d="M98,83.9c-6.1,0-12.3,0-18.4,0c-1.8,0-2-0.1-2-2.1c0-1.9,0.2-2.1,2-2.1c12.3,0,24.6,0,36.9,0
		c1.9,0,2,0.1,2,2.2c0,1.9-0.1,2-2.1,2C110.3,83.9,104.2,83.9,98,83.9z"/>
</g>
</svg>
