<?xml version="1.0" encoding="utf-8"?>
<!-- Generator: Adobe Illustrator 17.0.0, SVG Export Plug-In . SVG Version: 6.00 Build 0)  -->
<!DOCTYPE svg PUBLIC "-//W3C//DTD SVG 1.1//EN" "http://www.w3.org/Graphics/SVG/1.1/DTD/svg11.dtd">
<svg version="1.1" id="Layer_1" xmlns="http://www.w3.org/2000/svg" xmlns:xlink="http://www.w3.org/1999/xlink" x="0px" y="0px"
	 width="144px" height="144px" viewBox="0 0 144 144" enable-background="new 0 0 144 144" xml:space="preserve">
<g>
	<g>
		<path fill="#ffffff" d="M106.284,92.595c0,3.174,0.066,6.349-0.027,9.52c-0.049,1.683-0.285,3.375-0.594,5.033
			c-0.673,3.615-2.162,6.927-4.275,9.906c-1.178,1.66-2.531,3.263-4.068,4.586c-2.598,2.237-5.407,4.227-8.122,6.328
			c-1.863,1.442-3.718,2.893-5.572,4.345c-0.956,0.749-1.606,0.746-2.526,0.034c-1.899-1.471-3.811-2.924-5.718-4.383
			c-2.39-1.829-4.824-3.604-7.161-5.499c-2.983-2.418-5.282-5.403-6.987-8.852c-1.115-2.256-1.994-4.598-2.38-7.08
			c-0.269-1.729-0.4-3.491-0.432-5.242c-0.071-3.914-0.045-7.829-0.053-11.744c-0.005-2.582-0.005-5.163,0.004-7.745
			c0.002-0.735,0.464-1.145,1.225-1.145c2.811,0.003,5.584-0.322,8.312-1.002c3.449-0.859,6.689-2.177,9.655-4.182
			c1.359-0.919,2.654-1.887,3.81-3.047c0.536-0.538,1.382-0.576,1.868-0.068c1.804,1.889,3.939,3.318,6.233,4.531
			c2.183,1.155,4.458,2.049,6.865,2.64c2.215,0.544,4.43,1.004,6.722,1.01c0.733,0.002,1.466,0.083,2.199,0.123
			c0.576,0.031,1.016,0.496,1.018,1.139c0.006,1.862-0.007,3.725-0.01,5.587c-0.002,1.735,0,3.47,0,5.205
			C106.275,92.595,106.279,92.595,106.284,92.595z M60.688,82.937c-0.012,0.239-0.026,0.386-0.026,0.532
			c0,6.043-0.039,12.087,0.026,18.13c0.018,1.704,0.195,3.435,0.549,5.101c1.209,5.686,4.069,10.431,8.6,14.084
			c3.116,2.513,6.346,4.883,9.527,7.315c0.987,0.755,1.98,1.502,2.969,2.251c3.274-2.495,6.482-4.961,9.713-7.396
			c2.271-1.712,4.523-3.437,6.313-5.683c3.504-4.396,5.507-9.379,5.595-15.014c0.098-6.275,0.031-12.553,0.034-18.829
			c0-0.145-0.025-0.29-0.043-0.49c-8.124-0.318-15.457-2.739-21.623-8.162C76.112,80.215,68.814,82.614,60.688,82.937z"/>
		<path fill="#ffffff" d="M62.76,94.783c0-2.777,0-5.554,0-8.331c0-1.241,0.242-1.522,1.484-1.664
			c4.658-0.53,9.086-1.824,13.2-4.088c1.369-0.753,2.666-1.642,3.975-2.501c0.764-0.502,1.073-0.527,1.825,0.022
			c5.097,3.715,10.813,5.825,17.056,6.555c1.358,0.159,1.591,0.401,1.591,1.76c0,4.791,0.007,9.582-0.003,14.373
			c-0.016,7.928-3.169,14.303-9.486,19.106c-3.019,2.296-6.034,4.598-9.052,6.896c-0.896,0.682-1.168,0.677-2.071-0.012
			c-3.15-2.403-6.325-4.776-9.447-7.215c-5.817-4.543-8.826-10.538-9.056-17.906c-0.073-2.33-0.011-4.663-0.011-6.995
			C62.763,94.783,62.761,94.783,62.76,94.783z M64.99,95.105c0.004,0,0.008,0,0.012,0c0,2.395-0.096,4.795,0.019,7.185
			c0.289,6.022,2.718,11.077,7.348,14.938c3.087,2.574,6.371,4.911,9.554,7.372c0.358,0.277,0.578,0.168,0.877-0.061
			c2.807-2.15,5.635-4.273,8.433-6.434c5.518-4.261,8.371-9.874,8.422-16.862c0.033-4.557,0-9.115,0.017-13.672
			c0.002-0.476-0.127-0.648-0.618-0.717c-5.923-0.832-11.394-2.856-16.329-6.266c-0.278-0.192-0.466-0.232-0.774-0.019
			c-4.95,3.424-10.439,5.461-16.385,6.291c-0.459,0.064-0.591,0.224-0.587,0.679C65,90.06,64.99,92.583,64.99,95.105z"/>
		<path fill="#ffffff" d="M82.327,112.245c-1.442,0-2.883,0.005-4.325-0.001c-1.036-0.005-1.476-0.541-1.241-1.555
			c0.589-2.537,1.188-5.072,1.81-7.602c0.118-0.481,0.053-0.767-0.362-1.105c-2.574-2.098-3.191-5.736-1.486-8.478
			c1.766-2.838,5.295-3.913,8.345-2.542c4.358,1.959,5.15,7.95,1.428,10.975c-0.45,0.366-0.544,0.668-0.408,1.208
			c0.589,2.341,1.133,4.693,1.692,7.042c0.039,0.165,0.079,0.329,0.112,0.495c0.207,1.024-0.211,1.556-1.242,1.561
			C85.21,112.25,83.769,112.245,82.327,112.245z M85.406,110.017c-0.034-0.222-0.05-0.408-0.092-0.587
			c-0.539-2.287-1.081-4.574-1.626-6.859c-0.268-1.124-0.184-1.335,0.792-1.908c1.605-0.941,2.456-2.787,2.097-4.545
			c-0.413-2.022-2.068-3.442-4.107-3.527c-1.934-0.08-3.769,1.25-4.309,3.122c-0.554,1.921,0.267,3.917,2.039,4.961
			c0.929,0.547,1.026,0.795,0.77,1.868c-0.552,2.306-1.1,4.613-1.645,6.92c-0.041,0.173-0.044,0.355-0.068,0.555
			C81.335,110.017,83.342,110.017,85.406,110.017z"/>
	</g>
	<g>
		<path fill="#ffffff" d="M9.571,71.903c0-9.218,0-18.437,0-27.655c0-9.646-0.036-19.293,0.025-28.939
			c0.015-2.438,0.05-4.94,0.584-7.298C11.08,4.047,15.623,0,20.434,0c37.089,0.002,74.178,0.001,111.267,0.001
			c1.84,0,2.597,0.584,2.741,1.897c0.25,2.282-1.14,2.98-2.576,3.174c-3.729,0.503-5.681,2.205-6.745,5.524
			c-0.823,2.566,1.144,7.169,5.045,8.209c0.581,0.155,1.193,0.247,1.793,0.261c1.528,0.036,2.403,0.76,2.454,2.307
			c0.078,2.373,0.069,4.75,0.073,7.125c0.013,9.218,0.029,18.437,0.021,27.655c-0.006,6.605-0.065,13.211-0.075,19.816
			c-0.014,9.456-0.003,18.913-0.003,28.369c0,9.456-0.004,18.912,0.003,28.368c0.002,2.851,0.051,5.702,0.047,8.554
			c-0.003,2.054-0.693,2.736-2.679,2.736c-37.137,0-74.273,0.014-111.41-0.021c-3.722-0.004-6.439-1.998-8.655-4.887
			c-1.984-2.586-2.241-5.52-2.233-8.595c0.024-8.932-0.015-17.865-0.006-26.797c0.006-6.272,0.054-12.545,0.071-18.817
			c0.012-4.325,0.002-8.651,0.002-12.976C9.568,71.903,9.57,71.903,9.571,71.903z M33.888,24.177c0,38.393,0,76.634,0,114.887
			c31.902,0,63.68,0,95.547,0c0-38.319,0-76.558,0-114.883c-7.914,0-24.882,0-32.887,0c0,0.645,0,1.202,0,1.758
			c0.001,12.71-0.002,25.421,0.008,38.131c0.001,1.207-0.165,2.34-1.382,2.897c-1.208,0.553-2.267,0.166-3.277-0.663
			c-2.978-2.445-6.019-4.815-8.991-7.267c-0.654-0.539-1.062-0.514-1.696,0.002c-3.025,2.464-6.106,4.859-9.127,7.327
			c-0.981,0.802-1.997,1.115-3.152,0.599c-1.173-0.524-1.343-1.572-1.341-2.747c0.021-11.473,0.015-22.945,0.016-34.418
			c0-1.846,0-3.692,0-5.622C53.249,24.177,48.183,24.177,33.888,24.177z M14.564,21.946c0,0.874,0,1.389,0,1.904
			c0,26.984-0.001,53.969,0,80.953c0,8.995-0.009,17.99,0.019,26.984c0.011,3.563,2.173,6.589,5.483,7.018
			c2.792,0.362,5.669,0.074,8.559,0.074c0-38.2,0-76.39,0-114.644C23.926,23.866,19.06,25.07,14.564,21.946z M122.17,19.136
			c-3.021-4.86-2.945-9.487-0.03-14.286c-0.816,0-1.413,0-2.01,0c-21.465,0-42.929,0-64.394,0c-11.232,0-22.464-0.008-33.696,0.005
			c-4.157,0.005-7.386,2.9-7.507,6.674c-0.134,4.191,2.815,7.444,7.041,7.557c4.09,0.109,8.185,0.048,12.277,0.049
			c19.698,0.002,48.539,0.001,86.525,0.001C120.888,19.136,121.4,19.136,122.17,19.136z M91.49,59.399c0-11.866,0-23.467,0-35.155
			c-6.272,0-12.477,0-18.727,0c0,11.635,0,23.189,0,34.867c0.398-0.218,0.667-0.318,0.88-0.489c2.102-1.689,4.193-3.392,6.291-5.086
			c1.477-1.193,2.59-1.225,4.095-0.049C86.476,55.4,88.898,57.343,91.49,59.399z"/>
		<path fill="#ffffff" d="M67.287,14.393c-14.854,0-29.709,0.001-44.563-0.002c-0.523,0-1.057,0.028-1.567-0.061
			c-1.179-0.206-1.858-0.96-1.938-2.141c-0.084-1.238,0.5-2.13,1.71-2.475c0.536-0.152,1.13-0.133,1.698-0.133
			c29.709-0.006,59.419-0.005,89.128-0.005c0.333,0,0.668-0.014,1,0.008c1.474,0.1,2.478,1.094,2.468,2.431
			c-0.009,1.336-1.019,2.35-2.516,2.36c-4.904,0.036-9.808,0.026-14.711,0.028c-10.236,0.003-20.472,0.001-30.708,0.001
			C67.287,14.401,67.287,14.397,67.287,14.393z"/>
	</g>
</g>
</svg>
