<?xml version="1.0" encoding="utf-8"?>
<!-- Generator: Adobe Illustrator 23.0.3, SVG Export Plug-In . SVG Version: 6.00 Build 0)  -->
<svg version="1.1" id="Layer_1" xmlns="http://www.w3.org/2000/svg" xmlns:xlink="http://www.w3.org/1999/xlink" x="0px" y="0px"
	 viewBox="0 0 144 144" style="enable-background:new 0 0 144 144;" xml:space="preserve">
<style type="text/css">
	.st0{fill:#02D463;}
</style>
<g>
	<path class="st0" d="M124.8,76.8c2.3,0,4.4,0,6.6,0c2.2,0,3,0.8,3,2.9c0,20.4,0,40.9,0,61.3c0,2.1-0.9,2.9-3.2,2.9
		c-34.3,0-68.6,0-102.8,0c-5.2,0-10.4,0-15.6,0c-2.3,0-3.1-0.8-3.1-3.2c0-20.3,0-40.6,0-60.9c0-2.4,0.8-3.1,3.1-3.2
		c2.1,0,4.2,0,6.5,0c0-0.7,0-1.4,0-2c0-2,0.9-2.8,2.9-2.8c7.7,0,15.4,0,23.1,0c6.1,0,12.2,0,18.3,0c4.1,0,5.4,0.5,8.5,3.1
		c0.6-0.5,1.2-1.2,2-1.5c1.7-0.7,3.5-1.6,5.2-1.6C93.4,72,107.7,72,122,72c1.8,0,2.7,0.9,2.8,2.8C124.8,75.4,124.8,76,124.8,76.8z
		 M119.9,76.8c-0.6,0-1,0-1.4,0c-12.9,0-25.8,0-38.7,0c-3.7,0-5.5,1.9-5.5,5.5c0,15.6,0,31.2,0,46.8c0,0.5,0,1,0,1.2
		c2.4-0.2,4.6-0.6,6.8-0.7c12.1-0.1,24.3,0,36.4,0c0.8,0,1.6,0,2.4,0C119.9,111.9,119.9,94.5,119.9,76.8z M24.1,76.8
		c0,17.7,0,35.2,0,52.8c0.5,0,1,0,1.4,0c9,0,18.1-0.1,27.1,0c5.6,0.1,11.3-0.9,16.9,1c0-0.2,0-0.4,0-0.6c0-16.1,0-32.2,0-48.3
		c0-2.9-2.1-4.9-5.1-4.9c-8,0-16.1,0-24.1,0C35,76.8,29.6,76.8,24.1,76.8z M129.5,139.1c0-19.2,0-38.3,0-57.5c-1.6,0-3.1,0-4.7,0
		c0,0.7,0,1.3,0,1.8c0,15.9,0,31.8,0,47.7c0,2.4-0.8,3.2-3.1,3.2c-4.9,0-9.8,0-14.7,0c-9.1,0-18.3,0-27.4,0c-3,0-5,1.9-5,4.7
		C92.8,139.1,111.1,139.1,129.5,139.1z M14.5,139.1c18.4,0,36.8,0,55.1,0c0.1-2.7-2.4-4.8-5.1-4.7c-13.9,0.1-27.9,0-41.8,0
		c-2.7,0-3.4-0.7-3.4-3.4c0-15.7,0-31.5,0-47.2c0-0.7,0-1.4,0-2.1c-1.7,0-3.2,0-4.7,0C14.5,100.9,14.5,119.9,14.5,139.1z"/>
	<path class="st0" d="M24.1,45.6c-6.9,0-13.9,0-20.8,0c-1.3,0-2.4-0.2-3-1.5C-0.3,42.9,0.3,42,1.1,41c3.4-4.1,6.8-8.1,10.1-12.2
		c0.4-0.5,0.7-1.3,0.7-2c0.1-3.1,0-6.2,0.1-9.3c0-0.8,0.3-1.8,0.7-2.5c2.9-4.5,5.9-9,8.9-13.5c1.3-2,3.3-2,4.6,0c3,4.5,6.1,9,9,13.6
		c0.4,0.6,0.6,1.5,0.6,2.2c0.1,3.1,0,6.2,0.1,9.3c0,0.8,0.3,1.7,0.8,2.3c3.3,4.1,6.7,8.2,10.1,12.2c0.8,0.9,1.4,1.9,0.8,3.1
		c-0.6,1.2-1.7,1.4-2.9,1.4C37.9,45.6,31,45.6,24.1,45.6z M16.9,19.3c0,7.2,0,14.3,0,21.4c4.8,0,9.5,0,14.2,0c0-7.2,0-14.3,0-21.4
		C26.4,19.3,21.7,19.3,16.9,19.3z M29.1,14.4c-1.8-2.7-3.4-5.1-5.1-7.6c-1.8,2.6-3.4,5.1-5.1,7.6C22.4,14.4,25.6,14.4,29.1,14.4z
		 M12,35.5c-1.6,1.9-2.9,3.5-4.3,5.2c1.6,0,3,0,4.3,0C12,39,12,37.5,12,35.5z M36.1,40.7c1.4,0,2.7,0,4.3,0
		c-1.5-1.8-2.8-3.3-4.3-5.2C36.1,37.5,36.1,39,36.1,40.7z"/>
	<path class="st0" d="M98.5,43.2c-1.9,0-3-1.6-2.3-3.4c1.1-2.9,2.2-5.8,3.4-8.6c1.9-4.2,1.9-8.7,2.9-13.1c0.3-1.2,0.4-2.4,0.6-3.5
		c0.4-2.4,2-3.2,4.1-1.9c7.4,4.4,14.8,8.9,22.2,13.3c4.1,2.5,8.2,4.9,12.3,7.4c1.2,0.7,2.4,1.4,2.1,3.1c-0.3,1.6-1.7,1.9-3.1,2
		c-13.9,1.5-27.8,3.1-41.7,4.7C98.9,43.2,98.7,43.2,98.5,43.2z M127.8,31c0-0.1,0.1-0.2,0.1-0.4c-6.8-4.1-13.6-8.2-20.6-12.3
		c-0.5,3-1,5.7-1.4,8.6C113.3,28.3,120.6,29.6,127.8,31z M104.7,31.5c-0.9,2.2-1.6,4.2-2.6,6.4c7.6-0.8,14.8-1.7,22.1-2.5
		c0-0.1,0-0.2,0-0.3C117.8,34,111.3,32.8,104.7,31.5z"/>
	<path class="st0" d="M60,53.5c-1.1,1.2-2.1,2.2-3.1,3.3c-1.1-1.1-2.1-2.2-3-3.3c1.6-1.7,3.1-3.5,4.9-5.2c1-0.9,2.1-0.4,3.1,0.4
		c2.5,2,5,4,7.5,6c0.6,0.5,1.2,0.9,1.8,1.4c2.4-2.8,5.3-4,8.9-3.2c2.1,0.5,3.8,1.6,4.9,3.5c0.5,0.9,1.1,1.2,2,1.1
		c0.6-0.1,1.3-0.1,1.9,0c2.2,0.3,4-0.1,4.7-2.7c-0.5-0.3-1.2-0.8-2.2-1.4c-1,1.2-2,2.3-3.1,3.6c-1.3-1.3-2.4-2.4-3.5-3.5
		c1.6-1.7,3.2-3.3,4.8-4.9c0.9-0.8,1.9-0.8,2.9-0.1c1,0.7,2.1,1.4,3.1,2.1c1.8,1.2,3.5,2.2,5.7,2.6c4.1,0.7,6.8,4.5,6.5,8.6
		c-0.2,4-3.4,7.3-7.4,7.8c-3.9,0.5-7.8-2-8.9-5.8c-0.3-1.1-0.8-1.3-1.8-1.3c-2.2-0.2-3.6,0.1-4.5,2.6c-1.2,3.4-5.2,5.1-8.6,4.5
		c-3.7-0.6-6.4-3.5-7.1-7.2c-0.1-0.7-0.5-1.5-1.1-1.9C65.9,58.1,63.1,55.9,60,53.5z M78,64.8c2,0,3.6-1.7,3.6-3.7
		c0-1.9-1.6-3.5-3.6-3.5c-2,0-3.6,1.6-3.6,3.6C74.4,63.2,76.1,64.8,78,64.8z M99.7,64.8c2,0,3.6-1.7,3.5-3.7c0-2-1.7-3.6-3.7-3.5
		c-1.9,0.1-3.5,1.7-3.5,3.6C96,63.2,97.7,64.8,99.7,64.8z"/>
	<path class="st0" d="M74.4,43.3c0,0.8,0,1.5,0,2.2c-1.6,0-3.1,0-4.7,0c0-0.7-0.1-1.4-0.1-2.1c-3.8-1.1-4.7-2.3-4.8-6.3
		c0-0.5,0-1,0-1.5c0.2-2.5-0.3-4.6-2.1-6.7c-4.3-4.9-3.3-12.4,1.7-16.6c5-4.1,12.3-3.5,16.6,1.4c4.3,4.8,3.9,12.1-0.8,16.6
		c-0.7,0.7-1,1.3-1,2.3c0.1,1.6,0,3.3,0,4.9C79.2,41,77.9,42.6,74.4,43.3z M70,30.4c1.2-0.3,2.8-0.7,4.3-1c0.1,0,0.3-0.1,0.4-0.2
		c0.7-0.8,1.4-1.6,2.1-2.3c3-2.9,3.2-7.4,0.3-10.3c-2.9-2.9-7.5-2.9-10.3,0C64,19.6,64.2,24,67.2,27C68.2,27.9,68.9,29.1,70,30.4z
		 M74.3,34.3c-1.6,0.4-3.1,0.8-4.6,1.2c0,1.1,0,2,0,2.9c1.6,0,3.1,0,4.6,0C74.3,37,74.3,35.7,74.3,34.3z"/>
	<path class="st0" d="M14.8,46.7c1.4,0.9,2.6,1.7,3.9,2.6c-0.7,1.1-1.4,2.2-2.1,3.4c3.8-0.5,5.3,1.7,6.3,4.6c0.2,0.6,0.6,1.2,1,2.1
		c0.8-1.5,1.5-2.7,2-4.1c0.7-1.9,2-2.8,4-2.5c0.4,0,0.8,0,1.4-0.1c-0.8-1.2-1.4-2.2-2.2-3.4c1.3-0.9,2.6-1.7,4-2.7
		c1.7,2.6,3.4,5,4.9,7.6c0.9,1.5-0.3,3.3-2.1,3.4c-1.5,0.1-3,0.1-4.5,0c-1-0.1-1.4,0.3-1.8,1.2c-1.1,2.3-2.2,4.5-3.3,6.7
		c-0.5,1-1.2,1.8-2.4,1.8c-1.2,0-1.9-0.7-2.4-1.8c-1.1-2.3-2.2-4.6-3.4-6.8c-0.3-0.5-1-0.9-1.5-1c-1.5-0.1-3.1,0-4.6-0.1
		c-1.9-0.1-3-1.8-2.1-3.4c0.8-1.4,1.8-2.8,2.7-4.2C13.3,49,14,47.9,14.8,46.7z"/>
	<path class="st0" d="M133.5,13.8c-1.5-1.4-2.6-2.4-3.8-3.6c1.2-1,2.3-2,3.8-3.3c-1.5-1.2-2.7-2.1-4-3.1c1.4-1.4,2.5-2.5,3.7-3.7
		c1,1.1,2,2.2,3.2,3.6c1.2-1.4,2.2-2.6,3.2-3.8c1.4,1.4,2.4,2.4,3.6,3.6c-1.1,1-2.3,2-3.6,3.2c1.4,1.2,2.6,2.2,3.8,3.2
		c-1.4,1.4-2.5,2.4-3.7,3.6c-1-1.1-2-2.2-3.2-3.7C135.4,11.5,134.4,12.7,133.5,13.8z M136.5,10.1c1-1,2.1-2.1,3.1-3.1
		c-1-1-2.1-2.1-3.1-3.1c-1,1-2.1,2.1-3.1,3.1C134.4,8,135.5,9,136.5,10.1z"/>
	<path class="st0" d="M140.1,59.7c-0.2,0.2-0.7,0.7-1.2,1.3c0.5,0.6,1,1.1,1.4,1.6c-1.1,1.1-2.2,2.2-3.4,3.3
		c-0.4-0.4-0.9-0.9-1.5-1.4c-0.6,0.5-1.1,1-1.7,1.5c-1.1-1.1-2.1-2.2-3.3-3.3c0.5-0.5,1-1.1,1.5-1.7c-0.5-0.5-1-1.1-1.5-1.7
		c1.2-1.1,2.3-2.1,3.5-3.2c0.4,0.3,0.9,0.8,1.5,1.4c0.5-0.5,1-1,1.6-1.4C138,57.3,139,58.4,140.1,59.7z"/>
	<path class="st0" d="M69.7,4.7c0-1.6,0-3,0-4.6c1.5,0,3,0,4.6,0c0,1.5,0,3,0,4.6C72.8,4.7,71.3,4.7,69.7,4.7z"/>
	<path class="st0" d="M88.9,19.3c1.6,0,3,0,4.6,0c0,1.5,0,3.1,0,4.7c-1.5,0-3,0-4.6,0C88.9,22.4,88.9,20.8,88.9,19.3z"/>
	<path class="st0" d="M50.5,23.9c0-1.6,0-3,0-4.6c1.5,0,3,0,4.6,0c0,1.5,0,3,0,4.6C53.6,23.9,52.1,23.9,50.5,23.9z"/>
	<path class="st0" d="M88.7,8.2c-1,1-2,2-3.1,3.1c-1-1.1-2.1-2.2-3-3.2c1-1,2.1-2.1,3.1-3.1C86.5,6,87.6,7.1,88.7,8.2z"/>
	<path class="st0" d="M82.6,34.8c0.8-0.7,1.9-1.8,3-2.8c1.1,1,2.1,2.1,3.3,3.2c-1.1,1.1-2.2,2.1-3.4,3.2
		C84.7,37.3,83.7,36.1,82.6,34.8z"/>
	<path class="st0" d="M55.3,35c1-0.9,2-2,3.1-3.1c1,1.1,2.1,2.2,3.2,3.3c-1,1.1-2.1,2.1-3.1,3.2C57.5,37.3,56.4,36.2,55.3,35z"/>
	<path class="st0" d="M58.3,11.2c-1-1-2-2.1-3-3.1c1.1-1,2.2-2,3.2-3.1c0.8,0.9,1.8,2,2.8,3C60.5,9,59.4,10.1,58.3,11.2z"/>
	<path class="st0" d="M79.3,115.1c0-1.6,0-3.1,0-4.6c11.9,0,23.8,0,35.8,0c0,1.5,0,3,0,4.6C103.2,115.1,91.3,115.1,79.3,115.1z"/>
	<path class="st0" d="M79.3,91.3c11.9,0,23.8,0,35.8,0c0,1.6,0,3.1,0,4.7c-11.9,0-23.8,0-35.8,0C79.3,94.4,79.3,92.9,79.3,91.3z"/>
	<path class="st0" d="M115.1,81.7c0,1.6,0,3.1,0,4.6c-9.5,0-19,0-28.6,0c0-1.5,0-3,0-4.6C96,81.7,105.5,81.7,115.1,81.7z"/>
	<path class="st0" d="M107.9,120.1c0,1.6,0,3.1,0,4.6c-9.6,0-19.1,0-28.7,0c0-1.5,0-3,0-4.6C88.8,120.1,98.3,120.1,107.9,120.1z"/>
	<path class="st0" d="M79.3,105.5c0-1.6,0-3.1,0-4.6c6.3,0,12.6,0,19,0c0,1.5,0,3,0,4.6C92,105.5,85.7,105.5,79.3,105.5z"/>
	<path class="st0" d="M115.1,100.9c0,1.6,0,3.1,0,4.6c-3.9,0-7.8,0-11.8,0c0-1.5,0-3,0-4.6C107.2,100.9,111.1,100.9,115.1,100.9z"/>
	<path class="st0" d="M28.9,124.7c0-1.6,0-3.1,0-4.6c11.9,0,23.8,0,35.8,0c0,1.5,0,3,0,4.6C52.8,124.7,40.9,124.7,28.9,124.7z"/>
	<path class="st0" d="M28.9,105.5c0-1.6,0-3.1,0-4.6c11.9,0,23.8,0,35.8,0c0,1.5,0,3,0,4.6C52.8,105.5,40.9,105.5,28.9,105.5z"/>
	<path class="st0" d="M64.7,91.3c0,1.6,0,3.1,0,4.6c-12,0-23.9,0-35.9,0c0-1.5,0-3,0-4.6C40.8,91.3,52.7,91.3,64.7,91.3z"/>
	<path class="st0" d="M64.7,86.4c-8,0-15.8,0-23.8,0c0-1.5,0-3.1,0-4.7c7.9,0,15.8,0,23.8,0C64.7,83.3,64.7,84.8,64.7,86.4z"/>
	<path class="st0" d="M64.7,110.5c0,1.6,0,3.1,0,4.6c-5.5,0-11,0-16.6,0c0-1.5,0-3,0-4.6C53.6,110.5,59.1,110.5,64.7,110.5z"/>
	<path class="st0" d="M28.9,115.1c0-1.6,0-3.1,0-4.6c4.7,0,9.4,0,14.2,0c0,1.5,0,3,0,4.6C38.4,115.1,33.7,115.1,28.9,115.1z"/>
</g>
</svg>
