<?xml version="1.0" encoding="utf-8"?>
<!-- Generator: Adobe Illustrator 17.0.0, SVG Export Plug-In . SVG Version: 6.00 Build 0)  -->
<!DOCTYPE svg PUBLIC "-//W3C//DTD SVG 1.1//EN" "http://www.w3.org/Graphics/SVG/1.1/DTD/svg11.dtd">
<svg version="1.1" id="Layer_1" xmlns="http://www.w3.org/2000/svg" xmlns:xlink="http://www.w3.org/1999/xlink" x="0px" y="0px"
	 width="144px" height="144px" viewBox="0 0 144 144" enable-background="new 0 0 144 144" xml:space="preserve">
<g enable-background="new    ">
	<path fill="#ffffff" d="M133.825,26.05c-7.799,1.902-14.79,4.362-21.481,7.654c-2.097,1.032-4.111,2.232-6.199,3.283
		c-1.204,0.605-1.528,1.269-0.947,2.608c1.37,3.158,2.577,6.388,3.818,9.601c0.819,2.121,0.358,3.663-1.202,4.233
		c-1.659,0.606-2.965-0.153-3.794-2.237c-1.638-4.115-3.273-8.231-4.891-12.354c-0.982-2.501-0.689-3.406,1.511-4.777
		c11.899-7.415,24.771-12.258,38.596-14.565c2.16-0.36,3.51,0.686,3.738,2.716c0.87,7.724,1.344,15.453,0.783,23.232
		c-0.61,8.45-2.052,16.719-4.777,24.758c-0.618,1.823-1.752,2.478-3.627,2.354c-8.605-0.569-17.213-1.102-25.825-1.556
		c-0.699-0.037-1.622,0.45-2.114,0.991c-1.058,1.165-1.903,2.523-3.054,4.102c3.779,0.272,7.185,0.538,10.594,0.756
		c4.794,0.306,9.592,0.56,14.387,0.868c3.079,0.198,4.228,1.102,4.062,3.098c-0.152,1.831-1.228,2.46-4.248,2.276
		c-8.976-0.548-17.951-1.121-26.922-1.741c-1.104-0.076-1.871,0.108-2.483,1.091c-0.735,1.181-1.605,2.278-2.611,3.684
		c3.483,0.248,6.601,0.482,9.721,0.69c5.469,0.366,10.941,0.695,16.409,1.084c1.969,0.14,3.097,1.237,3.023,2.765
		c-0.08,1.65-1.38,2.648-3.414,2.525c-9.223-0.557-18.447-1.093-27.663-1.752c-1.45-0.104-2.31,0.264-3.014,1.464
		c-0.582,0.993-1.311,1.9-2.177,3.134c3.525,0.269,6.739,0.54,9.957,0.754c4.61,0.306,9.222,0.568,13.833,0.857
		c0.614,0.038,1.225,0.144,1.839,0.179c1.286,0.073,2.502,0.564,2.583,1.884c0.062,1.011-0.32,2.352-1.006,3.058
		c-5.477,5.634-11.549,10.549-18.396,14.45c-5.058,2.882-10.343,5.155-16.18,5.947c-3.345,0.454-6.653,0.435-9.82-0.818
		c-1.244-0.492-1.829-0.138-2.539,0.858c-4.216,5.921-8.497,11.796-12.756,17.686c-0.181,0.25-0.36,0.5-0.543,0.748
		c-1.322,1.782-2.835,2.244-4.204,1.285c-1.381-0.967-1.475-2.607-0.205-4.38c2.404-3.355,4.828-6.695,7.245-10.04
		c24.103-33.35,48.207-66.699,72.31-100.05C132.604,27.811,133.049,27.158,133.825,26.05z M138.245,29.907
		c-0.123-0.059-0.247-0.118-0.37-0.177c-8.604,11.906-17.208,23.811-26.027,36.014c7.189,0.416,13.882,0.751,20.565,1.229
		c1.559,0.112,2.271-0.378,2.539-1.842c1.083-5.914,2.609-11.784,3.174-17.745C138.674,41.609,138.245,35.738,138.245,29.907z
		 M74.711,117.194c0.333,0.205,0.472,0.323,0.632,0.381c0.346,0.126,0.698,0.239,1.055,0.326c3.996,0.976,7.848,0.185,11.585-1.16
		c7.833-2.819,14.419-7.645,20.576-13.117c0.189-0.168,0.258-0.471,0.451-0.843c-7.428-0.518-14.662-1.05-21.903-1.475
		c-0.553-0.033-1.32,0.563-1.701,1.079c-3.114,4.205-6.162,8.459-9.225,12.702C75.688,115.769,75.217,116.466,74.711,117.194z"/>
	<path fill="#ffffff" d="M22.42,95.373c-0.431-0.087-0.778-0.162-1.126-0.227c-2.003-0.374-2.746-1.204-2.76-3.26
		c-0.029-4.19-0.035-8.38-0.007-12.57c0.015-2.268,1.007-3.221,3.306-3.223c9.366-0.008,18.732-0.005,28.098,0.008
		c2.323,0.003,3.259,0.944,3.259,3.228c-0.001,3.82-0.019,7.64-0.028,11.46c-0.007,3.422-0.095,3.551-3.279,4.663
		c-0.067,2.26,0.951,3.975,2.74,5.287c0.493,0.362,1.062,0.619,1.589,0.935c1.441,0.866,1.931,2.254,1.277,3.597
		c-0.688,1.414-2.182,1.911-3.777,1.139c-3.895-1.887-6.469-4.834-7.179-9.214c-0.097-0.599-0.167-1.203-0.265-1.916
		c-5.378,0-10.71,0-16.173,0c-0.132,0.574-0.307,1.149-0.393,1.738c-0.638,4.375-3.026,7.48-6.958,9.365
		c-2.992,1.435-6.119,2.595-9.084,4.08c-5.672,2.84-7.677,7.515-5.484,13.512c0.927,2.535,2.739,4.749,4.172,7.096
		c0.221,0.362,0.571,0.644,0.853,0.97c3.95,4.561,8.373,7.497,14.986,6.687c5.342-0.655,10.828-0.134,16.251-0.121
		c2.309,0.006,3.433,0.903,3.41,2.671c-0.022,1.756-1.179,2.706-3.45,2.711c-7.949,0.016-15.897,0.016-23.846-0.021
		c-0.773-0.004-1.714-0.076-2.292-0.503c-6.104-4.504-11.641-9.544-14.701-16.719c-3.888-9.118-0.338-18.04,8.754-21.999
		c2.536-1.104,5.148-2.032,7.707-3.085C20.776,100.529,22.267,98.484,22.42,95.373z M47.769,81.473
		c-7.77,0-15.219-0.016-22.668,0.044c-0.39,0.003-1.095,0.633-1.111,0.994c-0.102,2.319-0.052,4.644-0.052,7.257
		c7.774,0,15.333,0.013,22.891-0.045c0.316-0.002,0.885-0.661,0.898-1.029C47.81,86.372,47.769,84.046,47.769,81.473z"/>
	<path fill="#ffffff" d="M90.719,48.749c-1.745,2.092-3.41,3.889-4.851,5.849C78.158,65.085,71.923,76.332,68.541,89
		c-1.748,6.55-2.517,13.157-0.956,19.882c0.443,1.91-0.33,3.205-1.928,3.576c-1.552,0.36-2.766-0.525-3.266-2.442
		c-1.726-6.619-1.131-13.228,0.488-19.725C67.39,72.19,75.89,56.249,89.113,42.96c2.474-2.486,4.309-2.001,5.64,1.248
		c2.166,5.291,4.415,10.548,6.59,15.835c0.295,0.717,0.747,1.736,0.464,2.245c-0.506,0.91-1.404,1.894-2.347,2.197
		c-1.312,0.421-2.307-0.554-2.835-1.804c-1.65-3.908-3.281-7.824-4.925-11.734C91.441,50.333,91.157,49.729,90.719,48.749z"/>
	<path fill="#ffffff" d="M15.368,122.597c-2.328-0.013-3.744-1.948-2.936-3.63c0.541-1.125,1.349-2.353,2.377-2.965
		c2.565-1.528,5.27-2.859,8.025-4.016c1.602-0.673,3.026,0.215,3.513,1.725c0.466,1.444-0.329,2.773-2.023,3.392
		c-1.269,0.464-2.633,0.769-3.778,1.445c-1.226,0.724-2.233,1.816-3.36,2.717C16.497,121.816,15.762,122.31,15.368,122.597z"/>
</g>
</svg>
