<?xml version="1.0" encoding="utf-8"?>
<!-- Generator: Adobe Illustrator 17.0.0, SVG Export Plug-In . SVG Version: 6.00 Build 0)  -->
<!DOCTYPE svg PUBLIC "-//W3C//DTD SVG 1.1//EN" "http://www.w3.org/Graphics/SVG/1.1/DTD/svg11.dtd">
<svg version="1.1" id="Layer_1" xmlns="http://www.w3.org/2000/svg" xmlns:xlink="http://www.w3.org/1999/xlink" x="0px" y="0px"
	 width="582px" height="441px" viewBox="0 0 582 441" enable-background="new 0 0 582 441" xml:space="preserve">
<g>
	<path opacity="0.5" fill="#173D7A" enable-background="new    " d="M340.897,373.262L155.865,266.434
		c-2.919-1.686-2.919-5.9,0-7.585l175.096-101.079l195.599,112.928c2.92,1.686,2.919,5.9,0,7.585l-164.528,94.979
		C355.492,377.037,347.436,377.037,340.897,373.262z"/>
	<g>
		<g>
			<path fill="#D4ECFF" d="M336.246,92.832c0.01-11.905-8.374-16.756-18.69-10.812L142.204,183.05
				c-2.836,1.634-5.138,5.613-5.141,8.886c-0.003,3.273,2.295,4.602,5.131,2.968L317.546,93.874
				c4.653-2.681,8.434-0.494,8.429,4.876l-0.018,19.61c3.403-0.212,6.817-0.215,10.266-0.155L336.246,92.832z"/>
			<path fill="#5793CE" d="M142.128,230.166l175.352-63.898c10.316-5.944,18.718-20.465,18.728-32.371l0.014-15.693
				c-3.449-0.06-6.864-0.056-10.266,0.155l-0.019,21.456c-0.005,5.37-3.793,11.918-8.446,14.599l-175.352,63.898
				c-2.836,1.634-5.138,5.613-5.141,8.886C136.995,230.471,139.292,231.8,142.128,230.166z"/>
		</g>
		<polygon fill="#5793CE" points="138.325,230.402 351.634,353.831 532.232,246.128 546.561,224.744 545.073,232.32 
			541.223,212.484 205.986,225.271 146.922,221.466 		"/>
		<polygon fill="#86B8E0" points="145.4,193.154 145.342,219.411 351.503,338.685 357.073,313.66 		"/>
		<polygon fill="#D4ECFF" points="543.903,204.042 330.933,80.83 138.919,192.492 138.523,195.235 351.806,318.629 		"/>
		<g>
			<path fill="#FFFFFF" d="M476.008,267.316l50.074-29.703c4.218-2.965,7.526-8.957,7.531-13.965l0.037-3.934
				c0.003-3.182-1.329-5.234-3.378-5.83L431.7,268.721l-80.271,43.414l0.073,26.549L476.008,267.316z"/>
		</g>
		<path fill="#5793CE" d="M358.628,314.56L147.01,192.129l-4.486-2.595l-4.098-2.371c-0.838,1.537-1.363,3.23-1.364,4.773
			c-0.001,1.609,0.557,2.741,1.459,3.289l0.001,0.009l0.034,0.02l0.016,0.009l213.234,123.365L358.628,314.56z"/>
		<polygon fill="#FFFFFF" points="348.974,352.293 351.634,353.831 352.125,352.984 350.468,351.68 		"/>
		<polygon fill="#FFFFFF" points="349.044,317.026 351.769,318.603 351.086,317.114 		"/>
		<g>
			<path fill="#D4ECFF" d="M355.485,306.443l175.352-101.03c10.316-5.944,18.7-1.093,18.69,10.812l-0.037,3.934
				c-0.011,11.905-8.412,26.427-18.728,32.371L355.41,353.56c-2.836,1.634-5.133,0.305-5.13-2.968
				c0.003-3.273,2.305-7.252,5.141-8.886l175.352-101.03c4.653-2.681,8.441-9.229,8.446-14.599l0.037-3.934
				c0.005-5.37-3.776-7.557-8.429-4.876L355.475,318.297c-2.836,1.634-5.133,0.305-5.13-2.968
				C350.348,312.056,352.649,308.077,355.485,306.443z"/>
		</g>
		<polygon fill="#FFFFFF" points="277.388,208.492 368.51,155.992 447.537,201.712 356.416,254.212 		"/>
		<g>
			<path fill="#FFFFFF" d="M350.279,350.591c0.003-3.273,2.305-7.252,5.141-8.886l175.352-101.03
				c4.653-2.681,8.441-9.229,8.446-14.599l0.037-3.934c0.003-3.516-1.622-5.655-4.047-5.969c0.781,1.026,1.239,2.489,1.237,4.343
				l-0.037,3.934c-0.005,5.37-3.793,11.918-8.446,14.598L352.611,340.08c-2.836,1.634-5.138,5.613-5.141,8.886
				c-0.002,2.48,1.319,3.837,3.192,3.641C350.418,352.057,350.279,351.384,350.279,350.591z"/>
			<path fill="#FFFFFF" d="M350.344,315.329c0.003-3.273,2.305-7.252,5.141-8.886l175.352-101.03
				c4.443-2.56,8.522-3.107,11.732-1.961c-3.428-2.924-8.669-3.048-14.542,0.336l-175.352,101.03
				c-2.836,1.634-5.138,5.613-5.141,8.886c-0.002,2.48,1.319,3.837,3.192,3.641C350.483,316.794,350.344,316.122,350.344,315.329z"
				/>
		</g>
	</g>
	<g>
		<path opacity="0.5" fill="#173D7A" enable-background="new    " d="M49.798,254.293L1.981,226.686
			c-2.935-1.694-2.567-4.654,0.822-6.61l46.171-26.657c3.389-1.956,8.515-2.169,11.45-0.475l47.817,27.607
			c2.935,1.694,2.567,4.654-0.822,6.61l-46.171,26.657C57.859,255.775,52.733,255.987,49.798,254.293z"/>
		<path fill="#396CAA" d="M110.207,207.203L110.207,207.203v-16.499l-36.995-0.021L60.425,183.3
			c-2.935-1.694-8.061-1.482-11.45,0.475l-11.931,6.888l-37.029-0.021v16.968c-0.084,1.147,0.556,2.253,1.966,3.068l47.817,27.607
			c2.935,1.694,8.061,1.482,11.45-0.475l46.171-26.657C109.374,210.026,110.317,208.564,110.207,207.203z"/>
		<path fill="#396CAA" d="M55.112,182.166c-2.148,0.052-4.377,0.593-6.137,1.61l-11.931,6.888l-37.029-0.021v16.968
			c-0.084,1.147,0.556,2.253,1.966,3.068l47.817,27.607c1.41,0.814,3.327,1.184,5.314,1.135
			C55.112,239.421,55.112,182.166,55.112,182.166z"/>
		<path fill="#5793CE" d="M4.206,190.645l-4.191-0.002v16.968c-0.084,1.147,0.556,2.253,1.966,3.068l2.225,1.284
			C4.206,211.963,4.206,190.645,4.206,190.645z"/>
		<path fill="#5793CE" d="M50.535,238.647c2.531,1.084,6.193,1.024,9.152-0.104v-19.266h-9.152V238.647z"/>
		<path fill="#D4ECFF" d="M49.798,221.379L1.981,193.772c-2.935-1.694-2.567-4.654,0.822-6.61l46.171-26.657
			c3.389-1.956,8.515-2.169,11.45-0.475l47.817,27.607c2.935,1.694,2.567,4.654-0.822,6.61l-46.171,26.656
			C57.859,222.861,52.733,223.074,49.798,221.379z"/>
		<path fill="#FFFFFF" d="M107.419,191.001l-46.171,26.657c-3.389,1.956-8.515,2.169-11.45,0.475L1.981,190.526
			c-0.654-0.378-1.135-0.821-1.464-1.299c-1.008,1.623-0.551,3.383,1.464,4.546l47.817,27.607c2.935,1.695,8.061,1.482,11.45-0.475
			l46.171-26.657c2.633-1.52,3.433-3.644,2.286-5.311C109.245,189.676,108.48,190.388,107.419,191.001z"/>
		<g>
			<path fill="#D4ECFF" d="M92.619,211.557c0,1.232-0.865,2.729-1.931,3.345c-1.067,0.616-1.931,0.117-1.931-1.115
				s0.865-2.729,1.931-3.345C91.755,209.827,92.619,210.326,92.619,211.557z"/>
			<path fill="#D4ECFF" d="M98.833,207.97c0,1.232-0.865,2.729-1.931,3.345c-1.067,0.616-1.931,0.117-1.931-1.115
				c0-1.232,0.865-2.729,1.931-3.345C97.969,206.239,98.833,206.738,98.833,207.97z"/>
			<path fill="#D4ECFF" d="M105.047,204.382c0,1.232-0.865,2.729-1.931,3.345c-1.067,0.616-1.931,0.117-1.931-1.115
				s0.865-2.729,1.931-3.345C104.183,202.651,105.047,203.151,105.047,204.382z"/>
		</g>
		<g>
			<path fill="#5793CE" d="M52.626,204.263L30.25,191.344c-1.373-0.793-1.201-2.178,0.385-3.093l21.606-12.474
				c1.586-0.916,3.985-1.015,5.358-0.222l22.376,12.919c1.373,0.793,1.201,2.178-0.385,3.093l-21.606,12.474
				C56.398,204.957,53.999,205.056,52.626,204.263z"/>
			<path fill="#D4ECFF" d="M54.768,193.446l-3.096-1.787c-0.19-0.11-0.166-0.301,0.053-0.428l2.989-1.726
				c0.219-0.127,0.551-0.14,0.741-0.031l3.096,1.787c0.19,0.11,0.166,0.301-0.053,0.428l-2.989,1.726
				C55.29,193.542,54.958,193.556,54.768,193.446z"/>
			<path fill="#396CAA" d="M30.25,191.344l0.063,0.037c0.104-0.075,0.201-0.151,0.321-0.221l21.606-12.474
				c1.586-0.916,3.985-1.015,5.358-0.222l22.313,12.882c1.266-0.906,1.332-2.14,0.063-2.872l-22.376-12.919
				c-1.373-0.793-3.772-0.693-5.358,0.222l-21.606,12.474C29.049,189.167,28.876,190.552,30.25,191.344z"/>
		</g>
	</g>
	<g>
		<path opacity="0.5" fill="#173D7A" enable-background="new    " d="M473.039,416.054l-47.817-27.607
			c-2.935-1.694-2.567-4.654,0.822-6.61l46.171-26.657c3.389-1.956,8.515-2.169,11.45-0.475l47.817,27.607
			c2.935,1.694,2.567,4.654-0.822,6.61l-46.171,26.657C481.1,417.536,475.974,417.748,473.039,416.054z"/>
		<path fill="#396CAA" d="M533.448,368.965L533.448,368.965v-16.499l-36.995-0.021l-12.788-7.383
			c-2.935-1.694-8.061-1.482-11.45,0.475l-11.931,6.888l-37.029-0.021v16.968c-0.084,1.147,0.556,2.254,1.966,3.068l47.817,27.607
			c2.935,1.694,8.061,1.482,11.45-0.475l46.171-26.657C532.615,371.787,533.558,370.326,533.448,368.965z"/>
		<path fill="#396CAA" d="M478.353,343.927c-2.148,0.052-4.377,0.593-6.137,1.61l-11.931,6.888l-37.029-0.021v16.968
			c-0.084,1.147,0.556,2.254,1.966,3.068l47.817,27.607c1.41,0.814,3.327,1.183,5.313,1.135V343.927L478.353,343.927
			L478.353,343.927z"/>
		<path fill="#5793CE" d="M427.447,352.407l-4.191-0.002v16.968c-0.084,1.147,0.556,2.254,1.966,3.068l2.225,1.284V352.407z"/>
		<path fill="#5793CE" d="M473.776,400.408c2.531,1.084,6.193,1.024,9.152-0.104v-19.266h-9.152V400.408z"/>
		<path fill="#D4ECFF" d="M473.039,383.141l-47.817-27.607c-2.935-1.694-2.567-4.654,0.822-6.61l46.171-26.657
			c3.389-1.956,8.515-2.169,11.45-0.475l47.817,27.607c2.935,1.694,2.567,4.654-0.822,6.61l-46.171,26.657
			C481.1,384.622,475.974,384.835,473.039,383.141z"/>
		<path fill="#FFFFFF" d="M530.66,352.762l-46.171,26.657c-3.389,1.956-8.515,2.169-11.449,0.475l-47.817-27.607
			c-0.654-0.378-1.135-0.82-1.464-1.299c-1.008,1.623-0.551,3.383,1.464,4.546l47.817,27.607c2.935,1.694,8.061,1.482,11.449-0.475
			l46.171-26.657c2.633-1.52,3.433-3.644,2.286-5.311C532.486,351.438,531.721,352.149,530.66,352.762z"/>
		<g>
			<path fill="#D4ECFF" d="M515.86,373.319c0,1.232-0.865,2.729-1.931,3.345c-1.067,0.616-1.931,0.117-1.931-1.115
				s0.865-2.729,1.931-3.345C514.995,371.588,515.86,372.087,515.86,373.319z"/>
			<path fill="#D4ECFF" d="M522.074,369.731c0,1.232-0.865,2.729-1.931,3.345c-1.067,0.616-1.931,0.117-1.931-1.115
				s0.865-2.729,1.931-3.345S522.074,368.499,522.074,369.731z"/>
			<path fill="#D4ECFF" d="M528.288,366.144c0,1.232-0.865,2.729-1.931,3.345c-1.067,0.616-1.931,0.117-1.931-1.115
				s0.865-2.729,1.931-3.345C527.423,364.413,528.288,364.912,528.288,366.144z"/>
		</g>
		<g>
			<path fill="#5793CE" d="M475.866,366.025l-22.376-12.919c-1.373-0.793-1.201-2.178,0.385-3.093l21.606-12.474
				c1.586-0.916,3.985-1.015,5.358-0.222l22.376,12.919c1.373,0.793,1.201,2.178-0.385,3.093l-21.606,12.474
				C479.638,366.718,477.24,366.817,475.866,366.025z"/>
			<path fill="#D4ECFF" d="M478.009,355.208l-3.096-1.787c-0.19-0.11-0.166-0.301,0.053-0.428l2.989-1.726
				c0.22-0.127,0.551-0.14,0.741-0.031l3.096,1.787c0.19,0.11,0.166,0.301-0.053,0.428l-2.989,1.726
				C478.53,355.304,478.199,355.317,478.009,355.208z"/>
			<path fill="#396CAA" d="M453.49,353.106l0.063,0.036c0.104-0.075,0.201-0.151,0.321-0.221l21.606-12.474
				c1.586-0.916,3.985-1.015,5.358-0.222l22.313,12.882c1.266-0.906,1.332-2.14,0.063-2.872l-22.376-12.919
				c-1.373-0.793-3.772-0.693-5.358,0.222l-21.606,12.474C452.289,350.928,452.117,352.313,453.49,353.106z"/>
		</g>
	</g>
	<path opacity="0.5" fill="#173D7A" enable-background="new    " d="M91.576,304.049c3.687-2.128,9.663-2.129,13.35,0
		l172.193,99.455c3.687,2.128,3.686,5.579,0,7.708c-3.687,2.128-9.664,2.129-13.35,0L91.576,311.757
		C87.889,309.628,87.889,306.177,91.576,304.049z"/>
	<g>
		<g>
			<path fill="#D4ECFF" d="M74.343,264.951L74.343,264.951c0.149-0.253,0.443-0.382,0.729-0.319l9.377,2.033l-3.693,6.282
				l-6.338-7.204C74.225,265.524,74.194,265.204,74.343,264.951z"/>
			<g>
				
					<linearGradient id="SVGID_1_" gradientUnits="userSpaceOnUse" x1="610.0398" y1="629.9377" x2="645.1081" y2="629.9377" gradientTransform="matrix(1 0 0 1 -532 -350)">
					<stop  offset="0" style="stop-color:#CFEFFF"/>
					<stop  offset="0.2615" style="stop-color:#4BB4FE"/>
					<stop  offset="1" style="stop-color:#00C2E0"/>
				</linearGradient>
				<path fill="url(#SVGID_1_)" d="M78.04,269.586c0.01-1.353,0.973-2.991,2.15-3.657c0.544-0.308,1.033-0.346,1.407-0.174
					c10.836-0.088,21.492,2.765,30.834,8.256l0.677,0.398l-11.647,19.814l-3.439-2.28c-7.279-4.827-13.414-11.188-17.975-18.637
					l-1.473-2.405C78.242,270.658,78.035,270.212,78.04,269.586z"/>
				<path fill="#D4ECFF" d="M99.123,288.943c0.04-5.182,3.728-11.455,8.236-14.011c4.508-2.556,8.13-0.427,8.089,4.755
					c-0.04,5.182-3.728,11.455-8.236,14.011C102.704,296.254,99.082,294.125,99.123,288.943z"/>
				<polygon fill="#D4ECFF" points="170.586,337.286 101.462,294.222 113.109,274.408 184.348,313.874 				"/>
				<path fill="#D4ECFF" d="M167.822,331.049c0.048-6.123,4.405-13.535,9.731-16.555c5.326-3.02,9.606-0.505,9.558,5.618
					c-0.048,6.123-4.405,13.535-9.731,16.555C172.054,339.687,167.774,337.172,167.822,331.049z"/>
			</g>
			<g>
				<path fill="#D4ECFF" d="M171.765,333.366c0.048-6.123,4.405-13.535,9.731-16.555c5.327-3.02,9.606-0.505,9.558,5.618
					c-0.048,6.123-4.405,13.535-9.731,16.555C175.997,342.005,171.718,339.489,171.765,333.366z"/>
				
					<rect x="174.112" y="341.194" transform="matrix(0.8621 0.5067 -0.5067 0.8621 211.0869 -66.1815)" fill="#D4ECFF" width="106.074" height="27.157"/>
				<path fill="#D4ECFF" d="M263.215,387.12c0.048-6.123,4.405-13.535,9.731-16.555c5.327-3.02,9.606-0.505,9.558,5.618
					c-0.048,6.123-4.405,13.535-9.731,16.555C267.447,395.759,263.168,393.243,263.215,387.12z"/>
				<path fill="#396CAA" d="M266.667,385.163c0.211-3.614,3.154-8.116,6.574-10.055c3.42-1.939,6.022-0.581,5.811,3.033
					c-0.211,3.614-3.154,8.116-6.574,10.055C269.059,390.135,266.457,388.777,266.667,385.163z"/>
			</g>
			<g>
				<path fill="#FFFFFF" d="M167.127,330.64c0.048-6.122,4.405-13.535,9.731-16.555c2.146-1.217,4.114-1.521,5.706-1.067
					c-1.729-1.807-4.565-2.02-7.793-0.19c-5.327,3.02-9.684,10.433-9.731,16.555c-0.029,3.657,1.493,6.013,3.853,6.686
					C167.768,334.893,167.108,333.052,167.127,330.64z"/>
				<path fill="#FF2C9C" d="M167.127,330.64c0.048-6.123,4.405-13.535,9.731-16.556c2.664-1.51,5.065-1.636,6.795-0.619l5.181,3.045
					l-2.469,4.2c-0.451,5.569-4.178,11.91-8.824,15.012l-2.469,4.201l-5.182-3.045l0,0
					C168.161,335.861,167.103,333.702,167.127,330.64z"/>
				<path fill="#D4ECFF" d="M172.309,333.686c0.048-6.123,4.405-13.535,9.731-16.555c5.327-3.02,9.606-0.505,9.558,5.618
					c-0.048,6.123-4.405,13.535-9.731,16.555C176.541,342.324,172.261,339.809,172.309,333.686z"/>
			</g>
			<g>
				<path fill="#FF2C9C" d="M269.78,385.19c0.021-2.642,1.9-5.84,4.199-7.143c2.298-1.303,4.145-0.218,4.124,2.424
					c-0.021,2.642-1.9,5.84-4.199,7.143C271.605,388.917,269.759,387.832,269.78,385.19z"/>
				<path fill="#FF2C9C" d="M269.78,385.19c0.021-2.642,1.9-5.84,4.199-7.143c1.149-0.651,2.185-0.706,2.932-0.267l19.383,11.394
					c2.789,1.64,3.722,5.23,2.082,8.02c-1.64,2.79-5.23,3.722-8.02,2.082l-19.383-11.394l0,0
					C270.226,387.442,269.769,386.511,269.78,385.19z"/>
			</g>
			<g>
				<path fill="#5793CE" d="M248.236,349.532l2.906-1.649c1.67-0.946,3.878-0.71,6.218,0.665l9.96,5.855
					c1.88,1.105,3.396,3.778,3.379,5.96l-0.039,4.985c-0.006,0.836,0.404,1.797,1.003,2.505l-0.373,2.309l2.483-1.423l-0.005-0.003
					c0.359-0.182,0.588-0.6,0.593-1.213l0.039-4.985c0.035-4.547-3.125-10.122-7.046-12.426l-9.961-5.855
					c-3.328-1.956-6.469-2.292-8.844-0.946l-2.905,1.649c-1.669,0.946-3.878,0.71-6.218-0.666l-40.151-23.601
					c-0.519-0.305-0.988-0.33-1.327-0.129v-0.003l-2.478,1.419l2.121,0.816c0.294,0.892,0.917,1.758,1.649,2.188l40.151,23.601
					C242.721,350.543,245.862,350.879,248.236,349.532z"/>
				<path fill="#5793CE" d="M248.626,349.324c1.67-0.946,3.878-0.71,6.218,0.665l9.961,5.855c1.88,1.105,3.396,3.778,3.379,5.96
					l-0.039,4.986c-0.009,1.185,0.812,2.633,1.833,3.233c1.021,0.6,1.857,0.127,1.867-1.058l0.039-4.985
					c0.035-4.547-3.125-10.122-7.046-12.426l-9.961-5.855c-3.328-1.956-6.468-2.292-8.844-0.946l-2.906,1.649
					c-1.669,0.946-3.878,0.71-6.218-0.666l-40.151-23.601c-1.022-0.6-1.857-0.127-1.867,1.059c-0.009,1.185,0.812,2.633,1.833,3.233
					l40.151,23.6c3.329,1.957,6.47,2.292,8.844,0.946L248.626,349.324z"/>
				<g>
					<path fill="#FFFFFF" d="M268.309,362.626l-0.039,4.986c0,0.032,0.014,0.068,0.015,0.101c-0.092-0.313-0.143-0.627-0.14-0.924
						l0.039-4.986c0.001-0.142-0.021-0.29-0.033-0.435C268.246,361.795,268.312,362.22,268.309,362.626z"/>
				</g>
			</g>
		</g>
	</g>
	<polygon opacity="0.5" fill="#173D7A" enable-background="new    " points="313.24,146.738 422.635,209.897 488.397,171.929 
		379.115,108.705 	"/>
	<g>
		<g>
			<g>
				<path fill="#FF2C9C" d="M521.04,110.389l-14.408-8.318l53.12-30.669c2.509-1.449,2.509-3.805,0-5.254l-54.267-31.331
					c-2.509-1.449-6.591-1.449-9.1,0l-53.12,30.67l-14.408-8.318l53.12-30.669c10.453-6.035,27.461-6.035,37.915,0L574.16,57.83
					c10.453,6.035,10.453,15.855,0.001,21.89L521.04,110.389z"/>
			</g>
			<g>
				<path fill="#D4ECFF" d="M544.288,114.051c0-7.702-4.683-16.65-10.46-19.985L437.584,38.5c-2.587-1.494-4.95-1.599-6.776-0.579
					l-0.005-0.004l-114.915,66.776l111.126,83.737l113.212-65.709c0.35-0.159,0.688-0.344,1-0.581l0.001-0.001l0,0
					C543.119,120.708,544.288,117.899,544.288,114.051z"/>
				<path fill="#396CAA" d="M427.015,188.431l113.212-65.709c0.35-0.159,0.688-0.344,1-0.581l0.001-0.001l0,0
					c1.891-1.432,3.06-4.241,3.06-8.089c0-3.677-1.075-7.632-2.819-11.13l-129.053,74.509L427.015,188.431z"/>
				<path fill="#5793CE" d="M419.777,188.134l-96.244-55.567c-5.777-3.335-10.46-12.283-10.46-19.985l0,0
					c0-7.702,4.683-11.242,10.46-7.907l96.244,55.567c5.777,3.335,10.46,12.283,10.46,19.985l0,0
					C430.237,187.929,425.554,191.469,419.777,188.134z"/>
				<path fill="#FFFFFF" d="M420.935,159.715l-96.244-55.566c-2.656-1.533-5.073-1.599-6.918-0.489
					c1.652-0.502,3.631-0.214,5.76,1.015l96.244,55.566c5.777,3.336,10.46,12.283,10.46,19.985v0.001
					c0,4.161-1.374,7.092-3.542,8.396c2.831-0.862,4.7-4.06,4.7-8.922v-0.001C431.395,171.998,426.712,163.051,420.935,159.715z"/>
			</g>
			<path fill="#FFFFFF" d="M405.361,169.394l-11.571-6.675c-1.151-0.665-2.085-2.448-2.085-3.983l0,0
				c0-1.535,0.933-2.241,2.085-1.576l11.571,6.675c1.152,0.665,2.085,2.448,2.085,3.983l0,0
				C407.446,169.353,406.513,170.059,405.361,169.394z"/>
		</g>
		<g>
			<path fill="#5793CE" d="M418.413,90.388c3.49-2.064,3.456-5.352-0.077-7.342c-3.533-1.991-9.227-1.931-12.717,0.133
				c-3.49,2.064-3.456,5.351,0.077,7.342C409.228,92.512,414.922,92.452,418.413,90.388z"/>
			<path fill="#FFFFFF" d="M437.792,101.308c3.491-2.064,3.456-5.351-0.077-7.342c-3.533-1.991-9.227-1.931-12.717,0.133
				c-3.491,2.064-3.456,5.351,0.077,7.342C428.608,103.432,434.302,103.373,437.792,101.308z"/>
			<path fill="#FFFFFF" d="M457.172,112.228c3.491-2.064,3.456-5.351-0.077-7.342c-3.533-1.991-9.227-1.931-12.717,0.133
				c-3.49,2.064-3.456,5.352,0.077,7.342C447.988,114.352,453.681,114.293,457.172,112.228z"/>
		</g>
	</g>
	<g>
		<g>
			<g>
				<path fill="#FF2C9C" d="M204.037,271.263c0,0-4.979-2.511-8.037,1.228c-3.058,3.739-7.429,12.565-7.564,18.529
					c-0.135,5.964,4.72,5.561,7.606,4.15c2.886-1.412,11.316-13.641,11.827-16.037c0.511-2.396-0.602-5.636-1.413-6.27
					C205.645,272.228,204.037,271.263,204.037,271.263z"/>
				<path fill="#D4ECFF" d="M205.124,270.063l0.23,5.158c0.049,1.097-0.503,2.142-1.457,2.684c-0.87,0.493-2.133,0.871-3.841,0.597
					c-3.751-0.603-4.086-1.674-4.353-6.831C195.435,266.513,205.124,270.063,205.124,270.063z"/>
				<g>
					<path fill="#FF2C9C" d="M185.812,261.344c0,0-4.979-2.511-8.037,1.228c-3.058,3.739-7.429,12.565-7.564,18.529
						c-0.135,5.964,4.72,5.561,7.605,4.15c2.886-1.412,11.317-13.641,11.827-16.037c0.51-2.396-0.602-5.636-1.413-6.27
						C187.42,262.31,185.812,261.344,185.812,261.344z"/>
					<path fill="#D4ECFF" d="M186.898,260.145l0.231,5.159c0.049,1.097-0.503,2.142-1.457,2.683
						c-0.87,0.493-2.133,0.871-3.841,0.597c-3.751-0.603-4.085-1.674-4.353-6.831C177.209,256.595,186.898,260.145,186.898,260.145z
						"/>
					<path fill="#173D7A" d="M231.325,165.441c-1.474-23.977-25.967,3.528-25.967,3.528L188.594,185.4L173.5,201.983
						c-2.948,3.239-4.32,7.611-3.749,11.954l6.107,46.498c0.302,2.296,2.266,3.99,4.582,3.972c0.654-0.005,1.404-0.065,2.262-0.198
						c5.447-0.848,5.046-6.028,5.046-6.028l-1.116-43.489l31.702-19.11C218.332,195.58,232.799,189.418,231.325,165.441z"/>
				</g>
				<path fill="#173D7A" d="M249.551,174.577c-1.473-23.977-25.967,3.528-25.967,3.528l-16.764,16.431l-15.095,16.583
					c-2.948,3.239-4.32,7.611-3.75,11.953l6.107,46.498c0.302,2.296,2.266,3.99,4.582,3.972c0.654-0.005,1.404-0.065,2.262-0.198
					c5.447-0.848,5.046-6.028,5.046-6.028l-1.084-42.238l31.67-20.361C236.558,204.716,251.024,198.554,249.551,174.577z"/>
				<path fill="#FF2C9C" d="M235.061,97.609c18.569,7.699,18.197,18.675,18.197,18.675s-3.637,40.242-2.396,67.117
					c0.519,11.235-59.692,12.092-50.712-17.881c10.588-35.341,6.619-63.952,11.575-68.267
					C216.681,92.937,230.257,95.618,235.061,97.609z"/>
				
					<ellipse transform="matrix(-0.9684 -0.2495 0.2495 -0.9684 430.0039 264.4283)" fill="#FFC2B0" cx="231.76" cy="104.962" rx="9.578" ry="7.05"/>
				<path fill="#FFFFFF" d="M233.6,111.861l-3.417,3.71c-0.444,0.481-0.655,1.132-0.58,1.783l2.349,20.311
					c0.066,0.57-0.092,1.142-0.44,1.598l-7.351,9.616c-0.326,0.426-0.997,0.309-1.159-0.202L219,136.081
					c-0.152-0.477-0.137-0.991,0.041-1.459l7.041-18.447c0.154-0.404,0.189-0.843,0.1-1.266l-1.03-4.891L233.6,111.861z"/>
				<path fill="#FFFFFF" d="M233.172,113.076c-1.114,0-2.258-0.145-3.392-0.437c-2.658-0.685-4.97-2.101-6.51-3.987
					c-1.602-1.965-2.186-4.205-1.644-6.309c0.542-2.104,2.136-3.784,4.488-4.729c2.259-0.908,4.965-1.03,7.626-0.346
					c2.658,0.685,4.97,2.101,6.51,3.986c1.603,1.966,2.188,4.207,1.646,6.31l0,0c-0.542,2.103-2.136,3.784-4.489,4.729
					C236.112,112.814,234.668,113.076,233.172,113.076z M230.346,98.604c-1.269,0-2.485,0.219-3.57,0.656
					c-1.815,0.73-3.033,1.981-3.431,3.526c-0.398,1.543,0.065,3.228,1.301,4.743c1.302,1.595,3.282,2.798,5.577,3.39
					c2.293,0.593,4.611,0.497,6.52-0.274c1.817-0.73,3.034-1.983,3.432-3.526l0,0c0.398-1.543-0.065-3.228-1.302-4.743
					c-1.301-1.595-3.282-2.798-5.577-3.39C232.306,98.731,231.31,98.604,230.346,98.604z"/>
				<path fill="#FFC2B0" d="M227.615,96.772c0,0,0.16,0.745-0.161,6.629c-0.101,1.85,6.376,3.578,8.051,1.904
					c1.674-1.674,1.005-3.416,1.406-9.711C237.313,89.297,227.615,96.772,227.615,96.772z"/>
				<path fill="#EA9C92" d="M236.911,95.593c0,0-1.595,5.837-9.458,8.076l0.119-5.305L236.911,95.593z"/>
				<circle fill="#FFC2B0" cx="228.054" cy="84.34" r="14.294"/>
				<path fill="#EA9C92" d="M231.337,84.864c0,0-7.87,3.371-13.319,3.41c-5.449,0.039-4.248-4.525-4.248-4.525l16.176-2.338
					L231.337,84.864z"/>
				
					<linearGradient id="SVGID_2_" gradientUnits="userSpaceOnUse" x1="739.4446" y1="428.4575" x2="778.1619" y2="428.4575" gradientTransform="matrix(1 0 0 1 -532 -350)">
					<stop  offset="0" style="stop-color:#2D46A3"/>
					<stop  offset="1" style="stop-color:#BAF1FF"/>
				</linearGradient>
				<path fill="url(#SVGID_2_)" d="M216.394,85.752c0,0,6.855-2.91,12.87-1.697c1.414,0.285,2.724,1.041,3.634,2.16
					c0.297,0.366,0.673,0.699,1.1,0.796c1.066,0.241,2.812-4.183,4.885-4.284c2.073-0.101,3.456,1.367,1.757,4.088
					c-1.699,2.721-1.125,5.766-0.343,6.203c0.782,0.437,10.463-6.319,3.146-20.813c-7.317-14.494-27.288-6.285-30.179-3.347
					c0,0-3.045,2.653-5.522,0.292C207.741,69.15,204.965,89.944,216.394,85.752z"/>
				<path fill="#FFC2B0" d="M242.841,145.685v10.874c0,1.246-0.525,2.434-1.446,3.274l-22.338,20.365l2.538,3.881l30.775-20.179
					c1.377-0.999,2.265-2.535,2.443-4.227l2.105-20.179L242.841,145.685z"/>
				<path fill="#FF2C9C" d="M251.686,110.847c0,0,6.777,10.192,9.301,37.018c0,0-11.576,3.744-18.146,1.619
					C236.271,147.359,251.686,110.847,251.686,110.847z"/>
				<path fill="#D3008D" d="M241.604,123.733c0,0-2.653,14.199-2.804,20.872c-0.041,1.834,1.079,3.49,2.804,4.114l0,0V123.733z"/>
			</g>
			<g>
				<path fill="#5793CE" d="M235.808,194.337l-4.937-0.652l-31.87-18.4c-1.022-0.59-2.806-0.516-3.986,0.165l-22.583,13.033
					l-2.985-0.394v2.972h0.003c-0.02,0.391,0.203,0.768,0.685,1.046l36.118,20.853c1.022,0.59,2.806,0.516,3.986-0.165
					l24.594-14.195c0.664-0.383,0.994-0.877,0.975-1.34l0,0L235.808,194.337L235.808,194.337z"/>
				<path fill="#396CAA" d="M211.862,182.71l-2.264-1.307h-24.894l-12.272,7.081l-2.985-0.394v2.972h0.003
					c-0.02,0.391,0.203,0.768,0.685,1.046l36.118,20.853c0.54,0.312,1.293,0.436,2.057,0.385L211.862,182.71z"/>
				<path fill="#5793CE" d="M170.771,188.264l-1.325-0.175v2.972h0.003c-0.02,0.391,0.203,0.768,0.685,1.046l0.636,0.367V188.264
					L170.771,188.264L170.771,188.264z"/>
				<path fill="#5793CE" d="M206.617,213.13c0.968,0.367,2.353,0.287,3.387-0.21v-5.056h-3.387V213.13z"/>
				<path fill="#FFFFFF" d="M206.253,209.991l-36.118-20.853c-1.022-0.59-0.894-1.62,0.286-2.301l24.594-14.194
					c1.18-0.681,2.964-0.755,3.986-0.165l36.118,20.853c1.022,0.59,0.894,1.62-0.286,2.301l-24.594,14.194
					C209.059,210.507,207.275,210.581,206.253,209.991z"/>
				<path fill="#D4ECFF" d="M205.642,206.83l-30.032-17.339c-0.85-0.491-0.743-1.347,0.238-1.914l13.179-7.411
					c0.981-0.566,2.465-0.628,3.314-0.137l30.032,17.339c0.85,0.49,0.743,1.347-0.238,1.914l-13.179,7.411
					C207.975,207.259,206.491,207.321,205.642,206.83z"/>
			</g>
			<path fill="#FFC2B0" d="M196.411,171.958l-0.374,2.492c-0.318,2.123-0.263,4.286,0.163,6.39l0.445,2.196
				c0.251,1.239,1.231,2.2,2.474,2.426l0,0c0.971,0.177,1.888-0.506,1.998-1.487l0.596-5.328c0,0,1.363,1.786,2.021,1.786
				c0.658,0-0.736-5.335-2.225-8.355C200.021,169.059,196.411,171.958,196.411,171.958z"/>
			<path fill="#FFC2B0" d="M208.654,132.35l-3.876,7.67c-0.916,1.814-1.456,3.794-1.586,5.822l-1.683,26.236l-5.099-0.121
				l-2.314-29.464c-0.071-0.91-0.027-1.825,0.132-2.723l2.643-14.941L208.654,132.35z"/>
			<g>
				<path fill="#173D7A" d="M205.029,211.994l-3.028-3.953l-31.848-18.439c-1.021-0.591-1.847-2.175-1.846-3.537l0.028-26.074
					l-1.831-2.391l1.721-0.996l0.002,0.002c0.329-0.212,0.767-0.207,1.249,0.072l36.093,20.897c1.021,0.591,1.847,2.175,1.846,3.537
					l-0.03,28.396c-0.001,0.766-0.264,1.299-0.675,1.514l0,0L205.029,211.994z"/>
				<path fill="#396CAA" d="M183.006,197.042l-2.263-1.31l-12.421-21.574l0.013-14.168l-1.831-2.391l1.721-0.996l0.002,0.002
					c0.329-0.212,0.767-0.207,1.249,0.072l36.093,20.897c0.54,0.312,1.023,0.903,1.361,1.591L183.006,197.042z"/>
				<path fill="#5793CE" d="M167.317,158.661l-0.813-1.061l1.721-0.996l0.002,0.002c0.329-0.212,0.767-0.207,1.249,0.072
					l0.636,0.368L167.317,158.661z"/>
				<path fill="#274F89" d="M205.896,177.805c0.802,0.656,1.423,1.896,1.508,3.04l-3.527,2.036l-1.69-2.935L205.896,177.805z"/>
				<path fill="#5793CE" d="M203.849,178.57l-36.093-20.897c-1.021-0.591-1.85,0.034-1.852,1.396l-0.03,28.396
					c-0.002,1.362,0.825,2.946,1.846,3.537l36.093,20.897c1.021,0.591,1.85-0.034,1.852-1.396l0.03-28.396
					C205.697,180.745,204.87,179.161,203.849,178.57z"/>
			</g>
			<path fill="#FFC2B0" d="M221.596,184.079l-0.578,1.198c-0.666,1.38-1.713,2.54-3.017,3.344l-3.585,2.21
				c-1.115,0.687-2.528,0.744-3.66,0.084c-0.041-0.024-0.082-0.048-0.122-0.074c-1.14-0.714-1.242-2.35-0.305-3.314l3.746-3.851
				c0,0-2.105,1.613-2.695,0.963c-0.432-0.476,2.041-2.798,3.94-2.875c1.899-0.076,3.737-1.568,3.737-1.568L221.596,184.079z"/>
			<path fill="#FF2C9C" d="M212.096,97.197c0,0-13.734,14.943-19.274,28.653c0,0,4.697,8.461,16.192,11.781
				C220.51,140.952,212.096,97.197,212.096,97.197z"/>
			<path fill="#D3008D" d="M206.428,136.745l2.226-21.504l-5.245,20.147C204.344,135.876,205.355,136.329,206.428,136.745z"/>
			<path fill="#FFFFFF" d="M222.383,94.182l-3.69-1.014c0,0,1.762,2.772,4.334,3.478c2.572,0.707,2.972-1.471,2.972-1.471
				L222.383,94.182z"/>
		</g>
		<circle fill="#FFFFFF" cx="240.04" cy="88.274" r="2.055"/>
	</g>
	<g>
		<g>
			<path opacity="0.5" fill="#173D7A" enable-background="new    " d="M383.929,274.813c-14.832,8.563-38.879,8.563-53.711,0
				c-14.832-8.563-14.833-22.447-0.001-31.01c14.832-8.563,38.879-8.563,53.711,0.001
				C398.761,252.366,398.761,266.25,383.929,274.813z"/>
			<path fill="#FF2C9C" d="M400.282,240.554v-12.131h-2.29c-2.057-3.541-5.481-6.875-10.366-9.695
				c-16.874-9.743-44.232-9.743-61.106,0c-4.884,2.82-8.309,6.154-10.366,9.695h-2.287v12.066h0.003
				c-0.029,6.406,4.185,12.818,12.65,17.706c16.874,9.743,44.232,9.743,61.106,0.001
				C396.064,253.324,400.283,246.939,400.282,240.554z"/>
			<path fill="#FF2C9C" d="M387.627,246.063c-16.874,9.742-44.232,9.742-61.106-0.001c-16.874-9.742-16.875-25.538-0.001-35.28
				c16.874-9.742,44.232-9.742,61.106,0.001S404.5,236.321,387.627,246.063z"/>
			<path fill="#FFFFFF" d="M387.627,246.062c-16.874,9.743-44.232,9.743-61.106,0c-8.087-4.669-12.254-10.729-12.59-16.847
				c-0.365,6.647,3.803,13.361,12.59,18.434c16.874,9.743,44.232,9.743,61.106,0c8.787-5.073,12.954-11.786,12.59-18.433
				C399.881,235.334,395.713,241.394,387.627,246.062z"/>
		</g>
		<g>
			<path fill="#FFFFFF" d="M336.247,236.682c-0.727-0.42-1.14-0.991-1.139-1.592l0.044-16.254c0.003-1.239,1.747-2.243,3.895-2.241
				c2.149,0.001,3.883,1.008,3.882,2.25l-0.036,13.477l39.115-4.79c2.103-0.258,4.166,0.518,4.612,1.73
				c0.447,1.213-0.897,2.405-2.997,2.663l-43.818,5.365c-1.149,0.141-2.346-0.025-3.258-0.453
				C336.442,236.788,336.342,236.737,336.247,236.682z"/>
		</g>
	</g>
	<g>
		<g>
			<polygon opacity="0.5" fill="#173D7A" enable-background="new    " points="107.286,419.028 84.405,405.817 107.285,392.608 
				130.166,405.818 			"/>
			<polygon fill="#D3008D" points="130.166,389.046 107.286,402.256 107.286,375.837 130.166,362.627 			"/>
			<polygon fill="#FF2C9C" points="107.286,375.837 84.405,362.627 107.285,349.418 130.165,362.627 			"/>
			<polygon fill="#FF2C9C" points="107.286,402.256 84.405,389.046 84.405,362.627 107.286,375.837 			"/>
		</g>
		<polygon fill="#FFFFFF" points="99.045,387.983 92.646,384.289 92.646,376.9 99.045,380.594 		"/>
	</g>
</g>
</svg>
