<?xml version="1.0" encoding="utf-8"?>
<!-- Generator: Adobe Illustrator 17.0.0, SVG Export Plug-In . SVG Version: 6.00 Build 0)  -->
<!DOCTYPE svg PUBLIC "-//W3C//DTD SVG 1.1//EN" "http://www.w3.org/Graphics/SVG/1.1/DTD/svg11.dtd">
<svg version="1.1" id="Layer_1" xmlns="http://www.w3.org/2000/svg" xmlns:xlink="http://www.w3.org/1999/xlink" x="0px" y="0px"
	 width="144px" height="144px" viewBox="0 0 144 144" enable-background="new 0 0 144 144" xml:space="preserve">
<g>
	<path fill="#ffffff" d="M109.247,144c-0.771,0-1.284,0-1.798,0c-30.844,0-61.687,0.001-92.531-0.001
		c-7.687,0-12.544-4.88-12.544-12.577C2.374,92.218,2.362,53.014,2.397,13.81c0.002-1.961,0.109-4.008,0.663-5.866
		c1.469-4.924,5.994-7.94,11.483-7.941C40.946-0.002,67.35,0.001,93.754,0.001c4.582,0,9.163,0,13.745,0c0.511,0,1.023,0,1.669,0
		c0,7.597,0,15.082,0,22.912c5.478-2.731,10.711-5.339,16.134-8.043c0,5.257,0,10.286,0,15.415
		c5.556,0.918,9.997,3.511,13.151,8.126c2.199,3.218,3.254,6.804,3.171,10.683c-0.098,4.61-1.698,8.67-4.805,12.099
		c-3.064,3.381-6.914,5.318-11.477,6.021c0,2.636,0,5.182,0,7.728c0,2.499,0,4.997,0,7.775c-5.414-2.702-10.648-5.313-16.094-8.031
		C109.247,97.892,109.247,120.859,109.247,144z M25.706,4.701c0,38.761,0,77.372,0,115.95c26.353,0,52.589,0,78.82,0
		c0.032-0.257,0.065-0.396,0.065-0.535c0.004-15.59-0.003-31.179,0.028-46.769c0.002-0.818-0.344-1.147-0.991-1.468
		c-4.226-2.095-8.427-4.242-12.663-6.316c-0.648-0.317-1.437-0.475-2.163-0.484c-3.779-0.047-7.558-0.022-11.338-0.022
		c-1.028,0-2.055,0-3.087,0c0-10.918,0-21.664,0-32.495c4.862,0,9.627,0.021,14.393-0.022c0.721-0.007,1.502-0.184,2.149-0.5
		c4.153-2.031,8.262-4.153,12.421-6.173c0.928-0.451,1.293-0.963,1.284-2.017c-0.052-5.952-0.024-11.905-0.029-17.857
		c0-0.409-0.052-0.817-0.085-1.292C78.218,4.701,52.018,4.701,25.706,4.701z M20.926,4.628c-2.225,0-4.385-0.028-6.545,0.006
		c-4.465,0.071-7.295,2.951-7.309,7.434c-0.015,4.77-0.002,9.54-0.002,14.31c0,31.642,0,63.283,0.001,94.925
		c0,0.528,0,1.056,0,1.886c4.373-3.412,9.23-2.107,13.855-2.489C20.926,82.007,20.926,43.4,20.926,4.628z M120.689,22.431
		c-0.39,0.153-0.612,0.22-0.816,0.323c-8.682,4.345-17.357,8.707-26.054,13.022c-0.845,0.419-0.977,0.983-0.975,1.801
		c0.02,7.505,0.032,15.009-0.012,22.514c-0.006,0.988,0.421,1.383,1.221,1.781c8.441,4.195,16.863,8.428,25.293,12.646
		c0.405,0.203,0.833,0.361,1.344,0.58C120.689,57.498,120.689,40.048,120.689,22.431z M104.549,125.465
		c-0.529-0.032-0.944-0.079-1.359-0.079c-29.569-0.002-59.138-0.006-88.706,0.025c-1.062,0.001-2.188,0.185-3.173,0.569
		c-3.049,1.191-4.752,4.479-4.144,7.718c0.637,3.391,3.49,5.659,7.286,5.66c29.616,0.012,59.233,0.004,88.849-0.002
		c0.408,0,0.815-0.061,1.205-0.092c0-1.574,0-3.017,0-4.62c-24.151,0-48.211,0-72.299,0c0-1.599,0-3.034,0-4.624
		c24.167,0,48.231,0,72.342,0C104.549,128.454,104.549,127.046,104.549,125.465z M125.4,62.273
		c5.58,0.207,11.441-6.613,11.562-13.286c0.152-8.441-7.055-13.63-11.562-13.726C125.4,44.266,125.4,53.271,125.4,62.273z
		 M88.08,60.334c0-7.798,0-15.452,0-23.084c-3.1,0-6.091,0-9.085,0c0,7.754,0,15.406,0,23.084
		C82.073,60.334,85.034,60.334,88.08,60.334z"/>
	<path fill="#ffffff" d="M65.075,90.569c5.382,0,10.764-0.046,16.145,0.014c4.88,0.054,8.543,2.274,10.635,6.689
		c2.043,4.313,1.46,8.485-1.484,12.219c-2.228,2.826-5.255,4.286-8.863,4.298c-10.952,0.037-21.906,0.104-32.857-0.016
		c-6.096-0.067-10.946-4.563-11.49-10.24c-0.579-6.039,3.109-11.301,8.966-12.637c1.316-0.3,2.715-0.315,4.077-0.324
		c4.957-0.036,9.914-0.014,14.871-0.014C65.075,90.561,65.075,90.565,65.075,90.569z M65.07,95.228
		c-5.332,0-10.664-0.009-15.996,0.003c-4.209,0.009-7.35,2.994-7.35,6.957c0,3.971,3.117,6.945,7.353,6.951
		c10.664,0.016,21.328,0.016,31.993,0.005c4.19-0.005,7.323-3.057,7.278-7.034c-0.045-3.934-3.133-6.867-7.282-6.878
		C75.734,95.217,70.402,95.228,65.07,95.228z"/>
</g>
</svg>
