<?xml version="1.0" encoding="utf-8"?>
<!-- Generator: Adobe Illustrator 23.0.3, SVG Export Plug-In . SVG Version: 6.00 Build 0)  -->
<svg version="1.1" id="Layer_1" xmlns="http://www.w3.org/2000/svg" xmlns:xlink="http://www.w3.org/1999/xlink" x="0px" y="0px"
	 viewBox="0 0 612 192.4" style="enable-background:new 0 0 612 192.4;" xml:space="preserve">
<style type="text/css">
	.st0{fill:#111111;}
	.st1{fill:#217091;}
</style>
<g>
	<path class="st0" d="M232.3,24.6v7.8h-21.1v66.8h-9.6V32.4h-21.1v-7.8C180.5,24.6,232.3,24.6,232.3,24.6z"/>
	<path class="st0" d="M284.6,46.7c4.2,4.3,6.3,10.6,6.3,18.8v33.8h-9.6v-33c0-5.8-1.5-10.2-4.4-13.3c-3-3.1-7-4.7-12.1-4.7
		c-5.3,0-9.5,1.7-12.7,5.1c-3.2,3.4-4.8,8.4-4.8,15v30.8h-9.6V20.9h9.6v34c1.5-4.7,4.1-8.4,7.9-10.9s8.1-3.8,13.1-3.8
		C275,40.2,280.4,42.3,284.6,46.7z"/>
	<path class="st0" d="M354.5,72.3H308c0.2,6.6,2.1,11.6,5.7,14.9s7.9,5,13.1,5c4.7,0,8.6-1.2,11.7-3.5c3.1-2.4,5.1-5.5,5.8-9.5h10.3
		c-0.7,4-2.3,7.6-4.7,10.8c-2.4,3.2-5.6,5.7-9.5,7.4c-3.9,1.8-8.3,2.6-13.1,2.6c-5.6,0-10.5-1.2-14.8-3.6s-7.7-5.8-10.1-10.3
		s-3.7-9.8-3.7-15.8c0-6.1,1.2-11.4,3.7-15.9c2.4-4.5,5.8-8,10.1-10.4c4.3-2.4,9.3-3.6,14.8-3.6c5.6,0,10.6,1.2,14.8,3.6
		c4.2,2.4,7.4,5.6,9.6,9.6s3.3,8.5,3.3,13.3C354.9,69,354.8,70.8,354.5,72.3z M343.1,56.8c-1.6-2.9-3.8-5-6.7-6.5
		c-2.8-1.4-5.9-2.1-9.2-2.1c-5.3,0-9.7,1.6-13.3,4.9c-3.6,3.3-5.5,8.1-5.8,14.5h37.2C345.4,63.3,344.7,59.7,343.1,56.8z"/>
	<path class="st1" d="M417.5,67.3c2.6,3.3,4,7.2,4,11.5c0,6.4-2.1,11.4-6.4,15s-10.4,5.4-18.4,5.4h-34.8V24.4h34
		c7.6,0,13.5,1.7,17.7,5s6.3,8.1,6.3,14.2c0,4.5-1.2,8.3-3.6,11.3s-5.5,5-9.4,5.9C411.3,61.8,414.8,64,417.5,67.3z M379.9,55h11.9
		c6.3,0,9.4-2.7,9.4-8.1s-3.2-8.1-9.6-8.1h-11.7L379.9,55L379.9,55z M402.9,76.3c0-2.7-0.9-4.8-2.6-6.3c-1.8-1.5-4.3-2.3-7.5-2.3
		H380v16.8h12.9C399.6,84.5,402.9,81.8,402.9,76.3z"/>
	<path class="st1" d="M470.1,43.1c4.6,2.4,8.3,5.9,10.9,10.5s4,10,4,16.1s-1.3,11.5-4,16.1c-2.6,4.6-6.3,8.1-10.9,10.5
		s-9.9,3.7-15.7,3.7c-5.9,0-11.1-1.2-15.8-3.7c-4.7-2.4-8.3-5.9-11-10.5c-2.6-4.6-4-10-4-16.1s1.3-11.5,4-16.1s6.3-8.1,11-10.5
		s9.9-3.7,15.8-3.7C460.3,39.4,465.5,40.6,470.1,43.1z M445.7,58.9c-2.4,2.5-3.5,6.1-3.5,10.9c0,4.7,1.2,8.3,3.5,10.8
		c2.4,2.5,5.3,3.7,8.7,3.7c3.5,0,6.4-1.2,8.7-3.7c2.3-2.5,3.5-6.1,3.5-10.8c0-4.7-1.2-8.3-3.5-10.9c-2.3-2.5-5.2-3.8-8.7-3.8
		C450.9,55.1,448,56.4,445.7,58.9z"/>
	<path class="st1" d="M533.6,43.1c4.6,2.4,8.3,5.9,10.9,10.5c2.6,4.6,4,10,4,16.1s-1.3,11.5-4,16.1c-2.6,4.6-6.3,8.1-10.9,10.5
		c-4.6,2.4-9.9,3.7-15.7,3.7c-5.9,0-11.1-1.2-15.8-3.7c-4.7-2.4-8.3-5.9-11-10.5c-2.6-4.6-4-10-4-16.1s1.3-11.5,4-16.1
		s6.3-8.1,11-10.5s9.9-3.7,15.8-3.7C523.7,39.4,529,40.6,533.6,43.1z M509.1,58.9c-2.4,2.5-3.5,6.1-3.5,10.9c0,4.7,1.2,8.3,3.5,10.8
		c2.4,2.5,5.3,3.7,8.7,3.7c3.5,0,6.4-1.2,8.7-3.7s3.5-6.1,3.5-10.8c0-4.7-1.2-8.3-3.5-10.9c-2.3-2.5-5.2-3.8-8.7-3.8
		C514.4,55.1,511.5,56.4,509.1,58.9z"/>
	<path class="st1" d="M589.5,99.3l-17.7-25.1v25.1h-18.1V20.9h18.1v43l17.7-23.7h21.3L587,69.8l24.4,29.6L589.5,99.3L589.5,99.3z"/>
	<path class="st0" d="M284.4,105.4v75.3h-15.1v-52.5L250,180.7h-13.2l-19.3-52.3v52.3h-15.2v-75.3h18.4l22.9,56.6l22.4-56.6H284.4z"
		/>
	<path class="st1" d="M114,35.2v59.2h-11.9V53.1L86.9,94.4H76.5L61.3,53.2v41.2h-12V35.2h14.5l18,44.6l17.7-44.6
		C99.5,35.2,114,35.2,114,35.2z"/>
	<path class="st0" d="M330.2,123.7c3.6,2.4,6.1,5.6,7.7,9.6v-12.4H353v59.7h-15.1v-12.5c-1.5,4-4.1,7.2-7.7,9.6
		c-3.6,2.4-7.9,3.6-12.9,3.6s-9.6-1.2-13.6-3.7c-4-2.4-7.2-6-9.4-10.6c-2.3-4.6-3.4-10.1-3.4-16.3c0-6.3,1.1-11.7,3.4-16.3
		s5.4-8.2,9.4-10.6s8.6-3.7,13.6-3.7C322.3,120.2,326.6,121.4,330.2,123.7z M310.6,138.1c-2.9,3.1-4.3,7.3-4.3,12.7
		s1.4,9.6,4.3,12.7c2.9,3.1,6.7,4.6,11.4,4.6c4.6,0,8.4-1.6,11.4-4.7c3-3.1,4.5-7.3,4.5-12.6s-1.5-9.5-4.5-12.7
		c-3-3.1-6.8-4.7-11.4-4.7C317.2,133.5,313.4,135,310.6,138.1z"/>
	<path class="st0" d="M400.5,125.7c4.4,3.7,7.1,8.6,8.2,14.7h-14.2c-0.6-2.9-1.9-5.2-3.9-6.9s-4.6-2.6-7.9-2.6c-2.6,0-4.6,0.6-6,1.8
		s-2.2,2.9-2.2,5c0,1.7,0.6,3,1.7,4s2.6,1.8,4.3,2.4c1.7,0.6,4.2,1.3,7.4,2c4.5,1,8.2,2.1,11.1,3.2c2.8,1.1,5.3,2.9,7.3,5.3
		c2,2.4,3.1,5.7,3.1,9.8c0,5.1-2,9.2-6,12.4s-9.4,4.7-16.1,4.7c-7.8,0-14-1.7-18.7-5.2s-7.5-8.5-8.5-14.9h14.6
		c0.4,2.9,1.7,5.3,3.9,7c2.2,1.7,5.1,2.5,8.7,2.5c2.6,0,4.6-0.6,5.9-1.9c1.4-1.3,2-2.9,2-4.9c0-1.7-0.6-3.1-1.8-4.2
		c-1.2-1.1-2.7-1.9-4.4-2.5c-1.8-0.6-4.3-1.3-7.5-2c-4.5-1-8.1-2-10.8-3.1c-2.8-1-5.1-2.7-7.1-5s-3-5.5-3-9.5c0-5.2,2-9.4,5.9-12.6
		c4-3.2,9.4-4.9,16.4-4.9C390.3,120.2,396.1,122,400.5,125.7z"/>
	<path class="st0" d="M448.3,167.6v13h-8c-6.7,0-11.8-1.6-15.4-4.9c-3.6-3.2-5.3-8.6-5.3-16.2v-25.9h-8.3v-12.8h8.3V106h15.2v14.8
		h13.4v12.8h-13.4v26.1c0,2.9,0.6,4.9,1.7,6c1.1,1.2,3.1,1.7,5.8,1.7h6V167.6z"/>
	<path class="st0" d="M510.5,153.7h-43.8c0.2,5.3,1.7,9.2,4.3,11.8c2.7,2.5,6,3.8,9.9,3.8c3.5,0,6.4-0.9,8.8-2.6
		c2.3-1.7,3.8-4.1,4.5-7h16.1c-0.8,4.2-2.5,7.9-5.1,11.2s-5.9,5.9-10,7.8c-4.1,1.9-8.6,2.8-13.5,2.8c-5.8,0-11-1.2-15.5-3.7
		s-8.1-6-10.6-10.6s-3.8-10-3.8-16.3s1.3-11.7,3.8-16.3s6-8.2,10.6-10.6c4.5-2.4,9.7-3.7,15.5-3.7c5.9,0,11.1,1.2,15.5,3.7
		c4.4,2.4,7.8,5.8,10.2,10.1c2.4,4.3,3.6,9.1,3.6,14.6C511.1,150.1,510.9,151.8,510.5,153.7z M492,135.9c-2.8-2.5-6.2-3.8-10.2-3.8
		c-4.1,0-7.5,1.3-10.3,3.8s-4.4,6.2-4.6,11.1h29C496,142.1,494.7,138.4,492,135.9z"/>
	<path class="st0" d="M541.6,123.4c3.7-2.2,7.8-3.3,12.3-3.3v16.3h-4.4c-11.1,0-16.7,5.2-16.7,15.5v28.8h-15.2V121h15.2v11.4
		C535,128.6,537.9,125.6,541.6,123.4z"/>
	<path class="st0" d="M596,125.7c4.4,3.7,7.1,8.6,8.2,14.7H590c-0.6-2.9-1.9-5.2-3.9-6.9s-4.6-2.6-7.9-2.6c-2.6,0-4.6,0.6-6,1.8
		s-2.2,2.9-2.2,5c0,1.7,0.6,3,1.7,4c1.1,1,2.6,1.8,4.3,2.4c1.7,0.6,4.2,1.3,7.4,2c4.5,1,8.2,2.1,11.1,3.2c2.8,1.1,5.3,2.9,7.3,5.3
		c2,2.4,3.1,5.7,3.1,9.8c0,5.1-2,9.2-6,12.4s-9.4,4.7-16.1,4.7c-7.8,0-14-1.7-18.7-5.2s-7.5-8.5-8.5-14.9h14.6
		c0.4,2.9,1.7,5.3,3.9,7s5.1,2.5,8.7,2.5c2.6,0,4.6-0.6,5.9-1.9c1.4-1.3,2-2.9,2-4.9c0-1.7-0.6-3.1-1.8-4.2
		c-1.2-1.1-2.7-1.9-4.4-2.5c-1.8-0.6-4.3-1.3-7.5-2c-4.5-1-8.1-2-10.8-3.1c-2.8-1-5.1-2.7-7.1-5s-3-5.5-3-9.5c0-5.2,2-9.4,5.9-12.6
		c4-3.2,9.4-4.9,16.4-4.9C585.8,120.2,591.7,122,596,125.7z"/>
	<rect x="49.4" y="106.3" class="st1" width="64.5" height="12"/>
	<path class="st0" d="M163.8,20.1c0-14.4-5.6-20-20-20C105.1,0,66.3,0,27.6,0C8.7,0-0.5,9.3-0.5,28.4c0,45.7,0,91.5,0.1,137.2
		c0,17,9.6,26.7,26.5,26.7c39.4,0.1,78.8,0,118.2,0c14.5,0,19.5-5.2,19.5-20c0-25.4,0-50.7,0-76.1S163.9,45.5,163.8,20.1z M12.1,169
		c-0.5-2-0.5-3.8-0.2-5.4h140.4c0.1,2.1,0.2,4,0.2,5.6H12.1C12.1,169.1,12.1,169,12.1,169z M14.1,158.6c1.5-2,3.7-3.7,6.3-5
		c2-1,4.5-1.3,6.8-1.3c41-0.1,82-0.1,122.9-0.1c1.1,1.3,1.4,1.5,1.4,1.8c0.1,1.6,0.3,3.1,0.4,4.5H14.1V158.6z M11.7,27.1
		c0.1-9.9,4.3-14.7,13.5-14.8c39.7-0.2,79.3-0.1,119-0.2c5.6,0,7.7,2.1,7.7,7.7c-0.1,39.7-0.1,79.3-0.1,121.4
		c-47.2,0-93.3,0-140.1,0c0-16.9,0-35.5,0-54.1C11.7,67.1,11.6,47.1,11.7,27.1z M127.7,180.3c-33.3,0-66.7,0-100,0
		c-6,0-10.6-2-13.4-6.2h137.5C150,180.3,143.9,180.3,127.7,180.3z"/>
</g>
</svg>
