<?xml version="1.0" encoding="utf-8"?>
<!-- Generator: Adobe Illustrator 17.0.0, SVG Export Plug-In . SVG Version: 6.00 Build 0)  -->
<!DOCTYPE svg PUBLIC "-//W3C//DTD SVG 1.1//EN" "http://www.w3.org/Graphics/SVG/1.1/DTD/svg11.dtd">
<svg version="1.1" xmlns="http://www.w3.org/2000/svg" xmlns:xlink="http://www.w3.org/1999/xlink" x="0px" y="0px" width="800px"
	 height="600px" viewBox="0 0 800 600" enable-background="new 0 0 800 600" xml:space="preserve">
<g id="BACKGROUND">
	<rect x="150" y="50" opacity="0.15" fill="#EFEFEF" width="500" height="500"/>
</g>
<g id="OBJECTS">
	<g>
		<ellipse opacity="0.15" fill="#B2C3FB" cx="397.403" cy="525.808" rx="369.696" ry="36.286"/>
		<path opacity="0.15" fill="#B2C3FB" d="M44.402,520.531c0,0-95.651-31.327,35.817-236.41
			C211.687,79.038,524.883-24.14,684.541,77.438c159.658,101.578,80.502,419.73-62.532,446.327L44.402,520.531z"/>
		<g>
			<path fill="#C6D3FF" d="M565.697,106.003h-41.095c-2.083,0-3.607-1.689-3.403-3.772l2.058-21.02
				c0.204-2.083,2.058-3.772,4.142-3.772h41.095c2.083,0,3.607,1.689,3.403,3.772l-2.057,21.02
				C569.635,104.314,567.78,106.003,565.697,106.003z"/>
			
				<linearGradient id="SVGID_1_" gradientUnits="userSpaceOnUse" x1="579.6934" y1="88.234" x2="505.6694" y2="417.3419" gradientTransform="matrix(1 0 -0.1958 1 58.1365 0)">
				<stop  offset="0" style="stop-color:#324893"/>
				<stop  offset="1" style="stop-color:#091D62"/>
			</linearGradient>
			<path fill="url(#SVGID_1_)" d="M622.009,523.765H386.503c-8.458,0-14.644-6.857-13.816-15.315l37.596-384.071
				c0.828-8.458,8.356-15.315,16.814-15.315h235.506c8.458,0,14.644,6.857,13.816,15.315L638.823,508.45
				C637.995,516.908,630.467,523.765,622.009,523.765z"/>
			<path fill="#EAF0FF" d="M611.663,501.753H401.159c-7.56,0-13.089-6.129-12.349-13.689l33.604-343.298
				c0.74-7.56,7.469-13.689,15.029-13.689h210.504c7.56,0,13.089,6.129,12.349,13.689l-33.604,343.298
				C625.952,495.624,619.223,501.753,611.663,501.753z"/>
			
				<linearGradient id="SVGID_2_" gradientUnits="userSpaceOnUse" x1="511.8261" y1="51.0139" x2="506.746" y2="163.7948" gradientTransform="matrix(1 0 -0.1958 1 58.1365 0)">
				<stop  offset="0" style="stop-color:#F05831"/>
				<stop  offset="1" style="stop-color:#E83B19"/>
			</linearGradient>
			<path fill="url(#SVGID_2_)" d="M591.575,142.401h-99.978c-4.276,0-7.403-3.466-6.984-7.742l3.445-35.196
				c0.418-4.276,4.224-7.742,8.5-7.742h99.978c4.276,0,7.403,3.466,6.984,7.742l-3.445,35.196
				C599.657,138.935,595.851,142.401,591.575,142.401z"/>
			<polygon fill="#B2C3FB" points="623.921,229.764 568.322,229.764 598.843,201.964 629.364,174.164 			"/>
			<g>
				
					<line fill="none" stroke="#B2C3FB" stroke-width="1.5869" stroke-linecap="round" stroke-linejoin="round" stroke-miterlimit="10" x1="445.731" y1="174.164" x2="538.477" y2="174.164"/>
				
					<line fill="none" stroke="#B2C3FB" stroke-width="1.5869" stroke-linecap="round" stroke-linejoin="round" stroke-miterlimit="10" x1="444.489" y1="186.853" x2="537.235" y2="186.853"/>
				
					<line fill="none" stroke="#B2C3FB" stroke-width="1.5869" stroke-linecap="round" stroke-linejoin="round" stroke-miterlimit="10" x1="443.247" y1="199.541" x2="535.993" y2="199.541"/>
				
					<line fill="none" stroke="#B2C3FB" stroke-width="1.5869" stroke-linecap="round" stroke-linejoin="round" stroke-miterlimit="10" x1="442.005" y1="212.229" x2="534.751" y2="212.229"/>
				
					<line fill="none" stroke="#B2C3FB" stroke-width="1.5869" stroke-linecap="round" stroke-linejoin="round" stroke-miterlimit="10" x1="440.763" y1="224.918" x2="533.509" y2="224.918"/>
			</g>
			<polygon fill="#B2C3FB" points="613.986,331.265 558.386,331.265 563.829,275.665 619.428,275.665 			"/>
			<g>
				
					<line fill="none" stroke="#B2C3FB" stroke-width="1.5869" stroke-linecap="round" stroke-linejoin="round" stroke-miterlimit="10" x1="435.796" y1="275.665" x2="528.542" y2="275.665"/>
				
					<line fill="none" stroke="#B2C3FB" stroke-width="1.5869" stroke-linecap="round" stroke-linejoin="round" stroke-miterlimit="10" x1="434.554" y1="288.353" x2="527.3" y2="288.353"/>
				
					<line fill="none" stroke="#B2C3FB" stroke-width="1.5869" stroke-linecap="round" stroke-linejoin="round" stroke-miterlimit="10" x1="433.312" y1="301.042" x2="526.058" y2="301.042"/>
				
					<line fill="none" stroke="#B2C3FB" stroke-width="1.5869" stroke-linecap="round" stroke-linejoin="round" stroke-miterlimit="10" x1="432.07" y1="313.73" x2="524.816" y2="313.73"/>
				
					<line fill="none" stroke="#B2C3FB" stroke-width="1.5869" stroke-linecap="round" stroke-linejoin="round" stroke-miterlimit="10" x1="430.828" y1="326.419" x2="523.574" y2="326.419"/>
			</g>
			<polygon fill="#B2C3FB" points="604.05,432.766 548.45,432.766 578.972,404.966 609.493,377.166 			"/>
			<g>
				
					<line fill="none" stroke="#B2C3FB" stroke-width="1.5869" stroke-linecap="round" stroke-linejoin="round" stroke-miterlimit="10" x1="425.86" y1="377.166" x2="518.606" y2="377.166"/>
				
					<line fill="none" stroke="#B2C3FB" stroke-width="1.5869" stroke-linecap="round" stroke-linejoin="round" stroke-miterlimit="10" x1="424.618" y1="389.854" x2="517.364" y2="389.854"/>
				
					<line fill="none" stroke="#B2C3FB" stroke-width="1.5869" stroke-linecap="round" stroke-linejoin="round" stroke-miterlimit="10" x1="423.376" y1="402.543" x2="516.122" y2="402.543"/>
				
					<line fill="none" stroke="#B2C3FB" stroke-width="1.5869" stroke-linecap="round" stroke-linejoin="round" stroke-miterlimit="10" x1="422.134" y1="415.231" x2="514.88" y2="415.231"/>
				
					<line fill="none" stroke="#B2C3FB" stroke-width="1.5869" stroke-linecap="round" stroke-linejoin="round" stroke-miterlimit="10" x1="420.892" y1="427.92" x2="513.638" y2="427.92"/>
			</g>
		</g>
		<g>
			<path fill="#C6D3FF" d="M706.504,463.556c0,0,23.815-114.507-0.136-201.572c-46.684,79.911-45.747,178.123-45.747,178.123
				L706.504,463.556z"/>
			<path fill="#B2C3FB" d="M730.118,455.998c0,0,40.807-60.194,42.337-150.48c-67.294,63.535-94.045,158.038-94.045,158.038
				L730.118,455.998z"/>
			<g>
				<path fill="#D7E0FF" d="M704.439,469.81c0,0-16.435-13.772-6.871-31.668c0,0-3.733-13.159,4.809-22.282
					c0,0-9.363-10.025,0.983-21.994c0,0-4.308-16.812,3.145-26.94c9.19,10.559,9.424,20.837,9.424,20.837s8.839,4.336,7.271,14.687
					c9.921,8.805,5.845,19.618,5.845,19.618s26.273,20.418,11.359,39.972C725.49,481.595,704.439,469.81,704.439,469.81z"/>
				
					<line opacity="0.15" fill="none" stroke="#000000" stroke-width="0.7935" stroke-miterlimit="10" x1="706.504" y1="366.927" x2="722.967" y2="470.447"/>
			</g>
			<g>
				<path fill="#C6D3FF" d="M722.976,471.94c0,0-1.02-21.418,18.618-26.522c0,0,7.141-11.666,19.638-11.573
					c0,0,1.02-13.679,16.833-14.189c0,0,9.437-14.566,21.934-15.955c-1.53,13.914-8.927,21.055-8.927,21.055
					s2.806,9.437-5.866,15.303c0.255,13.262-10.457,17.598-10.457,17.598s2.806,33.156-21.679,35.451
					C728.587,495.404,722.976,471.94,722.976,471.94z"/>
				
					<line opacity="0.15" fill="none" stroke="#000000" stroke-width="0.7935" stroke-miterlimit="10" x1="800" y1="403.701" x2="734.198" y2="485.75"/>
			</g>
			<path fill="#B2C3FB" d="M682.424,455.998c0,0,0.476-0.118,1.326-0.31c4.802-1.087,21.538-4.558,31.889-2.675
				c12.183,2.217,13.203,14.714,13.203,14.714s12.242-5.866,16.323,2.805s2.55,12.497,2.55,12.497s9.182-3.322,12.242,6.628
				c3.06,9.95,0,13.011,0,13.011s13.262-4.032,16.323,3.978c3.06,8.01,0,12.382,0,12.382s12.242-6.994,13.262,5.538H674.516
				L682.424,455.998z"/>
		</g>
		<g>
			<rect x="631.662" y="388.833" fill="#B2C3FB" width="52.879" height="52.879"/>
			<linearGradient id="SVGID_3_" gradientUnits="userSpaceOnUse" x1="643.7339" y1="468.152" x2="696.6132" y2="468.152">
				<stop  offset="0" style="stop-color:#F05831"/>
				<stop  offset="1" style="stop-color:#E83B19"/>
			</linearGradient>
			<rect x="643.734" y="441.712" fill="url(#SVGID_3_)" width="52.879" height="52.879"/>
			<rect x="662.352" y="492.044" fill="#D7E0FF" width="52.88" height="31.284"/>
		</g>
		<g>
			<path fill="#C6D3FF" d="M93.496,463.556c0,0-23.815-114.507,0.136-201.572c46.684,79.911,45.747,178.123,45.747,178.123
				L93.496,463.556z"/>
			<path fill="#B2C3FB" d="M69.882,455.998c0,0-40.807-60.194-42.337-150.48c67.294,63.535,94.045,158.038,94.045,158.038
				L69.882,455.998z"/>
			<g>
				<path fill="#D7E0FF" d="M95.561,469.81c0,0,16.435-13.772,6.871-31.668c0,0,3.733-13.159-4.809-22.282
					c0,0,9.363-10.025-0.983-21.994c0,0,4.308-16.812-3.145-26.94c-9.19,10.559-9.424,20.837-9.424,20.837
					s-8.839,4.336-7.271,14.687c-9.921,8.805-5.845,19.618-5.845,19.618s-26.273,20.418-11.359,39.972S95.561,469.81,95.561,469.81z
					"/>
				
					<line opacity="0.15" fill="none" stroke="#000000" stroke-width="0.7935" stroke-miterlimit="10" x1="93.496" y1="366.927" x2="77.033" y2="470.447"/>
			</g>
			<g>
				<path fill="#C6D3FF" d="M77.024,471.94c0,0,1.02-21.418-18.618-26.522c0,0-7.141-11.666-19.638-11.573
					c0,0-1.02-13.679-16.833-14.189c0,0-9.437-14.566-21.934-15.955c1.53,13.914,8.926,21.055,8.926,21.055
					s-2.805,9.437,5.866,15.303c-0.255,13.262,10.457,17.598,10.457,17.598s-2.806,33.156,21.679,35.451
					C71.413,495.404,77.024,471.94,77.024,471.94z"/>
				
					<line opacity="0.15" fill="none" stroke="#000000" stroke-width="0.7935" stroke-miterlimit="10" x1="0" y1="403.701" x2="65.802" y2="485.75"/>
			</g>
			<path fill="#B2C3FB" d="M117.576,455.998c0,0-0.476-0.118-1.326-0.31c-4.801-1.087-21.538-4.558-31.889-2.675
				c-12.183,2.217-13.203,14.714-13.203,14.714s-12.242-5.866-16.323,2.805s-2.55,12.497-2.55,12.497s-9.182-3.322-12.242,6.628
				c-3.061,9.95,0,13.011,0,13.011s-13.262-4.032-16.323,3.978c-3.061,8.01,0,12.382,0,12.382s-12.242-6.994-13.263,5.538h115.027
				L117.576,455.998z"/>
		</g>
		<rect x="4.591" y="523.325" fill="#B2C3FB" width="785.624" height="2.483"/>
		<g>
			<g>
				<g>
					<path fill="#B2C3FB" d="M278.616,336.881l-26.002,3.086c-3.357,0.399-6.402-2-6.8-5.357l-25.733-216.797
						c-0.399-3.357,2-6.401,5.357-6.8l26.002-3.086c3.357-0.398,6.402,2,6.8,5.357l25.733,216.797
						C284.371,333.438,281.973,336.482,278.616,336.881z"/>
					<linearGradient id="SVGID_4_" gradientUnits="userSpaceOnUse" x1="303.7866" y1="122.692" x2="168.1007" y2="138.335">
						<stop  offset="0" style="stop-color:#324893"/>
						<stop  offset="1" style="stop-color:#091D62"/>
					</linearGradient>
					<polygon fill="url(#SVGID_4_)" points="233.426,132.153 221.945,133.516 221.624,130.815 233.105,129.452 					"/>
					<linearGradient id="SVGID_5_" gradientUnits="userSpaceOnUse" x1="306.1729" y1="143.4005" x2="170.4891" y2="159.0433">
						<stop  offset="0" style="stop-color:#324893"/>
						<stop  offset="1" style="stop-color:#091D62"/>
					</linearGradient>
					<polygon fill="url(#SVGID_5_)" points="235.883,152.854 224.402,154.217 224.081,151.515 235.562,150.152 					"/>
					<linearGradient id="SVGID_6_" gradientUnits="userSpaceOnUse" x1="308.5615" y1="164.1088" x2="172.8756" y2="179.7518">
						<stop  offset="0" style="stop-color:#324893"/>
						<stop  offset="1" style="stop-color:#091D62"/>
					</linearGradient>
					<polygon fill="url(#SVGID_6_)" points="238.34,173.554 226.859,174.917 226.538,172.215 238.02,170.853 					"/>
					<linearGradient id="SVGID_7_" gradientUnits="userSpaceOnUse" x1="310.9475" y1="184.8174" x2="175.2641" y2="200.4601">
						<stop  offset="0" style="stop-color:#324893"/>
						<stop  offset="1" style="stop-color:#091D62"/>
					</linearGradient>
					<polygon fill="url(#SVGID_7_)" points="240.797,194.255 229.316,195.617 228.995,192.916 240.477,191.553 					"/>
					<linearGradient id="SVGID_8_" gradientUnits="userSpaceOnUse" x1="313.3362" y1="205.5256" x2="177.6506" y2="221.1686">
						<stop  offset="0" style="stop-color:#324893"/>
						<stop  offset="1" style="stop-color:#091D62"/>
					</linearGradient>
					<polygon fill="url(#SVGID_8_)" points="243.254,214.955 231.773,216.318 231.452,213.616 242.934,212.253 					"/>
					<linearGradient id="SVGID_9_" gradientUnits="userSpaceOnUse" x1="315.7226" y1="226.2341" x2="180.0388" y2="241.8769">
						<stop  offset="0" style="stop-color:#324893"/>
						<stop  offset="1" style="stop-color:#091D62"/>
					</linearGradient>
					<polygon fill="url(#SVGID_9_)" points="245.711,235.655 234.23,237.018 233.909,234.317 245.391,232.954 					"/>
					
						<rect x="236.486" y="254.326" transform="matrix(0.993 -0.1179 0.1179 0.993 -28.4507 30.3406)" opacity="0.15" width="11.562" height="2.721"/>
					
						<rect x="238.943" y="275.026" transform="matrix(0.993 -0.1179 0.1179 0.993 -30.8737 30.7746)" opacity="0.15" width="11.562" height="2.721"/>
					
						<rect x="241.401" y="295.727" transform="matrix(0.993 -0.1179 0.1179 0.993 -33.2967 31.2085)" opacity="0.15" width="11.562" height="2.721"/>
					
						<rect x="243.858" y="316.427" transform="matrix(0.993 -0.1179 0.1179 0.993 -35.7146 31.6374)" opacity="0.15" width="11.562" height="2.721"/>
				</g>
				<g>
					<g>
						<linearGradient id="SVGID_10_" gradientUnits="userSpaceOnUse" x1="297.0257" y1="309.7207" x2="282.4898" y2="184.1832">
							<stop  offset="0" style="stop-color:#324893"/>
							<stop  offset="1" style="stop-color:#091D62"/>
						</linearGradient>
						<polygon fill="url(#SVGID_10_)" points="315.452,202.579 313.127,208.292 304.875,228.597 278.405,293.733 276.151,299.271 
							264.432,294.51 266.963,288.282 289.061,233.905 301.408,203.531 303.733,197.81 						"/>
						
							<linearGradient id="SVGID_11_" gradientUnits="userSpaceOnUse" x1="306.0778" y1="164.7829" x2="299.3171" y2="250.1806" gradientTransform="matrix(0.9264 0.3765 -0.3765 0.9264 112.3016 -115.4989)">
							<stop  offset="0" style="stop-color:#F05831"/>
							<stop  offset="1" style="stop-color:#E83B19"/>
						</linearGradient>
						<path fill="url(#SVGID_11_)" d="M341.053,159.599c-0.114-2.25,1.968-13.437,1.355-22.189
							c1.35-6.191,2.436-15.836-0.408-16.992c-3.736-1.518-12.839,12.198-14.357,15.934l-27.147,66.803l13.529,5.498l24.689-60.754
							c0.259,5.536-0.415,9.551-1.651,13.699c-2.435,8.173-16.906,41.602-16.906,41.602s3.577-0.985,6.979-9.356
							C330.538,185.474,341.225,162.994,341.053,159.599z"/>
					</g>
					<path opacity="0.15" d="M304.875,228.597l-7.522,18.512h-13.656l5.364-13.203C293.378,232.818,298.892,231.144,304.875,228.597
						z"/>
				</g>
				<g>
					
						<linearGradient id="SVGID_12_" gradientUnits="userSpaceOnUse" x1="226.5546" y1="170.9664" x2="285.7244" y2="258.1908" gradientTransform="matrix(0.9828 0.1848 -0.1848 0.9828 45.7368 -42.9846)">
						<stop  offset="0" style="stop-color:#F05831"/>
						<stop  offset="1" style="stop-color:#E83B19"/>
					</linearGradient>
					<polygon fill="url(#SVGID_12_)" points="293.137,164.853 263.256,323.77 246.404,320.601 276.286,161.684 					"/>
					
						<linearGradient id="SVGID_13_" gradientUnits="userSpaceOnUse" x1="271.733" y1="120.6894" x2="274.7935" y2="214.5435" gradientTransform="matrix(0.9828 0.1848 -0.1848 0.9828 45.7368 -42.9846)">
						<stop  offset="0" style="stop-color:#FFC1C2"/>
						<stop  offset="1" style="stop-color:#FF716F"/>
					</linearGradient>
					<polygon fill="url(#SVGID_13_)" points="293.137,164.853 276.286,161.684 284.535,146.24 291.069,147.469 					"/>
					
						<linearGradient id="SVGID_14_" gradientUnits="userSpaceOnUse" x1="281.7505" y1="80.9273" x2="265.4277" y2="194.166" gradientTransform="matrix(0.9828 0.1848 -0.1848 0.9828 45.7368 -42.9846)">
						<stop  offset="0" style="stop-color:#324893"/>
						<stop  offset="1" style="stop-color:#091D62"/>
					</linearGradient>
					<polygon fill="url(#SVGID_14_)" points="291.069,147.469 284.535,146.24 289.746,136.474 289.758,136.452 					"/>
					<path opacity="0.15" d="M293.137,164.853L263.256,323.77l-3.032-76.665l4.934-9.13c8.497-15.723,14.207-32.799,16.877-50.47
						l7.711-51.031l0.012-0.022l1.311,11.017L293.137,164.853z"/>
				</g>
				<path fill="#C0CEFF" d="M334.088,445.353h-80.939c-7.337,0-13.284-5.947-13.284-13.284V260.389
					c0-7.336,5.947-13.284,13.284-13.284h80.939c7.336,0,13.284,5.947,13.284,13.284v171.681
					C347.372,439.406,341.424,445.353,334.088,445.353z"/>
				<path fill="#D7E0FF" d="M326.045,260.391v171.676c0,7.34-5.951,13.283-13.283,13.283H231.82
					c-7.332,0-13.283-5.943-13.283-13.283V260.391c0-7.34,5.951-13.283,13.283-13.283h80.942
					C320.094,247.108,326.045,253.051,326.045,260.391z"/>
			</g>
			<path opacity="0.15" d="M326.045,389.283v42.784c0,7.34-5.951,13.283-13.283,13.283H231.82c-7.332,0-13.283-5.943-13.283-13.283
				V274.674c5.094,0.412,12.553,2.38,19.274,9.45c11.624,12.212,28.708,87.369,52.131,101.985
				C299.837,392.282,313.524,391.854,326.045,389.283z"/>
		</g>
		<g>
			<rect x="119.012" y="455.998" fill="#C0CEFF" width="165.781" height="33.659"/>
			<rect x="284.791" y="455.995" fill="#D7E0FF" width="94.877" height="33.666"/>
			<rect x="108.395" y="489.665" fill="#B2C3FB" width="198.583" height="33.659"/>
			<rect x="306.978" y="489.662" fill="#C0CEFF" width="94.877" height="33.666"/>
			<rect x="144.863" y="422.331" fill="#B2C3FB" width="165.78" height="33.667"/>
			<rect x="310.645" y="422.329" fill="#C0CEFF" width="94.877" height="33.666"/>
			<g opacity="0.15">
				<path d="M108.395,523.325h70.929c1.841-10.823,5.586-22.376,10.188-33.659h-81.117V523.325z"/>
				<path d="M154.639,422.331c-3.396,1.222-6.649,2.484-9.775,3.832v29.835h-25.852v33.659h70.5
					c4.856-11.918,10.68-23.527,16.242-33.659c10.76-19.599,20.559-33.667,20.559-33.667H154.639z"/>
			</g>
		</g>
		<g>
			<linearGradient id="SVGID_15_" gradientUnits="userSpaceOnUse" x1="61.1146" y1="484.9016" x2="79.8174" y2="519.9268">
				<stop  offset="0" style="stop-color:#324893"/>
				<stop  offset="1" style="stop-color:#091D62"/>
			</linearGradient>
			<path fill="url(#SVGID_15_)" d="M96.009,512.327c-4.888,1.595-9.569,9.791-16.068,10.204c-6.491,0.42-36.175,3.832-35.54-2
				c0.175-0.27,0.381-0.548,0.603-0.833c8.086-10.387,44.57-30.311,44.57-30.311s9.791,4.38,13.91,8.228
				c0.302,0.278,0.571,0.555,0.809,0.833C107.729,502.456,100.897,510.74,96.009,512.327z"/>
			<path opacity="0.15" d="M96.009,512.327c-4.888,1.595-9.569,9.791-16.068,10.204c-6.491,0.42-36.175,3.832-35.54-2
				c0.175-0.27,0.381-0.548,0.603-0.833c7.824-0.151,27.058-0.674,32.699-2.15c6.61-1.738,21.416-13.751,25.78-19.932
				c0.302,0.278,0.571,0.555,0.809,0.833C107.729,502.456,100.897,510.74,96.009,512.327z"/>
			<linearGradient id="SVGID_16_" gradientUnits="userSpaceOnUse" x1="72.7143" y1="487.0493" x2="100.9378" y2="524.454">
				<stop  offset="0" style="stop-color:#324893"/>
				<stop  offset="1" style="stop-color:#091D62"/>
			</linearGradient>
			<path fill="url(#SVGID_16_)" d="M124.4,510.534c-1.135,2.785-2.999,5.403-4.872,6.673c-4.245,2.888-6.459,12.069-12.577,14.283
				c-6.125,2.206-33.667,13.775-34.691,7.99c0.579-1.865,1.873-4.237,3.642-6.911c9.173-13.838,31.049-35.595,31.049-35.595
				s12.243,1.698,16.663,4.586C126.09,503.178,125.844,506.995,124.4,510.534z"/>
			<linearGradient id="SVGID_17_" gradientUnits="userSpaceOnUse" x1="102.3621" y1="395.472" x2="134.6724" y2="438.6659">
				<stop  offset="0" style="stop-color:#114DBD"/>
				<stop  offset="1" style="stop-color:#063BA3"/>
			</linearGradient>
			<path fill="url(#SVGID_17_)" d="M201.985,416.975c-0.413,3.206-10.696,8.839-22.162,14.171
				c-14.814,6.879-31.604,13.267-31.604,13.267s-3.65,5.118-9.093,12.227c-9.514,12.418-24.495,30.922-35.056,38.944
				c-3.388,2.563-6.316,4.055-8.474,3.928c-5.332-0.318-8.903-2.46-11.236-4.848c-3.245-3.301-4.142-7.062-4.142-7.062
				s48.513-67.612,52.242-70.199c1.881-1.301,11.759-6.276,21.098-10.887c9.212-4.547,17.893-8.744,17.893-8.744
				s13.267-1.524,23.201,2.023c1.968,0.706,3.809,1.603,5.388,2.753C200.041,402.55,202.938,409.62,201.985,416.975z"/>
			<linearGradient id="SVGID_18_" gradientUnits="userSpaceOnUse" x1="143.3371" y1="431.3696" x2="174.9624" y2="465.0352">
				<stop  offset="0" style="stop-color:#114DBD"/>
				<stop  offset="1" style="stop-color:#063BA3"/>
			</linearGradient>
			<path fill="url(#SVGID_18_)" d="M221.378,417.737c-0.349,5.102-24.978,17.734-40.221,25.074
				c-6.856,3.301-11.807,5.53-11.807,5.53s-36.468,58.154-49.227,58.154c-12.235,0-15.782-10.093-16.052-10.91
				c-0.008-0.04-0.016-0.056-0.016-0.056s32.183-51.052,43.943-67.937c0.182-0.262,0.325-0.468,0.428-0.611
				c0.032-0.048,0.071-0.103,0.103-0.151c0.04-0.056,0.064-0.079,0.064-0.079v-0.008c1.73-2.46,2.936-4.039,3.412-4.412
				c1.436-1.127,7.792-4.88,14.901-8.974c10.593-6.11,22.844-12.965,22.844-12.965s1.936-0.341,4.904-0.595
				c6.284-0.532,17.163-0.674,23.923,3.658C218.577,403.454,221.886,410.342,221.378,417.737z"/>
			<path opacity="0.15" d="M221.378,417.737c-0.349,5.102-24.978,17.734-40.221,25.074c0.183-4.348-0.325-8.22-1.333-11.664
				c-2.364-8.101-7.475-13.814-12.918-17.79c-4.721-3.452-9.696-5.586-13.346-6.84c9.212-4.547,17.893-8.744,17.893-8.744
				s13.267-1.524,23.201,2.023c6.284-0.532,17.163-0.674,23.923,3.658C218.577,403.454,221.886,410.342,221.378,417.737z"/>
			<linearGradient id="SVGID_19_" gradientUnits="userSpaceOnUse" x1="219.6332" y1="288.4227" x2="215.5526" y2="356.7734">
				<stop  offset="0" style="stop-color:#324893"/>
				<stop  offset="1" style="stop-color:#091D62"/>
			</linearGradient>
			<path fill="url(#SVGID_19_)" d="M249.34,377.381c-3.356,5.999-9.625,10.625-17.417,5.332
				c-9.466-6.427-27.843-19.599-39.793-27.652c-5.443-3.666-9.546-6.269-10.879-6.697c0,0-6.118-4.928,2.888-17.679
				c9.014-12.751,7.482-9.522,5.784-16.837c-1.698-7.308-3.912-23.463,13.941-28.732c17.853-5.269,22.955,11.727,23.463,19.726
				c0.508,7.99,8.839,8.276,9.522,18.932c0.682,10.648,11.735,12.521,11.394,22.209c-0.341,9.696-0.341,13.608,3.063,19.043
				C252.784,367.391,251.919,372.787,249.34,377.381z"/>
			<path opacity="0.15" d="M249.34,377.381c-3.356,5.999-9.625,10.625-17.417,5.332c-9.466-6.427-27.843-19.599-39.793-27.652
				l1.595-39.467c0,0-2.317-11.347,1.896-16.322c0,0,3.507,4.451,12.783,3.753c0,0-3.848-0.698-5.634-3.745
				c0.278,0.079,6.118,1.881,11.72,0.754l-2.412,2.587c0.214-0.167,3.698-2.777,7.768,3.023c4.214,5.999-0.508,16.584,3.571,21.94
				c4.086,5.356,14.156,5.61,16.583,21.678C241.866,361.63,247.047,372.866,249.34,377.381z"/>
			<linearGradient id="SVGID_20_" gradientUnits="userSpaceOnUse" x1="166.0992" y1="369.3202" x2="237.8101" y2="369.3202">
				<stop  offset="0" style="stop-color:#F05831"/>
				<stop  offset="1" style="stop-color:#E83B19"/>
			</linearGradient>
			<path fill="url(#SVGID_20_)" d="M237.787,369.319c0,0,0,0.056-0.008,0.167c-0.04,0.476-0.079,0.643-0.079,0.643
				s-9.863,0.849-16.147-2.039c0,0-0.801,8.046-0.881,15.814c-1.801,0-6.023,0.476-10.664,1.079
				c-8.125,1.047-17.536,2.491-17.536,2.491l1.254,9.014c0,0,0.754,0.04,2.063,0.087c4.729,0.206,16.695,0.651,26.081,0.405
				c1.46,6.451,2.452,10.109-0.151,10.728c-2.642,0.627-16.75-7.514-44.125-8.704c-2.547-0.103-5.213-0.159-7.99-0.135
				c-8.466,0.064,0.936-17.179,1.96-37.238c0,0,1.508-11.696,10.696-19.734c1.492-1.301,3.182-2.515,5.11-3.563
				c13.775-7.482,21.94-9.014,32.136-5.951c7.919,2.38,12.458,5.364,15.044,13.1c0.754,2.229,1.333,4.856,1.793,7.982
				C237.819,363.535,237.866,367.748,237.787,369.319z"/>
			<linearGradient id="SVGID_21_" gradientUnits="userSpaceOnUse" x1="227.2517" y1="399.9802" x2="204.2976" y2="366.0592">
				<stop  offset="0" style="stop-color:#FFC1C2"/>
				<stop  offset="1" style="stop-color:#FF716F"/>
			</linearGradient>
			<path fill="url(#SVGID_21_)" d="M237.779,369.486c-0.016,0.992-0.143,6.229-0.595,11.767c-0.492,6.086-1.357,12.521-2.88,14.044
				c-1.055,1.047-6.165,1.516-12.434,1.682c-11.974,0.31-28.145-0.492-28.145-0.492l-0.627-4.483l-0.627-4.531
				c0,0,23.249-3.571,28.2-3.571c0.079-7.768,0.881-15.814,0.881-15.814c0.341,0.159,0.698,0.301,1.063,0.436
				c3.047,1.151,6.713,1.563,9.657,1.674c3.11,0.127,5.427-0.071,5.427-0.071S237.739,369.962,237.779,369.486z"/>
			<g opacity="0.15">
				<path d="M220.672,383.903c-1.801,0-6.023,0.476-10.664,1.079c9.228-13.791,11.243-33.937,11.243-33.937s0,0,0.301,1.016
					c0.302,1.024,0,16.028,0,16.028S220.751,376.135,220.672,383.903z"/>
				<path d="M221.719,407.707c-2.642,0.627-16.75-7.514-44.125-8.704c-0.42-1.563,1.92-2.285,8.585-1.555
					c3.539,0.389,6.729,0.04,9.609-0.873c4.729,0.206,16.695,0.651,26.081,0.405C223.33,403.43,224.322,407.089,221.719,407.707z"/>
			</g>
			<g>
				<linearGradient id="SVGID_22_" gradientUnits="userSpaceOnUse" x1="246.9204" y1="398.7257" x2="201.0125" y2="399.4059">
					<stop  offset="0" style="stop-color:#324893"/>
					<stop  offset="1" style="stop-color:#091D62"/>
				</linearGradient>
				<path fill="url(#SVGID_22_)" d="M206.779,396.99h-30.031c-1.41,0-2.552,1.143-2.552,2.552l0,0c0,1.41,1.143,2.553,2.552,2.553
					h30.031c1.41,0,2.552-1.143,2.552-2.553l0,0C209.332,398.133,208.189,396.99,206.779,396.99z"/>
				<linearGradient id="SVGID_23_" gradientUnits="userSpaceOnUse" x1="147.5754" y1="348.0951" x2="159.5625" y2="407.0107">
					<stop  offset="0" style="stop-color:#324893"/>
					<stop  offset="1" style="stop-color:#091D62"/>
				</linearGradient>
				<path fill="url(#SVGID_23_)" d="M193.725,402.098h-66.152c-1.174,0-2.222-0.754-2.595-1.865l-13.37-39.761
					c-0.595-1.769,0.722-3.602,2.595-3.602h66.152c1.143,0,2.158,0.706,2.555,1.777c0.016,0.032,0.024,0.056,0.032,0.087
					l3.459,10.291l6.197,18.425l1.397,4.142l1.809,5.396l0.508,1.5C196.915,400.265,195.59,402.098,193.725,402.098z"/>
			</g>
			<path opacity="0.15" d="M234.55,345.483c-3.912-6.261-9.442-8.625-13.553-8.339c-5.483,0.381-14.283,12.497-20.662,10.839
				c-6.372-1.658-2.039-8.673-9.18-8.292c-3.047,0.167-6.237,1.143-8.895,2.206c1.492-1.301,3.182-2.515,5.11-3.563
				c13.775-7.482,21.94-9.014,32.136-5.951C227.424,334.763,231.963,337.747,234.55,345.483z"/>
			<linearGradient id="SVGID_24_" gradientUnits="userSpaceOnUse" x1="195.4512" y1="327.1484" x2="230.394" y2="301.6428">
				<stop  offset="0" style="stop-color:#FFC1C2"/>
				<stop  offset="1" style="stop-color:#FF716F"/>
			</linearGradient>
			<path fill="url(#SVGID_24_)" d="M215.935,333.66c-0.46,2.015-2.857,4.928-5.705,7.284c-2.912,2.404-6.3,4.237-8.577,3.936
				c-4.499-0.595,1.531-6.8,2.555-10.625c1.016-3.825-0.849-6.379-0.849-6.379s-3.491,1.96-6.546-2.293
				c-2.539-3.523-3.848-12.108-2.626-18.964c0.254-1.428,0.611-2.777,1.095-3.991c0,0,4.166,6.205,10.204,7.824
				c6.03,1.611,9.688-2.468,12.069-1.024c2.381,1.444-0.087,4.848-1.785,6.8C214.07,318.188,216.871,329.574,215.935,333.66z"/>
			<path opacity="0.15" fill="#FFFFFF" d="M226.313,388.41c0.079,1.27-3.999-1.365-6.292-1.532
				c-1.698-0.127-17.504,0.968-26.026,4.713l-1.397-4.142c1.825-0.278,23.336-3.547,28.073-3.547
				c0.079-7.768,0.881-15.814,0.881-15.814c0.341,0.159,0.698,0.301,1.063,0.436c-0.127,3.602-0.421,14.798,0.722,16.457
				C224.695,386.966,226.226,387.133,226.313,388.41z"/>
			<path opacity="0.15" d="M237.779,369.486c-0.016,0.992-0.143,6.229-0.595,11.767c-1.373-4.801-3.507-8.752-4.912-11.053
				c3.11,0.127,5.427-0.071,5.427-0.071S237.739,369.962,237.779,369.486z"/>
			<path opacity="0.15" d="M104.055,495.529c0,0,0.008,0.016,0.016,0.056c-3.388,2.563-6.316,4.055-8.474,3.928
				c-5.332-0.318-8.903-2.46-11.236-4.848c3.825-0.373,9.863-1.793,16.123-6.53c9.68-7.324,42.657-53.686,47.513-60.542
				C136.238,444.477,104.055,495.529,104.055,495.529z"/>
			<path opacity="0.15" d="M186.402,369.026l-3.459-10.291c-0.008-0.032-0.016-0.056-0.032-0.087
				c1.301-1.404,2.523-3.118,3.444-5.181C186.354,353.466,185.854,360.853,186.402,369.026z"/>
			<path opacity="0.15" d="M215.935,333.66c-0.46,2.015-2.857,4.928-5.705,7.284c2.753-5.53,3.444-12.807,2.991-15.536
				c-0.857-5.094-0.175-7.903,1.19-9.855c1.357-1.96,1.27-4.253-1.111-3.238c-4.324,1.857-11.307-0.674-14.957-3.65
				c-1.357-1.111-2.841-1.722-4.158-2.047c0.254-1.428,0.611-2.777,1.095-3.991c0,0,4.166,6.205,10.204,7.824
				c6.03,1.611,9.688-2.468,12.069-1.024c2.381,1.444-0.087,4.848-1.785,6.8C214.07,318.188,216.871,329.574,215.935,333.66z"/>
			<path opacity="0.15" d="M124.4,510.534c-1.135,2.785-2.999,5.403-4.872,6.673c-4.245,2.888-6.459,12.069-12.577,14.283
				c-6.125,2.206-33.667,13.775-34.691,7.99c0.579-1.865,1.873-4.237,3.642-6.911c0.103,1.65,0.317,3.309,0.778,3.848
				c1.024,1.19,27.042-6.459,31.802-10.879c4.761-4.42,6.459-10.371,9.522-11.561C119.52,513.39,122.075,512.256,124.4,510.534z"/>
		</g>
		<g>
			<linearGradient id="SVGID_25_" gradientUnits="userSpaceOnUse" x1="584.6483" y1="383.5601" x2="592.2997" y2="525.8749">
				<stop  offset="0" style="stop-color:#324893"/>
				<stop  offset="1" style="stop-color:#091D62"/>
			</linearGradient>
			<rect x="499.888" y="401.925" fill="url(#SVGID_25_)" width="178.022" height="121.403"/>
			<linearGradient id="SVGID_26_" gradientUnits="userSpaceOnUse" x1="613.982" y1="232.7844" x2="595.6186" y2="445.4925">
				<stop  offset="0" style="stop-color:#324893"/>
				<stop  offset="1" style="stop-color:#091D62"/>
			</linearGradient>
			<polygon fill="url(#SVGID_26_)" points="588.899,435.589 677.91,523.325 499.888,523.325 			"/>
			<linearGradient id="SVGID_27_" gradientUnits="userSpaceOnUse" x1="589.5613" y1="374.9981" x2="587.4308" y2="461.6439">
				<stop  offset="0" style="stop-color:#F05831"/>
				<stop  offset="1" style="stop-color:#E83B19"/>
			</linearGradient>
			<path fill="url(#SVGID_27_)" d="M577.678,478.601l-77.79-76.676H677.91l-77.79,76.676
				C593.897,484.735,583.902,484.735,577.678,478.601z"/>
		</g>
		<g>
			<linearGradient id="SVGID_28_" gradientUnits="userSpaceOnUse" x1="423.3636" y1="356.2881" x2="479.4755" y2="506.2598">
				<stop  offset="0" style="stop-color:#F05831"/>
				<stop  offset="1" style="stop-color:#E83B19"/>
			</linearGradient>
			<path fill="url(#SVGID_28_)" d="M497.983,523.253c-5.007,2.841-11.378,1.095-14.227-3.912l-41.3-72.587l-19.758-34.73
				l18.131-10.315l7.395,12.997l53.663,94.32C504.735,514.033,502.99,520.404,497.983,523.253z"/>
			<path opacity="0.74" fill="#D7E0FF" d="M458.936,351.045c0,32.548-26.391,58.939-58.939,58.939s-58.931-26.391-58.931-58.939
				s26.383-58.939,58.931-58.939S458.936,318.497,458.936,351.045z"/>
			<linearGradient id="SVGID_29_" gradientUnits="userSpaceOnUse" x1="426.8534" y1="390.3585" x2="444.759" y2="438.2154">
				<stop  offset="0" style="stop-color:#F05831"/>
				<stop  offset="1" style="stop-color:#E83B19"/>
			</linearGradient>
			<path fill="url(#SVGID_29_)" d="M442.456,446.754l-19.758-34.73l18.131-10.315l7.395,12.997
				C445.177,421.958,441.837,433.202,442.456,446.754z"/>
			<linearGradient id="SVGID_30_" gradientUnits="userSpaceOnUse" x1="410.8731" y1="214.4894" x2="392.5098" y2="445.0495">
				<stop  offset="0" style="stop-color:#114DBD"/>
				<stop  offset="1" style="stop-color:#063BA3"/>
			</linearGradient>
			<path fill="url(#SVGID_30_)" d="M399.997,279.633c-39.436,0-71.413,31.969-71.413,71.413s31.977,71.413,71.413,71.413
				c39.444,0,71.413-31.969,71.413-71.413S439.44,279.633,399.997,279.633z M399.997,409.985c-32.548,0-58.931-26.391-58.931-58.939
				s26.383-58.939,58.931-58.939s58.939,26.391,58.939,58.939S432.545,409.985,399.997,409.985z"/>
		</g>
	</g>
</g>
<g id="DESIGNED_BY_FREEPIK">
</g>
</svg>
