<?xml version="1.0" encoding="utf-8"?>
<!-- Generator: Adobe Illustrator 17.0.0, SVG Export Plug-In . SVG Version: 6.00 Build 0)  -->
<!DOCTYPE svg PUBLIC "-//W3C//DTD SVG 1.1//EN" "http://www.w3.org/Graphics/SVG/1.1/DTD/svg11.dtd">
<svg version="1.1" xmlns="http://www.w3.org/2000/svg" xmlns:xlink="http://www.w3.org/1999/xlink" x="0px" y="0px" width="800px"
	 height="600px" viewBox="0 0 800 600" enable-background="new 0 0 800 600" xml:space="preserve">
<g id="BACKGROUND">
	<rect x="150" y="50" opacity="0.15" fill="#EFEFEF" width="500" height="500"/>
</g>
<g id="OBJECTS">
	<g>
		<g>
			<g>
				<g>
					<path fill="#FFBA55" d="M234.484,286.346c-0.06,0.001-6.13,0.055-14.598-1.544c-7.816-1.476-19.342-4.704-29.862-11.699
						c-10.417-6.926-23.925-9.35-33.423-10.164c-10.302-0.883-18.229-0.115-18.308-0.107l-0.065-0.655
						c0.079-0.008,8.067-0.782,18.429,0.106c9.574,0.821,23.198,3.269,33.731,10.271c10.424,6.93,21.852,10.132,29.603,11.597
						c8.408,1.589,14.425,1.537,14.485,1.536L234.484,286.346z"/>
				</g>
				<g>
					<g>
						<g>
							<g>
								<path fill="#FFBA55" d="M242.031,290.234c-6.943,7.842-36.435,12.687-53.939,3.54c-9.673-5.055-17.346-10.964-24.115-16.177
									c-8.823-6.795-16.442-12.663-25.789-14.771l-0.818-0.185l0.725-0.421c0.136-0.079,13.833-7.917,33.381-9.226
									c11.483-0.768,22.713,0.831,33.378,4.752c13.325,4.9,25.797,13.459,37.069,25.44l-0.24,0.225l0.24-0.225
									c1.985,2.11,2.156,4.384,0.495,6.575C242.298,289.921,242.169,290.079,242.031,290.234z M139.173,262.385
									c9.105,2.292,16.585,8.052,25.205,14.691c6.748,5.197,14.396,11.087,24.018,16.115c7.905,4.131,19.264,5.755,31.164,4.457
									c10.074-1.099,18.766-4.224,21.981-7.856c0.126-0.142,0.243-0.284,0.351-0.427c1.462-1.929,1.311-3.856-0.45-5.727
									c-25.35-26.944-52.001-31.18-69.895-29.988C154.723,254.77,142.272,260.762,139.173,262.385z"/>
							</g>
						</g>
					</g>
				</g>
				<g>
					
						<rect x="165.512" y="253.37" transform="matrix(0.827 -0.5622 0.5622 0.827 -117.1726 138.1196)" fill="#FFBA55" width="0.658" height="12.162"/>
				</g>
				<g>
					
						<rect x="162.966" y="272.101" transform="matrix(0.7348 -0.6783 0.6783 0.7348 -139.3415 188.4649)" fill="#FFBA55" width="16.765" height="0.658"/>
				</g>
				<g>
					
						<rect x="189.172" y="253.967" transform="matrix(0.9972 -0.0747 0.0747 0.9972 -19.1383 14.8841)" fill="#FFBA55" width="0.658" height="18.889"/>
				</g>
			</g>
			<g>
				<g>
					<path fill="#FFBA55" d="M231.279,259.239c-0.079-0.028-7.991-2.848-18.066-9.765c-9.295-6.381-22.397-17.659-32.022-35.148
						c-11.157-20.273-23.292-33.056-31.508-40.211c-8.901-7.751-15.245-10.748-15.308-10.777l0.267-0.574
						c0.064,0.03,6.469,3.052,15.432,10.853c8.261,7.189,20.461,20.035,31.671,40.404c9.566,17.38,22.587,28.589,31.826,34.932
						c10.007,6.87,17.84,9.662,17.918,9.69L231.279,259.239z"/>
				</g>
				<g>
					<g>
						<g>
							<g>
								<path fill="#FFBA55" d="M255.413,257.648l-1.783,0.326c-0.058,0.011-5.903,1.058-14.901,0.9
									c-8.3-0.147-21.067-1.378-34.756-6.413c-15.389-5.66-28.78-14.874-39.802-27.385
									c-13.767-15.628-23.851-36.471-29.971-61.951l-0.069-0.287l0.282-0.088c0.103-0.032,10.436-3.188,23.943,0.058
									c7.928,1.905,15.389,5.609,22.173,11.009c8.47,6.741,15.904,16.157,22.094,27.988
									c13.947,26.656,27.099,40.348,35.675,47.141c9.255,7.33,15.267,8.395,15.326,8.405L255.413,257.648z M134.886,163.272
									c13.833,57.221,45.297,79.757,69.278,88.585c13.604,5.008,26.296,6.236,34.548,6.384c6.273,0.112,11-0.365,13.284-0.663
									c-2.367-0.748-7.352-2.799-14.091-8.136c-8.624-6.831-21.844-20.589-35.842-47.343
									c-13.918-26.6-31.531-35.714-43.855-38.676C146.11,160.516,136.621,162.799,134.886,163.272z"/>
							</g>
						</g>
					</g>
				</g>
				<g>
					
						<rect x="160.333" y="220.203" transform="matrix(0.999 0.0436 -0.0436 0.999 9.7772 -7.3313)" fill="#FFBA55" width="25.312" height="0.632"/>
				</g>
				<g>
					<rect x="177.272" y="171.987" fill="#FFBA55" width="0.632" height="35.517"/>
				</g>
				<g>
					
						<rect x="140.893" y="184.486" transform="matrix(0.9986 0.0522 -0.0522 0.9986 9.8586 -7.6422)" fill="#FFBA55" width="20.506" height="0.632"/>
				</g>
			</g>
			<g>
				<g>
					<g>
						<g>
							<g>
								<g>
									<path fill="#78C2FF" d="M651.349,133.04l-9.578-15.681c-0.785-1.286-0.379-2.965,0.906-3.75
										c1.286-0.785,2.965-0.379,3.75,0.906l6.773,11.089l18.005-10.657c1.297-0.767,2.97-0.338,3.737,0.958
										c0.768,1.297,0.338,2.97-0.958,3.737L651.349,133.04z"/>
								</g>
							</g>
						</g>
					</g>
				</g>
				<g>
					<path fill="#78C2FF" d="M657.779,157.213c-18.992,0-34.444-15.451-34.444-34.443c0-18.992,15.452-34.443,34.444-34.443
						c18.992,0,34.443,15.451,34.443,34.443C692.223,141.762,676.771,157.213,657.779,157.213z M657.779,93.247
						c-16.279,0-29.523,13.244-29.523,29.523c0,16.279,13.244,29.523,29.523,29.523c16.279,0,29.523-13.244,29.523-29.523
						C687.302,106.491,674.058,93.247,657.779,93.247z"/>
				</g>
			</g>
			<g>
				<g>
					<g>
						<g>
							<g>
								<g>
									<path fill="#78C2FF" d="M544.68,82.381l-5.919-9.691c-0.485-0.795-0.234-1.832,0.56-2.318
										c0.795-0.485,1.832-0.234,2.318,0.56l4.185,6.852l11.127-6.586c0.802-0.474,1.836-0.209,2.31,0.592
										c0.474,0.801,0.209,1.835-0.592,2.31L544.68,82.381z"/>
								</g>
							</g>
						</g>
					</g>
				</g>
				<g>
					<path fill="#78C2FF" d="M548.654,97.32c-11.737,0-21.285-9.549-21.285-21.285c0-11.737,9.549-21.285,21.285-21.285
						c11.737,0,21.285,9.549,21.285,21.285C569.94,87.771,560.391,97.32,548.654,97.32z M548.654,57.79
						c-10.06,0-18.245,8.184-18.245,18.244c0,10.06,8.185,18.245,18.245,18.245c10.06,0,18.245-8.184,18.245-18.245
						C566.899,65.974,558.714,57.79,548.654,57.79z"/>
				</g>
			</g>
			<g>
				<g>
					<g>
						<g>
							<g>
								<g>
									<path fill="#78C2FF" d="M435.225,46.613l-9.079-14.865c-0.745-1.219-0.36-2.811,0.859-3.555
										c1.219-0.744,2.81-0.36,3.555,0.859l6.42,10.512l17.069-10.102c1.229-0.727,2.816-0.321,3.543,0.908
										c0.727,1.229,0.321,2.815-0.908,3.543L435.225,46.613z"/>
								</g>
							</g>
						</g>
					</g>
				</g>
				<g>
					<path fill="#78C2FF" d="M441.321,69.528c-18.004,0-32.652-14.647-32.652-32.652c0-18.004,14.648-32.651,32.652-32.651
						c18.004,0,32.652,14.647,32.652,32.651C473.973,54.881,459.325,69.528,441.321,69.528z M441.321,8.89
						c-15.432,0-27.987,12.555-27.987,27.987s12.555,27.987,27.987,27.987s27.987-12.555,27.987-27.987S456.753,8.89,441.321,8.89z"
						/>
				</g>
			</g>
			<g>
				<g>
					<g>
						<g>
							<g>
								<g>
									<path fill="#78C2FF" d="M339.192,82.246l-5.999-9.823c-0.492-0.806-0.238-1.857,0.568-2.349
										c0.806-0.492,1.857-0.237,2.349,0.568l4.242,6.946l11.279-6.675c0.812-0.481,1.86-0.212,2.341,0.6
										c0.481,0.812,0.212,1.86-0.6,2.341L339.192,82.246z"/>
								</g>
							</g>
						</g>
					</g>
				</g>
				<g>
					<path fill="#78C2FF" d="M343.22,97.388c-11.897,0-21.576-9.679-21.576-21.576s9.679-21.575,21.576-21.575
						s21.576,9.679,21.576,21.575S355.117,97.388,343.22,97.388z M343.22,57.319c-10.197,0-18.493,8.296-18.493,18.493
						c0,10.197,8.296,18.493,18.493,18.493s18.493-8.296,18.493-18.493C361.714,65.615,353.417,57.319,343.22,57.319z"/>
				</g>
			</g>
			<g>
				<g>
					<g>
						<g>
							<g>
								<g>
									<path fill="#78C2FF" d="M254.908,35.062l-7.51-12.296c-0.616-1.009-0.298-2.325,0.711-2.941
										c1.008-0.616,2.325-0.297,2.941,0.711l5.311,8.695l14.119-8.356c1.017-0.602,2.329-0.265,2.931,0.751
										c0.602,1.017,0.265,2.329-0.751,2.93L254.908,35.062z"/>
								</g>
							</g>
						</g>
					</g>
				</g>
				<g>
					<path fill="#78C2FF" d="M259.95,54.018c-14.893,0-27.009-12.116-27.009-27.009C232.941,12.116,245.057,0,259.95,0
						c14.893,0,27.009,12.116,27.009,27.009C286.959,41.901,274.842,54.018,259.95,54.018z M259.95,3.858
						c-12.765,0-23.15,10.385-23.15,23.15s10.385,23.15,23.15,23.15s23.15-10.385,23.15-23.15S272.715,3.858,259.95,3.858z"/>
				</g>
			</g>
			<g>
				<g>
					<g>
						<g>
							<g>
								<g>
									<path fill="#78C2FF" d="M159.239,96.191l-8.326-13.632c-0.683-1.118-0.33-2.578,0.788-3.26
										c1.118-0.683,2.577-0.33,3.26,0.788l5.888,9.64l15.653-9.264c1.127-0.667,2.582-0.294,3.249,0.833
										c0.667,1.127,0.294,2.582-0.833,3.249L159.239,96.191z"/>
								</g>
							</g>
						</g>
					</g>
				</g>
				<g>
					<path fill="#78C2FF" d="M164.829,117.206c-16.511,0-29.944-13.433-29.944-29.944c0-16.511,13.433-29.943,29.944-29.943
						c16.511,0,29.943,13.433,29.943,29.943C194.772,103.773,181.34,117.206,164.829,117.206z M164.829,61.596
						c-14.152,0-25.666,11.513-25.666,25.666c0,14.152,11.514,25.666,25.666,25.666c14.152,0,25.666-11.514,25.666-25.666
						C190.495,73.11,178.981,61.596,164.829,61.596z"/>
				</g>
			</g>
			<g>
				<g>
					<g>
						<g>
							<g>
								<g>
									<path fill="#78C2FF" d="M616.047,40.139l-4.735-7.751c-0.388-0.636-0.187-1.466,0.448-1.854
										c0.636-0.388,1.466-0.187,1.854,0.448l3.348,5.481l8.901-5.268c0.641-0.379,1.468-0.167,1.847,0.474
										c0.379,0.641,0.168,1.468-0.474,1.848L616.047,40.139z"/>
								</g>
							</g>
						</g>
					</g>
				</g>
				<g>
					<path fill="#78C2FF" d="M619.225,52.089c-9.388,0-17.027-7.638-17.027-17.027c0-9.388,7.638-17.026,17.027-17.026
						c9.388,0,17.027,7.638,17.027,17.026C636.252,44.451,628.613,52.089,619.225,52.089z M619.225,20.468
						c-8.047,0-14.594,6.547-14.594,14.594c0,8.047,6.547,14.594,14.594,14.594c8.047,0,14.594-6.547,14.594-14.594
						C633.819,27.015,627.272,20.468,619.225,20.468z"/>
				</g>
			</g>
			<g>
				<rect x="377.778" y="369.927" fill="#8F8F8F" width="46.962" height="142.637"/>
			</g>
			<g>
				<path fill="#F0F0F0" d="M219.128,438.637h364.261c11.391,0,20.625-9.234,20.625-20.625V173.195
					c0-11.391-9.234-20.625-20.625-20.625H219.128c-11.391,0-20.625,9.234-20.625,20.625v244.817
					C198.503,429.403,207.737,438.637,219.128,438.637z"/>
			</g>
			<g>
				<rect x="214.384" y="122.123" fill="#FFFFFF" width="373.748" height="271.685"/>
			</g>
			<g>
				<linearGradient id="SVGID_1_" gradientUnits="userSpaceOnUse" x1="214.3845" y1="138.5304" x2="588.1323" y2="138.5304">
					<stop  offset="0" style="stop-color:#FF9F55"/>
					<stop  offset="1" style="stop-color:#FFD255"/>
				</linearGradient>
				<rect x="214.384" y="122.123" fill="url(#SVGID_1_)" width="373.748" height="32.815"/>
			</g>
			<g>
				<ellipse fill="#CCCCCC" cx="558.03" cy="414.321" rx="15.381" ry="13.081"/>
			</g>
			<rect x="295.622" y="507.181" fill="#CCCCCC" width="211.272" height="10.767"/>
			<path fill="#F5F7FF" d="M278.844,144.73h-44.392c-2.462,0-4.458-1.996-4.458-4.457v-3.485c0-2.462,1.996-4.457,4.458-4.457
				h44.392c2.462,0,4.457,1.996,4.457,4.457v3.485C283.302,142.735,281.306,144.73,278.844,144.73z"/>
			<rect x="241.767" y="269.273" fill="#E6E6E6" width="195.68" height="6.726"/>
			<rect x="241.767" y="281.387" fill="#E6E6E6" width="145.134" height="6.726"/>
			<rect x="241.767" y="307.71" fill="#E6E6E6" width="92.027" height="6.726"/>
			<rect x="241.767" y="319.825" fill="#E6E6E6" width="165.333" height="6.726"/>
			<rect x="241.767" y="348.77" fill="#E6E6E6" width="117.644" height="6.726"/>
			<rect x="241.767" y="360.885" fill="#E6E6E6" width="143.656" height="6.726"/>
			<rect x="232.218" y="269.273" fill="#78C2FF" width="4.917" height="18.841"/>
			<rect x="232.218" y="307.71" fill="#78C2FF" width="4.917" height="18.841"/>
			<rect x="232.218" y="348.77" fill="#78C2FF" width="4.917" height="18.841"/>
			<g>
				<g>
					<path fill="#78C2FF" d="M502.435,376.095h-15.672c-3.115,0-5.64-2.525-5.64-5.64v-15.672c0-3.115,2.525-5.64,5.64-5.64h15.672
						c3.115,0,5.64,2.525,5.64,5.64v15.672C508.075,373.57,505.55,376.095,502.435,376.095z"/>
				</g>
				<g>
					<g>
						<g>
							<path fill="#F3F3F3" d="M493.745,368.555l-6.814-5.94c-0.559-0.487-0.617-1.335-0.13-1.893
								c0.487-0.559,1.335-0.617,1.893-0.13l4.818,4.2l6.871-7.664c0.495-0.552,1.344-0.598,1.895-0.103
								c0.552,0.495,0.598,1.343,0.103,1.895L493.745,368.555z"/>
						</g>
					</g>
				</g>
			</g>
			<g>
				<g>
					<g>
						<path fill="#78C2FF" d="M501.945,335.048h-14.692c-3.387,0-6.143-2.755-6.143-6.142v-14.694c0-3.387,2.756-6.143,6.143-6.143
							h14.692c3.387,0,6.143,2.756,6.143,6.143v14.694C508.088,332.293,505.332,335.048,501.945,335.048z M487.253,309.78
							c-2.444,0-4.433,1.988-4.433,4.432v14.694c0,2.444,1.989,4.432,4.433,4.432h14.692c2.444,0,4.433-1.988,4.433-4.432v-14.694
							c0-2.444-1.989-4.432-4.433-4.432H487.253z"/>
					</g>
				</g>
			</g>
			<g>
				<g>
					<g>
						<path fill="#78C2FF" d="M542.525,293.988h-14.692c-3.387,0-6.143-2.755-6.143-6.142v-14.693c0-3.387,2.756-6.142,6.143-6.142
							h14.692c3.387,0,6.143,2.755,6.143,6.142v14.693C548.668,291.232,545.912,293.988,542.525,293.988z M527.833,268.72
							c-2.444,0-4.433,1.989-4.433,4.432v14.693c0,2.444,1.989,4.432,4.433,4.432h14.692c2.443,0,4.433-1.988,4.433-4.432v-14.693
							c0-2.444-1.989-4.432-4.433-4.432H527.833z"/>
					</g>
				</g>
			</g>
			<g>
				<g>
					<g>
						<path fill="#78C2FF" d="M542.525,376.108h-14.692c-3.387,0-6.143-2.755-6.143-6.142v-14.693c0-3.387,2.756-6.143,6.143-6.143
							h14.692c3.387,0,6.143,2.756,6.143,6.143v14.693C548.668,373.353,545.912,376.108,542.525,376.108z M527.833,350.84
							c-2.444,0-4.433,1.988-4.433,4.433v14.693c0,2.443,1.989,4.431,4.433,4.431h14.692c2.443,0,4.433-1.988,4.433-4.431v-14.693
							c0-2.444-1.989-4.433-4.433-4.433H527.833z"/>
					</g>
				</g>
			</g>
			<g>
				<g>
					<path fill="#78C2FF" d="M543.015,335.034h-15.672c-3.115,0-5.64-2.525-5.64-5.64v-15.672c0-3.115,2.525-5.64,5.64-5.64h15.672
						c3.115,0,5.64,2.525,5.64,5.64v15.672C548.654,332.51,546.129,335.034,543.015,335.034z"/>
				</g>
				<g>
					<g>
						<g>
							<path fill="#F3F3F3" d="M534.325,327.495l-6.814-5.94c-0.559-0.487-0.617-1.335-0.13-1.894
								c0.488-0.558,1.335-0.617,1.894-0.13l4.818,4.2l6.871-7.664c0.495-0.552,1.343-0.598,1.895-0.103
								c0.552,0.495,0.598,1.343,0.104,1.895L534.325,327.495z"/>
						</g>
					</g>
				</g>
			</g>
			<g>
				<g>
					<path fill="#78C2FF" d="M502.435,293.975h-15.672c-3.115,0-5.64-2.525-5.64-5.64v-15.672c0-3.115,2.525-5.64,5.64-5.64h15.672
						c3.115,0,5.64,2.525,5.64,5.64v15.672C508.075,291.45,505.55,293.975,502.435,293.975z"/>
				</g>
				<g>
					<g>
						<g>
							<path fill="#F3F3F3" d="M493.745,286.435l-6.814-5.94c-0.559-0.487-0.617-1.335-0.13-1.894
								c0.487-0.559,1.335-0.616,1.893-0.13l4.818,4.201l6.871-7.664c0.495-0.552,1.344-0.598,1.895-0.103
								c0.552,0.495,0.598,1.343,0.103,1.895L493.745,286.435z"/>
						</g>
					</g>
				</g>
			</g>
			<g>
				<linearGradient id="SVGID_2_" gradientUnits="userSpaceOnUse" x1="621.5512" y1="390.9742" x2="695.3403" y2="390.9742">
					<stop  offset="0" style="stop-color:#40D5E6"/>
					<stop  offset="1" style="stop-color:#5577FF"/>
				</linearGradient>
				<path fill="url(#SVGID_2_)" d="M627.999,293.47c6.363-3.043,12.695,17.212,12.695,17.212c10.814,14.29,25.928-4.72,24.45,16.641
					c-2.586,37.38,43.026,11.755,21.983,50.78c-21.043,39.025,18.58,22.066,5.503,53.533c-13.077,31.467,3.872,68.998-15.804,53.576
					c0,0-17.325-37.992-35.192-49.747c-17.867-11.754,10.704-25.702,5.114-41.667c-8.119-23.189-27.683-22.278-13.577-47.198
					C647.276,321.681,606.37,303.814,627.999,293.47z"/>
				<g>
					<path fill="#FFFFFF" d="M683.057,470.914c-8.529-5.998-18.51-47.797-19.106-72.694c-0.305-12.753-4.075-18.066-7.401-22.754
						c-3.179-4.481-5.925-8.351-4.325-17.236c3.056-16.98-4.98-24.311-5.061-24.383l0.93-1.06c0.358,0.313,8.727,7.873,5.52,25.693
						c-1.495,8.303,0.969,11.775,4.088,16.17c3.273,4.612,7.345,10.352,7.66,23.536c0.639,26.719,10.844,66.184,18.507,71.574
						L683.057,470.914z"/>
				</g>
				<g>
					<linearGradient id="SVGID_3_" gradientUnits="userSpaceOnUse" x1="675.6814" y1="432.1489" x2="742.4099" y2="432.1489">
						<stop  offset="0" style="stop-color:#40D5E6"/>
						<stop  offset="1" style="stop-color:#5577FF"/>
					</linearGradient>
					<path fill="url(#SVGID_3_)" d="M686.248,474.013c-1.101,0-2.296-0.126-3.606-0.391c-3.287-0.664-5.442-2.399-6.406-5.155
						c-2.299-6.575,3.028-17.257,7.352-22.406c0.072-0.086,7.308-8.93,6.536-21.189c-0.129-2.055-0.342-3.957-0.531-5.635
						c-0.544-4.851-0.937-8.356,1.147-10.697c1.836-2.064,5.381-2.957,11.853-2.987c11.351-0.053,15.839-4.753,19.445-8.529
						c1.532-1.604,2.978-3.118,4.735-4.078l0,0c5.657-3.087,11.648-3.542,14.247-1.079c1.234,1.17,2.276,3.461,0.232,7.735
						c-1.869,3.906-4.292,6.378-6.239,8.365c-2.619,2.673-4.351,4.439-3.45,7.959c0.211,0.826,0.456,1.661,0.7,2.498
						c1.75,5.985,3.733,12.768-6.51,17.372c-2.173,0.977-4.154,1.754-5.901,2.44c-7.15,2.806-11.466,4.5-16.338,14.785
						c-0.943,1.991-1.776,3.877-2.581,5.702C697.093,467.428,694.186,474.012,686.248,474.013z M727.45,394.184
						c-1.565,0.854-2.875,2.226-4.391,3.814c-3.79,3.969-8.508,8.909-20.458,8.965c-5.951,0.028-9.284,0.804-10.806,2.515
						c-1.665,1.871-1.302,5.114-0.799,9.603c0.19,1.694,0.405,3.614,0.536,5.703c0.809,12.838-6.549,21.808-6.862,22.184
						c-4.28,5.096-9.128,15.24-7.102,21.034c0.788,2.253,2.589,3.679,5.354,4.238c9.646,1.949,12.31-4.087,16.722-14.086
						c0.809-1.834,1.645-3.729,2.597-5.737c5.112-10.79,9.88-12.662,17.098-15.494c1.732-0.68,3.696-1.451,5.838-2.414
						c9.123-4.1,7.477-9.729,5.735-15.689c-0.25-0.853-0.498-1.702-0.713-2.544c-1.098-4.289,1.067-6.499,3.809-9.296
						c1.972-2.012,4.207-4.292,5.973-7.987c0.927-1.936,1.691-4.567,0.07-6.102C737.919,390.87,732.501,391.426,727.45,394.184
						L727.45,394.184z"/>
				</g>
				<g>
					<linearGradient id="SVGID_4_" gradientUnits="userSpaceOnUse" x1="681.3851" y1="441.8523" x2="731.4695" y2="441.8523">
						<stop  offset="0" style="stop-color:#40D5E6"/>
						<stop  offset="1" style="stop-color:#5577FF"/>
					</linearGradient>
					<path fill="url(#SVGID_4_)" d="M682.794,482.156l-1.409-0.074c0.07-1.323,1.847-32.518,14.371-41.647
						c13.741-10.016,18.073-20.78,20.137-28.004c2.431-8.514,14.806-10.789,15.331-10.882l0.245,1.389
						c-0.12,0.021-12.032,2.216-14.22,9.879c-2.121,7.425-6.569,18.485-20.662,28.757C684.6,450.313,682.81,481.838,682.794,482.156
						z"/>
				</g>
				<linearGradient id="SVGID_5_" gradientUnits="userSpaceOnUse" x1="663.2991" y1="401.5491" x2="721.627" y2="401.5491">
					<stop  offset="0" style="stop-color:#40D5E6"/>
					<stop  offset="1" style="stop-color:#5577FF"/>
				</linearGradient>
				<path fill="url(#SVGID_5_)" d="M711.431,324.95c-8.902-3.052-7.053,14.105-10.814,26.8c-3.761,12.695-41.846,5.538-25.86,37.328
					c15.987,31.79-20.218,10.631-9.404,38.372c10.814,27.741,0.94,57.41,12.695,49.863c11.755-7.547,6.604-42.48,18.829-46.631
					c12.225-4.151,14.219-8.993,2.116-20.277c-12.104-11.285,31.717-22.487,20.903-45.273
					C709.08,342.346,721.716,328.476,711.431,324.95z"/>
				<g>
					<path fill="#FFFFFF" d="M683.502,475.984c-1.12-4.749-10.68-46.542-1.759-51.594c7.862-4.452,7.669-21.771,6.442-38.124
						c-1.086-14.477,17.506-21.242,18.298-21.523l0.472,1.329c-0.184,0.065-18.369,6.689-17.363,20.088
						c1.26,16.794,1.395,34.616-7.154,39.457c-6.774,3.836-0.537,37.424,2.438,50.042L683.502,475.984z"/>
				</g>
				<linearGradient id="SVGID_6_" gradientUnits="userSpaceOnUse" x1="649.9144" y1="485.2123" x2="703.738" y2="485.2123">
					<stop  offset="0" style="stop-color:#FF9340"/>
					<stop  offset="1" style="stop-color:#FFCE45"/>
				</linearGradient>
				<polygon fill="url(#SVGID_6_)" points="703.738,461.102 691.028,509.322 662.624,509.322 649.914,461.102 				"/>
				<linearGradient id="SVGID_7_" gradientUnits="userSpaceOnUse" x1="649.9144" y1="485.2123" x2="703.738" y2="485.2123">
					<stop  offset="0" style="stop-color:#C97332"/>
					<stop  offset="1" style="stop-color:#FFCE45"/>
				</linearGradient>
				<path fill="url(#SVGID_7_)" d="M703.738,461.102c0,0-27.981,5.254-27.981,48.22h-13.133l-12.71-48.22H703.738z"/>
			</g>
			<g>
				<g>
					<g>
						<g>
							<g>
								<g>
									<path fill="#EEA886" d="M575.277,464.501c0,0,1.212,4.761,1.377,5.478c0.165,0.717,7.629-1.257,7.629-1.257l-0.007-5.823
										C584.276,462.9,576.152,463.717,575.277,464.501z"/>
								</g>
							</g>
						</g>
					</g>
				</g>
				<g>
					<g>
						<g>
							<g>
								<g>
									<path fill="#112230" d="M576.507,469.373c0,0-2.09,3.173-4.279,4.694c-2.188,1.521-10.634,3.489-11.867,4.951
										c-0.89,1.056-2.129,5.054,11.423,3.229c9.629-1.297,14.379-0.969,15.244-2.647c0.866-1.678-2.746-11.399-2.746-11.399
										S582.223,469.322,576.507,469.373z"/>
								</g>
							</g>
						</g>
					</g>
				</g>
				<g>
					<g>
						<g>
							<g>
								<g>
									<g>
										<polygon fill="#F0C141" points="573.695,600 546.647,324.397 550.056,324.065 577.104,599.669 										"/>
									</g>
								</g>
							</g>
						</g>
					</g>
					<g>
						<g>
							<g>
								<g>
									<g>
										<polygon fill="#F0C141" points="628.839,594.648 601.791,319.045 605.2,318.714 632.248,594.318 										"/>
									</g>
								</g>
							</g>
						</g>
					</g>
					<g>
						<g>
							<g>
								<g>
									<g>
										<g>
											
												<rect x="574.834" y="300.199" transform="matrix(0.0967 0.9953 -0.9953 0.0967 847.1624 -277.6505)" fill="#F0C141" width="3.425" height="55.404"/>
										</g>
									</g>
								</g>
							</g>
						</g>
						<g>
							<g>
								<g>
									<g>
										<g>
											
												<rect x="577.323" y="325.841" transform="matrix(0.0966 0.9953 -0.9953 0.0966 874.9987 -256.9323)" fill="#F0C141" width="3.425" height="55.403"/>
										</g>
									</g>
								</g>
							</g>
						</g>
						<g>
							<g>
								<g>
									<g>
										<g>
											
												<rect x="579.811" y="351.483" transform="matrix(0.0966 0.9953 -0.9953 0.0966 902.7692 -236.2438)" fill="#F0C141" width="3.425" height="55.404"/>
										</g>
									</g>
								</g>
							</g>
						</g>
						<g>
							<g>
								<g>
									<g>
										<g>
											
												<rect x="582.3" y="377.126" transform="matrix(0.0965 0.9953 -0.9953 0.0965 930.6002 -215.521)" fill="#F0C141" width="3.425" height="55.403"/>
										</g>
									</g>
								</g>
							</g>
						</g>
						<g>
							<g>
								<g>
									<g>
										<g>
											
												<rect x="584.788" y="402.768" transform="matrix(0.0965 0.9953 -0.9953 0.0965 958.3651 -194.8335)" fill="#F0C141" width="3.425" height="55.403"/>
										</g>
									</g>
								</g>
							</g>
						</g>
						<g>
							<g>
								<g>
									<g>
										<g>
											
												<rect x="587.277" y="428.41" transform="matrix(0.0966 0.9953 -0.9953 0.0966 986.0749 -174.1813)" fill="#F0C141" width="3.425" height="55.403"/>
										</g>
									</g>
								</g>
							</g>
						</g>
						<g>
							<g>
								<g>
									<g>
										<g>
											
												<rect x="589.765" y="454.053" transform="matrix(0.0966 0.9953 -0.9953 0.0966 1013.8516 -153.4885)" fill="#F0C141" width="3.425" height="55.403"/>
										</g>
									</g>
								</g>
							</g>
						</g>
						<g>
							<g>
								<g>
									<g>
										<g>
											
												<rect x="592.254" y="479.695" transform="matrix(0.0966 0.9953 -0.9953 0.0966 1041.6219 -132.8005)" fill="#F0C141" width="3.425" height="55.403"/>
										</g>
									</g>
								</g>
							</g>
						</g>
						<g>
							<g>
								<g>
									<g>
										<g>
											
												<rect x="594.742" y="505.338" transform="matrix(0.0966 0.9953 -0.9953 0.0966 1069.3868 -112.1158)" fill="#F0C141" width="3.425" height="55.403"/>
										</g>
									</g>
								</g>
							</g>
						</g>
					</g>
					<g>
						<g>
							<g>
								<g>
									<g>
										<g>
											
												<rect x="597.231" y="530.98" transform="matrix(0.0966 0.9953 -0.9953 0.0966 1097.1636 -91.4224)" fill="#F0C141" width="3.425" height="55.403"/>
										</g>
									</g>
								</g>
							</g>
						</g>
						<g>
							<g>
								<g>
									<g>
										<g>
											
												<rect x="599.719" y="556.622" transform="matrix(0.0965 0.9953 -0.9953 0.0965 1124.998 -70.6827)" fill="#F0C141" width="3.425" height="55.403"/>
										</g>
									</g>
								</g>
							</g>
						</g>
					</g>
				</g>
				<g>
					<g>
						<g>
							<g>
								<g>
									<path fill="#152B3D" d="M566.069,364.264c0,0-5.432,20.171-6.864,27.381c-1.248,6.282-3.758,23.015-4.115,26.993
										c-0.357,3.978,16.035,42.483,17.74,49.439l14.934-2.398c0,0-15.756-40.076-11.646-48.982
										c6.113-13.245,6.909-12.845,11.725-23.756c4.816-10.911,15.839-11.169,18.8-31.413
										C606.642,361.527,570.077,357.843,566.069,364.264z"/>
								</g>
							</g>
						</g>
					</g>
				</g>
				<g>
					<g>
						<g>
							<g>
								<g>
									<path fill="#EEA886" d="M592.624,266.261c0,0-9.916-3.704-14.489,3.845c-4.572,7.548-4.131,22.66,0.867,24.519
										c4.998,1.858,12.507,0.886,15.066-3.837c2.559-4.724,4.869-11.552,4.759-16.115
										C598.716,270.109,595.228,267.579,592.624,266.261z"/>
								</g>
							</g>
						</g>
					</g>
				</g>
				<g>
					<g>
						<g>
							<g>
								<g>
									<path fill="#EEA886" d="M580.667,294.161c0,0,0.4,2.599-0.262,3.88c-0.662,1.28,12.473,1.314,12.473,1.314
										s1.066-6.964,3.088-12.849C597.987,280.621,580.667,294.161,580.667,294.161z"/>
								</g>
							</g>
						</g>
					</g>
				</g>
				<g>
					<g>
						<g>
							<g>
								<g>
									<path fill="#3A3F47" d="M595.966,286.505c0,0-0.906,1.496-4.607,0.915s-8.215-5.504-9.76-6.044
										c-1.545-0.541-1.56-1.448-1.56-1.448l-0.968,1.413l-1.641,0.104c0,0,1.497-4.404-0.761-6.2
										c-2.258-1.796,2.344-14.255,14.211-10.107c0,0,9.115,2.513,8.783,7.697C599.333,278.019,598.006,283.924,595.966,286.505z"
										/>
								</g>
							</g>
						</g>
					</g>
				</g>
				<g>
					<g>
						<g>
							<g>
								<g>
									<path fill="#EEA886" d="M580.285,278.043c0.207-0.87,2.418-3.354,3.265-0.694c0.847,2.661-1.279,6.239-2.465,5.933
										C579.899,282.976,579.758,280.248,580.285,278.043z"/>
								</g>
							</g>
						</g>
					</g>
				</g>
				<g>
					<g>
						<g>
							<g>
								<path fill="#1D3B54" d="M618.105,332.075c-0.108,1.301-1.594,2.708-2.607,3.403c-0.649,0.446-1.426,0.715-2.262,0.744
									l-0.588,0.02l0-0.001l-10.304,0.351c0,0-7.661-24.759,6.708-34.202C609.497,302.435,619.103,320.141,618.105,332.075z"/>
							</g>
						</g>
					</g>
				</g>
				<g>
					<g>
						<g>
							<g>
								<g>
									<path fill="#112230" d="M587.029,479.601c-0.867,1.678-5.617,1.351-15.245,2.646c-2.631,0.354-4.704,0.49-6.331,0.468
										l-0.562-5.792c2.817-0.98,6.091-1.99,7.337-2.857c2.189-1.521,4.278-4.694,4.278-4.694c5.717-0.05,7.777-1.172,7.777-1.172
										S587.894,477.923,587.029,479.601z"/>
								</g>
							</g>
						</g>
					</g>
				</g>
				<g>
					<g>
						<g>
							<g>
								<path fill="#1D3B54" d="M580.659,297.285c0,0,8.086-1.881,12.643-0.342l0.688,0.637c0,0,1.385,2.656-3.829,2.884
									C584.948,300.693,576.751,301.072,580.659,297.285z"/>
							</g>
						</g>
					</g>
				</g>
				<g>
					<g>
						<g>
							<g>
								<g>
									<path fill="#EEA886" d="M612.259,486.766c0,0,1.212,4.76,1.377,5.477c0.165,0.717,7.629-1.257,7.629-1.257l-0.007-5.823
										C621.258,485.164,613.134,485.982,612.259,486.766z"/>
								</g>
							</g>
						</g>
					</g>
				</g>
				<g>
					<g>
						<g>
							<g>
								<g>
									<path fill="#152B3D" d="M606.642,361.527c0,0,2.722,11.227,3.527,22.468c0.745,10.387,2.101,21.78,3.179,32.643
										c1.201,12.111,4.629,31.69,4.807,38.168c0.179,6.478,5.632,34.792,5.632,34.792l-13.949,1.603
										c0,0-9.063-50.034-11.203-55.149c-2.141-5.114-12.755-41.577-13.112-45.669
										C585.167,386.291,606.642,361.527,606.642,361.527z"/>
								</g>
							</g>
						</g>
					</g>
				</g>
				<g>
					<g>
						<g>
							<g>
								<g>
									<path fill="#112230" d="M613.488,491.638c0,0-2.09,3.173-4.279,4.694c-2.188,1.521-10.634,3.489-11.867,4.952
										c-0.89,1.056-2.129,5.054,11.424,3.229c9.628-1.297,14.378-0.969,15.244-2.647c0.866-1.678-2.746-11.399-2.746-11.399
										S619.205,491.587,613.488,491.638z"/>
								</g>
							</g>
						</g>
					</g>
				</g>
				<g>
					<g>
						<g>
							<g>
								<path fill="#1D3B54" d="M563.247,389.458c-1.188-0.17,2.95-35.584,2.633-37.805c-0.211-1.482-0.178-12.99-0.091-20.165
									l-1.295-7.261c-0.721-0.525-1.687-1.13-2.843-1.797c-1.798-1.038-4.055-2.224-6.561-3.477
									c0.291-1.715,0.495-3.065,0.572-3.854c0.625-6.378,4.909-9.758,7.338-11.18c0.991-0.58,1.673-0.835,1.673-0.835
									c0.923-0.392,1.829-0.771,2.708-1.132c5.849-2.407,13.278-4.667,13.278-4.667h11.936c0,0,9.086,1.816,14.502,4.032
									c0.694,0.284,1.345,0.648,1.955,1.073l-1.621,34.028c-0.001,0.007-0.002,0.014-0.004,0.022
									c-0.001,0.011-0.004,0.026-0.006,0.045c-0.731,4.787-1.5,10.434-1.756,14.394c-0.105,1.617,1.744,10.297,2.708,18.266
									l3.376,19.067C611.75,388.212,609.799,396.113,563.247,389.458z"/>
							</g>
						</g>
					</g>
				</g>
				<g>
					<g>
						<g>
							<g>
								<g>
									<path fill="#EEA886" d="M502.309,279.097c0,0,0.705,0.873,1.199,1.104c0,0,0.932,0.352,1.579,0.642
										c0.205,0.093,0.382,0.178,0.49,0.245c0.453,0.28,1.363,1.03,2.64,1.397c1.274,0.367,7.04,1.68,7.04,1.68l1.341-3.421
										l0.961-2.763c0,0-5.337-6.914-6.486-7.394c-0.112-0.046-0.225-0.088-0.334-0.119c-1.012-0.312-1.896-0.118-2.445-0.221
										c-0.202-0.037-2.235-0.266-2.676,0.159c-0.611,0.588-0.797,1.245-0.69,1.816c0,0-1.147,1.205-1.229,2.322
										c0,0-1.094,1.078-0.801,2.496C502.898,277.04,501.912,278.258,502.309,279.097z"/>
								</g>
							</g>
						</g>
					</g>
				</g>
				<g>
					<g>
						<g>
							<g>
								<g>
									<path fill="#1D3B54" d="M564.11,323.956c-1.332-0.858-3.055-2.018-9.02-5.002c-11.104-5.556-24.813-15.627-27.421-17.081
										c-4.008-2.237-16.67-17.707-16.67-17.707c0.653-2.33,6.656-7.007,6.656-7.007s19.196,18.182,23.391,20.42
										c3.608,1.924,21.427,3.869,26.335,4.373c0.797,0.082,1.253,0.127,1.253,0.127
										C573.762,309.07,566.973,325.799,564.11,323.956z"/>
								</g>
							</g>
						</g>
					</g>
				</g>
			</g>
			<rect x="251.314" y="245.646" fill="#D6D6D6" width="28.794" height="3.547"/>
			<rect x="244.328" y="239.328" fill="#D6D6D6" width="42.766" height="3.547"/>
			<circle fill="#78C2FF" cx="265.776" cy="190.633" r="7.435"/>
			<path fill="#78C2FF" d="M279.188,214.871v14.139c-4.106,1.868-8.671,2.906-13.477,2.906c-4.805,0-9.37-1.038-13.477-2.906
				v-14.139c0-7.44,6.031-13.477,13.477-13.477C273.156,201.394,279.188,207.43,279.188,214.871z"/>
			<g>
				<linearGradient id="SVGID_8_" gradientUnits="userSpaceOnUse" x1="265.7112" y1="176.2054" x2="265.7112" y2="245.8958">
					<stop  offset="0" style="stop-color:#D3DAE0"/>
					<stop  offset="1" style="stop-color:#FFFFFF"/>
				</linearGradient>
				<path fill="url(#SVGID_8_)" d="M265.711,232.8c-4.83,0-9.488-1.004-13.843-2.985c-11.937-5.425-19.65-17.4-19.65-30.508
					c0-18.468,15.025-33.493,33.493-33.493c18.468,0,33.493,15.025,33.493,33.493c0,13.108-7.713,25.083-19.651,30.508
					C275.199,231.796,270.542,232.8,265.711,232.8z M265.711,167.582c-17.493,0-31.725,14.232-31.725,31.725
					c0,12.416,7.307,23.759,18.614,28.898c4.124,1.876,8.535,2.827,13.111,2.827c4.576,0,8.987-0.951,13.111-2.827
					c11.308-5.139,18.615-16.482,18.615-28.898C297.436,181.814,283.205,167.582,265.711,167.582z"/>
			</g>
			<g>
				<g>
					<rect x="317.16" y="177.31" fill="#C9E0FF" width="2.333" height="53.721"/>
				</g>
				<g>
					<rect x="327.883" y="177.31" fill="#C9E0FF" width="2.333" height="53.721"/>
				</g>
				<g>
					<rect x="338.606" y="177.31" fill="#C9E0FF" width="2.333" height="53.721"/>
				</g>
				<g>
					<rect x="349.329" y="177.31" fill="#C9E0FF" width="2.334" height="53.721"/>
				</g>
				<g>
					<rect x="360.052" y="177.31" fill="#C9E0FF" width="2.334" height="53.721"/>
				</g>
				<g>
					<rect x="370.775" y="177.31" fill="#C9E0FF" width="2.334" height="53.721"/>
				</g>
				<g>
					<rect x="381.498" y="177.31" fill="#C9E0FF" width="2.334" height="53.721"/>
				</g>
				<g>
					<rect x="392.221" y="177.31" fill="#C9E0FF" width="2.334" height="53.721"/>
				</g>
				<g>
					<rect x="402.944" y="177.31" fill="#C9E0FF" width="2.334" height="53.721"/>
				</g>
				<g>
					<rect x="413.667" y="177.31" fill="#C9E0FF" width="2.334" height="53.721"/>
				</g>
				<g>
					<rect x="424.39" y="177.31" fill="#C9E0FF" width="2.334" height="53.721"/>
				</g>
				<g>
					<rect x="435.113" y="177.31" fill="#C9E0FF" width="2.333" height="53.721"/>
				</g>
			</g>
			<g>
				<g>
					<rect x="317.16" y="193.371" fill="#4AAFFF" width="2.333" height="37.66"/>
				</g>
				<g>
					<rect x="327.883" y="206.386" fill="#4AAFFF" width="2.333" height="24.645"/>
				</g>
				<g>
					<rect x="338.606" y="185.064" fill="#4AAFFF" width="2.333" height="45.968"/>
				</g>
				<g>
					<rect x="349.329" y="217.648" fill="#4AAFFF" width="2.334" height="13.384"/>
				</g>
				<g>
					<rect x="360.052" y="204.171" fill="#4AAFFF" width="2.334" height="26.861"/>
				</g>
				<g>
					<rect x="370.775" y="194.11" fill="#4AAFFF" width="2.334" height="36.922"/>
				</g>
				<g>
					<rect x="381.498" y="207.217" fill="#4AAFFF" width="2.334" height="23.814"/>
				</g>
				<g>
					<rect x="392.221" y="190.695" fill="#4AAFFF" width="2.334" height="40.337"/>
				</g>
				<g>
					<rect x="402.944" y="208.879" fill="#4AAFFF" width="2.334" height="22.153"/>
				</g>
				<g>
					<rect x="413.667" y="195.587" fill="#4AAFFF" width="2.334" height="35.445"/>
				</g>
				<g>
					<rect x="424.39" y="213.309" fill="#4AAFFF" width="2.334" height="17.722"/>
				</g>
				<g>
					<rect x="435.113" y="195.587" fill="#4AAFFF" width="2.333" height="35.445"/>
				</g>
			</g>
			<g>
				<g>
					<g>
						<path fill="#4AAFFF" d="M534.363,193.229c-4.524-12.65-16.613-20.419-29.354-20.036c-3.085,0.093-6.208,0.663-9.272,1.759
							c-9.281,3.32-15.936,10.712-18.67,19.445c-1.895,6.053-1.907,12.749,0.394,19.182c0.229,0.64,0.477,1.269,0.744,1.883
							c1.21,2.786,2.798,5.307,4.684,7.522c7.907,9.296,21.027,13.224,33.2,8.872C531.801,226.237,539.982,208.943,534.363,193.229z
							 M513.54,224.735c-9.126,3.264-18.962,0.318-24.891-6.65c-1.413-1.661-2.605-3.551-3.511-5.64
							c-0.2-0.461-0.387-0.933-0.559-1.412c-1.725-4.823-1.715-9.843-0.295-14.38c2.05-6.549,7.039-12.091,13.998-14.579
							c2.297-0.822,4.638-1.249,6.951-1.32c9.551-0.288,18.617,5.537,22.009,15.021C531.456,207.556,525.321,220.521,513.54,224.735
							z"/>
					</g>
				</g>
				<g>
					<g>
						<path fill="#1A598C" d="M484.285,196.652l-7.219-2.254c2.734-8.734,9.389-16.126,18.67-19.445
							c3.064-1.096,6.187-1.666,9.272-1.759l0.226,7.56c-2.313,0.071-4.654,0.498-6.951,1.32
							C491.324,184.561,486.335,190.103,484.285,196.652z"/>
					</g>
				</g>
				<g>
					<g>
						<path fill="#2273B5" d="M485.139,212.445l-6.935,3.018c-0.267-0.615-0.515-1.244-0.744-1.883
							c-2.301-6.433-2.289-13.129-0.394-19.182l7.219,2.254c-1.42,4.537-1.43,9.558,0.295,14.38
							C484.752,211.512,484.939,211.984,485.139,212.445z"/>
					</g>
				</g>
				<g>
					<g>
						<path fill="#3788CC" d="M482.888,222.985c-1.886-2.215-3.474-4.735-4.684-7.522l6.935-3.018
							c0.906,2.089,2.098,3.979,3.511,5.64L482.888,222.985z"/>
					</g>
				</g>
			</g>
			<g>
				<g>
					<g>
						<path fill="#4AAFFF" d="M560.561,211.687c-5.023-2.377-10.832-1.113-14.447,2.726c-0.875,0.929-1.622,2.009-2.198,3.226
							c-1.744,3.686-1.528,7.795,0.227,11.149c1.216,2.324,3.172,4.287,5.726,5.495c0.254,0.12,0.511,0.232,0.769,0.333
							c1.169,0.461,2.37,0.734,3.57,0.83c5.032,0.406,10.019-2.282,12.306-7.116C569.467,222.091,566.802,214.639,560.561,211.687z
							 M563.687,226.993c-1.715,3.624-5.454,5.639-9.226,5.335c-0.899-0.073-1.801-0.277-2.677-0.623
							c-0.193-0.076-0.386-0.16-0.576-0.25c-1.915-0.906-3.381-2.377-4.292-4.12c-1.316-2.515-1.478-5.595-0.17-8.358
							c0.432-0.912,0.991-1.722,1.647-2.419c2.709-2.878,7.065-3.826,10.831-2.044C563.902,216.728,565.9,222.314,563.687,226.993z"
							/>
					</g>
				</g>
				<g>
					<g>
						<path fill="#1A598C" d="M546.915,227.335l-2.771,1.452c-1.755-3.354-1.971-7.463-0.227-11.149
							c0.576-1.217,1.322-2.297,2.198-3.226l2.277,2.145c-0.656,0.697-1.216,1.507-1.647,2.419
							C545.437,221.74,545.599,224.82,546.915,227.335z"/>
					</g>
				</g>
				<g>
					<g>
						<path fill="#2273B5" d="M551.784,231.705l-1.145,2.911c-0.258-0.102-0.515-0.213-0.769-0.333
							c-2.554-1.208-4.51-3.171-5.726-5.495l2.771-1.452c0.911,1.743,2.377,3.214,4.292,4.12
							C551.398,231.546,551.591,231.629,551.784,231.705z"/>
					</g>
				</g>
			</g>
			<g>
				<g>
					<g>
						<path fill="#4AAFFF" d="M566.514,190.268c2.377-5.023,1.113-10.832-2.726-14.446c-0.93-0.875-2.01-1.622-3.227-2.197
							c-3.685-1.744-7.794-1.528-11.148,0.227c-2.325,1.216-4.287,3.171-5.496,5.726c-0.12,0.254-0.232,0.511-0.333,0.769
							c-0.461,1.169-0.734,2.37-0.83,3.57c-0.406,5.032,2.282,10.018,7.115,12.306C556.11,199.173,563.561,196.508,566.514,190.268z
							 M551.208,193.393c-3.624-1.714-5.64-5.453-5.335-9.226c0.073-0.899,0.277-1.8,0.623-2.676
							c0.076-0.194,0.159-0.386,0.249-0.577c0.906-1.915,2.378-3.381,4.12-4.292c2.515-1.316,5.595-1.478,8.358-0.17
							c0.912,0.431,1.723,0.991,2.419,1.647c2.878,2.71,3.826,7.065,2.044,10.832C561.473,193.609,555.887,195.607,551.208,193.393z
							"/>
					</g>
				</g>
				<g>
					<g>
						<path fill="#4AAFFF" d="M550.866,176.622l-1.452-2.771c3.354-1.755,7.463-1.97,11.148-0.227
							c1.217,0.576,2.297,1.322,3.227,2.197l-2.145,2.277c-0.697-0.656-1.507-1.216-2.419-1.647
							C556.461,175.144,553.381,175.306,550.866,176.622z"/>
					</g>
				</g>
				<g>
					<g>
						<path fill="#2273B5" d="M546.496,181.491l-2.911-1.146c0.102-0.258,0.213-0.515,0.333-0.769
							c1.209-2.555,3.171-4.51,5.496-5.726l1.452,2.771c-1.743,0.912-3.214,2.377-4.12,4.292
							C546.655,181.105,546.572,181.297,546.496,181.491z"/>
					</g>
				</g>
				<g>
					<g>
						<path fill="#3788CC" d="M542.755,183.915c0.096-1.2,0.369-2.401,0.83-3.57l2.911,1.146c-0.346,0.876-0.551,1.777-0.623,2.676
							L542.755,183.915z"/>
					</g>
				</g>
			</g>
			<g>
				<polygon fill="#E2F3FE" points="551.376,243.685 528.036,243.685 528.036,243.221 550.912,243.221 550.912,234.403 
					551.376,234.403 				"/>
			</g>
			<g>
				<polygon fill="#E2F3FE" points="507.423,243.685 477.066,243.685 477.066,243.221 506.959,243.221 506.959,228.788 
					507.423,228.788 				"/>
			</g>
			<g>
				<rect x="477.066" y="238.393" fill="#4AAFFF" width="20.888" height="2.783"/>
			</g>
			<g>
				<rect x="528.036" y="238.393" fill="#4AAFFF" width="12.286" height="2.783"/>
			</g>
			<g>
				<g>
					<path fill="#3B3B40" d="M206.762,327.964c0,0-8.822-0.297-11.637,6.934s-0.69,12.776,0.113,15.409
						c2.097,6.879,2.269,9.376,1.254,13.527c-0.9,3.679-1.727,5.58-2.765,9.02c-1.038,3.44,0.693,3.057,0.844,3.309
						c0.151,0.251,34.546,3.428,34.546,3.428s-0.919-7.451-3.341-9.18c-2.422-1.73-4.816-2.08-2.974-9.453
						s3.011-10.796,1.979-16.142c-1.197-6.196-1.95-10.068-7.775-14.13C213.493,328.236,209.547,327.694,206.762,327.964z"/>
				</g>
				<path fill="#CCCCCC" d="M196.584,571.165c0,0,4.852,7.205,6.807,8.943c0,0,4.345,1.593,4.779,4.635
					c0.434,3.041,0.362,5.071-4.779,5.215c-5.141,0.145-8.512-0.778-9.453-3.892c-0.941-3.114-3.002-5.234-3.002-5.234v6.517h-1.158
					c0,0-0.29-6.3-0.362-7.459c-0.072-1.158-0.832-5.613,1.612-7.586C193.471,570.332,196.584,571.165,196.584,571.165z"/>
				<path fill="#CCCCCC" d="M220.872,565.408c0,0,0.84,1.986,2.426,4.055c1.163,1.517,4.779,7.748,6.372,8.183
					c1.593,0.434,6.517,1.303,6.952,4.055c0.434,2.752,0.652,4.707-4.2,4.924c-4.852,0.217-8.038,0.507-10.355-2.896
					c-2.317-3.403-6.01-5.865-6.01-5.865v8.88h-1.883c0,0-0.869-9.242-1.376-9.894c-0.507-0.652-1.81-7.748,2.679-11.442
					C219.967,561.715,220.872,565.408,220.872,565.408z"/>
				<path fill="#EEA886" d="M193.326,432.095c0,0-5.453,8.107-7.114,17.557c-1.662,9.45,0.307,41.026,0.235,45.697
					c-0.072,4.67-4.417,16.293-3.548,25.091c0.869,8.798,8.129,51.866,8.129,51.866l5.557-1.14c0,0-0.543-44.643,0-48.336
					c0.543-3.693,1.633-17.155,1.85-18.676c0.217-1.521,13.791-41.451,13.791-48.265S208.098,420.979,193.326,432.095z"/>
				<path fill="#EEA886" d="M224.102,435.208c0,0,10.065,38.415,11.26,43.738c1.195,5.322,2.926,9.712,2.926,11.972
					c0,5.243-1.948,13.663-1.948,13.663l-15.468,60.827l-6.416,1.008c0,0,3.711-37.379,3.893-44.551
					c0.183-7.187,5.715-17.393,4.629-20.435c-1.086-3.041-17.488-38.126-17.488-38.126S193.072,424.057,224.102,435.208z"/>
				<path fill="#EEA886" d="M203.391,580.108c0,0-4.968,2.778-8.167-0.789c-2.701-3.011-4.197-7.014-4.197-7.014l5.557-1.14
					L203.391,580.108z"/>
				<path fill="#EEA886" d="M229.67,577.646c0,0-4.345,1.086-6.01,0c-1.666-1.086-7.328-10.657-9.204-11.23
					c0,0,1.817-3.687,6.416-1.008C220.872,565.408,228.439,576.053,229.67,577.646z"/>
				<path fill="#EB4747" d="M238.288,490.918c0,0-23.281,9.996-57.945,9.996c0,0,3.651-52.524,8.69-63.835
					c5.039-11.311,35.871,1.141,35.871,1.141S238.288,481.442,238.288,490.918z"/>
				<g>
					<path fill="#EB4747" d="M264.475,414.826c0,0-21.233,1.827-26.488-0.512c-2.63-1.17-6.193-6.023-9.484-11.346
						c-0.559-0.904-1.111-1.824-1.648-2.739c-4.024-6.858-7.275-13.594-7.275-13.594s-9.714-12.22,0.625-16.586
						c0,0,4.015,1.116,6.509,4.977c2.496,3.859,4.446,9.651,4.939,11.561c0.493,1.908,8.805,18.7,9.327,19.173
						c0.521,0.473,5.745,0.158,9.773,0.538c6.571,0.62,13.501,0.982,13.501,0.982L264.475,414.826z"/>
				</g>
				<g>
					<path fill="#EB4747" d="M227.709,397.774c-2.612,6.047-0.149,8.064-1.344,14.11c-1.195,6.049-1.622,23.274-1.398,26.633
						c0.224,3.359-29.778,6.812-36.722,0.69c0,0,2.314-13.068,6.565-21.193c0.808-1.542,0.421-7.623-0.399-9.714
						c-0.253-0.64-1.258-3.112-2.533-6.236c0,0-0.002-0.002-0.004-0.005c-1.327-3.248-2.945-7.202-4.31-10.532
						c-1.616-3.945-2.877-7.019-2.877-7.019s-1.036-9.728,3.004-12.865c3.51-2.725,13.073-3.696,14.789-4.294
						c1.718-0.597,6.713-0.856,10.222-0.335c0,0,5.375,2.539,7.241,2.913c1.867,0.372,9.108,9.78,10.378,13.214
						C231.591,386.575,230.323,391.726,227.709,397.774z"/>
				</g>
				<g>
					<path fill="#EEA886" d="M215.268,360.812c0,0-1.072,9.861-0.848,13.071c0,0-4.492,5.46-10.845-6.671
						c0,0,1.58-4.862-0.432-11.675C201.13,348.723,215.268,360.812,215.268,360.812z"/>
				</g>
				<path fill="#EEA886" d="M198.19,368.211c0,0,3.842,11.349,14.392,10.514c10.55-0.835,5.001-9.583,5.001-9.583
					s-2.629-1.508-3.369-1.65c-0.74-0.143-10.469-0.555-10.469-0.555L198.19,368.211z"/>
				<path fill="#434343" d="M266.141,419.107h-25.145c-1.104,0-1.999-0.895-1.999-1.999v-37.634c0-1.104,0.895-1.999,1.999-1.999
					h25.145c1.104,0,1.999,0.895,1.999,1.999v37.634C268.14,418.212,267.245,419.107,266.141,419.107z"/>
				<rect x="240.979" y="380.306" fill="#FFFFFF" width="25.18" height="35.971"/>
				<path fill="#EEA886" d="M231.725,410.603c0,0,0.952,0.018,1.578-0.454c1.081-0.815,1.471-2.823,3.378-2.676
					c1.908,0.146,2.793,6.13,2.315,7.263c-0.478,1.132-3.128,1.699-7.043,0.919C228.038,414.874,231.725,410.603,231.725,410.603z"
					/>
				<path fill="#EEA886" d="M236.028,407.514c0,0,2.743-0.935,5.909-1.62c2.777-0.601,6.096-0.797,6.419-0.316
					c0.36,0.536-2.706,1-5.427,1.773c-2.506,0.711-1.909,0.973-1.909,0.973s-0.165-0.084,2.696-0.351
					c3.076-0.287,6.244-0.281,6.556,0.333c0.152,0.299,0.046,0.501-1.062,0.782c0.666-0.03,0.76,0.142,0.786,0.41
					c0.132,1.386-4.355,2.488-6.137,2.926c1.371-0.328,2.405-0.428,1.912,0.5c-0.564,1.062-6.967,2.346-9.225,3.018
					C234.082,416.675,236.028,407.514,236.028,407.514z"/>
				<g>
					<path fill="#EEA886" d="M264.818,385.468c0,0,4.142-0.963,5.474,1.031c1.333,1.995,1.382,4.565,1.049,5.753
						c-0.332,1.188-1.406,4.244-2.807,3.616C264.037,393.853,264.818,385.468,264.818,385.468z"/>
				</g>
				<g>
					<path fill="#EEA886" d="M268.917,385.512c0,0-0.58-2.799-1.701-2.321c-1.121,0.479-0.108,2.325-0.108,2.325L268.917,385.512z"
						/>
				</g>
				<g>
					<path fill="#EEA886" d="M264.818,385.468c0,0,0.067-1.6,2.963,0.046S264.818,385.468,264.818,385.468z"/>
				</g>
				<path fill="#A33131" d="M226.854,400.225c0,0,3.158-7.506,3.295-9.198c-0.029,0.998-0.254,7.077-1.646,11.941
					c-0.559-0.904-1.111-1.824-1.648-2.739C226.854,400.227,226.854,400.225,226.854,400.225z"/>
				<path fill="#D1C0BA" d="M230.149,391.027c0.002-0.093,0.004-0.141,0.004-0.141C230.154,390.927,230.153,390.973,230.149,391.027
					z"/>
				<path fill="#A33131" d="M213.955,410.607l-13.153-23.156c0,0,4.595,23.1,8.073,23.876
					C212.353,412.104,213.955,410.607,213.955,410.607z"/>
				<g>
					<path fill="#EB4747" d="M188.247,371.221c0,0-6.309,3.141-4.134,11.27c2.175,8.129,4.34,10.467,6.418,13.506
						c1.962,2.87,5.966,10.601,6.456,11.468c0.49,0.867,5.315,13.485,9.74,14.919c4.448,1.441,26.355-5.537,26.85-4.775
						c0.494,0.762-0.028-7.686-0.028-7.686s-10.181,0.751-12.426,0.598c-3.648-0.248-9.501,1.244-10.909-1.915
						c-1.654-3.712-7.583-15.913-8.208-17.922C201.382,388.674,194.099,369.156,188.247,371.221z"/>
				</g>
				<g>
					<path fill="#EEA987" d="M213.64,332.591c0,0,9.732,6.353,6.569,21.709c-3.163,15.357-14.652,6.913-15.901,6.043
						c-1.248-0.871-5.105-10.482-5.256-14.675C198.91,341.721,196.851,325.895,213.64,332.591z"/>
				</g>
				<g>
					<path fill="#3B3B40" d="M212.972,335.674c-1.015-0.3-4.44,6.32-6.284,7.954c-1.844,1.633-5.235,5.734-5.566,10.227
						c-0.331,4.493-4.123-9.818-2.812-15.129c1.312-5.311,3.062-13.098,14.922-6.922c11.86,6.177,8.793,17.219,8.793,17.219
						S218.1,337.188,212.972,335.674z"/>
				</g>
				<g>
					<path fill="#EEA987" d="M204.754,346.274c-0.314-1.817-4.324-3.354-4.265-0.624c0.059,2.731,2.273,5.882,3.525,5.683
						C205.266,351.134,205.044,347.951,204.754,346.274z"/>
				</g>
				<path fill="#A87860" d="M205.244,360.98c0.071,0.136,2.387,4.585,9.471,5.707c0.158-1.736,0.378-3.863,0.378-3.863
					S209.993,364.541,205.244,360.98z"/>
				<g>
					<rect x="243.841" y="384.572" fill="#E6E6E6" width="8.84" height="1.862"/>
					<g>
						<g>
							<g>
								<g>
									<g>
										<g>
											<path fill="#78C2FF" d="M257.956,389.618l-1.251-2.049c-0.103-0.168-0.05-0.388,0.118-0.49
												c0.168-0.103,0.387-0.049,0.49,0.118l0.885,1.449l2.353-1.392c0.169-0.1,0.388-0.045,0.488,0.125
												s0.044,0.388-0.125,0.488L257.956,389.618z"/>
										</g>
									</g>
								</g>
							</g>
						</g>
						<g>
							<path fill="#78C2FF" d="M258.796,392.777c-2.482,0-4.501-2.019-4.501-4.501c0-2.482,2.019-4.501,4.501-4.501
								c2.482,0,4.501,2.019,4.501,4.501C263.297,390.758,261.278,392.777,258.796,392.777z M258.796,384.418
								c-2.127,0-3.858,1.731-3.858,3.858c0,2.127,1.731,3.858,3.858,3.858c2.127,0,3.858-1.73,3.858-3.858
								C262.654,386.149,260.923,384.418,258.796,384.418z"/>
						</g>
					</g>
					<g>
						<g>
							<g>
								<g>
									<g>
										<g>
											<path fill="#78C2FF" d="M257.956,400.987l-1.251-2.049c-0.103-0.168-0.05-0.387,0.118-0.49
												c0.168-0.103,0.387-0.049,0.49,0.119l0.885,1.449l2.353-1.393c0.169-0.1,0.388-0.044,0.488,0.125
												c0.1,0.17,0.044,0.388-0.125,0.488L257.956,400.987z"/>
										</g>
									</g>
								</g>
							</g>
						</g>
						<g>
							<path fill="#78C2FF" d="M258.796,404.146c-2.482,0-4.501-2.019-4.501-4.501c0-2.482,2.019-4.501,4.501-4.501
								c2.482,0,4.501,2.019,4.501,4.501C263.297,402.127,261.278,404.146,258.796,404.146z M258.796,395.787
								c-2.127,0-3.858,1.73-3.858,3.858s1.731,3.858,3.858,3.858c2.127,0,3.858-1.73,3.858-3.858S260.923,395.787,258.796,395.787z
								"/>
						</g>
					</g>
					<rect x="243.841" y="388.276" fill="#E6E6E6" width="8.84" height="1.862"/>
					<rect x="243.841" y="396.718" fill="#E6E6E6" width="8.84" height="1.862"/>
					<rect x="243.841" y="400.422" fill="#E6E6E6" width="8.84" height="1.862"/>
				</g>
			</g>
			<g>
				<path fill="#EEA886" d="M274.181,429.891c0,0-2.816,1.072-4.981,1.284c-2.165,0.212-5.304,2.475-6.105,3.459
					c-0.8,0.983-7.35,8.019-7.465,8.916c-0.115,0.897,1.674,0.599,2.276-0.112c0.602-0.711,6.315-6.375,6.315-6.375
					s-6.411,7.137-6.369,7.974c0.041,0.837,1.006,1.552,2.19,0.812c0,0,0.945,1.936,2.613,0.259l3.337-3.333
					c0,0-1.412,2.033,0.441,1.449c0.986-0.31,4.289-4.514,5.213-5.137c0.924-0.622,4.461-6.005,4.461-6.005L274.181,429.891z"/>
				<path fill="#162D40" d="M296.968,568.17c0,0-2.439,4.877-3.917,5.838c-1.478,0.961-9.754,9.015-11.454,9.755
					c-1.7,0.739-7.168,1.773-7.094,4.36c0.074,2.586,14.114,1.774,16.849,0.813c2.734-0.961,7.316-7.168,9.163-7.094
					c1.847,0.074,1.182,7.612,1.182,7.612h1.995c0,0,2.513-7.981,2.439-10.789c-0.074-2.808-1.626-10.493-1.626-10.493H296.968z"/>
				<path fill="#162D40" d="M331.194,565.141c0,0-1.073,4.828-2.836,6.515c-1.763,1.686-8.374,8.814-10.05,9.581
					c-1.676,0.766-4.895,1.303-5.892,2.529c-0.996,1.226-0.403,4.828,5.892,4.445c6.295-0.383,8.345-0.326,9.839-1.59
					c1.494-1.264,6.323-5.633,7.76-5.748v6.955h1.724c0,0,3.047-9.14,1.954-12.991s-1.035-9.082-1.035-9.082L331.194,565.141z"/>
				<path fill="#EEA886" d="M328.694,358.33c0,0,2.87,7.391,0.638,13.103c0,0,10.524-0.666,10.923-1.862
					c0.399-1.196-0.423-12.27,1.024-15.543S328.694,358.33,328.694,358.33z"/>
				<g>
					<g>
						<g>
							<path fill="#EEA886" d="M347.752,457.442c0,0-0.61,1.613-0.517,2.802c0.073,0.942-0.451,2.485-0.65,3.319
								c-0.199,0.833-0.668,4.511-0.553,5.417c0.047,0.37,1.245,2.511,1.258,3.275c0.013,0.764-0.151,2.32,0.516,2.277
								c0.667-0.043,1.2-1.404,1.2-1.404s0.055,0.694,0.65,0.836c1.157,0.275,1.648-0.293,1.648-0.293s0.523,0.664,1.036,0.658
								c1.131-0.014,1.59-0.576,1.59-0.576s0.554,0.316,1.306,0.138c0.963-0.227,1.223-1.167,1.223-1.167s1.267-0.011,1.522-0.671
								c0.255-0.659,0.087-1.268,0.144-1.828c0.057-0.56-0.87-5.305-3.045-8.397S354,454.851,354,454.851L347.752,457.442z"/>
						</g>
					</g>
				</g>
				<g>
					<path fill="#0E1E2B" d="M344.447,483.392l-1.305-8.997c-0.21-1.449,0.798-2.799,2.247-3.009l14.268-2.069
						c1.449-0.21,2.799,0.798,3.009,2.247l1.305,8.997c0.21,1.449-0.798,2.799-2.247,3.009l-14.268,2.07
						C346.007,485.849,344.657,484.841,344.447,483.392z M345.645,473.149c-0.477,0.069-0.808,0.513-0.739,0.99l1.305,8.997
						c0.069,0.477,0.513,0.808,0.99,0.739l14.268-2.069c0.477-0.069,0.808-0.513,0.739-0.99l-1.305-8.997
						c-0.069-0.477-0.513-0.808-0.99-0.739L345.645,473.149z"/>
				</g>
				<g>
					
						<rect x="330.533" y="479.81" transform="matrix(-0.9896 0.1435 -0.1435 -0.9896 782.2405 941.9419)" fill="#EDDAD3" width="53.222" height="38.754"/>
				</g>
				<g>
					<g>
						<path fill="#DB9C7C" d="M348.757,472.717c0,0-0.841-4.256,0.107-5.405c0.947-1.149,1.337,0.368,1.337,0.368
							s-0.411-1.494,0.759-1.96c1.171-0.466,1.531,1.336,1.531,1.336s-0.004-1.22,1.304-1.251c1.308-0.032,1.263,1.535,1.263,1.535
							s0.958-1.734,1.984-0.489c1.733,2.103,0.939,5.2,0.939,5.2s-0.263,0.728-1.522,0.671c0,0-0.523,1.832-2.53,1.029
							c0,0-1.669,1.436-2.626-0.081C351.304,473.67,349.438,475.096,348.757,472.717z"/>
					</g>
				</g>
				<path fill="#EB4747" d="M327.677,368.933c0,0-6.219,2.153-9.029,2.75c-2.81,0.598-8.69,3.309-8.212,13.514
					c0.478,10.205,2.232,19.055,2.87,23.439c0.638,4.385,0.239,15.547-0.797,20.968c0,0,14.909,3.668,32.449,0
					c0,0-3.109-9.248-3.03-11.64c0.08-2.392,10.364-22.084,10.843-25.194c0.478-3.109,2.551-16.822-2.153-19.852
					c-4.704-3.03-8.531-2.631-10.524-3.986C338.102,367.578,330.586,367.961,327.677,368.933z"/>
				<path fill="#EB4747" d="M319.692,371.433c0,0-6.864-0.188-11.727,10.575c-4.863,10.763-6.059,17.062-7.175,18.577
					c-1.116,1.515-5.023,7.415-8.85,10.285c-3.827,2.87-19.761,19.037-19.761,19.037l4.374,5.598c0,0,22.961-16.264,25.353-19.055
					c2.392-2.791,16.917-23.918,17.786-27.107C320.562,386.154,327.274,374.73,319.692,371.433z"/>
				<path fill="#EB4747" d="M360.864,424.901c0.043,4.305-4.427,33.684-4.427,33.684l-8.448,0.359c0,0,2.71-29.139,3.667-35.836
					c0.282-1.976,0.043-5.047-0.433-8.393v-0.002c-0.301-2.126-0.701-4.363-1.124-6.501c-1.165-5.903-2.509-11.055-2.509-11.055
					s-7.613-25.083,4.085-23.244c0,0,4.047,4.827,5.362,12.361c1.315,7.534,2.631,18.776,2.392,23.2
					S360.833,421.735,360.864,424.901z"/>
				<path fill="#1D3B54" d="M312.509,429.605c0,0-2.711,6.409-2.95,8.028c-0.239,1.619-8.737,22.775-9.328,28.965
					c-0.598,6.259-2.392,22.961-3.03,25.353c-0.638,2.392,1.435,13.075,1.754,15.467c0.319,2.392,0.159,41.458-2.711,60.752
					c0,0,6.697,2.87,11.8,0c0,0,8.451-30.137,7.973-47.517c-0.478-17.38-2.683-24.715,0.014-31.731
					c2.697-7.016,18.483-28.064,20.078-30.296c1.594-2.232,11.584-14.569,2.124-27.934
					C328.774,417.327,312.509,429.605,312.509,429.605z"/>
				<path fill="#1D3B54" d="M345.154,486.689c-0.839,5.583,0.043,12.916,1.796,33.327c1.756,20.409-3.069,45.124-3.069,45.124
					c-6.058,2.074-13.035,0-13.035,0c0.16-1.435,0-49.749,0-54.055s-1.236-9.191-1.555-14.133
					c-0.218-3.367-1.784-9.577-3.547-15.915c-0.528-1.899-1.074-3.808-1.605-5.657c0-0.002,0-0.002,0-0.002
					c-0.299-1.036-0.591-2.054-0.875-3.04c-2.483-8.611-5.822-41.859-5.822-41.859s18.505-14.906,27.515-0.873
					c9.01,14.03,4.384,24.236,4.066,25.989C348.706,457.351,345.994,481.109,345.154,486.689z"/>
				<path fill="#EB4747" d="M311.065,403.501c0,0,1.246,25.108-4.734,39.578c0,0,19.732,6.578,45.205,0
					c0,0-5.459-17.998-5.023-20.749c0.437-2.75,9.97-34.48,7.038-41.945C350.619,372.92,314.005,379.947,311.065,403.501z"/>
				<path fill="#EEA886" d="M334.594,329.229c-4.443-0.503-15.945,0.399-15.068,17.7c0.877,17.301,7.175,16.264,13.474,14.43
					c6.298-1.834,13.793-15.228,13.793-18.815C346.792,338.956,347.27,330.664,334.594,329.229z"/>
				<path fill="#FCCCA2" d="M320.163,339.007c0,0,5.005,6.383,10.037,7.909c0,0,3.874,6.926,10.632,8.691
					c0,0,14.411-13.782,2.293-24.146C331.006,321.097,320.083,333.717,320.163,339.007z"/>
				<path fill="#EEA886" d="M329.252,344.537c0.168-0.945,2.267-2.87,3.884-0.717c1.617,2.152-1.333,7.175-2.449,7.175
					C329.571,350.995,328.614,348.125,329.252,344.537z"/>
				<path fill="#FCCCA2" d="M345.155,334.579c0.361-0.548,11.284-5.469,13.556,4.815c2.272,10.285-8.797,22.244-10.737,27.386
					c-1.94,5.142,0,17.341,0,17.341s-5.785-6.274-7.799-12.688C337.962,364.389,337.219,346.626,345.155,334.579z"/>
				<path fill="#162D40" d="M337.482,456.703c-0.143,0.318-9.364,20.785-11.737,24.334c-0.528-1.899-1.074-3.808-1.605-5.657
					c0-0.002,0-0.002,0-0.002S337.173,457.153,337.482,456.703z"/>
				<path fill="#AB3434" d="M353.15,393.817c0,0-0.289,13.019-1.928,20.895c-0.301-2.126-0.701-4.363-1.124-6.501
					C350.165,407.917,352.832,395.853,353.15,393.817z"/>
			</g>
			<g>
				<g>
					<path fill="#353A3D" d="M117.667,576.488c0,0,2.786,4.168,6.694,5.069c3.908,0.901,7.757,2.332,7.786,4.799
						c0.03,2.466-11.298,3.937-15.771,1.451c-6.674-3.711-7.353-2.592-8.093-4.447c-0.74-1.855,0.889-6.815,0.841-7.404
						C109.065,575.227,117.667,576.488,117.667,576.488z"/>
				</g>
				<g>
					<path fill="#81807E" d="M117.234,574.432c0,0,0.508,2.013,0.433,2.056c-0.076,0.043-8.806,1.083-8.542-0.533
						c0.214-1.311,0.52-2.735,0.52-2.735L117.234,574.432z"/>
				</g>
				<g>
					<path fill="#353A3D" d="M88.284,576.212c0,0,1.987,3.987,5.383,5.345c3.629,1.452,6.54,3.12,6.474,5.523
						c-0.066,2.403-8.873,4.838-15.279,0.227c-4.048-2.914-5.331-2.928-5.98-4.763c-0.65-1.835,1.128-6.603,1.103-7.179
						C79.955,574.653,88.284,576.212,88.284,576.212z"/>
				</g>
				<g>
					<path fill="#81807E" d="M88.383,574.141c0,0-0.024,2.032-0.099,2.071c-0.075,0.039-8.514,0.734-8.299-0.847
						c0.17-1.256,0.819-2.773,0.819-2.773L88.383,574.141z"/>
				</g>
				<g>
					<path fill="#2D3133" d="M119.323,452.344c0,0,7.84,34.58,9.63,45.114c1.524,8.965,2.739,18.3,2.009,24.772
						c-0.904,8.013-12.247,49.539-11.773,51.888c0.474,2.349-11.869,0.376-11.869,0.376s8.627-46.321,6.903-54.943
						c-1.276-6.385-12.459-48.803-14.173-46.627c-1.714,2.176-3.839,40.032-5.108,46.316c-1.269,6.284-5.166,55.937-5.166,55.937
						s-8.712,1.285-11.039-0.684c0,0-1.059-42.398-0.251-54.179c0.308-4.49-5.261-53.835,1.88-73.701
						C84.142,436.116,119.323,452.344,119.323,452.344z"/>
				</g>
				<g>
					<path fill="#DECBC4" d="M153.447,420.908c-5.587-0.785-23.166,7.003-24.764,6.414c-1.099-0.403-3.676-8.803-5.518-15.161
						c-1.089-3.76-1.92-6.807-2.036-7.058l-0.007-0.014c0.018,0.169,0.303,3.044-0.06,6.821c-0.023,0.244-0.134,0.31-0.163,0.561
						c-0.008,0.065-0.045,0.269-0.071,0.33c-0.409,0.931-0.561,2.685-0.937,4.143c-0.558,2.154-0.866,5.088-0.644,8.144v0.012
						c-0.001,0.023-0.001,0.045-0.004,0.069c-0.001,0.069-0.005,0.137-0.005,0.206c0,0.027-0.003,0.056-0.003,0.084
						c-0.156,5.445,0.22,11.315,0.376,14.438c0.246,4.839-1.346,7.017-1.392,7.08c-0.001,0.001-0.001,0.001-0.001,0.001
						l-1.684-0.236l-1.217-0.171l-0.015-0.003l-1.626-0.228l-6.375-0.896l-2.309-0.325l-0.546-0.078l-4.039-0.567l-11.388-1.603
						l-1.249-0.175l-0.515-0.072l-4.294-0.606l-1.941-0.272l-0.007-0.001c0,0-1.649-11.692-1.775-18.012
						c-0.114-5.805-3.221-17.59-3.728-19.475c-0.003-0.014-0.007-0.026-0.011-0.04c-0.004-0.018-0.008-0.035-0.014-0.051
						c-0.009-0.033-0.016-0.06-0.023-0.083c-0.003-0.014-0.007-0.027-0.011-0.041c0-0.004-0.001-0.008-0.003-0.011
						c-0.001-0.004-0.003-0.008-0.003-0.012c-0.004-0.014-0.004-0.02-0.004-0.02s-9.295,9.765-11.099,14.025
						c-0.55,1.293-2.231,4.809-4.372,9.09c-1.464-2.794-2.381-4.736-2.381-5.222c0-0.06,0.001-0.123,0.003-0.19
						c0.137-4.213,4.553-21.296,8.036-32.455c2.705-5.438,5.039-9.835,5.787-10.372c1.134-0.815,5.905-2.858,10.069-4.51
						c0.137-0.054,0.273-0.108,0.406-0.16c0.388-0.154,0.771-0.303,1.143-0.448c0.186-0.072,0.369-0.143,0.55-0.212
						c0.099-0.038,0.197-0.075,0.295-0.111c0.08-0.031,0.159-0.061,0.238-0.091h0.001c2.082-0.792,3.664-1.345,3.99-1.363
						c0.054-0.004,0.141-0.003,0.259,0.001c0.137,0.003,0.315,0.011,0.527,0.024c2.574,0.151,10.255,0.871,12.727,1.105
						c0.45,0.042,0.728,0.069,0.77,0.074c0.004,0,0.005,0,0.005,0s1.177,0.536,2.95,1.347l0.001,0.001l0.164,0.075
						c1.072,0.492,2.312,1.147,3.622,1.864c2.57,1.408,5.408,3.054,7.762,4.175c2.309,1.097,5.469,2.628,5.738,2.843l11.695,33.724
						l20.288-3.708L153.447,420.908z"/>
				</g>
				<g>
					<path fill="#495055" d="M118.218,446.979c0,0,0.857,1.025,1.105,5.365c0,0-35.23-4.11-38.954-5.73c0,0-0.146-4.783,0.644-4.866
						C81.881,441.657,118.218,446.979,118.218,446.979z"/>
				</g>
				<g>
					<path fill="#EEA886" d="M88.175,370.786c0.11,5.529,10.815,8.554,10.815,8.554s4.478-5.614,3.408-6.152
						c-0.42-0.211-0.591-1.049-0.643-1.989c-0.048-0.895,0.009-1.881,0.061-2.508c0.032-0.391,0.062-0.643,0.062-0.643
						s-1.529-1.614-3.475-3.536c-3.4-3.362-8.075-7.669-8.082-5.956c0,0.09,0.012,0.199,0.039,0.325
						C91.181,362.738,88.175,370.786,88.175,370.786z"/>
				</g>
				<g>
					<path fill="#353A3D" d="M89.063,442.596c0,0-0.769,4.849-0.836,6.113l-1.63-0.325c0,0,0.449-5.131,0.713-5.99L89.063,442.596z"
						/>
				</g>
				<g>
					<path fill="#353A3D" d="M115.279,446.413c0,0,0.617,4.408,0.632,6.072l-1.724-0.224c0,0-0.353-5.504-0.551-6.079
						L115.279,446.413z"/>
				</g>
				<g>
					<path fill="#A77860" d="M92.298,362.685C92.298,362.685,92.298,362.685,92.298,362.685c0.022,0.033,0.476,0.712,1.251,1.687
						c1.643,2.067,4.733,5.463,8.206,6.827c-0.048-0.895,0.009-1.881,0.061-2.508c0.355-0.009,0.711-0.05,1.063-0.128
						c-0.952-1.663-2.328-3.408-2.328-3.408l-2.149-0.643L92.298,362.685z"/>
				</g>
				<g>
					<path fill="#EEA886" d="M90.243,358.632c0.926,2.015,1.805,3.475,2.055,4.053c0,0,0,0,0.001,0.001
						c0.162,0.377,0.604,0.991,1.25,1.687c1.764,1.901,5.044,4.408,8.267,4.32c0.355-0.009,0.711-0.05,1.063-0.128
						c1.302-0.284,2.839-0.889,3.685-2.545c6.679-13.076,1.843-23.769,1.843-23.769s-18.262-5.164-21.119,0.333
						C85.283,346.439,88.067,353.898,90.243,358.632z"/>
				</g>
				<g>
					<path fill="#D6D6D6" d="M108.407,342.25c0,0,1.696-0.094,2.115-3.309c0.414-3.177-0.424-4.057-0.424-4.057
						s-7.539-3.156-10.246-3.566c-2.707-0.41-9.365-0.804-10.925,0.98c0,0-3.791-0.881-4.824,5.413
						c-1.639,9.985,5.584,19.68,5.584,19.68s-0.062-6.523,1.377-7.388c1.438-0.865,2.68,1.191,2.68,1.191l2.943,0.527
						c0,0-4.47-9.651,0.892-10.009C102.94,341.355,105.338,342.81,108.407,342.25z"/>
				</g>
				<g>
					<path fill="#EEA886" d="M93.663,348.594c-0.28-2.874-5.477-3.971-5.129-0.959c0.348,3.012,2.908,5.906,4.09,5.804
						C93.807,353.337,93.877,350.784,93.663,348.594z"/>
				</g>
				<g>
					<path fill="#3C4145" d="M59.971,427.118c2.264,4.319,5.836,10.674,9.363,16.836c-0.465,0.867-0.918,1.726-1.353,2.575
						c-1.061,2.075-2.002,4.084-2.67,5.957c-0.804,2.252-1.922,8.019,0.217,9.091l11.27,6.22c0,0,0.079-0.22,0.228-0.627
						c0.374-1.012,1.183-3.177,2.303-5.981c0.037-0.091,0.149-0.359,0.316-0.752c0.224-0.528,0.547-1.283,0.917-2.146
						c0.166-0.386,0.339-0.793,0.52-1.212c0.204-0.478,0.416-0.971,0.626-1.461c0.307-0.714,0.612-1.425,0.895-2.082
						c0.769-1.79,1.369-3.183,1.369-3.183c0.038-0.083,0.076-0.164,0.114-0.247c0.367-0.793,0.743-1.589,1.126-2.382
						c0.592-1.229,1.202-2.453,1.825-3.649c0.062-0.122,0.125-0.243,0.189-0.364c0.111-0.21,0.223-0.421,0.334-0.629
						c0.069-0.128,0.139-0.255,0.208-0.382c0.015-0.028,0.031-0.057,0.046-0.085c0.029-0.05,0.056-0.101,0.084-0.151
						c3.258-5.943,6.928-10.913,8.099-18.2c0.113-0.704,0.22-1.403,0.322-2.097c0.17-1.157,0.326-2.299,0.469-3.418
						c0.053-0.424,0.106-0.842,0.156-1.258c0.587-4.862,0.937-9.194,1.22-12.212c0.881-9.401-4.877-19.58-9.298-25.868
						c-2.364-3.363-4.345-5.613-4.726-6.04c-0.01-0.008-0.016-0.016-0.023-0.023c-0.079,0.03-0.158,0.06-0.238,0.091
						c-0.098,0.037-0.195,0.074-0.295,0.111c-0.181,0.069-0.364,0.14-0.55,0.212c-0.372,0.145-0.755,0.295-1.143,0.448
						c-0.133,0.053-0.269,0.106-0.406,0.16c-4.281,1.678-14.371,4.663-15.505,5.477c-0.655,0.469-1.045,4.254-2.736,9.673
						c-3.484,11.16-5.551,27.986-5.652,32.188c-0.001,0.067-0.003,0.13-0.003,0.19C57.59,422.382,58.507,424.324,59.971,427.118z
						 M77.096,425.018c0,2.097-0.682,4.498-1.73,7.057c-0.027,0.064-0.053,0.129-0.08,0.193c-0.723-1.541-1.403-3.018-2.013-4.385
						c-0.001-0.003-0.003-0.004-0.003-0.007c-1.677-3.754-2.829-6.682-2.893-7.841c-0.414-7.444,5.069-16.012,5.069-16.012
						c0,0.004,0.001,0.008,0.003,0.012c0.001,0.003,0.003,0.007,0.003,0.011c0.004,0.014,0.008,0.027,0.011,0.041
						c0.008,0.027,0.016,0.054,0.023,0.083c0.005,0.016,0.01,0.034,0.014,0.051c0.004,0.014,0.008,0.026,0.011,0.04
						C76.633,408.685,77.096,425.018,77.096,425.018z"/>
				</g>
				<g>
					<path fill="#3C4145" d="M160.935,409.48l-25.519,5.557l-12.165-31.812c-0.269-0.213-3.756-2.09-6.065-3.189
						c-2.404-1.145-5.446-2.557-8.145-3.803c-1.289-0.596-2.503-1.153-3.528-1.624l-0.084,0.067c0,0,1.506,5.016,3.455,17.535
						c0,0.001,0,0.003,0.001,0.004c0.067,0.421,0.132,0.849,0.198,1.286c0.007,0.05,0.015,0.102,0.023,0.152
						c0.043,0.289,0.088,0.583,0.132,0.88c0.005,0.035,0.011,0.071,0.016,0.105c0.03,0.2,0.06,0.4,0.088,0.604
						c0.073,0.494,0.147,0.998,0.22,1.512c0.869,6.094,2.089,16.465,3.261,26.934v0.004c0.926,8.252,3.037,16.72,3.708,23.039
						c0,0.004,0.001,0.008,0.001,0.013c0.133,1.238,0.45,2.889,0.877,4.751c0.047,0.21,0.098,0.424,0.148,0.64
						c1.888,7.976,5.553,19.267,5.553,19.267l1.068-0.986l3.162-2.919c0.728-0.671,1.004-1.7,0.71-2.644
						c-1.753-5.657-7.713-25.675-8.805-39.751c-0.001-0.004-0.001-0.008-0.001-0.012c-0.342-4.422,0.951-8.588,1.7-12.537
						c0.014,0.034,0.026,0.068,0.038,0.103c0.627,1.745,1.323,3.643,2.024,5.49v0.001c1.881,4.96,3.806,9.556,4.607,9.849
						c1.783,0.656,35.385-8.531,35.617-9.85L160.935,409.48z"/>
				</g>
				<g>
					<path fill="#51565C" d="M87.09,387.067l5.208,2.937l-2.225,2.269l5.925,31.989c1.208-7.498,1.758-14.619,2.167-18.986
						c1.362-14.533-13.144-30.928-14.046-31.932c-0.697,0.264-1.449,0.556-2.227,0.864L87.09,387.067z"/>
				</g>
				<g>
					<path fill="#51565C" d="M105.349,374.535c0,0,1.946,6.355,4.214,22.218c0.869,6.094,2.089,16.466,3.262,26.934l1.212-29.959
						l-2.481-2.688l2.205-2.757l-4.72-12.05c-1.289-0.596-2.502-1.154-3.529-1.625L105.349,374.535z"/>
				</g>
				<g>
					<path fill="#F5E2D9" d="M83.857,373.409l4.318-2.623c0,0,0.121,2.368,10.815,8.554l-3.037,8.554L83.857,373.409z"/>
				</g>
				<g>
					<path fill="#F5E2D9" d="M101.834,371.979c0,0-0.168,2.556-2.845,7.361l5.927,7.727l0.432-12.531L101.834,371.979z"/>
				</g>
				<g>
					<path fill="#323657" d="M98.974,379.34c0,0-1.149,4.595-0.735,5.881c0,0,2.526,0.919,4.341-0.23
						C102.58,384.991,101.294,381.775,98.974,379.34z"/>
				</g>
				<g>
					<g>
						<path fill="#AD9F99" d="M104.911,445.605c0.643-3.242,0.031-12.956,0.005-13.368l-0.55,0.035
							c0.006,0.1,0.634,10.054,0.005,13.225L104.911,445.605z"/>
					</g>
				</g>
				<g>
					<path fill="#69737A" d="M100.414,444.11c0,0,5.184,0.619,6.898,1.046l-0.225,5.811l-6.788-0.724L100.414,444.11z"/>
				</g>
				<g>
					<path fill="#323657" d="M101.549,384.578c0,0,5.781,14.601,4.838,30.943c-0.978,16.944-2.581,23.088-2.581,23.088l-3.565,4.471
						l-1.572-5.495c0,0,4.784-21.602,1.696-42.623c-0.56-3.809-1.391-11.027-1.391-11.027L101.549,384.578z"/>
				</g>
				<g>
					<path fill="#EEA886" d="M84.175,453.53c0,0,1.241,2.481,2.481,2.895c1.241,0.414,3.05,2.429,3.05,2.429l-8.735,4.601
						c0,0-2.326-4.549-2.429-7.444C78.438,453.116,84.175,453.53,84.175,453.53z"/>
				</g>
				<g>
					<path fill="#DECBC4" d="M85.005,453.762l0.579,1.163c0,0-5.548,4.057-7.043,4.316l-0.513-1.551L85.005,453.762z"/>
				</g>
				<g>
					<path fill="#3C4145" d="M85.583,453.813c0,0-4.158,3.438-7.66,5.023l-11.784-21.195l6.106-11.804
						C72.245,425.838,85.308,451.746,85.583,453.813z"/>
				</g>
				<g>
					<path fill="#2D3133" d="M120.984,412.655c0.627,1.745,1.323,3.643,2.024,5.49c0.163-2.14,0.205-4.135,0.158-5.983
						c-0.281-10.994-3.739-16.759-3.739-16.759c0.793,1.916,1.173,6.027,1.355,9.743c0.193,3.921,0.164,7.403,0.164,7.403
						s0,0.001,0,0.003L120.984,412.655z"/>
				</g>
				<g>
					<path fill="#2D3133" d="M67.981,446.528l9.434,11.393l-8.081-13.968C68.869,444.82,68.416,445.679,67.981,446.528z"/>
				</g>
				<g>
					<path fill="#D9C9C2" d="M136.488,432.244h21.78c1.493,0,2.792-1.022,3.143-2.473l9.46-39.06
						c0.493-2.035-1.049-3.995-3.143-3.995h-21.78c-1.493,0-2.792,1.022-3.143,2.473l-9.46,39.06
						C132.852,430.284,134.394,432.244,136.488,432.244z"/>
				</g>
				<g>
					<g>
						<path fill="#EEA886" d="M163.128,421.385c-1.066-0.986-3.121-1.559-4.882-2.735s-0.29-2.388-0.29-2.388
							c-1.809-0.621-1.614-1.447-1.382-2.009c0.313-0.76,2.288-0.545,2.288-0.545s-1.771-0.392-2.5-0.714
							c-0.729-0.323-0.481-1.593,0.639-1.994c1.121-0.402,5.688,0.724,5.688,0.724s-0.745-0.365-2.997-1.495
							c-2.252-1.13-2.747-2.159-1.419-2.653c0.923-0.343,2.738,0.376,6.22,2.716c2.622,1.762,2.409,1.991,2.409,1.991
							S164.4,422.563,163.128,421.385z"/>
					</g>
				</g>
			</g>
		</g>
	</g>
</g>
<g id="DESIGNED_BY_FREEPIK">
</g>
</svg>
