<?xml version="1.0" encoding="utf-8"?>
<!-- Generator: Adobe Illustrator 17.0.0, SVG Export Plug-In . SVG Version: 6.00 Build 0)  -->
<!DOCTYPE svg PUBLIC "-//W3C//DTD SVG 1.1//EN" "http://www.w3.org/Graphics/SVG/1.1/DTD/svg11.dtd">
<svg version="1.1" id="Layer_1" xmlns="http://www.w3.org/2000/svg" xmlns:xlink="http://www.w3.org/1999/xlink" x="0px" y="0px"
	 width="144px" height="144px" viewBox="0 0 144 144" enable-background="new 0 0 144 144" xml:space="preserve">
<g>
	<g>
		<g>
			<g>
				<defs>
					<path id="SVGID_1_" d="M-28.516,111.245l-28.11-4.942c-3.141-0.552-19.629-1.288-19.076-4.429l-1.044-16.287
						c-0.704-10.976,4.706-21.439,14.057-27.231c2.783-1.724,5.564-3.342,7.96-4.615c3.649-1.94,8.129-1.324,11.118,1.53
						l21.352,20.387c3.141,0.552,5.259,3.574,4.707,6.715l-4.248,24.165C-22.353,109.679-25.375,111.797-28.516,111.245z"/>
				</defs>
				<clipPath id="SVGID_2_">
					<use xlink:href="#SVGID_1_"  overflow="visible"/>
				</clipPath>
				<g opacity="0.1" clip-path="url(#SVGID_2_)">
					<path fill="#606060" d="M-36.787,85.327c0,0-2.053,7.146-7.375,10.39c0,0,29.56,22.169,33.739,24.113
						c4.179,1.944,13.422-17.585,12.289-18.906C0.733,99.603-36.787,85.327-36.787,85.327z"/>
				</g>
			</g>
		</g>
		<g>
			<g>
				<defs>
					<path id="SVGID_3_" d="M-27.384,114.075l-28.11-4.942c-3.141-0.552-19.629-1.288-19.076-4.429l-1.044-16.287
						c-0.704-10.976,4.706-21.439,14.057-27.231c2.783-1.724,5.564-3.342,7.96-4.615c3.649-1.94,8.129-1.324,11.118,1.53
						l21.352,20.387c3.141,0.552,5.259,3.574,4.707,6.715l-4.248,24.165C-21.222,112.509-24.243,114.627-27.384,114.075z"/>
				</defs>
				<clipPath id="SVGID_4_">
					<use xlink:href="#SVGID_3_"  overflow="visible"/>
				</clipPath>
				<g clip-path="url(#SVGID_4_)">
					<path fill="#525B9B" d="M-35.656,88.156c0,0-2.053,7.146-7.375,10.39c0,0,29.56,22.169,33.739,24.113
						c4.179,1.944,13.422-17.585,12.289-18.906C1.865,102.432-35.656,88.156-35.656,88.156z"/>
				</g>
			</g>
		</g>
	</g>
</g>
<g>
	<g>
		<path fill="#8AA9EF" d="M19.821,38.272c-0.59-0.223-1.231-0.307-1.858-0.243c-0.553,0.524-1.586,0.672-2.346,0.723
			c-0.782-0.761-1.725-1.468-2.697-1.962c-0.65-0.33-1.409-0.678-1.609-1.379c-0.32-1.119-2.236-1.57-3.371-1.313
			c-1.44-0.389-3.084,0.112-4.24,1.055c-0.511,0.416,0.064,1.449,0.504,1.938c0.441,0.49,0.988,1.036,0.885,1.687
			c-0.533,0.272-1.256,0.287-1.854,0.26c-0.352-0.016-0.713-0.084-1.049,0.02c-0.336,0.104-0.629,0.469-0.499,0.796
			c-0.231,0.402-0.509,0.613-0.241,0.991c0.209,0.295,0.564,0.538,0.561,0.899c-0.002,0.287-0.244,0.519-0.501,0.648
			c-0.257,0.129-0.545,0.194-0.788,0.348c-0.759,0.482-0.766,1.568-0.685,2.463c0.491,0.602,0.568,1.64,0.331,2.38
			c-0.09,0.282-0.235,0.582-0.134,0.86c0.116,0.319,0.491,0.444,0.819,0.529c0.702,0.181,1.527,0.338,2.085-0.124
			c1.471-1.218,3.756-0.587,5.619-0.168c0.644,0.145,1.321,0.382,1.697,0.924c0.501,0.722,0.287,1.725-0.125,2.502
			c-0.413,0.776-1.005,1.466-1.266,2.306c-0.245,0.787-0.177,1.633-0.106,2.454c0.087,1.011,0.193,2.076,0.779,2.904
			c0.614,0.869,1.002,2.165,0.953,3.228c-0.039,0.853-0.34,1.692-0.262,2.542c0.142,1.542,1.474,2.699,2.833,3.441
			c1.422,0.777,2.648,2.099,3.139,3.644c0.246,0.776,0.32,1.596,0.536,2.38c0.375,1.358,1.191,2.591,2.294,3.468
			c0.804,0.639,2.123,0.866,3.133,1.049c0.524,0.095,1.089,0.171,1.484,0.528c0.182,0.165,0.314,0.379,0.488,0.551
			c0.844,0.835,2.398,0.492,3.252,1.317c0.22,0.213,0.371,0.486,0.565,0.723c0.521,0.639,1.368,0.996,2.189,0.922
			c-0.192,0.627,0.56,1.364,0.328,1.977c-0.187,0.494-0.752,0.711-1.14,1.069c-0.674,0.622-0.778,1.685-0.488,2.554
			c0.29,0.869,0.904,1.588,1.518,2.269c1.14,1.264,2.51,1.877,3.745,3.046c1.145,1.084,1.406,2.837,1.154,4.393
			c-0.252,1.556-0.933,3.004-1.421,4.503c-0.91,2.801-1.13,5.879-0.26,8.692c0.87,2.813,2.906,5.321,5.635,6.428
			c0.302,0.122,0.672-0.089,0.893-0.328s0.269-0.621,0.114-0.907c-0.493-0.906-1.369-1.68-2.008-2.49
			c-0.201-0.255-0.413-0.543-0.387-0.867c0.029-0.363,0.342-0.625,0.572-0.907c0.349-0.428,0.538-0.983,0.523-1.535
			c-0.014-0.519-0.316-1.026-0.299-1.545c0.018-0.519,0.298-1.065,0.789-1.232c0.224-0.076,0.472-0.069,0.688-0.165
			c0.711-0.313,0.598-1.398,1.112-1.98c0.239-0.27,0.59-0.405,0.915-0.561c1.375-0.661,2.505-1.971,2.631-3.491
			c0.1-1.216-0.342-2.693,0.582-3.489c0.848-0.731,2.154-0.246,3.26-0.425c0.45-0.073,0.75-0.492,0.961-0.896
			c0.211-0.404,0.235-0.884,0.159-1.334c-0.093-0.553-0.33-1.093-0.278-1.652c0.074-0.786,0.688-1.391,1.164-2.02
			c0.562-0.744,0.965-1.607,1.174-2.516c0.239-1.038-0.425-2.264-1.356-2.781c-0.931-0.518-2.047-0.532-3.112-0.563
			c-1.065-0.03-2.193-0.111-3.063-0.726c-0.797-0.563-1.247-1.484-1.877-2.229c-1.063-1.257-2.608-1.983-4.103-2.672
			c-0.564-0.26-1.197-0.525-1.788-0.331c-0.233,0.076-0.442,0.221-0.683,0.267c-0.66,0.126-1.194-0.497-1.785-0.817
			c-1.227-0.663-2.99,0.297-3.099,1.687c-0.635,0.219-1.811,0.03-2.171-0.536c-0.259-0.408-0.363-0.978-0.809-1.164
			c-0.238-0.099-0.536-0.062-0.73-0.232c-0.321-0.283-0.071-0.795-0.014-1.219c0.092-0.677-0.414-1.321-1.03-1.615
			c-0.616-0.294-1.322-0.318-2.005-0.34c-0.683-0.022-1.39-0.053-2-0.359c-1.189-0.596-1.676-2.209-1.155-3.433
			c0.522-1.223,1.887-1.978,3.216-1.94c1.303,0.038,2.678,0.99,2.693,2.293c0.004,0.33,0.533,0.368,0.82,0.204
			s0.437-0.494,0.507-0.817c0.07-0.323,0.08-0.659,0.179-0.974c0.229-0.73,0.968-1.267,1.733-1.258
			c0.798,0.009,1.358-0.787,1.925-1.349c0.566-0.562,0.905-1.41,0.682-2.177c-0.121-0.413-0.396-0.83-0.258-1.238
			c0.108-0.319,0.436-0.505,0.747-0.635c0.861-0.361,1.802-0.53,2.735-0.49c0.813,0.034,1.231-0.476,1.645-1.176
			c0.3-0.506,0.433-1.145,0.91-1.488c0.715-0.513,1.702-0.06,2.58-0.119c1.281-0.086,2.282-1.524,1.918-2.756
			c-0.173-0.586-0.583-1.066-0.916-1.578c-0.459-0.705-0.783-1.498-0.95-2.323c-0.153-0.758-0.197-1.592-0.697-2.182
			c-0.781,0.037-1.727,0.014-2.422,0.373c-0.137-0.795-0.289-1.625-0.78-2.265c-0.491-0.64-1.435-1.012-2.13-0.601
			c-0.679,0.401-0.826,1.333-0.701,2.111c0.126,0.779,0.448,1.532,0.427,2.32s-0.569,1.66-1.357,1.638
			c-0.411-0.011-0.778-0.262-1.067-0.554c-0.414-0.418-0.741-0.953-1.273-1.204c-0.408-0.192-0.877-0.188-1.317-0.287
			c-1.499-0.336-2.528-2.057-2.114-3.537s2.186-2.417,3.642-1.926c1.764-0.647,2.482-2.871,1.778-4.613
			c-0.704-1.742-2.595-2.823-4.472-2.906c-0.549-0.024-1.109,0.024-1.642-0.111c-1.506-0.381-2.295-2.037-3.605-2.871
			C22.77,38.108,20.777,38.634,19.821,38.272z"/>
		<path fill="#8AA9EF" d="M43.565,32.89c-0.58,0.884,0.069,2.09,0.913,2.727c0.844,0.637,1.899,1.019,2.567,1.84
			c1.072,1.318,0.767,3.268,0.18,4.863c-0.587,1.595-1.415,3.207-1.214,4.895c0.095,0.796,0.419,1.551,0.843,2.231
			c0.41,0.659,0.969,1.293,1.724,1.475c0.959,0.231,1.931-0.333,2.658-1c0.727-0.667,1.359-1.474,2.245-1.908
			c1.276-0.625,2.917-0.392,4.028-1.278c1.376-1.096,1.172-3.187,1.55-4.905c0.635-2.884,3.131-5.015,4.107-7.802
			c0.191-0.545,0.322-1.119,0.309-1.696c-0.043-1.866-1.614-3.418-3.375-4.039c-2.173-0.767-4.369-0.286-6.599-0.387
			c-1.213-0.055-2.552-0.568-3.726-0.076c-1.81,0.759-1.279,2.545-2.465,3.604C46.283,32.35,44.389,31.631,43.565,32.89z"/>
		<path fill="#8AA9EF" d="M92.466,44.2c-1.037-1.009-2.731-0.033-3.807,0.934c-1.07,0.961-2.141,1.921-3.211,2.882
			c-0.804,0.722-1.67,1.474-2.735,1.653c-1.066,0.179-2.348-0.497-2.391-1.577c0.729-0.686,2.182,0.334,2.848-0.414
			c0.59-0.663-0.283-1.613-1.052-2.057c-1.406-0.812-2.859-1.641-4.468-1.86c-1.609-0.219-3.433,0.319-4.269,1.711
			c-0.715,1.192-0.584,2.747-1.292,3.942c-0.443,0.749-1.174,1.283-1.677,1.993c-0.503,0.71-0.719,1.781-0.102,2.395
			c0.498,0.496,1.344,0.496,1.836,0.997c0.379,0.385,0.508,1.029,1.005,1.242c0.568,0.243,1.21-0.305,1.347-0.907
			c0.136-0.603-0.055-1.224-0.154-1.834c-0.295-1.824,0.62-4.066,2.449-4.326c0.416,0.016,0.554,0.611,0.368,0.983
			c-0.187,0.372-0.55,0.631-0.747,0.998c-0.371,0.692,0.06,1.679,0.82,1.878c0.792,0.207,2.116,0.041,2.011,0.853
			c-0.111,0.863-1.706,0.297-2.223,0.997c-0.305,0.413-0.035,0.988-0.043,1.501c-0.014,1.003-1.121,1.656-2.121,1.727
			c-1,0.071-2.002-0.225-3-0.134c-0.999,0.091-2.086,0.798-2.04,1.8c-1.383,0.648-2.822,1.174-4.296,1.571
			c0.063,1.085,2.11,1.187,2.102,2.274c-0.005,0.652-0.813,0.992-1.463,0.944c-0.651-0.048-1.307-0.307-1.938-0.14
			c-1.09,0.288-1.472,1.82-0.868,2.772c0.603,0.952,1.844,1.33,2.968,1.241c0.45-0.036,0.933-0.155,1.214-0.508
			c0.269-0.337,0.291-0.801,0.404-1.217c0.253-0.932,1.048-1.695,1.99-1.91c0.531-0.121,1.181-0.131,1.467-0.595
			c1.215,0.657,2.069,1.939,2.209,3.313c0.391,0.504,1.261-0.146,1.176-0.778c-0.085-0.632-0.644-1.072-1.087-1.53
			c-0.444-0.458-0.814-1.171-0.466-1.706c2.076,0.61,3.754,2.414,4.213,4.529c0.724-0.144,1.123-1.124,0.707-1.733
			c0.225-0.505,1.049-0.216,1.286,0.283s0.216,1.115,0.555,1.552c0.98,1.263,3.604-0.278,4.407,1.105
			c0.563,0.969-0.705,2.099-1.826,2.065c-1.12-0.035-2.143-0.675-3.258-0.786c-1.231-0.123-2.427,0.407-3.655,0.55
			c-1.229,0.143-2.743-0.337-3.002-1.546c-0.07-0.326-0.042-0.684-0.214-0.969c-0.245-0.405-0.797-0.499-1.268-0.446
			c-2.044,0.232-4.118,2.341-5.806,1.166c-1.079,2.101-3.718,2.891-5.191,4.738c-1.602,2.01-1.468,5.114,0.088,7.16
			c1.556,2.046,4.305,3.012,6.855,2.69c0.584-0.074,1.199-0.205,1.743,0.02c0.539,0.223,0.883,0.744,1.333,1.115
			c0.45,0.371,1.195,0.556,1.568,0.108c-0.427,1.057-0.308,2.318,0.308,3.278c0.665,1.035,1.905,1.854,1.88,3.085
			c-0.013,0.637-0.384,1.206-0.557,1.819c-0.794,2.809,2.526,5.101,3.05,7.973c0.141,0.773,0.141,1.704,0.794,2.141
			c0.3,0.201,0.677,0.241,1.038,0.265c1.851,0.121,4.182-0.429,4.567-2.244c0.109-0.513,0.031-1.045,0.047-1.569
			c0.047-1.568,1.006-3.076,2.406-3.783c0.38-0.192,0.798-0.335,1.101-0.634c0.668-0.657,0.52-1.772,0.177-2.644
			c-0.343-0.872-0.842-1.752-0.722-2.682c0.193-1.493,1.795-2.281,3.009-3.17c1.828-1.339,3.082-3.435,3.399-5.679
			c-1.685,0.529-3.749,0.981-5.033-0.232c-0.445-0.42-0.719-0.986-0.984-1.539c-0.794-1.658-1.587-3.316-2.381-4.975
			c-0.105-0.219-0.211-0.469-0.126-0.696c0.232-0.616,1.157-0.102,1.513,0.451c1.273,1.974,2.415,4.032,3.418,6.155
			c2.05-0.372,4.011-1.225,5.681-2.47c0.533-0.397,1.062-0.873,1.243-1.513c0.18-0.64-0.151-1.461-0.806-1.575
			c-0.253-0.044-0.511,0.02-0.767,0.047c-1.546,0.162-2.888-1.016-3.899-2.196c0.693-0.776,1.951-0.326,2.896,0.108
			c1.693,0.778,3.487,1.335,5.323,1.653c0.458,0.079,0.927,0.147,1.34,0.36c0.289,0.149,0.538,0.364,0.777,0.585
			c2.118,1.951,3.685,4.495,4.475,7.264c0.809,0.181,1.377-0.815,1.441-1.641c0.064-0.826-0.033-1.779,0.562-2.356
			c0.467-0.453,1.236-0.516,1.646-1.021c0.517-0.637,0.247-1.711,0.85-2.266c0.757-0.696,1.98,0.155,2.384,1.101
			c0.404,0.945,0.551,2.108,1.401,2.686c0.458-0.066,0.917-0.132,1.375-0.198c0.007,2.32,0.813,4.63,2.25,6.452
			c0.785-0.411,0.429-1.604-0.061-2.342c-0.49-0.738-0.971-1.839-0.275-2.386c0.966,0.009,1.417,1.342,2.356,1.57
			c0.934,0.227,1.768-0.884,1.6-1.831c-0.168-0.946-0.982-1.642-1.822-2.109c-0.753-0.825,0.334-2.143,1.436-2.329
			s2.306,0.127,3.304-0.374c1.196-0.601,1.596-2.179,1.324-3.49c-0.272-1.311-1.049-2.449-1.685-3.627
			c-0.542-1.006-0.81-2.577,0.244-3.019c0.282-0.118,0.598-0.113,0.904-0.126c3.988-0.169,7.287-4.391,6.487-8.301
			c-0.151-0.737-0.436-1.469-0.962-2.006c-0.948-0.968-2.557-1.195-3.265-2.35c-0.866-1.413,0.205-3.286,1.592-4.194
			c1.387-0.907,3.081-1.301,4.376-2.335c0.345-0.009,0.53-0.347,0.593-0.687c0.04-0.213-0.013-0.432-0.015-0.649
			c-0.005-0.595,0.42-1.168,0.991-1.336c0.571-0.168,1.238,0.083,1.557,0.586c0.393,0.62,0.234,1.438-0.051,2.115
			c-0.285,0.676-0.688,1.324-0.762,2.054c-0.074,0.73,0.34,1.588,1.069,1.67c0.892,0.1,1.468-0.958,1.526-1.853
			c0.058-0.895-0.116-1.873,0.365-2.63c0.731-1.151,2.752-1.421,2.804-2.784c0.042-1.103-1.345-1.75-1.594-2.825
			c-0.1-0.434-0.001-0.885,0.04-1.328c0.153-1.654-0.575-3.364-1.874-4.4c-1.299-1.036-3.128-1.366-4.707-0.85
			c-0.514,0.168-1.001,0.419-1.524,0.557c-0.773,0.203-1.587,0.15-2.384,0.096c-1.426-0.097-2.853-0.195-4.279-0.292
			c-1.276-0.087-2.629-0.16-3.761,0.436c-1.655,0.87-2.593,3.038-4.449,3.262c-1.309,0.159-2.475-0.746-3.701-1.231
			c-1.982-0.785-4.375-0.415-6.029,0.93c-0.622-0.317-0.43-1.243-0.649-1.905c-0.229-0.691-0.972-1.109-1.697-1.172
			c-0.725-0.063-1.443,0.158-2.135,0.384c-1.491,0.487-3.225,1.318-3.363,2.88c-0.039,0.44,0.06,0.908-0.125,1.309
			c-0.264,0.571-0.977,0.761-1.421,1.206c-0.53,0.531-0.613,1.35-0.635,2.1c-0.022,0.75-0.029,1.554-0.462,2.166
			C95.284,44.415,93.004,44.723,92.466,44.2z"/>
		<path fill="#8AA9EF" d="M120.371,87.358c0.344,0.5,0.912,0.793,1.471,1.03c0.675,0.287,1.496,0.509,2.105,0.1
			c0.416-0.28,1.802-2.198,1.898-2.614c0.186-0.802-0.082-0.756-0.882-0.918C123.668,84.693,118.886,85.199,120.371,87.358z"/>
		<path fill="#8AA9EF" d="M115.658,87.088c1.857,3.38,5.661,5.595,9.517,5.542c0.267-0.273-0.127-0.69-0.479-0.839
			c-0.973-0.411-2.02-0.616-3.018-0.966c-0.997-0.349-1.983-0.878-2.575-1.754c-0.247-0.366-0.415-0.778-0.619-1.17
			c-0.585-1.128-2.873-3.97-4.304-3.289C114.553,85.396,115.203,86.26,115.658,87.088z"/>
		<path fill="#8AA9EF" d="M125.738,94.96c-0.495,0.554-0.958,1.231-1.68,1.403c-0.427,0.102-0.883,0.005-1.311,0.104
			c-1.258,0.291-1.55,1.982-1.264,3.241c0.286,1.259,0.876,2.58,0.406,3.783c-0.095,0.242-0.232,0.479-0.228,0.738
			c0.005,0.312,0.219,0.585,0.468,0.772c1.149,0.861,2.779,0.243,4.042-0.441c1.262-0.684,2.792-1.423,4.053-0.735
			c1.349,0.736,1.476,2.601,2.307,3.894c0.731,1.136,2.342,1.817,3.482,1.092c0.387-0.246,0.674-0.618,0.953-0.983
			c0.571-0.746,1.142-1.492,1.713-2.239c0.755-0.987,1.538-2.04,1.684-3.274c0.281-2.384-1.832-4.299-3.738-5.758
			c-0.101-0.76-0.21-1.543-0.598-2.205c-0.777-1.326-2.365-1.467-1.932,0.411c-1.243,0.043-2.249-1.803-3.632-1.981
			C128.778,92.567,126.81,93.76,125.738,94.96z"/>
	</g>
	<g>
		<path fill="#27234C" d="M39.596,87.379c0,0-0.073,1.255-0.173,1.389c-0.1,0.133-0.434,0.1-0.534-0.067
			c-0.1-0.167,0.267-1.267,0.267-1.267L39.596,87.379z"/>
		<path fill="#EAC1CE" d="M41.809,76.166l0.394,2.485l-0.303,4.97l-0.275,3.725c-0.02,0.162,0.055,0.257-0.105,0.288l0,0
			c-0.24,0.046-0.46-0.145-0.447-0.389l0.115-3.932l0.133-3.602l-0.872,0.066l-0.398,4.268l-0.503,3.369L39.172,87.5l0.091-3.667
			l0.394-4.909l0.221-1.61l0.832-0.178L41.809,76.166z"/>
		<path fill="#27234C" d="M41.621,87.348l0.889,0.475l-0.063,0.105c-0.248,0.046-0.349,0.032-0.58-0.07l-0.78-0.344l-0.015-0.27
			L41.621,87.348z"/>
		<path fill="#27234C" d="M40.536,76.348l-1.152,1.758l-0.621,4.57c0,0,1.974,0.645,2.847,0.152
			c0.873-0.493,0.835-0.721,0.835-0.721l-0.182-3.94l-0.97-2.667c-0.019-0.341-0.15-0.842-0.485-0.909l-0.121-0.394l-0.879,0.242
			h0.091c-0.258,0.18-0.08,0.057-0.152,0.364L40.536,76.348z"/>
		<polygon fill="#EAC1CE" points="39.944,73.737 41.395,73.604 40.961,75.063 		"/>
		<circle fill="#27234C" cx="40.614" cy="71.698" r="1.291"/>
		<circle fill="#27234C" cx="39.829" cy="70.785" r="0.735"/>
		<path fill="#FDFEFE" d="M41.571,73.588c0,0,2.244,2.102,2.274,2.011s1.061-1.909,1.061-1.909l0.303,0.182l-1.005,2.406
			c-0.08,0.192-0.304,0.28-0.493,0.194l-2.205-0.912L41.571,73.588z"/>
		<path fill="#EAC1CE" d="M40.758,70.643c0.603,0,1.097,0.492,1.097,1.095l0.001,0.692c0,0.603-0.492,1.097-1.095,1.097
			c-0.603,0-1.097-0.492-1.097-1.095l-0.001-0.692C39.662,71.137,40.155,70.644,40.758,70.643z"/>
		<path fill="#27234C" d="M40.758,70.643c-0.603,0-1.096,0.494-1.095,1.097l0,0.567c0.344-0.15,0.586-0.492,0.585-0.892
			c0-0.089-0.016-0.174-0.039-0.256c0.158,0.111,0.35,0.178,0.558,0.178c0.31,0,0.584-0.149,0.761-0.376
			C41.331,70.765,41.058,70.643,40.758,70.643z"/>
		<path fill="#FDFEFE" d="M42.021,76.226l0.328-0.483c0.153-0.225,0.17-0.516,0.044-0.757l-0.19-0.366
			c-0.286-0.383-0.296-0.965-0.632-1.032l-2.202,0.2L39.3,73.836c-0.171,0.119-0.28,0.862-0.037,1.602
			c0.125,0.379,0.667,1.03,0.667,1.03l-0.588,1.669c0.103,0.134,0.3,0.284,0.679,0.301c0.591,0.026,1.896-0.036,2.318-0.295
			L42.021,76.226z"/>
		<path fill="#FDFEFE" d="M39.3,73.836"/>
		<polygon fill="#FDFEFE" points="39.3,73.836 37.627,76.529 38.233,79.378 38.687,79.439 38.596,76.59 39.99,74.742 		"/>
		<polygon fill="#E48F9B" points="37.475,79.196 39.718,79.984 39.324,82.136 37.02,81.257 		"/>
		<circle fill="#EAC1CE" cx="38.414" cy="79.651" r="0.384"/>
		<g>
			
				<rect x="44.115" y="73.196" transform="matrix(0.7697 0.6384 -0.6384 0.7697 57.1295 -11.8786)" fill="#27234C" width="1.827" height="0.091"/>
		</g>
		<circle fill="#EAC1CE" cx="45.142" cy="73.575" r="0.384"/>
	</g>
	<g>
		<path fill="#27234C" d="M125.91,42.346c0,0,0.071,1.223,0.169,1.353c0.097,0.13,0.422,0.097,0.52-0.065
			c0.097-0.162-0.26-1.234-0.26-1.234L125.91,42.346z"/>
		<path fill="#27234C" d="M123.756,31.425l-0.465,1.961l0.146,5.185l0.498,3.743c0.02,0.157-0.054,0.251,0.102,0.281h0
			c0.234,0.045,0.448-0.141,0.436-0.379l0.001-3.547l0.016-3.776l0.437,0.032l0.34,4.181l0.69,3.275l0.366,0.083l-0.089-3.572
			l-0.044-5.49l-0.555-0.86l-0.81-0.174L123.756,31.425z"/>
		<path fill="#27234C" d="M123.938,42.317l-0.866,0.463l0.062,0.103c0.241,0.045,0.34,0.031,0.565-0.068l0.759-0.335l0.015-0.263
			L123.938,42.317z"/>
		<polygon fill="#EAC1CE" points="125.571,29.059 124.158,28.93 124.581,30.351 		"/>
		<circle fill="#27234C" cx="124.919" cy="27.073" r="1.257"/>
		<circle fill="#27234C" cx="125.683" cy="26.184" r="0.715"/>
		<path fill="#FDFEFE" d="M123.987,28.914c0,0-2.185,2.047-2.215,1.959c-0.03-0.089-1.033-1.86-1.033-1.86l-0.295,0.177l0.979,2.344
			c0.078,0.187,0.296,0.273,0.481,0.189l2.147-0.888L123.987,28.914z"/>
		<path fill="#EAC1CE" d="M124.779,26.046c-0.587,0-1.068,0.48-1.069,1.067l-0.001,0.674c0,0.587,0.48,1.068,1.067,1.069
			c0.587,0,1.068-0.48,1.069-1.067l0.001-0.674C125.846,26.527,125.366,26.046,124.779,26.046z"/>
		<path fill="#27234C" d="M124.779,26.046c0.587,0,1.067,0.481,1.067,1.069l0,0.552c-0.335-0.146-0.57-0.479-0.57-0.868
			c0-0.087,0.016-0.169,0.038-0.249c-0.154,0.109-0.341,0.173-0.544,0.173c-0.302,0-0.568-0.145-0.742-0.366
			C124.221,26.165,124.486,26.046,124.779,26.046z"/>
		<path fill="#FDFEFE" d="M123.549,31.484l-0.319-0.471c-0.149-0.219-0.165-0.502-0.043-0.737l0.185-0.356
			c0.279-0.373,0.289-0.94,0.615-1.006l2.145,0.195l0.067,0.047c0.166,0.116,0.273,0.84,0.036,1.561
			c-0.122,0.37-0.649,1.004-0.649,1.004l0.572,1.626c-0.101,0.131-0.292,0.277-0.661,0.293c-0.575,0.025-1.846-0.036-2.258-0.288
			L123.549,31.484z"/>
		<path fill="#FDFEFE" d="M126.199,29.156"/>
		<polygon fill="#FDFEFE" points="126.199,29.156 127.829,31.779 127.239,34.554 126.796,34.613 126.884,31.838 125.527,30.038 		
			"/>
		<polygon fill="#E48F9B" points="127.976,34.377 125.792,35.144 126.176,37.24 128.419,36.384 		"/>
		<circle fill="#EAC1CE" cx="127.061" cy="34.82" r="0.374"/>
		<g>
			
				<rect x="119.73" y="28.533" transform="matrix(-0.7697 0.6384 -0.6384 -0.7697 231.7032 -26.4334)" fill="#27234C" width="1.78" height="0.088"/>
		</g>
		<circle fill="#EAC1CE" cx="120.509" cy="28.901" r="0.374"/>
	</g>
	<g>
		<g>
			<path fill="#27234C" d="M98.035,44.669l-0.5,4.217l1.117-0.047c0,0,0.698-0.884,0.698-1.024c0-0.14,0.705-0.552,0.306-1.044
				C99.257,46.28,98.035,44.669,98.035,44.669z"/>
			<path fill="#27234C" d="M99.104,43.775l-0.973,0.217c-0.205,0.103-0.343,0.304-0.366,0.532l-0.79,5.571l0.558,0.047l0.804-4.486
				L99.104,43.775z"/>
			<path fill="#27234C" d="M98.338,45.657l-0.247,2.225l0.19,4.156l0.426,3.411c0.017,0.138,0.121,0.249,0.258,0.275l0,0
				c0.205,0.04,0.392-0.123,0.382-0.332l-0.098-3.353l-0.114-3.072l0.744,0.056l0.337,3.328l0.432,4.581
				c0.036,0.206,0.206,0.362,0.414,0.381l0,0c0.293,0.027,0.537-0.224,0.502-0.516l-0.38-4.588l-0.236-4.085l-0.581-1.201
				l-0.709-0.152L98.338,45.657z"/>
			<path fill="#FDFEFE" d="M98.372,44.387c0.066-0.39,0.461-0.632,0.839-0.515c0.16,0.049,1.351,0.097,1.351,0.097l0.381,0.677
				l-0.168,0.566l0.175,3.036c0,0-1.419,0.392-1.861,0.203s-0.958-0.714-0.958-0.714l0.21-3.167L98.372,44.387z"/>
			<path fill="#27234C" d="M98.878,55.481l-0.967,0.484l0.131,0.024c0.211,0.04,0.43,0.014,0.627-0.072l0.665-0.293l0.013-0.231
				L98.878,55.481z"/>
			<path fill="#27234C" d="M100.841,56.991c0,0,0.085,0.853,0.171,0.967c0.085,0.114,0.37,0.085,0.455-0.057
				c0.085-0.142-0.228-1.081-0.228-1.081L100.841,56.991z"/>
			<path fill="#FDFEFE" d="M98.903,43.686c0.003-0.033,0.053-0.348,0.053-0.348s0.873-0.043,0.893,0.016
				c0.02,0.059,0.128,1.036,0.128,1.036s-0.719-0.026-0.751-0.037c-0.032-0.011-0.299-0.148-0.299-0.148L98.903,43.686z"/>
			<polygon fill="#E48F9B" points="98.968,43.7 99.386,43.735 99.164,44.1 			"/>
			<polygon fill="#E48F9B" points="98.674,46.725 98.853,47.115 99.232,46.771 99.219,44.065 99.101,44.084 			"/>
			<path fill="#EAC1CE" d="M99.507,41.359c-0.489-0.04-0.923,0.327-0.963,0.817l-0.046,0.562c-0.04,0.489,0.327,0.923,0.817,0.963
				c0.489,0.04,0.923-0.327,0.963-0.817l0.046-0.562C100.364,41.832,99.996,41.399,99.507,41.359z"/>
			<path fill="#27234C" d="M100.323,42.287c0.021-0.475-0.338-0.889-0.816-0.929c-0.222-0.018-0.43,0.05-0.598,0.173
				c0.108,0.136,0.416,0.297,0.494,0.343c0.13,0.077,0.265,0.148,0.403,0.211C99.975,42.162,100.148,42.226,100.323,42.287z"/>
			<path fill="#27234C" d="M100.324,42.322c0.014-0.172-0.024-0.336-0.099-0.48c-0.033,0.057-0.058,0.124-0.069,0.184
				c-0.022,0.117-0.01,0.239,0.021,0.354c0.017,0.063,0.042,0.127,0.088,0.174c0.01,0.01,0.025,0.014,0.037,0.022L100.324,42.322z"
				/>
			<path fill="#27234C" d="M100.562,43.968c-0.235,0.171-5.398,3.919-5.398,3.919l0.14,0.465l5.472-3.142l0.168-0.566
				L100.562,43.968z"/>
			<path fill="#27234C" d="M99.862,43.86l0.233,5.77l1.536-0.419l-0.687-4.566l-0.087-0.413c-0.101-0.179-0.278-0.302-0.481-0.333
				L99.862,43.86z"/>
			<circle fill="#EAC1CE" cx="97.162" cy="50.514" r="0.419"/>
			<circle fill="#EAC1CE" cx="95.096" cy="48.132" r="0.441"/>
		</g>
		<g>
			<path fill="#FDFEFE" d="M90.666,45.707l4.442,2.743l0.14-0.465c0,0-4.134-3.351-4.369-3.521l-0.349-0.213l-0.754,0.014
				l-0.182,0.685c0,0,0.168,0.629,0.224,0.671C89.874,45.663,90.666,45.707,90.666,45.707z"/>
			<path fill="#FDFEFE" d="M89.724,44.221l-0.968,0.078c-0.205,0.103-0.409,0.259-0.601,0.525l-1.816,2.445l2.11,2.236l0.21-0.978
				l-1.397-1.258l1.607-1.733L89.724,44.221z"/>
			<path fill="#27234C" d="M90.855,48.169l0.394,0.34l-0.016,4.001l-0.426,3.411c-0.017,0.138-0.121,0.249-0.258,0.275l0,0
				c-0.205,0.04-0.392-0.123-0.381-0.332l0.098-3.353l0.114-3.072l-0.744,0.056l-0.337,3.328l-0.432,4.581
				c-0.036,0.206-0.206,0.362-0.414,0.381l0,0c-0.293,0.027-0.537-0.224-0.502-0.516l0.38-4.588l0.236-4.085l0.581-1.201
				l0.709-0.152L90.855,48.169z"/>
			<path fill="#FDFEFE" d="M90.991,45.062c-0.066-0.39-0.31-0.835-0.688-0.718c-0.16,0.049-1.351,0.097-1.351,0.097l-0.381,0.677
				l0.168,0.566l-0.175,3.036c0,0,1.419,0.392,1.861,0.203c0.442-0.189,0.831-0.438,0.831-0.438l-0.14-2.627L90.991,45.062z"/>
			<path fill="#27234C" d="M90.636,55.953l0.967,0.483l-0.131,0.024c-0.211,0.04-0.43,0.014-0.627-0.072l-0.665-0.293l-0.013-0.23
				L90.636,55.953z"/>
			<path fill="#27234C" d="M88.674,57.463c0,0-0.085,0.853-0.171,0.967c-0.085,0.114-0.37,0.085-0.455-0.057
				c-0.085-0.142,0.228-1.081,0.228-1.081L88.674,57.463z"/>
			<path fill="#FDFEFE" d="M90.612,44.158c-0.003-0.033-0.053-0.348-0.053-0.348s-0.873-0.043-0.892,0.016s-0.128,1.036-0.128,1.036
				s0.719-0.026,0.751-0.037c0.032-0.011,0.299-0.148,0.299-0.148L90.612,44.158z"/>
			<polygon fill="#E48F9B" points="90.756,44.102 90.338,44.137 90.56,44.502 			"/>
			<polygon fill="#E48F9B" points="91.05,47.127 90.871,47.517 90.492,47.173 90.505,44.467 90.623,44.486 			"/>
			<path fill="#EAC1CE" d="M90.008,41.83c0.489-0.04,0.923,0.327,0.963,0.817l0.046,0.562c0.04,0.489-0.327,0.923-0.817,0.963
				c-0.489,0.04-0.923-0.327-0.963-0.817l-0.046-0.562C89.151,42.304,89.518,41.871,90.008,41.83z"/>
			<path fill="#27234C" d="M89.192,42.759c-0.021-0.475,0.338-0.889,0.816-0.929c0.222-0.018,0.43,0.05,0.598,0.173
				c-0.108,0.136-0.416,0.297-0.494,0.343c-0.13,0.077-0.265,0.148-0.403,0.211C89.54,42.634,89.366,42.698,89.192,42.759z"/>
			<path fill="#27234C" d="M89.191,42.793c-0.014-0.172,0.024-0.336,0.099-0.48c0.033,0.057,0.058,0.124,0.069,0.184
				c0.022,0.117,0.01,0.239-0.021,0.354c-0.017,0.063-0.042,0.127-0.088,0.174c-0.01,0.01-0.025,0.014-0.037,0.022L89.191,42.793z"
				/>
			<circle fill="#EAC1CE" cx="88.606" cy="49.145" r="0.419"/>
			<circle fill="#EAC1CE" cx="95.085" cy="48.006" r="0.441"/>
		</g>
	</g>
	<g>
		<g>
			<path fill="#27234C" d="M20.059,29.609l-0.5,4.217l1.117-0.047c0,0,0.698-0.884,0.698-1.024c0-0.14,0.705-0.552,0.306-1.044
				C21.281,31.22,20.059,29.609,20.059,29.609z"/>
			<path fill="#27234C" d="M21.129,28.715l-0.973,0.217c-0.205,0.103-0.343,0.304-0.366,0.532l-0.79,5.571l0.558,0.047l0.804-4.486
				L21.129,28.715z"/>
			<path fill="#27234C" d="M20.363,30.597l-0.247,2.225l0.19,4.156l0.426,3.411c0.017,0.138,0.121,0.249,0.258,0.275l0,0
				c0.205,0.04,0.392-0.123,0.382-0.332l-0.098-3.353l-0.114-3.072l0.744,0.056l0.337,3.328l0.432,4.581
				c0.036,0.206,0.206,0.362,0.414,0.381l0,0c0.293,0.027,0.537-0.224,0.502-0.516l-0.38-4.588l-0.236-4.085l-0.581-1.201
				l-0.709-0.152L20.363,30.597z"/>
			<path fill="#FDFEFE" d="M20.396,29.327c0.066-0.39,0.461-0.632,0.839-0.515c0.16,0.049,1.351,0.097,1.351,0.097l0.381,0.677
				l-0.168,0.566l0.175,3.036c0,0-1.419,0.392-1.861,0.203c-0.442-0.189-0.958-0.714-0.958-0.714l0.21-3.167L20.396,29.327z"/>
			<path fill="#27234C" d="M20.903,40.421l-0.967,0.484l0.131,0.024c0.211,0.04,0.43,0.014,0.627-0.072l0.665-0.293l0.013-0.231
				L20.903,40.421z"/>
			<path fill="#27234C" d="M22.865,41.931c0,0,0.085,0.853,0.171,0.967c0.085,0.114,0.37,0.085,0.455-0.057
				c0.085-0.142-0.228-1.081-0.228-1.081L22.865,41.931z"/>
			<path fill="#FDFEFE" d="M20.927,28.627c0.003-0.033,0.053-0.348,0.053-0.348s0.873-0.043,0.893,0.016
				c0.02,0.059,0.128,1.036,0.128,1.036s-0.719-0.026-0.751-0.037c-0.032-0.011-0.299-0.148-0.299-0.148L20.927,28.627z"/>
			<polygon fill="#E48F9B" points="20.992,28.641 21.411,28.675 21.189,29.041 			"/>
			<polygon fill="#E48F9B" points="20.699,31.666 20.877,32.055 21.257,31.712 21.244,29.006 21.126,29.024 			"/>
			<path fill="#EAC1CE" d="M21.532,26.299c-0.489-0.04-0.923,0.327-0.963,0.817l-0.046,0.562c-0.04,0.489,0.327,0.923,0.817,0.963
				c0.489,0.04,0.923-0.327,0.963-0.817l0.046-0.562C22.388,26.773,22.021,26.339,21.532,26.299z"/>
			<path fill="#27234C" d="M22.347,27.228c0.021-0.475-0.338-0.889-0.816-0.929c-0.222-0.018-0.43,0.05-0.598,0.173
				c0.108,0.136,0.416,0.297,0.494,0.343c0.13,0.077,0.265,0.148,0.403,0.211C21.999,27.102,22.173,27.166,22.347,27.228z"/>
			<path fill="#27234C" d="M22.348,27.262c0.014-0.172-0.024-0.336-0.099-0.48c-0.033,0.057-0.058,0.124-0.069,0.184
				c-0.022,0.117-0.01,0.239,0.021,0.354c0.017,0.063,0.042,0.127,0.088,0.174c0.01,0.01,0.025,0.014,0.037,0.022L22.348,27.262z"/>
			<path fill="#27234C" d="M22.586,28.909c-0.235,0.171-5.398,3.919-5.398,3.919l0.14,0.465l5.472-3.142l0.168-0.566L22.586,28.909z
				"/>
			<path fill="#27234C" d="M21.886,28.8l0.233,5.77l1.536-0.419l-0.687-4.566l-0.087-0.413c-0.101-0.179-0.278-0.302-0.481-0.333
				L21.886,28.8z"/>
			<circle fill="#EAC1CE" cx="19.187" cy="35.455" r="0.419"/>
			<circle fill="#EAC1CE" cx="17.12" cy="33.073" r="0.441"/>
		</g>
		<g>
			<path fill="#27234C" d="M12.691,30.648l4.442,2.743l0.14-0.465c0,0-4.134-3.351-4.369-3.521l-0.349-0.213L11.8,29.206
				l-0.182,0.685c0,0,0.168,0.629,0.224,0.671C11.898,30.603,12.691,30.648,12.691,30.648z"/>
			<path fill="#27234C" d="M11.748,29.161L10.78,29.24c-0.205,0.103-0.409,0.259-0.601,0.525L8.363,32.21l2.11,2.236l0.21-0.978
				L9.285,32.21l1.607-1.733L11.748,29.161z"/>
			<path fill="#27234C" d="M12.88,33.11l0.394,0.34l-0.016,4.001l-0.426,3.411c-0.017,0.138-0.121,0.249-0.258,0.275l0,0
				c-0.205,0.04-0.392-0.123-0.381-0.332l0.098-3.353l0.114-3.072l-0.744,0.056l-0.337,3.328l-0.432,4.581
				c-0.036,0.206-0.206,0.362-0.414,0.381l0,0c-0.293,0.027-0.537-0.224-0.502-0.516l0.38-4.588l0.236-4.085l0.581-1.201
				l0.709-0.152L12.88,33.11z"/>
			<path fill="#27234C" d="M13.016,30.002c-0.066-0.39-0.31-0.835-0.688-0.718c-0.16,0.049-1.351,0.097-1.351,0.097l-0.381,0.677
				l0.168,0.566L10.59,33.66c0,0,1.419,0.392,1.861,0.203c0.442-0.189,0.831-0.438,0.831-0.438l-0.14-2.627L13.016,30.002z"/>
			<path fill="#27234C" d="M12.661,40.893l0.967,0.483l-0.131,0.024c-0.211,0.04-0.43,0.014-0.627-0.072l-0.665-0.293l-0.013-0.23
				L12.661,40.893z"/>
			<path fill="#27234C" d="M10.698,42.403c0,0-0.085,0.853-0.171,0.967c-0.085,0.114-0.37,0.085-0.455-0.057
				c-0.085-0.142,0.228-1.081,0.228-1.081L10.698,42.403z"/>
			<path fill="#FDFEFE" d="M12.636,29.098c-0.003-0.033-0.053-0.348-0.053-0.348s-0.873-0.043-0.892,0.016s-0.147,0.706-0.147,0.706
				s0.738,0.304,0.77,0.293c0.032-0.011,0.299-0.148,0.299-0.148L12.636,29.098z"/>
			<polygon fill="#E48F9B" points="12.781,29.043 12.362,29.077 12.584,29.443 			"/>
			<path fill="#EAC1CE" d="M12.032,26.771c0.489-0.04,0.923,0.327,0.963,0.817l0.046,0.562c0.04,0.489-0.327,0.923-0.817,0.963
				c-0.489,0.04-0.923-0.327-0.963-0.817l-0.046-0.562C11.175,27.244,11.543,26.811,12.032,26.771z"/>
			<path fill="#27234C" d="M11.216,27.699c-0.021-0.475,0.338-0.889,0.816-0.929c0.222-0.018,0.43,0.05,0.598,0.173
				c-0.108,0.136-0.416,0.297-0.494,0.343c-0.13,0.077-0.265,0.148-0.403,0.211C11.565,27.574,11.391,27.638,11.216,27.699z"/>
			<path fill="#27234C" d="M11.216,27.734c-0.014-0.172,0.024-0.336,0.099-0.48c0.033,0.057,0.058,0.124,0.069,0.184
				c0.022,0.117,0.01,0.239-0.021,0.354c-0.017,0.063-0.042,0.127-0.088,0.174c-0.01,0.01-0.025,0.014-0.037,0.022L11.216,27.734z"
				/>
			<circle fill="#EAC1CE" cx="10.631" cy="34.085" r="0.419"/>
			<circle fill="#EAC1CE" cx="17.109" cy="32.947" r="0.441"/>
			<polygon fill="#FDFEFE" points="11.544,29.472 12.605,31.903 12.691,30.648 12.583,29.369 			"/>
			<polygon fill="#E48F9B" points="13.074,32.068 12.896,32.457 12.517,32.114 12.53,29.408 12.648,29.426 			"/>
		</g>
	</g>
	<g>
		<path fill="#27234C" d="M19.493,65.209c0,0-0.073,1.255-0.173,1.389c-0.1,0.133-0.434,0.1-0.534-0.067
			c-0.1-0.167,0.267-1.267,0.267-1.267L19.493,65.209z"/>
		<path fill="#27234C" d="M21.705,53.996l0.394,2.485l-0.303,4.97l-0.275,3.725c-0.02,0.162,0.055,0.257-0.105,0.288l0,0
			c-0.24,0.046-0.46-0.145-0.447-0.389l0.115-3.932l0.133-3.602l-0.872,0.066l-0.398,4.268l-0.503,3.369l-0.376,0.086l0.091-3.667
			l0.394-4.909l0.221-1.61l0.832-0.178L21.705,53.996z"/>
		<path fill="#27234C" d="M21.518,65.179l0.889,0.475l-0.063,0.105c-0.248,0.046-0.349,0.032-0.58-0.07l-0.78-0.344l-0.015-0.27
			L21.518,65.179z"/>
		<g>
			<circle fill="#27234C" cx="19.726" cy="49.299" r="0.734"/>
			<path fill="#EAC1CE" d="M20.977,51.33c0,0,0.165,1.155,0.072,1.271c-0.093,0.116-0.543-0.201-0.554-0.274
				c-0.046-0.313-0.117-1.343-0.117-1.343L20.977,51.33z"/>
			
				<ellipse transform="matrix(-0.9733 0.2297 -0.2297 -0.9733 52.411 94.5125)" fill="#EAC1CE" cx="20.705" cy="50.306" rx="1.028" ry="1.209"/>
			<path fill="#FDFEFE" d="M21.029,51.668c0,0-0.023,0.837-0.116,0.767c-0.093-0.07-0.488-0.674-0.488-0.674l-0.839,1.086
				l0.357,1.933l-0.712,1.172c1.492,1.236,3.007,0.081,3.007,0.081l-0.328-1.595c-0.033-0.16-0.013-0.327,0.058-0.475l0.133-0.279
				c0.067-0.141,0.088-0.299,0.06-0.453l-0.129-0.694l0.034-1.102L21.029,51.668z"/>
			<path fill="#27234C" d="M20.179,49.617c0.281-0.035,0.562-0.07,0.844-0.104c0.12-0.02,0.254-0.038,0.373-0.058
				c-0.184-0.205-0.422-0.389-0.698-0.401c-0.284-0.012-0.54,0.161-0.763,0.339c-0.077,0.062-0.156,0.128-0.198,0.218
				c-0.037,0.08-0.136,0.227-0.139,0.315c-0.015,0.382,0.033,0.834,0.332,1.12c0.021-0.112,0.12-0.303,0.085-0.411
				c-0.031-0.095-0.215-0.183-0.231-0.282c-0.015-0.099,0.021-0.217,0.114-0.252c0.09-0.034,0.211,0.195,0.283,0.258
				C20.213,50.153,20.18,49.946,20.179,49.617z"/>
			
				<ellipse transform="matrix(-0.9872 0.1594 -0.1594 -0.9872 51.082 95.891)" fill="none" stroke="#0F1E51" stroke-width="0.0837" stroke-miterlimit="10" cx="21.696" cy="49.994" rx="0.263" ry="0.368"/>
			
				<ellipse transform="matrix(-0.9872 0.1594 -0.1594 -0.9872 49.8128 96.4436)" fill="none" stroke="#0F1E51" stroke-width="0.0837" stroke-miterlimit="10" cx="21.039" cy="50.219" rx="0.263" ry="0.368"/>
		</g>
		<path fill="#FDFEFE" d="M24.409,47.129l-0.861,2.515l-1.481,1.791l-0.079,1.187l2.215-2.496c0,0,0.723-2.48,0.655-2.584
			C24.788,47.439,24.409,47.129,24.409,47.129z"/>
		<path fill="#FDFEFE" d="M20.172,52.675L20,52.365l-0.413,0.482l-1.275,2.343l-0.448,2.101c0,0,0.482,0.31,0.517,0.172
			c0.034-0.138,0.413-1.447,0.723-2.033c0.31-0.586,1.113-1.713,1.113-1.713L20.172,52.675z"/>
		<circle fill="#EAC1CE" cx="24.691" cy="47.089" r="0.379"/>
		<circle fill="#EAC1CE" cx="18.039" cy="57.698" r="0.379"/>
	</g>
	<circle fill="#1848D3" cx="101.387" cy="63.983" r="1.939"/>
	<circle fill="#1848D3" cx="130.722" cy="98.894" r="1.939"/>
	<circle fill="#1848D3" cx="120.54" cy="56.468" r="1.939"/>
	<circle fill="#1848D3" cx="56.294" cy="38.043" r="1.939"/>
	<circle fill="#1848D3" cx="14.837" cy="42.891" r="1.939"/>
	<circle fill="#1848D3" cx="42.475" cy="93.561" r="1.939"/>
	<circle fill="#1848D3" cx="27.202" cy="63.256" r="1.939"/>
	<circle fill="#1848D3" cx="71.325" cy="78.045" r="1.939"/>
	<g>
		<g>
			<path fill="none" stroke="#FFFFFF" stroke-width="0.3347" stroke-miterlimit="10" d="M14.534,42.573
				c0.106-0.13,0.213-0.259,0.321-0.386"/>
			<path fill="none" stroke="#FFFFFF" stroke-width="0.3347" stroke-miterlimit="10" stroke-dasharray="0.9966,0.9966" d="
				M15.509,41.435c10.588-11.765,28.478-13.463,41.099-3.822"/>
			<path fill="none" stroke="#FFFFFF" stroke-width="0.3347" stroke-miterlimit="10" d="M57.003,37.92
				c0.131,0.104,0.262,0.208,0.391,0.314c0,0,0.116-0.146,0.326-0.376"/>
			<path fill="none" stroke="#FFFFFF" stroke-width="0.3347" stroke-miterlimit="10" stroke-dasharray="1.01,1.01" d="M58.43,37.146
				c3.395-3.125,13.914-9.114,12.918,37.933"/>
			<path fill="none" stroke="#FFFFFF" stroke-width="0.3347" stroke-miterlimit="10" d="M71.337,75.599
				c-0.004,0.168-0.008,0.337-0.012,0.507"/>
		</g>
	</g>
	<g>
		<g>
			<path fill="none" stroke="#FFFFFF" stroke-width="0.3347" stroke-miterlimit="10" d="M101.352,63.973
				c-0.156-0.061-0.313-0.12-0.47-0.177"/>
			<path fill="none" stroke="#FFFFFF" stroke-width="0.3347" stroke-miterlimit="10" stroke-dasharray="1.0147,1.0147" d="
				M99.921,63.47c-11.286-3.565-23.503,1.946-28.271,12.837"/>
			<path fill="none" stroke="#FFFFFF" stroke-width="0.3347" stroke-miterlimit="10" d="M71.45,76.775
				c-0.064,0.154-0.126,0.31-0.187,0.466"/>
		</g>
	</g>
	<g>
		<g>
			<path fill="none" stroke="#FFFFFF" stroke-width="0.3347" stroke-miterlimit="10" d="M119.16,56.392
				c-0.157-0.061-0.314-0.118-0.471-0.173"/>
			<path fill="none" stroke="#FFFFFF" stroke-width="0.3347" stroke-miterlimit="10" stroke-dasharray="0.9689,0.9689" d="
				M117.762,55.934c-6.311-1.701-12.991,1.357-15.804,7.308"/>
			<path fill="none" stroke="#FFFFFF" stroke-width="0.3347" stroke-miterlimit="10" d="M101.758,63.685
				c-0.066,0.153-0.129,0.308-0.19,0.465"/>
		</g>
	</g>
	<g>
		<g>
			<path fill="none" stroke="#FFFFFF" stroke-width="0.3347" stroke-miterlimit="10" d="M71.068,77.217
				c-0.078-0.148-0.157-0.296-0.236-0.443"/>
			<path fill="none" stroke="#FFFFFF" stroke-width="0.3347" stroke-miterlimit="10" stroke-dasharray="0.988,0.988" d="
				M70.347,75.913c-8.595-14.759-27.15-20.437-42.558-12.94"/>
			<path fill="none" stroke="#FFFFFF" stroke-width="0.3347" stroke-miterlimit="10" d="M27.344,63.193
				c-0.149,0.075-0.298,0.152-0.446,0.23"/>
		</g>
	</g>
	<g>
		<path fill="#27234C" d="M64.153,78.625c0,0,0.1,1.001,0.2,1.134c0.1,0.133,0.434,0.1,0.534-0.067
			c0.1-0.167-0.267-1.267-0.267-1.267L64.153,78.625z"/>
		<path fill="#27234C" d="M61.218,66.971l-0.29,2.609l0.223,4.874l0.5,4c0.02,0.162,0.142,0.292,0.302,0.323l0,0
			c0.24,0.046,0.46-0.145,0.447-0.389l-0.115-3.932l-0.133-3.602l0.872,0.066l0.395,3.903l0.506,3.735
			c0.043,0.241,0.242,0.424,0.486,0.446l0,0c0.344,0.031,0.629-0.262,0.588-0.605l-0.446-3.743l0.071-6.161l-1.029-0.039
			l-0.832-0.178L61.218,66.971z"/>
		<path fill="#27234C" d="M61.851,78.492l-1.134,0.567l0.153,0.029c0.248,0.046,0.504,0.017,0.735-0.085l0.78-0.344l0.015-0.27
			L61.851,78.492z"/>
		<path fill="#27234C" d="M61.608,64.725l-0.403,0.22c-0.402,0.219-0.687,0.604-0.778,1.053l-0.28,1.367l1.602,0.566l0.518-1.414
			L61.608,64.725z"/>
		<path fill="#27234C" d="M66.792,71.748l-1.986-6.02c-0.168-0.51-0.611-0.88-1.143-0.954l-0.689-0.096l-1.367,0.047l-0.547,0.696
			l-0.158,3.839c0,0,0.316,1.052,1.63,0.999c1.315-0.053,2.104-1.472,2.104-1.472l-0.009-0.338c0.67,1.425,1.693,3.535,1.693,3.535
			L66.792,71.748z"/>
		<polygon fill="#FDFEFE" points="62.638,64.863 62.112,67.237 61.701,64.786 61.868,64.542 62.317,64.491 		"/>
		<circle fill="#EAC1CE" cx="66.604" cy="72.125" r="0.512"/>
		<path fill="#FDFEFE" d="M61.608,64.725l-0.022-0.414l0.48-0.085l0.758,0.021l0.151,0.431l-0.631,0.583
			c0,0-0.149-0.278-0.181-0.278s-0.406,0.267-0.406,0.267L61.608,64.725z"/>
		<polygon fill="#27234C" points="61.81,64.983 62.087,64.749 62.301,64.951 62.13,65.4 62.589,68.164 62.141,68.538 61.788,68.218 
			61.991,65.357 		"/>
		<polygon fill="#E48F9B" points="59.911,66.328 62.268,66.516 62.598,69.438 60.382,69.203 		"/>
		<ellipse fill="#EAC1CE" cx="59.958" cy="68.024" rx="0.393" ry="0.455"/>
		
			<ellipse transform="matrix(0.9989 -0.0466 0.0466 0.9989 -2.8825 2.9617)" fill="#EAC1CE" cx="62.026" cy="63.252" rx="1.183" ry="1.367"/>
		<path fill="#27234C" d="M61.036,62.493c0.379,0.298,0.958,0.35,1.471,0.085c0.138-0.071,0.257-0.163,0.362-0.263
			c-0.23-0.276-0.553-0.445-0.908-0.429C61.57,61.905,61.236,62.144,61.036,62.493z"/>
		<path fill="#27234C" d="M62.723,62.167c-0.188,0.417-0.129,0.959,0.202,1.395c0.06,0.079,0.128,0.146,0.199,0.208
			c0.061-0.176,0.093-0.369,0.083-0.572C63.188,62.772,62.999,62.405,62.723,62.167z"/>
	</g>
	<g>
		<g>
			<path fill="none" stroke="#FFFFFF" stroke-width="0.3347" stroke-miterlimit="10" d="M42.535,93.727
				c0.045-0.162,0.091-0.322,0.139-0.482"/>
			<path fill="none" stroke="#FFFFFF" stroke-width="0.3347" stroke-miterlimit="10" stroke-dasharray="1.0123,1.0123" d="
				M42.987,92.282c3.883-11.151,15.577-17.632,27.131-14.948"/>
			<path fill="none" stroke="#FFFFFF" stroke-width="0.3347" stroke-miterlimit="10" d="M70.611,77.454
				c0.162,0.041,0.323,0.084,0.485,0.129c0,0,0.115-0.132,0.341-0.363"/>
			<path fill="none" stroke="#FFFFFF" stroke-width="0.3347" stroke-miterlimit="10" stroke-dasharray="0.9963,0.9963" d="
				M72.148,76.529c5.116-4.748,28.358-22.081,58.009,21.527"/>
			<path fill="none" stroke="#FFFFFF" stroke-width="0.3347" stroke-miterlimit="10" d="M130.441,98.476
				c0.094,0.139,0.188,0.278,0.281,0.419"/>
		</g>
	</g>
	<g>
		<g enable-background="new    ">
			<g>
				<polygon fill="#23A2F8" points="37.238,86.339 33.99,88.227 30.719,86.338 33.967,84.451 				"/>
			</g>
			<g>
				<polygon fill="#058DD8" points="37.238,86.339 37.227,90.226 33.979,92.114 33.99,88.227 				"/>
			</g>
			<g>
				<polygon fill="#2161EC" points="33.99,88.227 33.979,92.114 30.708,90.225 30.719,86.338 				"/>
			</g>
		</g>
	</g>
	<g>
		<g enable-background="new    ">
			<g>
				<polygon fill="#FCD67A" points="118.94,43.913 115.691,45.801 112.42,43.912 115.668,42.024 				"/>
			</g>
			<g>
				<polygon fill="#ECB329" points="118.94,43.913 118.929,47.8 115.68,49.688 115.691,45.801 				"/>
			</g>
			<g>
				<polygon fill="#C35C3A" points="115.691,45.801 115.68,49.688 112.409,47.799 112.42,43.912 				"/>
			</g>
		</g>
	</g>
	<g>
		<g enable-background="new    ">
			<g>
				<polygon fill="#FCD67A" points="78.938,80.642 75.689,82.53 72.418,80.641 75.666,78.753 				"/>
			</g>
			<g>
				<polygon fill="#ECB329" points="78.938,80.642 78.927,84.529 75.678,86.417 75.689,82.53 				"/>
			</g>
			<g>
				<polygon fill="#C35C3A" points="75.689,82.53 75.678,86.417 72.407,84.528 72.418,80.641 				"/>
			</g>
		</g>
	</g>
	<g>
		<g enable-background="new    ">
			<g>
				<polygon fill="#FCD67A" points="138.323,100.29 135.075,102.178 131.803,100.289 135.052,98.402 				"/>
			</g>
			<g>
				<polygon fill="#ECB329" points="138.323,100.29 138.312,104.177 135.064,106.065 135.075,102.178 				"/>
			</g>
			<g>
				<polygon fill="#C35C3A" points="135.075,102.178 135.064,106.065 131.792,104.176 131.803,100.289 				"/>
			</g>
		</g>
	</g>
	<g>
		<g enable-background="new    ">
			<g>
				<polygon fill="#FCD67A" points="36.476,81.864 33.228,83.752 29.957,81.863 33.205,79.975 				"/>
			</g>
			<g>
				<polygon fill="#ECB329" points="36.476,81.864 36.465,85.751 33.217,87.639 33.228,83.752 				"/>
			</g>
			<g>
				<polygon fill="#C35C3A" points="33.228,83.752 33.217,87.639 29.946,85.75 29.957,81.863 				"/>
			</g>
		</g>
	</g>
	<g>
		<g enable-background="new    ">
			<g>
				<polygon fill="#23A2F8" points="114.587,46.572 111.338,48.459 108.067,46.571 111.316,44.683 				"/>
			</g>
			<g>
				<polygon fill="#058DD8" points="114.587,46.572 114.576,50.459 111.327,52.346 111.338,48.459 				"/>
			</g>
			<g>
				<polygon fill="#2161EC" points="111.338,48.459 111.327,52.346 108.056,50.458 108.067,46.571 				"/>
			</g>
		</g>
	</g>
	<g>
		<g enable-background="new    ">
			<g>
				<polygon fill="#23A2F8" points="32.753,53.731 29.505,55.619 26.234,53.731 29.482,51.843 				"/>
			</g>
			<g>
				<polygon fill="#058DD8" points="32.753,53.731 32.742,57.618 29.494,59.506 29.505,55.619 				"/>
			</g>
			<g>
				<polygon fill="#2161EC" points="29.505,55.619 29.494,59.506 26.223,57.618 26.234,53.731 				"/>
			</g>
		</g>
	</g>
	<g>
		<path fill="#27234C" d="M133.803,97.161c0,0-0.101,1.013-0.203,1.148c-0.101,0.135-0.439,0.101-0.54-0.068
			c-0.101-0.169,0.27-1.283,0.27-1.283L133.803,97.161z"/>
		<path fill="#27234C" d="M136.772,85.368l0.293,2.64l-0.225,4.932l-0.506,4.047c-0.02,0.164-0.144,0.296-0.306,0.327l0,0
			c-0.243,0.047-0.465-0.146-0.453-0.393l0.117-3.979l0.135-3.645l-0.882,0.067l-0.4,3.949l-0.512,3.779
			c-0.043,0.244-0.244,0.429-0.491,0.452l0,0c-0.348,0.032-0.637-0.265-0.595-0.612l0.451-3.787l-0.072-6.234l1.041-0.039
			l0.842-0.18L136.772,85.368z"/>
		<path fill="#27234C" d="M136.131,97.026l1.148,0.574l-0.155,0.029c-0.251,0.047-0.51,0.017-0.744-0.086l-0.789-0.348l-0.015-0.274
			L136.131,97.026z"/>
		<path fill="#27234C" d="M136.378,83.095l0.408,0.223c0.407,0.222,0.695,0.612,0.788,1.065l0.283,1.383l-1.622,0.572l-0.525-1.431
			L136.378,83.095z"/>
		<path fill="#27234C" d="M131.132,90.201l2.009-6.091c0.17-0.516,0.619-0.89,1.157-0.965l0.697-0.097l1.383,0.048l0.553,0.704
			l0.16,3.885c0,0-0.319,1.064-1.65,1.011c-1.33-0.053-2.129-1.49-2.129-1.49l0.009-0.342c-0.678,1.442-1.713,3.577-1.713,3.577
			L131.132,90.201z"/>
		<polygon fill="#FDFEFE" points="135.336,83.235 135.868,85.637 136.284,83.157 136.115,82.91 135.66,82.858 		"/>
		<circle fill="#EAC1CE" cx="131.323" cy="90.583" r="0.518"/>
		<path fill="#FDFEFE" d="M136.378,83.095l0.022-0.419l-0.486-0.086l-0.767,0.022l-0.153,0.436l0.639,0.59
			c0,0,0.151-0.281,0.184-0.281c0.032,0,0.41,0.27,0.41,0.27L136.378,83.095z"/>
		<polygon fill="#27234C" points="136.173,83.357 135.893,83.119 135.677,83.324 135.849,83.778 135.385,86.575 135.839,86.953 
			136.195,86.629 135.99,83.735 		"/>
		<polygon fill="#E48F9B" points="138.095,84.717 135.71,84.907 135.376,87.864 137.618,87.626 		"/>
		<ellipse fill="#EAC1CE" cx="138.047" cy="86.434" rx="0.398" ry="0.46"/>
		
			<ellipse transform="matrix(-0.9989 -0.0466 0.0466 -0.9989 267.9578 169.459)" fill="#EAC1CE" cx="135.955" cy="81.605" rx="1.197" ry="1.384"/>
		<path fill="#27234C" d="M136.956,80.837c-0.383,0.302-0.969,0.354-1.489,0.086c-0.14-0.072-0.26-0.165-0.366-0.267
			c0.233-0.279,0.56-0.451,0.919-0.434C136.416,80.241,136.754,80.483,136.956,80.837z"/>
		<path fill="#27234C" d="M135.249,80.506c0.19,0.422,0.131,0.97-0.204,1.411c-0.061,0.08-0.13,0.148-0.201,0.211
			c-0.061-0.179-0.094-0.374-0.084-0.579C134.779,81.119,134.971,80.747,135.249,80.506z"/>
	</g>
	<g>
		<path fill="#B0CEF1" d="M134.93,72.88h8.432c0.353,0,0.639-0.286,0.639-0.639c0-0.353-0.286-0.639-0.639-0.639h-8.432
			c-0.353,0-0.639,0.286-0.639,0.639C134.291,72.594,134.577,72.88,134.93,72.88z"/>
		<path fill="#B0CEF1" d="M131.599,74.05h8.432c0.353,0,0.639-0.286,0.639-0.639c0-0.353-0.286-0.639-0.639-0.639h-8.432
			c-0.353,0-0.639,0.286-0.639,0.639C130.96,73.764,131.246,74.05,131.599,74.05z"/>
		<path fill="#B0CEF1" d="M129.079,71.62h8.432c0.353,0,0.639-0.286,0.639-0.639c0-0.353-0.286-0.639-0.639-0.639h-8.432
			c-0.353,0-0.639,0.286-0.639,0.639C128.44,71.334,128.726,71.62,129.079,71.62z"/>
	</g>
	<g>
		<g enable-background="new    ">
			<g>
				<polygon fill="#FCD67A" points="35.874,30.215 33.558,31.561 31.225,30.214 33.542,28.868 				"/>
			</g>
			<g>
				<polygon fill="#ECB329" points="35.874,30.215 35.867,32.987 33.55,34.333 33.558,31.561 				"/>
			</g>
			<g>
				<polygon fill="#C35C3A" points="33.558,31.561 33.55,34.333 31.217,32.986 31.225,30.214 				"/>
			</g>
		</g>
	</g>
	<g>
		<g enable-background="new    ">
			<g>
				<polygon fill="#FCD67A" points="102.132,70.031 99.815,71.378 97.482,70.031 99.799,68.685 				"/>
			</g>
			<g>
				<polygon fill="#ECB329" points="102.132,70.031 102.124,72.803 99.807,74.15 99.815,71.378 				"/>
			</g>
			<g>
				<polygon fill="#C35C3A" points="99.815,71.378 99.807,74.15 97.475,72.803 97.482,70.031 				"/>
			</g>
		</g>
	</g>
</g>
</svg>
