<?xml version="1.0" encoding="utf-8"?>
<!-- Generator: Adobe Illustrator 17.0.0, SVG Export Plug-In . SVG Version: 6.00 Build 0)  -->
<!DOCTYPE svg PUBLIC "-//W3C//DTD SVG 1.1//EN" "http://www.w3.org/Graphics/SVG/1.1/DTD/svg11.dtd">
<svg version="1.1" id="Layer_1" xmlns="http://www.w3.org/2000/svg" xmlns:xlink="http://www.w3.org/1999/xlink" x="0px" y="0px"
	 width="144px" height="144px" viewBox="0 0 144 144" enable-background="new 0 0 144 144" xml:space="preserve">
<g>
	<g>
		<path fill="#3A83CC" d="M50.557,26.889c-0.104,0.15-0.208,0.291-0.312,0.437c-1.655,1.895-4.188,4.76-6.019,6.198
			c-0.277,0.217-0.626,0.476-1.025,0.772c-3.033,2.252-9.345,6.937-8.64,12.147c0.01,0.074,0.073,0.127,0.146,0.127
			c0.006,0,0.013,0,0.019-0.001c0.081-0.011,0.137-0.085,0.126-0.165c-0.682-5.038,5.536-9.654,8.524-11.872
			c0.402-0.298,0.752-0.558,1.031-0.777c1.049-0.824,2.319-2.104,3.526-3.406c-7.218,8.747-12.801,9.542-12.14,18.267
			c0.838,11.063,18.48,6.418,19.032-3.584c0.346-6.269,3.343-9.167,3.249-15.812C58.023,25.494,53.266,22.991,50.557,26.889z"/>
		<ellipse fill="#EBF0F7" cx="72" cy="119.153" rx="42.267" ry="2.847"/>
		<path fill="#EBF0F7" d="M65.811,51.517c-2.247,2.879-4.987,5.368-8.106,7.276c-5.103,3.122-10.979,4.691-16.753,6.257
			c-2.971,0.806-6.068,1.69-8.31,3.8c-3.456,3.252-3.981,8.737-2.514,13.25c2.56,7.872,9.064,14.919,17.422,16.274
			c7.116,1.153,14.539-0.545,21.2-3.014c14.305-5.303,26.758-15.057,36.051-27.095c4.712-6.104,8.693-13.068,9.654-20.719
			c1.356-10.79-4.814-21.788-15.546-24.803c-6.882-1.934-14.459,0.078-20.228,4.068c-2.644,1.828-4.742,4.388-5.93,7.388
			c-1.158,2.925-1.195,6.306-2.379,9.326C69.248,46.388,67.705,49.09,65.811,51.517z"/>
		<g>
			<g>
				<path fill="#FF4545" d="M104.08,96.653c-0.092,2.061,0.07,5.182,0.184,8.705c0.128,3.97,0.513,12.336-0.96,12.054
					c-1.397-0.267-4.371-16.643-4.759-19.916C98.245,94.965,104.215,93.631,104.08,96.653z"/>
				<path fill="#FF4545" d="M98.406,95.639c0.974,1.819,2.708,4.419,4.606,7.389c2.139,3.347,6.745,10.341,5.335,10.852
					c-1.337,0.484-11.663-10.864-13.669-13.479C93.127,98.379,96.978,92.973,98.406,95.639z"/>
				<path fill="#19354C" d="M108.491,112.689c0.274,0.092,0.705,0.705,1.089,1.248c0.378,0.534-0.722,0.795-1.286,1.221
					c-1.313,0.992-3.252,2.004-2.441,1.022c1.091-1.32,1.2-2.429,1.445-2.759C107.368,113.322,108.402,112.722,108.491,112.689z"/>
				<path fill="#FF4545" d="M105.347,82.545l-4.853,0.617c0.002-0.217,0.001-0.424-0.004-0.617l-6.533,0.831
					c0,0-1.983,16.871,1.497,17.5c1.833,0.331,2.785-0.791,3.309-2.278c0.318,1.279,0.809,2.145,1.548,2.278
					c3.677,0.664,3.814-4.523,4.045-6.767C104.594,91.805,105.423,85.564,105.347,82.545z"/>
				<path fill="#19354C" d="M103.071,68.054c-1.231-1.416-5.955-1.278-7.041,0.736c-0.143,0.265-0.28,0.667-0.41,1.168
					c-0.073,0.169-0.145,0.339-0.227,0.502c-0.207,0.432-0.443,0.836-0.692,1.191c-0.254,0.351-0.526,0.65-0.799,0.849
					c-0.278,0.196-0.533,0.318-0.843,0.35c-0.153,0.023-0.332,0.003-0.473,0c-0.148-0.01-0.268-0.047-0.396-0.099
					c-0.246-0.105-0.519-0.35-0.739-0.735c-0.223-0.379-0.397-0.856-0.513-1.36c-0.059-0.253-0.106-0.513-0.141-0.778
					c-0.018-0.132-0.031-0.265-0.044-0.399l-0.015-0.2c-0.002-0.065-0.024-0.136-0.14-0.215l-0.059-0.04
					c-0.122-0.082-0.282-0.102-0.427-0.04c-0.138,0.058-0.178,0.126-0.196,0.199l-0.058,0.215c-0.036,0.143-0.071,0.288-0.1,0.433
					c-0.061,0.291-0.109,0.587-0.141,0.89c-0.06,0.605-0.069,1.24,0.071,1.914c0.141,0.662,0.476,1.41,1.13,1.968
					c0.319,0.278,0.705,0.496,1.096,0.626c0.396,0.135,0.773,0.204,1.177,0.209c0.564,0.021,1.147-0.095,1.67-0.307
					c-0.394,3.276-0.67,6.851-0.808,8.456c-0.13,1.519,11.225,1.016,11.381,0.251C105.856,81.29,105.092,70.378,103.071,68.054z"/>
				<path fill="#FF9E78" d="M98.365,67.272c-0.039,0.653,0.463,1.182,1.116,1.179c0.653-0.006,1.215-0.543,1.253-1.196l0.129-2.171
					c0.006-0.088-0.003-0.176-0.019-0.259c-0.091-0.521-0.534-0.909-1.094-0.904c-0.328,0.003-0.631,0.141-0.86,0.355
					c-0.226,0.218-0.377,0.512-0.397,0.84l-0.121,1.995L98.365,67.272z"/>
				<g>
					<path fill="#FF4545" d="M100.748,67.015c0,0-0.444,0.827-1.423,1.427c0,0,0.326,0.366,0.429,0.85c0,0,1.142-0.627,1.525-2.113
						L100.748,67.015z"/>
					<path fill="#FF4545" d="M98.368,67.217l-0.481,0.166c0,1.219,0.89,1.855,0.89,1.855c0.174-0.495,0.549-0.795,0.549-0.795
						C98.347,67.842,98.368,67.217,98.368,67.217z"/>
				</g>
				<path fill="#ED7E5D" d="M98.373,67.112c0.365,0.072,0.946-0.024,1.429-0.523c0.38-0.391,0.88-1.298,1.043-1.764
					c-0.091-0.521-0.534-0.909-1.094-0.904c-0.328,0.003-0.631,0.141-0.86,0.355c-0.226,0.218-0.377,0.512-0.397,0.84L98.373,67.112
					z"/>
				<path fill="#FF9E78" d="M97.261,63.116c-0.257,1.735,0.014,3.213,1.49,3.432c1.475,0.219,2.366-1.17,3.137-2.746
					c1.218-2.488,0.595-4.183-2.706-3.785C97.701,60.195,97.518,61.381,97.261,63.116z"/>
				<path fill="#3A83CC" d="M102.779,60.493c-0.079-0.994-1.128-1.391-2.205-1.306c-1.227,0.098-1.735-0.416-1.735-0.416
					c-2.283,0.316-1.059,1.868-0.917,1.943c0.334,0.175,1.361,0.541,2.128,0.561c0.569,0.015,1.027-0.066,1.378-0.167
					c0.012,0.334,0.043,0.745-0.203,1.14c-0.627,1.008,0.699,1.303,0.699,1.303C101.98,63.521,104.79,61,102.779,60.493z"/>
				<path fill="#FF9E78" d="M101.267,63.635c-0.201,0.465-0.235,0.898,0.161,1.069c0.396,0.171,0.872-0.236,1.115-0.681
					c0.245-0.448,0.008-0.834-0.388-1.005C101.759,62.848,101.468,63.17,101.267,63.635z"/>
				<path fill="#19354C" d="M99.636,62.937c-0.003,0.145-0.076,0.279-0.162,0.298s-0.154-0.083-0.151-0.229
					c0.003-0.145,0.076-0.279,0.162-0.298S99.64,62.792,99.636,62.937z"/>
				<path fill="#19354C" d="M97.915,62.629c-0.003,0.145-0.076,0.279-0.162,0.298c-0.086,0.019-0.154-0.083-0.151-0.229
					c0.003-0.145,0.076-0.279,0.162-0.298S97.918,62.483,97.915,62.629z"/>
				<path fill="#3A83CC" d="M99.205,61.953l0.953,0.567C100.154,61.666,99.205,61.953,99.205,61.953z"/>
				<path fill="#3A83CC" d="M98.096,61.616l-1.074,0.28C97.265,61.076,98.096,61.616,98.096,61.616z"/>
				<path fill="#ED7E5D" d="M98.206,64.063c-0.516-0.041-0.594-0.187-0.605-0.23c-0.006-0.021-0.001-0.043,0.012-0.06
					c0.213-0.273,0.561-0.91,0.565-0.917l0.121,0.066c-0.014,0.025-0.324,0.594-0.544,0.892c0.042,0.029,0.16,0.088,0.462,0.112
					L98.206,64.063z"/>
				<path fill="#ED7E5D" d="M99.075,64.803c-0.106,0-0.222-0.011-0.348-0.035l0.027-0.135c0.793,0.155,1.136-0.294,1.151-0.313
					l0.111,0.081C100.001,64.419,99.713,64.803,99.075,64.803z"/>
				<path fill="#19354C" d="M104.035,116.461c0.189,0.219,0.246,0.966,0.298,1.63c0.052,0.652-1.027,0.314-1.73,0.392
					c-1.635,0.182-3.819,0.061-2.62-0.369c1.612-0.577,2.273-1.475,2.651-1.633C102.747,116.431,103.942,116.445,104.035,116.461z"
					/>
			</g>
		</g>
		<g>
			<g>
				<g opacity="0.9">
					<path fill="#3A83CC" d="M99.103,76.079c-1.644-2.532-3.835-4.555-6.575-6.062c-0.258-0.141-0.521-0.282-0.791-0.419
						c-2.61-1.342-5.839-2.575-9.686-3.691c-0.583-0.18-1.143-0.352-1.675-0.517c-0.732-0.231-1.409-0.446-2.039-0.65
						c-1.714-0.556-3.06-1.021-4.043-1.401c-1.608-0.614-2.963-1.487-4.054-2.618c-1.096-1.131-1.644-2.583-1.644-4.368
						c0-2.258,0.904-3.988,2.72-5.186s4.227-1.796,7.244-1.796c2.634,0,5.248,0.442,7.843,1.331
						c0.657,0.223,1.315,0.477,1.972,0.763c0.051,0.02,0.098,0.039,0.149,0.063c1.417,0.618,2.794,1.311,4.137,2.07
						c2.282,1.291,5.107-0.294,5.107-2.916v-7.827c0-1.1-0.634-2.121-1.64-2.571c-0.356-0.16-0.712-0.313-1.064-0.462
						c-0.665-0.278-1.319-0.536-1.965-0.775c-0.888-0.329-1.765-0.618-2.626-0.873c-2.329-0.685-4.861-1.166-7.6-1.44v-5.162
						c0-0.798-0.384-1.507-0.978-1.945c-0.407-0.313-0.912-0.493-1.46-0.493h-6.833c-1.346,0-2.438,1.092-2.438,2.438v5.471
						c-6.438,1.096-11.299,3.612-14.586,7.549s-4.931,8.508-4.931,13.713c0,5.546,1.421,9.725,4.262,12.531
						c0.477,0.474,0.986,0.931,1.526,1.366c2.653,2.176,6.031,3.945,10.132,5.311c0.395,0.172,1.346,0.505,2.861,0.994
						c0.321,0.11,0.669,0.219,1.045,0.34c0.333,0.11,0.661,0.219,0.982,0.329c4.082,1.374,7.076,2.618,8.982,3.73
						c0.736,0.43,1.338,0.92,1.808,1.468c0.849,0.982,1.272,2.152,1.272,3.514c0,4.262-2.473,6.657-7.416,7.185
						c-0.697,0.074-1.444,0.11-2.239,0.11c-3.471,0-7.009-0.567-10.625-1.702c-0.309-0.094-0.618-0.196-0.931-0.301
						c-0.364-0.125-0.728-0.254-1.084-0.387c-1.55-0.579-3.033-1.248-4.446-2.008c-2.262-1.221-4.998,0.403-4.998,2.97v7.733
						c0,1.104,0.626,2.129,1.64,2.571c0.352,0.157,0.712,0.305,1.072,0.45c0.65,0.262,1.311,0.509,1.988,0.736
						c3.753,1.295,7.87,2.121,12.355,2.477c0.438,0.035,0.884,0.067,1.331,0.094v8.172c0,1.346,1.092,2.438,2.438,2.438h6.833
						c1.346,0,2.438-1.092,2.438-2.438v-8.481c5.89-1.025,10.477-3.507,13.764-7.444c3.287-3.941,4.931-8.68,4.931-14.23
						C101.569,81.867,100.747,78.611,99.103,76.079z"/>
					<path fill="#4C99D8" d="M57.775,90.786c1.413,0.759,2.896,1.428,4.446,2.008l-6.731,11.717c-0.36-0.145-0.72-0.294-1.072-0.45
						c-1.014-0.442-1.64-1.468-1.64-2.571v-7.733C52.778,91.189,55.513,89.565,57.775,90.786z"/>
					<path fill="#4C99D8" d="M93.1,39.048l-6.696,11.655c-2.595-0.888-5.209-1.331-7.843-1.331c-3.017,0-5.428,0.599-7.244,1.796
						s-2.72,2.927-2.72,5.186c0,1.785,0.548,3.237,1.644,4.368c1.092,1.131,2.446,2.004,4.054,2.618
						c0.982,0.38,2.329,0.845,4.043,1.401l-7.909,13.768c-1.515-0.489-2.466-0.822-2.861-0.994
						c-4.101-1.366-7.479-3.135-10.132-5.311l24.46-42.576c0.595,0.438,0.978,1.147,0.978,1.945v5.162
						c2.74,0.274,5.272,0.755,7.6,1.44C91.335,38.43,92.211,38.719,93.1,39.048z"/>
					<path fill="#4C99D8" d="M77.101,95.075l-7.268,12.649c-4.485-0.356-8.602-1.182-12.355-2.477l6.759-11.764
						c3.616,1.135,7.154,1.702,10.625,1.702C75.657,95.185,76.404,95.15,77.101,95.075z"/>
					<path fill="#4C99D8" d="M91.738,69.598l-8.493,14.778c-0.47-0.548-1.072-1.037-1.808-1.468c-1.906-1.112-4.9-2.356-8.982-3.73
						l7.921-13.788c0.532,0.164,1.092,0.337,1.675,0.517C85.899,67.023,89.127,68.255,91.738,69.598z"/>
					<path fill="#4C99D8" d="M97.768,42.856v7.827c0,2.622-2.826,4.207-5.107,2.916c-1.342-0.759-2.72-1.452-4.137-2.07
						c-0.051-0.023-0.098-0.043-0.149-0.063l6.688-11.643c0.352,0.149,0.708,0.301,1.064,0.462
						C97.134,40.735,97.768,41.756,97.768,42.856z"/>
				</g>
				<path fill="#A8CFEF" d="M80.434,116.912h-6.831c-0.509,0-0.923-0.414-0.923-0.923v-9.601l-1.428-0.084
					c-6.065-0.356-11.525-1.579-16.229-3.634c-0.437-0.191-0.73-0.665-0.73-1.181v-7.732c0-1.155,0.97-1.87,1.869-1.87
					c0.309,0,0.61,0.078,0.895,0.232c1.805,0.973,3.744,1.813,5.762,2.498c4.075,1.382,8.127,2.083,12.043,2.083
					c9.234,0,11.173-4.79,11.173-8.809c0-2.652-1.326-4.828-3.834-6.292c-2.17-1.264-5.524-2.634-10.255-4.188
					c-2.717-0.875-3.533-1.183-3.778-1.288l-0.12-0.045c-4.687-1.562-8.413-3.687-11.072-6.317
					c-2.53-2.498-3.812-6.351-3.812-11.453c0-4.883,1.498-9.051,4.579-12.742c3.033-3.634,7.635-5.998,13.677-7.027l1.262-0.215
					v-6.75c0-0.509,0.414-0.923,0.923-0.923h6.831c0.509,0,0.923,0.414,0.923,0.923v6.534l1.365,0.137
					c2.629,0.264,5.094,0.729,7.325,1.384c1.748,0.515,3.585,1.201,5.461,2.04c0.444,0.199,0.743,0.676,0.743,1.187v7.825
					c0,1.164-0.954,1.859-1.876,1.859c-0.336,0-0.662-0.088-0.968-0.262c-1.381-0.783-2.82-1.503-4.276-2.14
					c-3.464-1.516-7.021-2.285-10.572-2.285c-3.3,0-6.017,0.689-8.077,2.048c-2.226,1.471-3.403,3.703-3.403,6.454
					c0,2.18,0.697,4.004,2.071,5.421c1.244,1.283,2.792,2.286,4.604,2.98c1.645,0.63,4.287,1.505,7.852,2.601
					c4.128,1.199,7.557,2.541,10.192,3.989c2.504,1.378,4.534,3.248,6.032,5.557c1.474,2.273,2.221,5.278,2.221,8.932
					c0,5.156-1.54,9.616-4.578,13.255c-3.035,3.636-7.362,5.966-12.861,6.925l-1.256,0.219v9.753
					C81.357,116.498,80.943,116.912,80.434,116.912z M56.162,91.985c-0.852,0-1.771,0.678-1.771,1.772v7.732
					c0,0.477,0.27,0.916,0.671,1.092c4.693,2.05,10.142,3.27,16.196,3.625l1.474,0.087c0.026,0.002,0.046,0.023,0.046,0.049v9.647
					c0,0.455,0.37,0.825,0.826,0.825h6.831c0.455,0,0.825-0.37,0.825-0.825v-9.795c0-0.024,0.017-0.044,0.041-0.048l1.296-0.226
					c5.476-0.955,9.783-3.273,12.803-6.891c3.023-3.621,4.555-8.06,4.555-13.192c0-3.635-0.742-6.622-2.205-8.879
					c-1.49-2.296-3.508-4.154-5.998-5.525c-2.628-1.444-6.051-2.783-10.173-3.981c-3.568-1.097-6.212-1.973-7.859-2.604
					c-1.825-0.699-3.385-1.709-4.639-3.003c-1.393-1.436-2.099-3.283-2.099-5.489c0-2.785,1.192-5.045,3.447-6.535
					c2.076-1.37,4.811-2.064,8.131-2.064c3.565,0,7.135,0.771,10.611,2.293c1.459,0.639,2.901,1.36,4.285,2.144
					c0.292,0.166,0.601,0.25,0.92,0.25c0.874,0,1.778-0.659,1.778-1.761v-7.825c0-0.474-0.276-0.915-0.685-1.098
					c-1.872-0.837-3.705-1.522-5.448-2.035c-2.225-0.653-4.684-1.118-7.307-1.381l-1.409-0.141
					c-0.025-0.003-0.044-0.024-0.044-0.049v-6.578c0-0.455-0.37-0.825-0.825-0.825h-6.831c-0.455,0-0.826,0.37-0.826,0.825v6.791
					c0,0.024-0.017,0.044-0.041,0.048l-1.302,0.222c-6.018,1.025-10.6,3.378-13.618,6.993c-3.066,3.673-4.556,7.82-4.556,12.679
					c0,5.074,1.273,8.904,3.783,11.383c2.649,2.619,6.361,4.736,11.034,6.293l0.127,0.049c0.243,0.105,1.056,0.41,3.769,1.285
					c4.738,1.556,8.098,2.929,10.274,4.197c2.54,1.483,3.883,3.687,3.883,6.376c0,4.063-1.955,8.907-11.27,8.907
					c-3.927,0-7.989-0.702-12.074-2.088c-2.024-0.686-3.967-1.528-5.777-2.504C56.74,92.06,56.454,91.985,56.162,91.985z"/>
			</g>
		</g>
		<g>
			<path fill="#FF9E78" d="M89.148,68.709c0.48,0.328,1.815,1.003,1.745,0.355c-0.05-0.461-1.034-1.019-1.444-1.064
				C89.037,67.955,89.148,68.709,89.148,68.709z"/>
			<g>
				<path fill="#FF9E78" d="M97.808,83.652c-0.401,0.421-1.282,1.63-0.631,1.665c0.463,0.025,1.172-0.856,1.283-1.254
					C98.571,83.664,97.808,83.652,97.808,83.652z"/>
				<path fill="#FF9E78" d="M97.663,83.777c-0.301,0.212-0.916,0.599-0.84,0.689c0.197,0.229,0.85-0.214,0.975-0.362
					C97.924,83.956,97.663,83.777,97.663,83.777z"/>
				<g>
					<path fill="#19354C" d="M103.7,69.507c0.049,0.392,0.079,0.716,0.097,1.069c0.022,0.346,0.029,0.691,0.031,1.035
						c0,0.689-0.021,1.377-0.088,2.064c-0.062,0.687-0.15,1.374-0.284,2.056c-0.124,0.683-0.289,1.362-0.497,2.032
						c-0.093,0.336-0.223,0.668-0.333,1c-0.136,0.33-0.28,0.669-0.447,0.984c-0.323,0.641-0.717,1.234-1.142,1.79
						c-0.418,0.561-0.895,1.069-1.38,1.554c-0.245,0.241-0.496,0.474-0.755,0.697c-0.129,0.112-0.259,0.222-0.392,0.33l-0.201,0.16
						c-0.064,0.056-0.143,0.098-0.302,0.065c-0.163-0.034-0.285-0.156-0.328-0.305l-0.014-0.05
						c-0.042-0.148-0.007-0.223,0.041-0.286l0.134-0.198c0.088-0.133,0.174-0.268,0.257-0.405c0.167-0.272,0.325-0.55,0.475-0.831
						c0.305-0.557,0.558-1.137,0.8-1.706c0.237-0.572,0.439-1.148,0.604-1.72c0.097-0.284,0.151-0.57,0.23-0.857
						c0.069-0.296,0.156-0.584,0.21-0.885c0.241-1.192,0.405-2.412,0.48-3.647c0.043-0.616,0.063-1.236,0.074-1.855
						c0.01-0.608,0.004-1.261-0.012-1.816l-0.002-0.064c-0.022-0.76,0.576-1.394,1.337-1.416
						C103.007,68.281,103.611,68.813,103.7,69.507z"/>
				</g>
			</g>
		</g>
		<g>
			<path fill="#FF8939" d="M61.631,118.335c0,0.903-1.096,1.395-3.908,1.756c-2.052,0.263-4.771,0.408-7.655,0.408
				c-2.885,0-5.603-0.145-7.655-0.408c-2.813-0.361-3.909-0.853-3.909-1.756v-3.29h23.128V118.335z"/>
			<path fill="#FFB83B" d="M50.067,117.208c-2.885,0-5.603-0.145-7.655-0.408c-2.813-0.361-3.909-0.853-3.909-1.756
				s1.096-1.395,3.908-1.756c2.052-0.263,4.771-0.408,7.656-0.408s5.603,0.145,7.655,0.408c2.812,0.361,3.908,0.853,3.908,1.756
				s-1.096,1.395-3.908,1.756C55.67,117.064,52.952,117.208,50.067,117.208z"/>
			<path fill="#BA5511" d="M50.067,113.298c-5.903,0-10.688,0.756-10.688,1.689h21.375C60.755,114.054,55.97,113.298,50.067,113.298
				z"/>
			<ellipse fill="#FF8939" cx="50.067" cy="114.987" rx="10.687" ry="1.319"/>
		</g>
		<g>
			<path fill="#FF8939" d="M61.203,114.526c0,0.903-1.096,1.395-3.908,1.756c-2.052,0.263-4.771,0.408-7.656,0.408
				c-2.885,0-5.603-0.145-7.655-0.408c-2.813-0.361-3.909-0.853-3.909-1.756v-3.29h23.128V114.526z"/>
			<path fill="#FFB83B" d="M49.639,113.4c-2.885,0-5.603-0.145-7.655-0.408c-2.813-0.361-3.909-0.853-3.909-1.756
				c0-0.903,1.096-1.395,3.908-1.756c2.052-0.263,4.771-0.408,7.656-0.408c2.884,0,5.603,0.145,7.656,0.408
				c2.812,0.361,3.908,0.853,3.908,1.756c0,0.903-1.096,1.395-3.908,1.756C55.242,113.255,52.523,113.4,49.639,113.4z"/>
			<path fill="#BA5511" d="M49.639,109.489c-5.903,0-10.688,0.756-10.688,1.689h21.375
				C60.326,110.245,55.541,109.489,49.639,109.489z"/>
			<ellipse fill="#FF8939" cx="49.638" cy="111.178" rx="10.687" ry="1.319"/>
		</g>
		<g>
			<path fill="#FF8939" d="M61.631,110.923c0,0.903-1.096,1.395-3.908,1.756c-2.052,0.263-4.771,0.408-7.655,0.408
				c-2.885,0-5.603-0.145-7.655-0.408c-2.813-0.361-3.909-0.853-3.909-1.756v-3.29h23.128V110.923z"/>
			<path fill="#FFB83B" d="M50.067,109.796c-2.885,0-5.603-0.145-7.655-0.408c-2.813-0.361-3.909-0.853-3.909-1.756
				c0-0.903,1.096-1.395,3.908-1.756c2.052-0.263,4.771-0.408,7.656-0.408c2.884,0,5.603,0.145,7.655,0.408
				c2.812,0.361,3.908,0.853,3.908,1.756c0,0.903-1.096,1.395-3.908,1.756C55.671,109.651,52.952,109.796,50.067,109.796z"/>
			<path fill="#BA5511" d="M50.067,105.885c-5.903,0-10.688,0.756-10.688,1.689h21.375C60.755,106.642,55.97,105.885,50.067,105.885
				z"/>
			<ellipse fill="#FF8939" cx="50.067" cy="107.575" rx="10.687" ry="1.319"/>
		</g>
		<g>
			<path fill="#FF8939" d="M62.35,107.114c0,0.903-1.096,1.395-3.908,1.756c-2.052,0.263-4.771,0.408-7.655,0.408
				s-5.603-0.145-7.655-0.408c-2.813-0.361-3.909-0.853-3.909-1.756v-3.29H62.35V107.114z"/>
			<path fill="#FFB83B" d="M50.786,105.987c-2.885,0-5.603-0.145-7.655-0.408c-2.813-0.361-3.909-0.853-3.909-1.756
				s1.096-1.395,3.908-1.756c2.052-0.263,4.771-0.408,7.656-0.408c2.884,0,5.603,0.145,7.655,0.408
				c2.812,0.361,3.908,0.853,3.908,1.756s-1.096,1.395-3.908,1.756C56.39,105.842,53.671,105.987,50.786,105.987z"/>
			<path fill="#BA5511" d="M50.786,102.076c-5.903,0-10.688,0.756-10.688,1.689h21.375
				C61.474,102.833,56.689,102.076,50.786,102.076z"/>
			<ellipse fill="#FF8939" cx="50.786" cy="103.766" rx="10.687" ry="1.319"/>
		</g>
		<g>
			<path fill="#FF8939" d="M61.203,103.305c0,0.903-1.096,1.395-3.908,1.756c-2.052,0.263-4.771,0.408-7.656,0.408
				c-2.885,0-5.603-0.145-7.655-0.408c-2.813-0.361-3.909-0.853-3.909-1.756v-3.29h23.128V103.305z"/>
			<path fill="#FFB83B" d="M49.639,102.179c-2.885,0-5.603-0.145-7.655-0.408c-2.813-0.361-3.909-0.853-3.909-1.756
				s1.096-1.395,3.908-1.756c2.052-0.263,4.771-0.408,7.656-0.408c2.884,0,5.603,0.145,7.656,0.408
				c2.812,0.361,3.908,0.853,3.908,1.756s-1.096,1.395-3.908,1.756C55.242,102.034,52.523,102.179,49.639,102.179z"/>
			<path fill="#BA5511" d="M49.639,98.268c-5.903,0-10.688,0.756-10.688,1.689h21.375C60.326,99.024,55.541,98.268,49.639,98.268z"
				/>
			<ellipse fill="#FF8939" cx="49.639" cy="99.957" rx="10.687" ry="1.319"/>
		</g>
		<g>
			<path fill="#FF8939" d="M37.489,99.506c0,0.903,1.096,1.395,3.908,1.756c2.052,0.263,4.771,0.408,7.655,0.408
				c2.885,0,5.603-0.145,7.656-0.408c2.813-0.361,3.909-0.853,3.909-1.756v-3.29H37.489V99.506z"/>
			<path fill="#FFB83B" d="M49.053,98.38c2.885,0,5.603-0.145,7.656-0.408c2.813-0.361,3.909-0.853,3.909-1.756
				c0-0.903-1.096-1.395-3.908-1.756c-2.052-0.263-4.771-0.408-7.656-0.408c-2.884,0-5.603,0.145-7.655,0.408
				c-2.812,0.361-3.908,0.853-3.908,1.756c0,0.903,1.096,1.395,3.908,1.756C43.45,98.235,46.168,98.38,49.053,98.38z"/>
			<path fill="#BA5511" d="M49.053,94.469c5.903,0,10.688,0.756,10.688,1.689H38.365C38.365,95.225,43.15,94.469,49.053,94.469z"/>
			<ellipse fill="#FF8939" cx="49.053" cy="96.158" rx="10.687" ry="1.319"/>
		</g>
		<g>
			<path fill="#FF8939" d="M37.917,95.697c0,0.903,1.096,1.395,3.908,1.756c2.052,0.263,4.771,0.408,7.655,0.408
				c2.885,0,5.603-0.145,7.656-0.408c2.813-0.361,3.909-0.853,3.909-1.756v-3.29H37.917V95.697z"/>
			<path fill="#FFB83B" d="M49.481,94.571c2.885,0,5.603-0.145,7.656-0.408c2.813-0.361,3.909-0.853,3.909-1.756
				s-1.096-1.395-3.908-1.756c-2.052-0.263-4.771-0.408-7.656-0.408c-2.884,0-5.603,0.145-7.655,0.408
				c-2.812,0.361-3.908,0.853-3.908,1.756s1.096,1.395,3.908,1.756C43.878,94.426,46.597,94.571,49.481,94.571z"/>
			<path fill="#BA5511" d="M49.481,90.66c5.903,0,10.688,0.756,10.688,1.689H38.794C38.794,91.416,43.579,90.66,49.481,90.66z"/>
			<ellipse fill="#FF8939" cx="49.481" cy="92.35" rx="10.687" ry="1.319"/>
		</g>
		<g>
			<path fill="#FF8939" d="M37.489,92.094c0,0.903,1.096,1.395,3.908,1.756c2.052,0.263,4.771,0.408,7.655,0.408
				c2.885,0,5.603-0.145,7.656-0.408c2.813-0.361,3.909-0.853,3.909-1.756v-3.29H37.489V92.094z"/>
			<path fill="#FFB83B" d="M49.053,90.968c2.885,0,5.603-0.145,7.656-0.408c2.813-0.361,3.909-0.853,3.909-1.756
				c0-0.903-1.096-1.395-3.908-1.756c-2.052-0.263-4.771-0.408-7.656-0.408c-2.884,0-5.603,0.145-7.655,0.408
				c-2.812,0.361-3.908,0.853-3.908,1.756c0,0.903,1.096,1.395,3.908,1.756C43.449,90.823,46.168,90.968,49.053,90.968z"/>
			<path fill="#BA5511" d="M49.053,87.057c5.903,0,10.688,0.756,10.688,1.689H38.365C38.365,87.813,43.15,87.057,49.053,87.057z"/>
			<ellipse fill="#FF8939" cx="49.053" cy="88.746" rx="10.687" ry="1.319"/>
		</g>
		<g>
			<path fill="#FF8939" d="M36.77,88.285c0,0.903,1.096,1.395,3.908,1.756c2.052,0.263,4.771,0.408,7.656,0.408
				c2.885,0,5.603-0.145,7.655-0.408c2.813-0.361,3.909-0.853,3.909-1.756v-3.29H36.77V88.285z"/>
			<path fill="#FFB83B" d="M48.334,87.159c2.885,0,5.603-0.145,7.655-0.408c2.813-0.361,3.909-0.853,3.909-1.756
				s-1.096-1.395-3.908-1.756c-2.052-0.263-4.771-0.408-7.656-0.408c-2.884,0-5.603,0.145-7.656,0.408
				c-2.812,0.361-3.908,0.853-3.908,1.756s1.096,1.395,3.908,1.756C42.73,87.014,45.449,87.159,48.334,87.159z"/>
			<path fill="#BA5511" d="M48.334,83.248c5.903,0,10.688,0.756,10.688,1.689H37.646C37.646,84.004,42.431,83.248,48.334,83.248z"/>
			<ellipse fill="#FF8939" cx="48.334" cy="84.937" rx="10.687" ry="1.319"/>
		</g>
		<g>
			<path fill="#FF8939" d="M37.917,84.476c0,0.903,1.096,1.395,3.908,1.756c2.052,0.263,4.771,0.408,7.655,0.408
				c2.885,0,5.603-0.145,7.656-0.408c2.813-0.361,3.909-0.853,3.909-1.756v-3.29H37.917V84.476z"/>
			<path fill="#FFB83B" d="M49.481,83.35c2.885,0,5.603-0.145,7.656-0.408c2.813-0.361,3.909-0.853,3.909-1.756
				c0-0.903-1.096-1.395-3.908-1.756c-2.052-0.263-4.771-0.408-7.656-0.408c-2.884,0-5.603,0.145-7.655,0.408
				c-2.812,0.361-3.908,0.853-3.908,1.756c0,0.903,1.096,1.395,3.908,1.756C43.878,83.205,46.597,83.35,49.481,83.35z"/>
			<path fill="#BA5511" d="M49.481,79.439c5.903,0,10.688,0.756,10.688,1.689H38.794C38.794,80.195,43.579,79.439,49.481,79.439z"/>
			<ellipse fill="#FF8939" cx="49.481" cy="81.128" rx="10.687" ry="1.319"/>
		</g>
		<path fill="#FF9E78" d="M65.638,38.175c0.468-0.286,1.758-0.859,1.661-0.252c-0.069,0.432-1.023,0.912-1.412,0.935
			S65.638,38.175,65.638,38.175z"/>
		<path fill="#19354C" d="M57.732,48.25l-6.022-0.38c-0.018,0.183-0.035,0.379-0.05,0.586l-3.636-0.586
			c-0.41,2.827-0.546,8.687-0.607,10.852c-0.026,0.931-0.021,1.751,0.011,2.477c-0.004,0.014-0.01,0.027-0.014,0.042
			c-0.402,1.422-1.412,5.033-1.989,8.273s-1.634,10.317-0.181,10.215c1.17-0.083,4.944-11.068,6.582-15.667
			c0.041,1.796,0.136,4.208,0.374,6.415c0.353,3.284,1.318,10.412,2.686,9.969c1.296-0.42,1.832-16.384,2.069-18.633
			c0.01-0.092,0.008-0.18,0.002-0.266C57.675,57.117,57.47,48.246,57.732,48.25z"/>
		<path fill="#3A83CC" d="M44.557,78.32c-0.237,0.159-0.283,0.8-0.45,1.412c-0.162,0.593,0.68,0.464,1.301,0.681
			c1.446,0.505,3.484,0.85,2.509,0.211c-1.311-0.858-1.51-1.705-1.812-1.927C46.017,78.628,44.647,78.324,44.557,78.32z"/>
		<path fill="#3A83CC" d="M53.831,79.238c-0.183,0.21-0.048,0.844-0.037,1.479c0.011,0.614,0.783,0.29,1.441,0.354
			c1.531,0.149,3.586,0.003,2.47-0.387c-1.5-0.525-1.929-1.3-2.281-1.445C55.32,79.193,53.919,79.221,53.831,79.238z"/>
		<path fill="#FF9E78" d="M48.328,50.241c0.215,0.504,0.466,1.769-0.189,1.682c-0.517-0.068-0.556-1.146-0.522-1.535
			C47.65,49.999,48.328,50.241,48.328,50.241z"/>
		<path fill="#FF9E78" d="M48.411,50.468c0.15,0.104,0.4,0.559,0.383,0.818c-0.019,0.287-0.606-0.499-0.65-0.68
			C48.1,50.425,48.411,50.468,48.411,50.468z"/>
		<path fill="#FF4545" d="M66.103,38.534c-0.019-0.145-0.117-0.275-0.264-0.328l-0.048-0.017c-0.123-0.044-0.196-0.024-0.253,0.01
			l-0.177,0.103L65,38.497c-0.242,0.125-0.488,0.242-0.735,0.346c-0.493,0.209-0.995,0.379-1.48,0.47
			c-0.481,0.103-0.945,0.12-1.315,0.054c-0.187-0.03-0.342-0.096-0.479-0.166c-0.071-0.032-0.13-0.08-0.191-0.124l-0.24-0.193
			c-0.797-0.628-1.52-1.356-2.185-2.141c-0.329-0.395-0.652-0.798-0.951-1.217c-0.152-0.208-0.296-0.42-0.44-0.631l-0.232-0.357
			c-0.047-0.13-0.095-0.248-0.147-0.343c-0.243-0.45-0.678-0.802-1.218-1.056c-1.288-0.612-3.166-0.676-4.41-0.253
			c-0.157,0.053-0.3,0.118-0.435,0.187c-0.173,0.052-0.338,0.137-0.483,0.263c-0.346,0.302-0.606,0.561-0.882,0.86
			c-0.271,0.29-0.53,0.589-0.782,0.897c-0.493,0.622-0.951,1.278-1.344,1.985c-0.789,1.401-1.37,3.021-1.401,4.764
			c-0.01,0.457,0.042,0.808,0.071,1.197c0.039,0.381,0.083,0.761,0.134,1.139c0.103,0.756,0.268,1.501,0.434,2.24
			c0.187,0.736,0.4,1.462,0.636,2.178c0.117,0.358,0.243,0.713,0.374,1.066l0.204,0.527l0.107,0.262
			c0.036,0.088,0.092,0.169,0.232,0.227c0.149,0.062,0.327,0.016,0.426-0.121l0.016-0.023c0.085-0.117,0.088-0.212,0.073-0.301
			l-0.043-0.268l-0.076-0.539c-0.035-0.281-0.064-0.562-0.092-0.844c1.568,0.612,9.985,0.914,9.873-0.395
			c-0.139-1.606-0.246-5.31-0.503-8.551c0.522,0.452,1.077,0.868,1.669,1.234l0.196,0.124l0.271,0.143
			c0.187,0.087,0.38,0.169,0.578,0.22c0.393,0.115,0.798,0.154,1.174,0.135c0.756-0.04,1.411-0.275,1.98-0.568
			c0.57-0.301,1.069-0.66,1.529-1.046c0.23-0.194,0.449-0.395,0.66-0.603c0.106-0.104,0.209-0.21,0.31-0.317l0.15-0.163
			C66.086,38.742,66.121,38.672,66.103,38.534z"/>
		<path fill="#FFFFFF" d="M53.684,34.175c-0.106,0-0.218-0.005-0.337-0.014c-1.465-0.116-2.174-0.964-2.406-1.242
			c-0.018-0.021-0.015-0.052,0.006-0.069c0.021-0.017,0.052-0.015,0.069,0.006c0.227,0.271,0.916,1.095,2.339,1.208
			c1.608,0.127,1.927-0.683,1.986-0.934c0.006-0.026,0.034-0.042,0.059-0.036c0.026,0.006,0.043,0.032,0.037,0.059
			C55.378,33.403,55.081,34.175,53.684,34.175z"/>
		<path fill="#FF9E78" d="M54.449,33.047c-0.107,0.608-0.683,0.984-1.281,0.839c-0.598-0.147-0.997-0.763-0.89-1.371l0.354-2.021
			c0.014-0.082,0.041-0.161,0.074-0.234c0.197-0.458,0.689-0.718,1.201-0.591c0.3,0.074,0.549,0.267,0.712,0.514
			c0.16,0.249,0.235,0.553,0.181,0.858l-0.323,1.858L54.449,33.047z"/>
		<path fill="#ED7E5D" d="M54.476,32.899c-0.351-0.013-0.864-0.229-1.198-0.792c-0.264-0.442-0.525-1.384-0.573-1.847
			c0.197-0.458,0.689-0.718,1.201-0.591c0.3,0.074,0.549,0.267,0.712,0.514c0.16,0.249,0.235,0.553,0.181,0.858L54.476,32.899z"/>
		<path fill="#FF9E78" d="M56.602,29.666c-0.297,1.628-0.988,2.866-2.373,2.614c-1.384-0.253-2.046-1.752-1.969-3.406
			c0.103-2.196,1.477-3.278,3.045-2.491C56.563,27.014,56.899,28.037,56.602,29.666z"/>
		<path fill="#3A83CC" d="M56.687,27.932c0,0-0.187-1.328-1.097-1.667c-0.146-0.054-0.261-0.075-0.358-0.075
			c-0.01-0.116-0.043-0.227-0.121-0.324c-0.739-0.924-2.853,0.163-2.853,0.163l-0.213,3.137c0.855-0.312,2.402-1.373,2.972-2.294
			C55.401,27.016,56.286,27.393,56.687,27.932z"/>
		<path fill="#FF9E78" d="M52.757,29.405c0.032,0.407-0.054,0.746-0.4,0.774c-0.346,0.028-0.653-0.28-0.685-0.687
			c-0.032-0.407,0.222-0.759,0.568-0.787C52.586,28.677,52.724,28.998,52.757,29.405z"/>
		<circle fill="#232E4C" cx="54.663" cy="28.863" r="0.145"/>
		<circle fill="#232E4C" cx="56.295" cy="29.11" r="0.145"/>
		<g>
			<path fill="#232E4C" d="M54.044,28.172l1.165-0.192C55.209,27.98,54.513,27.632,54.044,28.172z"/>
			<path fill="#232E4C" d="M56.125,28.333l0.996,0.322C56.864,28.107,56.125,28.333,56.125,28.333z"/>
		</g>
		<path fill="#ED7E5D" d="M55.84,30.285c-0.089,0-0.209-0.015-0.371-0.056l0.034-0.133c0.267,0.068,0.39,0.054,0.441,0.04
			c-0.105-0.335-0.209-0.931-0.214-0.957l0.136-0.024c0.001,0.007,0.118,0.681,0.226,0.99c0.007,0.02,0.004,0.043-0.008,0.061
			C56.069,30.229,56.013,30.285,55.84,30.285z"/>
		<path fill="#FFFFFF" d="M53.998,30.295l0.982,0.595c0,0-0.42,0.327-0.814,0.097C53.762,30.75,53.998,30.295,53.998,30.295z"/>
		<path fill="#232E4C" d="M54.669,28.784c-0.016,0-0.033-0.001-0.051-0.004c-0.026-0.004-0.044-0.028-0.039-0.054
			c0.004-0.026,0.025-0.046,0.055-0.039c0.081,0.012,0.139-0.021,0.159-0.037l0.056,0.077l-0.026-0.04l0.027,0.039
			C54.823,28.745,54.759,28.784,54.669,28.784z"/>
		<path fill="#232E4C" d="M56.301,29.031c-0.016,0-0.033-0.001-0.05-0.004c-0.026-0.004-0.044-0.029-0.039-0.054
			c0.004-0.026,0.027-0.046,0.055-0.039c0.078,0.013,0.138-0.021,0.159-0.037l0.055,0.078l-0.025-0.04l0.027,0.039
			C56.455,28.992,56.39,29.031,56.301,29.031z"/>
	</g>
</g>
</svg>
