<?xml version="1.0" encoding="utf-8"?>
<!-- Generator: Adobe Illustrator 23.0.3, SVG Export Plug-In . SVG Version: 6.00 Build 0)  -->
<svg version="1.1" id="Layer_1" xmlns="http://www.w3.org/2000/svg" xmlns:xlink="http://www.w3.org/1999/xlink" x="0px" y="0px"
	 viewBox="0 0 144 144" style="enable-background:new 0 0 144 144;" xml:space="preserve">
<style type="text/css">
	.st0{fill:#02D463;}
</style>
<g>
	<path class="st0" d="M123,133.5c0,2.6,0,5,0,7.4c0,2.5-0.5,3.1-3,3.1c-7.6,0-15.2,0-22.8,0c-2.8,0-3.2-0.5-3.2-3.3
		c0-2.2,0-4.5,0-6.9c-0.6,0-1.1,0-1.6,0c-27.4,0-54.9,0-82.3,0c-6.1,0-10-4-10-10C0,85.6,0,47.4,0,9.1C0,3.2,3.2,0,9.1,0
		c38.5,0,77.1,0,115.6,0c5.9,0,9.1,3.3,9.1,9.2c0,38.4,0,76.8,0,115.2c0,2.5-0.7,4.7-2.4,6.6c-1.5,1.7-3.3,2.8-5.7,2.6
		C124.9,133.5,124,133.5,123,133.5z M93.9,129.4c0-0.7,0-1.1,0-1.6c0-16.2,0-32.3,0-48.5c0-1.9,0.4-3.9,1.1-5.6
		c3.6-9,7.4-17.9,11.1-26.9c0.5-1.1,1-2.2,2.4-2.2c1.5,0,2,1.1,2.5,2.3c3.5,8.6,7.2,17.2,10.6,25.9c0.7,1.9,1.2,4,1.2,6
		c0.1,8.2,0.1,16.3,0.1,24.5c0,8.1,0,16.2,0,24.3c0,0.5,0.3,1.4,0.4,1.4c1.3-0.1,2.7,0.1,3.8-0.5c1.8-1,2.2-2.9,2.2-5
		c0-31.7,0-63.5,0-95.2c0-0.4-0.1-0.8-0.1-1.3c-1.3,0-2.5,0-3.6,0c-1.9,0-2.4-0.4-2.9-2.2c-0.3-1.1-0.7-2.3-0.8-3.4
		c-0.2-1-0.6-1.4-1.7-1.4c-14.9,0-29.8,0-44.7,0c-0.8,0-1.2,0.2-1.4,1c-0.4,1.3-1.1,2.6-1.3,4c-0.3,1.5-1.3,1.8-2.5,2
		c-0.5,0.1-1,0-1.5,0c-20.9,0-41.8,0-62.7,0C5.5,27,5,27,4.5,27c0,0.5,0,0.9,0,1.4c0,31.8,0,63.6,0,95.4c0,3.8,1.9,5.6,5.6,5.6
		c24.6,0,49.1,0,73.7,0C87.1,129.4,90.4,129.4,93.9,129.4z M4.5,22.5c0.6,0,1.1,0,1.6,0c19.9,0,39.8,0,59.8,0c2.9,0,2.9,0,3.9-2.8
		c1-2.9,2.2-3.8,5.3-3.8c5.3,0,10.6,0,15.9,0c9.8,0,19.7,0,29.5,0c2.7,0,4,1,4.9,3.5c0.1,0.4,0.2,0.7,0.4,1.1
		c0.8,2.3,0.8,2.3,3.4,1.8c0-4.9,0.1-9.8,0-14.7c0-1.9-1.6-3.1-3.5-3.1c-0.7,0-1.5,0-2.3,0c-29.8,0-59.6,0-89.4,0
		c-8.4,0-16.9,0-25.3,0c-2.4,0-3.9,1.2-4,3.2C4.4,12.6,4.5,17.4,4.5,22.5z M118.5,139.5c0-19.9,0-39.7,0-59.6c-6.7,0-13.3,0-20,0
		c0,19.9,0,39.7,0,59.6C105.2,139.5,111.8,139.5,118.5,139.5z M116.7,72.8c-1.5-3.8-3-7.5-4.6-11.1c-0.1-0.3-0.7-0.5-1.1-0.5
		c-1.6-0.1-3.3,0-4.9,0c-0.9,0-1.2,0.3-1.5,1.1c-0.9,2.2-1.8,4.4-2.7,6.6c-0.5,1.3-1,2.6-1.6,4C105.8,72.8,111.2,72.8,116.7,72.8z
		 M108.6,52.7c-0.7,1.4-1.2,2.6-1.8,3.9c1.3,0,2.3,0,3.6,0C109.8,55.3,109.3,54.2,108.6,52.7z"/>
	<path class="st0" d="M51.1,37.1c-12.1,0-24.3,0-36.4,0c-0.8,0-1.8-0.3-2.3-0.9c-1-1-0.3-2.7,1.1-3.1c0.5-0.1,1-0.1,1.5-0.1
		c24.1,0,48.3,0,72.4,0c0.4,0,0.8,0,1.1,0c1.4,0.1,2,0.8,1.9,2.1c0,1.2-0.7,2-2,2c-2.4,0-4.8,0-7.2,0C71.3,37.1,61.2,37.1,51.1,37.1
		C51.1,37.1,51.1,37.1,51.1,37.1z"/>
	<path class="st0" d="M42.7,63c-9.3,0-18.7,0-28,0c-1.7,0-2.5-0.6-2.7-1.9c-0.2-1.6,0.7-2.6,2.4-2.6c4,0,8,0,12,0
		c14.8,0,29.5,0,44.3,0c1.9,0,2.9,0.9,2.8,2.5C73.4,62.3,72.6,63,71,63c-5.3,0-10.6,0-15.9,0C51,63,46.8,63,42.7,63
		C42.7,63,42.7,63,42.7,63z"/>
	<path class="st0" d="M41.7,71.4c8.9,0,17.7,0,26.6,0c0.5,0,1.1,0,1.5,0.1c1,0.4,1.5,1.2,1.3,2.2c-0.2,1.2-1,1.8-2.2,1.8
		c-3,0-6,0-9,0c-15,0-29.9,0-44.8,0c-0.3,0-0.6,0-0.8,0c-1.4-0.1-2.1-0.9-2.1-2.1c0-1.2,0.8-2,2.2-2c3.6,0,7.2,0,10.8,0
		C30.6,71.4,36.1,71.4,41.7,71.4C41.7,71.4,41.7,71.4,41.7,71.4z"/>
	<path class="st0" d="M40.7,50.3c-8.7,0-17.4,0-26.1,0c-1.6,0-2.4-0.6-2.5-1.8c-0.1-1.2,0.4-2,1.6-2.3c0.4-0.1,0.8-0.1,1.3-0.1
		c17.3,0,34.6,0,51.9,0c0.7,0,1.7,0.2,2.2,0.7c0.4,0.5,0.7,1.6,0.4,2.1c-0.3,0.6-1.2,1.2-1.9,1.2c-3.7,0.1-7.5,0.1-11.2,0.1
		C51,50.4,45.9,50.4,40.7,50.3z"/>
	<path class="st0" d="M38.1,114c-7.8,0-15.5,0-23.3,0c-0.6,0-1.5-0.1-1.8-0.5c-0.5-0.7-0.9-1.8-0.7-2.5c0.2-0.6,1.2-1.3,1.9-1.4
		c1.8-0.2,3.6-0.1,5.5-0.1c13.7,0,27.4,0,41.2,0c0.4,0,0.8,0,1.3,0c1.3,0.1,2.1,1.1,2.1,2.4c0,1.3-0.7,2-2.2,2c-4.1,0-8.1,0-12.2,0
		C45.8,114,42,114,38.1,114C38.1,114,38.1,114,38.1,114z"/>
	<path class="st0" d="M37,84.1c7.4,0,14.9,0,22.3,0c0.7,0,1.6,0.1,1.9,0.6c0.5,0.6,0.8,1.6,0.7,2.4c-0.1,1.1-1.1,1.5-2.1,1.5
		c-2.2,0-4.3,0-6.5,0c-12.8,0-25.6,0-38.4,0c-0.6,0-1.4-0.1-1.9-0.4c-0.9-0.5-1.3-1.5-1-2.6c0.3-1.1,1.1-1.5,2.2-1.5
		c5.1,0,10.2,0,15.3,0C32.1,84.1,34.6,84.1,37,84.1C37,84.1,37,84.1,37,84.1z"/>
	<path class="st0" d="M40.5,96.9c8.6,0,17.1,0,25.7,0c2.1,0,2.9,0.9,2.4,2.7c-0.4,1.2-1.4,1.4-2.5,1.4c-4.9,0-9.8,0-14.8,0
		c-12,0-24.1,0-36.1,0c-0.5,0-1,0-1.5-0.1c-1.1-0.2-1.6-0.9-1.6-2c0-1.1,0.5-1.8,1.6-2c0.5-0.1,0.9-0.1,1.4-0.1
		C23.5,97,32,97,40.5,96.9z"/>
	<path class="st0" d="M13.2,19.7c-3.9,0-7.1-3.2-7.2-7.1c0-3.9,3.2-7.2,7.1-7.2c4,0,7.2,3.2,7.3,7.2C20.4,16.4,17.1,19.7,13.2,19.7z
		 M10.5,12.9c0,1.5,1.2,2.7,2.8,2.7c1.6,0,2.6-1.1,2.6-2.7c0-1.5-1.2-2.7-2.7-2.8C11.8,10.1,10.5,11.4,10.5,12.9z"/>
	<path class="st0" d="M50.4,19.7c-3.9,0-7.2-3.2-7.2-7.1c0-3.9,3.3-7.2,7.1-7.2c3.8,0,7.2,3.3,7.2,7.2
		C57.6,16.5,54.3,19.7,50.4,19.7z M47.7,12.7c-0.1,1.6,1.1,2.8,2.6,2.9c1.5,0,2.7-1.1,2.8-2.6c0.1-1.5-1.1-2.8-2.6-2.9
		C49,10.1,47.8,11.2,47.7,12.7z"/>
	<path class="st0" d="M31.8,19.7c-3.9,0-7.1-3.2-7.1-7.1c0-3.9,3.3-7.2,7.1-7.2c3.8,0,7.2,3.4,7.2,7.2C39,16.4,35.7,19.7,31.8,19.7z
		 M31.8,10.1c-1.5,0-2.7,1.2-2.7,2.7c0,1.6,1.1,2.8,2.7,2.8c1.5,0,2.7-1.2,2.7-2.6C34.6,11.5,33.3,10.2,31.8,10.1z"/>
</g>
</svg>
