<?xml version="1.0" encoding="utf-8"?>
<!-- Generator: Adobe Illustrator 17.0.0, SVG Export Plug-In . SVG Version: 6.00 Build 0)  -->
<!DOCTYPE svg PUBLIC "-//W3C//DTD SVG 1.1//EN" "http://www.w3.org/Graphics/SVG/1.1/DTD/svg11.dtd">
<svg version="1.1" id="Layer_1" xmlns="http://www.w3.org/2000/svg" xmlns:xlink="http://www.w3.org/1999/xlink" x="0px" y="0px"
	 width="144px" height="144px" viewBox="0 0 144 144" enable-background="new 0 0 144 144" xml:space="preserve">
<g>
	<path fill="#ffffff" d="M127.26,72.128c0,22.279,0,44.558,0,66.836c0,0.586,0.014,1.174-0.014,1.759
		c-0.112,2.284-1.004,3.174-3.259,3.266c-0.439,0.018-0.879,0.007-1.319,0.007c-30.291,0-60.583,0.001-90.874,0
		c-9.282,0-15.065-5.801-15.065-15.111c-0.001-37.815-0.01-75.631,0.029-113.446c0.002-1.883,0.211-3.824,0.7-5.637
		c1.131-4.191,3.942-6.983,7.924-8.62C27.288,0.399,29.239-0.003,31.346,0c30.829,0.043,61.658,0.029,92.486,0.03
		c2.245,0,3.262,0.948,3.421,3.21c0.034,0.486,0.014,0.977,0.014,1.465c0,22.474,0,44.948,0,67.423
		C127.265,72.128,127.262,72.128,127.26,72.128z M38.178,5.887c0,36.754,0,73.332,0,109.943c27.79,0,55.498,0,83.207,0
		c0-36.709,0-73.285,0-109.943C93.624,5.887,65.947,5.887,38.178,5.887z M32.231,5.663c-2.39-0.12-4.501,0.272-6.323,1.677
		c-2.805,2.163-3.617,5.185-3.614,8.559c0.022,33.805,0.036,67.609,0.053,101.414c0,0.412,0,0.824,0,1.523
		c3.114-2.243,6.424-2.849,9.885-2.876C32.231,79.145,32.231,42.513,32.231,5.663z M112.558,121.704c-0.705,0-1.283,0-1.86,0
		c-23.064-0.004-46.128-0.009-69.192-0.01c-3.714,0-7.431-0.086-11.14,0.046c-6.1,0.216-9.779,6.471-7.106,11.934
		c1.681,3.436,4.536,4.707,8.241,4.704c26.484-0.024,52.969-0.004,79.453,0.002c0.517,0,1.035,0,1.565,0c0-1.953,0-3.687,0-5.524
		c-0.667,0-1.244,0-1.822,0c-26.094,0-52.187,0.001-78.281-0.007c-0.776,0-1.573-0.011-2.323-0.181
		c-1.538-0.348-2.297-1.392-2.203-2.833c0.086-1.312,0.997-2.298,2.442-2.511c0.768-0.113,1.559-0.099,2.34-0.1
		c25.996-0.005,51.992-0.004,77.987-0.004c0.617,0,1.234,0,1.899,0C112.558,125.315,112.558,123.616,112.558,121.704z
		 M118.541,121.845c0,5.553,0,10.947,0,16.313c1.019,0,1.919,0,2.804,0c0-5.507,0-10.892,0-16.313
		C120.357,121.845,119.495,121.845,118.541,121.845z"/>
	<path fill="#ffffff" d="M74.157,52.487c0.608-0.924,1.114-1.679,1.606-2.443c2.429-3.776,4.854-7.555,7.282-11.332
		c0.237-0.369,0.476-0.739,0.735-1.092c1.801-2.461,3.726-2.46,5.491,0.055c0.98,1.397,1.862,2.863,2.786,4.3
		c5.384,8.374,10.77,16.748,16.147,25.127c0.341,0.531,0.684,1.078,0.908,1.663c0.706,1.845-0.116,3.418-2.063,3.705
		c-1.439,0.212-2.92,0.182-4.382,0.183c-16.076,0.011-32.152,0.008-48.229,0.004c-0.487,0-0.98-0.009-1.46-0.083
		c-2.532-0.39-3.476-2.283-2.163-4.47c1.205-2.008,2.504-3.959,3.783-5.921c3.384-5.192,6.772-10.381,10.175-15.56
		c1.708-2.599,3.764-2.624,5.523-0.05C71.581,48.454,72.79,50.387,74.157,52.487z M101.31,66.836
		c-4.994-7.758-9.836-15.28-14.807-23.002c-4.99,7.757-9.843,15.301-14.797,23.002C81.681,66.836,91.342,66.836,101.31,66.836z
		 M58.306,66.913c2.229,0,4.165,0.037,6.097-0.035c0.341-0.013,0.76-0.42,0.98-0.752c1.665-2.521,3.303-5.059,4.906-7.619
		c0.195-0.311,0.319-0.889,0.162-1.162c-0.882-1.528-1.861-3-2.908-4.65C64.432,57.484,61.465,62.051,58.306,66.913z"/>
	<path fill="#ffffff" d="M79.756,82.568c8.4-0.001,16.799-0.001,25.199-0.001c0.391,0,0.782-0.01,1.172,0.003
		c2.193,0.075,3.298,1.062,3.263,2.906c-0.032,1.703-1.228,2.765-3.279,2.767c-17.483,0.014-34.966,0.013-52.449,0.001
		c-2.2-0.002-3.515-1.154-3.466-2.919c0.046-1.669,1.352-2.746,3.482-2.75C62.37,82.558,71.063,82.568,79.756,82.568z"/>
	<path fill="#ffffff" d="M79.902,94.965c-8.543,0-17.086,0.001-25.629-0.001c-2.618-0.001-4.031-0.97-4.056-2.771
		c-0.026-1.908,1.403-2.918,4.069-2.917c16.842,0.005,33.683,0.001,50.525,0.009c0.778,0,1.568,0.02,2.33,0.157
		c1.5,0.271,2.241,1.181,2.254,2.612c0.014,1.495-0.756,2.475-2.267,2.781c-0.567,0.115-1.162,0.124-1.744,0.125
		C96.89,94.968,88.396,94.965,79.902,94.965z"/>
	<path fill="#ffffff" d="M79.923,101.63c-4.05,0-8.1,0.017-12.15-0.014c-0.818-0.006-1.67-0.08-2.445-0.322
		c-1.22-0.38-1.729-1.359-1.691-2.61c0.037-1.204,0.641-2.054,1.778-2.416c0.639-0.203,1.34-0.294,2.013-0.295
		c8.295-0.019,16.591-0.021,24.886-0.007c2.485,0.004,3.743,1.052,3.677,2.969c-0.053,1.55-0.97,2.543-2.75,2.612
		c-2.875,0.112-5.755,0.067-8.633,0.082C83.046,101.637,81.484,101.63,79.923,101.63z"/>
	<path fill="#ffffff" d="M57.477,41.368c-3.976-0.009-7.272-3.292-7.286-7.255c-0.014-3.977,3.439-7.4,7.394-7.33
		c3.961,0.07,7.222,3.403,7.203,7.36C64.77,38.113,61.466,41.378,57.477,41.368z M57.922,32.281
		c-0.228-0.009-0.455-0.018-0.683-0.026c-0.442,0.578-1.14,1.106-1.268,1.747c-0.2,1,0.55,1.803,1.522,1.628
		c0.605-0.109,1.413-0.927,1.502-1.521C59.076,33.565,58.313,32.895,57.922,32.281z"/>
</g>
</svg>
