<?xml version="1.0" encoding="utf-8"?>
<!-- Generator: Adobe Illustrator 23.0.3, SVG Export Plug-In . SVG Version: 6.00 Build 0)  -->
<svg version="1.1" id="Layer_1" xmlns="http://www.w3.org/2000/svg" xmlns:xlink="http://www.w3.org/1999/xlink" x="0px" y="0px"
	 viewBox="0 0 144 144" style="enable-background:new 0 0 144 144;" xml:space="preserve">
<style type="text/css">
	.st0{fill:#217091;}
</style>
<g>
	<g>
		<path class="st0" d="M67.3,103.4c0.8,1.7,0.9,3.2-0.2,4.7c-1.5,2.1-4.4,2.5-6.3,0.7c-3.3-3.3-6.7-6.6-9.9-9.9
			c-1.5-1.5-1.5-3.6-0.2-5.5c1.2-1.6,3.2-2.1,5.1-1.2c0.1,0.1,0.3,0.1,0.5,0.2c0.4-0.8,0.9-1.5,1.3-2.3C64.5,77.5,71.4,65,78.3,52.4
			c0.2-0.4,0.4-0.8,0.2-1.4c-0.5-1.9,0.3-3.7,2-4.7c1.7-1,3.6-0.8,5,0.6c5.7,5.7,11.4,11.4,17.1,17.1c3.4,3.4,6.7,6.7,10.1,10.1
			c2.2,2.2,1.3,6-1.7,6.9c-0.8,0.3-1.7,0.1-2.6,0.1c-0.4,0-0.8,0-1.1,0.1c-6,3.3-12,6.6-18.1,9.9c-0.2,0.1-0.3,0.2-0.6,0.4
			c0.6,0.6,1.1,1.1,1.6,1.6c1.8,1.8,1.8,3.9,0,5.7c-3.3,3.3-6.6,6.6-9.9,9.9c-1.9,1.9-4,1.9-5.9,0c-1.8-1.8-3.5-3.5-5.3-5.3
			C68.5,102.6,68.5,102.6,67.3,103.4z M80.3,53.8c-0.2,0.2-0.3,0.4-0.3,0.5c-2,3.6-4,7.2-6,10.8C68.9,74.6,63.7,84,58.5,93.4
			c-0.2,0.4-0.4,0.7,0,1.1c2.2,2.2,4.4,4.4,6.7,6.6c0.3,0.3,0.5,0.4,0.9,0.1c1.2-0.7,2.4-1.3,3.6-2c11.8-6.5,23.7-13,35.5-19.5
			c0.2-0.1,0.5-0.3,0.7-0.5C97.4,70.8,88.9,62.3,80.3,53.8z M94.8,64.9c4.4,4.4,8.7,8.7,13.1,13.1c0.2,0.2,0.5,0.5,0.8,0.7
			c0.8,0.6,1.7,0.4,2.4-0.3c0.7-0.7,0.7-1.6,0.1-2.4c-0.2-0.3-0.5-0.6-0.8-0.9c-8.7-8.7-17.4-17.4-26-26c-0.2-0.2-0.5-0.5-0.8-0.6
			c-0.7-0.5-1.5-0.4-2.1,0.1c-1,0.8-1,2,0,3.1C86,56,90.4,60.5,94.8,64.9z M70.8,101.5c2.1,2.1,4,4.1,6.1,6c0.5,0.5,1.2,0.4,1.7-0.2
			c3.5-3.4,6.9-6.9,10.3-10.3c0.6-0.6,0.6-1.3,0-1.9c-0.6-0.6-1.2-1.2-1.8-1.8c-0.4-0.4-0.7-0.5-1.2-0.2c-4.4,2.5-8.9,4.9-13.3,7.3
			C72,100.8,71.4,101.1,70.8,101.5z M57.6,102.2c1.5,1.5,3,3.1,4.6,4.6c0.9,0.9,2,1,2.8,0.2c0.8-0.8,0.8-1.9-0.1-2.9
			c-3.1-3.1-6.2-6.2-9.3-9.3c-0.9-0.9-2-1-2.8-0.2c-0.8,0.8-0.8,1.9,0.1,2.9C54.5,99.1,56,100.7,57.6,102.2z"/>
	</g>
	<g>
		<path class="st0" d="M9.5,133.5c0-41,0-82,0-123c0.1-0.2,0.2-0.3,0.3-0.5c1.5-6.5,5.8-10,12.4-10c36.3,0,72.7,0,109,0
			c1.5,0,2.6,0.4,3.4,1.7c0,0.4,0,0.8,0,1.1c-0.7,1.1-1.6,1.6-2.9,1.8c-4,0.4-6.7,3.4-6.7,7.3c0,3.8,2.7,6.9,6.7,7.3
			c1.4,0.1,2.3,0.7,2.9,1.8c0,40.4,0,80.9,0,121.3c-0.7,1.4-1.8,1.7-3.4,1.7c-19,0-38.1,0-57.1,0c-17.4,0-34.8,0-52.2,0
			c-5.9,0-10.4-3.4-11.9-8.9C9.8,134.6,9.7,134,9.5,133.5z M129.8,81.6c0-18.8,0-37.5,0-56.3c0-1.3-0.4-1.6-1.6-1.6
			c-31.1,0-62.2,0-93.2,0c-1.2,0-1.6,0.4-1.6,1.6c0,37.4,0,74.9,0,112.3c0,1.4,0.3,1.9,1.8,1.9c30.9,0,61.9,0,92.8,0
			c1.8,0,1.8,0,1.8-1.9C129.8,118.9,129.8,100.3,129.8,81.6z M14.2,21.6c0,0.6,0,1.1,0,1.6c0,9.6,0,19.3,0,28.9
			c0,26.6,0,53.2,0,79.9c0,3.8,2.4,6.8,6.1,7.3c2.3,0.3,4.6,0.1,6.9,0.2c1.2,0.1,1.8-0.4,1.6-1.6c0-0.3,0-0.6,0-0.8
			c0-37.2,0-74.4,0-111.6c0-1.3-0.3-1.7-1.6-1.7C22.8,23.9,18.4,24.2,14.2,21.6z M122.6,4.5c-1,0-1.6,0-2.2,0c-8.7,0-17.4,0-26.1,0
			c-23.9,0-47.8,0-71.7,0c-1.1,0-2.3,0.1-3.3,0.4c-3.5,1-5.6,4.6-5,8.1c0.6,3.7,3.7,6.1,7.8,6.1c33,0,65.9,0,98.9,0
			c0.4,0,0.9-0.1,1.6-0.1C119.4,14.3,119.5,9.5,122.6,4.5z"/>
		<path class="st0" d="M67.1,14.2c-14.6,0-29.2,0-43.7,0c-0.6,0-1.2,0-1.8,0c-1.3-0.1-2.3-1-2.3-2.2c0-1.3,1-2.3,2.4-2.3
			c4.1,0,8.3,0,12.4,0c25.9,0,51.8,0,77.7,0c2.4,0,3.5,0.7,3.5,2.3c0,1.5-1.1,2.2-3.4,2.2C96.9,14.1,82,14.1,67.1,14.2
			C67.1,14.1,67.1,14.2,67.1,14.2z"/>
	</g>
</g>
</svg>
