<?xml version="1.0" encoding="utf-8"?>
<!-- Generator: Adobe Illustrator 23.0.3, SVG Export Plug-In . SVG Version: 6.00 Build 0)  -->
<svg version="1.1" id="Layer_1" xmlns="http://www.w3.org/2000/svg" xmlns:xlink="http://www.w3.org/1999/xlink" x="0px" y="0px"
	 viewBox="0 0 144 144" style="enable-background:new 0 0 144 144;" xml:space="preserve">
<style type="text/css">
	.st0{fill:#217091;}
</style>
<g>
	<path class="st0" d="M127.3,72.1c0,22.3,0,44.6,0,66.8c0,0.6,0,1.2,0,1.8c-0.1,2.3-1,3.2-3.3,3.3c-0.4,0-0.9,0-1.3,0
		c-30.3,0-60.6,0-90.9,0c-9.3,0-15.1-5.8-15.1-15.1c0-37.8,0-75.6,0-113.4c0-1.9,0.2-3.8,0.7-5.6c1.1-4.2,3.9-7,7.9-8.6
		c1.9-0.8,3.9-1.2,6-1.2C62.2,0,93,0,123.8,0c2.2,0,3.3,0.9,3.4,3.2c0,0.5,0,1,0,1.5C127.3,27.2,127.3,49.7,127.3,72.1
		C127.3,72.1,127.3,72.1,127.3,72.1z M38.2,5.9c0,36.8,0,73.3,0,109.9c27.8,0,55.5,0,83.2,0c0-36.7,0-73.3,0-109.9
		C93.6,5.9,65.9,5.9,38.2,5.9z M32.2,5.7c-2.4-0.1-4.5,0.3-6.3,1.7c-2.8,2.2-3.6,5.2-3.6,8.6c0,33.8,0,67.6,0.1,101.4
		c0,0.4,0,0.8,0,1.5c3.1-2.2,6.4-2.8,9.9-2.9C32.2,79.1,32.2,42.5,32.2,5.7z M112.6,121.7c-0.7,0-1.3,0-1.9,0c-23.1,0-46.1,0-69.2,0
		c-3.7,0-7.4-0.1-11.1,0c-6.1,0.2-9.8,6.5-7.1,11.9c1.7,3.4,4.5,4.7,8.2,4.7c26.5,0,53,0,79.5,0c0.5,0,1,0,1.6,0c0-2,0-3.7,0-5.5
		c-0.7,0-1.2,0-1.8,0c-26.1,0-52.2,0-78.3,0c-0.8,0-1.6,0-2.3-0.2c-1.5-0.3-2.3-1.4-2.2-2.8c0.1-1.3,1-2.3,2.4-2.5
		c0.8-0.1,1.6-0.1,2.3-0.1c26,0,52,0,78,0c0.6,0,1.2,0,1.9,0C112.6,125.3,112.6,123.6,112.6,121.7z M118.5,121.8
		c0,5.6,0,10.9,0,16.3c1,0,1.9,0,2.8,0c0-5.5,0-10.9,0-16.3C120.4,121.8,119.5,121.8,118.5,121.8z"/>
	<path class="st0" d="M74.2,52.5c0.6-0.9,1.1-1.7,1.6-2.4c2.4-3.8,4.9-7.6,7.3-11.3c0.2-0.4,0.5-0.7,0.7-1.1
		c1.8-2.5,3.7-2.5,5.5,0.1c1,1.4,1.9,2.9,2.8,4.3c5.4,8.4,10.8,16.7,16.1,25.1c0.3,0.5,0.7,1.1,0.9,1.7c0.7,1.8-0.1,3.4-2.1,3.7
		c-1.4,0.2-2.9,0.2-4.4,0.2c-16.1,0-32.2,0-48.2,0c-0.5,0-1,0-1.5-0.1c-2.5-0.4-3.5-2.3-2.2-4.5c1.2-2,2.5-4,3.8-5.9
		C58,57,61.4,51.8,64.8,46.6c1.7-2.6,3.8-2.6,5.5,0C71.6,48.5,72.8,50.4,74.2,52.5z M101.3,66.8c-5-7.8-9.8-15.3-14.8-23
		c-5,7.8-9.8,15.3-14.8,23C81.7,66.8,91.3,66.8,101.3,66.8z M58.3,66.9c2.2,0,4.2,0,6.1,0c0.3,0,0.8-0.4,1-0.8
		c1.7-2.5,3.3-5.1,4.9-7.6c0.2-0.3,0.3-0.9,0.2-1.2c-0.9-1.5-1.9-3-2.9-4.7C64.4,57.5,61.5,62.1,58.3,66.9z"/>
	<path class="st0" d="M79.8,82.6c8.4,0,16.8,0,25.2,0c0.4,0,0.8,0,1.2,0c2.2,0.1,3.3,1.1,3.3,2.9c0,1.7-1.2,2.8-3.3,2.8
		c-17.5,0-35,0-52.4,0c-2.2,0-3.5-1.2-3.5-2.9c0-1.7,1.4-2.7,3.5-2.8C62.4,82.6,71.1,82.6,79.8,82.6z"/>
	<path class="st0" d="M79.9,95c-8.5,0-17.1,0-25.6,0c-2.6,0-4-1-4.1-2.8c0-1.9,1.4-2.9,4.1-2.9c16.8,0,33.7,0,50.5,0
		c0.8,0,1.6,0,2.3,0.2c1.5,0.3,2.2,1.2,2.3,2.6c0,1.5-0.8,2.5-2.3,2.8c-0.6,0.1-1.2,0.1-1.7,0.1C96.9,95,88.4,95,79.9,95z"/>
	<path class="st0" d="M79.9,101.6c-4.1,0-8.1,0-12.2,0c-0.8,0-1.7-0.1-2.4-0.3c-1.2-0.4-1.7-1.4-1.7-2.6c0-1.2,0.6-2.1,1.8-2.4
		c0.6-0.2,1.3-0.3,2-0.3c8.3,0,16.6,0,24.9,0c2.5,0,3.7,1.1,3.7,3c-0.1,1.6-1,2.5-2.8,2.6c-2.9,0.1-5.8,0.1-8.6,0.1
		C83,101.6,81.5,101.6,79.9,101.6z"/>
	<path class="st0" d="M57.5,41.4c-4,0-7.3-3.3-7.3-7.3c0-4,3.4-7.4,7.4-7.3c4,0.1,7.2,3.4,7.2,7.4C64.8,38.1,61.5,41.4,57.5,41.4z
		 M57.9,32.3c-0.2,0-0.5,0-0.7,0c-0.4,0.6-1.1,1.1-1.3,1.7c-0.2,1,0.5,1.8,1.5,1.6c0.6-0.1,1.4-0.9,1.5-1.5
		C59.1,33.6,58.3,32.9,57.9,32.3z"/>
</g>
</svg>
