<?xml version="1.0" encoding="utf-8"?>
<!-- Generator: Adobe Illustrator 23.0.3, SVG Export Plug-In . SVG Version: 6.00 Build 0)  -->
<svg version="1.1" id="Layer_1" xmlns="http://www.w3.org/2000/svg" xmlns:xlink="http://www.w3.org/1999/xlink" x="0px" y="0px"
	 viewBox="0 0 144 144" style="enable-background:new 0 0 144 144;" xml:space="preserve">
<style type="text/css">
	.st0{fill:#217091;}
</style>
<g>
	<path class="st0" d="M17.5,58.9c1.2-5.7,1.9-11.3,3.5-16.6c3-10.7,9.5-19.1,18.2-25.9c1.2-0.9,2-1.9,2-3.5c0-2.4,1.5-4.1,3.5-5.3
		c6.1-3.6,12.7-6,19.7-7C76.4-1.1,87.9,1,98.6,7c2.7,1.5,4.3,3.7,4.6,6.8c0.1,0.7,0.7,1.6,1.3,2.1c9.9,7.6,16.6,17.4,19.6,29.6
		c0.9,3.9,1.4,7.9,1.9,11.8c0.2,1.1,0.5,1.5,1.6,1.8c7.1,1.6,11.3,6.6,11.4,13.9c0.1,4,0.1,8,0,12c-0.2,6.1-3.1,10.4-8.7,12.8
		c-1.1,0.5-1.7,1-2,2.2c-1,3.7-4.1,6-8,6.1c-2.7,0.1-5.3,0-8.2,0c0,2.6,0.1,5.2,0,7.7c-0.1,1.6-0.4,3.4-1,4.9
		c-3,7.2-3,14.2,0.5,21.2c1.2,2.5,0.3,3.9-2.4,4.1c-0.4,0-0.8,0-1.2,0c-19.9,0-39.9,0-59.8,0c-5.3,0-9.9-1.6-13.2-6
		c-2-2.7-3-5.8-3.1-9.1c0-6.4,0-12.9,0-19.3c0-20.8,0-41.6,0-62.3c0-6.7,2.7-11.9,8.6-15.2c2.6-1.5,5.5-2.1,8.5-2.1
		c19.8,0,39.7,0,59.5,0c3,0,3.6,0.7,3.6,3.7c0,21.8,0,43.6,0,65.5c0,0.6,0,1.3,0,2c3.2,0,6.3,0.1,9.4-0.1c0.7,0,1.3-1,2-1.5
		c-0.1-0.2-0.1-0.3-0.2-0.5c-1.2,0-2.4,0-3.6,0c-3.2,0-3.9-0.6-3.9-3.8c0-10.9,0-21.8,0-32.7c0-3.1,0.6-3.7,3.7-3.8
		c0.3,0,0.7,0,1.1,0c0-2,0.2-4,0-5.9c-1.8-13.1-7.7-24-18.1-32.2c-1-0.8-1.8-1.1-3-0.3c-2.8,1.8-5.6,1.5-8.5-0.1
		c-12.6-6.9-25.2-6.8-37.8-0.1c-3.6,1.9-6.9,2.1-10-0.8c-13,10-19.7,23-20.1,39.4c1,0.1,1.9,0,2.8,0.2c1.6,0.2,2.2,0.9,2.4,2.5
		c0,0.4,0,0.8,0,1.2c0,10.8,0,21.6,0,32.4c0,0.7,0,1.5-0.1,2.2c-0.2,1-0.8,1.8-1.9,1.8c-3.8,0.2-7.5,0.5-11.2-0.6
		C9.4,96.6,5.8,92.8,5.3,87c-0.5-5.1-0.6-10.4-0.1-15.5c0.6-6.7,4.6-10.8,11.2-12.3C16.8,59,17.3,58.9,17.5,58.9z M107.1,34.8
		c-0.8,0-1.4,0-2.1,0c-18.7,0-37.4,0-56.1,0c-7.3,0-12.2,4.9-12.2,12.2c0,23,0,45.9,0,68.9c0,0.5,0,0.9,0,1.7
		c3.8-3.2,8.1-4.1,12.7-4.1c18.8,0.1,37.5,0,56.3,0c0.5,0,1,0,1.5,0c0-2.6,0-4.9,0-7.4c-0.9,0-1.7,0.1-2.5,0
		c-1.6-0.2-2.4,0.3-3.1,1.9c-1.5,3.3-5,5-8.9,4.7c-3.4-0.3-6.6-2.9-7.6-6.2c-1.1-3.6,0.1-7.4,2.9-9.6c4.6-3.7,11.1-2.2,13.8,3.1
		c0.3,0.5,0.8,1.3,1.3,1.3c1.2,0.2,2.5,0.1,3.9,0.1C107.1,79.1,107.1,57.1,107.1,34.8z M106,118.4c-0.8,0-1.3,0-1.9,0
		c-16.5,0-33,0-49.6,0c-2.4,0-4.9-0.1-7.3,0c-7.4,0.3-12.2,6.9-10,13.7c1.4,4.4,5.3,7.1,10.4,7.1c19,0,38,0,57,0
		c0.4,0,0.7-0.1,1.3-0.1C103.4,132.1,103.5,125.4,106,118.4z M120.8,94c1.4,0,2.8,0,4.1,0c5.3-0.2,9.2-3.9,9.4-9.2c0.1-4,0.1-8,0-12
		c-0.1-4.2-2.8-7.7-6.6-8.7c-2.2-0.5-4.5-0.4-6.8-0.6C120.8,73.8,120.8,83.8,120.8,94z M23.2,93.8c0-10,0-20.1,0-30.2
		c-1.3,0-2.6,0-3.8,0c-5.5,0.1-9.5,3.9-9.6,9.4c-0.1,3.9-0.1,7.8,0,11.7c0.1,4.7,3.1,8.3,7.5,9C19.2,94.1,21.2,93.8,23.2,93.8z
		 M70.6,4.8c-2,0.3-5.8,0.6-9.6,1.3c-4.9,0.9-9.5,3-13.8,5.5c-1.5,0.9-1.8,2.2-1,3.7c0.8,1.4,2,1.7,3.5,1c0.7-0.3,1.3-0.7,2-1
		c10.2-5.2,20.9-6.7,32-3.4c3.5,1.1,6.8,2.8,10.2,4.3c2.1,0.9,3.9,0.3,4.2-1.8c0.3-1.6-0.7-2.4-1.9-3C88.9,7.1,81,4.9,70.6,4.8z
		 M97.8,103.8c0-2.3-1.9-4.2-4.1-4.1c-2.2,0-4.1,2-4.1,4.2c0,2.2,1.9,4.1,4.1,4.1C95.9,107.9,97.8,106.1,97.8,103.8z"/>
	<path class="st0" d="M97.3,76.4c0,13.9-11.4,25.2-25.2,25.2c-14,0-25.3-11.4-25.3-25.3c0-13.9,11.4-25.1,25.3-25.1
		C86,51.2,97.3,62.6,97.3,76.4z M72,96.7c11.2,0,20.3-9,20.4-20.2C92.5,65.3,83.3,56.1,72,56c-11-0.1-20.3,9.2-20.3,20.3
		C51.5,87.5,60.7,96.6,72,96.7z"/>
	<path class="st0" d="M72,121.9c8.3,0,16.5,0,24.8,0c1.5,0,3.1,1.3,3.1,2.4c0,1.3-1.6,2.5-3.1,2.5c-16.4,0-32.8,0-49.2,0
		c-0.7,0-1.7,0-2.1-0.5c-0.6-0.6-1.3-1.7-1.2-2.4c0.2-1.2,1.2-2.1,2.7-2.1c7,0,13.9,0,20.9,0C69.3,121.9,70.7,121.9,72,121.9
		C72,121.9,72,121.9,72,121.9z"/>
	<path class="st0" d="M72,130.8c8.2,0,16.3,0,24.5,0c0.4,0,0.9,0,1.3,0c1.3,0.2,1.9,1,2.1,2.2c0.2,1-0.8,2.3-1.9,2.5
		c-0.4,0.1-0.9,0.1-1.3,0.1c-16,0-31.9,0-47.9,0c-0.8,0-1.7,0-2.5-0.1c-1.4-0.1-2.2-1-2.2-2.3c0-1.4,0.7-2.2,2.1-2.4
		c0.5-0.1,1.1,0,1.6,0C55.9,130.8,63.9,130.8,72,130.8C72,130.8,72,130.8,72,130.8z"/>
	<path class="st0" d="M62.8,76.5c0-3.4,0-6.7,0-10.1c0-3.3,1.7-4.3,4.6-2.6c5.5,3.2,11.1,6.5,16.6,9.7c0.3,0.2,0.5,0.3,0.8,0.5
		c2.3,1.5,2.3,3.3-0.1,4.8c-2.4,1.5-4.8,2.9-7.3,4.3c-3.3,1.9-6.6,3.9-10,5.9c-2.9,1.7-4.6,0.7-4.6-2.7C62.8,83,62.8,79.7,62.8,76.5
		z M67.9,69.8c0,4.5,0,8.7,0,13.3c3.8-2.2,7.5-4.4,11.3-6.6C75.3,74.1,71.7,72,67.9,69.8z"/>
</g>
</svg>
