<?xml version="1.0" encoding="utf-8"?>
<!-- Generator: Adobe Illustrator 17.0.0, SVG Export Plug-In . SVG Version: 6.00 Build 0)  -->
<!DOCTYPE svg PUBLIC "-//W3C//DTD SVG 1.1//EN" "http://www.w3.org/Graphics/SVG/1.1/DTD/svg11.dtd">
<svg version="1.1" id="Layer_1" xmlns="http://www.w3.org/2000/svg" xmlns:xlink="http://www.w3.org/1999/xlink" x="0px" y="0px"
	 width="144px" height="144px" viewBox="0 0 144 144" enable-background="new 0 0 144 144" xml:space="preserve">
<g>
	<g>
		<path fill="#ffffff" d="M67.332,103.416c0.844,1.651,0.871,3.214-0.248,4.734c-1.524,2.069-4.445,2.452-6.283,0.665
			c-3.35-3.258-6.65-6.568-9.912-9.913c-1.51-1.548-1.5-3.635-0.155-5.48c1.152-1.58,3.21-2.083,5.096-1.245
			c0.14,0.062,0.283,0.116,0.517,0.211c0.435-0.77,0.879-1.537,1.306-2.314c6.893-12.551,13.782-25.103,20.679-37.652
			c0.243-0.443,0.358-0.833,0.211-1.365c-0.514-1.865,0.313-3.72,2.028-4.727c1.659-0.974,3.631-0.757,5.025,0.631
			c5.713,5.689,11.41,11.393,17.111,17.094c3.359,3.359,6.733,6.703,10.065,10.087c2.179,2.213,1.285,5.978-1.677,6.937
			c-0.781,0.253-1.703,0.061-2.56,0.091c-0.36,0.012-0.778-0.038-1.07,0.122c-6.028,3.286-12.041,6.597-18.057,9.905
			c-0.176,0.097-0.346,0.207-0.637,0.383c0.56,0.56,1.076,1.075,1.59,1.591c1.825,1.831,1.834,3.931,0.019,5.749
			c-3.284,3.289-6.569,6.576-9.856,9.86c-1.894,1.892-3.952,1.884-5.86-0.018c-1.764-1.758-3.524-3.521-5.284-5.283
			C68.459,102.557,68.461,102.556,67.332,103.416z M80.349,53.784c-0.16,0.248-0.262,0.388-0.345,0.539
			c-1.989,3.612-3.977,7.225-5.962,10.84c-5.178,9.43-10.353,18.861-15.537,28.287c-0.211,0.384-0.363,0.657,0.049,1.06
			c2.238,2.191,4.446,4.413,6.65,6.638c0.305,0.308,0.543,0.352,0.928,0.129c1.175-0.68,2.375-1.316,3.565-1.969
			c11.832-6.498,23.664-12.995,35.495-19.495c0.234-0.129,0.453-0.285,0.727-0.46C97.371,70.806,88.899,62.334,80.349,53.784z
			 M94.824,64.894c4.357,4.357,8.713,8.714,13.072,13.068c0.235,0.235,0.476,0.474,0.75,0.656c0.843,0.559,1.74,0.435,2.425-0.303
			c0.657-0.709,0.715-1.583,0.126-2.377c-0.228-0.307-0.501-0.583-0.773-0.855c-8.675-8.679-17.352-17.356-26.032-26.03
			c-0.235-0.234-0.487-0.46-0.762-0.643c-0.686-0.456-1.513-0.395-2.139,0.127c-1.009,0.842-1.002,2.016,0.047,3.067
			C85.964,56.038,90.395,60.465,94.824,64.894z M70.769,101.464c2.066,2.066,4.045,4.07,6.059,6.041
			c0.484,0.474,1.181,0.381,1.721-0.158c3.453-3.44,6.902-6.886,10.342-10.339c0.6-0.602,0.592-1.29,0.006-1.902
			c-0.585-0.611-1.224-1.174-1.785-1.806c-0.393-0.443-0.697-0.477-1.231-0.181c-4.429,2.462-8.881,4.884-13.324,7.322
			C71.982,100.758,71.418,101.093,70.769,101.464z M57.58,102.236c1.526,1.526,3.049,3.053,4.578,4.576
			c0.899,0.895,1.998,0.967,2.794,0.193c0.828-0.804,0.781-1.936-0.134-2.853c-3.084-3.091-6.172-6.178-9.262-9.263
			c-0.897-0.896-1.999-0.965-2.795-0.191c-0.828,0.805-0.78,1.932,0.135,2.852C54.454,99.115,56.019,100.674,57.58,102.236z"/>
	</g>
	<g>
		<path fill="#ffffff" d="M9.493,133.519c0-41.013,0-82.026,0-123.039c0.093-0.158,0.232-0.304,0.271-0.474
			c1.51-6.531,5.771-9.976,12.406-9.977C58.498,0.023,94.826,0.033,131.153,0c1.511-0.001,2.648,0.352,3.354,1.732
			c0,0.376,0,0.753,0,1.129c-0.68,1.085-1.557,1.622-2.935,1.753c-4.019,0.384-6.749,3.445-6.748,7.279
			c0,3.848,2.71,6.887,6.741,7.277c1.376,0.133,2.255,0.674,2.942,1.752c0,40.449,0,80.897,0,121.346
			c-0.705,1.38-1.844,1.736-3.354,1.733c-19.033-0.039-38.067-0.025-57.101-0.025c-17.389,0-34.777,0.009-52.166-0.008
			c-5.911-0.006-10.419-3.402-11.901-8.872C9.841,134.563,9.658,134.044,9.493,133.519z M129.783,81.586
			c0-18.761-0.014-37.521,0.03-56.282c0.003-1.289-0.415-1.559-1.606-1.558c-31.079,0.028-62.159,0.029-93.238-0.001
			c-1.247-0.001-1.575,0.374-1.574,1.605c0.031,37.427,0.032,74.855-0.001,112.282c-0.001,1.356,0.259,1.867,1.763,1.865
			c30.938-0.045,61.877-0.034,92.815-0.036c1.809,0,1.813-0.01,1.813-1.875C129.785,118.919,129.784,100.253,129.783,81.586z
			 M14.221,21.596c0,0.596,0,1.096,0,1.596c-0.001,9.641-0.003,19.282-0.003,28.923c-0.001,26.619-0.004,53.238,0.002,79.857
			c0.001,3.767,2.39,6.755,6.123,7.277c2.263,0.317,4.595,0.101,6.891,0.229c1.244,0.069,1.752-0.352,1.567-1.592
			c-0.041-0.276-0.003-0.563-0.003-0.846c-0.002-37.201-0.01-74.401,0.02-111.602c0.001-1.255-0.275-1.737-1.617-1.699
			C22.809,23.865,18.368,24.156,14.221,21.596z M122.58,4.535c-0.973,0-1.579,0-2.185,0c-8.701,0.002-17.402,0.007-26.103,0.006
			c-23.892,0-47.785-0.008-71.677,0.013c-1.114,0.001-2.274,0.095-3.332,0.413c-3.48,1.046-5.599,4.585-5.003,8.147
			c0.613,3.663,3.746,6.138,7.816,6.139c32.969,0.003,65.939,0.002,98.908-0.003c0.439,0,0.877-0.062,1.553-0.114
			C119.369,14.256,119.46,9.518,122.58,4.535z"/>
		<path fill="#ffffff" d="M67.059,14.155c-14.578,0-29.156,0-43.734-0.001c-0.611,0-1.224,0.01-1.834-0.023
			c-1.331-0.074-2.277-0.989-2.298-2.192c-0.022-1.253,0.954-2.269,2.352-2.282c4.138-0.037,8.276-0.022,12.415-0.022
			c25.911,0.001,51.822,0.004,77.734,0.003c2.381,0,3.501,0.723,3.488,2.291c-0.012,1.516-1.087,2.217-3.402,2.217
			c-14.907,0-29.814,0-44.722,0C67.059,14.149,67.059,14.152,67.059,14.155z"/>
	</g>
</g>
</svg>
