<?xml version="1.0" encoding="utf-8"?>
<!-- Generator: Adobe Illustrator 23.0.3, SVG Export Plug-In . SVG Version: 6.00 Build 0)  -->
<svg version="1.1" id="Layer_1" xmlns="http://www.w3.org/2000/svg" xmlns:xlink="http://www.w3.org/1999/xlink" x="0px" y="0px"
	 viewBox="0 0 144 144" style="enable-background:new 0 0 144 144;" xml:space="preserve">
<style type="text/css">
	.st0{fill:#02D463;}
</style>
<g>
	<path class="st0" d="M122.8,144c-6.1,0-11.9,0-18,0c-1.6-13.9-3.1-27.8-4.6-41.7c-18.8,0-37.5,0-56.4,0
		c-1.5,13.9-3.1,27.7-4.6,41.7c-6,0-11.9,0-18,0c-1.5-13.9-3.1-27.7-4.6-41.7c-1.8,0-3.5,0-5.2,0C4.9,102.1-0.3,96.7,0,90.3
		c0.2-4.2,2.2-7.5,5.8-9.6c0.9-0.5,1.1-1.1,1.1-2c0-20.9,0-41.8,0-62.7c0-0.6,0-1.1,0-1.8c7.8,0,15.4,0,23.1,0
		c0.1,0.4,0.1,0.9,0.2,1.4c6.2-2.3,12.4-4.5,18.7-6.8c6.9,18.9,13.7,37.7,20.5,56.5c0.1,0,0.2,0,0.3,0c0-7.7,0-15.4,0-23.3
		c5.4,0,10.7,0,16.1,0c-0.6-1.6-1.4-3-1.8-4.5c-1.2-5,1-10.1,5.5-12.6c0.8-0.5,1.1-1,1.1-1.9c-0.1-2.9,0-5.8,0-8.9
		c0.6,0,1.1,0,1.6,0c3.1,0,6.1-0.1,9.1,0c1.4,0.1,2.1-0.5,2.6-1.7c1.5-3.2,3.1-6.3,4.7-9.5c0.2-0.5,0.5-0.9,0.8-1.5
		c1.4,0.7,2.6,1.3,4,2c-1.7,3.5-3.4,6.9-5.2,10.5c1.9,0,3.6,0,5.5,0c0,0.9,0,1.6,0,2.4c0,1.2,0.1,2.3,0,3.5
		c-0.3,2.7,0.3,4.6,2.9,6.4c4.4,3.1,5.3,9.3,2.7,14.1c-0.2,0.5-0.5,0.9-0.9,1.5c5.5,0,10.8,0,16.2,0c0,0.7,0,1.3,0,1.8
		c0,11.4,0,22.8,0,34.1c0,1,0.2,1.5,1.3,1.8c5.2,1.6,8.7,7,8,12.2c-0.8,5.9-5.4,10.1-11.1,10.3c-1.7,0.1-3.5,0-5.3,0
		C125.9,116.2,124.4,130,122.8,144z M118.6,97.7c0.5,0,1,0,1.5,0c4.1,0,8.1,0.1,12.2-0.1c1.4-0.1,3-0.5,4.2-1.3
		c2.6-1.6,3.6-4.9,2.6-7.8c-0.9-2.9-3.6-4.9-6.8-4.9c-25.9,0-51.9,0-77.8,0c-14.2,0-28.4,0-42.6,0c-3.4,0-6,1.9-7,4.9
		c-1.5,4.7,2,9.2,7.1,9.2c33.3,0,66.6,0,99.9,0c0.6,0,1.1,0,1.8,0c0,1.6,0,3,0,4.6c-3,0-5.9,0-9,0c0.4,3.4,0.7,6.7,1.1,10.2
		c2.5-2,5-3.1,7.9-3.1c2.9,0,5.5,1.2,8,3.1c0.4-3.5,0.7-6.8,1.1-10.1c-1.6,0-2.9,0-4.3,0C118.6,100.7,118.6,99.2,118.6,97.7z
		 M33.1,19.3c6.9,19,13.7,37.8,20.6,56.8c4.4-1.6,8.7-3.2,13.1-4.8c-6.9-19-13.7-37.8-20.6-56.8C41.8,16.2,37.5,17.7,33.1,19.3z
		 M25.5,79c0-20.2,0-40.3,0-60.3c-4.7,0-9.2,0-13.8,0c0,20.2,0,40.3,0,60.3C16.3,79,20.8,79,25.5,79z M74.3,60.4
		c18.7,0,37.2,0,55.7,0c0-4.7,0-9.2,0-13.8c-18.6,0-37.2,0-55.7,0C74.3,51.2,74.3,55.8,74.3,60.4z M74.3,79c18.7,0,37.2,0,55.7,0
		c0-4.7,0-9.2,0-13.8c-18.6,0-37.2,0-55.7,0C74.3,69.8,74.3,74.4,74.3,79z M30.4,25.4c-0.1,0-0.1,0-0.2,0.1c0,17.8,0,35.7,0,53.5
		c6.5,0,13,0,19.6,0C43.3,61,36.9,43.2,30.4,25.4z M95.2,27.7c-0.9,0.2-1.5,0.3-2.2,0.5c-3.2,1-5.2,4.2-4.8,7.6
		c0.4,3.2,3.2,6,6.4,6.1c5,0.1,10,0.1,14.9,0c3.6-0.1,6.4-3.1,6.6-6.7c0.1-3.9-2.3-6.6-7-7.4c0-3,0-6,0-9.1c-4.7,0-9.3,0-14,0
		C95.2,21.7,95.2,24.7,95.2,27.7z M30.1,127.9c4,0,7.1-3.1,7.1-7.2c0-3.7-3.2-6.8-6.9-6.8c-3.8,0-7,3.1-7.1,6.8
		C23.1,124.7,26.2,127.9,30.1,127.9z M113.9,113.9c-3.9,0-7.1,3-7.1,6.8c0,4,3,7.2,6.9,7.2c3.9,0,7-3.1,7.1-7.1
		C120.9,117.1,117.7,113.9,113.9,113.9z M39.2,102.3c-6.2,0-12.1,0-18.2,0c0.4,3.3,0.7,6.6,1.1,10c5.4-4,10.5-4,15.9,0
		C38.5,108.9,38.9,105.7,39.2,102.3z M25.2,139.4c3.4,0,6.6,0,9.9,0c0.3-2.8,0.6-5.6,0.9-8.6c-4,2.2-7.8,2.1-11.8,0
		C24.6,133.9,24.9,136.6,25.2,139.4z M118.8,139.4c0.3-2.9,0.6-5.6,0.9-8.6c-4.1,2.2-7.8,2.1-11.8,0.1c0.3,3,0.7,5.8,1,8.5
		C112.2,139.4,115.4,139.4,118.8,139.4z M59.6,78.8c0,0.1,0,0.1,0,0.2c3.3,0,6.6,0,10,0c0-1.3,0-2.5,0-3.9
		C66.2,76.4,62.9,77.6,59.6,78.8z"/>
	<path class="st0" d="M60.5,61.3c0.5,1.5,1,2.8,1.6,4.2c-2.8,1-5.6,2.1-8.5,3.1c-0.5-1.4-1-2.8-1.6-4.3
		C54.8,63.3,57.6,62.3,60.5,61.3z"/>
	<path class="st0" d="M47.2,51.2c-0.5-1.5-1-2.8-1.6-4.3c2.9-1.1,5.6-2.1,8.5-3.1c0.5,1.4,1,2.7,1.6,4.2
		C52.9,49.1,50.2,50.1,47.2,51.2z"/>
	<path class="st0" d="M57.4,52.5c0.5,1.5,1,2.8,1.6,4.3c-2.9,1.1-5.7,2.1-8.6,3.1c-0.5-1.5-1-2.8-1.6-4.3
		C51.6,54.6,54.4,53.6,57.4,52.5z"/>
	<path class="st0" d="M14,48.9c3,0,6,0,9,0c0,1.5,0,2.9,0,4.4c-3,0-5.9,0-9,0C14,51.9,14,50.5,14,48.9z"/>
	<path class="st0" d="M14,58.2c3,0,5.9,0,9,0c0,1.4,0,2.8,0,4.4c-2.9,0-5.9,0-9,0C14,61.2,14,59.8,14,58.2z"/>
	<path class="st0" d="M14,71.9c0-1.6,0-2.9,0-4.4c3,0,6,0,9.1,0c0,1.5,0,2.9,0,4.4C20,71.9,17.1,71.9,14,71.9z"/>
	<path class="st0" d="M102.3,48.9c1.5,0,2.9,0,4.4,0c0,3,0,6,0,9.1c-1.5,0-2.9,0-4.4,0C102.3,55,102.3,52,102.3,48.9z"/>
	<path class="st0" d="M116,58c-1.5,0-2.9,0-4.4,0c0-3,0-6,0-9.1c1.5,0,2.9,0,4.4,0C116,52,116,54.9,116,58z"/>
	<path class="st0" d="M120.9,48.9c1.5,0,2.9,0,4.4,0c0,3,0,6,0,9c-1.4,0-2.8,0-4.4,0C120.9,55.1,120.9,52.1,120.9,48.9z"/>
	<path class="st0" d="M102.3,67.5c1.5,0,2.9,0,4.4,0c0,3,0,6,0,9.1c-1.5,0-2.9,0-4.4,0C102.3,73.6,102.3,70.6,102.3,67.5z"/>
	<path class="st0" d="M111.6,76.6c0-3,0-6,0-9c1.4,0,2.9,0,4.4,0c0,2.9,0,5.9,0,9C114.6,76.6,113.2,76.6,111.6,76.6z"/>
	<path class="st0" d="M125.3,76.6c-1.5,0-2.9,0-4.4,0c0-3,0-6,0-9.1c1.4,0,2.9,0,4.4,0C125.3,70.5,125.3,73.5,125.3,76.6z"/>
</g>
</svg>
