<?xml version="1.0" encoding="utf-8"?>
<!-- Generator: Adobe Illustrator 23.0.3, SVG Export Plug-In . SVG Version: 6.00 Build 0)  -->
<svg version="1.1" id="Layer_1" xmlns="http://www.w3.org/2000/svg" xmlns:xlink="http://www.w3.org/1999/xlink" x="0px" y="0px"
	 viewBox="0 0 144 144" style="enable-background:new 0 0 144 144;" xml:space="preserve">
<style type="text/css">
	.st0{fill:#217091;}
</style>
<g>
	<g>
		<path class="st0" d="M106.3,92.6c0,3.2,0.1,6.3,0,9.5c0,1.7-0.3,3.4-0.6,5c-0.7,3.6-2.2,6.9-4.3,9.9c-1.2,1.7-2.5,3.3-4.1,4.6
			c-2.6,2.2-5.4,4.2-8.1,6.3c-1.9,1.4-3.7,2.9-5.6,4.3c-1,0.7-1.6,0.7-2.5,0c-1.9-1.5-3.8-2.9-5.7-4.4c-2.4-1.8-4.8-3.6-7.2-5.5
			c-3-2.4-5.3-5.4-7-8.9c-1.1-2.3-2-4.6-2.4-7.1c-0.3-1.7-0.4-3.5-0.4-5.2c-0.1-3.9,0-7.8-0.1-11.7c0-2.6,0-5.2,0-7.7
			c0-0.7,0.5-1.1,1.2-1.1c2.8,0,5.6-0.3,8.3-1c3.4-0.9,6.7-2.2,9.7-4.2c1.4-0.9,2.7-1.9,3.8-3c0.5-0.5,1.4-0.6,1.9-0.1
			c1.8,1.9,3.9,3.3,6.2,4.5c2.2,1.2,4.5,2,6.9,2.6c2.2,0.5,4.4,1,6.7,1c0.7,0,1.5,0.1,2.2,0.1c0.6,0,1,0.5,1,1.1c0,1.9,0,3.7,0,5.6
			C106.3,89.1,106.3,90.9,106.3,92.6C106.3,92.6,106.3,92.6,106.3,92.6z M60.7,82.9c0,0.2,0,0.4,0,0.5c0,6,0,12.1,0,18.1
			c0,1.7,0.2,3.4,0.5,5.1c1.2,5.7,4.1,10.4,8.6,14.1c3.1,2.5,6.3,4.9,9.5,7.3c1,0.8,2,1.5,3,2.3c3.3-2.5,6.5-5,9.7-7.4
			c2.3-1.7,4.5-3.4,6.3-5.7c3.5-4.4,5.5-9.4,5.6-15c0.1-6.3,0-12.6,0-18.8c0-0.1,0-0.3,0-0.5c-8.1-0.3-15.5-2.7-21.6-8.2
			C76.1,80.2,68.8,82.6,60.7,82.9z"/>
		<path class="st0" d="M62.8,94.8c0-2.8,0-5.6,0-8.3c0-1.2,0.2-1.5,1.5-1.7c4.7-0.5,9.1-1.8,13.2-4.1c1.4-0.8,2.7-1.6,4-2.5
			c0.8-0.5,1.1-0.5,1.8,0c5.1,3.7,10.8,5.8,17.1,6.6c1.4,0.2,1.6,0.4,1.6,1.8c0,4.8,0,9.6,0,14.4c0,7.9-3.2,14.3-9.5,19.1
			c-3,2.3-6,4.6-9.1,6.9c-0.9,0.7-1.2,0.7-2.1,0c-3.2-2.4-6.3-4.8-9.4-7.2c-5.8-4.5-8.8-10.5-9.1-17.9
			C62.7,99.4,62.8,97.1,62.8,94.8C62.8,94.8,62.8,94.8,62.8,94.8z M65,95.1C65,95.1,65,95.1,65,95.1c0,2.4-0.1,4.8,0,7.2
			c0.3,6,2.7,11.1,7.3,14.9c3.1,2.6,6.4,4.9,9.6,7.4c0.4,0.3,0.6,0.2,0.9-0.1c2.8-2.2,5.6-4.3,8.4-6.4c5.5-4.3,8.4-9.9,8.4-16.9
			c0-4.6,0-9.1,0-13.7c0-0.5-0.1-0.6-0.6-0.7C93.1,86,87.7,84,82.7,80.6c-0.3-0.2-0.5-0.2-0.8,0C77,84,71.5,86,65.6,86.9
			c-0.5,0.1-0.6,0.2-0.6,0.7C65,90.1,65,92.6,65,95.1z"/>
		<path class="st0" d="M82.3,112.2c-1.4,0-2.9,0-4.3,0c-1,0-1.5-0.5-1.2-1.6c0.6-2.5,1.2-5.1,1.8-7.6c0.1-0.5,0.1-0.8-0.4-1.1
			c-2.6-2.1-3.2-5.7-1.5-8.5c1.8-2.8,5.3-3.9,8.3-2.5c4.4,2,5.2,7.9,1.4,11c-0.4,0.4-0.5,0.7-0.4,1.2c0.6,2.3,1.1,4.7,1.7,7
			c0,0.2,0.1,0.3,0.1,0.5c0.2,1-0.2,1.6-1.2,1.6C85.2,112.2,83.8,112.2,82.3,112.2z M85.4,110c0-0.2-0.1-0.4-0.1-0.6
			c-0.5-2.3-1.1-4.6-1.6-6.9c-0.3-1.1-0.2-1.3,0.8-1.9c1.6-0.9,2.5-2.8,2.1-4.5c-0.4-2-2.1-3.4-4.1-3.5c-1.9-0.1-3.8,1.3-4.3,3.1
			c-0.6,1.9,0.3,3.9,2,5c0.9,0.5,1,0.8,0.8,1.9c-0.6,2.3-1.1,4.6-1.6,6.9c0,0.2,0,0.4-0.1,0.6C81.3,110,83.3,110,85.4,110z"/>
	</g>
	<g>
		<path class="st0" d="M9.6,71.9c0-9.2,0-18.4,0-27.7c0-9.6,0-19.3,0-28.9c0-2.4,0.1-4.9,0.6-7.3c0.9-4,5.4-8,10.3-8
			c37.1,0,74.2,0,111.3,0c1.8,0,2.6,0.6,2.7,1.9c0.3,2.3-1.1,3-2.6,3.2c-3.7,0.5-5.7,2.2-6.7,5.5c-0.8,2.6,1.1,7.2,5,8.2
			c0.6,0.2,1.2,0.2,1.8,0.3c1.5,0,2.4,0.8,2.5,2.3c0.1,2.4,0.1,4.8,0.1,7.1c0,9.2,0,18.4,0,27.7c0,6.6-0.1,13.2-0.1,19.8
			c0,9.5,0,18.9,0,28.4s0,18.9,0,28.4c0,2.9,0.1,5.7,0,8.6c0,2.1-0.7,2.7-2.7,2.7c-37.1,0-74.3,0-111.4,0c-3.7,0-6.4-2-8.7-4.9
			c-2-2.6-2.2-5.5-2.2-8.6c0-8.9,0-17.9,0-26.8c0-6.3,0.1-12.5,0.1-18.8C9.6,80.6,9.6,76.2,9.6,71.9C9.6,71.9,9.6,71.9,9.6,71.9z
			 M33.9,24.2c0,38.4,0,76.6,0,114.9c31.9,0,63.7,0,95.5,0c0-38.3,0-76.6,0-114.9c-7.9,0-24.9,0-32.9,0c0,0.6,0,1.2,0,1.8
			c0,12.7,0,25.4,0,38.1c0,1.2-0.2,2.3-1.4,2.9c-1.2,0.6-2.3,0.2-3.3-0.7c-3-2.4-6-4.8-9-7.3c-0.7-0.5-1.1-0.5-1.7,0
			c-3,2.5-6.1,4.9-9.1,7.3c-1,0.8-2,1.1-3.2,0.6c-1.2-0.5-1.3-1.6-1.3-2.7c0-11.5,0-22.9,0-34.4c0-1.8,0-3.7,0-5.6
			C53.2,24.2,48.2,24.2,33.9,24.2z M14.6,21.9c0,0.9,0,1.4,0,1.9c0,27,0,54,0,81c0,9,0,18,0,27c0,3.6,2.2,6.6,5.5,7
			c2.8,0.4,5.7,0.1,8.6,0.1c0-38.2,0-76.4,0-114.6C23.9,23.9,19.1,25.1,14.6,21.9z M122.2,19.1c-3-4.9-2.9-9.5,0-14.3
			c-0.8,0-1.4,0-2,0c-21.5,0-42.9,0-64.4,0c-11.2,0-22.5,0-33.7,0c-4.2,0-7.4,2.9-7.5,6.7c-0.1,4.2,2.8,7.4,7,7.6
			c4.1,0.1,8.2,0,12.3,0c19.7,0,48.5,0,86.5,0C120.9,19.1,121.4,19.1,122.2,19.1z M91.5,59.4c0-11.9,0-23.5,0-35.2
			c-6.3,0-12.5,0-18.7,0c0,11.6,0,23.2,0,34.9c0.4-0.2,0.7-0.3,0.9-0.5c2.1-1.7,4.2-3.4,6.3-5.1c1.5-1.2,2.6-1.2,4.1,0
			C86.5,55.4,88.9,57.3,91.5,59.4z"/>
		<path class="st0" d="M67.3,14.4c-14.9,0-29.7,0-44.6,0c-0.5,0-1.1,0-1.6-0.1c-1.2-0.2-1.9-1-1.9-2.1c-0.1-1.2,0.5-2.1,1.7-2.5
			c0.5-0.2,1.1-0.1,1.7-0.1c29.7,0,59.4,0,89.1,0c0.3,0,0.7,0,1,0c1.5,0.1,2.5,1.1,2.5,2.4c0,1.3-1,2.3-2.5,2.4c-4.9,0-9.8,0-14.7,0
			C87.8,14.4,77.5,14.4,67.3,14.4C67.3,14.4,67.3,14.4,67.3,14.4z"/>
	</g>
</g>
</svg>
