<?xml version="1.0" encoding="utf-8"?>
<!-- Generator: Adobe Illustrator 23.0.3, SVG Export Plug-In . SVG Version: 6.00 Build 0)  -->
<svg version="1.1" id="Layer_1" xmlns="http://www.w3.org/2000/svg" xmlns:xlink="http://www.w3.org/1999/xlink" x="0px" y="0px"
	 viewBox="0 0 144 144" style="enable-background:new 0 0 144 144;" xml:space="preserve">
<style type="text/css">
	.st0{fill:#217091;}
</style>
<g>
	<path class="st0" d="M25.8,30.3c0-6.5,0-12.9,0-19.2c0-1.6,0.1-3.2,0.4-4.8c0.4-2.1,1.5-4,3.3-5.2c0.9-0.6,2.1-1.1,3.2-1.1
		c15-0.1,30.1,0,45.1,0c19.6,0,39.2,0,58.8,0c1.5,0,2.7,0.5,3.8,1.5c2.3,2.2,3.5,4.6,3.5,7.9c-0.1,42-0.1,83.9,0,125.9
		c0,3.2-1.4,5.7-3.7,7.6c-0.8,0.6-2,1.1-3,1.1c-34.7,0.1-69.5,0-104.2,0.1c-2.8,0-4.5-1.8-5.5-4c-0.9-1.9-1.3-4.2-1.4-6.3
		c-0.1-6.9,0-13.8,0-20.7C26,96.6,26,80.2,26,63.8c0-1.4-0.4-2.4-1.4-3.4c-7.1-7-14.1-14.1-21.1-21.1c-4.4-4.4-4.4-7-0.1-11.4
		c1.8-1.8,3.6-3.6,5.4-5.4c2.9-2.8,6.1-2.8,8.9,0c2.5,2.5,5.1,5,7.6,7.5C25.4,30.1,25.5,30.1,25.8,30.3z M31.2,66.5
		c-0.2,0.2-0.4,0.3-0.6,0.5c0,0.5,0,1,0,1.5c0,21.9,0,43.8,0,65.7c0,4.3,1.4,5.7,5.7,5.7c32.2,0,64.5,0,96.7,0c0.7,0,1.4,0,2-0.1
		c1.9-0.2,3.2-1.4,3.7-3.3c0.2-0.9,0.3-1.9,0.3-2.9c0-41.3,0-82.7,0-124c0-4-1.4-5.5-5.5-5.5c-32.4,0-64.9,0-97.3,0
		c-4,0-5.5,1.5-5.5,5.5c0,7.8,0,15.6,0,23.5c0,1.5,0.4,2.7,1.5,3.8c10.1,10.2,20.2,20.5,30.2,30.8c0.8,0.8,1.5,2,1.7,3.1
		c1.2,5.2,2.2,10.5,3.3,15.8c0.3,1.7,0.1,1.9-1.6,1.6c-5.3-1.1-10.5-2.2-15.7-3.4c-1.1-0.3-2.3-0.9-3.1-1.7C42,78,37,72.9,31.9,67.9
		C31.6,67.5,31.4,66.9,31.2,66.5z M18,34.6c12.6,12.6,25.2,25.2,37.5,37.5c0.8-0.7,1.6-1.4,2.5-2.2C45.3,57.4,32.8,44.9,20.2,32.4
		C19.5,33.1,18.7,33.9,18,34.6z M51.7,76.4C39,63.7,26.5,51.2,13.8,38.5c-0.6,0.5-1.3,1.1-1.9,1.7c12.7,12.7,25.3,25.3,38,37.9
		C50.4,77.6,51,77.1,51.7,76.4z M16.6,27.8c-0.6-0.6-1.3-1.2-1.9-1.8c-1-1-1.8-1.1-2.8,0c-1.7,1.8-3.5,3.5-5.2,5.3
		c-2.1,2.1-2,2.1-0.1,4.3C7,36,7.4,36.4,7.7,36.8C10.7,33.8,13.6,30.8,16.6,27.8z M61.9,82.2c-0.5-2.4-0.9-4.6-1.3-6.7
		c-1.8,1.8-3.5,3.5-5.3,5.3C57.3,81.3,59.5,81.8,61.9,82.2z"/>
	<path class="st0" d="M96.3,9.8c11.3,0,22.7,0,34,0c1.9,0,2,0,2,1.9c0,14.3,0,28.5,0,42.8c0,1.8-0.1,1.9-1.9,1.9
		c-22.8,0-45.6,0-68.4,0c-1.8,0-1.9-0.1-1.9-1.9c0-14.3,0-28.5,0-42.8c0-1.9,0-2,2-2C73.5,9.8,84.9,9.8,96.3,9.8z M65.1,14.6
		c0,9.7,0,19.3,0,29.1c0.6-0.5,0.9-0.8,1.3-1.2c3.9-3.6,7.8-7.3,11.6-10.9c0.9-0.9,1.6-0.9,2.4,0c1.9,1.9,3.9,3.7,5.9,5.5
		c0.3-0.3,0.6-0.5,0.8-0.8c2.6-2.9,5.2-5.8,7.8-8.7c1.5-1.6,1.5-1.6,3.1-0.1c2.6,2.4,5.2,4.9,7.8,7.3c2.8,2.7,5.7,5.3,8.6,8
		c2-1.8,3.9-3.6,5.7-5.4c1.4-1.4,1.5-1.4,3,0c1.4,1.3,2.9,2.7,4.4,4.1c0-9.2,0-18.1,0-27C106.9,14.6,86.1,14.6,65.1,14.6z M64.7,51
		c0.1,0.1,0.2,0.2,0.3,0.4c20.8,0,41.7,0,62.8,0c-0.2-1.2,0-2.5-0.6-3.2c-1.7-1.9-3.7-3.6-5.6-5.4c-2.1,1.9-4,3.7-5.9,5.6
		c-1,1-1.7,1-2.7,0c-2.4-2.4-5-4.7-7.4-7.1c-3-2.8-5.9-5.5-8.9-8.3c-2.9,3.2-5.7,6.3-8.5,9.4c-1.5,1.7-1.6,1.7-3.2,0.2
		c-1.9-1.8-3.9-3.5-5.9-5.3C74.2,41.9,69.4,46.4,64.7,51z"/>
	<path class="st0" d="M107.6,25.7c0-4,3.1-7.1,7-7.1c3.9,0,7.1,3.2,7.1,7.1c0,3.9-3.2,7.1-7.1,7.1C110.6,32.8,107.6,29.7,107.6,25.7
		z M112.3,25.6c-0.1,1.3,0.8,2.4,2.1,2.5c1.3,0.1,2.4-0.9,2.5-2.1c0.1-1.3-0.9-2.4-2.2-2.5C113.5,23.4,112.4,24.3,112.3,25.6z"/>
</g>
<rect x="74.1" y="63.5" class="st0" width="58.2" height="5.1"/>
<rect x="74.1" y="75.4" class="st0" width="58.2" height="5.1"/>
<rect x="74.1" y="86.9" class="st0" width="58.2" height="5.1"/>
<rect x="37.5" y="98.8" class="st0" width="94.8" height="5.1"/>
<rect x="37.5" y="110.2" class="st0" width="94.8" height="5.1"/>
<rect x="37.5" y="122.1" class="st0" width="94.8" height="5.1"/>
</svg>
