<?xml version="1.0" encoding="utf-8"?>
<!-- Generator: Adobe Illustrator 23.0.3, SVG Export Plug-In . SVG Version: 6.00 Build 0)  -->
<svg version="1.1" id="Layer_1" xmlns="http://www.w3.org/2000/svg" xmlns:xlink="http://www.w3.org/1999/xlink" x="0px" y="0px"
	 viewBox="0 0 144 144" style="enable-background:new 0 0 144 144;" xml:space="preserve">
<style type="text/css">
	.st0{fill:#217091;}
</style>
<g>
	<path class="st0" d="M134.2,71.9c0,23.3,0,46.5,0,69.8c0,2.2,0,2.2-2.3,2.2c-36.1,0-72.2,0-108.3,0c-4.9,0-9.1-1.6-11.8-5.9
		c-1.6-2.5-2-5.3-2-8.2c0-30.3,0-60.5,0-90.8c0-8.4,0-16.9,0-25.3C9.9,6.5,13,2.3,20.1,0.3c0.6-0.2,1.3-0.3,2-0.3
		c36.7,0,73.4,0,110.1,0c1.9,0,1.9,0.1,1.9,2C134.2,25.3,134.2,48.6,134.2,71.9z M129.2,118.3c0-37.9,0-75.6,0-113.4
		c-34.8,0-69.4,0-104.1,0c0,37.8,0,75.6,0,113.4C59.8,118.3,94.4,118.3,129.2,118.3z M129.4,123c-0.7,0-1.3,0-1.8,0
		c-34.5,0-69.1,0-103.6,0c-0.6,0-1.2,0-1.7,0c-3.8,0.2-7,3-7.7,6.5c-1,5.5,2.9,9.8,8.9,9.8c34.8,0,69.6,0,104.4,0c0.5,0,1,0,1.6,0
		C129.4,133.9,129.4,128.6,129.4,123z M20.1,5.2c-0.4,0.1-0.5,0.1-0.6,0.1c-0.2,0.1-0.5,0.2-0.7,0.3c-3.3,1.8-4.4,4.7-4.4,8.3
		c0,35.2,0,70.4,0,105.6c0,0.5,0,0.9,0.1,1.6c1.5-0.8,2.8-1.5,4.1-2.1c1.2-0.5,1.5-1.2,1.5-2.5c0-36.6,0-73.1,0-109.7
		C20.1,6.4,20.1,5.8,20.1,5.2z"/>
	<path class="st0" d="M87.1,129.1c-2.4,0-2.4,0-2.4,2.3c0,2.3,0,2.3,2.2,2.3c2.5,0,2.5,0,2.5-2.3C89.4,129.1,89.4,129.1,87.1,129.1z
		 M105.7,131.4c0-2.2-0.3-2.4-2.3-2.4c-1.6,0-2.5,0.8-2.5,2.3c0,2,0.6,2.5,2.6,2.5C105.7,133.7,105.7,133.7,105.7,131.4z
		 M97.5,131.4c0-2.3,0-2.3-2.2-2.3c-2.5,0-2.5,0-2.5,2.3c0,2.3,0,2.3,2.3,2.3C97.5,133.7,97.5,133.7,97.5,131.4z M111.5,129.1
		c-2.3,0-2.3,0-2.3,2.3c0,2.3,0,2.3,2.3,2.3c2.3,0,2.3,0,2.3-2.3C113.8,129.1,113.8,129.1,111.5,129.1z M119.5,133.7
		c2.4,0,2.4,0,2.4-2.2c0-2.4,0-2.4-2.2-2.4c-2.4,0-2.4,0-2.4,2.3C117.2,133.7,117.2,133.7,119.5,133.7z"/>
	<path class="st0" d="M121,69.4c0,12,0,24,0,36c0,4.1-2.1,7.1-5.6,8c-5,1.4-9.7-1.9-10.1-7.1c0-0.6-0.1-1.2-0.1-1.7
		c0-23.6,0-47.2,0.1-70.8c0-1.2,0.2-2.5,0.7-3.6c1.9-4,3.9-8,6-12c0.2-0.4,0.7-0.8,1-1.1c0.4,0.4,0.9,0.7,1.2,1.1
		c2.1,4.1,4.2,8.2,6.2,12.4c0.4,0.9,0.6,1.9,0.6,2.9C121,45.4,121,57.4,121,69.4z M110.3,40.4c0,18.3,0,36.5,0,54.7c2,0,3.8,0,5.7,0
		c0-18.3,0-36.5,0-54.7C114.1,40.4,112.3,40.4,110.3,40.4z M110.1,100.2c0,2.1-0.1,4,0,5.9c0.1,1.5,1.3,2.6,2.7,2.7
		c1.4,0.1,3-0.8,3.1-2.1c0.2-2.2,0-4.4,0-6.6C114,100.2,112.1,100.2,110.1,100.2z M113.1,27c-1.4,2.8-3.5,5.2-3,8.6c2,0,4,0,6,0
		C116.6,32.2,114.6,29.8,113.1,27z"/>
	<path class="st0" d="M65.5,19.8c-10.6,0-21.1,0-31.7,0c-1.8,0-2.1-0.2-2.2-2.2c-0.1-1.7,0.4-2.4,2.1-2.5c0.5,0,1,0,1.4,0
		c20.5,0,41,0,61.4,0c0.5,0,1.1-0.1,1.6,0.1c0.5,0.2,0.8,0.7,1.2,1.1c0,0,0,0.1,0,0.1c0.3,3.1,0.1,3.4-3,3.4
		C86.1,19.8,75.8,19.8,65.5,19.8z"/>
	<path class="st0" d="M62.1,76.4c-9.5,0-19,0-28.5,0c-1.9,0-1.9,0-1.9-1.9c0-2.7,0-2.7,2.7-2.7c18.7,0,37.4,0,56,0
		c0.7,0,2,0.2,2.1,0.5c0.2,1.2,0.2,2.5,0,3.7c0,0.2-1,0.4-1.5,0.5c-6.2,0-12.4,0-18.6,0C69,76.4,65.6,76.4,62.1,76.4z"/>
	<path class="st0" d="M59.7,53.8c-8.6,0-17.2,0-25.9,0c-0.6,0-1.8-0.3-1.8-0.6c-0.2-1.2-0.1-2.5,0.1-3.7c0-0.2,1-0.3,1.6-0.3
		c6.9,0,13.8,0,20.7,0c10.3,0,20.6,0,30.9,0c2.4,0,2.4,0,2.4,2.4c0,2.2,0,2.2-2.2,2.2c-0.3,0-0.7,0-1,0C76.2,53.8,68,53.8,59.7,53.8
		z"/>
	<path class="st0" d="M58.1,99c-8,0-16.1,0-24.1,0c-2.3,0-2.3,0-2.3-2.4c0-1.9,0.4-2.3,2.4-2.3c8,0,16.1,0,24.1,0
		c8.2,0,16.4,0,24.6,0c1.8,0,1.9,0.1,1.9,1.9c0,0.3,0,0.6,0,0.9c0,1.8-0.2,1.9-1.9,1.9C74.6,99,66.4,99,58.1,99z"/>
	<path class="st0" d="M54.7,31c-6.9,0-13.9,0-20.8,0c-1.8,0-2.1-0.2-2.2-1.9c-0.1-2.1,0.3-2.6,2-2.8c0.6-0.1,1.3-0.1,1.9-0.1
		c13.2,0,26.4,0,39.6,0c2.2,0,2.2,0,2.2,2.1c0,0.3,0,0.7,0,1c0.1,1.2-0.4,1.6-1.6,1.6c-3.4,0-6.7,0-10.1,0C62,31,58.3,31,54.7,31z"
		/>
	<path class="st0" d="M50.7,105.8c5.6,0,11.3,0,16.9,0c1.9,0,2,0.1,2,1.9c0,0.5,0.2,1,0,1.4c-0.2,0.5-0.7,0.9-1.2,1.3
		c-0.2,0.1-0.6,0-0.8,0c-11.2,0-22.4,0-33.7,0c-1.9,0-2-0.1-2-2.1c0-2.8-0.2-2.6,2.5-2.6C39.8,105.8,45.2,105.8,50.7,105.8z"/>
	<path class="st0" d="M50.6,65.2c-5.6,0-11.3,0-16.9,0c-1.8,0-1.9-0.1-1.9-1.8c0-2.8,0-2.8,2.7-2.8c10.9,0,21.8,0,32.6,0
		c2.4,0,2.4,0,2.4,2.5c0,0.1,0,0.2,0,0.3c0.2,1.4-0.4,1.9-1.8,1.9C62,65.2,56.3,65.2,50.6,65.2z"/>
	<path class="st0" d="M46.1,83.1c4.1,0,8.3,0,12.4,0c1.4,0,1.9,0.4,1.9,1.8c0,2.9,0,2.9-2.9,2.9c-7.7,0-15.4,0-23.1,0
		c-2.4,0-3.6-1.8-2.6-4c0.2-0.4,1-0.6,1.6-0.6C37.7,83.1,41.9,83.1,46.1,83.1z"/>
	<path class="st0" d="M83.1,110.4c-2.4,0-2.4,0-2.4-2.4c0-2.2,0-2.2,2.6-2.2c2.2,0,2.2,0,2.2,2.3C85.6,110.4,85.6,110.4,83.1,110.4z
		"/>
	<path class="st0" d="M34.1,42.4c-2.3,0-2.3,0-2.3-2.3c0-2.3,0-2.3,2.5-2.3c2.1,0,2.1,0,2.1,2.4C36.4,42.4,36.4,42.4,34.1,42.4z"/>
	<path class="st0" d="M75.1,105.7c0.7,0.2,1.9,0.3,2,0.6c0.3,1.1,0.2,2.4,0.1,3.5c0,0.2-0.5,0.4-0.8,0.5c-0.6,0.1-1.1,0.1-1.7,0.1
		c-2.2,0-2.3,0-2.3-2.2C72.5,105.9,72.5,105.9,75.1,105.7z"/>
	<path class="st0" d="M70.4,40.1c0,2.3,0,2.3-2.3,2.3c-2.3,0-2.3,0-2.3-2.4c0-2.2,0-2.2,2.4-2.2C70.4,37.8,70.4,37.8,70.4,40.1z"/>
	<path class="st0" d="M76.7,37.7c2.4,0,2.4,0,2.4,2.3c0,2.4,0,2.4-2.3,2.4c-2.4,0-2.4,0-2.4-2.4C74.5,37.7,74.5,37.7,76.7,37.7z"/>
	<path class="st0" d="M42.7,37.8c2.3,0,2.3,0,2.3,2.3c0,2.3,0,2.3-2.3,2.3c-2.3,0-2.3,0-2.3-2.4C40.3,37.8,40.3,37.8,42.7,37.8z"/>
	<path class="st0" d="M51.1,42.4c-2.3,0-2.3,0-2.3-2.3c0-2.3,0-2.3,2.5-2.3c2.1,0,2.2,0,2.2,2.3C53.4,42.4,53.4,42.4,51.1,42.4z"/>
	<path class="st0" d="M59.4,42.4c-2.1,0-2.1,0-2.1-2.5c0-2.1,0-2.1,2.6-2.1c2,0,2,0,2,2.7C61.9,42.4,61.9,42.4,59.4,42.4z"/>
	<path class="st0" d="M87.1,129.1c2.3,0,2.3,0,2.3,2.3c0,2.3,0,2.3-2.5,2.3c-2.2,0-2.2-0.1-2.2-2.3
		C84.7,129.1,84.7,129.1,87.1,129.1z"/>
	<path class="st0" d="M105.7,131.4c0,2.4,0,2.4-2.3,2.4c-2,0-2.5-0.5-2.6-2.5c0-1.5,0.9-2.3,2.5-2.3
		C105.4,128.9,105.7,129.2,105.7,131.4z"/>
	<path class="st0" d="M97.5,131.4c0,2.3,0,2.3-2.3,2.3c-2.3,0-2.3,0-2.3-2.3c0-2.3,0-2.3,2.5-2.3C97.5,129.1,97.5,129.1,97.5,131.4z
		"/>
	<path class="st0" d="M111.5,129.1c2.3,0,2.3,0,2.3,2.3c0,2.3,0,2.3-2.3,2.3c-2.3,0-2.3,0-2.3-2.3
		C109.1,129.1,109.1,129.1,111.5,129.1z"/>
	<path class="st0" d="M119.5,133.7c-2.3,0-2.3,0-2.3-2.3c0-2.3,0-2.3,2.4-2.3c2.2,0,2.2,0,2.2,2.4
		C121.8,133.7,121.8,133.7,119.5,133.7z"/>
</g>
</svg>
