<?xml version="1.0" encoding="utf-8"?>
<!-- Generator: Adobe Illustrator 23.0.3, SVG Export Plug-In . SVG Version: 6.00 Build 0)  -->
<svg version="1.1" id="Layer_1" xmlns="http://www.w3.org/2000/svg" xmlns:xlink="http://www.w3.org/1999/xlink" x="0px" y="0px"
	 viewBox="0 0 144 144" style="enable-background:new 0 0 144 144;" xml:space="preserve">
<style type="text/css">
	.st0{enable-background:new    ;}
	.st1{fill:#217091;}
</style>
<g class="st0">
	<path class="st1" d="M133.8,26c-7.8,1.9-14.8,4.4-21.5,7.7c-2.1,1-4.1,2.2-6.2,3.3c-1.2,0.6-1.5,1.3-0.9,2.6
		c1.4,3.2,2.6,6.4,3.8,9.6c0.8,2.1,0.4,3.7-1.2,4.2c-1.7,0.6-3-0.2-3.8-2.2c-1.6-4.1-3.3-8.2-4.9-12.4c-1-2.5-0.7-3.4,1.5-4.8
		c11.9-7.4,24.8-12.3,38.6-14.6c2.2-0.4,3.5,0.7,3.7,2.7c0.9,7.7,1.3,15.5,0.8,23.2c-0.6,8.5-2.1,16.7-4.8,24.8
		c-0.6,1.8-1.8,2.5-3.6,2.4c-8.6-0.6-17.2-1.1-25.8-1.6c-0.7,0-1.6,0.4-2.1,1c-1.1,1.2-1.9,2.5-3.1,4.1c3.8,0.3,7.2,0.5,10.6,0.8
		c4.8,0.3,9.6,0.6,14.4,0.9c3.1,0.2,4.2,1.1,4.1,3.1c-0.2,1.8-1.2,2.5-4.2,2.3c-9-0.5-18-1.1-26.9-1.7c-1.1-0.1-1.9,0.1-2.5,1.1
		c-0.7,1.2-1.6,2.3-2.6,3.7c3.5,0.2,6.6,0.5,9.7,0.7c5.5,0.4,10.9,0.7,16.4,1.1c2,0.1,3.1,1.2,3,2.8c-0.1,1.7-1.4,2.6-3.4,2.5
		c-9.2-0.6-18.4-1.1-27.7-1.8c-1.4-0.1-2.3,0.3-3,1.5c-0.6,1-1.3,1.9-2.2,3.1c3.5,0.3,6.7,0.5,10,0.8c4.6,0.3,9.2,0.6,13.8,0.9
		c0.6,0,1.2,0.1,1.8,0.2c1.3,0.1,2.5,0.6,2.6,1.9c0.1,1-0.3,2.4-1,3.1c-5.5,5.6-11.5,10.5-18.4,14.4c-5.1,2.9-10.3,5.2-16.2,5.9
		c-3.3,0.5-6.7,0.4-9.8-0.8c-1.2-0.5-1.8-0.1-2.5,0.9c-4.2,5.9-8.5,11.8-12.8,17.7c-0.2,0.3-0.4,0.5-0.5,0.7
		c-1.3,1.8-2.8,2.2-4.2,1.3c-1.4-1-1.5-2.6-0.2-4.4c2.4-3.4,4.8-6.7,7.2-10C83.9,95.2,108,61.8,132.1,28.5
		C132.6,27.8,133,27.2,133.8,26z M138.2,29.9c-0.1-0.1-0.2-0.1-0.4-0.2c-8.6,11.9-17.2,23.8-26,36c7.2,0.4,13.9,0.8,20.6,1.2
		c1.6,0.1,2.3-0.4,2.5-1.8c1.1-5.9,2.6-11.8,3.2-17.7C138.7,41.6,138.2,35.7,138.2,29.9z M74.7,117.2c0.3,0.2,0.5,0.3,0.6,0.4
		c0.3,0.1,0.7,0.2,1.1,0.3c4,1,7.8,0.2,11.6-1.2c7.8-2.8,14.4-7.6,20.6-13.1c0.2-0.2,0.3-0.5,0.5-0.8c-7.4-0.5-14.7-1.1-21.9-1.5
		c-0.6,0-1.3,0.6-1.7,1.1c-3.1,4.2-6.2,8.5-9.2,12.7C75.7,115.8,75.2,116.5,74.7,117.2z"/>
	<path class="st1" d="M22.4,95.4c-0.4-0.1-0.8-0.2-1.1-0.2c-2-0.4-2.7-1.2-2.8-3.3c0-4.2,0-8.4,0-12.6c0-2.3,1-3.2,3.3-3.2
		c9.4,0,18.7,0,28.1,0c2.3,0,3.3,0.9,3.3,3.2c0,3.8,0,7.6,0,11.5c0,3.4-0.1,3.6-3.3,4.7c-0.1,2.3,1,4,2.7,5.3
		c0.5,0.4,1.1,0.6,1.6,0.9c1.4,0.9,1.9,2.3,1.3,3.6c-0.7,1.4-2.2,1.9-3.8,1.1c-3.9-1.9-6.5-4.8-7.2-9.2c-0.1-0.6-0.2-1.2-0.3-1.9
		c-5.4,0-10.7,0-16.2,0c-0.1,0.6-0.3,1.1-0.4,1.7c-0.6,4.4-3,7.5-7,9.4c-3,1.4-6.1,2.6-9.1,4.1C6,113.3,4,118,6.2,124
		c0.9,2.5,2.7,4.7,4.2,7.1c0.2,0.4,0.6,0.6,0.9,1c3.9,4.6,8.4,7.5,15,6.7c5.3-0.7,10.8-0.1,16.3-0.1c2.3,0,3.4,0.9,3.4,2.7
		c0,1.8-1.2,2.7-3.5,2.7c-7.9,0-15.9,0-23.8,0c-0.8,0-1.7-0.1-2.3-0.5c-6.1-4.5-11.6-9.5-14.7-16.7c-3.9-9.1-0.3-18,8.8-22
		c2.5-1.1,5.1-2,7.7-3.1C20.8,100.5,22.3,98.5,22.4,95.4z M47.8,81.5c-7.8,0-15.2,0-22.7,0c-0.4,0-1.1,0.6-1.1,1
		c-0.1,2.3-0.1,4.6-0.1,7.3c7.8,0,15.3,0,22.9,0c0.3,0,0.9-0.7,0.9-1C47.8,86.4,47.8,84,47.8,81.5z"/>
	<path class="st1" d="M90.7,48.7c-1.7,2.1-3.4,3.9-4.9,5.8C78.2,65.1,71.9,76.3,68.5,89c-1.7,6.6-2.5,13.2-1,19.9
		c0.4,1.9-0.3,3.2-1.9,3.6c-1.6,0.4-2.8-0.5-3.3-2.4c-1.7-6.6-1.1-13.2,0.5-19.7c4.5-18.1,13-34,26.2-47.3c2.5-2.5,4.3-2,5.6,1.2
		c2.2,5.3,4.4,10.5,6.6,15.8c0.3,0.7,0.7,1.7,0.5,2.2c-0.5,0.9-1.4,1.9-2.3,2.2c-1.3,0.4-2.3-0.6-2.8-1.8c-1.7-3.9-3.3-7.8-4.9-11.7
		C91.4,50.3,91.2,49.7,90.7,48.7z"/>
	<path class="st1" d="M15.4,122.6c-2.3,0-3.7-1.9-2.9-3.6c0.5-1.1,1.3-2.4,2.4-3c2.6-1.5,5.3-2.9,8-4c1.6-0.7,3,0.2,3.5,1.7
		c0.5,1.4-0.3,2.8-2,3.4c-1.3,0.5-2.6,0.8-3.8,1.4c-1.2,0.7-2.2,1.8-3.4,2.7C16.5,121.8,15.8,122.3,15.4,122.6z"/>
</g>
</svg>
