<?xml version="1.0" encoding="utf-8"?>
<!-- Generator: Adobe Illustrator 23.0.3, SVG Export Plug-In . SVG Version: 6.00 Build 0)  -->
<svg version="1.1" id="Layer_1" xmlns="http://www.w3.org/2000/svg" xmlns:xlink="http://www.w3.org/1999/xlink" x="0px" y="0px"
	 viewBox="0 0 144 144" style="enable-background:new 0 0 144 144;" xml:space="preserve">
<style type="text/css">
	.st0{fill:#02D463;}
</style>
<g>
	<path class="st0" d="M79.8,0c1.2,0.8,1.5,1.9,1.5,3.4c-0.1,2.7,0,5.4,0,8.3c0.6,0,1.2,0,1.7,0c7.7,0,15.4,0,23.1,0
		c2.4,0,3.1,0.7,3.1,3.1c0,5.4,0,10.7,0,16.1c0,0.5,0,1.1,0,1.7c10.7,1.1,19.4,5.9,25.8,14.5c4.7,6.3,7,13.4,6.7,21.3
		c-0.4,15.6-11.8,29.5-27.8,33.1c0,3.2,0,6.5,0,10c0.7,0,1.4,0,2.1,0c1.6,0.1,2.5,0.9,2.5,2.4c0,9.2,0,18.4,0,27.6
		c0,1.6-0.9,2.5-2.6,2.5c-6,0-12.1,0-18.1,0c-1.7,0-2.5-1-2.5-2.8c0-6.2,0-12.4,0-18.6c0-0.5,0-1.1,0-1.8c-0.6,0-1.1,0-1.6,0
		c-12.2,0-24.5,0-36.7,0c-2.9,0-3.5-0.6-3.5-3.5c0-27.2,0-54.5,0-81.7c0-0.5,0-1,0-1.4c-0.1,0-0.2,0-0.2,0
		c-0.8,3.4-1.6,6.8-2.3,10.2C45.3,68.9,39.7,93.4,34.2,118c-0.5,2.1-1.4,2.7-3.6,2.2c-8.6-1.9-17.2-3.9-25.9-5.9
		c-2.2-0.5-2.8-1.4-2.3-3.7c6.3-28,12.6-56,19-84c0.5-2.3,1.5-2.9,3.9-2.3c8.5,2,17,3.9,25.4,5.8c0.9,0.2,1.6,0.7,2.5,1
		c0-0.3,0.1-0.7,0.1-1.2c0-8.9,0-17.8,0-26.7c0-1.4,0.3-2.5,1.5-3.4C63.2,0,71.5,0,79.8,0z M58.2,4.7c0,37.2,0,74.3,0,111.3
		c6.2,0,12.3,0,18.5,0c0-10.1,0-20,0-30c0-0.9-0.3-1.9-0.7-2.7c-5.4-10.7-5.3-21.4,0.1-32c0.4-0.7,0.6-1.5,0.6-2.3
		c0-14.3,0-28.5,0-42.8c0-0.5,0-0.9-0.1-1.4C70.4,4.7,64.3,4.7,58.2,4.7z M33.3,100.6c3.9-17.4,7.8-34.7,11.7-52
		c-7.6-1.9-15-3.7-22.6-5.5c-3.9,17.4-7.8,34.6-11.7,51.9C18.4,96.9,25.8,98.8,33.3,100.6z M76.6,67.3c-0.1,16.9,13.1,30.2,30,30.3
		c17,0.1,30.4-13.1,30.4-30c0.1-17-13.1-30.4-29.9-30.4C90,37.1,76.7,50.2,76.6,67.3z M9.8,99.6c-0.8,3.6-1.6,7-2.4,10.5
		c7.7,1.8,15.1,3.4,22.6,5.2c0.8-3.4,1.5-6.7,2.3-10.1C24.8,103.3,17.3,101.5,9.8,99.6z M46.1,44.1c0.7-3.3,1.5-6.5,2.2-9.7
		c-7.7-1.7-15.1-3.4-22.6-5.2c-0.7,3.2-1.4,6.2-2.1,9.3C31.1,40.4,38.5,42.3,46.1,44.1z M81.4,27.9c0,5.3,0,10.5,0,15.9
		c6.4-6.7,14.1-10.4,23-11.2c0-1.6,0-3.1,0-4.6C96.7,27.9,89.1,27.9,81.4,27.9z M81.3,23.1c7.8,0,15.4,0,23,0c0-2.3,0-4.6,0-6.8
		c-7.7,0-15.4,0-23,0C81.3,18.6,81.3,20.8,81.3,23.1z M99.8,101.5c-7.2-1.6-13.2-5.2-18.4-10.5c0,4.7,0,9.1,0,13.5
		c6.2,0,12.3,0,18.4,0C99.8,103.4,99.8,102.5,99.8,101.5z M81.3,116c4.7,0,9.3,0,13.5,0c0.4-1.4,0.3-3,1.1-3.7
		c0.8-0.8,2.4-0.8,3.8-1.1c0-0.5,0-1.2,0-1.9c-6.2,0-12.3,0-18.4,0C81.3,111.6,81.3,113.8,81.3,116z M99.9,116.2c0,1.6,0,3,0,4.5
		c4.6,0,9.2,0,13.7,0c0-1.6,0-3,0-4.5C109.1,116.2,104.5,116.2,99.9,116.2z M113.7,125.5c-4.7,0-9.2,0-13.8,0c0,1.6,0,3,0,4.5
		c4.6,0,9.2,0,13.8,0C113.7,128.5,113.7,127.1,113.7,125.5z M99.9,139.2c4.7,0,9.2,0,13.8,0c0-1.6,0-3,0-4.5c-4.6,0-9.2,0-13.8,0
		C99.9,136.3,99.9,137.7,99.9,139.2z M104.5,111.4c1.6,0,3.1,0,4.5,0c0-3.1,0-6.1,0-9.1c-1.6,0-3,0-4.5,0
		C104.5,105.4,104.5,108.3,104.5,111.4z"/>
	<path class="st0" d="M62.8,13.8c0-1.5,0-3,0-4.5c3,0,6,0,9.1,0c0,1.4,0,2.9,0,4.5C68.9,13.8,65.9,13.8,62.8,13.8z"/>
	<path class="st0" d="M71.9,18.7c0,1.5,0,2.9,0,4.5c-3.1,0-6.1,0-9.2,0c0-1.5,0-2.9,0-4.5C65.8,18.7,68.8,18.7,71.9,18.7z"/>
	<path class="st0" d="M62.8,27.9c3,0,6,0,9.1,0c0,1.5,0,3,0,4.5c-3,0-6,0-9.1,0C62.8,31,62.8,29.5,62.8,27.9z"/>
	<path class="st0" d="M71.9,106.9c0,1.5,0,2.9,0,4.5c-3.1,0-6.1,0-9.2,0c0-1.5,0-2.9,0-4.5C65.8,106.9,68.8,106.9,71.9,106.9z"/>
	<path class="st0" d="M106.8,41.8c13.7,0,25.5,11.8,25.6,25.6c0,13.6-11.8,25.5-25.3,25.5c-13.9,0-25.7-11.6-25.8-25.4
		C81.2,53.7,93,41.8,106.8,41.8z M106.9,46.4c-11.7-0.1-20.9,9-21,20.6c-0.1,11.9,8.9,21.1,20.5,21.2c12,0.1,21.2-8.8,21.3-20.6
		C127.8,55.7,118.8,46.5,106.9,46.4z"/>
</g>
</svg>
