<?xml version="1.0" encoding="utf-8"?>
<!-- Generator: Adobe Illustrator 17.0.0, SVG Export Plug-In . SVG Version: 6.00 Build 0)  -->
<!DOCTYPE svg PUBLIC "-//W3C//DTD SVG 1.1//EN" "http://www.w3.org/Graphics/SVG/1.1/DTD/svg11.dtd">
<svg version="1.1" id="Layer_1" xmlns="http://www.w3.org/2000/svg" xmlns:xlink="http://www.w3.org/1999/xlink" x="0px" y="0px"
	 width="822.59px" height="600px" viewBox="-11.295 0 822.59 600" enable-background="new -11.295 0 822.59 600"
	 xml:space="preserve">
<g id="DESIGNED_BY_FREEPIK">
</g>
<g>
	<g>
		<linearGradient id="SVGID_1_" gradientUnits="userSpaceOnUse" x1="392.7399" y1="575.5496" x2="392.7399" y2="440.6927">
			<stop  offset="0" style="stop-color:#D5E4FF"/>
			<stop  offset="1" style="stop-color:#EDFFFE"/>
		</linearGradient>
		<path fill="url(#SVGID_1_)" d="M538.307,525.676H247.173c-5.993,0-10.852-4.858-10.852-10.851v-33.713
			c0-5.993,4.859-10.851,10.852-10.851h291.134c5.994,0,10.852,4.858,10.852,10.851v33.713
			C549.159,520.818,544.3,525.676,538.307,525.676z"/>
		<g>
			<path fill="#609A3E" d="M677.057,248.853c-13.249-15.639-29.257-13.891-33.942-12.959c-0.861,0.167-1.341,0.316-1.341,0.316
				c0.473-0.728,1.138-1.546,1.979-2.433c10.452-11.04,47.418-32.405,70.742-21.394c25.179,11.888,25.819-15.19,55.164-17.043
				c39.87-2.519,41.636,38.419,41.636,38.419c-6.656-13.227-45.034-14.706-65.672,3.232
				C724.975,254.933,692.766,267.384,677.057,248.853z"/>
			<g>
				
					<linearGradient id="SVGID_2_" gradientUnits="userSpaceOnUse" x1="418.2519" y1="-8413.8447" x2="418.2519" y2="-8501.8643" gradientTransform="matrix(0.1705 0.9854 -0.9854 0.1705 -7721.939 1259.6832)">
					<stop  offset="0.0052" style="stop-color:#3C6127"/>
					<stop  offset="1" style="stop-color:#639C38"/>
				</linearGradient>
				<path fill="url(#SVGID_2_)" d="M693.696,228.382c-9.631-3.067-18.719-5.968-26.595-1.756
					c-6.883,3.675-15.731,6.817-23.986,9.268c-0.861,0.167-1.341,0.316-1.341,0.316c0.473-0.728,1.138-1.546,1.979-2.433
					c7.812-2.363,16.033-5.331,22.485-8.782c8.554-4.574,18.008-1.559,28.019,1.631c11.348,3.614,23.091,7.355,34.584,0.259
					c21.941-13.563,40.191-15.511,40.374-15.533l0.187,1.844c-0.176,0.011-18.037,1.939-39.596,15.256
					C717.595,236.001,705.443,232.132,693.696,228.382z"/>
			</g>
		</g>
		<g>
			<linearGradient id="SVGID_3_" gradientUnits="userSpaceOnUse" x1="84.4744" y1="406.6638" x2="84.4744" y2="118.9175">
				<stop  offset="0" style="stop-color:#3076A1"/>
				<stop  offset="1" style="stop-color:#639C38"/>
			</linearGradient>
			<path fill="url(#SVGID_3_)" d="M163.123,268.446c13.853,26.388,22.199,51.613,13.685,63.524c-0.505,0.703-1.059,1.354-1.667,1.95
				c-6.698,6.575-20.52,7.457-44.364-0.506c-63.46-21.2-68.69-63.401-83.485-104.091c-14.589-40.18-57.495-30.948-58.588-30.704
				C87.654,158.065,139.62,223.713,163.123,268.446z"/>
			<g>
				
					<linearGradient id="SVGID_4_" gradientUnits="userSpaceOnUse" x1="-5075.8696" y1="2691.9685" x2="-5075.8696" y2="2557.2939" gradientTransform="matrix(0.7128 -0.7014 0.7014 0.7128 1920.569 -5131.3926)">
					<stop  offset="0.0052" style="stop-color:#3C6127"/>
					<stop  offset="1" style="stop-color:#639C38"/>
				</linearGradient>
				<path fill="url(#SVGID_4_)" d="M176.808,331.97c-0.505,0.703-1.059,1.354-1.667,1.95c-12.051-6.401-35.203-20.107-46.642-36.274
					c-5.395-7.632-10.05-16.289-14.988-25.445c-9.317-17.322-18.969-35.23-34.841-48.509l1.587-1.91
					c16.236,13.598,25.992,31.717,35.429,49.248c4.896,9.096,9.515,17.681,14.833,25.183
					C141.674,311.987,165.061,325.736,176.808,331.97z"/>
			</g>
		</g>
		<g>
			<linearGradient id="SVGID_5_" gradientUnits="userSpaceOnUse" x1="116.5823" y1="406.6631" x2="116.5823" y2="118.9162">
				<stop  offset="0" style="stop-color:#3076A1"/>
				<stop  offset="1" style="stop-color:#639C38"/>
			</linearGradient>
			<path fill="url(#SVGID_5_)" d="M152.922,280.082c-0.635,1.838-1.053,2.884-1.099,2.999c-0.244-0.983-0.483-1.959-0.723-2.9
				c-10.576-42.027-21.901-45.869-57.138-81.233c-36.036-36.169-18.395-72.623-18.395-72.623
				C191.214,153.096,159.638,260.679,152.922,280.082z"/>
			<g>
				
					<linearGradient id="SVGID_6_" gradientUnits="userSpaceOnUse" x1="-3523.7417" y1="2416.4409" x2="-3523.7417" y2="2284.198" gradientTransform="matrix(0.843 -0.5378 0.5378 0.843 1832.6395 -3656.4238)">
					<stop  offset="0.0052" style="stop-color:#3C6127"/>
					<stop  offset="1" style="stop-color:#639C38"/>
				</linearGradient>
				<path fill="url(#SVGID_6_)" d="M152.922,280.082c-0.635,1.838-1.053,2.884-1.099,2.999c-0.244-0.983-0.483-1.959-0.723-2.9
					c1.712-36.918-22.759-78.811-30.137-86.168c-7.633-7.619-12.663-18.389-14.562-22.447c-0.319-0.673-0.618-1.314-0.714-1.462
					l1.558-0.994c0.154,0.242,0.363,0.69,0.827,1.675c1.857,3.976,6.794,14.531,14.199,21.914
					C131.62,202.027,154.385,244.221,152.922,280.082z"/>
			</g>
		</g>
		<g>
			<path fill="#609A3E" d="M781.563,177.749c-29.123,11.75-53.994-7.751-78.901,44.047c-21.504,44.711-73.421,12.299-87.224,2.596
				c-2.189-1.537-3.415-2.504-3.415-2.504s0.705,0.029,1.923,0.026c7.909-0.064,37.55-1.84,39.396-25.087
				c2.121-26.847,16.676-65.984,48.059-63.577c31.378,2.412,32.77-21.119,50.703-42.638c17.934-21.521,58.558,1.638,58.558,1.638
				S810.68,166.004,781.563,177.749z"/>
			<g>
				
					<linearGradient id="SVGID_7_" gradientUnits="userSpaceOnUse" x1="3136.5752" y1="-5455.666" x2="3136.5752" y2="-5608.1392" gradientTransform="matrix(0.7268 0.6868 -0.6868 0.7268 -5398.2886 2052.0818)">
					<stop  offset="0.0052" style="stop-color:#3C6127"/>
					<stop  offset="1" style="stop-color:#639C38"/>
				</linearGradient>
				<path fill="url(#SVGID_7_)" d="M684.997,190.726c-3.5,11.273-7.12,22.926-19.328,31.609
					c-16.656,11.836-37.458,7.024-50.231,2.056c-2.189-1.537-3.415-2.504-3.415-2.504s0.705,0.029,1.923,0.026
					c12.134,5.084,33.743,11.066,50.713-1.002c11.723-8.334,15.26-19.708,18.675-30.701c3.948-12.713,8.026-25.858,24.746-33.845
					c7.384-3.528,14.421-4.511,21.224-5.463c9.8-1.365,19.061-2.653,27.461-11.798l1.286,1.181
					c-8.824,9.607-18.386,10.934-28.499,12.352c-6.674,0.93-13.575,1.886-20.715,5.307
					C692.803,165.599,689.007,177.808,684.997,190.726z"/>
			</g>
		</g>
		<linearGradient id="SVGID_8_" gradientUnits="userSpaceOnUse" x1="594.8438" y1="620.6467" x2="251.693" y2="-34.9515">
			<stop  offset="0" style="stop-color:#D5E4FF"/>
			<stop  offset="1" style="stop-color:#EDFFFE"/>
		</linearGradient>
		<path fill="url(#SVGID_8_)" d="M654.241,497.967H146.378c-12.275,0-22.226-9.95-22.226-22.225V22.225
			C124.152,9.95,134.103,0,146.378,0h507.864c12.275,0,22.225,9.95,22.225,22.225v453.517
			C676.467,488.017,666.516,497.967,654.241,497.967z"/>
		<g>
			<g>
				<g>
					<path fill="#FFFFFF" d="M243.176,295.678c-6.947-19.424-25.511-31.354-45.076-30.765c-4.737,0.141-9.532,1.018-14.238,2.7
						c-14.251,5.098-24.471,16.448-28.669,29.861c-2.91,9.294-2.928,19.576,0.605,29.455c0.351,0.982,0.733,1.948,1.143,2.893
						c1.858,4.278,4.296,8.147,7.192,11.548c12.142,14.274,32.29,20.308,50.98,13.625
						C239.241,346.364,251.804,319.809,243.176,295.678z M211.201,344.06c-14.013,5.012-29.118,0.488-38.221-10.213
						c-2.169-2.55-3.999-5.452-5.391-8.661c-0.307-0.708-0.594-1.433-0.858-2.168c-2.649-7.406-2.634-15.115-0.453-22.082
						c3.148-10.057,10.809-18.567,21.494-22.389c3.527-1.26,7.123-1.917,10.673-2.025c14.668-0.444,28.588,8.503,33.796,23.065
						C238.712,317.679,229.292,337.589,211.201,344.06z"/>
				</g>
			</g>
			<g>
				<g>
					<path fill="#1A598C" d="M166.278,300.935l-11.085-3.462c4.198-13.412,14.418-24.762,28.669-29.861
						c4.706-1.682,9.501-2.559,14.238-2.7l0.346,11.609c-3.551,0.108-7.146,0.765-10.673,2.025
						C177.087,282.368,169.426,290.879,166.278,300.935z"/>
				</g>
			</g>
			<g>
				<g>
					<path fill="#2273B5" d="M167.589,325.186l-10.648,4.636c-0.41-0.945-0.792-1.911-1.143-2.893
						c-3.532-9.879-3.514-20.161-0.605-29.455l11.085,3.462c-2.181,6.968-2.196,14.676,0.453,22.082
						C166.994,323.753,167.281,324.478,167.589,325.186z"/>
				</g>
			</g>
			<g>
				<g>
					<path fill="#3D96E0" d="M164.132,341.37c-2.896-3.401-5.334-7.27-7.192-11.548l10.648-4.636
						c1.392,3.209,3.222,6.111,5.391,8.661L164.132,341.37z"/>
				</g>
			</g>
		</g>
		<g>
			<g>
				<g>
					<path fill="#FFFFFF" d="M370.814,328.385c7.595-19.18,1.515-40.393-13.576-52.86c-3.653-3.018-7.835-5.524-12.481-7.364
						c-14.073-5.571-29.242-3.783-41.245,3.526c-8.319,5.065-15.117,12.779-18.978,22.534c-0.384,0.97-0.736,1.948-1.05,2.928
						c-1.426,4.441-2.147,8.958-2.215,13.425c-0.294,18.738,10.868,36.562,29.322,43.871
						C334.418,363.878,361.38,352.21,370.814,328.385z M314.867,343.647c-13.838-5.478-22.204-18.842-21.986-32.889
						c0.052-3.35,0.592-6.736,1.663-10.066c0.237-0.736,0.498-1.468,0.786-2.196c2.896-7.312,7.993-13.097,14.229-16.892
						c9-5.482,20.372-6.823,30.922-2.645c3.484,1.379,6.619,3.258,9.359,5.52c11.315,9.343,15.873,25.25,10.18,39.631
						C352.945,341.974,332.731,350.721,314.867,343.647z"/>
				</g>
			</g>
			<g>
				<g>
					<path fill="#4B59C7" d="M309.559,281.603l-6.047-9.916c12.002-7.309,27.172-9.097,41.245-3.526
						c4.646,1.84,8.828,4.346,12.481,7.364l-7.399,8.952c-2.74-2.262-5.875-4.141-9.359-5.52
						C329.931,274.781,318.559,276.122,309.559,281.603z"/>
				</g>
			</g>
			<g>
				<g>
					<path fill="#6F5BE0" d="M294.544,300.691l-11.06-3.542c0.315-0.98,0.666-1.957,1.05-2.928
						c3.862-9.754,10.659-17.469,18.978-22.534l6.047,9.916c-6.236,3.796-11.333,9.58-14.229,16.892
						C295.042,299.224,294.781,299.956,294.544,300.691z"/>
				</g>
			</g>
			<g>
				<g>
					<path fill="#B487FE" d="M281.269,310.574c0.068-4.467,0.789-8.984,2.215-13.425l11.06,3.542
						c-1.071,3.33-1.611,6.716-1.663,10.066L281.269,310.574z"/>
				</g>
			</g>
		</g>
		<g>
			<g>
				<g>
					<path fill="#FFFFFF" d="M462.954,265.45c-20.387-3.154-39.724,7.478-48.534,24.957c-2.134,4.232-3.65,8.864-4.414,13.803
						c-2.313,14.959,2.794,29.352,12.581,39.437c6.783,6.99,15.814,11.908,26.181,13.511c1.031,0.159,2.063,0.284,3.087,0.374
						c4.647,0.405,9.211,0.108,13.582-0.816c18.336-3.867,33.244-18.703,36.28-38.319
						C505.632,293.073,488.278,269.369,462.954,265.45z M490.238,316.623c-2.274,14.707-13.452,25.828-27.198,28.73
						c-3.276,0.69-6.7,0.915-10.183,0.609c-0.77-0.068-1.542-0.161-2.316-0.281c-7.772-1.202-14.542-4.891-19.627-10.128
						c-7.339-7.562-11.169-18.353-9.433-29.567c0.572-3.702,1.71-7.175,3.308-10.349c6.603-13.104,21.103-21.077,36.389-18.712
						C480.165,279.862,493.176,297.635,490.238,316.623z"/>
				</g>
			</g>
			<g>
				<g>
					<path fill="#1A598C" d="M430.914,335.553l-8.328,8.094c-9.787-10.084-14.894-24.478-12.581-39.437
						c0.764-4.939,2.28-9.571,4.414-13.803l10.37,5.23c-1.598,3.174-2.735,6.646-3.308,10.349
						C419.746,317.2,423.575,327.991,430.914,335.553z"/>
				</g>
			</g>
			<g>
				<g>
					<path fill="#2273B5" d="M452.857,345.962l-1.003,11.57c-1.025-0.09-2.056-0.215-3.087-0.374
						c-10.367-1.603-19.397-6.522-26.181-13.511l8.328-8.094c5.084,5.238,11.855,8.927,19.627,10.128
						C451.315,345.801,452.088,345.894,452.857,345.962z"/>
				</g>
			</g>
			<g>
				<g>
					<path fill="#3788CC" d="M465.437,356.716c-4.371,0.925-8.935,1.222-13.582,0.816l1.003-11.57
						c3.484,0.306,6.907,0.081,10.183-0.609L465.437,356.716z"/>
				</g>
			</g>
		</g>
		<rect x="153.074" y="379.761" fill="#C4C4C4" width="92.824" height="7.157"/>
		<rect x="153.074" y="394.975" fill="#C4C4C4" width="69.463" height="7.158"/>
		<rect x="281.262" y="379.761" fill="#C4C4C4" width="51.184" height="7.157"/>
		<rect x="281.262" y="394.975" fill="#C4C4C4" width="75.976" height="7.158"/>
		<rect x="417.872" y="379.761" fill="#C4C4C4" width="56.887" height="7.157"/>
		<rect x="417.872" y="394.975" fill="#C4C4C4" width="65.892" height="7.158"/>
		<rect x="561.866" y="75.586" fill="#B8D6FF" width="67.501" height="6.773"/>
		<rect x="561.866" y="96.551" fill="#B8D6FF" width="77.583" height="6.773"/>
		<rect x="561.75" y="117.4" fill="#B8D6FF" width="40.138" height="6.773"/>
		<rect x="561.75" y="138.25" fill="#B8D6FF" width="61.844" height="6.773"/>
		<rect x="153.074" y="429.172" fill="#FFFFFF" width="295.362" height="6.927"/>
		<rect x="153.074" y="445.336" fill="#FFFFFF" width="319.145" height="6.927"/>
		<rect x="153.074" y="461.499" fill="#FFFFFF" width="207.08" height="6.927"/>
		<linearGradient id="SVGID_9_" gradientUnits="userSpaceOnUse" x1="382.4486" y1="432.6359" x2="86.8018" y2="432.6359">
			<stop  offset="0" style="stop-color:#FFC05C"/>
			<stop  offset="1" style="stop-color:#FF3857"/>
		</linearGradient>
		<rect x="153.074" y="429.172" fill="url(#SVGID_9_)" width="153.793" height="6.927"/>
		<linearGradient id="SVGID_10_" gradientUnits="userSpaceOnUse" x1="382.4478" y1="448.7999" x2="86.8026" y2="448.7999">
			<stop  offset="0" style="stop-color:#FFC05C"/>
			<stop  offset="1" style="stop-color:#FF3857"/>
		</linearGradient>
		<rect x="153.074" y="445.336" fill="url(#SVGID_10_)" width="166.176" height="6.927"/>
		<linearGradient id="SVGID_11_" gradientUnits="userSpaceOnUse" x1="382.4479" y1="464.9622" x2="86.8025" y2="464.9622">
			<stop  offset="0" style="stop-color:#FFC05C"/>
			<stop  offset="1" style="stop-color:#FF3857"/>
		</linearGradient>
		<rect x="153.074" y="461.499" fill="url(#SVGID_11_)" width="107.825" height="6.927"/>
		<rect x="196.223" y="202.944" fill="#D6D6D6" width="60.163" height="7.413"/>
		<rect x="181.626" y="189.745" fill="#D6D6D6" width="89.356" height="7.411"/>
		<linearGradient id="SVGID_12_" gradientUnits="userSpaceOnUse" x1="226.4406" y1="47.1002" x2="226.4406" y2="213.3839">
			<stop  offset="0" style="stop-color:#40D5E6"/>
			<stop  offset="1" style="stop-color:#5577FF"/>
		</linearGradient>
		<circle fill="url(#SVGID_12_)" cx="226.441" cy="88" r="15.534"/>
		<linearGradient id="SVGID_13_" gradientUnits="userSpaceOnUse" x1="226.3044" y1="47.0999" x2="226.3044" y2="213.3828">
			<stop  offset="0" style="stop-color:#40D5E6"/>
			<stop  offset="1" style="stop-color:#5577FF"/>
		</linearGradient>
		<path fill="url(#SVGID_13_)" d="M254.463,138.642v29.543c-8.579,3.902-18.118,6.072-28.158,6.072
			c-10.04,0-19.579-2.17-28.158-6.072v-29.543c0-15.546,12.602-28.158,28.158-28.158S254.463,123.097,254.463,138.642z"/>
		<rect x="323.519" y="65.027" fill="#FFFFFF" width="144.697" height="9.329"/>
		<rect x="483.764" y="65.027" fill="#FFFFFF" width="56.232" height="9.329"/>
		<rect x="323.519" y="43.785" fill="#FFFFFF" width="67.946" height="9.327"/>
		<path opacity="0.73" fill="#FFFFFF" d="M709.785,481.616H545.016c-11.049,0-20.006-8.958-20.006-20.005V206.857
			c0-11.048,8.957-20.005,20.006-20.005h164.769c11.049,0,20.005,8.958,20.005,20.005V461.61
			C729.791,472.658,720.835,481.616,709.785,481.616z"/>
		<linearGradient id="SVGID_14_" gradientUnits="userSpaceOnUse" x1="616.1599" y1="184.3881" x2="616.1599" y2="381.1602">
			<stop  offset="0" style="stop-color:#FFC05C"/>
			<stop  offset="1" style="stop-color:#FF3857"/>
		</linearGradient>
		<circle fill="url(#SVGID_14_)" cx="616.16" cy="256.562" r="15.534"/>
		<linearGradient id="SVGID_15_" gradientUnits="userSpaceOnUse" x1="616.0236" y1="184.3906" x2="616.0236" y2="381.156">
			<stop  offset="0" style="stop-color:#FFC05C"/>
			<stop  offset="1" style="stop-color:#FF3857"/>
		</linearGradient>
		<path fill="url(#SVGID_15_)" d="M644.182,307.204v29.541c-8.579,3.904-18.118,6.072-28.158,6.072
			c-10.039,0-19.579-2.168-28.158-6.072v-29.541c0-15.546,12.602-28.158,28.158-28.158
			C631.58,279.046,644.182,291.658,644.182,307.204z"/>
		<path fill="#D4DBE1" d="M694.245,377.114H552.582c-1.57,0-2.844-1.273-2.844-2.843v-4.779c0-1.57,1.274-2.844,2.844-2.844h141.663
			c1.57,0,2.845,1.273,2.845,2.844v4.779C697.09,375.841,695.815,377.114,694.245,377.114z"/>
		<path fill="#D4DBE1" d="M651.759,400.209h-99.177c-1.57,0-2.844-1.273-2.844-2.845v-4.779c0-1.57,1.274-2.844,2.844-2.844h99.177
			c1.572,0,2.844,1.273,2.844,2.844v4.779C654.603,398.936,653.331,400.209,651.759,400.209z"/>
		<path fill="#D4DBE1" d="M671.464,423.302H552.582c-1.57,0-2.844-1.273-2.844-2.845v-4.779c0-1.57,1.274-2.844,2.844-2.844h118.882
			c1.57,0,2.844,1.273,2.844,2.844v4.779C674.307,422.029,673.034,423.302,671.464,423.302z"/>
		<g>
			<linearGradient id="SVGID_16_" gradientUnits="userSpaceOnUse" x1="616.0241" y1="221.7944" x2="616.0241" y2="382.1902">
				<stop  offset="0" style="stop-color:#D3DAE0"/>
				<stop  offset="1" style="stop-color:#FFFFFF"/>
			</linearGradient>
			<path fill="url(#SVGID_16_)" d="M616.024,344.665c-10.092,0-19.823-2.099-28.923-6.237
				c-24.941-11.336-41.057-36.355-41.057-63.743c0-38.587,31.392-69.982,69.98-69.982c38.587,0,69.981,31.394,69.981,69.982
				c0,27.388-16.116,52.407-41.059,63.743C635.847,342.566,626.116,344.665,616.024,344.665z M616.024,208.398
				c-36.55,0-66.286,29.736-66.286,66.287c0,25.942,15.266,49.642,38.892,60.38c8.617,3.919,17.833,5.905,27.394,5.905
				c9.561,0,18.777-1.987,27.393-5.905c23.626-10.737,38.893-34.438,38.893-60.38C682.31,238.134,652.574,208.398,616.024,208.398z"
				/>
		</g>
		<g>
			<linearGradient id="SVGID_17_" gradientUnits="userSpaceOnUse" x1="226.3044" y1="57.8557" x2="226.3044" y2="203.4654">
				<stop  offset="0" style="stop-color:#D3DAE0"/>
				<stop  offset="1" style="stop-color:#FFFFFF"/>
			</linearGradient>
			<path fill="url(#SVGID_17_)" d="M226.304,176.103c-10.093,0-19.823-2.099-28.923-6.237
				c-24.941-11.334-41.057-36.355-41.057-63.742c0-38.588,31.393-69.98,69.981-69.98s69.981,31.392,69.981,69.98
				c0,27.388-16.116,52.409-41.058,63.742C246.127,174.005,236.397,176.103,226.304,176.103z M226.304,39.838
				c-36.55,0-66.286,29.736-66.286,66.285c0,25.942,15.266,49.642,38.892,60.38c8.617,3.918,17.833,5.905,27.394,5.905
				s18.777-1.987,27.393-5.905c23.627-10.738,38.893-34.438,38.893-60.38C292.59,69.574,262.854,39.838,226.304,39.838z"/>
		</g>
		<path fill="#FFFFFF" d="M644.336,495.63h-33.871c-5.67,0-10.268-4.597-10.268-10.268v-33.871c0-5.67,4.597-10.268,10.268-10.268
			h33.871c5.672,0,10.267,4.597,10.267,10.268v33.871C654.603,491.033,650.007,495.63,644.336,495.63z"/>
		<rect x="624.827" y="457.602" fill="#C5CCD1" width="5.148" height="21.648"/>
		<rect x="616.577" y="465.852" fill="#C5CCD1" width="21.647" height="5.148"/>
		<g>
			<g>
				<rect x="333.801" y="92.029" fill="#C9E0FF" width="3.695" height="89.589"/>
			</g>
			<g>
				<rect x="350.778" y="92.029" fill="#C9E0FF" width="3.694" height="89.589"/>
			</g>
			<g>
				<rect x="367.754" y="92.029" fill="#C9E0FF" width="3.695" height="89.589"/>
			</g>
			<g>
				<rect x="384.73" y="92.029" fill="#C9E0FF" width="3.694" height="89.589"/>
			</g>
			<g>
				<rect x="401.706" y="92.029" fill="#C9E0FF" width="3.695" height="89.589"/>
			</g>
			<g>
				<rect x="418.682" y="92.029" fill="#C9E0FF" width="3.695" height="89.589"/>
			</g>
			<g>
				<rect x="435.659" y="92.029" fill="#C9E0FF" width="3.694" height="89.589"/>
			</g>
			<g>
				<rect x="452.634" y="92.029" fill="#C9E0FF" width="3.695" height="89.589"/>
			</g>
			<g>
				<rect x="469.611" y="92.029" fill="#C9E0FF" width="3.694" height="89.589"/>
			</g>
			<g>
				<rect x="486.587" y="92.029" fill="#C9E0FF" width="3.695" height="89.589"/>
			</g>
			<g>
				<rect x="503.563" y="92.029" fill="#C9E0FF" width="3.695" height="89.589"/>
			</g>
			<g>
				<rect x="520.539" y="92.029" fill="#C9E0FF" width="3.695" height="89.589"/>
			</g>
		</g>
		<g>
			<g>
				<rect x="333.801" y="118.813" fill="#FF6559" width="3.695" height="62.805"/>
			</g>
			<g>
				<rect x="350.778" y="140.517" fill="#FF6559" width="3.694" height="41.101"/>
			</g>
			<g>
				<rect x="367.754" y="104.959" fill="#FF6559" width="3.695" height="76.659"/>
			</g>
			<g>
				<rect x="384.73" y="159.297" fill="#FF6559" width="3.694" height="22.321"/>
			</g>
			<g>
				<rect x="401.706" y="136.824" fill="#FF6559" width="3.695" height="44.794"/>
			</g>
			<g>
				<rect x="418.682" y="120.044" fill="#FF6559" width="3.695" height="61.574"/>
			</g>
			<g>
				<rect x="435.659" y="141.904" fill="#FF6559" width="3.694" height="39.714"/>
			</g>
			<g>
				<rect x="452.634" y="114.35" fill="#FF6559" width="3.695" height="67.268"/>
			</g>
			<g>
				<rect x="469.611" y="144.674" fill="#FF6559" width="3.694" height="36.944"/>
			</g>
			<g>
				<rect x="486.587" y="122.508" fill="#FF6559" width="3.695" height="59.11"/>
			</g>
			<g>
				<rect x="503.563" y="152.064" fill="#FF6559" width="3.695" height="29.554"/>
			</g>
			<g>
				<rect x="520.539" y="122.508" fill="#FF6559" width="3.695" height="59.11"/>
			</g>
		</g>
		<g>
			<circle opacity="0.17" fill="#B8B8B8" cx="366.91" cy="358.11" r="117.713"/>
			<g>
				
					<rect x="6.002" y="389.231" transform="matrix(-0.9858 0.1679 -0.1679 -0.9858 299.7341 790.6783)" fill="#1D427A" width="220.893" height="37.553"/>
				<path fill="#5C544D" d="M63.505,575.529c0,0-0.936,6.863-1.053,7.894c-0.117,1.031-10.415-0.607-10.415-0.607l-0.834-8.171
					C51.203,574.645,62.218,574.56,63.505,575.529z"/>
				<path fill="#0F2536" d="M62.561,582.55c0,0,3.263,4.137,6.419,5.94c3.155,1.802,8.115,2.517,9.981,4.383
					c1.347,1.347,4.906,7.146-8.2,7.028c-13.107-0.116-19.426,0.82-20.83-1.403c-1.404-2.223,2.032-16.412,2.032-16.412
					S55.066,583.265,62.561,582.55z"/>
				<path fill="#5C544D" d="M137.292,575.529c0,0-0.936,6.863-1.053,7.894c-0.117,1.031-10.416-0.607-10.416-0.607l-0.834-8.171
					C124.99,574.645,136.005,574.56,137.292,575.529z"/>
				<path fill="#0F2536" d="M136.349,582.55c0,0,3.263,4.137,6.418,5.94c3.156,1.802,14.769,3.284,16.635,5.15
					c1.347,1.346,3.587,6.769-14.855,6.261c-13.102-0.359-19.426,0.82-20.83-1.403c-1.404-2.223,2.032-16.412,2.032-16.412
					S128.674,583.346,136.349,582.55z"/>
				<path fill="#183A54" d="M67.163,398.325c0,0-5.481,17.032-4.76,31.71c0.722,14.678-2.833,30.741-4.287,46.074
					c-1.621,17.094-8.252,57.562-8.493,66.705c-0.24,9.143,1.03,38.341,1.03,38.341l13.275,0.321c0,0,11.149-70.748,14.037-77.967
					c2.888-7.219,17.208-58.681,17.688-64.456C96.135,433.278,67.163,398.325,67.163,398.325z"/>
				<path fill="#183A54" d="M122.971,401.355c0,0,7.292,40.231,8.254,49.215c0.963,8.984,1.604,43.475,2.086,49.088
					c0.481,5.616,3.209,73.475,5.775,81.818h-14.802c0,0-15.197-49.332-15.197-72.673c0-23.341-10.065-50.741-16.562-66.142
					c-6.497-15.401-21.369-15.764-25.362-44.337C67.163,398.325,117.564,392.293,122.971,401.355z"/>
				<path fill="#EEA886" d="M96.36,267.204c0,0,13.583-2.779,17.967,7.914c4.385,10.695,0.748,30.161-6.096,31.55
					c-6.845,1.391-16.363-1.389-18.716-8.021c-2.354-6.63-3.957-15.935-2.888-21.818C87.697,270.948,92.724,268.382,96.36,267.204z"
					/>
				<path fill="#EEA886" d="M170.892,411.699c0,0,4.103,4.407,5.467,4.887c1.363,0.482,4.118-1.765,13.948-2.108
					c0.864-0.029,2.346,0.803,1.945,1.926c-0.401,1.124-3.915,5.691-5.76,6.091c-1.845,0.402-11.467,1.845-15.6,0
					c-4.132-1.844-6.779-7.298-6.779-7.298L170.892,411.699z"/>
				
					<rect x="225.245" y="374.224" transform="matrix(-0.9858 0.1679 -0.1679 -0.9858 524.2385 732.6253)" fill="#2656A1" width="11.799" height="28.506"/>
				<path fill="#EEA886" d="M106.769,306.898c0,0-1.077,3.381-0.462,5.227c0.615,1.844-16.898-0.857-16.898-0.857
					s0.034-9.505-1.43-17.769C86.514,285.232,106.769,306.898,106.769,306.898z"/>
				<path fill="#3A3F47" d="M87.978,293.498c0,0,0.895,2.181,5.948,2.181c5.053,0,12.1-5.617,14.272-6.015
					c2.172-0.398,2.381-1.603,2.381-1.603l0.994,2.084l2.166,0.483c0,0-1.075-6.182,2.31-8.105
					c3.385-1.923-0.144-19.488-16.828-16.441c0,0-12.674,1.444-13.316,8.422C85.264,281.482,85.799,289.631,87.978,293.498z"/>
				<path fill="#4AAFFF" d="M106.306,312.124c0,0,9.229,2.479,18.353,9.176c0,0,11.169,5.205,12.356,17.318
					c0.63,6.43,6.295,30.938,7.578,33.825c1.283,2.888,27.646,39.25,28.181,40.213c0.535,0.963-6.792,6.043-7.647,5.615
					c-0.856-0.429-30.267-32.139-31.657-35.241c0,0-9.076-18.369-9.289-22.113c0,0-0.229,10.67-0.658,13.665
					c-0.428,2.994,3.904,41.369,3.69,42.974c-0.214,1.603-29.288,7.353-42.871,5.856C70.761,421.915,61.04,416.8,61.04,416.8
					s6.336-26.069,5.481-31.095c-0.855-5.027-2.459-33.796-2.459-33.796l-9.305,13.583l14.866,22.352l-3.53,14.544
					c0,0-25.775-33.047-26.631-36.683c-0.855-3.636,0.535-7.166,1.925-10.16c1.391-2.996,9.305-17.006,11.444-20.215
					c2.139-3.209,8.128-13.153,17.326-16.256c9.197-3.102,19.251-7.808,19.251-7.808L106.306,312.124z"/>
				<path fill="#4AAFFF" d="M107.804,312.768c0,0-0.057-3.3-1.552-3.618c-1.496-0.315-16.514-1.759-18.35-1.038v3.845
					C87.902,311.957,91.44,314.135,107.804,312.768z"/>
				<path fill="#EEA886" d="M110.647,285.496c-0.094-1.202-2.523-4.975-4.206-1.607c-1.684,3.368,0.401,8.582,2.045,8.422
					C110.13,292.152,110.888,288.543,110.647,285.496z"/>
				<path opacity="0.3" fill="#C2C2C2" d="M290.948,271.68c0,0,148.59-18.631,178.198,140.018l0.001-0.002
					c8.523-16.204,13.354-34.7,13.354-54.339c0-63.972-51.262-115.834-114.498-115.834
					C338.326,241.524,311.288,252.946,290.948,271.68z"/>
				<path fill="#3072A6" d="M64.887,399.207c0,0,2.644-12.522,1.264-16.582l-2.235-3.363
					C63.916,379.262,65.217,386.375,64.887,399.207z"/>
				<path fill="#3F444F" d="M231.145,358.11c0,75.487,61.193,136.681,136.681,136.681c75.487,0,136.681-61.194,136.681-136.681
					s-61.194-136.681-136.681-136.681C292.338,221.429,231.145,282.623,231.145,358.11z M253.589,358.108
					c0-33.482,14.406-63.601,37.358-84.496c20.294-18.476,47.27-29.74,76.879-29.74c63.091,0,114.236,51.147,114.236,114.236
					c0,19.367-4.819,37.608-13.323,53.588l-0.001,0.002c-19.2,36.083-57.187,60.649-100.912,60.649
					C304.734,472.348,253.589,421.201,253.589,358.108z"/>
			</g>
		</g>
		<g>
			<path fill="#EEA886" d="M714.045,599.348h-2.431c0,0,0.809-9.18-1.44-9.27c-2.247-0.09-7.828,7.468-11.159,8.641
				c-3.33,1.168-20.428,2.157-20.517-0.991c-0.09-3.15,6.569-4.41,8.637-5.309c2.071-0.901,12.152-10.71,13.95-11.88
				c1.802-1.17,4.873-9.303,4.873-9.303l9.545-0.426c0,0,0.539,7.604,1.117,11.629c0.217,1.49,0.371,2.845,0.394,3.77
				C717.103,589.629,714.045,599.348,714.045,599.348z"/>
			<path fill="#EEA886" d="M756.276,597.534h-2.025v-8.545c-1.688,0.141-7.358,5.507-9.112,7.061
				c-1.754,1.552-4.161,1.484-11.554,1.954c-7.389,0.47-8.087-3.955-6.918-5.461c1.169-1.506,4.949-2.165,6.918-3.106
				c1.969-0.941,9.73-9.695,11.801-11.766c2.068-2.071,3.33-8.002,3.33-8.002l8.641,0.754c0,0-0.057,5.426,0.928,9.978v0.002
				c0.004,0.011,0.006,0.024,0.007,0.035c0.085,0.387,0.178,0.767,0.279,1.139C759.853,586.307,756.276,597.534,756.276,597.534z"/>
			<path fill="#1D3B54" d="M724.331,403.869c0,0-3.266,7.722-3.553,9.672c-0.288,1.95-10.525,27.435-11.236,34.893
				c-0.721,7.54-2.882,27.661-3.651,30.543c-0.767,2.88,1.728,15.751,2.113,18.631c0.385,2.882,0.193,49.943-3.266,73.187
				c0,0,8.068,3.456,14.214,0c0,0,10.182-36.305,9.604-57.243c-0.574-20.937-3.231-29.772,0.018-38.226
				c3.247-8.452,22.266-33.807,24.186-36.496c1.921-2.69,13.953-17.551,2.559-33.651
				C743.926,389.079,724.331,403.869,724.331,403.869z"/>
			<path fill="#1D3B54" d="M765.469,472.256c-1.042,6.931,0.053,16.037,2.231,41.381c2.179,25.342-3.812,56.03-3.812,56.03
				c-7.522,2.574-16.186,0-16.186,0c0.2-1.783,0-61.774,0-67.118c0-5.348-1.534-11.414-1.928-17.549
				c-0.272-4.183-2.216-11.891-4.405-19.761c-0.657-2.359-1.334-4.729-1.994-7.024c0-0.004,0-0.004,0-0.004
				c-0.37-1.286-0.732-2.55-1.086-3.774c-3.082-10.692-7.228-51.976-7.228-51.976s22.976-18.508,34.164-1.084
				c11.187,17.423,5.443,30.094,5.049,32.271C769.879,435.828,766.51,465.327,765.469,472.256z"/>
			<path fill="#122536" d="M755.94,435.023c-0.178,0.396-11.627,25.808-14.572,30.217c-0.657-2.359-1.334-4.729-1.994-7.024
				c0-0.004,0-0.004,0-0.004S755.559,435.582,755.94,435.023z"/>
			<path fill="#132738" d="M756.276,597.534h-2.025v-8.545c-1.688,0.141-7.358,5.507-9.112,7.061
				c-1.754,1.552-4.161,1.484-11.554,1.954c-7.389,0.47-8.087-3.955-6.918-5.461c1.169-1.506,4.949-2.165,6.918-3.106
				c7.907,0.424,17.556-10.693,22.187-10.669c2.462,0.011,2.438,1.374,2.513,1.633v0.002c0.004,0.011,0.006,0.024,0.007,0.035
				c0.085,0.387,0.178,0.767,0.279,1.139C759.853,586.307,756.276,597.534,756.276,597.534z"/>
			<path fill="#132738" d="M714.045,599.348h-2.431c0,0,0.809-9.18-1.44-9.27c-2.247-0.09-7.828,7.468-11.159,8.641
				c-3.33,1.168-20.428,2.157-20.517-0.991c-0.09-3.15,6.569-4.41,8.637-5.309c7.054-0.017,18.521-7.778,22.08-9.352
				c3.553-1.574,7.404-0.627,7.404-0.627c0.217,1.49,0.371,2.845,0.394,3.77C717.103,589.629,714.045,599.348,714.045,599.348z"/>
			<g>
				<path fill="#877C78" d="M708.033,447.844H692c-1.629,0-2.956-1.325-2.956-2.952v-10.112c0-1.629,1.326-2.954,2.956-2.954h16.034
					c1.629,0,2.954,1.325,2.954,2.954v10.112C710.987,446.52,709.662,447.844,708.033,447.844z M692,433.808
					c-0.538,0-0.972,0.437-0.972,0.972v10.112c0,0.536,0.435,0.97,0.972,0.97h16.034c0.536,0,0.97-0.435,0.97-0.97v-10.112
					c0-0.536-0.435-0.972-0.97-0.972H692z"/>
			</g>
			<g>
				<rect x="669.936" y="443.505" fill="#CFBEB8" width="60.161" height="43.102"/>
			</g>
			<path fill="#275070" d="M774.318,422.592l-9.743-2.348c0,0,1.697-34.364,7.551-48.919c0.051-0.128,0.268,0.046,0.394,0.07
				c-0.055-0.328-0.116-0.657-0.176-0.985c-0.125-0.682-0.253-1.367-0.383-2.042c-1.488-7.745-3.205-14.509-3.205-14.509
				s-12.288-30.925,2.656-28.507c0,0,7.734,4.335,9.413,14.227c1.678,9.886,3.388,24.452,3.084,30.262
				c-0.305,5.806-1.956,12.748-3.423,19.708C780.486,389.549,774.709,420.504,774.318,422.592z"/>
			<path fill="#EEA886" d="M744.617,306.955c0,0,3.667,9.701,0.815,17.197c0,0,13.445-0.873,13.955-2.444
				c0.508-1.569-0.541-16.104,1.308-20.398C762.542,297.013,744.617,306.955,744.617,306.955z"/>
			<path fill="#285173" d="M743.32,320.871c0,0-7.945,2.825-11.534,3.61c-3.592,0.783-11.103,4.342-10.49,17.736
				c0.611,13.394,2.851,25.008,3.665,30.763c0.814,5.755,0.306,20.404-1.018,27.52c0,0,19.044,4.812,41.451,0
				c0,0-3.972-12.139-3.871-15.278c0.103-3.139,13.242-28.984,13.853-33.065c0.611-4.08,3.258-22.079-2.75-26.054
				c-6.01-3.977-10.899-3.454-13.443-5.232C756.637,319.092,747.035,319.594,743.32,320.871z"/>
			<path fill="#285173" d="M773.973,421.548c-32.539,8.631-58.433,0.033-58.433,0.033c2.363-4.854,4.1-9.695,5.357-14.384
				c0-0.002,0.002-0.002,0.002-0.002c0.89-3.313,1.539-6.547,2.003-9.653v-0.002c2.645-17.727-0.804-31.301-0.804-31.301
				c3.755-30.912,50.528-40.138,54.274-30.338c3.746,9.798-7.261,51.906-7.819,55.516
				C767.997,395.028,773.973,421.548,773.973,421.548z"/>
			<path fill="#EEA886" d="M756.336,268.035c-5.404-1.853-20.015-3.827-23.755,18.597c-3.742,22.423,4.408,22.809,12.781,22.17
				c8.375-0.637,21.473-15.773,22.477-20.374C768.842,283.827,771.757,273.326,756.336,268.035z"/>
			<path fill="#E8734D" d="M735.592,276.646c0,0,4.462,9.547,10.315,12.875c0,0,3.667,10.145,11.609,14.245
				c0,0,21.071-13.959,8.844-30.547C754.131,256.632,736.971,269.842,735.592,276.646z"/>
			<path fill="#EEA886" d="M745.39,286.212c0.473-1.167,3.632-3.064,5.049,0.136c1.416,3.201-3.669,8.839-5.063,8.536
				C743.983,294.579,743.59,290.638,745.39,286.212z"/>
			<path fill="#E8734D" d="M765.647,275.782c0.46-0.717,14.414-7.178,17.316,6.32c2.904,13.498-11.238,29.195-13.715,35.944
				c-2.479,6.749,1.119,22.568,1.119,22.568s-8.509-8.044-11.082-16.463C756.459,314.907,755.509,291.594,765.647,275.782z"/>
			<path fill="#285173" d="M766.351,275.322c0,0-4.273,3.381-4.823,8.712c0,0-0.802-4.159,0.921-6.702
				C764.17,274.792,766.351,275.322,766.351,275.322z"/>
			<path fill="#EEA886" d="M692.589,426.811c0,0-0.695,2.858-1.125,4.308c-0.429,1.451-0.693,3.219,0.323,3.983
				c1.014,0.765,3.199,3.386,4.674,4.584c1.475,1.2,9.844-2.429,10.776-3.854c0.932-1.427-0.895-9.42-3.447-11.016
				c-2.55-1.598-6.388-3.84-6.388-3.84L692.589,426.811z"/>
			<path fill="#285173" d="M729.539,325.215c0,0-11.143,4.416-11.801,19.903c-0.661,15.487-1.266,23.57-1.871,25.96
				c-0.604,2.39-1.761,11.998-4.564,17.778c-2.721,5.61-14.401,32.834-14.401,32.834l10.163,5.889c0,0,17.193-32.214,18.705-36.782
				c1.514-4.566,7.734-36.344,8.232-41.702C734.401,344.777,740.095,325.536,729.539,325.215z"/>
			<path fill="#285173" d="M729.086,377.101c0,0-5.845,1.136-12.719-2.777c0,0-3.1,10.387-5.065,14.533
				c-1.761,3.72-14.401,32.834-14.401,32.834l10.163,5.889c0,0,17.224-31.115,18.705-36.782
				C727.252,385.133,729.086,377.101,729.086,377.101z"/>
			<path fill="#1D3B54" d="M720.899,407.193c0.89-3.311,1.539-6.546,2.003-9.651v-0.002c0,0,2.145-4.562,2.867-6.742
				c0.727-2.179,6.113-28.976,6.113-28.976S737.58,386.989,720.899,407.193z"/>
			<path fill="#1D3B54" d="M775.028,360.811c0,0-6.441,29.686-6.474,30.607c-0.029,0.921,1.82,13.045,2.372,15.775L775.028,360.811z
				"/>
		</g>
	</g>
</g>
</svg>
