<?xml version="1.0" encoding="utf-8"?>
<!-- Generator: Adobe Illustrator 16.0.0, SVG Export Plug-In . SVG Version: 6.00 Build 0)  -->
<!DOCTYPE svg PUBLIC "-//W3C//DTD SVG 1.1//EN" "http://www.w3.org/Graphics/SVG/1.1/DTD/svg11.dtd">
<svg version="1.1" id="Layer_1" xmlns="http://www.w3.org/2000/svg" xmlns:xlink="http://www.w3.org/1999/xlink" x="0px" y="0px"
	 width="144px" height="144px" viewBox="0 0 144 144" enable-background="new 0 0 144 144" xml:space="preserve">
<g>
	<path fill="#ffffff" d="M122.986,133.52c0,2.572,0,4.998,0,7.426c0.002,2.511-0.533,3.054-3.032,3.055
		c-7.597,0.001-15.19,0.001-22.787,0c-2.752,0-3.224-0.482-3.224-3.299c-0.002-2.239,0-4.479,0-6.885c-0.631,0-1.131,0-1.631,0
		c-27.428,0-54.856,0.002-82.285-0.004C3.931,133.811-0.001,129.85,0,123.777C0.006,85.564,0.004,47.353,0.005,9.141
		C0.005,3.204,3.194,0,9.102,0c38.541,0,77.082,0,115.623,0c5.854,0,9.101,3.268,9.101,9.17c0.001,38.4-0.001,76.799,0.006,115.199
		c0,2.488-0.666,4.732-2.354,6.586c-1.506,1.652-3.295,2.758-5.67,2.575C124.932,133.462,124.047,133.52,122.986,133.52z
		 M93.943,129.368c0-0.679,0-1.142,0-1.604c0-16.175-0.036-32.35,0.049-48.523c0.01-1.871,0.402-3.852,1.1-5.588
		c3.609-8.99,7.381-17.917,11.078-26.871c0.471-1.14,1.005-2.178,2.423-2.188c1.487-0.01,2.028,1.076,2.515,2.262
		c3.539,8.616,7.164,17.197,10.607,25.852c0.746,1.875,1.182,3.996,1.217,6.012c0.135,8.155,0.06,16.314,0.06,24.472
		c0,8.11-0.011,16.221,0.014,24.332c0.001,0.5,0.281,1.439,0.394,1.434c1.271-0.064,2.713,0.057,3.756-0.516
		c1.834-1.006,2.238-2.918,2.236-4.978c-0.027-31.739-0.021-63.478-0.027-95.217c0-0.402-0.051-0.804-0.084-1.267
		c-1.295,0-2.463,0.006-3.631-0.001c-1.858-0.012-2.391-0.395-2.91-2.191c-0.323-1.124-0.663-2.254-0.844-3.405
		c-0.164-1.044-0.625-1.361-1.672-1.359c-14.908,0.032-29.818,0.028-44.726,0.011c-0.759-0.001-1.21,0.177-1.447,0.959
		c-0.407,1.342-1.051,2.625-1.344,3.987c-0.316,1.468-1.327,1.795-2.52,1.972c-0.505,0.075-1.03,0.021-1.545,0.021
		c-20.911-0.003-41.82-0.005-62.729-0.004c-0.451,0-0.901,0.045-1.451,0.075c0,0.531,0,0.946,0,1.36
		c0,31.786-0.001,63.571,0.001,95.358c0,3.76,1.853,5.602,5.625,5.602c24.566,0.002,49.132,0.001,73.698,0.001
		C87.104,129.368,90.424,129.368,93.943,129.368z M4.483,22.502c0.638,0,1.1,0,1.562,0c19.921,0.002,39.842,0.003,59.762,0.005
		c2.933,0,2.933,0.001,3.876-2.799c0.968-2.875,2.242-3.787,5.29-3.786c5.297,0.001,10.594,0.003,15.891,0.003
		c9.843,0.001,19.686-0.009,29.529,0.008c2.713,0.005,4.037,0.997,4.912,3.537c0.121,0.354,0.242,0.708,0.362,1.063
		c0.765,2.268,0.765,2.268,3.381,1.79c0-4.888,0.076-9.799-0.038-14.706c-0.044-1.906-1.555-3.078-3.505-3.145
		c-0.749-0.026-1.5-0.011-2.25-0.011c-29.812,0-59.622,0-89.433,0c-8.437,0-16.874-0.005-25.311,0.002
		C6.149,4.465,4.562,5.621,4.517,7.704C4.411,12.569,4.483,17.437,4.483,22.502z M118.469,139.479c0-19.94,0-39.744,0-59.571
		c-6.721,0-13.345,0-19.982,0c0,19.909,0,39.711,0,59.571C105.164,139.479,111.757,139.479,118.469,139.479z M116.715,72.833
		c-1.549-3.789-3.027-7.462-4.58-11.105c-0.123-0.291-0.742-0.507-1.14-0.521c-1.636-0.058-3.277,0.02-4.913-0.043
		c-0.852-0.033-1.232,0.315-1.527,1.072c-0.863,2.221-1.806,4.41-2.705,6.617c-0.524,1.283-1.025,2.575-1.584,3.98
		C105.816,72.833,111.175,72.833,116.715,72.833z M108.622,52.737c-0.654,1.437-1.192,2.619-1.78,3.908c1.274,0,2.307,0,3.575,0
		C109.811,55.324,109.282,54.175,108.622,52.737z"/>
	<path fill="#ffffff" d="M51.147,37.14c-12.135,0-24.271,0.017-36.406-0.038c-0.788-0.004-1.8-0.348-2.313-0.901
		c-0.963-1.037-0.264-2.724,1.139-3.078c0.49-0.124,1.02-0.124,1.532-0.124c24.13-0.006,48.26-0.005,72.391-0.004
		c0.375,0,0.752-0.016,1.123,0.021c1.363,0.137,1.976,0.799,1.949,2.076c-0.025,1.227-0.737,2.002-2.024,2.028
		c-2.39,0.048-4.779,0.025-7.168,0.025c-10.074,0.001-20.147,0.001-30.221,0.001C51.147,37.144,51.147,37.142,51.147,37.14z"/>
	<path fill="#ffffff" d="M42.721,62.977c-9.33,0-18.661,0.002-27.991-0.002c-1.671-0.001-2.481-0.587-2.658-1.878
		c-0.216-1.572,0.651-2.562,2.351-2.573c3.985-0.026,7.971-0.013,11.956-0.013c14.769,0.001,29.539,0.002,44.308,0.005
		c1.853,0,2.868,0.94,2.76,2.546c-0.086,1.26-0.889,1.907-2.453,1.911c-5.298,0.012-10.596,0.008-15.895,0.009
		c-4.126,0.001-8.252,0-12.378,0C42.721,62.98,42.721,62.979,42.721,62.977z"/>
	<path fill="#ffffff" d="M41.674,71.438c8.857,0,17.715-0.002,26.572,0.005c0.51,0,1.062-0.03,1.522,0.144
		c0.992,0.375,1.461,1.188,1.287,2.235c-0.198,1.191-1.025,1.756-2.195,1.765c-2.999,0.022-5.999,0.015-8.998,0.015
		c-14.95,0.002-29.9,0-44.85,0c-0.281,0-0.564,0.015-0.843-0.01c-1.352-0.115-2.138-0.912-2.119-2.137
		c0.018-1.226,0.823-2.001,2.208-2.01c3.608-0.024,7.217-0.012,10.826-0.012c5.53-0.001,11.06,0,16.59,0
		C41.674,71.434,41.674,71.436,41.674,71.438z"/>
	<path fill="#ffffff" d="M40.745,50.35c-8.712-0.002-17.424,0.001-26.136-0.005c-1.623-0.001-2.434-0.578-2.54-1.801
		c-0.104-1.201,0.441-1.987,1.622-2.262c0.403-0.094,0.836-0.084,1.256-0.084c17.284-0.005,34.567-0.015,51.851,0.02
		c0.738,0.001,1.698,0.209,2.15,0.696c0.436,0.47,0.664,1.579,0.402,2.128c-0.287,0.601-1.232,1.226-1.909,1.248
		c-3.743,0.12-7.492,0.061-11.24,0.061C51.049,50.352,45.897,50.351,40.745,50.35z"/>
	<path fill="#ffffff" d="M38.073,113.957c-7.775,0-15.549,0.01-23.324-0.02c-0.619-0.002-1.522-0.086-1.791-0.479
		c-0.479-0.697-0.919-1.752-0.721-2.479c0.168-0.619,1.223-1.314,1.95-1.396c1.804-0.201,3.646-0.073,5.472-0.073
		c13.723-0.001,27.445,0,41.168,0.002c0.421,0,0.847-0.024,1.263,0.022c1.285,0.146,2.082,1.093,2.054,2.403
		c-0.027,1.277-0.749,1.994-2.186,2.004c-4.074,0.031-8.149,0.018-12.224,0.02c-3.887,0.002-7.775,0-11.662,0
		C38.073,113.961,38.073,113.959,38.073,113.957z"/>
	<path fill="#ffffff" d="M36.988,84.059c7.449,0,14.898-0.013,22.347,0.023c0.657,0.003,1.582,0.124,1.906,0.551
		c0.475,0.626,0.763,1.604,0.686,2.387c-0.105,1.064-1.077,1.461-2.099,1.472c-2.155,0.022-4.31,0.013-6.465,0.013
		c-12.79,0-25.58,0.004-38.37-0.018c-0.634,0-1.354-0.067-1.881-0.369c-0.945-0.541-1.254-1.523-0.993-2.565
		c0.28-1.116,1.129-1.501,2.241-1.497c5.107,0.012,10.213,0.002,15.32,0c2.436-0.002,4.872,0,7.308,0
		C36.988,84.055,36.988,84.057,36.988,84.059z"/>
	<path fill="#ffffff" d="M40.478,96.95c8.574-0.002,17.148-0.007,25.722,0.003c2.148,0.002,2.945,0.927,2.376,2.706
		c-0.386,1.208-1.352,1.409-2.46,1.407c-4.919-0.008-9.839,0.004-14.758,0.004c-12.041-0.002-24.082-0.004-36.123-0.01
		c-0.514,0-1.037,0.017-1.541-0.066c-1.085-0.178-1.617-0.885-1.631-1.957c-0.014-1.073,0.503-1.792,1.576-2.008
		c0.454-0.09,0.932-0.074,1.4-0.075C23.518,96.951,31.998,96.952,40.478,96.95z"/>
	<path fill="#ffffff" d="M13.229,19.726c-3.942,0-7.145-3.166-7.184-7.101C6.006,8.763,9.27,5.433,13.137,5.389
		c4.013-0.045,7.241,3.153,7.252,7.183C20.398,16.434,17.103,19.727,13.229,19.726z M10.485,12.894
		c-0.003,1.542,1.229,2.721,2.813,2.693c1.573-0.028,2.648-1.122,2.635-2.682c-0.012-1.473-1.206-2.714-2.652-2.757
		C11.78,10.104,10.488,11.372,10.485,12.894z"/>
	<path fill="#ffffff" d="M50.421,19.725c-3.938,0.003-7.172-3.219-7.157-7.133c0.015-3.911,3.258-7.183,7.14-7.202
		c3.835-0.019,7.185,3.327,7.193,7.182C57.605,16.465,54.338,19.722,50.421,19.725z M47.723,12.722
		c-0.079,1.574,1.055,2.823,2.604,2.869c1.474,0.044,2.723-1.092,2.808-2.554c0.086-1.495-1.133-2.834-2.635-2.894
		C49.046,10.086,47.796,11.246,47.723,12.722z"/>
	<path fill="#ffffff" d="M31.813,19.731c-3.911,0.025-7.149-3.21-7.15-7.144C24.662,8.68,27.921,5.394,31.8,5.39
		c3.838-0.003,7.211,3.361,7.203,7.182C38.994,16.447,35.721,19.706,31.813,19.731z M31.819,10.143
		c-1.458-0.009-2.669,1.178-2.71,2.657c-0.044,1.561,1.14,2.791,2.69,2.794c1.468,0.003,2.699-1.177,2.744-2.631
		C34.588,11.484,33.3,10.152,31.819,10.143z"/>
</g>
</svg>
