<?xml version="1.0" encoding="utf-8"?>
<!-- Generator: Adobe Illustrator 17.0.0, SVG Export Plug-In . SVG Version: 6.00 Build 0)  -->
<!DOCTYPE svg PUBLIC "-//W3C//DTD SVG 1.1//EN" "http://www.w3.org/Graphics/SVG/1.1/DTD/svg11.dtd">
<svg version="1.1" id="Layer_1" xmlns="http://www.w3.org/2000/svg" xmlns:xlink="http://www.w3.org/1999/xlink" x="0px" y="0px"
	 width="144px" height="144px" viewBox="0 0 144 144" enable-background="new 0 0 144 144" xml:space="preserve">
<g>
	<path fill="#ffffff" d="M25.758,30.303c0-6.517-0.025-12.855,0.017-19.192c0.011-1.602,0.091-3.23,0.395-4.796
		c0.411-2.119,1.5-3.969,3.326-5.163c0.915-0.598,2.111-1.074,3.182-1.079c15.049-0.069,30.099-0.047,45.149-0.047
		c19.594,0,39.188,0.013,58.782-0.026c1.539-0.003,2.723,0.481,3.804,1.51c2.263,2.155,3.465,4.633,3.46,7.889
		c-0.059,41.973-0.054,83.947-0.011,125.92c0.003,3.237-1.364,5.661-3.749,7.559c-0.801,0.637-2.016,1.062-3.042,1.063
		c-34.741,0.054-69.483,0.037-104.225,0.059c-2.841,0.002-4.493-1.777-5.461-3.957c-0.862-1.941-1.312-4.209-1.355-6.345
		c-0.14-6.886,0.017-13.777,0.013-20.667c-0.011-16.418-0.06-32.835-0.054-49.253c0-1.379-0.442-2.394-1.415-3.361
		c-7.07-7.025-14.099-14.092-21.142-21.145c-4.388-4.395-4.406-7.011-0.059-11.394c1.789-1.804,3.577-3.61,5.399-5.381
		c2.853-2.772,6.113-2.767,8.932,0.008c2.541,2.503,5.056,5.033,7.585,7.547C25.355,30.119,25.458,30.146,25.758,30.303z
		 M31.184,66.458c-0.213,0.161-0.425,0.322-0.638,0.483c0,0.516,0,1.032,0,1.548c0,21.889,0,43.778,0,65.667
		c0,4.306,1.407,5.726,5.69,5.727c32.247,0.002,64.494,0.002,96.741-0.003c0.682,0,1.37-0.022,2.046-0.105
		c1.93-0.239,3.249-1.37,3.675-3.26c0.212-0.943,0.307-1.932,0.307-2.9c0.019-41.335,0.023-82.669,0.023-124.004
		c0-4.047-1.415-5.501-5.462-5.503c-32.442-0.013-64.885-0.014-97.327,0.001c-4.021,0.002-5.451,1.491-5.452,5.528
		c-0.003,7.817,0.044,15.635-0.01,23.452c-0.011,1.538,0.448,2.669,1.528,3.762c10.092,10.22,20.157,20.467,30.173,30.762
		c0.806,0.828,1.458,2.008,1.716,3.131c1.2,5.23,2.241,10.496,3.329,15.752c0.343,1.657,0.064,1.939-1.61,1.587
		c-5.252-1.102-10.514-2.166-15.74-3.382c-1.112-0.259-2.279-0.904-3.097-1.703c-5.102-4.984-10.119-10.056-15.138-15.125
		C31.577,67.507,31.43,66.934,31.184,66.458z M17.96,34.64c12.647,12.645,25.197,25.193,37.511,37.505
		c0.753-0.658,1.626-1.42,2.471-2.159C45.347,57.429,32.783,44.904,20.224,32.385C19.486,33.12,18.668,33.935,17.96,34.64z
		 M51.741,76.411C39.045,63.736,26.468,51.179,13.815,38.547c-0.598,0.541-1.266,1.146-1.884,1.706
		C24.636,52.93,37.242,65.509,49.893,78.132C50.411,77.65,51.047,77.057,51.741,76.411z M16.643,27.824
		c-0.634-0.604-1.299-1.177-1.892-1.817c-0.961-1.037-1.791-1.071-2.795,0.017c-1.682,1.823-3.48,3.539-5.207,5.32
		c-2.052,2.116-2.043,2.126-0.101,4.259c0.377,0.415,0.759,0.825,1.063,1.155C10.715,33.754,13.635,30.833,16.643,27.824z
		 M61.939,82.249c-0.483-2.411-0.917-4.572-1.333-6.651c-1.787,1.797-3.514,3.534-5.274,5.304
		C57.337,81.311,59.506,81.753,61.939,82.249z"/>
	<path fill="#ffffff" d="M96.34,9.781c11.335,0,22.669-0.001,34.004,0.001c1.943,0,1.993,0.044,1.994,1.948
		c0.004,14.266,0.004,28.532,0,42.798c-0.001,1.789-0.142,1.925-1.911,1.925c-22.816,0.002-45.632,0.002-68.448,0
		c-1.799,0-1.916-0.113-1.917-1.914c-0.004-14.266-0.004-28.532,0-42.798c0-1.917,0.044-1.959,1.982-1.96
		C73.476,9.78,84.908,9.781,96.34,9.781z M65.147,14.584c0,9.721,0,19.301,0,29.108c0.554-0.495,0.949-0.833,1.328-1.188
		c3.883-3.639,7.783-7.26,11.631-10.936c0.903-0.863,1.559-0.871,2.449,0c1.91,1.869,3.899,3.659,5.908,5.53
		c0.331-0.315,0.588-0.529,0.81-0.774c2.618-2.897,5.221-5.808,7.848-8.696c1.452-1.597,1.498-1.605,3.11-0.103
		c2.609,2.429,5.178,4.9,7.778,7.339c2.84,2.664,5.695,5.313,8.609,8.03c1.969-1.838,3.86-3.588,5.734-5.358
		c1.446-1.367,1.521-1.368,2.958-0.022c1.43,1.339,2.884,2.654,4.44,4.084c0-9.172,0-18.077,0-27.012
		C106.852,14.584,86.059,14.584,65.147,14.584z M64.652,50.98c0.108,0.12,0.216,0.24,0.324,0.36c20.845,0,41.69,0,62.796,0
		c-0.177-1.152,0.016-2.488-0.562-3.157c-1.674-1.938-3.658-3.608-5.559-5.421c-2.062,1.938-4.024,3.7-5.885,5.565
		c-0.971,0.973-1.707,1.016-2.703,0.042c-2.443-2.392-4.953-4.715-7.448-7.053c-2.953-2.766-5.919-5.519-8.942-8.335
		c-2.893,3.2-5.723,6.298-8.515,9.43c-1.502,1.686-1.577,1.706-3.195,0.216c-1.935-1.783-3.894-3.539-5.883-5.344
		C74.216,41.901,69.434,46.44,64.652,50.98z"/>
	<path fill="#ffffff" d="M107.577,25.735c0.002-3.963,3.094-7.068,7.047-7.077c3.87-0.008,7.083,3.222,7.061,7.099
		c-0.022,3.92-3.193,7.082-7.091,7.073C110.642,32.822,107.576,29.721,107.577,25.735z M112.318,25.571
		c-0.077,1.32,0.845,2.4,2.118,2.479c1.279,0.08,2.397-0.865,2.508-2.12c0.111-1.257-0.853-2.363-2.153-2.469
		C113.484,23.355,112.393,24.286,112.318,25.571z"/>
</g>
<rect x="74.143" y="63.484" fill="#ffffff" width="58.198" height="5.107"/>
<rect x="74.143" y="75.446" fill="#ffffff" width="58.198" height="5.107"/>
<rect x="74.143" y="86.855" fill="#ffffff" width="58.198" height="5.107"/>
<rect x="37.504" y="98.817" fill="#ffffff" width="94.837" height="5.107"/>
<rect x="37.504" y="110.171" fill="#ffffff" width="94.837" height="5.107"/>
<rect x="37.504" y="122.133" fill="#ffffff" width="94.837" height="5.107"/>
</svg>
