<?xml version="1.0" encoding="utf-8"?>
<!-- Generator: Adobe Illustrator 17.0.0, SVG Export Plug-In . SVG Version: 6.00 Build 0)  -->
<!DOCTYPE svg PUBLIC "-//W3C//DTD SVG 1.1//EN" "http://www.w3.org/Graphics/SVG/1.1/DTD/svg11.dtd">
<svg version="1.1" id="Layer_1" xmlns="http://www.w3.org/2000/svg" xmlns:xlink="http://www.w3.org/1999/xlink" x="0px" y="0px"
	 width="144px" height="144px" viewBox="0 0 144 144" enable-background="new 0 0 144 144" xml:space="preserve">
<g>
	<path fill="#ffffff" d="M134.169,71.936c0,23.272,0,46.545,0,69.817c0,2.238-0.003,2.241-2.251,2.241
		c-36.089,0-72.178-0.005-108.267,0.006c-4.942,0.001-9.081-1.577-11.843-5.884c-1.589-2.477-1.978-5.273-1.977-8.165
		c0.01-30.259,0.006-60.518,0.006-90.777c0-8.432-0.009-16.864,0.003-25.296C9.85,6.538,13.029,2.32,20.095,0.27
		c0.636-0.184,1.325-0.259,1.989-0.259C58.8-0.002,95.515-0.001,132.23,0.001c1.851,0,1.937,0.09,1.938,1.974
		C134.17,25.295,134.169,48.616,134.169,71.936z M129.225,118.335c0-37.857,0-75.602,0-113.389c-34.752,0-69.416,0-104.125,0
		c0,37.835,0,75.581,0,113.389C59.812,118.335,94.44,118.335,129.225,118.335z M129.434,123.041c-0.684,0-1.253,0-1.821,0
		c-34.549,0-69.098,0-103.646,0.001c-0.578,0-1.158-0.01-1.734,0.026c-3.774,0.232-6.986,2.986-7.651,6.546
		c-1.025,5.487,2.872,9.831,8.857,9.831c34.79,0.006,69.579,0.003,104.369,0.003c0.517,0,1.033,0,1.627,0
		C129.434,133.934,129.434,128.599,129.434,123.041z M20.08,5.184c-0.354,0.072-0.498,0.084-0.628,0.131
		c-0.225,0.083-0.45,0.173-0.661,0.286c-3.319,1.786-4.415,4.738-4.414,8.308c0.008,35.21,0.005,70.421,0.008,105.631
		c0,0.459,0.04,0.919,0.071,1.583c1.483-0.757,2.76-1.521,4.122-2.071c1.211-0.489,1.535-1.208,1.534-2.497
		C20.073,79.997,20.08,43.438,20.08,6.879C20.08,6.352,20.08,5.825,20.08,5.184z"/>
	<path fill="#ffffff" d="M87.105,129.07c-2.375-0.001-2.375-0.001-2.379,2.254c-0.004,2.268,0.041,2.316,2.2,2.319
		c2.504,0.003,2.504,0.003,2.504-2.255C89.431,129.071,89.431,129.071,87.105,129.07z M105.698,131.353
		c-0.001-2.151-0.264-2.426-2.337-2.445c-1.608-0.014-2.525,0.831-2.494,2.298c0.042,1.993,0.565,2.504,2.565,2.504
		C105.699,133.708,105.699,133.708,105.698,131.353z M97.48,131.383c0-2.31,0-2.31-2.159-2.312
		c-2.465-0.002-2.465-0.002-2.466,2.296c-0.002,2.32,0.008,2.329,2.333,2.329C97.48,133.696,97.48,133.696,97.48,131.383z
		 M111.458,129.07c-2.332,0-2.332,0-2.333,2.271c-0.001,2.301-0.001,2.301,2.32,2.301c2.338,0,2.338,0,2.338-2.277
		C113.784,129.07,113.784,129.07,111.458,129.07z M119.452,133.681c2.361,0.001,2.361,0.001,2.363-2.241
		c0.002-2.399,0.002-2.399-2.219-2.401c-2.426-0.002-2.426-0.002-2.428,2.297C117.167,133.68,117.167,133.68,119.452,133.681z"/>
	<path fill="#ffffff" d="M121.012,69.377c0,11.995,0.011,23.991-0.006,35.986c-0.006,4.052-2.147,7.05-5.609,7.983
		c-5.031,1.355-9.65-1.899-10.059-7.093c-0.045-0.576-0.078-1.155-0.078-1.732c0.007-23.605,0.007-47.21,0.059-70.814
		c0.003-1.217,0.231-2.538,0.743-3.629c1.899-4.046,3.948-8.021,5.977-12.005c0.221-0.434,0.67-0.752,1.013-1.124
		c0.398,0.369,0.939,0.665,1.171,1.12c2.1,4.114,4.186,8.237,6.177,12.406c0.416,0.871,0.586,1.939,0.589,2.917
		C121.026,45.386,121.013,57.381,121.012,69.377z M110.32,40.379c0,18.306,0,36.481,0,54.683c1.975,0,3.832,0,5.678,0
		c0-18.281,0-36.464,0-54.683C114.079,40.379,112.261,40.379,110.32,40.379z M110.098,100.215c0,2.071-0.084,3.991,0.027,5.9
		c0.086,1.484,1.338,2.603,2.737,2.719c1.384,0.114,2.984-0.779,3.086-2.06c0.173-2.172,0.048-4.368,0.048-6.559
		C114.007,100.215,112.137,100.215,110.098,100.215z M113.105,27.025c-1.436,2.824-3.466,5.198-3,8.559c2.022,0,3.966,0,6.005,0
		C116.615,32.203,114.56,29.837,113.105,27.025z"/>
	<path fill="#ffffff" d="M65.497,19.826c-10.554,0-21.108,0.001-31.661-0.001c-1.847,0-2.076-0.236-2.161-2.184
		c-0.075-1.719,0.449-2.352,2.063-2.46c0.48-0.032,0.963-0.021,1.445-0.021c20.481-0.001,40.962-0.001,61.443,0
		c0.53,0,1.121-0.132,1.573,0.059c0.478,0.202,0.825,0.717,1.224,1.1c0.025,0.024,0.005,0.093,0.01,0.141
		c0.33,3.146,0.134,3.366-2.997,3.366C86.123,19.826,75.81,19.826,65.497,19.826z"/>
	<path fill="#ffffff" d="M62.137,76.366c-9.484,0-18.969,0.001-28.453-0.001c-1.897,0-1.897-0.007-1.904-1.938
		c-0.009-2.718-0.009-2.718,2.656-2.718c18.68,0,37.36-0.005,56.04,0.02c0.72,0.001,2.007,0.193,2.06,0.477
		c0.224,1.194,0.156,2.468-0.002,3.687c-0.028,0.219-0.982,0.45-1.51,0.452c-6.21,0.031-12.421,0.02-18.632,0.021
		C68.973,76.366,65.555,76.366,62.137,76.366z"/>
	<path fill="#ffffff" d="M59.729,53.812c-8.618,0-17.235,0.013-25.853-0.026c-0.642-0.003-1.795-0.304-1.834-0.587
		c-0.165-1.203-0.07-2.462,0.118-3.67c0.03-0.191,1.026-0.327,1.576-0.328c6.884-0.022,13.769-0.015,20.654-0.015
		c10.303,0,20.605,0,30.908,0c2.378,0,2.378,0.002,2.376,2.422c-0.001,2.201-0.001,2.201-2.236,2.203c-0.337,0-0.674,0-1.011,0
		C76.194,53.812,67.962,53.812,59.729,53.812z"/>
	<path fill="#ffffff" d="M58.117,99.031c-8.047,0-16.094,0-24.141,0c-2.267,0-2.267-0.001-2.282-2.365
		c-0.012-1.89,0.404-2.303,2.432-2.304c8.047-0.004,16.094,0.008,24.141,0.01c8.192,0.002,16.383-0.001,24.575,0.002
		c1.751,0,1.854,0.109,1.882,1.886c0.004,0.289,0.004,0.578,0,0.867c-0.023,1.765-0.155,1.903-1.888,1.904
		C74.597,99.033,66.357,99.031,58.117,99.031z"/>
	<path fill="#ffffff" d="M54.662,31.016c-6.937,0-13.874,0.002-20.812-0.001c-1.82-0.001-2.086-0.239-2.172-1.89
		c-0.107-2.053,0.273-2.59,2.02-2.77c0.621-0.064,1.25-0.072,1.876-0.072c13.2-0.004,26.4-0.003,39.6-0.003
		c2.196,0,2.196,0.003,2.198,2.137c0,0.337-0.027,0.677,0.005,1.011c0.115,1.204-0.449,1.616-1.615,1.602
		c-3.372-0.042-6.744-0.015-10.117-0.014C61.985,31.017,58.323,31.017,54.662,31.016z"/>
	<path fill="#ffffff" d="M50.657,105.796c5.635,0,11.27-0.002,16.905,0.001c1.913,0.001,1.966,0.058,1.972,1.922
		c0.002,0.482,0.152,1.038-0.039,1.426c-0.248,0.503-0.733,0.917-1.19,1.275c-0.181,0.142-0.56,0.032-0.849,0.032
		c-11.222,0-22.444,0.002-33.665-0.001c-1.916,0-2.013-0.1-2.01-2.062c0.004-2.816-0.224-2.59,2.549-2.593
		C39.773,105.793,45.215,105.796,50.657,105.796z"/>
	<path fill="#ffffff" d="M50.577,65.192c-5.633,0-11.265,0.002-16.898-0.001c-1.818-0.001-1.887-0.074-1.9-1.849
		c-0.021-2.765-0.021-2.765,2.719-2.765c10.88,0,21.76,0,32.64,0c2.431,0,2.431,0.001,2.427,2.499c0,0.096-0.01,0.194,0.001,0.289
		c0.173,1.375-0.404,1.866-1.803,1.852C62.035,65.158,56.306,65.192,50.577,65.192z"/>
	<path fill="#ffffff" d="M46.134,83.13c4.138,0,8.277,0.049,12.414-0.028c1.384-0.026,1.887,0.422,1.879,1.808
		c-0.018,2.915,0.034,2.9-2.903,2.895c-7.699-0.013-15.398-0.01-23.097-0.017c-2.435-0.002-3.65-1.83-2.557-3.996
		c0.194-0.385,1.022-0.627,1.56-0.633C37.665,83.108,41.899,83.13,46.134,83.13z"/>
	<path fill="#ffffff" d="M83.127,110.396c-2.354-0.002-2.354-0.002-2.353-2.4c0.001-2.17,0.001-2.17,2.601-2.168
		c2.217,0.002,2.22,0.004,2.217,2.266C85.59,110.398,85.59,110.398,83.127,110.396z"/>
	<path fill="#ffffff" d="M34.098,42.393c-2.286,0-2.286,0-2.286-2.334c-0.001-2.317-0.001-2.317,2.483-2.315
		c2.106,0.002,2.146,0.046,2.142,2.368C36.434,42.393,36.434,42.393,34.098,42.393z"/>
	<path fill="#ffffff" d="M75.123,105.693c0.707,0.205,1.938,0.282,2.025,0.638c0.274,1.123,0.152,2.352,0.093,3.535
		c-0.009,0.176-0.492,0.425-0.782,0.468c-0.564,0.085-1.146,0.059-1.72,0.06c-2.249,0.002-2.279-0.03-2.28-2.214
		C72.457,105.855,72.457,105.855,75.123,105.693z"/>
	<path fill="#ffffff" d="M70.412,40.115c-0.001,2.278-0.001,2.278-2.327,2.278c-2.321,0-2.321,0-2.319-2.418
		c0.002-2.221,0.002-2.221,2.391-2.22C70.412,37.756,70.412,37.756,70.412,40.115z"/>
	<path fill="#ffffff" d="M76.745,37.743c2.362-0.001,2.362-0.001,2.362,2.273c0.001,2.351,0.001,2.351-2.277,2.352
		c-2.371,0.001-2.371,0.001-2.369-2.411C74.463,37.744,74.463,37.744,76.745,37.743z"/>
	<path fill="#ffffff" d="M42.671,37.782c2.317,0,2.317,0,2.317,2.307c-0.001,2.279-0.001,2.279-2.337,2.279
		c-2.322,0-2.322,0-2.319-2.445C40.334,37.782,40.334,37.782,42.671,37.782z"/>
	<path fill="#ffffff" d="M51.072,42.369c-2.311-0.001-2.311-0.001-2.311-2.326c0.001-2.278,0.001-2.278,2.512-2.275
		c2.138,0.003,2.169,0.036,2.167,2.344C53.438,42.369,53.438,42.369,51.072,42.369z"/>
	<path fill="#ffffff" d="M59.445,42.393c-2.096-0.005-2.096-0.005-2.091-2.519c0.004-2.149,0.004-2.149,2.632-2.14
		c1.966,0.007,1.966,0.007,1.955,2.669C61.931,42.399,61.931,42.399,59.445,42.393z"/>
	<path fill="#ffffff" d="M87.105,129.07c2.325,0.001,2.325,0.001,2.325,2.318c0,2.258,0,2.258-2.504,2.255
		c-2.16-0.003-2.205-0.05-2.2-2.319C84.73,129.07,84.73,129.07,87.105,129.07z"/>
	<path fill="#ffffff" d="M105.698,131.353c0.001,2.356,0.001,2.356-2.266,2.356c-2,0-2.523-0.51-2.565-2.504
		c-0.031-1.467,0.886-2.312,2.494-2.298C105.434,128.926,105.697,129.201,105.698,131.353z"/>
	<path fill="#ffffff" d="M97.48,131.383c0,2.313,0,2.313-2.292,2.313c-2.326,0-2.335-0.009-2.333-2.329
		c0.002-2.298,0.002-2.298,2.466-2.296C97.479,129.072,97.479,129.072,97.48,131.383z"/>
	<path fill="#ffffff" d="M111.458,129.07c2.325,0,2.325,0,2.326,2.295c0,2.277,0,2.277-2.338,2.277c-2.321,0-2.321,0-2.32-2.301
		C109.126,129.07,109.126,129.07,111.458,129.07z"/>
	<path fill="#ffffff" d="M119.452,133.681c-2.285-0.001-2.285-0.001-2.284-2.345c0.001-2.299,0.001-2.299,2.428-2.297
		c2.221,0.002,2.221,0.002,2.219,2.401C121.813,133.681,121.813,133.681,119.452,133.681z"/>
</g>
</svg>
