<?xml version="1.0" encoding="utf-8"?>
<!-- Generator: Adobe Illustrator 17.0.0, SVG Export Plug-In . SVG Version: 6.00 Build 0)  -->
<!DOCTYPE svg PUBLIC "-//W3C//DTD SVG 1.1//EN" "http://www.w3.org/Graphics/SVG/1.1/DTD/svg11.dtd">
<svg version="1.1" id="Layer_1" xmlns="http://www.w3.org/2000/svg" xmlns:xlink="http://www.w3.org/1999/xlink" x="0px" y="0px"
	 width="144px" height="144px" viewBox="0 0 144 144" enable-background="new 0 0 144 144" xml:space="preserve">
<g>
	<path fill="#ffffff" d="M79.822,0c1.2,0.811,1.53,1.942,1.482,3.363c-0.09,2.695-0.026,5.395-0.026,8.25c0.634,0,1.151,0,1.668,0
		c7.693,0,15.385-0.002,23.078,0.001c2.386,0.001,3.116,0.726,3.118,3.107c0.005,5.37,0.002,10.741,0.002,16.111
		c0,0.528,0,1.055,0,1.696c10.746,1.076,19.356,5.897,25.755,14.504c4.684,6.3,6.954,13.433,6.744,21.296
		c-0.415,15.566-11.822,29.538-27.755,33.145c0,3.244,0,6.513,0,10.006c0.66,0,1.362-0.022,2.062,0.004
		c1.552,0.058,2.467,0.9,2.47,2.433c0.022,9.192,0.021,18.385,0,27.577c-0.004,1.616-0.907,2.482-2.558,2.489
		c-6.048,0.023-12.095,0.026-18.143,0.004c-1.696-0.006-2.51-0.955-2.513-2.839c-0.009-6.193-0.002-12.385-0.001-18.578
		c0-0.529,0-1.057,0-1.801c-0.571,0-1.08,0-1.589,0c-12.24,0.002-24.481,0.002-36.721,0.005c-2.869,0.001-3.492-0.615-3.492-3.467
		c0-27.238,0-54.477,0-81.715c0-0.481,0-0.962,0-1.443c-0.075-0.012-0.15-0.025-0.225-0.037c-0.781,3.399-1.572,6.796-2.341,10.198
		c-5.547,24.547-11.088,49.096-16.633,73.644c-0.474,2.099-1.436,2.718-3.559,2.238c-8.622-1.949-17.241-3.91-25.859-5.881
		c-2.216-0.507-2.774-1.446-2.274-3.658c6.326-27.987,12.65-55.974,18.973-83.962c0.52-2.303,1.549-2.865,3.881-2.323
		c8.469,1.969,16.951,3.879,25.42,5.849c0.854,0.199,1.649,0.653,2.548,1.02c0.016-0.269,0.066-0.719,0.067-1.169
		c0.004-8.902,0.029-17.804-0.026-26.706C53.367,1.941,53.66,0.813,54.856,0C63.178,0,71.5,0,79.822,0z M58.151,4.698
		c0,37.22,0,74.282,0,111.308c6.212,0,12.322,0,18.478,0c0-10.078,0.017-20.038-0.029-29.999c-0.004-0.916-0.251-1.913-0.662-2.734
		c-5.357-10.698-5.308-21.352,0.087-32.018c0.352-0.696,0.573-1.541,0.575-2.318c0.035-14.265,0.029-28.531,0.027-42.797
		c0-0.466-0.042-0.933-0.067-1.443C70.375,4.698,64.3,4.698,58.151,4.698z M33.347,100.622c3.945-17.444,7.837-34.652,11.749-51.95
		c-7.625-1.873-15.046-3.695-22.554-5.539c-3.944,17.44-7.835,34.648-11.745,51.938C18.384,96.939,25.775,98.758,33.347,100.622z
		 M76.628,67.255c-0.064,16.864,13.138,30.214,29.951,30.287c17,0.074,30.37-13.084,30.433-29.95
		c0.064-17.009-13.084-30.369-29.95-30.433C89.993,37.094,76.693,50.246,76.628,67.255z M9.762,99.603
		c-0.799,3.579-1.568,7.019-2.351,10.524c7.685,1.752,15.103,3.443,22.615,5.155c0.773-3.42,1.513-6.699,2.286-10.119
		C24.759,103.301,17.331,101.47,9.762,99.603z M46.121,44.145c0.739-3.287,1.452-6.461,2.191-9.744
		c-7.65-1.743-15.098-3.44-22.627-5.155c-0.723,3.217-1.397,6.214-2.101,9.345C31.096,40.442,38.49,42.264,46.121,44.145z
		 M81.389,27.921c0,5.297,0,10.463,0,15.852c6.415-6.684,14.05-10.401,23.02-11.22c0-1.635,0-3.108,0-4.632
		C96.706,27.921,89.091,27.921,81.389,27.921z M81.34,23.124c7.769,0,15.423,0,23.042,0c0-2.343,0-4.582,0-6.793
		c-7.737,0-15.356,0-23.042,0C81.34,18.61,81.34,20.815,81.34,23.124z M99.782,101.463c-7.179-1.598-13.233-5.16-18.401-10.522
		c0,4.674,0,9.088,0,13.501c6.182,0,12.256,0,18.401,0C99.782,103.433,99.782,102.491,99.782,101.463z M81.333,116.004
		c4.72,0,9.277,0,13.533,0c0.377-1.404,0.349-2.996,1.13-3.74c0.828-0.788,2.424-0.77,3.769-1.126c0-0.5,0-1.192,0-1.888
		c-6.193,0-12.296,0-18.431,0C81.333,111.551,81.333,113.754,81.333,116.004z M99.933,116.186c0,1.6,0,3.03,0,4.494
		c4.637,0,9.193,0,13.747,0c0-1.554,0-3.018,0-4.494C109.05,116.186,104.528,116.186,99.933,116.186z M113.72,125.507
		c-4.664,0-9.221,0-13.75,0c0,1.563,0,3.028,0,4.478c4.638,0,9.16,0,13.75,0C113.72,128.483,113.72,127.052,113.72,125.507z
		 M99.921,139.244c4.67,0,9.225,0,13.75,0c0-1.571,0-3.036,0-4.467c-4.639,0-9.161,0-13.75,0
		C99.921,136.283,99.921,137.713,99.921,139.244z M104.526,111.387c1.588,0,3.052,0,4.518,0c0-3.101,0-6.11,0-9.082
		c-1.567,0-3.031,0-4.518,0C104.526,105.364,104.526,108.304,104.526,111.387z"/>
	<path fill="#ffffff" d="M62.758,13.835c0-1.533,0-2.963,0-4.471c3.042,0,6.017,0,9.112,0c0,1.434,0,2.899,0,4.471
		C68.895,13.835,65.886,13.835,62.758,13.835z"/>
	<path fill="#ffffff" d="M71.925,18.685c0,1.515,0,2.945,0,4.46c-3.069,0-6.079,0-9.162,0c0-1.488,0-2.918,0-4.46
		C65.769,18.685,68.779,18.685,71.925,18.685z"/>
	<path fill="#ffffff" d="M62.81,27.917c3.037,0,6.013,0,9.084,0c0,1.513,0,2.978,0,4.522c-3.014,0-5.99,0-9.084,0
		C62.81,31.007,62.81,29.541,62.81,27.917z"/>
	<path fill="#ffffff" d="M71.928,106.938c0,1.515,0,2.946,0,4.46c-3.068,0-6.078,0-9.164,0c0-1.487,0-2.918,0-4.46
		C65.768,106.938,68.779,106.938,71.928,106.938z"/>
	<path fill="#ffffff" d="M106.81,41.8c13.731-0.035,25.522,11.764,25.558,25.575c0.036,13.578-11.793,25.502-25.319,25.524
		C93.181,92.921,81.318,81.254,81.27,67.544C81.221,53.672,92.965,41.835,106.81,41.8z M106.903,46.45
		c-11.7-0.073-20.919,8.977-20.983,20.6c-0.066,11.903,8.873,21.134,20.527,21.198c12.008,0.066,21.184-8.819,21.27-20.596
		C127.804,55.656,118.84,46.525,106.903,46.45z"/>
</g>
</svg>
