<?xml version="1.0" encoding="utf-8"?>
<!-- Generator: Adobe Illustrator 17.0.0, SVG Export Plug-In . SVG Version: 6.00 Build 0)  -->
<!DOCTYPE svg PUBLIC "-//W3C//DTD SVG 1.1//EN" "http://www.w3.org/Graphics/SVG/1.1/DTD/svg11.dtd">
<svg version="1.1" id="Layer_1" xmlns="http://www.w3.org/2000/svg" xmlns:xlink="http://www.w3.org/1999/xlink" x="0px" y="0px"
	 width="160px" height="160px" viewBox="0 0 160 160" enable-background="new 0 0 160 160" xml:space="preserve">
<g>
	<g>
		<path fill="#B7DFEA" d="M153.89,147.524c0,0-31.614,3.688-70.613,3.688s-70.613-3.688-70.613-3.688s31.614-3.688,70.613-3.688
			S153.89,147.524,153.89,147.524z"/>
		<path fill="#B7DFEA" d="M70.566,153.183c0,0-6.707,1.817-14.979,1.817c-8.273,0-14.979-1.817-14.979-1.817
			s6.707-1.816,14.979-1.816C63.859,151.367,70.566,153.183,70.566,153.183z"/>
		<path fill="#B7DFEA" d="M156.037,151.089c0,0-8.336,1.595-18.619,1.595s-18.619-1.595-18.619-1.595s8.336-1.595,18.619-1.595
			S156.037,151.089,156.037,151.089z"/>
	</g>
	<g>
		<g>
			<g>
				<path fill="#FFFFFF" d="M50.14,27.857v-2.001c0-1.265,1.029-2.294,2.294-2.294c1.265,0,2.294,1.029,2.294,2.294v2.001h0.689
					v-2.001c0-1.645-1.338-2.983-2.983-2.983c-1.645,0-2.983,1.338-2.983,2.983v2.001H50.14z"/>
			</g>
			<g>
				<g>
					<rect x="48.121" y="27.125" fill="#FFFFFF" width="8.816" height="10.733"/>
					<rect x="47.265" y="27.125" fill="#FFFFFF" width="10.346" height="2.504"/>
					<path fill="#00A7FF" d="M57.61,27.125v1.244c-0.357-0.012-0.725-0.132-1.028-0.32c-0.132-0.083-0.261-0.176-0.411-0.218
						c-0.15-0.041-0.332-0.015-0.426,0.107c-0.123,0.162-0.073,0.443-0.252,0.537c-0.143,0.075-0.317-0.043-0.4-0.183
						c-0.083-0.139-0.124-0.307-0.239-0.421c-0.164-0.163-0.467-0.153-0.621,0.019c-0.126,0.142-0.143,0.347-0.185,0.533
						c-0.042,0.186-0.141,0.389-0.328,0.428c-0.164,0.034-0.324-0.079-0.43-0.21c-0.105-0.131-0.181-0.287-0.309-0.396
						c-0.356-0.306-0.902-0.112-1.317,0.108c-0.414,0.22-0.927,0.456-1.323,0.206c-0.145-0.092-0.252-0.239-0.406-0.314
						c-0.223-0.108-0.497-0.038-0.711,0.09c-0.632,0.376-0.978,0.722-1.767,0.623c-0.065-0.008-0.129-0.017-0.194-0.029v-1.804
						H57.61z"/>
					<rect x="48.121" y="29.629" fill="#E8E8E8" width="8.816" height="1.224"/>
				</g>
			</g>
		</g>
	</g>
	<g>
		<path fill="#009B75" d="M145.797,85.247c-0.311,0.819-0.822,1.474-1.45,2.035c-1.639,1.466-4.076,2.302-5.835,3.763
			c-0.468,0.389-0.889,0.823-1.233,1.325c-1.446,2.106-1.194,4.802-0.754,7.392c0.094,0.553,0.196,1.101,0.293,1.638
			c0.01,0.054,0.019,0.108,0.027,0.162c0.519,3.018,0.489,6.643-1.998,8.4c-3.371,2.379-8.932-0.423-11.783,2.558
			c-0.712,0.744-1.08,1.698-1.374,2.699c-0.184,0.622-0.339,1.262-0.531,1.878c-0.038,0.121-0.077,0.241-0.118,0.361
			c-0.124,0.36-0.273,0.712-0.446,1.054c-2.077,4.139-6.298,4.88-9.629,3.489c-0.569-0.238-1.111-0.537-1.613-0.894
			c-2.433-1.724-3.899-4.763-2.673-8.398c0.121-0.363,0.267-0.717,0.435-1.059c0.049-0.098,0.098-0.197,0.15-0.293
			c0.312-0.594,0.674-1.176,0.998-1.767c0.496-0.904,0.91-1.83,0.937-2.85c0.112-4.125-5.792-6.104-6.473-10.173
			c-0.433-2.592,1.41-4.863,3.537-6.565c0.381-0.306,0.772-0.593,1.16-0.859c0.105-0.072,0.211-0.144,0.317-0.218
			c2.475-1.696,5.217-3.543,5.775-6.462c0.181-0.951,0.105-1.917-0.083-2.886c-0.471-2.449-1.654-4.916-1.172-7.199
			c0.07-0.33,0.175-0.657,0.322-0.98c1.429-3.141,5.821-3.608,8.828-5.259c0.571-0.312,1.093-0.67,1.534-1.095
			c0.503-0.484,0.904-1.057,1.156-1.759c0.524-1.459,0.204-3.085,0.492-4.61c0.502-2.654,2.825-4.616,5.426-5.459
			c0.352-0.115,0.71-0.208,1.069-0.28c0.031-0.006,0.06-0.012,0.091-0.017c0.205-0.04,0.41-0.076,0.615-0.107
			c1.874-0.283,3.751-0.186,5.534,0.251c0.596,0.146,1.182,0.33,1.753,0.551c2.706,1.044,5.092,2.905,6.765,5.423
			c0.017,0.025,0.033,0.05,0.051,0.077c0.013,0.02,0.027,0.041,0.039,0.061c0.334,0.516,0.623,1.07,0.855,1.648
			c0.921,2.29,0.977,4.942-0.402,6.944c-0.88,1.277-2.263,2.194-2.93,3.593c-0.421,0.884-0.506,1.791-0.391,2.714
			c0.075,0.584,0.229,1.174,0.431,1.768C144.566,78.962,146.953,82.203,145.797,85.247z"/>
		<path fill="#00D1A3" d="M144.347,87.282c-1.639,1.466-4.076,2.302-5.835,3.763c-5.681,1.801-11.361,3.601-17.04,5.401
			c-0.216,0.524-0.431,1.049-0.647,1.572c-0.758,1.845-1.517,3.692-2.277,5.538c5.992-1.266,11.985-2.53,17.977-3.795
			c0.094,0.553,0.196,1.101,0.293,1.638c0.01,0.054,0.019,0.108,0.027,0.162c-6.379,1.346-12.759,2.694-19.138,4.04
			c-1.382,3.362-2.765,6.725-4.147,10.087c0.026,0.006,0.051,0.012,0.079,0.016c1.099,0.2,2.282-0.016,3.385-0.106
			c1.203-0.098,2.405-0.197,3.609-0.295c0.352-0.028,0.704-0.058,1.056-0.086c-0.184,0.622-0.339,1.262-0.531,1.878
			c-0.281,0.024-0.56,0.046-0.84,0.069c-1.295,0.106-2.591,0.213-3.887,0.318c-1.175,0.097-2.388,0.238-3.544-0.077
			c-0.011-0.003-0.021-0.006-0.03-0.009c-0.63,1.533-1.261,3.067-1.892,4.602c-0.569-0.238-1.111-0.537-1.613-0.894
			c0.626-1.522,1.251-3.043,1.877-4.565c-1.197-0.959-2.037-2.429-2.894-3.655l-1.07-1.53c0.312-0.594,0.674-1.176,0.998-1.767
			c0.404,0.578,0.806,1.154,1.21,1.73c0.649,0.93,1.275,1.883,1.962,2.786c0.17,0.222,0.346,0.437,0.535,0.634l1.39-3.379
			c0.806-1.962,1.613-3.925,2.419-5.886c-3.172-5.158-6.344-10.316-9.516-15.474c0.381-0.306,0.772-0.593,1.16-0.859
			c0.105-0.072,0.211-0.144,0.317-0.218c2.965,4.822,5.93,9.643,8.896,14.465c1.043-2.536,2.086-5.073,3.128-7.608
			c-1.945-5.465-4.057-10.869-6.331-16.204c-0.471-2.449-1.654-4.916-1.172-7.199c3.121,6.844,5.969,13.811,8.54,20.881
			c1.91-4.645,3.819-9.288,5.728-13.933c0.1-0.242,0.199-0.484,0.298-0.725c-0.24-0.291-0.436-0.641-0.601-1.025
			c-1.636-3.799-3.222-7.619-4.815-11.438c0.571-0.312,1.093-0.67,1.534-1.095l1.983,4.716c0.932,2.22,1.846,4.448,2.796,6.661
			c1.703-4.143,3.406-8.284,5.107-12.427c-0.032-0.07-0.059-0.146-0.081-0.229c-0.91-3.515-1.821-7.033-2.732-10.55
			c0.352-0.115,0.71-0.208,1.069-0.28c0.031-0.006,0.06-0.012,0.091-0.017c0.205-0.04,0.41-0.076,0.615-0.107
			c0.726,2.804,1.453,5.608,2.178,8.412c1.118-2.721,2.237-5.442,3.356-8.161c0.596,0.146,1.182,0.33,1.753,0.551
			c-1.17,2.845-2.339,5.69-3.509,8.537c3.455-0.992,6.909-1.984,10.363-2.976c0.334,0.516,0.623,1.07,0.855,1.648
			c-4.033,1.158-8.066,2.318-12.1,3.476c-0.231,0.563-0.463,1.125-0.694,1.689c-1.585,3.852-3.168,7.705-4.751,11.557
			c0.453-0.088,0.909-0.24,1.344-0.349c1.22-0.305,2.44-0.61,3.661-0.915c2.939-0.735,5.88-1.471,8.819-2.207
			c0.075,0.584,0.229,1.174,0.431,1.768c-1.015,0.255-2.03,0.509-3.045,0.763c-2.667,0.667-5.332,1.335-7.998,2.002
			c-1.231,0.308-2.611,0.865-3.89,0.837c-0.034-0.002-0.066-0.005-0.099-0.007c-2.03,4.938-4.06,9.876-6.09,14.813
			C129.699,91.924,137.023,89.603,144.347,87.282z"/>
	</g>
	<g>
		<path fill="#009B75" d="M34.517,108.979c0.42,0.469,0.669,1.012,0.82,1.598c0.394,1.531,0.123,3.362,0.474,4.968
			c0.094,0.427,0.232,0.839,0.438,1.224c0.867,1.619,2.671,2.349,4.469,2.923c0.384,0.123,0.768,0.238,1.142,0.354
			c0.038,0.012,0.075,0.023,0.112,0.036c2.098,0.666,4.402,1.882,4.702,4.05c0.405,2.938-3.221,5.562-2.26,8.367
			c0.24,0.7,0.728,1.25,1.269,1.769c0.336,0.323,0.693,0.633,1.023,0.96c0.065,0.064,0.128,0.129,0.191,0.195
			c0.189,0.198,0.364,0.409,0.525,0.632c1.956,2.693,1.035,5.632-0.954,7.299c-0.34,0.285-0.71,0.531-1.104,0.734
			c-1.904,0.983-4.328,0.916-6.244-1.068c-0.192-0.197-0.37-0.407-0.532-0.627c-0.047-0.064-0.093-0.128-0.138-0.193
			c-0.276-0.396-0.527-0.819-0.798-1.221c-0.413-0.615-0.868-1.185-1.51-1.54c-2.596-1.434-5.81,1.681-8.632,0.771
			c-1.797-0.58-2.639-2.506-3.022-4.426c-0.069-0.344-0.124-0.689-0.166-1.024c-0.011-0.091-0.023-0.182-0.034-0.275
			c-0.265-2.14-0.539-4.501-2.217-5.821c-0.547-0.43-1.189-0.701-1.87-0.9c-1.719-0.508-3.685-0.569-4.983-1.63
			c-0.188-0.154-0.362-0.329-0.519-0.529c-1.533-1.95-0.38-4.907-0.441-7.372c-0.011-0.468-0.067-0.919-0.192-1.341
			c-0.143-0.481-0.376-0.926-0.741-1.319c-0.758-0.817-1.902-1.15-2.78-1.837c-1.529-1.197-2.014-3.328-1.692-5.267
			c0.043-0.262,0.102-0.522,0.174-0.775c0.006-0.021,0.012-0.042,0.019-0.064c0.042-0.144,0.087-0.287,0.135-0.428
			c0.438-1.29,1.12-2.456,1.988-3.45c0.29-0.332,0.601-0.646,0.931-0.937c1.56-1.383,3.536-2.291,5.697-2.527
			c0.021-0.002,0.043-0.005,0.066-0.007c0.017-0.001,0.035-0.004,0.052-0.004c0.439-0.043,0.889-0.044,1.335-0.001
			c1.767,0.169,3.478,1.009,4.3,2.55c0.524,0.983,0.653,2.169,1.326,3.057c0.425,0.561,0.976,0.915,1.603,1.146
			c0.397,0.146,0.825,0.242,1.271,0.309C30.099,107.689,32.956,107.236,34.517,108.979z"/>
		<path fill="#00D1A3" d="M35.337,110.578c0.394,1.531,0.123,3.362,0.474,4.968c-0.727,4.221-1.454,8.442-2.182,12.662
			c0.263,0.311,0.527,0.621,0.79,0.932c0.927,1.094,1.856,2.188,2.783,3.283c1.171-4.243,2.344-8.486,3.517-12.729
			c0.384,0.123,0.768,0.238,1.142,0.354c0.038,0.012,0.075,0.023,0.112,0.036c-1.248,4.517-2.495,9.035-3.743,13.551
			c1.69,1.993,3.38,3.987,5.069,5.98c0.013-0.014,0.025-0.028,0.037-0.045c0.491-0.635,0.744-1.462,1.051-2.196
			c0.335-0.8,0.669-1.601,1.004-2.402c0.098-0.234,0.195-0.468,0.294-0.702c0.336,0.323,0.693,0.633,1.023,0.96
			c-0.077,0.187-0.155,0.372-0.234,0.559c-0.36,0.862-0.72,1.724-1.081,2.586c-0.327,0.783-0.637,1.603-1.22,2.237
			c-0.006,0.006-0.01,0.011-0.015,0.016c0.77,0.908,1.541,1.818,2.313,2.727c-0.34,0.285-0.71,0.531-1.104,0.734
			c-0.765-0.902-1.529-1.804-2.294-2.706c-1.008,0.447-2.223,0.498-3.29,0.64l-1.33,0.177c-0.276-0.396-0.527-0.819-0.798-1.221
			c0.502-0.067,1.003-0.133,1.504-0.201c0.808-0.107,1.623-0.192,2.426-0.332c0.198-0.035,0.394-0.076,0.582-0.132l-1.698-2.003
			c-0.986-1.163-1.972-2.327-2.958-3.489c-4.34,0.321-8.681,0.642-13.021,0.963c-0.069-0.344-0.124-0.689-0.166-1.024
			c-0.011-0.091-0.023-0.182-0.034-0.275c4.057-0.3,8.115-0.6,12.172-0.9c-1.274-1.504-2.549-3.007-3.824-4.51
			c-4.13-0.564-8.279-1.001-12.435-1.312c-1.719-0.508-3.685-0.569-4.983-1.63c5.4,0.269,10.788,0.753,16.151,1.447
			c-2.334-2.753-4.667-5.506-7.002-8.259c-0.121-0.144-0.243-0.287-0.365-0.43c-0.265,0.057-0.553,0.067-0.853,0.045
			c-2.965-0.211-5.928-0.461-8.892-0.705c-0.011-0.468-0.067-0.919-0.192-1.341l3.665,0.292c1.725,0.138,3.449,0.291,5.176,0.416
			c-2.082-2.456-4.163-4.911-6.245-7.365c-0.055-0.003-0.113-0.01-0.173-0.024c-2.544-0.581-5.091-1.161-7.637-1.741
			c0.043-0.262,0.102-0.522,0.174-0.775c0.006-0.021,0.012-0.042,0.019-0.064c0.042-0.144,0.087-0.287,0.135-0.428
			c2.03,0.463,4.06,0.926,6.089,1.389c-1.368-1.613-2.735-3.225-4.101-4.838c0.29-0.332,0.601-0.646,0.931-0.937
			c1.43,1.686,2.86,3.373,4.29,5.06c0.508-2.533,1.016-5.066,1.524-7.598c0.439-0.043,0.889-0.044,1.335-0.001
			c-0.593,2.957-1.185,5.914-1.778,8.872c0.283,0.334,0.565,0.667,0.849,1.001c1.935,2.284,3.872,4.567,5.808,6.851
			c0.093-0.318,0.147-0.66,0.221-0.973c0.208-0.88,0.416-1.759,0.625-2.639c0.502-2.119,1.004-4.239,1.505-6.359
			c0.397,0.146,0.825,0.242,1.271,0.309c-0.172,0.732-0.346,1.464-0.519,2.196c-0.455,1.923-0.909,3.844-1.365,5.767
			c-0.21,0.888-0.31,1.953-0.751,2.759c-0.012,0.021-0.025,0.041-0.037,0.061c2.481,2.927,4.963,5.854,7.444,8.781
			C33.462,121.461,34.4,116.02,35.337,110.578z"/>
	</g>
	<g>
		<path fill="#00D1A3" d="M143.087,122.38c-0.431,0.445-0.946,0.728-1.511,0.918c-1.475,0.495-3.292,0.357-4.844,0.816
			c-0.413,0.122-0.808,0.287-1.171,0.517c-1.528,0.965-2.117,2.788-2.554,4.594c-0.093,0.386-0.18,0.77-0.267,1.146
			c-0.009,0.038-0.018,0.076-0.027,0.113c-0.506,2.107-1.538,4.455-3.645,4.902c-2.856,0.605-5.688-2.77-8.374-1.628
			c-0.67,0.285-1.176,0.802-1.647,1.37c-0.293,0.352-0.573,0.725-0.87,1.072c-0.059,0.068-0.118,0.135-0.177,0.201
			c-0.181,0.199-0.377,0.386-0.584,0.56c-2.506,2.111-5.457,1.413-7.233-0.422c-0.303-0.313-0.572-0.659-0.799-1.032
			c-1.1-1.8-1.204-4.185,0.608-6.205c0.18-0.202,0.374-0.391,0.579-0.567c0.059-0.05,0.119-0.101,0.179-0.149
			c0.369-0.299,0.767-0.576,1.142-0.869c0.575-0.45,1.103-0.935,1.405-1.591c1.225-2.65-2.06-5.585-1.366-8.421
			c0.442-1.805,2.275-2.767,4.133-3.279c0.333-0.093,0.667-0.17,0.994-0.235c0.089-0.017,0.177-0.035,0.267-0.053
			c2.082-0.412,4.381-0.846,5.559-2.587c0.383-0.567,0.604-1.216,0.752-1.899c0.378-1.724,0.298-3.658,1.249-5.007
			c0.138-0.195,0.297-0.378,0.483-0.547c1.806-1.642,4.791-0.719,7.207-0.953c0.458-0.044,0.897-0.13,1.303-0.284
			c0.462-0.174,0.883-0.435,1.243-0.821c0.749-0.802,0.995-1.948,1.607-2.859c1.068-1.585,3.126-2.212,5.052-2.033
			c0.261,0.023,0.52,0.063,0.773,0.116c0.022,0.005,0.042,0.009,0.064,0.014c0.144,0.031,0.288,0.065,0.43,0.102
			c1.297,0.339,2.49,0.927,3.527,1.709c0.346,0.261,0.676,0.544,0.986,0.848c1.468,1.434,2.498,3.31,2.883,5.415
			c0.004,0.021,0.007,0.042,0.011,0.064c0.003,0.017,0.006,0.034,0.008,0.05c0.073,0.429,0.106,0.87,0.095,1.31
			c-0.041,1.746-0.745,3.485-2.201,4.401c-0.929,0.584-2.084,0.794-2.908,1.517c-0.52,0.457-0.829,1.022-1.012,1.655
			c-0.115,0.4-0.179,0.827-0.213,1.269C144.042,117.951,144.688,120.724,143.087,122.38z"/>
		<path fill="#009B75" d="M141.575,123.298c-1.475,0.495-3.292,0.357-4.844,0.816c-4.196-0.416-8.391-0.833-12.585-1.249
			c-0.287,0.28-0.573,0.561-0.859,0.841c-1.008,0.987-2.017,1.976-3.027,2.964c4.249,0.851,8.498,1.703,12.746,2.555
			c-0.093,0.386-0.18,0.77-0.267,1.146c-0.009,0.038-0.018,0.076-0.027,0.113c-4.522-0.907-9.046-1.813-13.568-2.72
			c-1.837,1.799-3.676,3.599-5.513,5.399c0.015,0.011,0.03,0.022,0.047,0.033c0.658,0.437,1.488,0.627,2.23,0.877
			c0.809,0.272,1.619,0.544,2.429,0.816c0.237,0.08,0.473,0.159,0.71,0.239c-0.293,0.352-0.573,0.725-0.87,1.072
			c-0.189-0.063-0.377-0.126-0.565-0.19c-0.871-0.293-1.743-0.586-2.615-0.879c-0.791-0.265-1.619-0.513-2.282-1.04
			c-0.006-0.005-0.012-0.01-0.017-0.014c-0.838,0.82-1.677,1.641-2.515,2.462c-0.303-0.313-0.572-0.659-0.799-1.032
			c0.832-0.815,1.663-1.628,2.495-2.443c-0.51-0.958-0.645-2.148-0.86-3.185l-0.268-1.294c0.369-0.299,0.767-0.576,1.142-0.869
			c0.101,0.488,0.202,0.975,0.303,1.463c0.162,0.786,0.303,1.58,0.497,2.359c0.048,0.192,0.103,0.381,0.171,0.562l1.847-1.808
			c1.072-1.051,2.145-2.1,3.216-3.15c-0.621-4.238-1.242-8.478-1.863-12.716c0.333-0.093,0.667-0.17,0.994-0.235
			c0.089-0.017,0.177-0.035,0.267-0.053c0.581,3.962,1.161,7.925,1.742,11.887c1.386-1.357,2.773-2.714,4.158-4.072
			c0.262-4.095,0.399-8.198,0.411-12.301c0.378-1.724,0.298-3.658,1.249-5.007c0.117,5.32,0.022,10.645-0.282,15.959
			c2.539-2.486,5.077-4.97,7.615-7.456c0.133-0.129,0.265-0.259,0.396-0.388c-0.075-0.256-0.105-0.538-0.104-0.834
			c-0.002-2.926,0.034-5.853,0.065-8.78c0.458-0.044,0.897-0.13,1.303-0.284l-0.028,3.619c-0.014,1.703-0.042,3.407-0.043,5.111
			c2.264-2.217,4.528-4.433,6.791-6.651c-0.001-0.054,0.002-0.112,0.011-0.171c0.391-2.539,0.781-5.08,1.171-7.62
			c0.261,0.023,0.52,0.063,0.773,0.116c0.022,0.005,0.042,0.009,0.064,0.014c0.144,0.031,0.288,0.065,0.43,0.102
			c-0.311,2.025-0.622,4.051-0.934,6.076c1.487-1.457,2.974-2.912,4.461-4.368c0.346,0.261,0.676,0.544,0.986,0.848
			c-1.555,1.523-3.11,3.045-4.665,4.569c2.523,0.32,5.045,0.64,7.567,0.96c0.073,0.429,0.106,0.87,0.095,1.31
			c-2.945-0.373-5.89-0.747-8.836-1.12c-0.308,0.301-0.615,0.602-0.923,0.904c-2.106,2.061-4.211,4.124-6.316,6.185
			c0.319,0.069,0.658,0.098,0.971,0.148c0.878,0.143,1.756,0.285,2.635,0.428c2.115,0.343,4.233,0.686,6.349,1.029
			c-0.115,0.4-0.179,0.827-0.213,1.269c-0.731-0.118-1.462-0.236-2.193-0.355c-1.919-0.311-3.838-0.622-5.758-0.933
			c-0.886-0.144-1.939-0.167-2.762-0.543c-0.022-0.01-0.042-0.021-0.062-0.032c-2.699,2.643-5.397,5.286-8.096,7.927
			C130.757,122.223,136.166,122.76,141.575,123.298z"/>
	</g>
	<g>
		<path fill="#00D1A3" d="M39.412,70.076c0.349,0.745,0.457,1.518,0.425,2.309c-0.082,2.064-1.112,4.253-1.276,6.395
			c-0.043,0.57-0.026,1.137,0.088,1.697c0.475,2.352,2.459,3.944,4.493,5.34c0.435,0.298,0.871,0.587,1.296,0.873
			c0.043,0.029,0.085,0.057,0.127,0.087c2.375,1.623,4.8,4.012,4.36,6.838c-0.599,3.829-6.123,5.748-5.976,9.62
			c0.037,0.966,0.44,1.838,0.922,2.691c0.299,0.53,0.629,1.054,0.92,1.586c0.057,0.105,0.112,0.21,0.166,0.315
			c0.162,0.318,0.301,0.649,0.419,0.989c1.435,4.106-0.825,7.438-3.94,8.775c-0.532,0.228-1.088,0.398-1.658,0.504
			c-2.753,0.514-5.761-0.483-7.412-3.686c-0.166-0.319-0.309-0.648-0.43-0.986c-0.034-0.097-0.069-0.195-0.1-0.293
			c-0.197-0.599-0.352-1.223-0.539-1.828c-0.286-0.926-0.64-1.81-1.31-2.495c-2.709-2.771-7.903-0.083-11.093-2.283
			c-2.031-1.402-2.359-4.13-2.116-6.676c0.043-0.457,0.104-0.908,0.178-1.344c0.02-0.118,0.04-0.237,0.06-0.356
			c0.473-2.778,1.02-5.835-0.583-8.119c-0.523-0.744-1.224-1.324-2.001-1.83c-1.96-1.283-4.397-2.098-5.622-3.915
			c-0.177-0.263-0.329-0.547-0.451-0.857c-1.184-3.017,1.371-6.284,2.223-9.392c0.163-0.589,0.262-1.175,0.264-1.75
			c0.003-0.656-0.122-1.301-0.431-1.93c-0.641-1.308-1.947-2.154-2.788-3.345c-1.462-2.074-1.267-4.923-0.135-7.228
			c0.152-0.312,0.324-0.615,0.509-0.904c0.016-0.024,0.031-0.048,0.047-0.072c0.107-0.164,0.217-0.326,0.33-0.485
			c1.034-1.449,2.326-2.651,3.786-3.568c0.488-0.306,0.995-0.582,1.517-0.822c2.473-1.143,5.287-1.536,8.08-1.018
			c0.028,0.005,0.055,0.011,0.085,0.016c0.022,0.004,0.045,0.008,0.066,0.014c0.566,0.112,1.129,0.279,1.67,0.501
			c2.147,0.876,3.972,2.571,4.421,4.809c0.286,1.428,0.001,2.96,0.509,4.325c0.321,0.861,0.877,1.512,1.575,2.037
			c0.442,0.331,0.941,0.613,1.474,0.865C34.369,66.799,38.115,67.307,39.412,70.076z"/>
		<path fill="#009B75" d="M39.838,72.385c-0.082,2.064-1.112,4.253-1.276,6.395c-2.498,5.009-4.997,10.016-7.495,15.024
			c0.212,0.488,0.426,0.976,0.638,1.464c0.749,1.718,1.499,3.436,2.247,5.156c3.063-4.869,6.127-9.738,9.191-14.606
			c0.435,0.298,0.871,0.587,1.296,0.873c0.043,0.029,0.085,0.057,0.127,0.087c-3.261,5.182-6.523,10.366-9.784,15.549
			c1.365,3.13,2.729,6.261,4.093,9.391c0.022-0.014,0.042-0.026,0.063-0.042c0.853-0.61,1.481-1.55,2.142-2.353
			c0.72-0.876,1.439-1.751,2.16-2.627c0.211-0.256,0.421-0.512,0.632-0.768c0.299,0.53,0.629,1.054,0.92,1.586
			c-0.167,0.205-0.335,0.408-0.503,0.612c-0.775,0.942-1.55,1.886-2.326,2.83c-0.703,0.856-1.401,1.766-2.368,2.34
			c-0.009,0.006-0.017,0.01-0.025,0.015c0.622,1.427,1.244,2.855,1.868,4.284c-0.532,0.228-1.088,0.398-1.658,0.504
			c-0.618-1.417-1.235-2.833-1.853-4.25c-1.43,0.181-2.97-0.214-4.358-0.437l-1.732-0.278c-0.197-0.599-0.352-1.223-0.539-1.828
			c0.654,0.105,1.305,0.21,1.958,0.314c1.052,0.17,2.103,0.371,3.161,0.498c0.261,0.031,0.521,0.052,0.778,0.053l-1.371-3.146
			c-0.797-1.826-1.593-3.653-2.389-5.479c-5.552-1.231-11.105-2.464-16.656-3.695c0.043-0.457,0.104-0.908,0.178-1.344
			c0.02-0.118,0.04-0.237,0.06-0.356c5.19,1.151,10.381,2.303,15.571,3.454c-1.029-2.361-2.058-4.723-3.088-7.083
			c-4.957-2.26-9.983-4.368-15.068-6.321c-1.96-1.283-4.397-2.098-5.622-3.915c6.656,2.369,13.217,5.001,19.666,7.889
			c-1.884-4.324-3.769-8.647-5.654-12.97c-0.098-0.226-0.197-0.451-0.295-0.675c-0.353-0.028-0.717-0.124-1.084-0.264
			c-3.631-1.38-7.245-2.807-10.862-4.228c0.163-0.589,0.262-1.175,0.264-1.75l4.477,1.745c2.106,0.822,4.207,1.662,6.321,2.468
			c-1.681-3.856-3.361-7.712-5.044-11.567c-0.068-0.024-0.137-0.055-0.207-0.095c-2.965-1.684-5.934-3.369-8.901-5.053
			c0.152-0.312,0.324-0.615,0.509-0.904c0.016-0.024,0.031-0.048,0.047-0.072c0.107-0.164,0.217-0.326,0.33-0.485
			c2.366,1.343,4.732,2.686,7.097,4.03c-1.105-2.533-2.208-5.065-3.311-7.598c0.488-0.306,0.995-0.582,1.517-0.822
			c1.155,2.648,2.309,5.297,3.465,7.947c1.589-2.979,3.178-5.957,4.766-8.935c0.566,0.112,1.129,0.279,1.67,0.501
			c-1.855,3.477-3.709,6.956-5.564,10.434c0.228,0.524,0.457,1.048,0.686,1.572c1.562,3.586,3.127,7.173,4.69,10.758
			c0.237-0.363,0.433-0.77,0.643-1.135c0.592-1.022,1.183-2.045,1.776-3.067c1.425-2.462,2.851-4.927,4.276-7.391
			c0.442,0.331,0.941,0.613,1.474,0.865c-0.492,0.852-0.984,1.702-1.476,2.552c-1.293,2.235-2.585,4.468-3.878,6.703
			c-0.597,1.032-1.123,2.327-1.979,3.171c-0.023,0.022-0.047,0.041-0.069,0.062c2.003,4.597,4.008,9.193,6.011,13.789
			C33.394,85.299,36.616,78.842,39.838,72.385z"/>
	</g>
	<g>
		<g>
			<polygon fill="#00A7FF" points="122.44,35.528 118.631,146.08 36.307,147.524 32.791,37.872 			"/>
			<polygon fill="#5080FF" points="119.147,38.38 115.618,143.301 39.341,144.672 36.084,40.605 			"/>
			<polygon fill="#2D68D6" points="44.411,46.704 111.163,44.75 108.766,136.99 46.624,139.257 			"/>
		</g>
		<polygon fill="#FFFFFF" points="42.262,44.176 112.969,42.223 110.43,134.463 44.606,136.729 		"/>
		<g>
			<path fill="#FFC559" d="M86.496,33.251c0,0,0-0.002-0.002-0.006c-0.688-4.612-4.662-8.147-9.463-8.147
				c-1.465,0-2.852,0.328-4.094,0.918c-3.096,1.467-5.278,4.545-5.463,8.153l-5.282,0.254l-1.666,0.08l1.367,12.471h30.666
				l0.098-1.41l0.879-12.653L86.496,33.251z M71.487,33.974c0.4-2.258,2.731-3.992,5.543-3.992c2.59,0,4.768,1.469,5.41,3.465
				L71.487,33.974z"/>
			<g>
				<path fill="#FF980D" d="M92.656,45.564l-0.098,1.41H61.893l-1.367-12.471l1.666-0.08C62.586,38.302,66.299,47.314,92.656,45.564
					z"/>
				<g>
					<path fill="#FFD953" d="M85.123,35.383l-16.914,0.654c3.344,3.995,11.009,5.126,16.416,5.404L85.123,35.383z"/>
					<path fill="#FFD953" d="M88.078,35.268l-1.199,6.248c2.181,0.033,3.629-0.059,3.629-0.059l0.439-6.299L88.078,35.268z"/>
				</g>
				<path fill="#FFD953" d="M86.494,33.245c-0.104-0.229-3.606-7.879-13.557-7.229c1.242-0.59,2.629-0.918,4.094-0.918
					C81.831,25.098,85.806,28.634,86.494,33.245z"/>
			</g>
		</g>
		<g>
			<path fill="#FF2358" d="M61.502,68.872H49.887l-0.547-10.659h12.161V68.872z M51.743,66.919h7.806v-6.753h-8.152L51.743,66.919z"
				/>
		</g>
		<g>
			<path fill="#FF2358" d="M62.023,87.717H50.408l-0.547-10.659h12.161V87.717z M52.264,85.763h7.806v-6.753h-8.152L52.264,85.763z"
				/>
		</g>
		<g>
			<path fill="#FF2358" d="M62.544,106.561H50.929l-0.547-10.659h12.161V106.561z M52.785,104.608h7.806v-6.752h-8.152
				L52.785,104.608z"/>
		</g>
		<g>
			<g>
				<g>
					<polygon fill="#009E89" points="52.755,61.142 56.384,64.968 64.256,59.734 62.12,56.635 57.138,62.246 55.756,59.399 					"/>
				</g>
			</g>
		</g>
		<g>
			<g>
				<g>
					<polygon fill="#009E89" points="52.755,79.998 56.384,83.823 64.256,78.589 62.12,75.49 57.138,81.101 55.756,78.254 					"/>
				</g>
			</g>
		</g>
		<g>
			<g>
				<g>
					<g>
						
							<rect x="80.579" y="44.712" transform="matrix(0.0244 0.9997 -0.9997 0.0244 138.3913 -24.1235)" fill="#3E3662" width="1.953" height="28.265"/>
					</g>
				</g>
				<g>
					<g>
						
							<rect x="86.173" y="43.438" transform="matrix(0.0189 0.9998 -0.9998 0.0189 148.6562 -25.1613)" fill="#3E3662" width="1.953" height="39.462"/>
					</g>
				</g>
				<g>
					<g>
						<rect x="67.403" y="66.919" fill="#3E3662" width="20.444" height="1.953"/>
					</g>
				</g>
				<g>
					<g>
						<rect x="67.403" y="77.058" fill="#3E3662" width="28.517" height="1.953"/>
					</g>
				</g>
				<g>
					<g>
						<rect x="67.403" y="80.961" fill="#3E3662" width="17.504" height="1.953"/>
					</g>
				</g>
				<g>
					<g>
						<rect x="67.403" y="84.477" fill="#3E3662" width="35.939" height="1.953"/>
					</g>
				</g>
				<g>
					<g>
						<rect x="67.403" y="95.612" fill="#3E3662" width="17.774" height="1.953"/>
					</g>
				</g>
				<g>
					<g>
						
							<rect x="84.86" y="86.392" transform="matrix(0.0082 1 -1 0.0082 189.9476 18.1246)" fill="#3E3662" width="1.953" height="36.852"/>
					</g>
				</g>
				<g>
					<g>
						<rect x="67.403" y="99.777" fill="#3E3662" width="26.239" height="1.953"/>
					</g>
				</g>
			</g>
		</g>
	</g>
	<g>
		<g>
			
				<rect x="75.724" y="131.167" transform="matrix(0.6823 -0.7311 0.7311 0.6823 -68.0187 107.7654)" fill="#3E3662" width="28.517" height="1.953"/>
		</g>
		<g>
			
				<rect x="91.536" y="122.85" transform="matrix(0.7393 0.6734 -0.6734 0.7393 115.7079 -26.8388)" fill="#3E3662" width="1.953" height="26.305"/>
		</g>
		<g>
			
				<rect x="80.931" y="134.414" transform="matrix(0.6823 -0.7311 0.7311 0.6823 -67.5591 115.3152)" fill="#3E3662" width="35.939" height="1.953"/>
		</g>
	</g>
	<g>
		<polygon fill="#FF2358" points="66.027,152.485 54.568,154.439 54.568,144.543 66.027,142.588 		"/>
		<polygon fill="#D30E47" points="54.568,154.439 46.625,152.485 46.625,142.588 54.568,144.543 		"/>
		<polygon fill="#850635" points="46.625,142.588 57.11,140.719 66.027,142.588 54.568,144.543 		"/>
		<polygon fill="#FF2358" points="46.625,142.588 43.76,145.519 51.508,147.928 54.568,144.543 		"/>
		<polygon fill="#D30E47" points="54.568,144.543 56.782,147.928 68.436,145.779 66.027,142.588 		"/>
	</g>
	<g>
		<g>
			<path fill="#FFB8A6" d="M16.031,105.45c-0.194,0.859-2.392,1.014-2.392,1.014"/>
			<g>
				<path fill="#B7DFEA" d="M45.884,151.213c0,0-9.384,1.51-20.96,1.51c-11.576,0-20.96-1.51-20.96-1.51s9.384-1.51,20.96-1.51
					C36.499,149.703,45.884,151.213,45.884,151.213z"/>
				<g>
					<g>
						<g>
							<path fill="#FFC559" d="M19.572,151.367l4.872-67.823c0.052-0.731-0.526-1.353-1.259-1.353l0,0
								c-0.662,0-1.211,0.511-1.259,1.172l-4.885,68.004H19.572z"/>
						</g>
					</g>
					<g>
						<g>
							<path fill="#FF980D" d="M38.158,91.761c-0.03,0-0.059-0.001-0.089-0.003l-15.012-1.045c-0.695-0.048-1.22-0.651-1.172-1.347
								c0.048-0.696,0.652-1.22,1.347-1.172l15.012,1.044c0.695,0.048,1.22,0.652,1.172,1.347
								C39.37,91.252,38.816,91.761,38.158,91.761z"/>
						</g>
						<g>
							<path fill="#FF980D" d="M37.621,99.486c-0.03,0-0.059-0.001-0.089-0.003L22.52,98.438c-0.695-0.048-1.22-0.652-1.172-1.347
								c0.048-0.695,0.652-1.219,1.347-1.172l15.012,1.044c0.695,0.049,1.22,0.652,1.171,1.347
								C38.833,98.977,38.278,99.486,37.621,99.486z"/>
						</g>
						<g>
							<path fill="#FF980D" d="M37.083,107.21c-0.029,0-0.059-0.001-0.089-0.003l-15.012-1.044c-0.696-0.048-1.22-0.651-1.172-1.347
								c0.048-0.695,0.653-1.219,1.347-1.172l15.012,1.045c0.695,0.048,1.22,0.651,1.171,1.347
								C38.295,106.701,37.741,107.21,37.083,107.21z"/>
						</g>
						<g>
							<path fill="#FF980D" d="M36.546,114.935c-0.029,0-0.059-0.001-0.089-0.003l-15.012-1.045
								c-0.696-0.048-1.22-0.651-1.172-1.347c0.048-0.696,0.653-1.219,1.347-1.172l15.012,1.045c0.696,0.048,1.22,0.651,1.172,1.347
								C37.758,114.426,37.203,114.935,36.546,114.935z"/>
						</g>
						<g>
							<path fill="#FF980D" d="M36.008,122.66c-0.029,0-0.059-0.001-0.089-0.003l-15.012-1.045c-0.695-0.048-1.22-0.651-1.171-1.347
								c0.048-0.695,0.654-1.219,1.347-1.172l15.012,1.044c0.696,0.048,1.22,0.652,1.172,1.347
								C37.22,122.15,36.666,122.66,36.008,122.66z"/>
						</g>
						<g>
							<path fill="#FF980D" d="M35.471,130.384c-0.029,0-0.059-0.001-0.089-0.003l-15.012-1.044
								c-0.695-0.048-1.22-0.652-1.171-1.347c0.048-0.695,0.654-1.219,1.347-1.172l15.012,1.045c0.695,0.048,1.22,0.651,1.172,1.347
								C36.683,129.875,36.128,130.384,35.471,130.384z"/>
						</g>
						<g>
							<path fill="#FF980D" d="M34.934,138.109c-0.029,0-0.059-0.001-0.089-0.003l-15.012-1.045
								c-0.695-0.048-1.22-0.651-1.172-1.347c0.048-0.695,0.655-1.22,1.347-1.172l15.012,1.045c0.695,0.048,1.22,0.651,1.172,1.347
								C36.145,137.6,35.591,138.109,34.934,138.109z"/>
						</g>
						<g>
							<path fill="#FF980D" d="M34.396,145.833c-0.03,0-0.059-0.001-0.089-0.003l-15.012-1.045c-0.695-0.048-1.22-0.651-1.172-1.347
								c0.048-0.696,0.655-1.22,1.347-1.172l15.012,1.045c0.695,0.048,1.22,0.651,1.171,1.347
								C35.608,145.324,35.053,145.833,34.396,145.833z"/>
						</g>
					</g>
					<g>
						<path fill="#FFC559" d="M35.731,151.367l4.873-67.823c0.052-0.731-0.526-1.353-1.259-1.353l0,0
							c-0.662,0-1.212,0.511-1.259,1.172L33.2,151.367H35.731z"/>
					</g>
				</g>
				<g>
					<g>
						<g>
							<path fill="#3E3662" d="M21.716,104.068c0,0-2.631,26.16-2.107,30.868l2.592-0.102l7.204-33.896L21.716,104.068z"/>
							<path fill="#FF2358" d="M31.67,119.542l-1.709,0.023c-1.727-6.12,0.352-9.743,0.352-9.743s-7.969-0.803-9.93-3.315
								c-0.602-0.77-0.795-1.916-0.772-3.135c0.029-1.586,0.424-3.295,0.752-4.461c0.242-0.862,0.451-1.426,0.451-1.426
								s-0.463-2.896-0.943-6.148c-0.182-1.229-0.367-2.51-0.531-3.703c-0.357-2.598-0.615-4.784-0.528-5.135l4.002-1.359
								l5.231-0.733c0,0,3.791,0.445,4.813,1.309c1.02,0.861-3.453,19.222-3.453,19.222s5.57,2.512,6.119,4.236
								C36.075,106.901,31.67,119.542,31.67,119.542z"/>
							<g>
								<path fill="#FFB8A6" d="M28.045,80.408c0,0-0.392,2.563-2.459,2.614c-2.068,0.053-2.771-1.883-2.771-1.883l1.464-0.314
									l-0.162-0.849l-0.33-1.733l1.886,0.306l0.386,1.646l0.05,0.212H28.045z"/>
								<path fill="#FF938A" d="M26.059,80.196c-0.895,0.115-1.533-0.041-1.943-0.22l-0.33-1.733l1.886,0.306L26.059,80.196z"/>
							</g>
							<path fill="#FFB8A6" d="M28.307,74.471c0,0,0.459,5.037-1.412,5.266c-3.766,0.461-4.08-4.613-4.08-4.613L28.307,74.471z"/>
							<path fill="#3E3662" d="M23.787,78.244c-0.471-0.404-0.91-0.852-1.321-1.316c-0.663-0.75-1.573-1.715-1.413-2.802
								c0.148-1.006,1.519-2.375,2.554-1.601c0.017,0.012,7.106-6.815,6.688-2.369c-0.418,4.446-1.419,4.577-1.419,4.577
								s-0.107,2.165-0.583,2.387l0.014-2.648l-5.294,0.63L23.787,78.244z"/>
							<g>
								<path fill="#FFFFFF" d="M19.609,134.936c0,0,1.138-1.106,3.027-0.756c1.147,0.212,1.89,1.386,1.89,1.386v0.569h-4.917
									V134.936z"/>
							</g>
						</g>
						<path fill="#FF2358" d="M20.809,87.717c-0.037,0.59-0.147,1.197-0.309,1.805c-0.164,0.609-0.381,1.221-0.629,1.817
							c-1.316,3.16-3.537,5.924-3.537,5.924l-2.696,1.098l-1.356,0.553c-1.66-6.473,6.53-16.413,6.53-16.413
							S21.07,83.414,20.809,87.717z"/>
						<path fill="#D30E47" d="M20.5,89.521c-0.512-1.518-0.891-2.534-0.891-2.534l-0.269,0.647l-3.872,9.316h1.106
							c0.609-0.806,2.242-3.081,3.297-5.612c0.481,3.252,0.943,6.148,0.943,6.148s-0.209,0.564-0.451,1.426
							c-0.328,1.166-0.723,2.875-0.752,4.461c1.529,0.317,3.197,0.201,3.528-1.643C23.582,99.246,21.684,93.037,20.5,89.521z"/>
						<path fill="#545186" d="M31.67,119.543l-1.709,0.023c-1.726-6.12,0.351-9.743,0.351-9.743s-7.969-0.803-9.93-3.314
							c-1.384-1.772-0.601-5.533-0.019-7.597l9.042,2.026c0,0,5.571,2.511,6.12,4.237C36.074,106.902,31.67,119.543,31.67,119.543z"
							/>
						<g>
							<path fill="#FFFFFF" d="M29.961,119.566c0,0,1.138-1.106,3.027-0.756c1.147,0.212,1.89,1.386,1.89,1.386v0.569h-4.917
								V119.566z"/>
						</g>
						<g>
							<g>
								
									<rect x="12.3" y="80.656" transform="matrix(-0.7749 0.6321 -0.6321 -0.7749 115.5807 127.2009)" fill="#FF980D" width="45.676" height="7.055"/>
								
									<rect x="11.576" y="80.914" transform="matrix(-0.7749 0.6321 -0.6321 -0.7749 113.7347 126.0835)" fill="#FFC559" width="45.676" height="4.764"/>
								
									<rect x="10.823" y="81.182" transform="matrix(-0.7749 0.6321 -0.6321 -0.7749 111.8152 124.9213)" fill="#FFD953" width="45.677" height="2.382"/>
							</g>
							<path fill="#FFFFFF" d="M16.217,105.236c-0.035,0.066-0.083,0.122-0.141,0.172c-0.488,0.409-1.693,0.26-1.693,0.26
								l-4.286-5.253c0,0,0.139-1.06,0.384-1.704c0.244-0.642,2.566-1.057,2.566-1.057s0.227-0.955,0.501-1.415
								c0.227-0.378,1.204-0.372,1.545-0.359c0.076,0.004,0.119,0.007,0.119,0.007l4.459,5.466c0,0-0.331,1.334-0.835,1.802
								c-0.505,0.468-1.855,0.629-1.855,0.629S16.541,104.617,16.217,105.236z"/>
							<path fill="#E8E8E8" d="M16.076,105.408c-0.488,0.409-1.693,0.26-1.693,0.26l-4.286-5.253c0,0,0.139-1.06,0.384-1.704
								c0.244-0.642,2.566-1.057,2.566-1.057s0.227-0.955,0.501-1.415c0.227-0.378,1.204-0.372,1.545-0.359
								c-0.419,0.556-0.812,1.136-0.756,1.878c0.047,0.619,0.453,1.156,0.779,1.658c0.3,0.463,0.836,1.461,1.217,1.847
								c-0.651-0.659-1.845-1.083-2.813-1.535c-0.529-0.246-1.333-0.376-1.542,0.169c-0.126,0.332,0.086,0.689,0.294,0.975
								C13.426,102.476,14.699,103.992,16.076,105.408z"/>
							<g>
								<path fill="#FF2358" d="M11.77,108.155c-2.706-0.6-4.814-5.177-4.814-5.177c0.037-0.207,3.141-2.563,3.141-2.563
									l0.783,0.927l3.591,4.254l-2.189,2.073L11.77,108.155z"/>
								<path fill="#D30E47" d="M11.77,108.155c-2.706-0.6-4.814-5.177-4.814-5.177c0.037-0.207,3.141-2.563,3.141-2.563
									l0.783,0.927c-0.405,0.432-0.713,1.043-0.783,1.63c-0.092,0.772,0.229,1.528,0.572,2.226
									c0.436,0.884,0.94,1.762,1.612,2.471L11.77,108.155z"/>
							</g>
							<polygon fill="#FFDABA" points="55.065,72.48 50.606,67.013 56.918,64.741 59.295,63.885 60.591,63.419 58.374,66.976 
								55.894,70.957 							"/>
							<path fill="#3E3662" d="M58.374,66.976c-0.691-0.571-1.197-1.37-1.456-2.235l2.377-0.856l1.296-0.466L58.374,66.976z"/>
							<g>
								<polygon fill="#FFD953" points="50.605,67.013 52.355,67.27 52.111,68.859 54.238,68.601 53.616,70.705 54.997,71.234 
									55.064,72.48 								"/>
								<polygon fill="#FFC559" points="53.616,70.704 52.111,68.859 54.238,68.601 								"/>
								<polygon fill="#FF980D" points="55.064,72.48 53.616,70.704 54.997,71.234 								"/>
							</g>
						</g>
						<g>
							<path fill="#FFB8A6" d="M40.879,82.55c0,0-0.765-1.872-0.407-1.97c0.358-0.098,0.553,0.397,0.553,0.397
								s0.196-2.415,1.157-2.496c0.96-0.081,0.993,3.892,0.993,3.892L40.879,82.55z"/>
							<path fill="#D30E47" d="M34.745,89.057c0,0,4.1,1.436,6.102-0.371c2.002-1.807,2.625-6.749,2.625-6.749l-3.113,0.435
								l-0.525,2.533L34.745,89.057z"/>
						</g>
					</g>
					<path fill="#FFB8A6" d="M13.638,106.464c0,0-1.136-2.395,0.277-2.91c1.104-0.402,2.115,1.896,2.115,1.896"/>
				</g>
			</g>
		</g>
		<path fill="#FFFFFF" d="M15.013,80.396l0.199,0.635l0.199-0.635c0.256-0.818,0.788-1.502,1.49-1.916l0,0l0,0
			c-0.702-0.414-1.234-1.099-1.49-1.917l-0.199-0.635l-0.199,0.635c-0.256,0.818-0.788,1.502-1.49,1.917l0,0l0,0
			C14.225,78.894,14.757,79.578,15.013,80.396z"/>
		<path fill="#FFFFFF" d="M15.832,115.067l0.199,0.636l0.199-0.636c0.256-0.818,0.788-1.502,1.49-1.916l0,0l0,0
			c-0.702-0.414-1.234-1.098-1.49-1.916l-0.199-0.635l-0.199,0.635c-0.256,0.818-0.788,1.502-1.49,1.916l0,0l0,0
			C15.044,113.565,15.576,114.249,15.832,115.067z"/>
		<path fill="#FFFFFF" d="M16.927,73.577l0.114,0.364l0.114-0.364c0.147-0.469,0.451-0.86,0.853-1.098l0,0l0,0
			c-0.402-0.237-0.706-0.629-0.853-1.097l-0.114-0.364l-0.114,0.364c-0.147,0.468-0.451,0.86-0.853,1.097l0,0l0,0
			C16.476,72.717,16.78,73.109,16.927,73.577z"/>
		<path fill="#FFFFFF" d="M11.201,119.191l0.114,0.364l0.114-0.364c0.147-0.468,0.451-0.86,0.853-1.097l0,0l0,0
			c-0.402-0.237-0.706-0.629-0.853-1.098l-0.114-0.364l-0.114,0.364c-0.147,0.468-0.451,0.86-0.853,1.098l0,0l0,0
			C10.75,118.331,11.055,118.723,11.201,119.191z"/>
	</g>
	<g>
		<g>
			<path fill="#545186" d="M134.188,149.494l1.362-21.211l2.925-6.412c0,0,3.941,23.08,5.397,27.623h2.404
				c0.063-3.947,0.308-28.214-3.02-34.784l-10.537,0.641c0,0-2.888,9.443-2.95,13.137c-0.051,3.102,1.194,16.717,1.595,21.006
				H134.188z"/>
			<g>
				<path fill="#FFFFFF" d="M134.194,149.297c0,0-1.195-1.162-3.182-0.794c-1.206,0.223-1.986,1.457-1.986,1.457v0.598h5.168
					V149.297z"/>
			</g>
			<g>
				<path fill="#FFFFFF" d="M143.722,149.297c0,0,1.195-1.162,3.182-0.794c1.206,0.223,1.986,1.457,1.986,1.457v0.598h-5.168
					V149.297z"/>
			</g>
			<g>
				<path fill="#FFC559" d="M133.998,102.395c-0.361,1.505-7.096,4.857-7.096,4.857l1.642,1.232c0,0,0,0.027,0.002,0.074
					c0.014,0.417,0.078,2.486,0.017,3.588c-0.017,0.314-0.045,0.55-0.086,0.649c-0.205,0.48-4.926-0.478-5.064-4.623
					c-0.135-4.144,9.307-8.65,9.307-8.65S134.362,100.888,133.998,102.395z"/>
				<path fill="#FF980D" d="M128.563,112.145c-0.267,0.08-0.55,0.109-0.825,0.076c-0.616-0.072-1.199-0.42-1.533-0.944
					c-0.333-0.524-0.4-1.213-0.152-1.782c0.22-0.499,0.675-0.889,1.203-1.027c0.427-0.111,0.881-0.068,1.291,0.088
					C128.561,108.974,128.624,111.043,128.563,112.145z"/>
				<g>
					<g>
						<g>
							<g>
								<g>
									<path fill="#FFB8A6" d="M135.55,98.867c0,0,0.571,2.16,2.733,1.944c2.164-0.216,2.901-1.718,2.901-1.718l-1.82-0.84
										l0.051-0.811l0.116-1.85l-1.927,0.567l-0.187,1.767l-0.055,0.513L135.55,98.867z"/>
									<path fill="#FF938A" d="M137.418,97.926c0.948,0.002,1.593-0.244,1.997-0.484l0.116-1.85l-1.927,0.567L137.418,97.926z"/>
								</g>
								<path fill="#FFB8A6" d="M134.324,92.252c0,0,0.182,5.312,2.163,5.306c3.988-0.013,3.649-5.345,3.649-5.345L134.324,92.252z"
									/>
							</g>
						</g>
					</g>
				</g>
				<path fill="#3E3662" d="M140.246,89.361c-0.829-0.601-1.955-0.653-2.994-0.578c-1.039,0.075-2.098,0.251-3.11,0.016
					c-0.225-0.053-0.452-0.128-0.627-0.272c-0.176-0.144-0.292-0.37-0.249-0.587c-0.403,0.336-0.625,0.859-0.583,1.367
					c-0.338-0.249-0.595-0.625-0.659-1.027c-0.477,0.595-0.694,1.374-0.59,2.116c0.104,0.742,0.529,1.439,1.153,1.894
					c0.304,0.222,0.648,0.382,1.009,0.502c0.129,0.785,0.429,1.935,1.107,2.29l-0.15-2.064c0.103,0.016,0.206,0.031,0.309,0.043
					c1.704,0.208,3.461,0.002,5.061-0.594l-0.185,2.615c0.024,0.016,1.392-1.749,1.568-2.813
					C141.482,91.204,141.146,90.014,140.246,89.361z"/>
				<g>
					<path fill="#FFC559" d="M143.94,99.726c-0.547-0.205-2.756-0.633-2.756-0.633c-2.825,1.146-5.349-0.313-5.349-0.313
						s-2.432,0.33-3.116,0.741c0,0,0.41,13.386,0,15.831l10.537-0.641l0.083-2.456c2.106-0.321,4.559-1.091,6.007-2.607
						C152.219,106.637,144.487,99.931,143.94,99.726z M143.49,107.773l0.108-3.189l2.668,3.011
						C146.266,107.594,144.97,107.663,143.49,107.773z"/>
					<g>
						<path fill="#FF2358" d="M140.389,115.998h-12.206l-0.575-11.202h12.781V115.998z M130.133,113.945h8.203v-7.096h-8.567
							L130.133,113.945z"/>
					</g>
					<path fill="#FFB8A6" d="M141.184,108.8v2.874c0,0-3.367-0.359-3.188-1.437c0.18-1.078,2.393-1.049,2.393-1.049v-1.017
						C140.389,108.172,140.907,108.339,141.184,108.8z"/>
					<path fill="#FF980D" d="M143.598,104.584l-0.804-0.719l-0.154,3.908c0,0-1.202,0.488-1.456,1.027c0,0,1.754-0.866,2.307-1.027
						L143.598,104.584z"/>
					<path fill="#FF980D" d="M141.184,111.674c0,0,1.434,0.569,2.155,0.58l-0.083,2.456h-1.146
						C142.11,114.71,142.584,113.188,141.184,111.674z"/>
				</g>
				<path fill="#FFB8A6" d="M127.814,108.8c0,0-1.082,0.454-0.843,1.822c0.239,1.368,2.031,1.231,2.326,1.013
					c0.295-0.218,0.346-1.257-0.064-1.469c-0.41-0.212-1.257-0.494-1.257-0.494L127.814,108.8z"/>
			</g>
		</g>
		<path fill="#FFFFFF" d="M145.531,95.754l0.199,0.635l0.199-0.635c0.256-0.818,0.788-1.502,1.49-1.916l0,0l0,0
			c-0.702-0.414-1.234-1.099-1.49-1.917l-0.199-0.635l-0.199,0.635c-0.256,0.818-0.788,1.502-1.49,1.917l0,0l0,0
			C144.743,94.252,145.275,94.936,145.531,95.754z"/>
		<path fill="#FFFFFF" d="M123.93,124.271l0.199,0.635l0.199-0.635c0.256-0.818,0.788-1.502,1.49-1.917l0,0l0,0
			c-0.702-0.414-1.234-1.098-1.49-1.916l-0.199-0.635l-0.199,0.635c-0.256,0.818-0.788,1.502-1.49,1.916l0,0l0,0
			C123.142,122.769,123.673,123.453,123.93,124.271z"/>
		<path fill="#FFFFFF" d="M143.038,87.802l0.114,0.364l0.114-0.364c0.147-0.468,0.451-0.86,0.853-1.098l0,0l0,0
			c-0.402-0.237-0.707-0.629-0.853-1.097l-0.114-0.364l-0.114,0.364c-0.147,0.468-0.451,0.86-0.853,1.097l0,0l0,0
			C142.587,86.941,142.892,87.333,143.038,87.802z"/>
		<path fill="#FFFFFF" d="M125.703,130.992l0.114,0.364l0.114-0.364c0.147-0.468,0.451-0.86,0.853-1.097l0,0l0,0
			c-0.402-0.237-0.706-0.629-0.853-1.098l-0.114-0.364l-0.114,0.364c-0.147,0.468-0.451,0.86-0.853,1.098l0,0l0,0
			C125.252,130.132,125.557,130.523,125.703,130.992z"/>
	</g>
	<g>
		<path fill="#FFFFFF" d="M117.361,14.979l0.199,0.635l0.199-0.635c0.256-0.818,0.788-1.502,1.49-1.917l0,0l0,0
			c-0.702-0.414-1.234-1.099-1.49-1.916l-0.199-0.635l-0.199,0.635c-0.256,0.818-0.788,1.502-1.49,1.916l0,0l0,0
			C116.573,13.477,117.105,14.161,117.361,14.979z"/>
		<path fill="#FFFFFF" d="M98.191,28.632l0.199,0.635l0.199-0.635c0.256-0.818,0.788-1.502,1.49-1.917l0,0l0,0
			c-0.702-0.414-1.234-1.098-1.49-1.917l-0.199-0.635l-0.199,0.635c-0.256,0.818-0.788,1.502-1.49,1.917l0,0l0,0
			C97.403,27.129,97.935,27.814,98.191,28.632z"/>
		<path fill="#FFFFFF" d="M114.506,9.209l0.114,0.364l0.114-0.364c0.147-0.468,0.451-0.86,0.853-1.097l0,0l0,0
			c-0.402-0.237-0.706-0.629-0.853-1.098L114.62,6.65l-0.114,0.364c-0.147,0.469-0.451,0.86-0.853,1.098l0,0l0,0
			C114.055,8.349,114.359,8.74,114.506,9.209z"/>
		<path fill="#FFFFFF" d="M100.784,22.588l0.114,0.364l0.114-0.364c0.147-0.468,0.451-0.86,0.853-1.097l0,0l0,0
			c-0.402-0.237-0.707-0.629-0.853-1.098l-0.114-0.364l-0.114,0.364c-0.147,0.469-0.451,0.86-0.853,1.098l0,0l0,0
			C100.333,21.727,100.638,22.119,100.784,22.588z"/>
		<g>
			<path fill="#3E3662" d="M122.44,35.528c0,0,3.763-0.425,4.007,0.508c0.244,0.933,0.293,18.463,0.293,18.463h-2.15l-2.586-15.821
				L122.44,35.528z"/>
			<path fill="#FFFFFF" d="M124.59,54.5l2.252,3.858l0.924-0.244c0,0,0.855-2.173-1.025-3.614H124.59z"/>
		</g>
		<g>
			<path fill="#FFB8A6" d="M119.741,23.004l2.946,0.619c0,0,0.667-0.7,1.644-0.619c0.977,0.081,1.627,1.922,1.627,1.922h-6.314
				L119.741,23.004z"/>
			<path fill="#5080FF" d="M113.507,15.63c0,0,2.621,4.102,3.207,5.013c0.586,0.911,3.581,1.758,3.581,1.758l-0.391,3.391
				c0,0-4.785,0.093-6.397-1.974c-1.611-2.068-1.807-6.765-1.807-6.765L113.507,15.63z"/>
		</g>
		<path fill="#00A7FF" d="M106.145,33.144c0,0-4.902-14.425-2.6-16.183c2.302-1.758,8.008-3.284,9.962-1.331
			c0.613,0.613,0.243,4.181,0.439,6.397c0.43,4.845,1.943,9.95,1.943,9.95l-8.994,1.996L106.145,33.144z"/>
		<g>
			<g>
				<g>
					<g>
						<g>
							<g>
								<path fill="#FFB8A6" d="M111.942,14.822c0,0-0.331,2.21-2.504,2.231c-2.174,0.022-3.071-1.39-3.071-1.39l1.717-1.034
									l-0.14-0.801l-0.318-1.826l1.977,0.352l0.379,1.736l0.111,0.503L111.942,14.822z"/>
								<path fill="#FF938A" d="M109.982,14.09c-0.942,0.106-1.61-0.068-2.038-0.262l-0.318-1.826l1.977,0.352L109.982,14.09z"/>
							</g>
							<path fill="#FFB8A6" d="M112.436,8.111c0,0,0.401,5.3-1.57,5.51c-3.965,0.423-4.212-4.913-4.212-4.913L112.436,8.111z"/>
						</g>
					</g>
				</g>
			</g>
			<g>
				<path fill="#3E3662" d="M107.626,12.002c0,0-3.31-2.142-1.259-5.137c2.051-2.995,6.112-1.401,6.069,1.246
					c0,0-2.95,1.366-4.089,1.431C108.347,9.543,108.728,10.425,107.626,12.002z"/>
				<path fill="#3E3662" d="M104.816,5.02c-1.093-0.137-2.242,0.439-2.785,1.397c-0.599,1.055-0.458,2.366-0.797,3.531
					c-0.528,1.817-2.349,3.172-4.241,3.156c1.128,1.196,2.842,1.811,4.473,1.606c1.631-0.205,3.139-1.226,3.935-2.665
					c-0.381,0.822-0.763,1.643-1.145,2.465c1.449-0.757,2.317-2.492,2.054-4.106c-0.11-0.68-0.4-1.344-0.332-2.029
					c0.093-0.926,1.285-1.074,0.892-2.003C106.56,5.634,105.566,5.114,104.816,5.02z"/>
			</g>
		</g>
		<g>
			<polygon fill="#FF2358" points="125.562,26.196 128.641,16.322 130.622,16.791 127.595,26.658 			"/>
			<polygon fill="#D30E47" points="127.595,26.658 118.122,26.715 118.122,24.926 128.092,24.926 			"/>
		</g>
		<g>
			<path fill="#FFB8A6" d="M117.56,28.912c0,0,5.469-0.537,6.104-1.123c0,0,3.027,0.912,3.418-1.131h-3.711l-4.981,0.057
				L117.56,28.912z"/>
			<path fill="#5080FF" d="M105.45,17.583c-1.105,0.712-2.3,3.756-1.356,5.079c1.963,2.749,7.795,7.605,10.097,7.611
				c3.076,0.007,4.199-0.291,4.199-0.291v-3.266h-4.102c0,0-3.674-5.991-5.909-8.545C107.629,17.311,106.078,17.178,105.45,17.583z"
				/>
		</g>
		<g>
			<path fill="#545186" d="M106.145,33.144c0,0-0.139,5.808,5.037,4.959c5.176-0.848,9.594-2.287,9.594-2.287
				s0.136,9.156,0.789,11.401h2.411c0,0,2.631-15.751,1.267-16.568C123.878,29.832,112.144,30.207,106.145,33.144z"/>
			<g>
				<path fill="#FFFFFF" d="M121.572,47.195c0,0,1.195-1.162,3.182-0.794c1.206,0.223,1.986,1.457,1.986,1.457v0.598h-5.168V47.195z
					"/>
			</g>
		</g>
	</g>
</g>
</svg>
