<?xml version="1.0" encoding="utf-8"?>
<!-- Generator: Adobe Illustrator 17.0.0, SVG Export Plug-In . SVG Version: 6.00 Build 0)  -->
<!DOCTYPE svg PUBLIC "-//W3C//DTD SVG 1.1//EN" "http://www.w3.org/Graphics/SVG/1.1/DTD/svg11.dtd">
<svg version="1.1" id="Layer_1" xmlns="http://www.w3.org/2000/svg" xmlns:xlink="http://www.w3.org/1999/xlink" x="0px" y="0px"
	 width="144px" height="144px" viewBox="0 0 144 144" enable-background="new 0 0 144 144" xml:space="preserve">
<g>
	<path fill="#ffffff" d="M122.806,144c-6.052,0-11.944,0-17.999,0c-1.55-13.907-3.096-27.775-4.647-41.686
		c-18.835,0-37.547,0-56.365,0c-1.549,13.906-3.09,27.74-4.639,41.654c-6.012,0-11.942,0-18.009,0
		c-1.543-13.861-3.083-27.694-4.648-41.745c-1.75,0-3.474,0.037-5.197-0.007c-6.43-0.163-11.552-5.532-11.293-11.948
		c0.171-4.226,2.166-7.488,5.827-9.605c0.912-0.527,1.14-1.077,1.139-2.038c-0.022-20.913-0.017-41.827-0.017-62.74
		c0-0.57,0-1.14,0-1.795c7.751,0,15.375,0,23.075,0c0.054,0.441,0.104,0.855,0.177,1.449c6.241-2.273,12.392-4.513,18.673-6.8
		c6.852,18.892,13.678,37.71,20.504,56.529c0.089-0.016,0.179-0.032,0.268-0.048c0-7.708,0-15.416,0-23.264
		c5.431,0,10.732,0,16.109,0c-0.644-1.595-1.416-2.997-1.778-4.498c-1.212-5.013,1.024-10.062,5.536-12.607
		c0.85-0.479,1.133-0.969,1.114-1.91c-0.06-2.9-0.022-5.803-0.022-8.937c0.574,0,1.082,0,1.59,0c3.05,0.002,6.104-0.085,9.148,0.045
		c1.4,0.06,2.052-0.476,2.61-1.661c1.504-3.192,3.119-6.332,4.695-9.49c0.233-0.466,0.495-0.918,0.805-1.489
		c1.36,0.681,2.638,1.321,4.009,2.008c-1.738,3.492-3.433,6.898-5.224,10.497c1.875,0,3.579,0,5.52,0c0,0.897,0,1.646,0,2.396
		c0,1.162,0.11,2.336-0.021,3.483c-0.311,2.737,0.313,4.63,2.86,6.429c4.431,3.131,5.306,9.331,2.692,14.119
		c-0.246,0.451-0.499,0.899-0.856,1.542c5.491,0,10.785,0,16.238,0c0,0.707,0,1.273,0,1.839c0,11.377,0.011,22.753-0.019,34.13
		c-0.003,0.992,0.198,1.493,1.264,1.822c5.239,1.618,8.695,6.996,7.981,12.225c-0.802,5.873-5.379,10.128-11.139,10.313
		c-1.731,0.056-3.466,0.009-5.306,0.009C125.905,116.192,124.363,130.022,122.806,144z M118.572,97.664c0.534,0,1.006,0,1.478,0
		c4.066,0,8.137,0.11,12.197-0.06c1.423-0.06,2.98-0.545,4.19-1.297c2.6-1.614,3.572-4.888,2.645-7.796
		c-0.935-2.933-3.607-4.862-6.83-4.863c-25.948-0.009-51.896-0.008-77.843-0.01c-14.184-0.001-28.368-0.004-42.552,0.003
		c-3.367,0.002-6.043,1.888-6.978,4.867c-1.481,4.722,1.953,9.153,7.123,9.154c33.306,0.005,66.612,0.002,99.918,0.002
		c0.567,0,1.135,0,1.775,0c0,1.57,0,2.994,0,4.584c-2.991,0-5.917,0-8.969,0c0.385,3.416,0.749,6.652,1.143,10.151
		c2.477-1.993,4.998-3.099,7.921-3.117c2.949-0.019,5.471,1.178,7.972,3.055c0.389-3.526,0.745-6.754,1.117-10.129
		c-1.562,0-2.898,0-4.305,0C118.572,100.66,118.572,99.236,118.572,97.664z M33.059,19.349c6.89,19.002,13.714,37.821,20.583,56.765
		c4.448-1.629,8.723-3.194,13.103-4.798c-6.89-19.003-13.713-37.823-20.578-56.759C41.76,16.168,37.514,17.72,33.059,19.349z
		 M25.457,79.013c0-20.215,0-40.265,0-60.35c-4.66,0-9.227,0-13.815,0c0,20.175,0,40.258,0,60.35
		C16.296,79.013,20.829,79.013,25.457,79.013z M74.329,60.39c18.669,0,37.169,0,55.7,0c0-4.663,0-9.231,0-13.813
		c-18.623,0-37.159,0-55.7,0C74.329,51.227,74.329,55.76,74.329,60.39z M74.331,78.975c18.673,0,37.175,0,55.694,0
		c0-4.668,0-9.236,0-13.801c-18.628,0-37.164,0-55.694,0C74.331,69.835,74.331,74.368,74.331,78.975z M30.426,25.399
		c-0.074,0.024-0.147,0.047-0.221,0.071c0,17.827,0,35.655,0,53.514c6.544,0,12.995,0,19.643,0
		C43.339,61.026,36.883,43.213,30.426,25.399z M95.2,27.727c-0.861,0.188-1.536,0.28-2.175,0.485
		c-3.177,1.02-5.182,4.22-4.784,7.582c0.378,3.189,3.223,5.997,6.433,6.061c4.979,0.1,9.963,0.104,14.942,0.001
		c3.555-0.073,6.439-3.145,6.555-6.702c0.126-3.882-2.343-6.558-6.993-7.436c0-2.987,0-6.008,0-9.061c-4.728,0-9.295,0-13.976,0
		C95.2,21.723,95.2,24.704,95.2,27.727z M30.095,127.866c4.013,0.011,7.08-3.138,7.057-7.248c-0.02-3.654-3.198-6.752-6.945-6.77
		c-3.824-0.019-7.044,3.084-7.059,6.802C23.13,124.685,26.182,127.855,30.095,127.866z M113.886,113.854
		c-3.857-0.017-7.052,3.04-7.077,6.772c-0.028,4.034,3.01,7.215,6.917,7.245c3.937,0.03,7.038-3.069,7.086-7.084
		C120.857,117.057,117.674,113.871,113.886,113.854z M39.23,102.327c-6.171,0-12.101,0-18.156,0c0.38,3.341,0.747,6.568,1.137,10
		c5.378-4.035,10.545-4.039,15.883,0.02C38.485,108.903,38.852,105.667,39.23,102.327z M25.213,139.396c3.398,0,6.614,0,9.891,0
		c0.308-2.832,0.607-5.574,0.937-8.612c-4.039,2.193-7.833,2.094-11.798,0.038C24.588,133.867,24.896,136.591,25.213,139.396z
		 M118.755,139.409c0.311-2.855,0.608-5.589,0.939-8.628c-4.055,2.206-7.841,2.053-11.792,0.079
		c0.344,3.042,0.651,5.759,0.966,8.549C112.167,139.409,115.38,139.409,118.755,139.409z M59.642,78.76
		c0.007,0.072,0.014,0.144,0.021,0.217c3.309,0,6.618,0,9.964,0c0-1.285,0-2.471,0-3.855C66.214,76.365,62.928,77.563,59.642,78.76z
		"/>
	<path fill="#ffffff" d="M60.519,61.257c0.538,1.472,1.029,2.818,1.551,4.246c-2.839,1.045-5.592,2.059-8.542,3.145
		c-0.531-1.427-1.04-2.795-1.584-4.257C54.802,63.347,57.557,62.34,60.519,61.257z"/>
	<path fill="#ffffff" d="M47.197,51.221c-0.541-1.486-1.03-2.826-1.556-4.27c2.872-1.051,5.615-2.056,8.547-3.13
		c0.516,1.387,1.01,2.714,1.575,4.232C52.94,49.098,50.174,50.12,47.197,51.221z"/>
	<path fill="#ffffff" d="M57.361,52.546c0.537,1.469,1.028,2.812,1.555,4.254c-2.877,1.053-5.665,2.074-8.557,3.133
		c-0.539-1.462-1.033-2.803-1.567-4.253C51.645,54.637,54.394,53.632,57.361,52.546z"/>
	<path fill="#ffffff" d="M14.03,48.913c3.034,0,5.972,0,9.011,0c0,1.466,0,2.89,0,4.419c-2.959,0-5.932,0-9.011,0
		C14.03,51.917,14.03,50.494,14.03,48.913z"/>
	<path fill="#ffffff" d="M14.046,58.223c2.986,0,5.924,0,8.981,0c0,1.418,0,2.842,0,4.388c-2.918,0-5.891,0-8.981,0
		C14.046,61.246,14.046,59.821,14.046,58.223z"/>
	<path fill="#ffffff" d="M13.999,71.945c0-1.561,0-2.95,0-4.416c3.045,0,6.017,0,9.068,0c0,1.491,0,2.913,0,4.416
		C20.027,71.945,17.055,71.945,13.999,71.945z"/>
	<path fill="#ffffff" d="M102.304,48.938c1.498,0,2.921,0,4.42,0c0,3.046,0,6.018,0,9.067c-1.498,0-2.921,0-4.42,0
		C102.304,54.958,102.304,51.987,102.304,48.938z"/>
	<path fill="#ffffff" d="M116.011,58.013c-1.543,0-2.932,0-4.405,0c0-3.036,0-6.008,0-9.066c1.473,0,2.896,0,4.405,0
		C116.011,51.966,116.011,54.939,116.011,58.013z"/>
	<path fill="#ffffff" d="M120.942,48.941c1.455,0,2.879,0,4.376,0c0,3.013,0,5.95,0,9.015c-1.4,0-2.825,0-4.376,0
		C120.942,55.055,120.942,52.083,120.942,48.941z"/>
	<path fill="#ffffff" d="M102.312,67.519c1.539,0,2.929,0,4.403,0c0,3.036,0,6.008,0,9.067c-1.47,0-2.894,0-4.403,0
		C102.312,73.565,102.312,70.592,102.312,67.519z"/>
	<path fill="#ffffff" d="M111.581,76.561c0-3.013,0-5.951,0-8.999c1.446,0,2.87,0,4.406,0c0,2.945,0,5.918,0,8.999
		C114.593,76.561,113.17,76.561,111.581,76.561z"/>
	<path fill="#ffffff" d="M125.294,76.618c-1.503,0-2.892,0-4.379,0c0-3.025,0-5.997,0-9.066c1.433,0,2.857,0,4.379,0
		C125.294,70.529,125.294,73.502,125.294,76.618z"/>
</g>
</svg>
