<?xml version="1.0" encoding="utf-8"?>
<!-- Generator: Adobe Illustrator 17.0.0, SVG Export Plug-In . SVG Version: 6.00 Build 0)  -->
<!DOCTYPE svg PUBLIC "-//W3C//DTD SVG 1.1//EN" "http://www.w3.org/Graphics/SVG/1.1/DTD/svg11.dtd">
<svg version="1.1" id="Layer_1" xmlns="http://www.w3.org/2000/svg" xmlns:xlink="http://www.w3.org/1999/xlink" x="0px" y="0px"
	 width="144px" height="144px" viewBox="0 0 144 144" enable-background="new 0 0 144 144" xml:space="preserve">
<g>
	<path fill="#ffffff" d="M17.468,58.87c1.169-5.748,1.939-11.306,3.461-16.649c3.041-10.67,9.482-19.126,18.174-25.905
		c1.202-0.937,1.971-1.899,1.989-3.545c0.027-2.447,1.5-4.101,3.533-5.299c6.121-3.609,12.687-6.024,19.729-6.951
		c12.09-1.592,23.536,0.441,34.213,6.462c2.688,1.516,4.261,3.695,4.618,6.822c0.085,0.748,0.718,1.608,1.349,2.093
		c9.921,7.623,16.626,17.388,19.556,29.582c0.932,3.88,1.381,7.882,1.923,11.845c0.154,1.13,0.533,1.529,1.645,1.773
		c7.091,1.555,11.263,6.622,11.429,13.884c0.091,4.004,0.101,8.014-0.005,12.017c-0.161,6.096-3.117,10.387-8.736,12.764
		c-1.091,0.462-1.723,1.019-2.047,2.234c-0.981,3.685-4.081,6.032-7.986,6.143c-2.66,0.076-5.323,0.014-8.178,0.014
		c0,2.647,0.12,5.161-0.043,7.657c-0.107,1.643-0.367,3.367-0.997,4.87c-3.008,7.177-2.967,14.211,0.513,21.212
		c1.227,2.469,0.35,3.916-2.378,4.085c-0.395,0.024-0.791,0.016-1.187,0.016c-19.94,0.001-39.881-0.007-59.821,0.006
		c-5.337,0.003-9.92-1.619-13.246-6.003c-2.04-2.689-3.026-5.771-3.052-9.122c-0.05-6.432-0.026-12.865-0.026-19.297
		c-0.002-20.782-0.004-41.563,0.002-62.345c0.002-6.669,2.699-11.854,8.552-15.227c2.632-1.517,5.538-2.11,8.549-2.112
		c19.841-0.015,39.683-0.012,59.524-0.003c2.962,0.001,3.614,0.681,3.615,3.719c0.006,21.821,0.003,43.641,0.004,65.462
		c0,0.635,0,1.27,0,1.99c3.213,0,6.308,0.093,9.388-0.073c0.681-0.037,1.313-0.991,1.967-1.523c-0.06-0.158-0.119-0.317-0.179-0.475
		c-1.199,0-2.398,0.006-3.596-0.001c-3.203-0.02-3.852-0.646-3.854-3.804c-0.008-10.886-0.009-21.771,0-32.657
		c0.002-3.124,0.622-3.745,3.699-3.825c0.342-0.009,0.685-0.001,1.079-0.001c0-2.042,0.223-4.018-0.036-5.928
		c-1.781-13.119-7.689-23.95-18.109-32.245c-1.004-0.799-1.806-1.062-2.988-0.318c-2.824,1.777-5.604,1.513-8.527-0.09
		c-12.567-6.89-25.225-6.808-37.822-0.073c-3.564,1.906-6.856,2.081-9.989-0.799c-12.982,10.01-19.669,23.03-20.144,39.372
		c1.008,0.056,1.891,0.045,2.756,0.166c1.626,0.227,2.236,0.908,2.371,2.521c0.033,0.394,0.025,0.791,0.026,1.187
		c0.012,10.786,0.025,21.573,0.028,32.359c0,0.739-0.034,1.486-0.146,2.216c-0.16,1.042-0.803,1.767-1.863,1.812
		c-3.752,0.158-7.536,0.503-11.204-0.615c-5.596-1.706-9.181-5.48-9.745-11.287c-0.5-5.142-0.555-10.395-0.13-15.543
		c0.551-6.673,4.632-10.778,11.211-12.313C16.815,59.014,17.294,58.909,17.468,58.87z M107.099,34.816c-0.789,0-1.425,0-2.06,0
		c-18.701,0.006-37.402,0.001-56.103,0.022c-7.304,0.008-12.157,4.9-12.161,12.222c-0.014,22.956-0.017,45.911-0.025,68.867
		c0,0.465,0,0.931,0,1.692c3.84-3.24,8.08-4.134,12.664-4.121c18.75,0.051,37.501,0.036,56.251,0.045c0.518,0,1.037,0,1.52,0
		c0-2.587,0-4.933,0-7.354c-0.9,0-1.701,0.092-2.473-0.019c-1.585-0.227-2.437,0.291-3.137,1.852
		c-1.481,3.301-5.038,5.025-8.852,4.663c-3.423-0.325-6.588-2.936-7.568-6.242c-1.065-3.595,0.085-7.38,2.92-9.614
		c4.646-3.66,11.101-2.186,13.843,3.123c0.282,0.546,0.812,1.26,1.315,1.339c1.241,0.194,2.532,0.064,3.867,0.064
		C107.099,79.149,107.099,57.099,107.099,34.816z M105.987,118.362c-0.804,0-1.345,0-1.886,0c-16.524,0-33.048-0.001-49.572,0.001
		c-2.424,0-4.851-0.066-7.272,0.028c-7.399,0.287-12.183,6.868-9.976,13.655c1.43,4.398,5.284,7.05,10.397,7.054
		c18.998,0.016,37.995,0.007,56.993,0.003c0.37,0,0.74-0.052,1.256-0.092C103.355,132.136,103.514,125.355,105.987,118.362z
		 M120.85,94.039c1.439,0,2.768,0.044,4.093-0.008c5.313-0.205,9.167-3.915,9.351-9.205c0.14-4.002,0.121-8.015,0.003-12.018
		c-0.124-4.186-2.78-7.746-6.648-8.667c-2.159-0.514-4.462-0.427-6.799-0.619C120.85,73.847,120.85,83.819,120.85,94.039z
		 M23.169,93.814c0-10.047,0-20.052,0-30.165c-1.332,0-2.563-0.016-3.794,0.003c-5.473,0.081-9.475,3.913-9.632,9.389
		c-0.112,3.903-0.109,7.814,0.004,11.717c0.136,4.686,3.081,8.272,7.513,9.003C19.167,94.075,21.168,93.814,23.169,93.814z
		 M70.611,4.791c-2.007,0.269-5.85,0.615-9.622,1.333c-4.938,0.94-9.511,2.952-13.821,5.528c-1.462,0.874-1.768,2.231-0.956,3.676
		c0.78,1.388,1.975,1.734,3.535,0.991c0.668-0.318,1.3-0.711,1.961-1.044c10.248-5.158,20.926-6.723,32.023-3.386
		c3.516,1.057,6.839,2.776,10.217,4.266c2.115,0.933,3.877,0.255,4.246-1.783c0.282-1.557-0.704-2.374-1.865-3.039
		C88.935,7.095,80.976,4.911,70.611,4.791z M97.843,103.793c0.012-2.256-1.878-4.158-4.118-4.145
		c-2.221,0.013-4.145,1.969-4.112,4.182c0.032,2.157,1.926,4.051,4.073,4.073C95.936,107.927,97.831,106.053,97.843,103.793z"/>
	<path fill="#ffffff" d="M97.284,76.407c-0.023,13.867-11.366,25.188-25.247,25.198c-13.953,0.01-25.321-11.371-25.279-25.308
		c0.041-13.864,11.4-25.128,25.316-25.104C85.971,51.216,97.307,62.554,97.284,76.407z M71.987,96.689
		c11.179,0.048,20.342-8.996,20.43-20.166C92.506,65.328,83.274,56.062,71.97,56c-11.017-0.06-20.274,9.18-20.347,20.31
		C51.55,87.507,60.677,96.641,71.987,96.689z"/>
	<path fill="#ffffff" d="M72.035,121.924c8.255,0,16.51,0.001,24.765-0.001c1.474,0,3.087,1.251,3.099,2.415
		c0.012,1.255-1.577,2.547-3.125,2.547c-16.412-0.005-32.823-0.003-49.234-0.029c-0.711-0.001-1.652-0.031-2.078-0.456
		c-0.622-0.62-1.312-1.686-1.184-2.426c0.213-1.231,1.238-2.067,2.696-2.063c6.97,0.021,13.94,0.024,20.909,0.033
		c1.384,0.002,2.768,0,4.152,0C72.035,121.937,72.035,121.93,72.035,121.924z"/>
	<path fill="#ffffff" d="M71.993,130.774c8.155,0,16.311,0,24.466,0.001c0.445,0,0.895-0.027,1.333,0.034
		c1.252,0.173,1.91,0.999,2.098,2.169c0.164,1.014-0.823,2.28-1.898,2.519c-0.428,0.095-0.884,0.088-1.327,0.089
		c-15.965,0.008-31.929,0.012-47.894,0.013c-0.84,0-1.685,0.022-2.518-0.063c-1.413-0.145-2.16-0.989-2.172-2.336
		c-0.013-1.372,0.705-2.208,2.114-2.391c0.536-0.069,1.085-0.044,1.629-0.044c8.056-0.002,16.113-0.002,24.169-0.002
		C71.993,130.766,71.993,130.77,71.993,130.774z"/>
	<path fill="#ffffff" d="M62.801,76.48c0-3.362-0.015-6.724,0.004-10.086c0.019-3.319,1.712-4.262,4.588-2.579
		c5.539,3.242,11.078,6.486,16.616,9.731c0.255,0.15,0.504,0.31,0.752,0.473c2.324,1.522,2.326,3.298-0.09,4.805
		c-2.387,1.488-4.85,2.856-7.277,4.281c-3.322,1.949-6.639,3.905-9.962,5.851c-2.924,1.712-4.615,0.733-4.628-2.687
		C62.792,83.006,62.801,79.743,62.801,76.48z M67.882,69.761c0,4.493,0,8.74,0,13.252c3.828-2.248,7.487-4.397,11.299-6.636
		C75.329,74.121,71.693,71.992,67.882,69.761z"/>
</g>
</svg>
