<?xml version="1.0" encoding="utf-8"?>
<!-- Generator: Adobe Illustrator 17.0.0, SVG Export Plug-In . SVG Version: 6.00 Build 0)  -->
<!DOCTYPE svg PUBLIC "-//W3C//DTD SVG 1.1//EN" "http://www.w3.org/Graphics/SVG/1.1/DTD/svg11.dtd">
<svg version="1.1" id="Layer_1" xmlns="http://www.w3.org/2000/svg" xmlns:xlink="http://www.w3.org/1999/xlink" x="0px" y="0px"
	 width="144px" height="144px" viewBox="0 0 144 144" enable-background="new 0 0 144 144" xml:space="preserve">
<g>
	<path fill="#ffffff" d="M124.797,76.813c2.287,0,4.424-0.008,6.562,0.002c2.189,0.01,3.029,0.815,3.03,2.95
		c0.005,20.439,0.006,40.877,0,61.316c-0.001,2.143-0.871,2.917-3.215,2.917c-34.281,0.001-68.562,0.001-102.843,0.001
		c-5.197,0-10.394,0.005-15.591-0.002c-2.341-0.003-3.118-0.793-3.118-3.163c-0.003-20.289-0.003-40.578,0-60.866
		c0-2.36,0.786-3.147,3.131-3.153c2.091-0.006,4.182-0.001,6.466-0.001c0-0.724-0.008-1.353,0.002-1.982
		c0.031-1.954,0.881-2.81,2.86-2.813c7.696-0.011,15.392-0.008,23.087-0.009c6.097,0,12.193-0.003,18.29,0.006
		c4.092,0.006,5.362,0.477,8.524,3.138c0.638-0.499,1.221-1.2,1.965-1.489c1.693-0.657,3.461-1.561,5.205-1.577
		c14.291-0.128,28.584-0.078,42.876-0.071c1.849,0.001,2.725,0.903,2.77,2.765C124.81,75.379,124.797,75.978,124.797,76.813z
		 M119.937,76.812c-0.561,0-0.956,0-1.352,0c-12.889,0-25.777,0-38.666,0.002c-3.669,0-5.514,1.853-5.514,5.535
		c-0.001,15.586,0,31.172,0,46.758c0,0.521,0,1.041,0,1.184c2.356-0.24,4.554-0.647,6.755-0.659
		c12.139-0.063,24.278-0.03,36.417-0.03c0.779,0,1.558,0,2.36,0C119.937,111.923,119.937,94.456,119.937,76.812z M24.115,76.812
		c0,17.693,0,35.195,0,52.79c0.543,0,0.985,0,1.428,0c9.041-0.001,18.085-0.132,27.123,0.043c5.627,0.109,11.339-0.935,16.893,0.975
		c0.018-0.243,0.044-0.442,0.044-0.64c0.002-16.085,0.011-32.169-0.006-48.254c-0.003-2.936-2.072-4.906-5.08-4.91
		c-8.042-0.012-16.085-0.004-24.127-0.004C35.002,76.812,29.613,76.812,24.115,76.812z M129.485,139.146c0-19.238,0-38.349,0-57.455
		c-1.59,0-3.07,0-4.691,0c0,0.664,0,1.251,0,1.838c0,15.896,0.001,31.792-0.001,47.688c0,2.38-0.779,3.179-3.103,3.182
		c-4.899,0.006-9.797,0.004-14.696,0.004c-9.148,0-18.295-0.009-27.443,0.003c-3.027,0.004-5.031,1.897-5.029,4.741
		C92.806,139.146,111.091,139.146,129.485,139.146z M14.473,139.116c18.447,0,36.755,0,55.059,0
		c0.098-2.738-2.448-4.759-5.146-4.746c-13.938,0.066-27.876,0.032-41.814,0.029c-2.659-0.001-3.354-0.705-3.354-3.377
		c-0.001-15.736,0-31.473,0-47.209c0-0.686,0-1.372,0-2.111c-1.661,0-3.175,0-4.745,0C14.473,100.861,14.473,119.928,14.473,139.116
		z"/>
	<path fill="#ffffff" d="M24.053,45.62c-6.943,0-13.887-0.012-20.83,0.011c-1.281,0.004-2.404-0.173-2.986-1.489
		c-0.56-1.266,0.096-2.182,0.866-3.1c3.401-4.057,6.802-8.114,10.146-12.217c0.426-0.522,0.714-1.311,0.731-1.985
		c0.078-3.095-0.014-6.195,0.072-9.289c0.023-0.849,0.265-1.806,0.721-2.509c2.932-4.523,5.938-8.999,8.949-13.471
		c1.334-1.982,3.26-1.998,4.577-0.042c3.038,4.514,6.068,9.034,9.039,13.592c0.407,0.625,0.628,1.478,0.646,2.233
		c0.072,3.095-0.02,6.195,0.071,9.289c0.022,0.766,0.323,1.665,0.801,2.255c3.333,4.112,6.739,8.165,10.14,12.222
		c0.778,0.928,1.371,1.862,0.776,3.113c-0.59,1.238-1.666,1.403-2.889,1.399C37.939,45.609,30.996,45.62,24.053,45.62z
		 M16.923,19.295c0,7.23,0,14.338,0,21.407c4.818,0,9.529,0,14.209,0c0-7.192,0-14.265,0-21.407
		C26.375,19.295,21.7,19.295,16.923,19.295z M29.106,14.387c-1.775-2.655-3.387-5.066-5.1-7.627
		c-1.752,2.639-3.356,5.057-5.062,7.627C22.428,14.387,25.614,14.387,29.106,14.387z M11.993,35.487
		c-1.6,1.919-2.932,3.517-4.346,5.213c1.612,0,2.97,0,4.346,0C11.993,39.041,11.993,37.504,11.993,35.487z M36.093,40.719
		c1.416,0,2.723,0,4.304,0c-1.475-1.769-2.785-3.341-4.304-5.163C36.093,37.477,36.093,39.044,36.093,40.719z"/>
	<path fill="#ffffff" d="M98.546,43.214c-1.886-0.02-2.977-1.582-2.285-3.404c1.098-2.891,2.173-5.797,3.437-8.617
		c1.877-4.187,1.936-8.741,2.876-13.116c0.251-1.17,0.4-2.362,0.602-3.542c0.411-2.405,1.998-3.152,4.122-1.882
		c7.414,4.43,14.814,8.883,22.22,13.326c4.11,2.466,8.216,4.937,12.334,7.389c1.197,0.713,2.408,1.433,2.061,3.097
		c-0.341,1.634-1.653,1.891-3.084,2.049c-13.897,1.535-27.791,3.103-41.685,4.66C98.946,43.195,98.745,43.202,98.546,43.214z
		 M127.824,30.994c0.046-0.117,0.092-0.234,0.138-0.351c-6.803-4.081-13.607-8.162-20.566-12.337
		c-0.497,2.991-0.952,5.731-1.427,8.588C113.342,28.277,120.583,29.635,127.824,30.994z M104.69,31.549
		c-0.854,2.157-1.647,4.159-2.55,6.438c7.594-0.846,14.845-1.655,22.096-2.463c-0.005-0.105-0.011-0.21-0.016-0.315
		C117.76,33.998,111.301,32.788,104.69,31.549z"/>
	<path fill="#ffffff" d="M60.026,53.51c-1.088,1.16-2.075,2.211-3.122,3.327c-1.057-1.131-2.07-2.215-3.037-3.25
		c1.564-1.665,3.134-3.525,4.913-5.156c0.978-0.897,2.142-0.384,3.123,0.412c2.483,2.015,4.988,4.003,7.485,6
		c0.579,0.463,1.162,0.919,1.779,1.407c2.429-2.769,5.298-4.032,8.888-3.158c2.082,0.507,3.77,1.642,4.868,3.475
		c0.514,0.859,1.094,1.163,2.037,1.063c0.643-0.068,1.306-0.083,1.946-0.006c2.15,0.258,3.973-0.062,4.669-2.715
		c-0.521-0.35-1.235-0.829-2.156-1.448c-1.037,1.19-2.046,2.348-3.102,3.56c-1.309-1.327-2.377-2.409-3.472-3.519
		c1.62-1.652,3.184-3.329,4.845-4.904c0.854-0.81,1.911-0.777,2.905-0.129c1.046,0.682,2.089,1.369,3.12,2.072
		c1.76,1.2,3.493,2.218,5.738,2.586c4.111,0.674,6.757,4.455,6.533,8.618c-0.213,3.969-3.369,7.281-7.438,7.806
		c-3.86,0.498-7.757-1.972-8.884-5.833c-0.331-1.133-0.841-1.251-1.849-1.337c-2.185-0.187-3.585,0.074-4.481,2.628
		c-1.179,3.362-5.184,5.114-8.631,4.523c-3.72-0.638-6.437-3.464-7.077-7.201c-0.119-0.694-0.53-1.491-1.061-1.937
		C65.853,58.114,63.057,55.936,60.026,53.51z M78.04,64.812c1.981-0.02,3.599-1.686,3.56-3.666
		c-0.038-1.918-1.639-3.507-3.553-3.526c-1.971-0.02-3.636,1.625-3.64,3.596C74.403,63.188,76.064,64.832,78.04,64.812z
		 M99.66,64.807c1.994-0.038,3.579-1.695,3.53-3.69c-0.048-1.976-1.742-3.564-3.728-3.495c-1.912,0.066-3.478,1.705-3.457,3.617
		C96.026,63.234,97.677,64.845,99.66,64.807z"/>
	<path fill="#ffffff" d="M74.372,43.325c0,0.784,0,1.467,0,2.224c-1.581,0-3.062,0-4.695,0c-0.04-0.712-0.08-1.435-0.119-2.145
		c-3.8-1.08-4.749-2.346-4.75-6.295c0-0.5-0.029-1.002,0.005-1.499c0.174-2.523-0.258-4.565-2.145-6.71
		c-4.342-4.937-3.321-12.433,1.734-16.578c4.976-4.081,12.318-3.471,16.618,1.382c4.277,4.827,3.942,12.135-0.827,16.615
		c-0.729,0.685-1.044,1.349-1.006,2.326c0.064,1.647,0.027,3.299,0.02,4.948C79.191,41.047,77.904,42.614,74.372,43.325z
		 M69.984,30.431c1.232-0.298,2.776-0.67,4.319-1.046c0.144-0.035,0.321-0.063,0.413-0.161c0.712-0.759,1.363-1.581,2.115-2.296
		c3.025-2.875,3.184-7.41,0.328-10.315c-2.867-2.917-7.515-2.914-10.334,0.008c-2.833,2.936-2.636,7.425,0.355,10.335
		C68.152,27.9,68.902,29.073,69.984,30.431z M74.336,34.327c-1.617,0.403-3.143,0.783-4.615,1.15c0,1.052,0,1.967,0,2.869
		c1.593,0,3.07,0,4.615,0C74.336,36.998,74.336,35.727,74.336,34.327z"/>
	<path fill="#ffffff" d="M14.825,46.691c1.368,0.914,2.605,1.741,3.95,2.639c-0.727,1.147-1.405,2.215-2.135,3.367
		c3.764-0.525,5.283,1.716,6.332,4.62c0.228,0.631,0.607,1.208,1.047,2.063c0.774-1.52,1.532-2.747,2.039-4.069
		c0.736-1.919,1.99-2.775,4.032-2.503c0.372,0.05,0.761-0.027,1.353-0.056c-0.76-1.181-1.424-2.213-2.189-3.402
		c1.303-0.879,2.564-1.728,3.964-2.672c1.684,2.561,3.412,5,4.926,7.565c0.899,1.522-0.285,3.27-2.138,3.355
		c-1.496,0.069-3.001,0.081-4.495-0.006c-0.958-0.056-1.418,0.326-1.806,1.151c-1.061,2.257-2.217,4.469-3.312,6.711
		c-0.495,1.013-1.169,1.752-2.378,1.75c-1.207-0.002-1.886-0.744-2.381-1.753c-1.12-2.284-2.214-4.585-3.434-6.815
		c-0.26-0.476-0.99-0.922-1.54-0.97c-1.538-0.133-3.096,0.001-4.642-0.068c-1.855-0.082-2.973-1.785-2.135-3.361
		c0.77-1.448,1.762-2.779,2.667-4.155C13.288,48.968,14.039,47.864,14.825,46.691z"/>
	<path fill="#ffffff" d="M133.492,13.811c-1.488-1.396-2.573-2.413-3.81-3.574c1.19-1.026,2.32-2.001,3.786-3.265
		c-1.489-1.164-2.697-2.108-3.953-3.09c1.433-1.414,2.515-2.481,3.739-3.688c0.99,1.118,1.977,2.233,3.166,3.576
		c1.184-1.399,2.173-2.567,3.191-3.771c1.37,1.37,2.446,2.445,3.649,3.647c-1.148,1.025-2.258,2.018-3.595,3.213
		c1.387,1.179,2.552,2.169,3.767,3.201c-1.373,1.35-2.456,2.417-3.682,3.623c-0.987-1.127-1.969-2.249-3.218-3.675
		C135.375,11.456,134.417,12.654,133.492,13.811z M136.489,10.07c1.037-1.043,2.11-2.123,3.127-3.146
		c-1.018-1.015-2.096-2.091-3.118-3.11c-1.024,1.028-2.099,2.109-3.114,3.128C134.403,7.969,135.477,9.05,136.489,10.07z"/>
	<path fill="#ffffff" d="M140.102,59.661c-0.223,0.238-0.695,0.743-1.235,1.32c0.506,0.57,0.986,1.111,1.409,1.586
		c-1.117,1.098-2.203,2.164-3.364,3.305c-0.399-0.362-0.94-0.853-1.521-1.38c-0.588,0.527-1.137,1.019-1.717,1.54
		c-1.081-1.098-2.124-2.158-3.265-3.317c0.471-0.532,0.953-1.076,1.5-1.694c-0.483-0.536-0.971-1.076-1.498-1.66
		c1.162-1.061,2.285-2.085,3.479-3.175c0.379,0.338,0.929,0.828,1.519,1.353c0.534-0.493,1.038-0.959,1.559-1.44
		C137.983,57.254,138.988,58.395,140.102,59.661z"/>
	<path fill="#ffffff" d="M69.671,4.749c0-1.555,0-3.032,0-4.614c1.525,0,3.037,0,4.643,0c0,1.511,0,3.022,0,4.614
		C72.797,4.749,71.32,4.749,69.671,4.749z"/>
	<path fill="#ffffff" d="M88.925,19.254c1.568,0,3.008,0,4.565,0c0,1.541,0,3.052,0,4.671c-1.49,0-3.001,0-4.565,0
		C88.925,22.359,88.925,20.813,88.925,19.254z"/>
	<path fill="#ffffff" d="M50.477,23.944c0-1.552,0-3.028,0-4.612c1.521,0,3.033,0,4.64,0c0,1.507,0,3.019,0,4.612
		C53.605,23.944,52.128,23.944,50.477,23.944z"/>
	<path fill="#ffffff" d="M88.704,8.227c-0.979,0.959-2.038,1.997-3.143,3.08c-1.018-1.061-2.075-2.164-3.049-3.179
		c1.005-0.997,2.075-2.058,3.135-3.108C86.541,5.958,87.586,7.054,88.704,8.227z"/>
	<path fill="#ffffff" d="M82.633,34.833c0.773-0.734,1.882-1.786,2.972-2.821c1.051,1.023,2.137,2.081,3.259,3.173
		c-1.12,1.055-2.195,2.067-3.357,3.162C84.655,37.305,83.696,36.133,82.633,34.833z"/>
	<path fill="#ffffff" d="M55.313,35.021c0.97-0.946,2.031-1.981,3.133-3.056c1.042,1.062,2.139,2.181,3.197,3.26
		c-1.039,1.06-2.076,2.119-3.104,3.168C57.481,37.287,56.435,36.194,55.313,35.021z"/>
	<path fill="#ffffff" d="M58.308,11.24c-0.972-1.002-2.006-2.066-2.979-3.069c1.066-1.007,2.165-2.045,3.246-3.065
		c0.797,0.854,1.834,1.966,2.842,3.047C60.528,9.035,59.417,10.138,58.308,11.24z"/>
	<path fill="#ffffff" d="M79.275,115.108c0-1.596,0-3.075,0-4.63c11.943,0,23.814,0,35.804,0c0,1.494,0,3.01,0,4.63
		C103.202,115.108,91.295,115.108,79.275,115.108z"/>
	<path fill="#ffffff" d="M79.321,91.26c11.946,0,23.818,0,35.783,0c0,1.568,0,3.083,0,4.676c-11.92,0-23.792,0-35.783,0
		C79.321,94.445,79.321,92.929,79.321,91.26z"/>
	<path fill="#ffffff" d="M115.129,81.713c0,1.584,0,3.063,0,4.621c-9.542,0-19.012,0-28.608,0c0-1.481,0-2.997,0-4.621
		C95.992,81.713,105.498,81.713,115.129,81.713z"/>
	<path fill="#ffffff" d="M107.934,120.108c0,1.578,0,3.057,0,4.617c-9.575,0-19.081,0-28.661,0c0-1.549,0-3.028,0-4.617
		C88.791,120.108,98.297,120.108,107.934,120.108z"/>
	<path fill="#ffffff" d="M79.272,105.507c0-1.591,0-3.07,0-4.625c6.345,0,12.617,0,19.011,0c0,1.488,0,3.003,0,4.625
		C92.006,105.507,85.698,105.507,79.272,105.507z"/>
	<path fill="#ffffff" d="M115.13,100.909c0,1.589,0,3.066,0,4.623c-3.944,0-7.817,0-11.814,0c0-1.486,0-3,0-4.623
		C107.191,100.909,111.1,100.909,115.13,100.909z"/>
	<path fill="#ffffff" d="M28.88,124.699c0-1.58,0-3.059,0-4.619c11.939,0,23.809,0,35.806,0c0,1.477,0,2.992,0,4.619
		C52.819,124.699,40.913,124.699,28.88,124.699z"/>
	<path fill="#ffffff" d="M28.886,105.51c0-1.595,0-3.074,0-4.63c11.942,0,23.814,0,35.804,0c0,1.493,0,3.009,0,4.63
		C52.814,105.51,40.906,105.51,28.886,105.51z"/>
	<path fill="#ffffff" d="M64.744,91.314c0,1.576,0,3.055,0,4.616c-11.974,0-23.879,0-35.86,0c0-1.547,0-3.026,0-4.616
		C40.798,91.314,52.704,91.314,64.744,91.314z"/>
	<path fill="#ffffff" d="M64.681,86.384c-7.963,0-15.799,0-23.754,0c0-1.541,0-3.057,0-4.676c7.881,0,15.79,0,23.754,0
		C64.681,83.271,64.681,84.82,64.681,86.384z"/>
	<path fill="#ffffff" d="M64.739,110.504c0,1.593,0,3.072,0,4.627c-5.545,0-11.019,0-16.612,0c0-1.49,0-3.006,0-4.627
		C53.603,110.504,59.112,110.504,64.739,110.504z"/>
	<path fill="#ffffff" d="M28.886,115.108c0-1.598,0-3.077,0-4.63c4.748,0,9.422,0,14.212,0c0,1.496,0,3.012,0,4.63
		C38.416,115.108,33.707,115.108,28.886,115.108z"/>
</g>
</svg>
