<?xml version="1.0" encoding="utf-8"?>
<!-- Generator: Adobe Illustrator 23.0.3, SVG Export Plug-In . SVG Version: 6.00 Build 0)  -->
<svg version="1.1" id="Layer_1" xmlns="http://www.w3.org/2000/svg" xmlns:xlink="http://www.w3.org/1999/xlink" x="0px" y="0px"
	 viewBox="0 0 144 144" style="enable-background:new 0 0 144 144;" xml:space="preserve">
<style type="text/css">
	.st0{fill:#02D463;}
</style>
<g>
	<path class="st0" d="M109.2,144c-0.8,0-1.3,0-1.8,0c-30.8,0-61.7,0-92.5,0c-7.7,0-12.5-4.9-12.5-12.6c0-39.2,0-78.4,0-117.6
		c0-2,0.1-4,0.7-5.9C4.5,3,9.1,0,14.5,0c26.4,0,52.8,0,79.2,0c4.6,0,9.2,0,13.7,0c0.5,0,1,0,1.7,0c0,7.6,0,15.1,0,22.9
		c5.5-2.7,10.7-5.3,16.1-8c0,5.3,0,10.3,0,15.4c5.6,0.9,10,3.5,13.2,8.1c2.2,3.2,3.3,6.8,3.2,10.7c-0.1,4.6-1.7,8.7-4.8,12.1
		c-3.1,3.4-6.9,5.3-11.5,6c0,2.6,0,5.2,0,7.7c0,2.5,0,5,0,7.8c-5.4-2.7-10.6-5.3-16.1-8C109.2,97.9,109.2,120.9,109.2,144z
		 M25.7,4.7c0,38.8,0,77.4,0,115.9c26.4,0,52.6,0,78.8,0c0-0.3,0.1-0.4,0.1-0.5c0-15.6,0-31.2,0-46.8c0-0.8-0.3-1.1-1-1.5
		c-4.2-2.1-8.4-4.2-12.7-6.3c-0.6-0.3-1.4-0.5-2.2-0.5c-3.8,0-7.6,0-11.3,0c-1,0-2.1,0-3.1,0c0-10.9,0-21.7,0-32.5
		c4.9,0,9.6,0,14.4,0c0.7,0,1.5-0.2,2.1-0.5c4.2-2,8.3-4.2,12.4-6.2c0.9-0.5,1.3-1,1.3-2c-0.1-6,0-11.9,0-17.9
		c0-0.4-0.1-0.8-0.1-1.3C78.2,4.7,52,4.7,25.7,4.7z M20.9,4.6c-2.2,0-4.4,0-6.5,0c-4.5,0.1-7.3,3-7.3,7.4c0,4.8,0,9.5,0,14.3
		c0,31.6,0,63.3,0,94.9c0,0.5,0,1.1,0,1.9c4.4-3.4,9.2-2.1,13.9-2.5C20.9,82,20.9,43.4,20.9,4.6z M120.7,22.4
		c-0.4,0.2-0.6,0.2-0.8,0.3c-8.7,4.3-17.4,8.7-26.1,13c-0.8,0.4-1,1-1,1.8c0,7.5,0,15,0,22.5c0,1,0.4,1.4,1.2,1.8
		c8.4,4.2,16.9,8.4,25.3,12.6c0.4,0.2,0.8,0.4,1.3,0.6C120.7,57.5,120.7,40,120.7,22.4z M104.5,125.5c-0.5,0-0.9-0.1-1.4-0.1
		c-29.6,0-59.1,0-88.7,0c-1.1,0-2.2,0.2-3.2,0.6c-3,1.2-4.8,4.5-4.1,7.7c0.6,3.4,3.5,5.7,7.3,5.7c29.6,0,59.2,0,88.8,0
		c0.4,0,0.8-0.1,1.2-0.1c0-1.6,0-3,0-4.6c-24.2,0-48.2,0-72.3,0c0-1.6,0-3,0-4.6c24.2,0,48.2,0,72.3,0
		C104.5,128.5,104.5,127,104.5,125.5z M125.4,62.3c5.6,0.2,11.4-6.6,11.6-13.3c0.2-8.4-7.1-13.6-11.6-13.7
		C125.4,44.3,125.4,53.3,125.4,62.3z M88.1,60.3c0-7.8,0-15.5,0-23.1c-3.1,0-6.1,0-9.1,0c0,7.8,0,15.4,0,23.1
		C82.1,60.3,85,60.3,88.1,60.3z"/>
	<path class="st0" d="M65.1,90.6c5.4,0,10.8,0,16.1,0c4.9,0.1,8.5,2.3,10.6,6.7c2,4.3,1.5,8.5-1.5,12.2c-2.2,2.8-5.3,4.3-8.9,4.3
		c-11,0-21.9,0.1-32.9,0c-6.1-0.1-10.9-4.6-11.5-10.2c-0.6-6,3.1-11.3,9-12.6c1.3-0.3,2.7-0.3,4.1-0.3
		C55.2,90.5,60.1,90.6,65.1,90.6C65.1,90.6,65.1,90.6,65.1,90.6z M65.1,95.2c-5.3,0-10.7,0-16,0c-4.2,0-7.3,3-7.3,7
		c0,4,3.1,6.9,7.4,7c10.7,0,21.3,0,32,0c4.2,0,7.3-3.1,7.3-7c0-3.9-3.1-6.9-7.3-6.9C75.7,95.2,70.4,95.2,65.1,95.2z"/>
</g>
</svg>
