<?xml version="1.0" encoding="utf-8"?>
<!-- Generator: Adobe Illustrator 23.0.3, SVG Export Plug-In . SVG Version: 6.00 Build 0)  -->
<svg version="1.1" id="Layer_1" xmlns="http://www.w3.org/2000/svg" xmlns:xlink="http://www.w3.org/1999/xlink" x="0px" y="0px"
	 viewBox="0 0 42 42" style="enable-background:new 0 0 42 42;" xml:space="preserve">
<style type="text/css">
	.st0{fill:#217091;}
</style>
<g>
	<path class="st0" d="M3,36.8c0-0.2,0-0.3,0-0.5c0-2.8,0-5.5,0-8.3c0-0.4-0.1-0.6-0.4-0.9c-0.6-0.5-1.1-1.1-1.6-1.6
		c-0.5-0.5-0.5-0.8,0-1.3c0.6-0.6,1.1-1.1,1.7-1.7C2.9,22.3,3,22.1,3,21.8C3,15.6,3,9.5,3,3.3C3,1.3,4.3,0,6.3,0
		c7.4,0,14.8,0,22.3,0C29,0,29.5,0,30,0c1.6,0,3,1.4,3,3c0,2,0,3.9,0,6c0.2,0,0.3,0,0.5,0c1.8,0,3.6,0,5.4,0c1.6,0,3.1,1.4,3.1,3
		c0,3.4,0,6.8,0,10.3c0,0.7-0.3,0.9-0.9,0.9c-1.2,0-2.3,0-3.5,0c0,0.2,0,0.3,0,0.5c0,2,0,4.1,0,6.1c0,1.7-1.4,3.1-3.1,3.1
		c-1.9,0-3.9,0-5.9,0c0,0.2,0,0.4,0,0.5c0,1.8,0,3.6,0,5.4c0,1.7-1.4,3.1-3.1,3.1c-7.4,0-14.8,0-22.3,0C1.4,42,0,40.6,0,38.8
		c0-0.4,0-0.8,0-1.3c0-0.5,0.3-0.8,0.8-0.8C1.5,36.7,2.2,36.8,3,36.8z M4.5,20.8c1.1-1.2,2.2-2.2,3.2-3.2C8,17.3,8,17.1,7.8,16.8
		c-0.9-1.7-1.2-3.5-1-5.4c0.6-4.4,4.8-7.9,9.2-7.7c6,0.3,10.4,6.5,8.1,12.3c-1.3,3.3-4.7,5.6-8.2,5.7c-1.7,0-3.2-0.4-4.6-1.3
		c-0.1,0.1-0.1,0.1-0.2,0.2c-2.1,2.1-4.2,4.2-6.3,6.3c-0.1,0.1-0.2,0.4-0.2,0.6c0,3,0,5.9,0,8.9c0,0.1,0,0.2,0,0.4
		c0.2,0,0.3,0,0.5,0c2.2,0,4.3,0,6.5,0c3.9,0,7.7,0,11.6,0c0.7,0,1,0.3,1,1c0,0.4,0,0.8,0,1.3c0,1,0.6,1.5,1.5,1.5
		c0.9,0,1.5-0.6,1.5-1.5c0-0.1,0-0.3,0-0.4c0-11.4,0-22.8,0-34.3c0-0.9-0.1-1.9,0.4-2.8c-0.2,0-0.4,0-0.5,0c-6.9,0-13.8,0-20.7,0
		C5,1.5,4.5,2,4.5,3.2c0,3.7,0,7.4,0,11.2C4.5,16.5,4.5,18.5,4.5,20.8z M31.8,31.5c-0.1-0.6-0.3-1.1-0.3-1.7c0-1.2,0-2.5,0-3.7
		c0-7.7,0-15.3,0-23c0-1.1-0.6-1.7-1.6-1.6c-0.9,0-1.4,0.6-1.4,1.6c0,9.3,0,18.7,0,28c0,0.1,0,0.2,0,0.4
		C29.7,31.5,30.8,31.5,31.8,31.5z M15.7,20.2c4.2,0,7.5-3.2,7.5-7.4c0-4.3-3.2-7.5-7.5-7.6c-4.2,0-7.5,3.2-7.5,7.4
		C8.2,16.8,11.6,20.2,15.7,20.2z M33,10.5c0,0.2,0,0.4,0,0.5c0,4.1,0,8.2,0,12.3c0,2.2,0,4.4,0,6.6c0,0.8,0.3,1.3,0.9,1.5
		c1.2,0.4,2.1-0.3,2.1-1.5c0-5.5,0-11,0-16.4c0-1-0.2-2,0.4-2.9C35.3,10.5,34.2,10.5,33,10.5z M22.4,38.3c-6.9,0-13.9,0-20.9,0
		c-0.1,1.3,0.1,2.2,2,2.2c6.3,0,12.6,0,18.8,0c0.2,0,0.3,0,0.4,0C22.7,39.7,22.5,39,22.4,38.3z M40.5,21.7c0-0.9,0-1.7,0-2.5
		c0-2.4,0-4.7,0-7.1c0-0.8-0.3-1.3-1-1.5c-1.1-0.4-2,0.3-2,1.5c0,3.1,0,6.2,0,9.4c0,0.1,0,0.2,0,0.3C38.5,21.7,39.5,21.7,40.5,21.7z
		 M3.5,25.9c1.4-1.4,2.8-2.8,4.2-4.2c-0.3-0.3-0.6-0.7-0.9-1c-1.4,1.4-2.8,2.8-4.2,4.2C2.9,25.2,3.2,25.6,3.5,25.9z M9.9,19.6
		c-0.4-0.4-0.7-0.7-1-1c-0.4,0.3-0.7,0.7-1,1c0.3,0.4,0.7,0.7,1,1C9.2,20.2,9.5,19.9,9.9,19.6z"/>
	<path class="st0" d="M6.8,28.5c0-0.5,0-1,0-1.4c6,0,11.9,0,17.9,0c0,0.5,0,0.9,0,1.4C18.8,28.5,12.8,28.5,6.8,28.5z"/>
	<path class="st0" d="M24.7,30c0,0.5,0,1,0,1.4c-6,0-11.9,0-17.9,0c0-0.5,0-0.9,0-1.4C12.8,30,18.7,30,24.7,30z"/>
	<path class="st0" d="M21.7,33c0,0.5,0,1,0,1.4c-5,0-9.9,0-14.9,0c0-0.5,0-0.9,0-1.4C11.7,33,16.7,33,21.7,33z"/>
	<path class="st0" d="M24.7,24c0,0.5,0,1,0,1.4c-4,0-7.9,0-11.9,0c0-0.5,0-0.9,0-1.4C16.8,24,20.7,24,24.7,24z"/>
	<path class="st0" d="M9.8,25.5c0-0.5,0-1,0-1.4c0.5,0,0.9,0,1.4,0c0,0.5,0,0.9,0,1.4C10.8,25.5,10.3,25.5,9.8,25.5z"/>
	<path class="st0" d="M9.8,12.8c0-3.2,2.8-6,5.9-6c3.2,0,6.1,2.7,6.1,6c0,3.2-2.8,6-6,6C12.6,18.8,9.8,16,9.8,12.8z M15.7,17.3
		c2.6,0,4.5-1.9,4.5-4.5c0-2.6-1.9-4.5-4.5-4.5c-2.6,0-4.5,1.9-4.5,4.5C11.3,15.3,13.2,17.2,15.7,17.3z"/>
</g>
</svg>
