<?xml version="1.0" encoding="utf-8"?>
<!-- Generator: Adobe Illustrator 23.0.3, SVG Export Plug-In . SVG Version: 6.00 Build 0)  -->
<svg version="1.1" id="Layer_1" xmlns="http://www.w3.org/2000/svg" xmlns:xlink="http://www.w3.org/1999/xlink" x="0px" y="0px"
	 viewBox="0 0 42 42" style="enable-background:new 0 0 42 42;" xml:space="preserve">
<style type="text/css">
	.st0{fill:#217091;}
</style>
<g>
	<path class="st0" d="M15.9,30c0,3.5,0,6.9,0,10.3c0.2,0,0.4,0,0.5,0c5.7,0,11.4,0,17.1,0c0.8,0,1.2,0.3,1.2,0.8
		c0,0.6-0.4,0.8-1.2,0.8c-10.3,0-20.7,0-31,0c-0.1,0-0.2,0-0.3,0c-0.5,0-0.9-0.4-0.9-0.8c0-0.5,0.4-0.8,0.9-0.9c0.8,0,1.7,0,2.5,0
		c0-3.4,0-6.8,0-10.3c-0.3,0-0.6,0-0.9,0c-1.4,0-2.5-1.1-2.5-2.5c0-4.4,0-8.8,0-13.2c0-2.3,1.8-4,4.1-4.1c3.3,0,6.5,0,9.8,0
		c2.3,0,4.1,1.8,4.1,4.1c0,4.4,0,8.7,0,13.1c0,1.4-1.1,2.5-2.5,2.5C16.5,30,16.2,30,15.9,30z M15.8,28.3c0.3,0,0.5,0,0.7,0
		c0.8,0,1-0.2,1-1c0-4.3,0-8.5,0-12.8c0-1.5-1-2.5-2.5-2.5c-3.2,0-6.3,0-9.5,0C4,12,3,13,3,14.6c0,4.2,0,8.4,0,12.6
		c0,0.1,0,0.3,0,0.4C3,28,3.3,28.2,3.6,28.3c0.4,0,0.7,0,1.1,0c0-0.2,0-0.4,0-0.5c0-2.9,0-5.7,0-8.6c0-0.1,0-0.3,0-0.4
		C4.8,18.3,5.2,18,5.6,18c0.4,0,0.8,0.3,0.8,0.8c0,0.1,0,0.3,0,0.4c0,2.9,0,5.7,0,8.6c0,0.2,0,0.3,0,0.5c2.6,0,5.2,0,7.7,0
		c0-0.2,0-0.4,0-0.5c0-2.8,0-5.6,0-8.4c0-0.1,0-0.2,0-0.3c0-0.6,0.4-1,0.9-1c0.5,0,0.8,0.4,0.8,1c0,1.8,0,3.7,0,5.5
		C15.8,25.7,15.8,27,15.8,28.3z M14.1,40.3c0-3.5,0-6.9,0-10.3c-2.6,0-5.1,0-7.7,0c0,3.4,0,6.8,0,10.3c1,0,2,0,3,0
		c0-0.2,0-0.3,0-0.5c0-2.5,0-5.1,0-7.6c0-0.1,0-0.2,0-0.3c0-0.6,0.3-1,0.8-1s0.8,0.4,0.8,1c0,2.7,0,5.3,0,8c0,0.2,0,0.3,0,0.5
		C12.2,40.3,13.1,40.3,14.1,40.3z"/>
	<path class="st0" d="M38.8,3.2C39,3,39.2,2.9,39.4,2.8c0.4-0.3,0.8-0.2,1.1,0.1c0.3,0.3,0.3,0.9-0.1,1.1c-0.7,0.4-0.7,1-0.6,1.7
		c0.2,1.9-1.1,3.9-3.4,4.4c-2.2,0.5-4.4-0.9-5-3.1c-0.5-1.8,0.3-3.7,1.9-4.7c1.6-1,3.6-0.8,5,0.5C38.5,2.9,38.7,3.1,38.8,3.2z
		 M38.1,5.9C38,6,37.8,6.1,37.7,6.2c-0.5,0.4-1,0.8-1.5,1.2c-0.6,0.4-1,0.3-1.4-0.3c-0.3-0.5-0.5-1-0.8-1.6
		c-0.2-0.5-0.1-0.9,0.3-1.1c0.4-0.2,0.8-0.1,1.1,0.4c0.1,0.2,0.3,0.5,0.4,0.8c0.6-0.5,1.1-0.9,1.6-1.3c-0.8-1-2.2-1.2-3.3-0.5
		c-1.1,0.7-1.5,2.1-1,3.3c0.5,1.2,1.8,1.8,3.1,1.4C37.5,8.2,38.3,7,38.1,5.9z"/>
	<path class="st0" d="M38.8,13.5c0.2-0.1,0.4-0.3,0.5-0.4c0.4-0.3,0.9-0.2,1.1,0.1c0.3,0.4,0.3,0.9-0.1,1.1
		c-0.7,0.4-0.6,0.9-0.6,1.6c0.2,2-1.2,4.1-3.5,4.5c-2.6,0.4-4.8-1.3-5-4c-0.1-2.2,1.5-4,3.5-4.4c1.5-0.2,2.7,0.2,3.8,1.2
		C38.7,13.4,38.7,13.4,38.8,13.5z M38.1,16.2c-0.1,0.1-0.3,0.2-0.4,0.3c-0.5,0.4-1,0.8-1.6,1.3c-0.5,0.4-1,0.3-1.3-0.3
		c-0.3-0.5-0.5-1-0.8-1.6c-0.2-0.5-0.1-1,0.3-1.2c0.4-0.2,0.8,0,1.1,0.4c0.1,0.2,0.3,0.5,0.4,0.7c0.6-0.5,1.1-0.9,1.6-1.3
		c-0.7-0.9-2.2-1.2-3.2-0.5c-1.1,0.7-1.6,2.1-1,3.3c0.6,1.2,1.9,1.8,3.2,1.4C37.5,18.4,38.3,17.2,38.1,16.2z"/>
	<path class="st0" d="M10.3,0C12.9,0,15,2.1,15,4.7c0,2.6-2.2,4.7-4.7,4.7c-2.6,0-4.7-2.1-4.7-4.7C5.6,2.1,7.7,0,10.3,0z M13.3,4.7
		c0-1.7-1.3-3-3-3c-1.7,0-3,1.3-3,3c0,1.7,1.3,3,3,3C11.9,7.7,13.3,6.4,13.3,4.7z"/>
	<path class="st0" d="M39.9,26.6c0,2.3-1.9,4.3-4.3,4.3c-2.3,0-4.3-1.9-4.3-4.3c0-2.3,1.9-4.3,4.3-4.3
		C37.9,22.3,39.9,24.2,39.9,26.6z M35.6,24c-1.4,0-2.6,1.2-2.6,2.6c0,1.4,1.2,2.6,2.6,2.6c1.4,0,2.6-1.2,2.6-2.6
		C38.2,25.1,37,24,35.6,24z"/>
	<path class="st0" d="M25.7,9.4c-1.5,0-3.1,0-4.6,0c-0.6,0-0.9-0.4-0.9-0.9c0-0.5,0.4-0.8,0.9-0.8c0.1,0,0.1,0,0.2,0
		c2.3,0,4.6,0,6.9,0c0.6,0,1.3,0,1.9,0c0.8,0,1.2,0.3,1.2,0.8c0,0.5-0.4,0.9-1.1,0.9C28.7,9.4,27.2,9.4,25.7,9.4z"/>
	<path class="st0" d="M25.7,19.7c-1.5,0-3.1,0-4.6,0c-0.6,0-1-0.3-1-0.8s0.4-0.9,0.9-0.9c0.6,0,1.2,0,1.8,0c2.5,0,4.9,0,7.4,0
		c0.8,0,1.2,0.6,0.9,1.2c-0.2,0.4-0.5,0.5-0.9,0.5C28.8,19.7,27.2,19.7,25.7,19.7z"/>
	<path class="st0" d="M25.7,30c-1.5,0-3.1,0-4.6,0c-0.6,0-1-0.3-1-0.8s0.4-0.9,0.9-0.9c0.6,0,1.2,0,1.8,0c2.5,0,4.9,0,7.4,0
		c0.8,0,1.2,0.6,0.9,1.2C31,29.9,30.7,30,30.3,30C28.8,30,27.2,30,25.7,30z"/>
	<path class="st0" d="M23.6,6c-0.8,0-1.6,0-2.4,0c-0.6,0-1-0.3-1-0.9c0-0.5,0.4-0.8,1-0.8c1.6,0,3.2,0,4.8,0c0.6,0,1,0.3,1,0.8
		C27,5.6,26.6,6,26,6C25.2,6,24.4,6,23.6,6z"/>
	<path class="st0" d="M23.6,16.3c-0.8,0-1.6,0-2.4,0c-0.6,0-1-0.4-1-0.9c0-0.5,0.4-0.8,1-0.8c1.6,0,3.2,0,4.8,0c0.6,0,1,0.3,1,0.8
		c0,0.5-0.4,0.8-1,0.9C25.2,16.3,24.4,16.3,23.6,16.3z"/>
	<path class="st0" d="M23.6,26.6c-0.8,0-1.6,0-2.4,0c-0.6,0-1-0.4-1-0.8c0-0.5,0.4-0.8,1-0.8c1.6,0,3.2,0,4.8,0c0.6,0,1,0.3,1,0.8
		c0,0.5-0.4,0.9-1,0.9C25.2,26.6,24.4,26.6,23.6,26.6z"/>
	<path class="st0" d="M36.5,40.3c0.5,0,0.8,0.4,0.8,0.9c0,0.5-0.4,0.8-0.9,0.8c-0.4,0-0.8-0.4-0.8-0.8C35.6,40.7,36,40.3,36.5,40.3z
		"/>
	<path class="st0" d="M39,42c-0.5,0-0.8-0.4-0.8-0.9c0-0.5,0.4-0.8,0.9-0.8c0.4,0,0.8,0.4,0.8,0.8C39.9,41.6,39.5,42,39,42z"/>
	<path class="st0" d="M10.3,12.9c0.2,0,0.3,0,0.5,0c0.5,0,0.8,0.4,0.8,0.8c0,0.4-0.3,0.8-0.8,0.8c-0.3,0-0.6,0-0.9,0
		c-0.5,0-0.9-0.4-0.9-0.8c0-0.5,0.4-0.8,0.9-0.9C10,12.9,10.2,12.9,10.3,12.9C10.3,12.9,10.3,12.9,10.3,12.9z"/>
	<path class="st0" d="M10.3,17.1c-0.2,0-0.3,0-0.5,0c-0.5,0-0.8-0.4-0.8-0.8c0-0.4,0.3-0.8,0.8-0.8c0.3,0,0.6,0,0.9,0
		c0.5,0,0.9,0.4,0.9,0.8c0,0.5-0.4,0.8-0.9,0.9C10.5,17.1,10.4,17.1,10.3,17.1C10.3,17.1,10.3,17.1,10.3,17.1z"/>
</g>
</svg>
