<?xml version="1.0" encoding="utf-8"?>
<!-- Generator: Adobe Illustrator 23.0.3, SVG Export Plug-In . SVG Version: 6.00 Build 0)  -->
<svg version="1.1" id="Layer_1" xmlns="http://www.w3.org/2000/svg" xmlns:xlink="http://www.w3.org/1999/xlink" x="0px" y="0px"
	 viewBox="0 0 42 42" style="enable-background:new 0 0 42 42;" xml:space="preserve">
<style type="text/css">
	.st0{fill:#217091;}
</style>
<g>
	<g>
		<path class="st0" d="M18.5,37.6c-0.3,0.1-0.6,0.2-0.8,0.2c0,0-0.1,0-0.1,0c-0.1,0-0.2,0-0.3-0.1c-0.1-0.1-0.1-0.2,0-0.3
			c0.3-0.4,0.5-0.8,0.8-1.3c0.1-0.1,0.2-0.3,0.3-0.4c0.1-0.1,0-0.3-0.1-0.3c-0.2,0-0.4-0.1-0.6-0.1c-0.2-0.1-0.3-0.1-0.3-0.3
			c0-0.2,0-0.4,0-0.5c0-0.1,0-0.2-0.1-0.2c-0.1-0.1-0.3-0.1-0.4-0.2c-0.3-0.2-0.3-0.3-0.2-0.5c0.1-0.2,0.1-0.3,0.2-0.5
			c0-0.1,0-0.1,0-0.2c-0.1-0.1-0.2-0.3-0.4-0.4c-0.1-0.2-0.1-0.3,0-0.5c0.1-0.1,0.2-0.3,0.3-0.4c0.1-0.1,0.1-0.2,0.1-0.3
			c-0.1-0.2-0.1-0.3-0.2-0.5c-0.1-0.2,0-0.3,0.1-0.4c0.2-0.1,0.3-0.2,0.5-0.3c0.1,0,0.1-0.1,0.1-0.2c0-0.2,0-0.4,0-0.6
			c0-0.2,0.1-0.3,0.3-0.4c0.2,0,0.4-0.1,0.5-0.1c0.1,0,0.1-0.1,0.2-0.1c0.1-0.2,0.1-0.3,0.2-0.5c0.1-0.2,0.2-0.3,0.4-0.2
			c0.2,0,0.4,0,0.5,0.1c0.1,0,0.2,0,0.2-0.1c0.1-0.1,0.2-0.3,0.3-0.4c0.2-0.2,0.3-0.2,0.5-0.1c0.2,0.1,0.3,0.2,0.5,0.3
			c0.1,0,0.1,0,0.2,0c0.2-0.1,0.3-0.2,0.5-0.3c0.2-0.1,0.3-0.1,0.5,0.1c0.1,0.1,0.2,0.3,0.4,0.4c0,0,0.1,0.1,0.2,0.1
			c0.2,0,0.3,0,0.5-0.1c0.2,0,0.4,0,0.5,0.2c0.1,0.2,0.1,0.3,0.2,0.5c0,0.1,0.1,0.1,0.2,0.1c0.2,0,0.3,0.1,0.5,0.1
			c0.3,0.1,0.3,0.2,0.3,0.4c0,0.2,0,0.3,0,0.5c0,0.1,0,0.2,0.1,0.2c0.1,0.1,0.3,0.2,0.4,0.3c0.2,0.1,0.3,0.2,0.2,0.5
			c-0.1,0.2-0.1,0.3-0.2,0.5c0,0.1,0,0.1,0,0.2c0.1,0.1,0.2,0.3,0.3,0.4c0.1,0.2,0.1,0.3,0,0.5c-0.1,0.2-0.2,0.3-0.3,0.4
			c-0.1,0.1-0.1,0.2,0,0.3c0.1,0.2,0.1,0.3,0.2,0.5c0.1,0.2,0,0.3-0.2,0.4c-0.2,0.1-0.3,0.2-0.5,0.3c-0.1,0.1-0.1,0.1-0.1,0.2
			c0,0.2,0,0.4,0,0.6c0,0.2-0.1,0.2-0.3,0.3c-0.2,0-0.3,0.1-0.5,0.1c-0.2,0-0.3,0.2-0.2,0.4c0.3,0.5,0.6,1.1,0.9,1.6
			c0,0.1,0.1,0.2,0,0.2c0,0.1-0.1,0.2-0.2,0.1c-0.3-0.1-0.6-0.1-0.8-0.2c-0.1,0-0.1,0-0.2,0.1c-0.1,0.3-0.1,0.5-0.2,0.8
			c0,0.1-0.1,0.2-0.2,0.2c-0.1,0-0.2,0-0.2-0.1c-0.3-0.5-0.6-1-0.9-1.6c0-0.1-0.1-0.1-0.2-0.1c-0.1,0-0.2,0-0.3-0.1
			c-0.2-0.1-0.3-0.2-0.5-0.3c-0.1,0-0.1,0-0.2,0c-0.2,0.1-0.3,0.2-0.5,0.3c-0.1,0-0.2,0-0.3,0.1c0,0-0.1,0-0.1,0.1
			c-0.3,0.5-0.6,1.1-0.9,1.6c0,0.1-0.1,0.1-0.1,0.1c-0.1,0.1-0.2,0-0.3-0.2C18.7,38.3,18.6,38,18.5,37.6
			C18.5,37.7,18.5,37.6,18.5,37.6z M24.5,29.6c0-0.1,0-0.2,0-0.3c0-0.1,0-0.2-0.1-0.2c-0.1,0-0.2,0-0.3-0.1c-0.3,0-0.5-0.2-0.6-0.5
			c0-0.1-0.1-0.2-0.1-0.3c0-0.1-0.1-0.1-0.2-0.1c-0.1,0-0.2,0-0.3,0.1c-0.3,0.1-0.5,0-0.7-0.2C22.1,28,22,27.9,22,27.8
			c-0.1-0.1-0.1-0.1-0.2,0c-0.1,0.1-0.3,0.2-0.4,0.3c-0.1,0.1-0.2,0.1-0.4,0c-0.2-0.1-0.3-0.2-0.5-0.3c-0.1-0.1-0.1,0-0.2,0
			c-0.1,0.1-0.2,0.3-0.3,0.4c-0.1,0.1-0.2,0.2-0.4,0.1c-0.2,0-0.3,0-0.5-0.1c-0.1,0-0.2,0-0.2,0.1c-0.1,0.2-0.1,0.3-0.2,0.5
			c0,0.1-0.1,0.2-0.3,0.2c-0.2,0-0.3,0.1-0.5,0.1c-0.1,0-0.2,0.1-0.2,0.2c0,0.2,0,0.3,0,0.5c0,0.1-0.1,0.3-0.2,0.3
			c-0.2,0.1-0.3,0.2-0.5,0.3c-0.1,0-0.1,0.1-0.1,0.2c0.1,0.2,0.1,0.3,0.2,0.5c0,0.1,0,0.3-0.1,0.4c-0.1,0.1-0.2,0.3-0.3,0.4
			c-0.1,0.1-0.1,0.1,0,0.2c0.1,0.1,0.2,0.3,0.3,0.4c0.1,0.2,0.2,0.3,0.1,0.5c-0.1,0.1-0.1,0.3-0.2,0.4c0,0.1,0,0.1,0.1,0.2
			c0.2,0.1,0.3,0.2,0.5,0.3c0.1,0.1,0.2,0.2,0.2,0.3c0,0.2,0,0.4,0,0.5c0,0.1,0,0.1,0.1,0.1c0.2,0,0.3,0.1,0.5,0.1
			c0.2,0,0.3,0.1,0.3,0.3c0.1,0.2,0.1,0.3,0.2,0.5c0,0.1,0.1,0.1,0.2,0.1c0.2,0,0.4-0.1,0.6-0.1c0.1,0,0.3,0,0.4,0.1
			c0.1,0.1,0.2,0.3,0.4,0.4c0,0.1,0.1,0.1,0.2,0c0.2-0.1,0.3-0.2,0.5-0.3c0.1-0.1,0.3-0.1,0.4,0c0.1,0.1,0.3,0.2,0.4,0.3
			c0.1,0.1,0.2,0,0.2,0c0.1-0.1,0.2-0.3,0.3-0.4c0.1-0.1,0.2-0.1,0.3-0.1c0.2,0,0.4,0,0.6,0.1c0.1,0,0.1,0,0.1-0.1
			c0.1-0.2,0.1-0.3,0.2-0.5s0.2-0.3,0.3-0.3c0.2,0,0.3-0.1,0.5-0.1c0.1,0,0.1-0.1,0.1-0.2c0-0.2,0-0.3,0-0.5c0-0.2,0.1-0.3,0.2-0.4
			c0.2-0.1,0.3-0.2,0.5-0.3c0.1,0,0.1-0.1,0.1-0.2c-0.1-0.2-0.1-0.4-0.2-0.5c0-0.1,0-0.2,0.1-0.4c0.1-0.2,0.2-0.3,0.4-0.5
			c0.1-0.1,0.1-0.1,0-0.2c-0.1-0.1-0.1-0.2-0.2-0.2c-0.3-0.2-0.3-0.5-0.1-0.9c0.2-0.4,0.2-0.3-0.2-0.6C24.6,30.2,24.4,30,24.5,29.6z
			 M23.1,38c0-0.1,0-0.1,0-0.1c0-0.2,0.1-0.3,0.1-0.5c0-0.2,0.1-0.2,0.3-0.2c0.2,0,0.3,0.1,0.5,0.1c0.1,0,0.1,0,0.2,0c0,0,0,0,0,0
			c-0.2-0.4-0.4-0.7-0.6-1.1c-0.1,0.1-0.2,0.2-0.4,0.1c-0.1,0-0.3,0-0.4-0.1c-0.2-0.1-0.4,0-0.5,0.2c0,0.1-0.1,0.1,0,0.2
			c0.2,0.4,0.4,0.8,0.7,1.2C23.1,37.9,23.1,37.9,23.1,38z M19,37.9C19,37.9,19,38,19,37.9C19.1,37.9,19.1,37.9,19,37.9
			c0.3-0.5,0.5-0.9,0.8-1.3c0,0,0-0.1,0-0.1c-0.2-0.3-0.2-0.3-0.5-0.2c-0.1,0-0.1,0-0.2,0c-0.2,0-0.4,0.1-0.5-0.1
			c-0.2,0.4-0.4,0.7-0.6,1.1c0.2-0.1,0.4-0.1,0.6-0.2c0.2-0.1,0.3,0,0.4,0.2C18.9,37.6,19,37.7,19,37.9z"/>
		<path class="st0" d="M21.1,28.7c1.8,0,3.4,1.4,3.4,3.4c0,2-1.7,3.5-3.5,3.4c-1.8-0.1-3.3-1.5-3.3-3.5
			C17.7,30.2,19.2,28.7,21.1,28.7z M21.1,35.1c1.6,0,3-1.3,3-2.9c0.1-1.7-1.3-3.1-3-3.2c-1.7,0-3.1,1.4-3.1,3
			C18,33.8,19.4,35.1,21.1,35.1z"/>
		<path class="st0" d="M19.7,33.6c0-0.3,0.1-0.6,0.1-0.9c0-0.1,0-0.1-0.1-0.2c-0.1-0.1-0.2-0.2-0.3-0.3c-0.1-0.1-0.2-0.2-0.3-0.3
			c-0.2-0.3-0.2-0.5,0.2-0.6c0.3-0.1,0.6-0.1,0.8-0.1c0.1,0,0.2,0,0.2-0.1c0.1-0.2,0.2-0.4,0.3-0.6c0.1-0.1,0.1-0.2,0.2-0.3
			c0.1-0.1,0.3-0.1,0.4,0c0.1,0.1,0.1,0.2,0.2,0.3c0.1,0.2,0.2,0.4,0.3,0.6c0,0,0.1,0.1,0.1,0.1c0.3,0,0.5,0.1,0.8,0.1
			c0.1,0,0.2,0,0.2,0.1c0.1,0.1,0.2,0.2,0.1,0.3c-0.1,0.1-0.1,0.2-0.2,0.3c-0.1,0.2-0.3,0.3-0.5,0.5c-0.1,0.1-0.1,0.1-0.1,0.2
			c0,0.2,0.1,0.5,0.1,0.7c0,0.1,0,0.1,0,0.2c0,0.2-0.2,0.3-0.4,0.3c-0.2-0.1-0.4-0.2-0.6-0.3c-0.5-0.2-0.3-0.2-0.7,0
			c-0.2,0.1-0.4,0.2-0.6,0.3C19.9,34.1,19.8,34,19.7,33.6C19.8,33.7,19.8,33.7,19.7,33.6C19.7,33.6,19.7,33.6,19.7,33.6z M22,33.6
			c0-0.2-0.1-0.3-0.1-0.5c-0.1-0.5-0.1-0.5,0.3-0.9c0.1-0.1,0.2-0.2,0.4-0.4c-0.1,0-0.1,0-0.2,0c-0.2,0-0.5-0.1-0.7-0.1
			c-0.1,0-0.2-0.1-0.3-0.2c-0.1-0.2-0.2-0.4-0.3-0.5c0-0.1-0.1-0.1-0.1-0.2c0,0.1-0.1,0.1-0.1,0.1c-0.1,0.2-0.2,0.4-0.3,0.6
			c-0.1,0.1-0.2,0.2-0.3,0.2c-0.1,0-0.3,0-0.4,0.1c-0.1,0-0.3,0-0.5,0.1c0.2,0.2,0.3,0.3,0.5,0.5c0.2,0.2,0.2,0.4,0.2,0.6
			c0,0.2-0.1,0.4-0.1,0.7c0.1,0,0.1-0.1,0.2-0.1c0.2-0.1,0.4-0.2,0.6-0.3c0.1-0.1,0.2-0.1,0.3,0c0.2,0.1,0.4,0.2,0.6,0.3
			C21.9,33.5,22,33.5,22,33.6z"/>
	</g>
	<path class="st0" d="M14.6,8.7c0.1-1.6,0.1-3.2,0.2-4.8c0-0.4,0.1-0.8,0.3-1.2c0.6-1.8,1.6-2.5,3.5-2.4c1.4,0,2.8-0.1,4.2-0.3
		c1.7-0.2,3.2,0.9,3.7,2.5c0.4,1.1,0.8,2.2,0.8,3.4c0,0.9,0,1.8,0,2.7c0.7,0.3,0.9,0.7,0.8,1.6c-0.1,0.7-0.3,1.4-0.6,2
		c-0.1,0.3-0.5,0.5-0.8,0.7c-0.1,0.1-0.2,0.2-0.3,0.3c-0.5,0.8-1,1.6-1.5,2.4c-0.3,0.5-0.3,1.1,0.2,1.4c0.5,0.4,1,0.9,1.6,1.3
		c0.1,0.1,0.3,0.2,0.4,0.2c0.7,0.2,1.4,0.4,2.1,0.6c2,0.7,3.7,1.8,4.4,3.9c0,0.1,0.3,0.2,0.4,0.2c1.7,0.1,2.2,0.7,2,2.4
		c-0.7,4.9-1.4,9.9-2.1,14.8C33.7,41.5,33.1,42,32,42c-7.3,0-14.7,0-22.1,0c-1.1,0-1.7-0.5-1.9-1.6c-0.4-2.7-0.8-5.4-1.1-8.1
		C6.6,30,6.3,27.8,6,25.5c-0.2-1.4,0.5-2.2,1.9-2.2c0.3,0,0.5,0,0.6-0.3c0.6-1.9,2.1-3,3.9-3.7c0.2-0.1,0.3-0.1,0.5-0.2
		c1.7-0.2,2.9-1.2,4.2-2.2c0.2-0.2,0.2-0.9,0-1.2c-0.5-0.8-1.1-1.7-1.6-2.5c-0.1-0.1-0.2-0.2-0.2-0.2c-0.5-0.1-0.8-0.4-0.9-0.9
		c-0.2-0.8-0.4-1.5-0.5-2.3C13.8,9.2,14.1,8.8,14.6,8.7z M21,24.2C21,24.2,21,24.2,21,24.2c-4.4,0-8.7,0-13.1,0
		c-0.9,0-1.2,0.4-1.1,1.2c0.7,4.9,1.4,9.8,2.1,14.7c0.1,0.8,0.3,1.1,1.2,1.1c7.3,0,14.5,0,21.8,0c0.9,0,1.1-0.2,1.2-1.1
		c0.7-4.9,1.4-9.8,2-14.7c0.1-0.9-0.2-1.2-1-1.2C29.8,24.2,25.4,24.2,21,24.2z M16.8,7.3c-0.3,1.4-0.5,2.8-0.3,4.2
		c0,0.2,0.1,0.5,0,0.6c-0.3,0.3-0.1,0.5,0,0.8c0.1,0.4,0.3,0.7,0.5,1c0.9,1.5,2.1,2.5,3.9,2.6c2.3,0.2,4.3-1.6,5-4
		c0-0.1,0-0.2,0-0.3c0-0.2-0.1-0.5-0.1-0.7c0.2-2.2-0.3-4.2-1.2-6.2C21.2,7.3,21.2,7.3,16.8,7.3z M9.2,23.3c7.9,0,15.7,0,23.5,0
		c-0.1-0.7-0.6-1.4-1.4-2.1c-1.4-1.2-3.3-1.4-5-2.1c-0.6,1.1-1.2,2.2-1.8,3.3c-0.4,0.8-0.7,0.8-1.1,0c-0.5-0.7-0.9-1.4-1.4-2.2
		c-0.4,0.3-0.7,0.7-1,0.7c-0.3,0-0.7-0.4-1-0.7c-0.1,0.1-0.1,0.2-0.2,0.3c-0.4,0.7-0.8,1.3-1.3,2c-0.3,0.5-0.6,0.5-1,0
		c-0.1-0.1-0.2-0.3-0.2-0.4c-0.5-1-1.1-2-1.6-3c-1.1,0.3-2.1,0.6-3.1,1C11.1,20.7,9.9,21.6,9.2,23.3z M15.4,8.2c0.1,0,0.1,0,0.2,0
		c0.1-0.5,0.2-0.9,0.4-1.4c0.1-0.3,0.3-0.5,0.6-0.4c0.2,0,0.4,0.1,0.6,0.1C19.7,6.7,22,6.2,24,4.5c0.5-0.4,0.7-0.4,1,0.2
		c0.3,0.7,0.6,1.3,0.8,2c0.2,0.5,0.3,1.1,0.5,1.6c0.1-0.6,0.2-1.1,0.2-1.7c0-1.3-0.3-2.5-0.7-3.7c-0.5-1.4-1.5-2.1-2.9-2
		C21.4,1,20,1.2,18.6,1.2c-1.7,0-2.5,0.5-2.8,2.1C15.5,4.9,15.5,6.5,15.4,8.2z M21,20c0.8-0.8,1.6-1.5,2.4-2.2
		c0.4-0.3,0.5-0.7,0.4-1.2c-1.9,1.1-3.8,1.1-5.8-0.1c0.1,0.5,0.1,0.9,0.3,1.1C19.1,18.4,20,19.2,21,20z M18,21.7
		c0.5-0.7,0.9-1.4,1.3-2c-0.7-0.7-1.4-1.3-2.1-1.9c-0.3,0.2-0.6,0.5-0.9,0.7c0.5,0.9,1,1.8,1.4,2.6C17.8,21.3,17.9,21.5,18,21.7z
		 M23.9,21.7c0.4-0.8,0.9-1.6,1.3-2.3c0.5-0.9,0.5-0.9-0.4-1.5c0,0-0.1,0-0.1,0c-0.7,0.6-1.3,1.2-2,1.8C23.1,20.4,23.5,21,23.9,21.7
		z M26.7,11.8c0.5-0.9,0.6-1.9,0.3-2.3C26.6,10.5,26.5,11.6,26.7,11.8z M15.3,11.8c0.1-0.8-0.3-1.5-0.5-2.3
		C14.7,10.4,14.9,11.1,15.3,11.8z"/>
</g>
</svg>
